<?xml version="1.0" encoding="utf-8"?>
<!-- Generator: Adobe Illustrator 25.3.1, SVG Export Plug-In . SVG Version: 6.00 Build 0)  -->
<svg version="1.1" id="圖層_1" xmlns="http://www.w3.org/2000/svg" xmlns:xlink="http://www.w3.org/1999/xlink" x="0px" y="0px"
	 viewBox="0 0 240 240" style="enable-background:new 0 0 240 240;" xml:space="preserve">
<style type="text/css">
	.st0{fill-rule:evenodd;clip-rule:evenodd;}
	.st1{fill-rule:evenodd;clip-rule:evenodd;fill:#777B7D;}
	.st2{fill-rule:evenodd;clip-rule:evenodd;fill:#9FA6A8;}
	.st3{fill-rule:evenodd;clip-rule:evenodd;fill:#D5DDE0;}
	.st4{fill-rule:evenodd;clip-rule:evenodd;fill:#454545;}
	.st5{fill-rule:evenodd;clip-rule:evenodd;fill:#242424;}
	.st6{fill-rule:evenodd;clip-rule:evenodd;fill:#172123;}
	.st7{fill-rule:evenodd;clip-rule:evenodd;fill:#616161;}
	.st8{fill-rule:evenodd;clip-rule:evenodd;fill:#485254;}
	.st9{fill-rule:evenodd;clip-rule:evenodd;fill:#8A8F91;}
	.st10{fill-rule:evenodd;clip-rule:evenodd;fill:#B2BBBD;}
	.st11{fill-rule:evenodd;clip-rule:evenodd;fill:#636769;}
	.st12{fill-rule:evenodd;clip-rule:evenodd;fill:#707B81;}
	.st13{fill-rule:evenodd;clip-rule:evenodd;fill:#DDE5E8;}
	.st14{fill-rule:evenodd;clip-rule:evenodd;fill:#232D2F;}
	.st15{fill-rule:evenodd;clip-rule:evenodd;fill:#323B3D;}
	.st16{fill-rule:evenodd;clip-rule:evenodd;fill:#E92028;}
	.st17{fill-rule:evenodd;clip-rule:evenodd;fill:#990B10;}
	.st18{fill-rule:evenodd;clip-rule:evenodd;fill:#70080B;}
	.st19{fill-rule:evenodd;clip-rule:evenodd;fill:#FF4750;}
	.st20{fill-rule:evenodd;clip-rule:evenodd;fill:#540609;}
	.st21{fill-rule:evenodd;clip-rule:evenodd;fill:#A80F14;}
	.st22{fill-rule:evenodd;clip-rule:evenodd;fill:#C40F15;}
	.st23{fill-rule:evenodd;clip-rule:evenodd;fill:#FF9EA3;}
	.st24{fill-rule:evenodd;clip-rule:evenodd;fill:#A0A0A0;}
	.st25{fill-rule:evenodd;clip-rule:evenodd;fill:#FFFFFF;}
	.st26{fill-rule:evenodd;clip-rule:evenodd;fill:#818181;}
	.st27{opacity:0.5;fill-rule:evenodd;clip-rule:evenodd;fill:#818181;}
	.st28{fill-rule:evenodd;clip-rule:evenodd;fill:#333333;}
	.st29{fill-rule:evenodd;clip-rule:evenodd;fill:#7D7D7D;}
	.st30{fill-rule:evenodd;clip-rule:evenodd;fill:#474747;}
	.st31{fill-rule:evenodd;clip-rule:evenodd;fill:#CCCCCC;}
	.st32{fill-rule:evenodd;clip-rule:evenodd;fill:#E8E8E8;}
	.st33{fill-rule:evenodd;clip-rule:evenodd;fill:#BABABA;}
	.st34{fill-rule:evenodd;clip-rule:evenodd;fill:#ABABAB;}
	.st35{fill-rule:evenodd;clip-rule:evenodd;fill:#FF5961;}
	.st36{fill-rule:evenodd;clip-rule:evenodd;fill:#FF8C92;}
	.st37{fill-rule:evenodd;clip-rule:evenodd;fill:#6E6E6E;}
	.st38{fill-rule:evenodd;clip-rule:evenodd;fill:#121212;}
</style>
<g>
	<g>
		<g>
			<g>
				<path class="st0" d="M209.38,76.82c2.97,16.61,0.3,26.69-5.73,36.94c-5.46,9.26-15.61,15.8-28.05,20.42
					c4.49,2.52,8.88,5.05,13.4,7.58c9.1,5.3,23.98-3.28,33.24-19.18c9.24-15.89,9.36-33.07,0.27-38.36
					C218.11,81.78,213.76,79.27,209.38,76.82z"/>
				<g>
					<path class="st1" d="M211.44,94.97c-5.12-2.98-13.49,1.85-18.69,10.78c-5.2,8.95-5.27,18.61-0.15,21.59
						c1.48,0.86,6.69,4.11,8.55,3.76c4.6-0.87,6.44-8.19,10.14-14.55c3.58-6.15,9.45-12.53,8.15-16.96
						C218.85,97.59,213.03,95.9,211.44,94.97z"/>
					<path class="st2" d="M217.63,97.91c-5.12-2.98-13.49,1.85-18.69,10.78c-5.2,8.95-5.27,18.61-0.15,21.59
						c5.12,2.98,13.49-1.85,18.69-10.79C222.69,110.56,222.75,100.9,217.63,97.91z"/>
					<path class="st3" d="M214.16,122.8c-3.12,4.56-10.23,9.27-14.88,6.56c-4.49-2.61-4.3-12.03,0.27-19.87
						c3.74-6.41,9.87-11.16,14.24-10.96c-0.77,1.55-0.95,2.29-1.99,5.24c-2.55-0.22-7.23,3.73-9.43,7.51
						c-1.79,3.07-3.7,11.74-0.11,13.84C206.1,127.37,209.87,125.41,214.16,122.8z"/>
				</g>
				<path class="st4" d="M190.25,143.28c-3.04-17.01-0.31-27.34,5.87-37.82c5.59-9.49,15.99-16.18,28.73-20.91
					c-4.59-2.58-9.09-5.17-13.72-7.77c-9.32-5.43-24.56,3.36-34.04,19.64c-9.47,16.27-9.59,33.86-0.27,39.28
					C181.3,138.21,185.76,140.78,190.25,143.28z"/>
				<path class="st5" d="M190.25,143.28c-6.42-7.01-6.66-24.36-0.62-34.85c2.82-4.9,10.31-17.18,15.38-20.69
					c-7.43,3.68-20.68,20.07-23.63,29.64c-2,6.51-3.2,5.15-5.49,3.87c-1.85-1.03-2.42-3.9-1.98-8.55
					c1.04-10.92,7.38-22.9,13.29-29.06c-3.7,3.41-7.19,7.73-10.13,12.78c-9.47,16.27-9.59,33.86-0.27,39.28
					C181.3,138.21,185.76,140.78,190.25,143.28z"/>
				<path class="st6" d="M190.52,104c-9.46,16.29-9.58,33.87-0.27,39.28c9.31,5.43,24.55-3.36,34.03-19.64
					c5.52-9.48,13.33-31.31,0.08-39.43C213.73,77.7,196.51,91.88,190.52,104L190.52,104z M221.43,91.89
					c7.1,4.14,7.02,17.56-0.2,29.97c-7.23,12.41-18.85,19.11-25.96,14.97c-7.11-4.14-7.02-17.55,0.21-29.97
					C202.7,94.46,214.32,87.76,221.43,91.89z"/>
				<path class="st7" d="M224.64,95.1c8.23,13.42-8.97,43.07-24.71,42.96C217.77,141.43,235.42,105.27,224.64,95.1z"/>
				<path class="st8" d="M191.36,104.5c-8.93,15.37-9.15,32.81-0.36,37.93c4.92,2.87,11.85,1.42,18.55-2.91
					c1.85-1.54,0.87-1.62-0.35-1.23c-1.18,0.38-3.55,1.17-4.6,1.57c-3.36,1.28-8.23,2.08-11.52,0.16
					c-7.94-4.52-6.2-22.45,0.62-34.17c6.15-9.65,12.16-14.9,17.51-17.58c3.49-1.75,6.37-2.67,7.1-4.72
					C208.37,84.27,196.03,95.06,191.36,104.5z"/>
				<path class="st7" d="M210.87,77.69l7.28,3.79c-14.55,0.56-30.41,14.03-38.21,33.07c-2.05,5-4.95,2.77-4.14-3.21
					c1.11-8.14,5.26-18.13,10.81-24.37C192.96,79.85,201.47,73.55,210.87,77.69z"/>
				<g>
					<path class="st9" d="M207.73,124.02c-0.79-4.44-0.08-7.13,1.53-9.87c1.46-2.47,4.17-4.22,7.49-5.45
						c-1.2-0.67-2.37-1.35-3.58-2.03c-2.43-1.42-6.41,0.88-8.88,5.12c-2.47,4.24-2.5,8.83-0.07,10.25
						C205.39,122.7,206.55,123.37,207.73,124.02z"/>
					<path class="st10" d="M207.8,113.77c-2.47,4.25-2.5,8.83-0.07,10.25c2.43,1.42,6.4-0.88,8.88-5.12
						c1.44-2.47,3.48-8.17,0.02-10.28C213.85,106.91,209.36,110.61,207.8,113.77z"/>
				</g>
			</g>
			<g>
				<path class="st2" d="M170.87,149.92l41.55-26.61c9.11-5.53,5.38-14.78-1.89-10.79l-41.06,26.71L170.87,149.92z"/>
				<path class="st11" d="M170.87,149.92l41.55-26.61c5.96-3.62,6.42-8.84,3.99-10.89c0.5,3.22-2.28,6.48-4.72,7.97l-19.67,12.02
					l-1.64-6.71l-20.91,13.52L170.87,149.92z"/>
				<path class="st10" d="M208.79,120.25c4.8-2.92,6.69-6,6.14-7.38c-0.4-1-2.08-1.09-4.87,0.44l-18.25,11.95l1.18,4.44
					L208.79,120.25z"/>
				<path class="st3" d="M213.92,112.8c-0.49-0.51-1.87-0.05-3.84,1.03l-17.23,11.3l0.5,2.05c2.4-1.53,12.89-7.45,18.08-11.33
					C211.95,115.47,214.73,113.64,213.92,112.8z"/>
			</g>
		</g>
		<g>
			<path class="st12" d="M64.99,180.99c11.86,7.72,18.68,11.31,27.95,11.98c12.34,0.89,22.18-2.79,35.04-9.28
				c11.16-5.63,24.58-13.37,39.51-20.97c9.16-4.67,18.73-13.73,17.64-24.57l-35.71-29.82l-76.24,38.86l-15.96,11.13L64.99,180.99z"
				/>
			<path class="st13" d="M70.24,170.38c8.35,5.84,20.94,22.96,35.84,19.77c7.2-1.54,14.26-4.4,22.53-8.57
				c11.16-5.63,24.58-13.37,39.51-20.97c9.16-4.67,17.68-12.58,16.59-23.41l-34.66-30.98l-76.24,38.85l-12.5,10.08L70.24,170.38z"/>
			<path class="st14" d="M110.11,185.84c19.91-10.26,39.59-20.26,59.2-30.98c6.84-3.74,13.32-8.01,15.04-14.29
				c1.71-6.24-1.12-10.36-4.19-15.25l-7-6.24l-48.73-21.74c-11.23,7.72-22.26,16.25-29.7,22.83c-7.41,6.55-10.2,11.77-19.66,20.86
				l4.19,19.96c5.51,9.51,9.46,15.91,16.24,23.79C99.84,189.81,105.22,187.89,110.11,185.84z"/>
			<path class="st8" d="M111.7,181.59c18.95-9.76,37.68-19.29,56.36-29.49c6.51-3.56,12.68-7.63,14.32-13.6
				c1.63-5.94-1.07-9.87-3.99-14.52l-6.66-5.94l-46.38-20.69c-10.69,7.35-21.19,15.47-28.27,21.73
				c-7.06,6.24-9.71,11.21-18.71,19.86l3.99,19c5.24,9.05,9,15.15,15.46,22.64C101.94,185.36,107.05,183.54,111.7,181.59z"/>
		</g>
		<g>
			<polygon class="st14" points="121.39,85.27 106.06,120.76 105.85,137.78 120.34,151.22 143.65,152.06 189.44,122.23 
				190.91,106.06 171.8,70.36 			"/>
			<polygon class="st6" points="122.34,85.69 107.37,118.03 107.37,136.25 109.79,118.56 			"/>
			<polygon class="st6" points="149.75,132.95 143.65,152.06 189.44,127.8 190.91,106.06 			"/>
			<path class="st15" d="M126.26,108.4c-5.18,6.3-18.04,24.39-18.94,27.91l14.49,13.44C129.09,139.05,122.78,126.12,126.26,108.4z"
				/>
			<path class="st6" d="M121.7,149.72c16.46-15.91,29.89-30.8,44.61-48.33c-12.82,16.29-25.25,31.89-39.38,47.05l15.59,1.36
				L121.7,149.72z"/>
			<path class="st8" d="M124.26,111.66c-5.18,6.3-16.04,21.14-16.94,24.65l14.49,13.44c-2.25-3.12-8.66-10.14-11.63-14.41
				C114.56,127.09,119.51,119.96,124.26,111.66z"/>
		</g>
		<g>
			<path class="st16" d="M156.46,41.16c21.36-16.97,54.04-27.13,67.25-11.97c3.09,3.55,4.37,9.79,3.06,17.21
				c-2.27,12.87-9.89,29.44-16.33,42.64c-8.25,16.9-5.56,15.78-20.89,26.24l-39.95,21.37l-1.65-2.05l0.12-7.53l19.43-27.83
				L156.46,41.16z"/>
			<path class="st17" d="M226.12,33.44c1.24,3.47,1.54,7.95,0.65,12.96c-2.27,12.87-9.89,29.44-16.33,42.64
				c-8.25,16.9-5.56,15.78-20.89,26.24c-13.66,7.83-25.86,14.7-39.95,21.37l0.22-8.98l19.32-27.41
				c8.18-5.97,16.38-14.39,25.15-23.38C210.26,60.52,226.13,43.79,226.12,33.44z"/>
			<path class="st18" d="M226.19,46.99c-2.16,12.25-10.68,29.29-16.81,41.86c-7.85,16.09-5.29,15.02-19.89,24.98
				c-13.01,7.46-24.62,13.99-38.04,20.34c14.31-12.27,29.48-20.4,44.65-38.63C207,82.46,218.85,60.78,226.19,46.99z"/>
			<path class="st19" d="M166.74,36.06c19.71-12.28,44.1-18.13,55.68-6.13c6.54,6.78-14.31,21.1-29.11,31.71
				C183.78,46,171.25,38.55,166.74,36.06z"/>
		</g>
		<g>
			<path class="st6" d="M157.05,34.54c12.94,3.66,37.99,21.37,35.75,41.65c-21.16,20.83-29.96,34.01-63.33,31.85
				c-7.96-0.51-20.08-4.28-21.81-8.83c-1.74-4.59-0.91-17.34,2.02-21.85c4.91-7.56,11.54-14.72,18.63-23.22
				c2.23-2.67,1.88-5.51,5.47-10.09C140.82,39.89,149.23,32.32,157.05,34.54z"/>
			<path class="st0" d="M168.81,74.76c4.97,5.03,18.04-5.29,22.6-9.7c1.26,3.57,1.8,7.3,1.38,11.13
				c-20.03,19.72-28.98,32.58-58.19,32.07c28.98-3.98,33-18.9,33.4-30.11c0.09-2.48-23.22-23.23-34.42-27.75
				c0.17-0.49,0.49-1.12,0.92-2.14C142.19,49.65,162.02,67.89,168.81,74.76z"/>
			<path class="st14" d="M129.47,106.36c-7.96,0.56-20.09-2.6-21.81-7.15c-1.74-4.59-1.75-22.8,1.18-27.31
				c-1.6,33.4,50.61,15.95,57.7,7.44C163.57,97.76,149.57,104.94,129.47,106.36z"/>
			<path class="st8" d="M166.19,80.14c-7.59,8.34-17.47,14.87-32.19,15.77c-8.13,0.5-17.44-2.48-20.66-4.98
				c-2.79-2.17-4.02-4.17-4.72-9.37c-0.56-4.2-0.67-8.74,0.58-10.67c3.7-5.69,9.41-10.55,15.93-15.75c1.05-0.84,2.56-2.03,4.33-3.36
				C134.16,49.78,169.57,76.42,166.19,80.14z"/>
			<path class="st14" d="M134.43,44.63c20.6,12.21,28.05,18.08,35.54,27.48c3.4,3.96,20.24-6.97,17.83-11.95
				c-4.42-8.16-12.77-14.99-21.2-20.31c-4.85-3.06-9.33-5.39-14.42-4.78C147.51,35.63,142.53,38.95,134.43,44.63z"/>
		</g>
	</g>
	<g>
		<g>
			<g>
				<path class="st20" d="M86.4,147.86c0.69,4.9,2.5,9.75,6.12,11.28c-2.91,9.18-17.51,13.78-22.53,12.48
					c-9.89-2.56-23.54-19.09-35.16-23.71c1.12-1.27,2.2-2.06,3.08-2.83c0.83-0.74,1.64-1.43,1.76-2.59l0.38-3.83L86.4,147.86z"/>
				<g>
					<g>
						<path class="st0" d="M47.83,164.59c2.97,16.61,0.3,26.69-5.73,36.94c-5.46,9.26-15.61,15.8-28.05,20.42
							c4.49,2.52,8.88,5.05,13.4,7.58c9.1,5.3,23.98-3.28,33.24-19.18c9.24-15.89,9.36-33.07,0.27-38.36
							C56.56,169.55,52.22,167.04,47.83,164.59z"/>
						<g>
							<path class="st1" d="M49.89,182.74c-5.12-2.98-13.49,1.85-18.69,10.78c-5.2,8.95-5.27,18.61-0.15,21.59
								c1.48,0.86,6.69,4.12,8.55,3.76c4.59-0.87,6.43-8.19,10.14-14.55c3.58-6.15,9.45-12.53,8.15-16.96
								C57.3,185.36,51.48,183.67,49.89,182.74z"/>
							<path class="st2" d="M56.08,185.68c-5.12-2.98-13.49,1.85-18.69,10.78c-5.2,8.95-5.27,18.61-0.15,21.59
								c5.12,2.98,13.49-1.85,18.69-10.79C61.14,198.33,61.2,188.67,56.08,185.68z"/>
							<path class="st3" d="M52.61,210.58c-3.12,4.56-10.23,9.27-14.88,6.56c-4.49-2.61-4.29-12.03,0.27-19.87
								c3.74-6.41,9.87-11.15,14.24-10.96c-0.77,1.55-0.95,2.29-1.99,5.24c-2.55-0.22-7.23,3.73-9.43,7.51
								c-1.79,3.07-3.7,11.74-0.11,13.84C44.55,215.14,48.32,213.18,52.61,210.58z"/>
						</g>
						<path class="st4" d="M28.7,231.06c-3.04-17.01-0.31-27.33,5.87-37.82c5.59-9.49,15.99-16.18,28.73-20.91
							c-4.59-2.58-9.09-5.17-13.72-7.77c-9.32-5.43-24.56,3.36-34.04,19.64c-9.47,16.27-9.58,33.86-0.27,39.28
							C19.75,225.98,24.21,228.55,28.7,231.06z"/>
						<path class="st5" d="M28.7,231.06c-6.42-7.01-6.67-24.36-0.62-34.85c2.82-4.9,10.31-17.18,15.38-20.69
							c-7.43,3.68-20.68,20.07-23.63,29.64c-2,6.51-3.2,5.15-5.49,3.87c-1.85-1.03-2.42-3.9-1.98-8.55
							c1.04-10.92,7.38-22.9,13.29-29.06c-3.7,3.41-7.19,7.73-10.13,12.78c-9.47,16.27-9.58,33.86-0.27,39.28
							C19.75,225.98,24.21,228.55,28.7,231.06z"/>
						<path class="st0" d="M28.97,191.77c-9.46,16.29-9.58,33.87-0.27,39.29c9.31,5.43,24.55-3.36,34.03-19.64
							c5.52-9.48,13.33-31.31,0.08-39.43C52.18,165.47,34.96,179.65,28.97,191.77L28.97,191.77z M59.88,179.67
							c7.1,4.14,7.02,17.56-0.2,29.97c-7.23,12.41-18.85,19.11-25.95,14.97c-7.11-4.14-7.02-17.55,0.21-29.97
							C41.15,182.23,52.77,175.53,59.88,179.67z"/>
						<path class="st7" d="M63.09,182.87c8.23,13.42-8.97,43.07-24.71,42.96C56.22,229.2,73.87,193.04,63.09,182.87z"/>
						<path class="st4" d="M29.81,192.27c-8.93,15.37-9.15,32.81-0.36,37.93c4.93,2.87,11.85,1.42,18.56-2.91
							c1.85-1.54,0.87-1.62-0.35-1.23c-1.18,0.38-3.55,1.17-4.6,1.57c-3.36,1.28-8.23,2.08-11.52,0.16
							c-7.94-4.52-6.2-22.45,0.61-34.17c6.15-9.65,12.16-14.9,17.51-17.58c3.49-1.75,6.37-2.67,7.1-4.72
							C46.82,172.04,34.48,182.83,29.81,192.27z"/>
						<path class="st7" d="M49.32,165.46l7.28,3.79c-14.55,0.56-30.41,14.03-38.21,33.07c-2.05,5-4.96,2.77-4.14-3.21
							c1.11-8.14,5.26-18.13,10.81-24.37C31.41,167.62,39.92,161.32,49.32,165.46z"/>
						<g>
							<path class="st9" d="M46.18,211.79c-0.79-4.44-0.08-7.13,1.53-9.87c1.46-2.47,4.17-4.22,7.49-5.45
								c-1.2-0.67-2.37-1.35-3.58-2.03c-2.43-1.42-6.41,0.88-8.88,5.12c-2.47,4.24-2.5,8.83-0.07,10.25
								C43.84,210.47,45,211.14,46.18,211.79z"/>
							<path class="st10" d="M46.25,201.55c-2.47,4.25-2.5,8.83-0.07,10.25c2.43,1.42,6.4-0.88,8.88-5.12
								c1.44-2.47,3.48-8.17,0.02-10.28C52.3,194.68,47.81,198.38,46.25,201.55z"/>
						</g>
					</g>
					<g>
						<g>
							<path class="st21" d="M37.92,181.93c-4.59,2.74-8.29,3.01-9.9,2.92c9.66-14.26,22.72-24.42,36.4-26.61
								c12.86,5.11,9.12,14.18,4.17,19.79C65.03,170.69,56.03,166.08,37.92,181.93z"/>
							<path class="st18" d="M71.03,162.52c4.38,5,1.32,11.26-2.44,15.52c-0.56-1.16-1.27-2.26-2.12-3.21
								C68.43,170.47,69.61,167.07,71.03,162.52z"/>
							<path class="st22" d="M30.59,183.53c7.04-10.7,19.16-20.38,30.27-22.95c-0.62,2.25-1.95,6.03-2.83,8.13
								C46.94,168.48,33.3,182.39,30.59,183.53z"/>
						</g>
						<g>
							<path class="st16" d="M14.82,178.25c0.03,1.38,4.39,7.42,13.2,6.6c9.66-14.26,22.72-24.42,36.4-26.61
								c0,0-17.67-14.48-24.64-13.14C30.39,146.93,14.71,163.36,14.82,178.25z"/>
							<path class="st19" d="M16.96,176.27c0.03,1.26,4.33,6.15,8.28,4.35c8.83-13.03,21.18-21.89,33.68-23.89
								c0,0-12.78-11.55-19.15-10.32C31.19,148.07,16.86,162.66,16.96,176.27z"/>
							<path class="st23" d="M17.37,176.45c0.03,1.11,3.48,4.86,7.2,4.41c-2.91-0.58-5.09-3.04-5.26-5.24
								c-0.35-4.66,6.06-21.38,20.96-29.07C27.51,150.95,17.63,164.69,17.37,176.45z"/>
						</g>
					</g>
				</g>
				<g>
					<path class="st2" d="M54.76,204.65l20.7-57.11l-7.03-4.14l-20.68,58.03C45.17,208.67,52.56,210.72,54.76,204.65z"/>
					<path class="st1" d="M50.7,200.25l20.49-55.22l-2.76-1.62l-20.68,58.03c-2.08,5.83,2.31,8.3,5.25,5.86
						c-1.11,0.43-2.15,0.38-2.72-0.26C49.46,206.11,49.49,203.97,50.7,200.25z"/>
					<path class="st3" d="M54.24,204.22l20.64-57L72.76,146l-21.13,56.86C49.97,207.33,52.81,208.16,54.24,204.22z"/>
				</g>
				<path class="st21" d="M87.17,148.41l5.54,10.44c-4.98,3.36-23,3.89-29.75-3.72c-1.25-1.41-4.19-3.88-7.65-6.15
					c-2.2-1.45-4.61-2.81-6.92-3.77c-2.36-0.98-8.7-2.58-11.98,0.32c1.31-3.24,2.16-4.47,1.38-7.72
					c-2.7-11.25,19.17-0.73,38.63-10.07C97.61,134.17,88.66,129.35,87.17,148.41z"/>
				<path class="st18" d="M91.33,132.26c-2.98,5.87-3.35,11.12-4.13,15.62c-4.24,2.18-36.21,0.18-49.43-10.01
					c-1.83-6.18-1.52-11.53-2.31-24.2l40.96,14.07L91.33,132.26z"/>
				<path class="st20" d="M91.33,132.26c-1.1,2.17-1.84,4.25-2.38,6.24c-7.16,4.31-32.54,5-51.54-2.41
					c-1.83-6.18-1.15-9.74-1.95-22.41l40.96,14.07L91.33,132.26z"/>
				<path class="st22" d="M86.23,149.78l4.8,8.55c-3.61,2.08-14.21,2.58-21.93-0.82c-5.13-2.26-7.97-6.69-13.51-9.45
					c-0.56-1.27-0.76-1.53-0.53-1.52C55.85,146.57,66.89,150.9,86.23,149.78z"/>
			</g>
			<path class="st0" d="M106.69,78.73l-5.35,3.63c-6.41,4.36-5.66,2.68-1.46,9.52l3.66,5.96c-18.05,3.4-42.39-0.97-39.49-23.1
				l3.15,0.13c4.71,0.57,4.16-0.44,3.67-7.18l-0.51-7.03l15.12,10.5L106.69,78.73z"/>
			<g>
				<path class="st16" d="M91.15,132.41c-21.06,6.65-30.58,8.04-53.77,3.49c-2.93-3.94-4.26-22.64-2.82-29.25
					c7.83-9.3,14.94-18.85,23.41-27.72c5.73-6,7.09-7.13,13.26-0.05c4.84,5.56,16.37,10.87,24.67,13.45
					c14.27,4.43,9.83,11.46,5.78,20.05C98.19,119.79,93.82,127.52,91.15,132.41z"/>
				<path class="st19" d="M37.38,135.9c-2.93-3.94-4.26-22.64-2.82-29.25c7.83-9.3,14.94-18.85,23.41-27.72
					c5.73-6,7.09-7.13,13.26-0.05C60.97,82.15,42.2,111.85,37.38,135.9z"/>
				<path class="st23" d="M37.38,135.9c-2.93-3.94-4.26-22.64-2.82-29.25c7.83-9.3,14.94-18.85,23.41-27.72
					c5.73-6,7.09-7.13,13.26-0.05c-3.74-1.67-6.59-5.08-10.05-1.18C55.55,84.08,43.28,97,36.52,106.89
					C34.93,114.32,35.73,129.49,37.38,135.9z"/>
				<path class="st22" d="M91.15,132.41c-21.06,6.65-30.58,8.04-53.77,3.49l42.55-50.45c5.1,2.9,11.1,5.36,15.98,6.88
					c14.27,4.43,9.83,11.46,5.78,20.05C98.19,119.79,93.82,127.52,91.15,132.41z"/>
				<path class="st16" d="M40.14,134.56c13.76-15.83,27.17-30.96,40.16-47.25c4.81,2.74,15.36,6.11,20.65,7.44
					C98.18,99.22,50.89,131.47,40.14,134.56z"/>
				<path class="st19" d="M81.23,91.2c-9.28,9.78-22.27,27.36-41.09,43.36c13.76-15.83,27.17-30.96,40.16-47.25
					c4.81,2.74,15.36,6.11,20.65,7.44C94.37,94.27,85.09,92.14,81.23,91.2z"/>
				<g>
					<path class="st24" d="M61.43,135.85c9.93-11.53,15.09-17.11,22.51-21.53c2.26-1.34,8.89-2.82,12.46-2.83
						c-5.17,7.29-7.91,13.86-13.55,20.79C74.92,134.72,68.06,135.73,61.43,135.85z"/>
					<path class="st25" d="M61.42,135.85c5.23-6.07,16.58-19.37,24.43-22.32c-6.77,4.06-12.04,9.58-20.96,20.95
						c4.11-0.09,9.9-0.32,15.36-1.63C73.32,134.89,67.27,135.75,61.42,135.85z"/>
					<path class="st26" d="M95.53,111.93c-4.36,0.53-8.64,1.94-13.23,5.07c3.14-1.28,5.22-1.74,8.85-1.84
						c-2.36,4.38-3.58,8.02-5.85,12.73C89.01,122.68,92.21,117.55,95.53,111.93z"/>
					<path class="st25" d="M89.5,116.8c-3.34,2.31-6.34,4.68-9.61,12.02c-3.96,1.55-7.63,2.85-11.5,4.88
						c4.82-0.44,8.81-0.72,13.7-2.15C84.91,125.85,86.96,120.48,89.5,116.8z"/>
					<path class="st27" d="M61.43,135.85c13.35-7,20.34-21.38,34.97-24.36c-5.17,7.29-7.91,13.86-13.55,20.79
						C74.92,134.72,68.06,135.73,61.43,135.85z"/>
				</g>
				<g>
					<path class="st24" d="M34.31,113.21c2.35-2.9,4.37-5.73,6.14-8.55c2.59-4.13,4.57-7.69,6.43-11.13
						c0.26-0.47,1.99-4.07,2.06-4.14c-4.93,5.4-8.96,10.13-13.43,16.29c-0.23,0.28-0.53,0.77-0.85,1.4
						C34.49,109.18,34.38,111.14,34.31,113.21z"/>
					<path class="st25" d="M34.31,113.28c1.73-2.15,3.71-4.85,5.62-7.85c3.33-5.23,6.37-10.7,7.65-13.24
						c-1.74,3.13-3.7,6.61-6.35,10.77c-1.94,3.05-4.21,6.2-6.89,9.47C34.33,112.71,34.32,112.99,34.31,113.28z"/>
					<path class="st26" d="M48.61,89.71c-0.75,1.49-2.81,5.26-3.83,7.01C46.59,93.11,44.96,93.45,48.61,89.71z"/>
					<path class="st27" d="M34.39,111.18c1.33-2.11,2.89-4.43,4.55-6.97c3.15-4.82,6.55-10.03,9.06-13.75
						c-1.76,1.81-3.41,3.82-4.93,5.63c-3.66,4.36-6.55,8.25-8.09,10.4c-0.09,0.13-0.19,0.3-0.3,0.52
						C34.55,108.44,34.46,109.8,34.39,111.18z"/>
				</g>
			</g>
		</g>
		<g>
			<g>
				<g>
					<path class="st0" d="M54.08,40.37L54.08,40.37c-1.01-0.47-2.43,0.42-3.21,1.71c-0.81,1.35-0.93,3.12,0.03,3.78l0,0l17.15,9.89
						l3.25-5.44L54.08,40.37z"/>
					<path class="st28" d="M71.3,50.32c-0.87-0.51-2.29,0.31-3.17,1.83c-0.88,1.51-0.89,3.14-0.02,3.65
						c0.86,0.51,2.28-0.31,3.16-1.83C72.15,52.46,72.17,50.82,71.3,50.32z"/>
				</g>
			</g>
			<g>
				<path class="st16" d="M108.32,66.57c0.79,0.98,8.1,4.94,9.67,6.13c1.91,4.85-1.77,12.28-6.97,13.33
					c-15.09-2.36-16.64-3.43-32.94-2.4c-2.02,0.13-5.36,0.77-7.07-0.14c-2.16-1.15-3.1-3.82-3.76-6.09
					c-0.64-2.19-1.24-7.64-0.58-10.01c0.29-1.03,0.98-1.96,1.52-3.08c1.54-3.16-2.67-5.17-3.63-7.3c-0.25-2.99,5.21-10.71,9.04-8.48
					c2.74,1.43,11.38,2.2,13.95,3.38c4.77,2.18,16.56,9.78,19.29,12.44C107.41,64.9,107.72,65.82,108.32,66.57z"/>
				<path class="st5" d="M73.06,73.1c1.27-9.11,8.83-26.85,17.19-23.54c4.87,1.93,12.9,7.23,15.42,10.09
					c3.04,3.44-4.39,7.9-10.09,10.97c-5.21,2.81-13.28,6.06-18.21,6.15C74.41,76.82,72.76,75.26,73.06,73.1z"/>
				<path class="st0" d="M95.19,66.63c3.23-3.24,8.35-9.58,10.47-6.99c3.29,4.01-4.39,7.9-10.09,10.97
					c-5.21,2.81-10.6,5.64-15.53,5.73C84.05,74.88,89.65,72.18,95.19,66.63z"/>
				<path class="st21" d="M118.27,72.84c-2.06-1.2-5.44,0.75-7.53,4.35c-2.1,3.61-2.12,7.5-0.06,8.7c2.06,1.21,5.43-0.74,7.54-4.35
					C120.3,77.94,120.33,74.05,118.27,72.84z"/>
				<path class="st5" d="M78.69,58.59c-1.58,0-3.05,0.41-4.34,1.13c2.43-1.21,6.26,1.06,8.66,5.18c2.42,4.15,2.48,8.64,0.18,10.11
					c2.61-1.54,4.37-4.31,4.37-7.57C87.55,62.56,83.58,58.59,78.69,58.59z"/>
				<path class="st4" d="M79.19,59.03c-1.02,0-2.02-0.07-2.92,0.15c2.66,0.07,5.02,2.23,6.71,4.85c1.92,2.97,2.95,6.71,1.71,9.46
					c1.66-1.52,2.63-3.81,2.63-6.25C87.32,62.75,83.68,59.03,79.19,59.03z"/>
				<path class="st29" d="M74.63,61.06c-1.95,1.13-1.45,5.04,0.53,8.44c1.98,3.4,5.37,5.63,7.32,4.5c1.95-1.13,1.4-5.09-0.58-8.49
					C79.92,62.1,76.58,59.92,74.63,61.06z"/>
				<path class="st30" d="M74.63,61.06c1.95-1.13,5.29,1.04,7.27,4.44c1.98,3.4,2.55,7.36,0.6,8.49
					C82.72,68.17,77.6,61.88,74.63,61.06z"/>
				<path class="st4" d="M88.52,49.85c-2.7,0.2-5.54,2.61-7.93,7.02c4.02-0.21,8.36,3.87,9.61,8.43c2.24-0.91,6.87-3.19,9.29-5.41
					c1.47-1.35,2.09-2.02,0.33-3.51C96.28,53.36,90.4,49.71,88.52,49.85z"/>
				<g>
					<path class="st31" d="M77.85,67.02c-1.28-2.49,3.49-3.79,4.27-2.28C82.9,66.25,79.11,69.46,77.85,67.02z"/>
					<path class="st32" d="M77.97,66.97c-0.77-1.5,0.82-2.53,2.23-2.72C81.03,66.12,78.64,68.03,77.97,66.97z"/>
					<path class="st33" d="M80.24,64.12c0.83-0.1,1.61,0.08,1.88,0.62c0.63,1.23-1.75,3.57-3.34,3.1
						C81.21,67.71,81.37,65.19,80.24,64.12z"/>
				</g>
				<path class="st34" d="M74.18,59.81c2.42-1.41,6.36,0.87,8.82,5.09c2.46,4.22,2.49,8.78,0.07,10.18
					c-2.41,1.41-6.37-0.87-8.82-5.09C71.8,65.78,71.76,61.22,74.18,59.81L74.18,59.81z M74.63,61.06c-1.95,1.13-1.45,5.04,0.53,8.44
					c1.98,3.4,5.37,5.63,7.32,4.5c1.95-1.13,1.4-5.09-0.58-8.49C79.92,62.1,76.58,59.92,74.63,61.06z"/>
				<path class="st32" d="M73.52,60.83c0.08-0.24,0.37-0.51,0.56-0.61c1.42-0.78,3.03-0.43,4.51,0.45c3.23,1.93,5.48,6.16,5.89,9.8
					v0c0.13,1.18,0.07,2.52-0.57,3.48c-0.82,1.22-2.17,1.36-3.5,1.14c-0.21-0.04-0.78-0.23-0.73-0.49c0.03-0.16,0.41-0.11,0.57-0.08
					c1.18,0.23,2.51,0.16,3.21-0.99c0.51-0.84,0.53-2.03,0.42-3c-0.4-3.46-2.54-7.53-5.61-9.36c-1.42-0.85-2.9-1.14-4.3-0.14
					c-0.18,0.13-0.34,0.21-0.42,0.13C73.51,61.12,73.47,60.98,73.52,60.83z"/>
				<g>
					<path class="st0" d="M116,76.78L116,76.78c-1.02-0.46-2.43,0.42-3.21,1.71c-0.81,1.35-0.93,3.12,0.03,3.78l0,0l17.15,9.9
						l3.25-5.44L116,76.78z"/>
					<path class="st28" d="M133.23,86.73c-0.87-0.51-2.29,0.31-3.17,1.83c-0.88,1.51-0.89,3.14-0.02,3.65
						c0.86,0.51,2.28-0.31,3.16-1.83C134.08,88.87,134.09,87.23,133.23,86.73z"/>
				</g>
				<path class="st21" d="M106.91,64.73l1.42,2.47c-2.96,3.43-9.13,7.91-16.09,11.25c-5.09,2.44-11.2,4.47-16.89,4.88
					c-1.29,0.09-2.51,0.06-3.38-0.23c-1.62-0.54-2.67-2.06-3.71-4.92c1.39,2.3,2.4,3.83,3.85,4.25c0.97,0.28,2.04,0.28,3.13,0.14
					c5.17-0.65,11.88-3.62,16.29-6.2C97.65,72.78,102.93,68.33,106.91,64.73z"/>
				<path class="st35" d="M83.65,82.6c5.81-0.2,16.87-0.21,24.84,2.36c-0.72-6.59,2.69-11.43,6.79-13.01
					c0.37-0.14-4.9-2.98-5.98-3.32c-1.54,0.34-4.68,3.77-9.21,6.76C95.54,78.38,89.44,81.36,83.65,82.6z"/>
				<path class="st35" d="M72.15,48.55c0.52,0.29,1.56,0.63,2.79,0.98c2.54,0.73-6.39,2.76-4.55,11.48c0.21,3.07-0.76,2.85-1.08,3.3
					c0.03-0.51-0.04-3.29-1.44-4.73c-1.2-1.24-2.72-2.25-2.62-2.66C66.19,52.95,68.72,49.45,72.15,48.55z"/>
				<path class="st35" d="M70.3,60.01c-0.16-0.59-0.53,3.42-0.91,3.92c-0.87,1.16-1.54,2.56-1.76,3.87
					c-0.94,5.49,1.18,12.22,3.69,13.78c4.89,3.02,24.31-7.38,28.99-11.59C94.43,72.97,78.2,80.82,73,77.9
					c-1.1-0.62-1.92-4.33-0.31-9.28C70.44,64.63,71.17,63.15,70.3,60.01z"/>
				<path class="st36" d="M68.04,75.3c0.25,3.19,2.28,6.2,3.34,6.85c2.67,1.65,9.9-0.55,16.5-3.77c5.49-2.69,10.47-6.15,12.59-8.18
					c-3.56,2.29-8.28,5.21-13.03,7.39c-6.27,2.87-12.53,4.62-15.54,3.5C70.76,80.65,69.05,78.59,68.04,75.3z"/>
				<path class="st37" d="M105.12,59.1c-0.52-0.07-1.48-0.2-2.36,0.32c-2.17,1.28-5.02,4.82-8.22,7.76
					c-3.61,3.32-7.22,6.11-10.45,7.42c3.81-1.79,6.98-4.87,9.69-7.5c2.85-2.76,6.35-7.81,9.3-8.73c-1.59-1.63-3.34-3.25-5.12-4.67
					C100.39,55.38,102.95,57.07,105.12,59.1z"/>
				<path class="st38" d="M97.4,61.99c-2.7,2.05-4.88,3.35-7.69,4.73c-0.6-1.76-1.16-3.33-2.68-4.49c2.16,4.48,1.37,6.68-1.13,10.92
					C90.38,69.99,93.72,66.54,97.4,61.99z"/>
			</g>
			<g>
				<g>
					<path class="st5" d="M106.95,72.87c-1.35-0.77-1.51-2.67,0.89-4.94c6.45-6.12,8.08-8.77,15.58-13.67
						c5.45-3.56,10.17-4.23,15.8-3.08c5.34,1.09,7.84,4.76,7.29,7.57c-1.44,7.46-19.38,6.64-24.33,1.9
						c-4.16,1.82-8.24,4.79-9.78,7.38c-1.01,1.7,0.2,3.63-0.31,4.61C111.6,73.59,109.28,74.2,106.95,72.87z"/>
					<path class="st0" d="M106.95,72.87c2.53,0.74,3.56,0.37,3.83-0.39c0.45-1.29-0.95-3.95,1.34-6.15c2.75-2.64,6.78-6.1,10.3-7.56
						c1.4-0.58,2.16-0.38,4.56,0.33c6.75,2,18.69,3.97,19.4-2.47c0.22,0.72,0.26,1.45,0.13,2.12c-1.44,7.46-19.38,6.64-24.33,1.9
						c-4.16,1.82-8.24,4.79-9.78,7.38c-1.01,1.7,0.2,3.63-0.31,4.61C111.6,73.59,109.28,74.2,106.95,72.87z"/>
					<path class="st4" d="M142.21,58.75c-3.11-0.15-6.48-0.82-9.74-1.29c-4.54-0.66-9.06-1.09-12.1,0.99
						c-4.47,3.06-7.04,5.41-10.96,8.96c-1.69,2.8-0.38,5.09-0.68,5.33c-0.57,0.46-2.25-0.47-2.35-1.56
						c-0.13-1.37,1.65-3.13,2.67-4.15c4.27-4.26,6.66-6.77,10.9-9.95c1.4-1.05,3.18-2.03,5.05-3.35c4.25-2.06,10.51-3.23,15.48-1.7
						C144.86,53.38,149.26,59.08,142.21,58.75z"/>
				</g>
				<g>
					<path class="st5" d="M61.22,9.17c-1.27,3.94-1.76,7.12-1.39,9.99c0.7,5.39,4.34,7.71,7.66,14.58
						c3.46,7.16,4.22,10.69,3.88,17.51c-0.13,2.63,0.46,3.92,1.89,4.36c2.45,0.76,4.19-0.98,4.64-2.02
						c0.55-1.26,0.53-2.55-2.05-3.76c-1.34-5.93-2.83-11.29-5.07-16.56c-0.73-1.72-0.81-3.1-0.87-4.02
						c-0.18-2.62,0.99-2.7,1.38-5.74c0.69-5.38-1.7-11.63-5.09-15.15C63.71,6.58,62.41,7.31,61.22,9.17z"/>
					<path class="st0" d="M61.22,9.17c-1.27,3.94-1.76,7.12-1.39,9.99c0.7,5.39,4.34,7.71,7.66,14.58
						c3.46,7.16,4.22,10.69,3.88,17.51c-0.13,2.63,0.46,3.92,1.89,4.36c2.45,0.76,4.19-0.98,4.64-2.02c0.25-0.56,0.38-1.13,0.22-1.7
						c-0.67,2.69-5.39,4.04-5.38-0.27c0-3.76-0.45-6.51-1.21-10.25c-1.21-5.95-4.26-11.05-8.33-21.01c-2.04-5-0.88-8.98-0.74-12.6
						C62.01,8.08,61.61,8.56,61.22,9.17z"/>
					<path class="st4" d="M63.23,7.4c1.15,3.85,0.93,7.64,1.55,10.74c1.46,7.26,4.98,14.61,7.33,22.54c0.69,2.34,1.07,5.74,1.41,9
						c0.11,1.06,0.06,3.76,1.15,3.96c0.92,0.17,2.82-0.46,2.93-1.86c0.04-0.58-1.76-1.41-2.3-1.65c-0.71-2.89-1.5-7.29-2.61-10.57
						c-1.29-3.79-2.83-6.86-3.23-9.66c-0.23-1.6-0.07-2.51,0.32-3.76c2.09-6.68-0.45-14.52-5.34-18.69C64,7.32,63.6,7.31,63.23,7.4z
						"/>
				</g>
			</g>
		</g>
	</g>
</g>
</svg>
