<?xml version="1.0" encoding="utf-8"?>
<!-- Generator: Adobe Illustrator 25.3.1, SVG Export Plug-In . SVG Version: 6.00 Build 0)  -->
<svg version="1.1" id="圖層_1" xmlns="http://www.w3.org/2000/svg" xmlns:xlink="http://www.w3.org/1999/xlink" x="0px" y="0px"
	 viewBox="0 0 240 240" style="enable-background:new 0 0 240 240;" xml:space="preserve">
<style type="text/css">
	.st0{fill-rule:evenodd;clip-rule:evenodd;fill:#F2EDE4;}
	.st1{fill-rule:evenodd;clip-rule:evenodd;fill:url(#SVGID_1_);}
	.st2{fill-rule:evenodd;clip-rule:evenodd;fill:url(#SVGID_2_);}
	.st3{fill-rule:evenodd;clip-rule:evenodd;fill:url(#SVGID_3_);}
	.st4{fill-rule:evenodd;clip-rule:evenodd;fill:url(#SVGID_4_);}
	.st5{fill-rule:evenodd;clip-rule:evenodd;fill:url(#SVGID_5_);}
	.st6{fill-rule:evenodd;clip-rule:evenodd;fill:url(#SVGID_6_);}
	.st7{fill-rule:evenodd;clip-rule:evenodd;fill:#312F24;}
	.st8{fill-rule:evenodd;clip-rule:evenodd;fill:#66411F;}
	.st9{fill-rule:evenodd;clip-rule:evenodd;fill:url(#SVGID_7_);}
	.st10{fill-rule:evenodd;clip-rule:evenodd;fill:url(#SVGID_8_);}
	.st11{fill-rule:evenodd;clip-rule:evenodd;fill:url(#SVGID_9_);}
	.st12{fill-rule:evenodd;clip-rule:evenodd;fill:url(#SVGID_10_);}
	.st13{fill-rule:evenodd;clip-rule:evenodd;fill:#4A4437;}
	.st14{fill-rule:evenodd;clip-rule:evenodd;fill:url(#SVGID_11_);}
	.st15{fill-rule:evenodd;clip-rule:evenodd;fill:#756958;}
	.st16{fill-rule:evenodd;clip-rule:evenodd;fill:url(#SVGID_12_);}
	.st17{fill-rule:evenodd;clip-rule:evenodd;fill:url(#SVGID_13_);}
	.st18{fill-rule:evenodd;clip-rule:evenodd;fill:url(#SVGID_14_);}
	.st19{fill-rule:evenodd;clip-rule:evenodd;fill:url(#SVGID_15_);}
	.st20{fill-rule:evenodd;clip-rule:evenodd;fill:url(#SVGID_16_);}
	.st21{fill-rule:evenodd;clip-rule:evenodd;fill:url(#SVGID_17_);}
	.st22{fill-rule:evenodd;clip-rule:evenodd;fill:url(#SVGID_18_);}
	.st23{fill-rule:evenodd;clip-rule:evenodd;fill:url(#SVGID_19_);}
	.st24{fill-rule:evenodd;clip-rule:evenodd;fill:#C7BC3E;}
	.st25{fill-rule:evenodd;clip-rule:evenodd;fill:#E2D446;}
	.st26{fill-rule:evenodd;clip-rule:evenodd;fill:url(#SVGID_20_);}
	.st27{fill-rule:evenodd;clip-rule:evenodd;fill:url(#SVGID_21_);}
	.st28{fill-rule:evenodd;clip-rule:evenodd;fill:url(#SVGID_22_);}
	.st29{fill-rule:evenodd;clip-rule:evenodd;fill:#958626;}
	.st30{fill-rule:evenodd;clip-rule:evenodd;fill:url(#SVGID_23_);}
	.st31{fill-rule:evenodd;clip-rule:evenodd;fill:url(#SVGID_24_);}
	.st32{fill-rule:evenodd;clip-rule:evenodd;fill:url(#SVGID_25_);}
	.st33{fill-rule:evenodd;clip-rule:evenodd;fill:#564D3E;}
	.st34{fill-rule:evenodd;clip-rule:evenodd;fill:url(#SVGID_26_);}
	.st35{fill-rule:evenodd;clip-rule:evenodd;fill:url(#SVGID_27_);}
	.st36{fill-rule:evenodd;clip-rule:evenodd;fill:url(#SVGID_28_);}
	.st37{fill-rule:evenodd;clip-rule:evenodd;fill:url(#SVGID_29_);}
	.st38{fill-rule:evenodd;clip-rule:evenodd;fill:url(#SVGID_30_);}
	.st39{fill-rule:evenodd;clip-rule:evenodd;fill:url(#SVGID_31_);}
	.st40{fill-rule:evenodd;clip-rule:evenodd;fill:url(#SVGID_32_);}
	.st41{fill-rule:evenodd;clip-rule:evenodd;fill:url(#SVGID_33_);}
	.st42{fill-rule:evenodd;clip-rule:evenodd;fill:url(#SVGID_34_);}
	.st43{fill-rule:evenodd;clip-rule:evenodd;fill:url(#SVGID_35_);}
	.st44{fill-rule:evenodd;clip-rule:evenodd;fill:url(#SVGID_36_);}
	.st45{fill-rule:evenodd;clip-rule:evenodd;fill:#5D314F;}
	.st46{fill-rule:evenodd;clip-rule:evenodd;fill:#FFEC8D;}
	.st47{fill-rule:evenodd;clip-rule:evenodd;fill:url(#SVGID_37_);}
	.st48{fill-rule:evenodd;clip-rule:evenodd;fill:#FFF695;}
	.st49{fill-rule:evenodd;clip-rule:evenodd;fill:url(#SVGID_38_);}
	.st50{fill-rule:evenodd;clip-rule:evenodd;fill:url(#SVGID_39_);}
	.st51{fill-rule:evenodd;clip-rule:evenodd;fill:url(#SVGID_40_);}
	.st52{fill-rule:evenodd;clip-rule:evenodd;fill:url(#SVGID_41_);}
	.st53{fill-rule:evenodd;clip-rule:evenodd;fill:url(#SVGID_42_);}
	.st54{fill-rule:evenodd;clip-rule:evenodd;fill:url(#SVGID_43_);}
	.st55{fill-rule:evenodd;clip-rule:evenodd;fill:#96636E;}
	.st56{fill-rule:evenodd;clip-rule:evenodd;fill:url(#SVGID_44_);}
	.st57{fill-rule:evenodd;clip-rule:evenodd;fill:url(#SVGID_45_);}
	.st58{fill-rule:evenodd;clip-rule:evenodd;fill:#844F61;}
	.st59{fill-rule:evenodd;clip-rule:evenodd;fill:url(#SVGID_46_);}
	.st60{fill-rule:evenodd;clip-rule:evenodd;fill:url(#SVGID_47_);}
	.st61{fill-rule:evenodd;clip-rule:evenodd;fill:url(#SVGID_48_);}
	.st62{fill-rule:evenodd;clip-rule:evenodd;fill:url(#SVGID_49_);}
	.st63{fill-rule:evenodd;clip-rule:evenodd;fill:url(#SVGID_50_);}
	.st64{fill-rule:evenodd;clip-rule:evenodd;fill:url(#SVGID_51_);}
	.st65{fill-rule:evenodd;clip-rule:evenodd;fill:#B5908A;}
	.st66{fill-rule:evenodd;clip-rule:evenodd;fill:url(#SVGID_52_);}
	.st67{fill-rule:evenodd;clip-rule:evenodd;fill:#E4D4CB;}
	.st68{fill-rule:evenodd;clip-rule:evenodd;fill:url(#SVGID_53_);}
	.st69{fill-rule:evenodd;clip-rule:evenodd;fill:url(#SVGID_54_);}
	.st70{fill-rule:evenodd;clip-rule:evenodd;fill:#E1A768;}
	.st71{fill-rule:evenodd;clip-rule:evenodd;fill:url(#SVGID_55_);}
	.st72{fill-rule:evenodd;clip-rule:evenodd;fill:url(#SVGID_56_);}
</style>
<g>
	<g>
		<g>
			<polygon class="st0" points="96.25,9.4 99.81,11.46 99.81,50.55 96.25,48.5 			"/>
			<linearGradient id="SVGID_1_" gradientUnits="userSpaceOnUse" x1="60.9729" y1="34.9494" x2="108.7231" y2="53.279">
				<stop  offset="0" style="stop-color:#CABAB0"/>
				<stop  offset="1" style="stop-color:#B9A99E"/>
			</linearGradient>
			<polygon class="st1" points="103.38,9.4 99.81,11.46 99.81,91.69 103.37,89.63 			"/>
			<linearGradient id="SVGID_2_" gradientUnits="userSpaceOnUse" x1="88.0154" y1="50.5616" x2="135.7657" y2="68.8913">
				<stop  offset="0" style="stop-color:#CABAB0"/>
				<stop  offset="1" style="stop-color:#B9A99E"/>
			</linearGradient>
			<polygon class="st2" points="130.42,25.01 126.86,27.07 126.85,107.3 130.42,105.24 			"/>
			<linearGradient id="SVGID_3_" gradientUnits="userSpaceOnUse" x1="107.1797" y1="4.2531" x2="103.3756" y2="11.1158">
				<stop  offset="0" style="stop-color:#403D31"/>
				<stop  offset="1" style="stop-color:#343226"/>
			</linearGradient>
			<polygon class="st3" points="103.38,9.4 98.61,11.55 99.81,21.34 103.37,19.28 			"/>
			<g>
				<g>
					<linearGradient id="SVGID_4_" gradientUnits="userSpaceOnUse" x1="99.144" y1="193.9109" x2="104.7078" y2="200.3113">
						<stop  offset="0" style="stop-color:#4A4437"/>
						<stop  offset="1" style="stop-color:#312F24"/>
					</linearGradient>
					<polygon class="st4" points="102.38,194.61 103.02,195.17 103.65,195.73 104.12,196.54 104.58,197.34 104.75,198.17 
						104.92,199 104.75,199.64 104.58,200.27 104.12,200.54 103.44,200.93 102.8,200.76 102.17,200.59 101.54,200.03 101.43,199.16 
						100.96,198.36 100.5,197.55 100.33,196.72 100.16,195.89 100.33,195.26 100.5,194.62 100.65,194.53 101.11,194.26 
						101.75,194.44 					"/>
					<linearGradient id="SVGID_5_" gradientUnits="userSpaceOnUse" x1="99.2449" y1="194.7565" x2="106.1275" y2="201.1747">
						<stop  offset="0" style="stop-color:#4A4437"/>
						<stop  offset="1" style="stop-color:#312F24"/>
					</linearGradient>
					<polygon class="st5" points="102.38,194.61 103.02,195.17 103.65,195.73 104.12,196.54 104.58,197.34 104.75,198.17 
						104.92,199 103.78,199.66 102.8,200.76 102.17,200.59 101.54,200.03 101.43,199.16 100.96,198.36 100.5,197.55 100.33,196.72 
						100.16,195.89 100.33,195.26 100.5,194.62 100.65,194.53 101.11,194.26 101.75,194.44 					"/>
					<linearGradient id="SVGID_6_" gradientUnits="userSpaceOnUse" x1="90.6339" y1="204.4373" x2="105.333" y2="194.5227">
						<stop  offset="0" style="stop-color:#4A4437"/>
						<stop  offset="1" style="stop-color:#312F24"/>
					</linearGradient>
					<polygon class="st6" points="102.38,194.61 103.02,195.17 103.65,195.73 104.12,196.54 104.58,197.34 103.18,198.15 
						103.01,198.78 102.84,199.42 102.38,199.68 102.06,199.72 101.43,199.16 100.96,198.36 100.5,197.55 100.33,196.72 
						100.16,195.89 100.33,195.26 99.97,194.93 100.65,194.53 101.11,194.26 101.75,194.44 					"/>
					<polygon class="st7" points="102.38,194.61 103.02,195.17 103.65,195.73 102.51,196.39 101.26,198.18 103.01,198.78 
						102.84,199.42 102.38,199.68 102.06,199.72 101.43,199.16 100.96,198.36 100.5,197.55 100.33,196.72 100.16,195.89 
						100.33,195.26 99.97,194.93 100.65,194.53 101.11,194.26 101.75,194.44 					"/>
					<polygon class="st7" points="101.24,195.27 101.87,195.83 102.51,196.39 102.97,197.2 103.44,198 103.61,198.83 103.78,199.66 
						103.61,200.3 103.44,200.93 102.97,201.2 102.51,201.47 101.87,201.3 101.24,201.13 100.61,200.56 99.97,200 99.51,199.2 
						99.04,198.39 98.87,197.56 98.7,196.73 98.87,196.1 99.04,195.46 99.51,195.19 99.97,194.93 100.61,195.1 					"/>
					<polygon class="st8" points="100.78,195.46 102.15,194.67 100.33,193.62 98.96,194.41 					"/>
					<polygon class="st7" points="100.78,194.47 102.15,193.68 102.15,198.72 100.78,199.51 					"/>
					<polygon class="st7" points="100.78,194.47 98.96,193.42 98.96,198.46 100.78,199.51 					"/>
					<linearGradient id="SVGID_7_" gradientUnits="userSpaceOnUse" x1="97.6296" y1="196.5097" x2="103.2968" y2="203.0291">
						<stop  offset="0" style="stop-color:#4A4437"/>
						<stop  offset="1" style="stop-color:#312F24"/>
					</linearGradient>
					<polygon class="st9" points="99.87,196.06 100.51,196.62 101.14,197.18 101.6,197.99 102.07,198.79 102.24,199.62 
						102.41,200.45 102.24,201.09 102.07,201.72 101.6,201.99 100.93,202.38 100.29,202.21 99.66,202.04 99.02,201.48 98.91,200.61 
						98.45,199.81 97.99,199 97.82,198.17 97.64,197.34 97.82,196.71 97.99,196.07 98.14,195.98 98.6,195.72 99.24,195.88 					"/>
					<linearGradient id="SVGID_8_" gradientUnits="userSpaceOnUse" x1="96.7323" y1="196.207" x2="103.6132" y2="202.6236">
						<stop  offset="0" style="stop-color:#4A4437"/>
						<stop  offset="1" style="stop-color:#312F24"/>
					</linearGradient>
					<polygon class="st10" points="99.87,196.06 100.51,196.62 101.14,197.18 101.6,197.99 102.07,198.79 102.24,199.62 
						102.41,200.45 101.27,201.11 100.29,202.21 99.66,202.04 99.02,201.48 98.91,200.61 98.45,199.81 97.99,199 97.82,198.17 
						97.64,197.34 97.82,196.71 97.99,196.07 98.14,195.98 98.6,195.72 99.24,195.88 					"/>
					<linearGradient id="SVGID_9_" gradientUnits="userSpaceOnUse" x1="96.8639" y1="195.9462" x2="103.08" y2="201.7428">
						<stop  offset="0" style="stop-color:#4A4437"/>
						<stop  offset="1" style="stop-color:#312F24"/>
					</linearGradient>
					<polygon class="st11" points="99.87,196.06 100.51,196.62 101.14,197.18 101.6,197.99 102.07,198.79 100.67,199.6 
						100.5,200.23 100.33,200.87 99.87,201.13 99.55,201.17 98.91,200.61 98.45,199.81 97.99,199 97.82,198.17 97.64,197.34 
						97.82,196.71 97.46,196.38 98.14,195.98 98.6,195.72 99.24,195.88 					"/>
					<linearGradient id="SVGID_10_" gradientUnits="userSpaceOnUse" x1="96.9105" y1="195.9896" x2="102.3698" y2="201.0804">
						<stop  offset="0" style="stop-color:#4A4437"/>
						<stop  offset="1" style="stop-color:#312F24"/>
					</linearGradient>
					<polygon class="st12" points="99.87,196.06 100.51,196.62 101.14,197.18 100,197.84 98.75,199.63 100.5,200.23 100.33,200.87 
						99.87,201.13 99.55,201.17 98.91,200.61 98.45,199.81 97.99,199 97.82,198.17 97.64,197.34 97.82,196.71 97.46,196.38 
						98.14,195.98 98.6,195.72 99.24,195.88 					"/>
					<polygon class="st13" points="98.73,196.72 99.36,197.28 100,197.84 100.46,198.65 100.93,199.45 101.1,200.28 101.27,201.11 
						101.1,201.75 100.93,202.38 100.46,202.65 100,202.92 99.36,202.75 98.73,202.58 98.1,202.01 97.46,201.45 96.99,200.65 
						96.53,199.84 96.36,199.01 96.19,198.18 96.36,197.55 96.53,196.91 96.99,196.64 97.46,196.38 98.1,196.55 					"/>
					<linearGradient id="SVGID_11_" gradientUnits="userSpaceOnUse" x1="100.649" y1="194.4852" x2="101.9378" y2="192.7113">
						<stop  offset="0" style="stop-color:#4A4437"/>
						<stop  offset="1" style="stop-color:#312F24"/>
					</linearGradient>
					<polygon class="st14" points="100.78,194.47 102.46,193.79 104.82,192.14 103,191.09 98.96,193.42 					"/>
					<polygon class="st15" points="100.78,194.47 102.14,193.69 100.32,192.64 98.96,193.42 					"/>
					<polygon class="st7" points="100.78,195.46 104.82,193.13 104.82,192.14 100.78,194.47 					"/>
				</g>
				<polygon class="st15" points="100.78,194.47 102.14,193.69 100.32,192.64 98.96,193.42 				"/>
				<polygon class="st15" points="100.78,194.47 102.14,193.69 100.32,192.64 98.96,193.42 				"/>
			</g>
			<g>
				<g>
					<linearGradient id="SVGID_12_" gradientUnits="userSpaceOnUse" x1="62.1057" y1="172.5853" x2="67.6665" y2="178.9823">
						<stop  offset="0" style="stop-color:#4A4437"/>
						<stop  offset="1" style="stop-color:#312F24"/>
					</linearGradient>
					<polygon class="st16" points="65.34,173.28 65.98,173.84 66.61,174.4 67.08,175.21 67.54,176.01 67.71,176.84 67.88,177.68 
						67.71,178.31 67.54,178.94 67.08,179.21 66.4,179.6 65.76,179.43 65.13,179.26 64.5,178.7 64.39,177.83 63.92,177.03 
						63.46,176.23 63.29,175.4 63.12,174.56 63.29,173.93 63.46,173.29 63.61,173.21 64.07,172.94 64.71,173.11 					"/>
					<linearGradient id="SVGID_13_" gradientUnits="userSpaceOnUse" x1="62.2054" y1="173.4294" x2="69.0879" y2="179.8475">
						<stop  offset="0" style="stop-color:#4A4437"/>
						<stop  offset="1" style="stop-color:#312F24"/>
					</linearGradient>
					<polygon class="st17" points="65.34,173.28 65.98,173.84 66.61,174.4 67.08,175.21 67.54,176.01 67.71,176.84 67.88,177.68 
						66.74,178.33 65.76,179.43 65.13,179.26 64.5,178.7 64.39,177.83 63.92,177.03 63.46,176.23 63.29,175.4 63.12,174.56 
						63.29,173.93 63.46,173.29 63.61,173.21 64.07,172.94 64.71,173.11 					"/>
					<linearGradient id="SVGID_14_" gradientUnits="userSpaceOnUse" x1="53.5941" y1="183.1105" x2="68.2932" y2="173.1959">
						<stop  offset="0" style="stop-color:#4A4437"/>
						<stop  offset="1" style="stop-color:#312F24"/>
					</linearGradient>
					<polygon class="st18" points="65.34,173.28 65.98,173.84 66.61,174.4 67.08,175.21 67.54,176.01 66.14,176.82 65.97,177.45 
						65.8,178.09 65.34,178.36 65.02,178.4 64.39,177.83 63.92,177.03 63.46,176.23 63.29,175.4 63.12,174.56 63.29,173.93 
						62.93,173.6 63.61,173.21 64.07,172.94 64.71,173.11 					"/>
					<polygon class="st7" points="65.34,173.28 65.98,173.84 66.61,174.4 65.47,175.06 64.22,176.86 65.97,177.45 65.8,178.09 
						65.34,178.36 65.02,178.4 64.39,177.83 63.92,177.03 63.46,176.23 63.29,175.4 63.12,174.56 63.29,173.93 62.93,173.6 
						63.61,173.21 64.07,172.94 64.71,173.11 					"/>
					<polygon class="st7" points="64.2,173.94 64.83,174.5 65.47,175.06 65.93,175.87 66.4,176.67 66.57,177.5 66.74,178.33 
						66.57,178.97 66.4,179.6 65.93,179.87 65.47,180.14 64.83,179.97 64.2,179.8 63.57,179.24 62.93,178.67 62.47,177.87 
						62,177.07 61.83,176.23 61.66,175.4 61.83,174.77 62,174.13 62.47,173.87 62.93,173.6 63.57,173.77 					"/>
					<polygon class="st8" points="63.74,174.13 65.11,173.34 63.29,172.29 61.92,173.08 					"/>
					<polygon class="st7" points="63.74,173.14 65.11,172.35 65.11,177.39 63.74,178.18 					"/>
					<polygon class="st7" points="63.74,173.14 61.92,172.09 61.92,177.13 63.74,178.18 					"/>
					<linearGradient id="SVGID_15_" gradientUnits="userSpaceOnUse" x1="60.5898" y1="175.1821" x2="66.2571" y2="181.7015">
						<stop  offset="0" style="stop-color:#4A4437"/>
						<stop  offset="1" style="stop-color:#312F24"/>
					</linearGradient>
					<polygon class="st19" points="62.83,174.73 63.47,175.29 64.1,175.85 64.56,176.66 65.03,177.46 65.2,178.29 65.37,179.13 
						65.2,179.76 65.03,180.39 64.56,180.66 63.89,181.05 63.25,180.88 62.62,180.71 61.98,180.15 61.88,179.29 61.41,178.48 
						60.95,177.68 60.78,176.85 60.61,176.01 60.78,175.38 60.95,174.74 61.1,174.66 61.56,174.39 62.2,174.56 					"/>
					<linearGradient id="SVGID_16_" gradientUnits="userSpaceOnUse" x1="59.6937" y1="174.8806" x2="66.5746" y2="181.2971">
						<stop  offset="0" style="stop-color:#4A4437"/>
						<stop  offset="1" style="stop-color:#312F24"/>
					</linearGradient>
					<polygon class="st20" points="62.83,174.73 63.47,175.29 64.1,175.85 64.56,176.66 65.03,177.46 65.2,178.29 65.37,179.13 
						64.23,179.79 63.25,180.88 62.62,180.71 61.98,180.15 61.88,179.29 61.41,178.48 60.95,177.68 60.78,176.85 60.61,176.01 
						60.78,175.38 60.95,174.74 61.1,174.66 61.56,174.39 62.2,174.56 					"/>
					<linearGradient id="SVGID_17_" gradientUnits="userSpaceOnUse" x1="59.8231" y1="174.6185" x2="66.0392" y2="180.4151">
						<stop  offset="0" style="stop-color:#4A4437"/>
						<stop  offset="1" style="stop-color:#312F24"/>
					</linearGradient>
					<polygon class="st21" points="62.83,174.73 63.47,175.29 64.1,175.85 64.56,176.66 65.03,177.46 63.63,178.27 63.46,178.9 
						63.29,179.54 62.83,179.81 62.51,179.85 61.88,179.29 61.41,178.48 60.95,177.68 60.78,176.85 60.61,176.01 60.78,175.38 
						60.42,175.05 61.1,174.66 61.56,174.39 62.2,174.56 					"/>
					<linearGradient id="SVGID_18_" gradientUnits="userSpaceOnUse" x1="59.8697" y1="174.6619" x2="65.3306" y2="179.7543">
						<stop  offset="0" style="stop-color:#4A4437"/>
						<stop  offset="1" style="stop-color:#312F24"/>
					</linearGradient>
					<polygon class="st22" points="62.83,174.73 63.47,175.29 64.1,175.85 62.96,176.51 61.71,178.31 63.46,178.9 63.29,179.54 
						62.83,179.81 62.51,179.85 61.88,179.29 61.41,178.48 60.95,177.68 60.78,176.85 60.61,176.01 60.78,175.38 60.42,175.05 
						61.1,174.66 61.56,174.39 62.2,174.56 					"/>
					<polygon class="st13" points="61.69,175.39 62.32,175.95 62.96,176.51 63.42,177.32 63.89,178.12 64.06,178.95 64.23,179.79 
						64.06,180.42 63.89,181.05 63.42,181.32 62.96,181.59 62.32,181.42 61.69,181.25 61.06,180.69 60.42,180.12 59.96,179.32 
						59.49,178.52 59.32,177.68 59.15,176.85 59.32,176.22 59.49,175.59 59.96,175.32 60.42,175.05 61.06,175.22 					"/>
					<linearGradient id="SVGID_19_" gradientUnits="userSpaceOnUse" x1="63.6099" y1="173.1585" x2="64.8977" y2="171.3861">
						<stop  offset="0" style="stop-color:#4A4437"/>
						<stop  offset="1" style="stop-color:#312F24"/>
					</linearGradient>
					<polygon class="st23" points="63.74,173.14 65.42,172.46 67.78,170.81 65.96,169.76 61.92,172.09 					"/>
					<polygon class="st15" points="63.74,173.14 65.1,172.36 63.28,171.31 61.92,172.09 					"/>
					<polygon class="st7" points="63.74,174.13 67.78,171.8 67.78,170.81 63.74,173.14 					"/>
				</g>
				<polygon class="st15" points="63.74,173.14 65.1,172.36 63.28,171.31 61.92,172.09 				"/>
				<polygon class="st15" points="63.74,173.14 65.1,172.36 63.28,171.31 61.92,172.09 				"/>
			</g>
			<g>
				<g>
					<polygon class="st7" points="128.2,179.73 128.83,180.3 129.47,180.86 129.93,181.66 130.4,182.47 130.57,183.3 130.74,184.13 
						130.57,184.76 130.4,185.4 129.93,185.67 129.25,186.06 128.62,185.89 127.98,185.72 127.35,185.16 127.24,184.29 
						126.78,183.49 126.31,182.68 126.14,181.85 125.97,181.02 126.14,180.38 126.31,179.75 126.46,179.66 126.93,179.39 
						127.56,179.56 					"/>
					<polygon class="st7" points="128.2,179.73 128.83,180.3 129.47,180.86 129.93,181.66 130.4,182.47 130.57,183.3 130.74,184.13 
						129.59,184.79 128.62,185.89 127.98,185.72 127.35,185.16 127.24,184.29 126.78,183.49 126.31,182.68 126.14,181.85 
						125.97,181.02 126.14,180.38 126.31,179.75 126.46,179.66 126.93,179.39 127.56,179.56 					"/>
					<polygon class="st7" points="128.2,179.73 128.83,180.3 129.47,180.86 129.93,181.66 130.4,182.47 129,183.27 128.83,183.91 
						128.66,184.54 128.19,184.81 127.88,184.85 127.24,184.29 126.78,183.49 126.31,182.68 126.14,181.85 125.97,181.02 
						126.14,180.38 125.79,180.05 126.46,179.66 126.93,179.39 127.56,179.56 					"/>
					<polygon class="st7" points="128.2,179.73 128.83,180.3 129.47,180.86 128.32,181.52 127.08,183.31 128.83,183.91 
						128.66,184.54 128.19,184.81 127.88,184.85 127.24,184.29 126.78,183.49 126.31,182.68 126.14,181.85 125.97,181.02 
						126.14,180.38 125.79,180.05 126.46,179.66 126.93,179.39 127.56,179.56 					"/>
					<polygon class="st7" points="127.05,180.39 127.69,180.96 128.32,181.52 128.79,182.32 129.25,183.13 129.42,183.96 
						129.59,184.79 129.42,185.42 129.25,186.06 128.79,186.33 128.32,186.6 127.69,186.43 127.05,186.26 126.42,185.69 
						125.79,185.13 125.32,184.32 124.86,183.52 124.69,182.69 124.52,181.86 124.69,181.22 124.86,180.59 125.32,180.32 
						125.79,180.05 126.42,180.22 					"/>
					<polygon class="st7" points="126.59,180.58 127.96,179.79 126.15,178.74 124.78,179.54 					"/>
					<polygon class="st7" points="126.59,179.59 127.96,178.8 127.96,183.85 126.59,184.64 					"/>
					<polygon class="st7" points="126.59,179.59 124.78,178.54 124.78,183.59 126.59,184.64 					"/>
					<polygon class="st7" points="125.69,181.18 126.32,181.75 126.96,182.31 127.42,183.11 127.88,183.92 128.05,184.75 
						128.22,185.58 128.05,186.22 127.88,186.85 127.42,187.12 126.74,187.51 126.11,187.34 125.47,187.17 124.84,186.61 
						124.73,185.74 124.26,184.94 123.8,184.13 123.63,183.3 123.46,182.47 123.63,181.83 123.8,181.2 123.95,181.11 124.42,180.84 
						125.05,181.01 					"/>
					<polygon class="st7" points="125.69,181.18 126.32,181.75 126.96,182.31 127.42,183.11 127.88,183.92 128.05,184.75 
						128.22,185.58 127.08,186.24 126.11,187.34 125.47,187.17 124.84,186.61 124.73,185.74 124.26,184.94 123.8,184.13 
						123.63,183.3 123.46,182.47 123.63,181.83 123.8,181.2 123.95,181.11 124.42,180.84 125.05,181.01 					"/>
					<polygon class="st7" points="125.69,181.18 126.32,181.75 126.96,182.31 127.42,183.11 127.88,183.92 126.49,184.72 
						126.32,185.36 126.15,185.99 125.68,186.26 125.36,186.3 124.73,185.74 124.26,184.94 123.8,184.13 123.63,183.3 
						123.46,182.47 123.63,181.83 123.27,181.5 123.95,181.11 124.42,180.84 125.05,181.01 					"/>
					<polygon class="st7" points="125.69,181.18 126.32,181.75 126.96,182.31 125.81,182.97 124.57,184.76 126.32,185.36 
						126.15,185.99 125.68,186.26 125.36,186.3 124.73,185.74 124.26,184.94 123.8,184.13 123.63,183.3 123.46,182.47 
						123.63,181.83 123.27,181.5 123.95,181.11 124.42,180.84 125.05,181.01 					"/>
					<polygon class="st7" points="124.54,181.84 125.18,182.41 125.81,182.97 126.28,183.77 126.74,184.58 126.91,185.41 
						127.08,186.24 126.91,186.88 126.74,187.51 126.28,187.78 125.81,188.05 125.18,187.88 124.54,187.71 123.91,187.14 
						123.27,186.58 122.81,185.78 122.34,184.97 122.17,184.14 122,183.31 122.17,182.67 122.34,182.04 122.81,181.77 123.27,181.5 
						123.91,181.67 					"/>
					<polygon class="st7" points="126.59,179.59 128.27,178.91 130.63,177.26 128.82,176.21 124.78,178.54 					"/>
					<polygon class="st7" points="126.59,179.59 127.95,178.81 126.13,177.76 124.78,178.54 					"/>
					<polygon class="st7" points="126.59,180.58 130.63,178.25 130.63,177.26 126.59,179.59 					"/>
				</g>
				<polygon class="st7" points="126.59,179.59 127.95,178.81 126.13,177.76 124.78,178.54 				"/>
				<polygon class="st7" points="126.59,179.59 127.95,178.81 126.13,177.76 124.78,178.54 				"/>
			</g>
			<polygon class="st24" points="86.05,42.61 137.05,72.06 139.78,76.78 139.78,178.28 137.05,179.85 86.05,150.4 83.33,145.68 
				83.33,44.18 			"/>
			<polygon class="st24" points="52.82,61.79 103.82,91.24 106.55,95.96 106.55,197.46 103.82,199.03 52.82,169.59 50.1,164.87 
				50.1,63.37 			"/>
			<polygon class="st25" points="52.82,61.79 103.82,91.24 137.05,72.06 86.05,42.61 			"/>
			<linearGradient id="SVGID_20_" gradientUnits="userSpaceOnUse" x1="132.5639" y1="103.4253" x2="108.2426" y2="59.5485">
				<stop  offset="0" style="stop-color:#968C1D"/>
				<stop  offset="1" style="stop-color:#C7BC3E"/>
			</linearGradient>
			<polygon class="st26" points="106.55,95.96 103.82,91.24 137.05,72.06 139.78,76.78 			"/>
			<linearGradient id="SVGID_21_" gradientUnits="userSpaceOnUse" x1="115.1861" y1="72.5508" x2="126.8028" y2="92.6715">
				<stop  offset="0" style="stop-color:#796E1D"/>
				<stop  offset="1" style="stop-color:#5C5516"/>
			</linearGradient>
			<polygon class="st27" points="114.86,91.17 112.13,86.44 117.37,79.45 128.74,76.85 131.47,81.57 124.08,90.47 			"/>
			<linearGradient id="SVGID_22_" gradientUnits="userSpaceOnUse" x1="108.5609" y1="89.3488" x2="133.3599" y2="170.4627">
				<stop  offset="0" style="stop-color:#968C1D"/>
				<stop  offset="1" style="stop-color:#7E751E"/>
			</linearGradient>
			<polygon class="st28" points="106.55,95.96 106.55,197.46 139.78,178.28 139.78,76.78 			"/>
			<polygon class="st29" points="61.13,57 112.13,86.44 128.74,76.85 77.74,47.41 			"/>
			<linearGradient id="SVGID_23_" gradientUnits="userSpaceOnUse" x1="129.2957" y1="140.6584" x2="47.5597" y2="93.468">
				<stop  offset="0" style="stop-color:#625A18"/>
				<stop  offset="1" style="stop-color:#42400E"/>
			</linearGradient>
			<polygon class="st30" points="114.86,91.17 114.86,192.66 131.47,183.07 131.47,81.57 			"/>
			<g>
				<linearGradient id="SVGID_24_" gradientUnits="userSpaceOnUse" x1="93.6501" y1="65.4368" x2="30.059" y2="28.7225">
					<stop  offset="0" style="stop-color:#625A18"/>
					<stop  offset="1" style="stop-color:#42400E"/>
				</linearGradient>
				<polygon class="st31" points="84.66,57.44 112.66,73.61 109.09,75.66 106.51,75.66 79.8,60.25 				"/>
				<polygon class="st15" points="110.07,71.02 106.51,73.07 79.8,57.66 83.37,55.6 				"/>
				<linearGradient id="SVGID_25_" gradientUnits="userSpaceOnUse" x1="104.8757" y1="67.656" x2="106.6476" y2="70.6049">
					<stop  offset="0" style="stop-color:#403D31"/>
					<stop  offset="1" style="stop-color:#343226"/>
				</linearGradient>
				<polygon class="st32" points="110.07,71.02 106.51,73.07 106.51,75.66 110.07,73.6 				"/>
				<polygon class="st33" points="79.8,57.66 106.51,73.07 106.5,75.66 79.81,60.25 				"/>
			</g>
			<g>
				<linearGradient id="SVGID_26_" gradientUnits="userSpaceOnUse" x1="143.1975" y1="106.3084" x2="133.6841" y2="123.471">
					<stop  offset="0" style="stop-color:#403D31"/>
					<stop  offset="1" style="stop-color:#343226"/>
				</linearGradient>
				<polygon class="st34" points="127.19,121.96 123.62,124.02 123.62,154.85 127.19,152.79 				"/>
				<linearGradient id="SVGID_27_" gradientUnits="userSpaceOnUse" x1="128.0379" y1="131.6284" x2="120.8751" y2="113.8998">
					<stop  offset="0" style="stop-color:#403D31"/>
					<stop  offset="1" style="stop-color:#343226"/>
				</linearGradient>
				<polygon class="st35" points="127.19,121.96 123.63,124.02 121.38,122.73 124.95,120.67 				"/>
				<linearGradient id="SVGID_28_" gradientUnits="userSpaceOnUse" x1="152.9936" y1="141.4587" x2="137.5717" y2="140.1094">
					<stop  offset="0" style="stop-color:#403D31"/>
					<stop  offset="1" style="stop-color:#343226"/>
				</linearGradient>
				<polygon class="st36" points="123.62,154.85 123.63,124.02 121.38,122.73 121.38,153.56 				"/>
			</g>
			<polygon class="st0" points="123.29,25.01 126.85,27.07 126.85,66.17 123.29,64.11 			"/>
			<linearGradient id="SVGID_29_" gradientUnits="userSpaceOnUse" x1="133.6356" y1="19.9964" x2="129.7222" y2="27.0563">
				<stop  offset="0" style="stop-color:#403D31"/>
				<stop  offset="1" style="stop-color:#343226"/>
			</linearGradient>
			<polygon class="st37" points="130.42,25.01 124.68,27.07 126.85,36.95 130.42,34.89 			"/>
			<polygon class="st15" points="130.42,25.01 126.86,27.07 104.43,16.11 96.25,9.4 99.81,7.34 			"/>
			<path class="st33" d="M126.85,27.07v9.88l-3.56-2.06l0-5.77L99.81,15.57l0,5.77l-3.56-2.06l0-9.88
				C106.45,15.29,116.66,21.18,126.85,27.07z"/>
			<polygon class="st24" points="52.82,61.79 103.82,91.24 106.55,95.96 106.55,197.46 103.82,199.03 52.82,169.59 50.1,164.87 
				50.1,63.37 			"/>
			<polygon class="st29" points="57.28,73.79 99.37,98.09 101.62,101.99 101.62,185.74 99.37,187.04 57.28,162.74 55.03,158.84 
				55.03,75.09 			"/>
			<linearGradient id="SVGID_30_" gradientUnits="userSpaceOnUse" x1="144.275" y1="148.1826" x2="82.8252" y2="133.9958">
				<stop  offset="0" style="stop-color:#968C1D"/>
				<stop  offset="1" style="stop-color:#7E751E"/>
			</linearGradient>
			<polygon class="st38" points="103.78,107.57 103.78,191.33 101.53,192.63 59.45,168.33 57.2,164.43 55.03,158.84 55.03,75.09 
				57.28,73.79 99.37,98.09 101.62,101.99 			"/>
			<linearGradient id="SVGID_31_" gradientUnits="userSpaceOnUse" x1="69.7154" y1="136.7991" x2="121.5021" y2="146.8654">
				<stop  offset="0" style="stop-color:#625A18"/>
				<stop  offset="1" style="stop-color:#42400E"/>
			</linearGradient>
			<polygon class="st39" points="101.62,101.99 101.62,185.74 99.37,187.04 83.33,177.78 97.17,99.35 99.37,98.09 			"/>
			<linearGradient id="SVGID_32_" gradientUnits="userSpaceOnUse" x1="84.9179" y1="87.6872" x2="98.2469" y2="107.4483">
				<stop  offset="0" style="stop-color:#796E1D"/>
				<stop  offset="1" style="stop-color:#5C5516"/>
			</linearGradient>
			<polygon class="st40" points="101.62,101.99 99.42,103.25 90.66,107.22 97.17,99.35 99.37,98.09 			"/>
			<linearGradient id="SVGID_33_" gradientUnits="userSpaceOnUse" x1="65.5486" y1="177.5119" x2="109.696" y2="-13.7114">
				<stop  offset="0" style="stop-color:#6B611A"/>
				<stop  offset="1" style="stop-color:#958626"/>
			</linearGradient>
			<polygon class="st41" points="55.09,75.05 97.17,99.35 99.42,103.25 99.42,187.01 97.17,188.3 55.09,164.01 52.84,160.11 
				52.84,76.35 			"/>
			<linearGradient id="SVGID_34_" gradientUnits="userSpaceOnUse" x1="74.4336" y1="118.3107" x2="88.9166" y2="117.5517">
				<stop  offset="0" style="stop-color:#625A18"/>
				<stop  offset="1" style="stop-color:#42400E"/>
			</linearGradient>
			<polygon class="st42" points="94.03,110.27 96.51,111.7 97.6,114.5 97.6,124.11 95.11,122.68 94.03,119.88 			"/>
			<linearGradient id="SVGID_35_" gradientUnits="userSpaceOnUse" x1="44.5672" y1="144.319" x2="58.1432" y2="125.6333">
				<stop  offset="0" style="stop-color:#625A18"/>
				<stop  offset="1" style="stop-color:#42400E"/>
			</linearGradient>
			<polygon class="st43" points="55.75,88.17 96.51,111.7 96.51,113.59 55.75,90.05 			"/>
			<polygon class="st24" points="92.93,110.9 95.42,112.34 95.42,121.95 92.93,120.52 			"/>
			<polygon class="st25" points="92.93,110.9 95.42,112.34 96.51,111.7 94.03,110.27 			"/>
			<linearGradient id="SVGID_36_" gradientUnits="userSpaceOnUse" x1="93.876" y1="116.827" x2="98.5356" y2="116.827">
				<stop  offset="0" style="stop-color:#968C1D"/>
				<stop  offset="1" style="stop-color:#534E14"/>
			</linearGradient>
			<polygon class="st44" points="95.42,121.95 95.42,112.34 96.51,111.7 96.51,121.31 			"/>
		</g>
		<polygon class="st29" points="57.23,73.82 55.03,75.09 97.17,99.35 99.37,98.09 		"/>
	</g>
	<g>
		<g>
			<polygon class="st45" points="170.29,225.53 170.82,225.58 172.82,226.73 172.2,227.34 171.75,226.64 169.76,225.48 			"/>
			<polygon class="st45" points="169.45,232.56 167.46,231.41 167.15,230.97 166.84,230.53 168.81,231.24 168.84,231.69 
				169.15,232.13 			"/>
			<polygon class="st45" points="168.84,231.69 166.84,230.53 166.84,227.17 167.39,227.49 167.39,225.22 168.29,225.74 168.29,228 
				168.84,228.32 169.66,229.54 			"/>
			<polygon class="st45" points="167.84,231.11 166.84,230.53 166.84,227.17 167.01,227.26 167.84,231.11 			"/>
			<polygon class="st45" points="168.84,228.32 166.84,227.17 169.76,225.48 172.35,226.7 			"/>
			<polygon class="st45" points="168.84,228.32 168.29,228 168.29,228 169.52,228 			"/>
			<polygon class="st45" points="167.42,227.5 166.84,227.17 169.03,225.9 169.03,227.5 			"/>
			<polygon class="st45" points="171.75,226.64 172.29,226.69 172.82,226.73 173.13,227.17 173.43,227.61 173.43,228.32 
				173.43,229.03 173.13,229.83 172.82,230.62 172.28,231.28 171.75,231.95 171.14,232.3 170.52,232.66 169.99,232.61 
				169.45,232.56 169.15,232.13 168.84,231.69 168.84,228.32 			"/>
			<polygon class="st45" points="168.29,228 167.75,228.22 167.39,227.48 167.39,225.22 168.29,225.74 			"/>
			<polygon class="st45" points="171.75,226.64 172.82,226.74 173.43,227.61 173.43,229.04 172.82,230.62 171.75,231.95 
				170.52,232.66 169.45,232.57 168.83,231.69 168.83,230.27 169.45,228.68 170.51,227.35 			"/>
			<polygon class="st45" points="171.51,227.82 172.16,227.88 172.53,228.41 172.53,229.28 172.16,230.24 171.51,231.05 
				170.76,231.48 170.11,231.43 169.73,230.89 169.73,230.03 170.11,229.06 170.76,228.25 			"/>
			<polygon class="st45" points="168.29,228 171.3,226.26 171.3,224 168.29,225.74 			"/>
			<polygon class="st45" points="167.39,225.22 170.41,223.48 171.3,224 168.29,225.74 			"/>
		</g>
		<g>
			<polygon class="st45" points="134.61,204.94 135.14,204.99 137.14,206.14 136.52,206.75 136.07,206.05 134.07,204.89 			"/>
			<polygon class="st45" points="133.77,211.97 131.78,210.82 131.47,210.38 131.16,209.94 133.13,210.64 133.16,211.09 
				133.47,211.53 			"/>
			<polygon class="st45" points="133.16,211.1 131.16,209.94 131.16,206.57 131.71,206.89 131.71,204.63 132.61,205.15 
				132.61,207.41 133.16,207.73 133.98,208.95 			"/>
			<polygon class="st45" points="132.16,210.52 131.16,209.94 131.16,206.57 131.33,206.67 132.16,210.52 			"/>
			<polygon class="st45" points="133.16,207.73 131.16,206.57 134.07,204.89 136.67,206.11 			"/>
			<polygon class="st45" points="133.16,207.73 132.61,207.41 132.61,207.41 133.84,207.41 			"/>
			<polygon class="st45" points="131.74,206.91 131.16,206.57 133.35,205.31 133.35,206.91 			"/>
			<polygon class="st45" points="136.07,206.05 136.61,206.09 137.14,206.14 137.45,206.58 137.76,207.02 137.76,207.73 
				137.76,208.44 137.45,209.23 137.14,210.03 136.6,210.69 136.07,211.36 135.46,211.71 134.84,212.07 134.31,212.02 
				133.77,211.97 133.47,211.53 133.16,211.1 133.16,207.73 			"/>
			<polygon class="st45" points="132.61,207.41 132.07,207.63 131.71,206.89 131.71,204.63 132.61,205.15 			"/>
			<polygon class="st45" points="136.07,206.05 137.14,206.14 137.75,207.02 137.75,208.44 137.14,210.03 136.07,211.36 
				134.84,212.07 133.77,211.97 133.15,211.1 133.15,209.67 133.77,208.09 134.83,206.76 			"/>
			<polygon class="st45" points="135.83,207.22 136.48,207.28 136.85,207.82 136.85,208.68 136.48,209.65 135.83,210.46 
				135.08,210.89 134.43,210.83 134.05,210.3 134.05,209.43 134.43,208.47 135.08,207.66 			"/>
			<polygon class="st45" points="132.61,207.41 135.62,205.67 135.62,203.4 132.61,205.15 			"/>
			<polygon class="st45" points="131.71,204.63 134.72,202.89 135.62,203.4 132.61,205.15 			"/>
		</g>
		<g>
			<polygon class="st45" points="184.66,218.08 185.19,218.13 187.19,219.29 186.56,219.9 186.12,219.19 184.12,218.04 			"/>
			<polygon class="st45" points="183.82,225.12 181.82,223.96 181.52,223.53 181.21,223.09 183.17,223.79 183.2,224.24 
				183.51,224.68 			"/>
			<polygon class="st45" points="183.2,224.24 181.21,223.09 181.21,219.72 181.76,220.04 181.76,217.77 182.65,218.29 
				182.65,220.55 183.2,220.87 184.03,222.09 			"/>
			<polygon class="st45" points="182.2,223.66 181.21,223.09 181.21,219.72 181.37,219.82 182.21,223.66 			"/>
			<polygon class="st45" points="183.2,220.87 181.21,219.72 184.12,218.04 186.72,219.25 			"/>
			<polygon class="st45" points="183.2,220.87 182.65,220.56 182.65,220.55 183.89,220.55 			"/>
			<polygon class="st45" points="181.79,220.05 181.21,219.72 183.4,218.45 183.4,220.05 			"/>
			<polygon class="st45" points="186.12,219.19 186.65,219.24 187.19,219.29 187.49,219.72 187.8,220.16 187.8,220.87 187.8,221.59 
				187.49,222.38 187.19,223.17 186.65,223.84 186.12,224.5 185.5,224.86 184.89,225.21 184.35,225.16 183.82,225.12 183.51,224.68 
				183.2,224.24 183.2,220.87 			"/>
			<polygon class="st45" points="182.65,220.55 182.12,220.78 181.76,220.04 181.76,217.77 182.65,218.29 			"/>
			<polygon class="st45" points="186.12,219.19 187.18,219.29 187.8,220.16 187.8,221.59 187.18,223.17 186.12,224.5 184.89,225.21 
				183.82,225.12 183.2,224.24 183.2,222.82 183.82,221.23 184.88,219.91 			"/>
			<polygon class="st45" points="185.88,220.37 186.53,220.43 186.9,220.96 186.9,221.83 186.53,222.8 185.88,223.6 185.13,224.04 
				184.48,223.98 184.1,223.45 184.1,222.58 184.47,221.61 185.12,220.8 			"/>
			<polygon class="st45" points="182.65,220.55 185.67,218.81 185.67,216.55 182.65,218.29 			"/>
			<polygon class="st45" points="181.76,217.77 184.77,216.03 185.67,216.55 182.65,218.29 			"/>
		</g>
		<polygon class="st46" points="148.6,123.66 189.9,147.5 189.9,150.55 183.38,154.31 175.28,158.99 170.01,158.99 128.71,135.14 
			128.71,132.1 143.33,123.66 		"/>
		<linearGradient id="SVGID_37_" gradientUnits="userSpaceOnUse" x1="190.8993" y1="206.3039" x2="86.4475" y2="138.4722">
			<stop  offset="0" style="stop-color:#EDC374"/>
			<stop  offset="1" style="stop-color:#FFEC8D"/>
		</linearGradient>
		<polygon class="st47" points="175.28,158.99 170.01,158.99 164.37,179.6 170.01,229.91 175.28,229.91 180.86,212.53 		"/>
		<polygon class="st48" points="146.95,125.96 144.99,125.96 132.68,133.07 132.68,134.2 171.64,156.7 173.61,156.7 185.91,149.59 
			185.91,148.46 		"/>
		<polygon class="st46" points="175.28,158.99 170.01,158.99 171.64,153.44 173.61,153.44 		"/>
		<linearGradient id="SVGID_38_" gradientUnits="userSpaceOnUse" x1="184.2642" y1="157.7837" x2="179.7421" y2="149.6255">
			<stop  offset="0" style="stop-color:#EDC374"/>
			<stop  offset="1" style="stop-color:#FFEC8D"/>
		</linearGradient>
		<polygon class="st49" points="175.28,158.99 183.47,159.29 189.9,150.55 185.91,146.33 173.61,153.44 		"/>
		<linearGradient id="SVGID_39_" gradientUnits="userSpaceOnUse" x1="189.4783" y1="149.0016" x2="181.3148" y2="138.1682">
			<stop  offset="0" style="stop-color:#EDC374"/>
			<stop  offset="1" style="stop-color:#FFEC8D"/>
		</linearGradient>
		<polygon class="st50" points="189.9,147.5 189.9,150.55 185.91,146.33 185.91,145.2 		"/>
		<polygon class="st48" points="128.71,135.14 170.01,158.99 171.64,153.44 132.68,130.94 		"/>
		<polygon class="st48" points="128.71,132.1 128.71,135.14 132.68,130.94 132.68,129.81 		"/>
		<polygon class="st48" points="146.95,122.7 144.99,122.7 132.68,129.81 132.68,130.95 171.64,153.44 173.61,153.44 185.91,146.33 
			185.91,145.2 		"/>
		<linearGradient id="SVGID_40_" gradientUnits="userSpaceOnUse" x1="193.6228" y1="110.4939" x2="183.7878" y2="119.3494">
			<stop  offset="0" style="stop-color:#623752"/>
			<stop  offset="1" style="stop-color:#E6AC68"/>
		</linearGradient>
		<path class="st51" d="M178.19,140.74l-3.89-2.25v2.25H178.19L178.19,140.74z M159.95,130.21l-3.89-2.25v2.25H159.95z"/>
		<linearGradient id="SVGID_41_" gradientUnits="userSpaceOnUse" x1="253.4167" y1="365.5267" x2="167.7642" y2="153.5293">
			<stop  offset="0" style="stop-color:#623752"/>
			<stop  offset="1" style="stop-color:#E6AC68"/>
		</linearGradient>
		<polygon class="st52" points="175.28,158.99 189.9,150.55 189.9,221.47 175.28,229.91 		"/>
		<linearGradient id="SVGID_42_" gradientUnits="userSpaceOnUse" x1="184.4243" y1="159.2903" x2="190.2955" y2="171.8811">
			<stop  offset="0" style="stop-color:#6B3D56"/>
			<stop  offset="1" style="stop-color:#623752"/>
		</linearGradient>
		<polygon class="st53" points="185.23,153.24 182.4,148.36 178.09,147.86 177.12,151.41 179.95,156.29 183.3,157.28 		"/>
		<linearGradient id="SVGID_43_" gradientUnits="userSpaceOnUse" x1="145.2798" y1="174.3906" x2="159.6456" y2="180.4885">
			<stop  offset="0" style="stop-color:#6B3D56"/>
			<stop  offset="1" style="stop-color:#623752"/>
		</linearGradient>
		<polygon class="st54" points="185.23,224.17 185.23,153.24 179.95,156.29 179.95,227.22 		"/>
		<polygon class="st55" points="141.47,124.73 182.4,148.36 177.12,151.41 136.19,127.78 		"/>
		<linearGradient id="SVGID_44_" gradientUnits="userSpaceOnUse" x1="116.9471" y1="170.3751" x2="91.3428" y2="189.6693">
			<stop  offset="0" style="stop-color:#6B3D56"/>
			<stop  offset="1" style="stop-color:#623752"/>
		</linearGradient>
		<polygon class="st56" points="150.06,133.9 150.38,134.08 150.75,134.22 153.89,135.37 165.28,141.95 166.22,143.23 168.94,144.8 
			169.48,144.8 171.49,143.64 169.43,142.45 168.49,141.16 155.79,133.83 152.28,132.54 150.21,131.35 149.67,131.35 		"/>
		<linearGradient id="SVGID_45_" gradientUnits="userSpaceOnUse" x1="169.1869" y1="141.1588" x2="170.2628" y2="145.1741">
			<stop  offset="0" style="stop-color:#6B3D56"/>
			<stop  offset="1" style="stop-color:#623752"/>
		</linearGradient>
		<polygon class="st57" points="168.94,144.8 168.41,143.42 170.95,142.56 170.95,143.64 		"/>
		<polygon class="st55" points="166.86,142.53 167.33,143.87 168.94,143.73 170.95,142.56 168.88,141.37 167.38,141.3 		"/>
		<polygon class="st55" points="147.64,131.43 148.61,132.39 149.72,132.63 151.73,131.47 149.66,130.27 		"/>
		<polygon class="st58" points="166.86,142.53 164.88,140.92 164.64,138.68 164.61,137.41 166.65,137.52 168.88,141.37 		"/>
		<polygon class="st46" points="128.71,135.14 170.01,158.99 170.01,229.91 128.71,206.07 		"/>
		<g>
			<linearGradient id="SVGID_46_" gradientUnits="userSpaceOnUse" x1="195.1809" y1="179.2694" x2="214.0652" y2="177.2846">
				<stop  offset="0" style="stop-color:#6B3D56"/>
				<stop  offset="1" style="stop-color:#623752"/>
			</linearGradient>
			<polygon class="st59" points="181.76,180.56 182.53,181.51 184.19,180.04 183.42,179.6 			"/>
			<linearGradient id="SVGID_47_" gradientUnits="userSpaceOnUse" x1="195.3168" y1="180.3771" x2="214.163" y2="178.3963">
				<stop  offset="0" style="stop-color:#6B3D56"/>
				<stop  offset="1" style="stop-color:#623752"/>
			</linearGradient>
			<polygon class="st60" points="182.53,182.98 181.76,182.09 182.53,181 184.19,180.04 184.19,182.02 183.62,183.11 			"/>
			<linearGradient id="SVGID_48_" gradientUnits="userSpaceOnUse" x1="197.2923" y1="198.3689" x2="215.9712" y2="196.4056">
				<stop  offset="0" style="stop-color:#6B3D56"/>
				<stop  offset="1" style="stop-color:#623752"/>
			</linearGradient>
			<polygon class="st61" points="182.53,201.3 182.25,200.21 182.53,199.32 184.19,198.37 184.19,200.34 			"/>
			<linearGradient id="SVGID_49_" gradientUnits="userSpaceOnUse" x1="195.5081" y1="183.225" x2="214.5676" y2="181.2217">
				<stop  offset="0" style="stop-color:#6B3D56"/>
				<stop  offset="1" style="stop-color:#623752"/>
			</linearGradient>
			<polygon class="st62" points="182.53,182.98 182.86,185.06 184.36,186.16 185.26,186.7 186.03,185.2 184.19,182.02 			"/>
			<linearGradient id="SVGID_50_" gradientUnits="userSpaceOnUse" x1="196.3722" y1="190.5563" x2="215.2463" y2="188.5726">
				<stop  offset="0" style="stop-color:#6B3D56"/>
				<stop  offset="1" style="stop-color:#623752"/>
			</linearGradient>
			<polygon class="st63" points="184.37,198.26 184.04,189.79 184.36,186.16 186.03,185.2 186.03,197.3 			"/>
			<linearGradient id="SVGID_51_" gradientUnits="userSpaceOnUse" x1="196.1734" y1="189.4553" x2="215.2144" y2="187.454">
				<stop  offset="0" style="stop-color:#6B3D56"/>
				<stop  offset="1" style="stop-color:#623752"/>
			</linearGradient>
			<polygon class="st64" points="181.76,200.86 181.76,198.57 181.76,198.26 181.95,198.15 183.6,197.2 183.6,186.34 181.76,183.16 
				181.76,180.56 182.53,181 182.53,182.98 184.37,186.16 184.37,198.26 182.53,199.32 182.53,201.3 			"/>
		</g>
		<polygon class="st65" points="174.3,104.24 176.25,103.11 176.25,139.62 174.3,140.74 		"/>
		<polygon class="st65" points="156.06,93.7 158.01,92.58 158.01,129.08 156.06,130.21 		"/>
		<linearGradient id="SVGID_52_" gradientUnits="userSpaceOnUse" x1="162.0465" y1="113.1045" x2="180.0651" y2="180.3508">
			<stop  offset="0" style="stop-color:#6B3D56"/>
			<stop  offset="1" style="stop-color:#623752"/>
		</linearGradient>
		<polygon class="st66" points="156.06,93.7 158.01,92.58 158.01,95.08 156.06,96.21 		"/>
		<polygon class="st67" points="174.3,104.24 172.91,103.43 172.91,139.94 174.3,140.74 		"/>
		<polygon class="st58" points="174.3,103.23 172.91,102.43 172.91,105.94 174.3,106.74 175,104.61 		"/>
		<polygon class="st67" points="156.06,93.7 154.67,92.9 154.67,129.4 156.06,130.21 		"/>
		<polygon class="st58" points="156.06,92.7 154.67,91.89 154.67,95.4 156.06,96.21 		"/>
		<polygon class="st55" points="151.84,131.28 161.33,137.14 164.64,138.68 166.65,137.52 153.85,130.12 		"/>
		<polygon class="st58" points="147.64,132.5 150.04,133.89 150.37,134.08 150.6,133.95 152.6,132.8 163.98,139.37 166.21,143.22 
			168.94,144.8 168.94,143.73 166.86,142.53 164.64,138.68 151.94,131.35 149.72,132.63 147.64,131.43 		"/>
		<polygon class="st58" points="154.67,91.28 176.25,101.49 174.3,105.25 154.66,93.91 		"/>
		<polygon class="st55" points="174.31,102.62 176.25,101.5 156.61,90.16 154.67,91.28 		"/>
		<linearGradient id="SVGID_53_" gradientUnits="userSpaceOnUse" x1="192.2181" y1="119.812" x2="195.404" y2="122.9979">
			<stop  offset="0" style="stop-color:#6B3D56"/>
			<stop  offset="1" style="stop-color:#623752"/>
		</linearGradient>
		<polygon class="st68" points="174.3,104.25 174.3,102.62 176.25,101.49 176.25,103.12 		"/>
		<linearGradient id="SVGID_54_" gradientUnits="userSpaceOnUse" x1="180.2713" y1="123.0609" x2="198.5811" y2="191.3942">
			<stop  offset="0" style="stop-color:#6B3D56"/>
			<stop  offset="1" style="stop-color:#623752"/>
		</linearGradient>
		<polygon class="st69" points="174.3,103.23 176.25,102.11 176.25,105.62 174.3,106.74 		"/>
		<path class="st70" d="M165.73,173.4v52.41c-4.01-2.32-24.42-14.1-29.88-17.25l-1.43-6.53l29.88-35.16L165.73,173.4z"/>
		<polygon class="st55" points="133,150.45 162.87,220.1 164.3,166.87 134.42,149.62 		"/>
		<polygon class="st46" points="162.87,167.69 162.87,220.1 133,202.85 133,150.44 		"/>
		<linearGradient id="SVGID_55_" gradientUnits="userSpaceOnUse" x1="192.6569" y1="193.4824" x2="156.8219" y2="193.4824">
			<stop  offset="0" style="stop-color:#623752"/>
			<stop  offset="1" style="stop-color:#E6AC68"/>
		</linearGradient>
		<polygon class="st71" points="164.3,166.87 162.87,167.69 162.87,220.1 164.3,219.27 		"/>
		<linearGradient id="SVGID_56_" gradientUnits="userSpaceOnUse" x1="167.1304" y1="189.4503" x2="229.5142" y2="192.7197">
			<stop  offset="0" style="stop-color:#6B3D56"/>
			<stop  offset="1" style="stop-color:#623752"/>
		</linearGradient>
		<polygon class="st72" points="164.3,166.87 162.87,167.69 162.87,211.66 164.3,210.84 		"/>
	</g>
</g>
</svg>
