<?xml version="1.0" encoding="utf-8"?>
<!-- Generator: Adobe Illustrator 25.3.1, SVG Export Plug-In . SVG Version: 6.00 Build 0)  -->
<svg version="1.1" id="圖層_1" xmlns="http://www.w3.org/2000/svg" xmlns:xlink="http://www.w3.org/1999/xlink" x="0px" y="0px"
	 viewBox="0 0 240 240" style="enable-background:new 0 0 240 240;" xml:space="preserve">
<style type="text/css">
	.st0{fill-rule:evenodd;clip-rule:evenodd;fill:#96636E;}
	.st1{fill-rule:evenodd;clip-rule:evenodd;fill:#885464;}
	.st2{fill-rule:evenodd;clip-rule:evenodd;fill:#6B3D56;}
	.st3{fill-rule:evenodd;clip-rule:evenodd;fill:#844F61;}
	.st4{fill-rule:evenodd;clip-rule:evenodd;fill:#EADCD4;}
	.st5{fill-rule:evenodd;clip-rule:evenodd;fill:url(#SVGID_1_);}
	.st6{fill-rule:evenodd;clip-rule:evenodd;fill:#F6F1ED;}
	.st7{opacity:0.3;}
	.st8{fill-rule:evenodd;clip-rule:evenodd;}
	.st9{opacity:0.3;fill-rule:evenodd;clip-rule:evenodd;}
	.st10{fill-rule:evenodd;clip-rule:evenodd;fill:#895665;}
	.st11{fill-rule:evenodd;clip-rule:evenodd;fill:#905E6B;}
	.st12{fill-rule:evenodd;clip-rule:evenodd;fill:#FBF6EB;}
	.st13{fill-rule:evenodd;clip-rule:evenodd;fill:#FDFBF6;}
	.st14{fill-rule:evenodd;clip-rule:evenodd;fill:url(#SVGID_2_);}
	.st15{fill-rule:evenodd;clip-rule:evenodd;fill:url(#SVGID_3_);}
	.st16{fill-rule:evenodd;clip-rule:evenodd;fill:url(#SVGID_4_);}
	.st17{fill-rule:evenodd;clip-rule:evenodd;fill:#F1EAE5;}
	.st18{fill-rule:evenodd;clip-rule:evenodd;fill:#EDE3DB;}
	.st19{fill-rule:evenodd;clip-rule:evenodd;fill:url(#SVGID_5_);}
	.st20{fill-rule:evenodd;clip-rule:evenodd;fill:url(#SVGID_6_);}
	.st21{fill-rule:evenodd;clip-rule:evenodd;fill:url(#SVGID_7_);}
	.st22{fill-rule:evenodd;clip-rule:evenodd;fill:#A77F84;}
	.st23{fill-rule:evenodd;clip-rule:evenodd;fill:#855163;}
	.st24{fill-rule:evenodd;clip-rule:evenodd;fill:#AF878B;}
	.st25{fill-rule:evenodd;clip-rule:evenodd;fill:#7F5467;}
	.st26{fill-rule:evenodd;clip-rule:evenodd;fill:#9E747E;}
	.st27{fill-rule:evenodd;clip-rule:evenodd;fill:#78465C;}
</style>
<g>
	<g>
		<polygon class="st0" points="87.41,6.46 91.19,4.28 94.89,5.52 90.56,13.33 		"/>
		<polygon class="st1" points="92.76,26.41 98.31,26.24 104.82,37.53 100.86,42.16 95.69,34.8 		"/>
		<polygon class="st2" points="91.11,7.7 94.89,5.52 98.31,26.24 99.63,28.52 94.53,28.43 89.9,15.89 		"/>
		<polygon class="st0" points="101.04,39.71 104.82,37.53 119.97,46.27 116.19,48.46 112.1,48.71 		"/>
		<polygon class="st2" points="116.19,48.46 119.97,46.27 119.97,50.64 116.19,52.82 113.01,48.66 		"/>
		<polygon class="st3" points="91.11,7.7 94.53,28.43 101.04,39.71 116.19,48.46 116.19,52.82 100.26,43.63 99.48,43.17 
			98.92,42.22 91.47,29.3 91.07,28.62 90.96,27.9 87.41,6.46 		"/>
	</g>
	<g>
		<polygon class="st3" points="140.67,141.3 125.33,145.28 125.33,146.04 129.55,148.47 		"/>
		<polygon class="st2" points="129.55,147.71 140.67,141.3 140.67,142.06 129.55,148.47 		"/>
		<polygon class="st0" points="129.55,147.71 125.33,145.28 136.45,138.86 140.67,141.3 		"/>
		<g>
			<path class="st2" d="M139.03,140.89l0.35,0.2h-0.39L139.03,140.89L139.03,140.89z M139.72,141.29l-0.24,0.33l-0.87,0.5
				l-3.23-1.86l-1.02,0.61l3.21,1.85l-3.42,1.97l-3.15-1.82l-1.02,0.61l3.13,1.81l-0.56,0.32l-2.27,0.83h-1.64l-0.13,0.69h1.79
				l2.89-1.05l7.32-4.22l0.08-0.04L139.72,141.29z"/>
			<polygon class="st2" points="130.96,146.9 140.67,141.3 140.67,141.78 140.54,141.85 133.22,146.07 			"/>
			<polygon class="st2" points="128.54,147.13 128.54,147.13 128.67,146.44 130.3,146.44 132.57,145.61 133.13,145.29 
				129.22,143.03 130.26,142.43 134.16,144.69 137.58,142.72 133.67,140.46 134.71,139.86 138.61,142.12 139.48,141.62 
				139.87,141.09 138.99,141.09 139.11,140.41 139.13,140.41 140.67,141.3 130.96,146.9 130.33,147.13 			"/>
		</g>
		<g>
			<polygon class="st0" points="134.12,141.93 134.97,141.45 125.85,136.18 125,136.66 126.24,137.92 			"/>
			<polygon class="st2" points="125.84,132.9 125.85,136.18 125,136.66 124.62,132.88 127.29,132.06 			"/>
			<g>
				<polygon class="st2" points="125.37,136.66 125.18,136.56 125.18,136.18 125.18,134.8 125.84,134.8 125.84,136.18 
					126.69,136.66 				"/>
				<polygon class="st2" points="126.69,136.66 125.85,136.18 125,136.66 				"/>
				<polygon class="st2" points="125.85,134.8 125.85,136.18 125,136.66 125,134.8 				"/>
			</g>
			<polygon class="st0" points="135.3,136.89 135.96,136.83 136.14,136.41 127.02,131.14 126.18,131.63 128.51,133.37 			"/>
			<polygon class="st3" points="124.67,137.24 124.34,137.05 124.34,136.67 124.34,132.84 124.34,132.69 124.44,132.63 
				126.08,131.68 126.18,131.63 126.31,131.71 135.3,136.89 135.31,137.66 126.45,132.55 125,133.38 125,136.66 132.63,141.07 
				131.97,141.45 			"/>
		</g>
		<g>
			<polygon class="st0" points="129.67,144.5 130.51,144.01 121.39,138.75 120.55,139.23 121.78,140.49 			"/>
			<polygon class="st2" points="121.39,135.46 121.39,138.75 120.55,139.23 120.17,135.45 122.84,134.63 			"/>
			<g>
				<polygon class="st2" points="120.91,139.23 120.73,139.13 120.73,138.75 120.73,137.37 121.39,137.37 121.39,138.75 
					122.24,139.23 				"/>
				<polygon class="st2" points="122.23,139.23 121.39,138.75 120.55,139.23 				"/>
				<polygon class="st2" points="121.39,137.37 121.39,138.75 120.55,139.23 120.55,137.37 				"/>
			</g>
			<polygon class="st0" points="130.85,139.46 131.43,139.49 131.69,138.98 122.57,133.71 121.72,134.2 124.05,135.94 			"/>
			<polygon class="st3" points="120.22,139.81 119.89,139.62 119.89,139.23 119.89,135.41 119.89,135.25 119.99,135.2 
				121.63,134.25 121.72,134.2 121.86,134.28 130.85,139.46 130.85,140.23 122,135.12 120.55,135.95 120.55,139.23 128.17,143.64 
				127.51,144.02 			"/>
		</g>
		<polygon class="st2" points="128.54,147.13 128.54,143.53 130.37,140.35 137.68,136.14 137.82,136.06 137.92,136.11 
			139.55,137.06 139.65,137.11 139.65,137.27 139.65,140.71 138.99,141.09 138.99,137.81 137.55,136.98 130.65,140.96 129.2,143.47 
			129.2,146.75 		"/>
		<polygon class="st2" points="128.54,147.13 128.54,143.53 130.37,140.35 137.68,136.14 137.82,136.06 137.92,136.11 
			139.55,137.06 139.65,137.11 139.65,137.27 139.65,140.71 138.99,141.09 138.99,137.81 137.55,136.98 130.65,140.96 129.2,143.47 
			129.2,146.75 		"/>
		<polygon class="st3" points="128,143.22 128.54,143.53 128.54,147.8 128,147.49 		"/>
		
			<rect x="127.35" y="141.48" transform="matrix(0.5003 -0.8659 0.8659 0.5003 -58.2102 182.7129)" class="st0" width="3.67" height="0.62"/>
		<polygon class="st0" points="137.28,135.75 137.82,136.06 130.37,140.35 129.84,140.04 		"/>
		<polygon class="st0" points="138.46,140.78 138.99,141.09 138.99,137.81 138.46,137.5 		"/>
		<polygon class="st2" points="138.99,140.22 139.31,137.44 138.46,137.5 		"/>
	</g>
	<g>
		<polygon class="st4" points="126.93,170.21 126.65,170.05 126.38,169.89 126.11,169.65 125.84,169.42 125.6,169.12 125.36,168.82 
			125.16,168.48 124.97,168.14 124.83,167.78 124.69,167.42 124.62,167.07 124.54,166.72 124.54,166.4 124.54,166.08 124.62,165.81 
			124.69,165.54 124.83,165.34 124.97,165.14 125.16,165.03 125.36,164.92 125.6,164.9 125.84,164.87 126.11,164.95 126.38,165.02 
			126.65,165.18 126.93,165.34 127.2,165.58 127.47,165.81 127.71,166.11 127.95,166.41 128.15,166.75 128.34,167.09 128.48,167.45 
			128.62,167.81 128.69,168.16 128.76,168.51 128.76,168.83 128.76,169.15 128.69,169.42 128.62,169.69 128.48,169.89 
			128.34,170.09 128.15,170.2 127.95,170.31 127.71,170.33 127.47,170.35 127.2,170.28 		"/>
		<polygon class="st4" points="128.76,168.83 124.54,166.4 124.54,145.73 128.76,148.17 		"/>
	</g>
	<linearGradient id="SVGID_1_" gradientUnits="userSpaceOnUse" x1="128.2228" y1="152.4335" x2="130.0703" y2="152.4335">
		<stop  offset="0" style="stop-color:#CEB5B0"/>
		<stop  offset="1" style="stop-color:#B99D95"/>
	</linearGradient>
	<polygon class="st5" points="128.76,148.17 129.55,147.71 129.55,156.7 128.76,157.15 	"/>
	<polygon class="st6" points="128.76,148.17 129.55,147.71 125.33,145.28 124.54,145.73 	"/>
	<polygon class="st4" points="127.1,156.77 128.17,157.38 129.23,158 130.26,158.91 131.3,159.83 132.22,160.98 133.14,162.13 
		133.9,163.43 134.65,164.74 135.19,166.11 135.72,167.49 136,168.84 136.27,170.19 136.27,171.42 136.27,172.65 136,173.68 
		135.72,174.71 135.19,175.47 134.65,176.23 133.9,176.67 133.14,177.1 132.22,177.19 131.3,177.27 130.26,176.99 129.23,176.72 
		128.17,176.1 127.1,175.48 126.07,174.57 125.04,173.65 124.11,172.51 123.19,171.36 122.43,170.05 121.68,168.74 121.15,167.37 
		120.61,165.99 120.34,164.64 120.06,163.29 120.06,162.06 120.06,160.83 120.34,159.8 120.61,158.77 121.15,158.01 121.68,157.25 
		122.43,156.81 123.19,156.38 124.11,156.3 125.04,156.21 126.07,156.49 	"/>
	<path class="st4" d="M135.55,205.89c0.36,0.21,0.71,0.41,1.07,0.62c0.36,0.2,0.71,0.41,1.07,0.62c0.28,0.2,0.57,0.39,0.87,0.6
		c0.28,0.2,0.57,0.39,0.87,0.6c0.21,0.18,0.41,0.35,0.62,0.53c0.21,0.18,0.41,0.35,0.62,0.53c0.09,0.14,0.2,0.29,0.32,0.44
		c0.1,0.14,0.21,0.29,0.33,0.44c0,0.1,0,0.2,0,0.31c0,0.1,0,0.2,0,0.31c-0.12,0.05-0.22,0.1-0.32,0.16
		c-0.12,0.05-0.22,0.1-0.32,0.16c-0.2,0-0.41,0-0.61,0c-0.21,0-0.42,0-0.62,0c-0.3-0.06-0.59-0.11-0.87-0.16
		c-0.3-0.06-0.59-0.11-0.87-0.16c-0.36-0.1-0.71-0.2-1.07-0.31c-0.36-0.1-0.71-0.21-1.07-0.31c-0.4-0.15-0.81-0.3-1.19-0.44
		c-0.4-0.15-0.81-0.3-1.19-0.44c-0.42-0.18-0.83-0.35-1.24-0.53c-0.41-0.18-0.82-0.35-1.23-0.53c-0.42-0.21-0.81-0.4-1.2-0.6
		c-0.41-0.21-0.8-0.4-1.19-0.6c-0.36-0.21-0.71-0.41-1.07-0.62c-0.36-0.21-0.72-0.41-1.08-0.62c-0.29-0.2-0.58-0.39-0.86-0.59
		c-0.31-0.21-0.59-0.4-0.87-0.6c-0.21-0.18-0.41-0.35-0.62-0.53c-0.21-0.18-0.41-0.35-0.61-0.53c-0.11-0.15-0.23-0.3-0.33-0.44
		c-0.11-0.15-0.23-0.3-0.33-0.44c0-0.1,0-0.2,0-0.31c0-0.1,0-0.2,0-0.31c0.1-0.06,0.2-0.11,0.32-0.16c0.1-0.06,0.2-0.11,0.32-0.16
		c0.2,0,0.41,0,0.62,0c0.2,0,0.41,0,0.61,0c0.28,0.05,0.57,0.1,0.87,0.16c0.28,0.05,0.57,0.1,0.87,0.16c0.36,0.1,0.71,0.2,1.07,0.31
		c0.36,0.1,0.71,0.21,1.07,0.31c0.39,0.14,0.79,0.29,1.19,0.44c0.39,0.14,0.79,0.29,1.2,0.44c0.41,0.18,0.82,0.35,1.23,0.53
		c0.41,0.18,0.82,0.35,1.23,0.53c0.39,0.2,0.78,0.39,1.2,0.6C134.76,205.49,135.15,205.69,135.55,205.89z"/>
	<g class="st7">
		<polygon class="st8" points="147.2,152.33 156.92,165.59 164.71,170.09 123.02,194.16 120.83,194.16 112.26,189.21 111.47,188.76 
			111.24,188.44 101.3,174.86 143,150.79 		"/>
		<polygon class="st8" points="145.87,178.94 146.59,179.08 150.4,179.08 154.18,181.26 144.49,186.86 140.41,186.86 131.94,185.31 
			123.37,180.36 133.06,174.76 138.62,174.76 		"/>
		<polygon class="st8" points="110.49,185.11 106.71,187.29 105.08,187.83 107.3,190.85 117.56,196.78 170.27,166.35 158.12,159.33 
			157.34,158.89 157.11,158.57 153.95,154.25 153.78,154.03 153.99,153.96 157.56,151.85 157.77,151.78 163.93,149.74 
			168.06,151.87 164.28,154.05 162.66,154.58 164.87,157.61 176.23,164.16 180.01,166.35 176.23,168.53 122.43,199.59 
			122.44,199.59 118.65,201.77 116.47,201.77 100.55,192.57 99.77,192.13 99.53,191.81 96.37,187.49 96.21,187.27 96.42,187.21 
			99.99,185.09 100.2,185.02 106.36,182.98 		"/>
	</g>
	<g class="st7">
		<polygon class="st8" points="174.24,201.22 175.17,200.69 176.5,200.69 178.77,201.04 181.25,201.87 186.27,204.14 205.33,208.39 
			209.24,210.64 210.16,213.41 209.02,215.9 205.02,218.22 201.01,220.53 196.7,221.19 195.6,221.07 194.81,221.19 189.46,220.65 
			185.55,218.4 179.3,207.39 175.37,204.5 173.93,203.06 173.32,201.75 		"/>
		<polygon class="st8" points="150.1,200.09 159.88,211.6 180.42,215.36 185.5,212.43 170.63,203.85 		"/>
		<polygon class="st8" points="183.79,205.67 184.19,205.9 184.59,206.14 185,206.37 185.4,206.61 185.81,206.84 186.21,207.07 
			186.61,207.3 187.02,207.54 187.42,207.77 187.83,208 188.23,208.24 188.63,208.47 189.04,208.7 189.44,208.94 189.85,209.17 
			190.25,209.4 190.66,209.64 191.06,209.87 191.46,210.1 191.87,210.34 192.27,210.57 192.68,210.8 193.08,211.04 193.48,211.27 
			193.89,211.5 194.29,211.74 194.7,211.97 195.1,212.2 195.5,212.44 195.91,212.67 196.31,212.9 196.72,213.14 197.12,213.37 
			197.52,213.6 197.93,213.84 198.33,214.07 198.74,214.3 199.14,214.54 199.54,214.77 199.95,215 200.35,215.24 200.76,215.47 
			201.16,215.7 201.56,215.94 201.97,216.17 202.37,216.4 202.78,216.64 203.18,216.87 203.58,217.1 203.99,217.34 204.39,217.57 
			204.8,217.8 205.2,218.04 205.61,218.27 206.01,218.5 206.41,218.74 206.82,218.97 207.22,219.2 207.63,219.44 208.03,219.67 
			208.43,219.9 208.84,220.14 209.24,220.37 209.65,220.6 207.1,222.07 204.77,222.07 194.75,216.28 179.82,213.55 168.67,207.11 
			171.21,205.64 179.02,207.07 181.45,205.67 		"/>
	</g>
	<g class="st7">
		<path class="st8" d="M107.44,202.67h2.11h0.08l0.16,0.06l2.58,0.94l0.16,0.06l0.13,0.07l4.71,2.72l1.36-0.78l0.79-0.46h10.17h0.01
			h0.01h0.01h0.01h0.01h0.01h0.01h0.01h0.01h0.01h0.01h0.01h0.01h0.01h0.01h0.01h0.16l0.23,0.05l0.22,0.04l0.29,0.08l0.28,0.08
			l0.31,0.11l0.31,0.11l0.32,0.14l0.33,0.14l0.3,0.15l0.31,0.16l0.27,0.16l0.27,0.16l0.24,0.16l0.22,0.15l0.16,0.14l0.17,0.14
			l0.08,0.11l0.08,0.11l0.01,0.08l-0.02,0.08l-0.07,0.05l-0.72,0.41l-0.07,0.05l-0.09,0.04h-0.16h-0.01h-0.01h-0.01h-0.01h-0.01
			h-0.01h-0.01h-0.01h-0.01h-0.01h-0.01h-0.01h-0.01h-0.01h-0.01h-0.01h-9.44l-0.31,0.42l-0.03,0.06l-0.14,0.08l-7.32,4.22
			l-2.25,0.82l-1.42,0.82h-0.38l-4.22-2.43l3.06-1.77l-0.88-0.26l-7.29-4.21l-0.32-0.19l0.84-0.49h2.11h0.08l0.16,0.06l2.58,0.94
			l0.16,0.06l0.13,0.07l4.71,2.72l2.13-1.23l-0.81-0.3l-7.29-4.21l-0.32-0.19L107.44,202.67L107.44,202.67z M111.46,209.92l0.4-0.23
			l-4.75-2.74l-2.17-0.79L111.46,209.92L111.46,209.92z M115.91,207.35l0.4-0.23l-4.75-2.74l-2.17-0.79L115.91,207.35z"/>
		<path class="st8" d="M142.39,198.94l-0.79-0.46h9.95l3.05-1.76l-0.88-0.26l-7.29-4.21l-0.32-0.19l0.84-0.49h2.11h0.08l0.16,0.06
			l2.58,0.94l0.16,0.06l0.13,0.07l4.71,2.72l2.13-1.23l-0.81-0.3l-7.29-4.21l-0.32-0.19l0.84-0.49h2.11h0.08l0.16,0.06l2.58,0.94
			l0.16,0.06l0.13,0.07l4.71,2.72l1.36-0.78l0.38,0l2.68,1.55h1.69h0.08l0.54,0.31l-0.03,0.05l-0.69,0.94l-0.03,0.06l-0.13,0.08
			l-7.32,4.22l-2.25,0.82l-1.42,0.82l-0.79,0.46h-10.33l-4.22-2.44H142.39L142.39,198.94z M155.42,196.25l0.4-0.23l-4.75-2.74
			l-2.17-0.79L155.42,196.25L155.42,196.25z M159.87,193.68l0.4-0.23l-4.75-2.74l-2.17-0.79L159.87,193.68z"/>
	</g>
	<polygon class="st9" points="172.6,211.23 160.1,218.45 143.83,215.47 127.59,212.5 122.23,209.4 122.23,209.4 73.06,181.01 
		72.43,180.65 71.99,180.29 66.14,175.57 65.72,175.23 65.63,175 63.94,171.09 76.44,163.87 76.69,163.79 80.08,162.77 
		80.31,162.69 80.84,162.79 139.18,173.47 139.36,173.57 145.05,176.86 132.55,184.07 94.61,177.13 104.52,182.85 112.76,186.15 
		136.78,190.55 150.5,196.04 171.22,208 	"/>
	<path class="st9" d="M94.2,155.66h2.26l21.64,12.49l-54.09,31.23h-2.26L94.2,155.66L94.2,155.66z M157.49,190.9h-2.26l-51.83,31.23
		l21.29,13.59h2.26l54.09-31.23L157.49,190.9z"/>
	<polygon class="st3" points="101.14,217.6 178.78,199.97 124.69,235.72 101.14,222.13 	"/>
	<polygon class="st3" points="40.11,182.37 84.16,181.92 61.75,199.38 40.11,186.89 	"/>
	<polygon class="st2" points="178.78,199.97 124.69,231.2 124.69,235.72 178.78,204.5 	"/>
	<polygon class="st2" points="115.84,163.63 61.75,194.86 61.75,199.38 115.84,168.16 	"/>
	<polygon class="st0" points="155.23,186.37 178.78,199.97 124.69,231.2 101.14,217.6 	"/>
	<path class="st2" d="M155.23,186.37l8.42,4.86l-6.1,3.52l-2.25,0.82l-0.01,0.01l3.41,1.97l9.67,1.77l4.29,2.48l2.25,0.41l-4.6,5.26
		l-14.91,6l-13.83-2.53l-15.19-2.78l1.58-6.04l19.16-11.06l1.13,0.45l2.65,1.53l1.46-0.84l-0.88-0.26l-2.93-1.69l1.03-0.6l3.6,2.08
		l0.4-0.23l-3.6-2.08l1.03-0.6l3.6,2.08l2.13-1.23l-0.81-0.3l-2.93-1.69l1.03-0.6l3.6,2.08l0.4-0.23l-3.6-2.08L155.23,186.37
		L155.23,186.37z M172.54,196.37l-0.56,0.32l-0.92,0.53l0.61,1.31l1.43,1.43l2.5,1.84l1.58,0.46l1.6-2.3L172.54,196.37z"/>
	<polygon class="st0" points="94.2,151.14 115.84,163.63 61.75,194.86 40.11,182.37 	"/>
	<polygon class="st2" points="113.25,162.14 115.84,163.63 84.73,181.59 68.36,174.66 63.87,171.04 63.46,170.71 63.36,170.47 
		62.84,169.25 81.07,158.72 110,164.01 	"/>
	<rect x="119.71" y="202.69" transform="matrix(0.866 -0.5 0.5 0.866 -84.3455 90.6291)" class="st3" width="14.43" height="0"/>
	<polygon class="st2" points="133.05,166.42 148.85,163.73 138.87,200.94 126.37,208.16 	"/>
	<polygon class="st3" points="70.94,69.21 83.44,62 83.61,62.1 71.11,69.31 	"/>
	<polygon class="st3" points="71.11,69.31 83.61,62.1 89.31,65.38 76.81,72.6 	"/>
	<polygon class="st10" points="59.61,152.15 72.11,144.93 77.68,156.52 69.27,163.71 65.18,163.74 60.1,159.48 	"/>
	<polygon class="st2" points="76.81,72.6 89.31,65.38 70.59,135.2 72.11,144.93 77.68,156.52 70.93,160.42 61.59,152.55 
		59.61,152.15 56.98,142.42 	"/>
	<polygon class="st11" points="65.18,163.74 77.68,156.52 84.66,164.52 77.98,173 72.16,171.74 65.51,168.94 	"/>
	<polygon class="st0" points="72.16,171.74 84.66,164.52 99.69,173.2 87.19,180.42 76.11,177.61 	"/>
	<polygon class="st12" points="60.54,137.72 78.55,144.23 99.1,159.98 94.31,177.85 88.6,179.61 73.56,170.93 66.58,162.93 
		61.02,151.33 59.49,141.61 	"/>
	<polygon class="st13" points="60.54,137.72 69.36,137.82 70.23,132.12 108.79,154.39 99.1,159.98 	"/>
	<linearGradient id="SVGID_2_" gradientUnits="userSpaceOnUse" x1="104.0191" y1="128.2432" x2="76.5592" y2="158.7406">
		<stop  offset="0" style="stop-color:#EFE1CD"/>
		<stop  offset="1" style="stop-color:#D2B59E"/>
	</linearGradient>
	<path class="st14" d="M60.54,137.72l2.7,1.56l-2.35,8.76l0.7,4.51L61,151.34c-0.52-3.23-1.02-6.48-1.52-9.72
		C59.83,140.32,60.18,139.03,60.54,137.72L60.54,137.72z M81.85,150.03l6.51,3.76l3,5.18l6.94,4.01l-3.98,14.87l-1.56,0.48
		l-7.21-12.48l-0.39-0.67l-0.11-0.71L81.85,150.03z"/>
	<linearGradient id="SVGID_3_" gradientUnits="userSpaceOnUse" x1="78.9733" y1="471.9763" x2="90.6128" y2="-194.852">
		<stop  offset="0" style="stop-color:#EFE1CD"/>
		<stop  offset="1" style="stop-color:#D2B59E"/>
	</linearGradient>
	<polygon class="st15" points="60.54,137.72 70.23,132.12 91.67,144.5 91.66,144.5 108.79,154.39 102.13,158.23 94.59,153.88 
		93.8,153.42 93.57,153.11 91.63,150.46 89.03,151.96 87.41,152.49 88.36,153.79 81.85,150.03 82.31,149.76 82.52,149.69 
		88.69,147.65 90.11,148.38 86.59,143.57 85.59,143.39 63.28,139.3 	"/>
	<polygon class="st3" points="87.19,180.42 99.69,173.2 105.4,171.44 92.91,178.66 	"/>
	<polygon class="st0" points="100.52,150.26 113.02,143.04 122.54,140.1 110.28,153.68 	"/>
	<polygon class="st0" points="110.04,147.32 122.54,140.1 143.24,152.06 126.22,165.63 118.01,157.47 	"/>
	<polygon class="st3" points="130.74,159.27 143.24,152.06 148.85,163.73 136.35,170.94 129.38,166.31 	"/>
	<path class="st3" d="M136.35,170.94l-9.97,37.22l-4.44-2.56l-1.24,0.71c-10.57-6.1-19.91-11.49-30.49-17.6l-7.67-4.43v-1.43
		l-14.19-8.19l-6.27-7.19l-0.59-0.68l-0.4-0.84l-6.37-13.27l-0.4-0.84l-0.13-0.82l-1.78-11.36l-0.13-0.81l0.17-0.64l18.49-69
		l0.17,0.1l5.69,3.29l-18.72,69.82l1.52,9.72l5.57,11.59l6.98,8l15.03,8.68l5.71-1.76l7.61-28.4l0.27-0.08l9.25-2.85l20.7,11.96
		L136.35,170.94z"/>
	<g>
		<path class="st2" d="M63.2,98.03l7.75-28.81c0.05,0.03,0.11,0.07,0.18,0.11c1.89,1.09,3.78,2.18,5.69,3.29l-8.98,33.46L63.2,98.03
			z"/>
		<path class="st2" d="M70.01,72.7l0.93-3.48c0.05,0.03,0.11,0.07,0.18,0.11c1.89,1.09,3.78,2.18,5.69,3.29l-1.28,4.77l-5.15-2.98
			L70.01,72.7z"/>
		<polygon class="st2" points="93.68,175.79 98.2,158.93 98.82,159.28 98.5,157.82 100.53,150.25 101.07,150.09 103.69,162.1 
			103.69,162.09 107.47,179.4 107.47,183.76 		"/>
	</g>
	<polygon class="st4" points="114.6,163.98 115.67,164.6 116.73,165.21 117.76,166.13 118.8,167.04 119.72,168.19 120.64,169.34 
		121.4,170.65 122.15,171.96 122.69,173.33 123.22,174.71 123.5,176.06 123.77,177.41 123.77,178.64 123.77,179.87 123.5,180.9 
		123.22,181.93 122.69,182.69 122.15,183.45 121.4,183.88 120.64,184.32 119.72,184.4 118.8,184.48 117.76,184.21 116.73,183.93 
		115.67,183.32 114.6,182.7 113.57,181.79 112.54,180.87 111.61,179.72 110.69,178.57 109.93,177.27 109.18,175.96 108.65,174.58 
		108.11,173.21 107.84,171.86 107.56,170.51 107.56,169.28 107.56,168.05 107.84,167.01 108.11,165.98 108.65,165.22 109.18,164.47 
		109.93,164.03 110.69,163.59 111.61,163.51 112.54,163.43 113.57,163.71 	"/>
	<polygon class="st2" points="115.39,171.36 115.67,171.52 115.94,171.68 116.21,171.92 116.48,172.16 116.72,172.46 116.96,172.76 
		117.16,173.1 117.35,173.44 117.49,173.79 117.63,174.15 118.57,178.47 118.57,178.79 118.57,179.11 118.57,190.51 117.4,190.2 
		113.56,187.98 113.56,173.06 113.56,172.74 113.56,172.42 113.63,172.15 113.7,171.88 113.84,171.68 113.98,171.49 114.17,171.37 
		114.37,171.26 114.61,171.24 114.85,171.22 115.12,171.29 	"/>
	<polygon class="st2" points="114.53,163.36 115.67,164.01 116.8,164.67 117.9,165.64 118.99,166.61 119.97,167.83 120.95,169.05 
		121.76,170.44 122.56,171.83 123.13,173.29 123.69,174.75 123.99,176.19 124.28,177.62 124.28,178.93 124.28,180.24 123.99,181.33 
		123.69,182.43 123.13,183.24 122.56,184.04 121.76,184.51 120.95,184.97 119.97,185.06 118.99,185.15 117.9,184.85 116.8,184.56 
		115.67,183.9 114.53,183.25 113.44,182.28 112.34,181.31 111.36,180.08 110.38,178.86 109.58,177.47 108.77,176.09 108.21,174.62 
		107.64,173.16 107.35,171.73 107.05,170.29 107.05,168.98 107.05,167.68 107.35,166.58 107.64,165.48 108.21,164.68 108.77,163.87 
		109.57,163.41 110.38,162.94 111.36,162.86 112.34,162.77 113.44,163.06 	"/>
	<polygon class="st4" points="114.6,163.98 115.67,164.6 116.73,165.21 117.76,166.13 118.79,167.04 119.72,168.19 120.64,169.34 
		121.4,170.65 122.15,171.96 122.68,173.33 123.22,174.71 123.49,176.05 123.77,177.4 123.77,178.64 123.77,179.87 123.49,180.9 
		123.22,181.93 122.68,182.69 122.15,183.45 121.4,183.88 120.64,184.32 119.72,184.4 118.79,184.48 117.76,184.21 116.73,183.93 
		115.67,183.32 114.6,182.7 113.57,181.79 112.54,180.87 111.61,179.72 110.69,178.57 109.94,177.27 109.18,175.96 108.65,174.58 
		108.11,173.21 107.84,171.86 107.56,170.51 107.56,169.28 107.56,168.05 107.84,167.02 108.11,165.98 108.65,165.23 109.18,164.47 
		109.94,164.03 110.69,163.6 111.61,163.51 112.54,163.43 113.57,163.71 	"/>
	<linearGradient id="SVGID_4_" gradientUnits="userSpaceOnUse" x1="119.6974" y1="177.5022" x2="118.5767" y2="177.6199">
		<stop  offset="0" style="stop-color:#CEB5B0"/>
		<stop  offset="1" style="stop-color:#B99D95"/>
	</linearGradient>
	<polygon class="st16" points="118.57,184.42 117.76,184.21 116.73,183.93 115.67,183.32 114.6,182.7 113.57,181.79 113.56,181.78 
		113.56,173.06 113.56,172.74 113.56,172.42 113.63,172.15 113.7,171.88 113.84,171.68 113.98,171.49 114.17,171.37 114.37,171.26 
		114.61,171.24 114.85,171.22 115.12,171.29 115.39,171.36 115.67,171.52 115.94,171.68 116.21,171.92 116.48,172.16 116.72,172.46 
		116.96,172.76 117.16,173.1 117.35,173.44 117.49,173.79 117.63,174.15 118.57,178.47 118.57,178.79 118.57,179.11 	"/>
	<polygon class="st6" points="115.94,171.68 116.48,172.16 115.65,172.97 113.58,171.72 114.37,171.26 114.85,171.22 115.39,171.36 
			"/>
	<polygon class="st17" points="115.69,172.61 116.48,172.16 116.96,172.76 115.74,173.84 	"/>
	<polygon class="st18" points="116.17,173.21 116.96,172.76 117.35,173.44 116.31,174.47 	"/>
	<linearGradient id="SVGID_5_" gradientUnits="userSpaceOnUse" x1="116.4998" y1="173.535" x2="117.6126" y2="175.4626">
		<stop  offset="0" style="stop-color:#EADCD4"/>
		<stop  offset="1" style="stop-color:#C4AAA5"/>
	</linearGradient>
	<polygon class="st19" points="116.57,173.89 117.35,173.44 117.63,174.15 116.53,175.17 	"/>
	<linearGradient id="SVGID_6_" gradientUnits="userSpaceOnUse" x1="116.2032" y1="185.2236" x2="118.3874" y2="185.2236">
		<stop  offset="0" style="stop-color:#CEB5B0"/>
		<stop  offset="1" style="stop-color:#B99D95"/>
	</linearGradient>
	<polygon class="st20" points="116.84,174.61 117.63,174.15 117.78,174.85 117.78,175.5 117.78,195.84 116.99,196.3 	"/>
	<polygon class="st4" points="114.6,171.82 115.15,172.14 115.69,172.61 116.17,173.21 116.57,173.89 116.84,174.61 116.99,175.31 
		116.99,175.95 116.99,196.3 112.77,193.86 112.77,173.52 112.77,173.19 112.77,172.87 112.84,172.61 112.91,172.34 113.05,172.14 
		113.19,171.94 113.58,171.72 114.06,171.67 	"/>
	<linearGradient id="SVGID_7_" gradientUnits="userSpaceOnUse" x1="116.2157" y1="197.0861" x2="116.2157" y2="187.2089">
		<stop  offset="0" style="stop-color:#CEB5B0"/>
		<stop  offset="1" style="stop-color:#B99D95"/>
	</linearGradient>
	<polygon class="st21" points="116.99,194.85 116.98,196.3 115.45,194.63 115.98,191.33 	"/>
	<g>
		<polygon class="st3" points="116.99,195.53 101.65,199.51 101.65,200.28 105.87,202.71 		"/>
		<polygon class="st2" points="105.87,201.95 116.99,195.53 116.99,196.3 105.87,202.71 		"/>
		<polygon class="st0" points="105.87,201.95 101.65,199.51 112.77,193.1 116.99,195.53 		"/>
		<g>
			<path class="st2" d="M115.35,195.13l0.35,0.2h-0.39L115.35,195.13L115.35,195.13z M116.04,195.53l-0.24,0.33l-0.87,0.5
				l-3.23-1.86l-1.02,0.61l3.21,1.85l-3.42,1.97l-3.15-1.82l-1.02,0.61l3.13,1.81l-0.56,0.32l-2.27,0.83h-1.64l-0.13,0.69h1.79
				l2.89-1.05l7.32-4.22l0.08-0.04L116.04,195.53z"/>
			<polygon class="st2" points="107.28,201.13 116.99,195.53 116.99,196.01 116.86,196.09 109.54,200.31 			"/>
			<polygon class="st2" points="104.86,201.37 104.86,201.37 104.99,200.67 106.62,200.67 108.89,199.85 109.45,199.52 
				105.54,197.27 106.58,196.67 110.48,198.93 113.9,196.95 109.99,194.7 111.03,194.1 114.93,196.36 115.8,195.85 116.18,195.33 
				115.31,195.33 115.43,194.64 115.45,194.64 116.99,195.53 107.28,201.13 106.65,201.37 			"/>
		</g>
		<g>
			<polygon class="st0" points="110.44,196.17 111.28,195.68 102.16,190.42 101.32,190.9 102.55,192.15 			"/>
			<polygon class="st2" points="102.16,187.13 102.16,190.42 101.32,190.9 100.94,187.12 103.61,186.3 			"/>
			<g>
				<polygon class="st2" points="101.68,190.9 101.5,190.8 101.5,190.41 101.5,189.04 102.16,189.04 102.16,190.41 103.01,190.9 
									"/>
				<polygon class="st2" points="103.01,190.9 102.16,190.42 101.32,190.9 				"/>
				<polygon class="st2" points="102.16,189.04 102.16,190.42 101.32,190.9 101.32,189.04 				"/>
			</g>
			<polygon class="st0" points="111.62,191.13 112.27,191.07 112.46,190.64 103.34,185.38 102.5,185.86 104.82,187.6 			"/>
			<polygon class="st3" points="100.99,191.47 100.66,191.28 100.66,190.9 100.66,187.08 100.66,186.92 100.76,186.87 102.4,185.92 
				102.5,185.86 102.63,185.94 111.62,191.13 111.62,191.9 102.77,186.79 101.32,187.62 101.32,190.9 108.95,195.31 108.28,195.69 
							"/>
		</g>
		<g>
			<polygon class="st0" points="105.99,198.74 106.83,198.25 97.71,192.98 96.87,193.47 98.1,194.72 			"/>
			<polygon class="st2" points="97.71,189.7 97.71,192.98 96.87,193.47 96.48,189.68 99.16,188.87 			"/>
			<g>
				<polygon class="st2" points="97.23,193.47 97.05,193.37 97.05,192.98 97.05,191.61 97.71,191.61 97.71,192.98 98.55,193.47 				
					"/>
				<polygon class="st2" points="98.55,193.47 97.71,192.98 96.87,193.47 				"/>
				<polygon class="st2" points="97.71,191.61 97.71,192.98 96.87,193.47 96.87,191.61 				"/>
			</g>
			<polygon class="st0" points="107.16,193.7 107.74,193.72 108,193.21 98.88,187.95 98.04,188.43 100.37,190.17 			"/>
			<polygon class="st3" points="96.54,194.04 96.21,193.85 96.21,193.47 96.21,189.65 96.21,189.49 96.31,189.44 97.94,188.49 
				98.04,188.43 98.18,188.51 107.16,193.7 107.17,194.46 98.31,189.36 96.87,190.19 96.87,193.47 104.49,197.87 103.83,198.25 			
				"/>
		</g>
		<polygon class="st2" points="104.86,201.37 104.86,197.77 106.69,194.59 114,190.37 114.14,190.29 114.23,190.35 115.87,191.3 
			115.97,191.35 115.97,191.51 115.97,194.95 115.31,195.33 115.31,192.05 113.86,191.22 106.96,195.2 105.52,197.7 105.52,200.98 
					"/>
		<polygon class="st2" points="104.86,201.37 104.86,197.77 106.69,194.59 114,190.37 114.14,190.29 114.23,190.35 115.87,191.3 
			115.97,191.35 115.97,191.51 115.97,194.95 115.31,195.33 115.31,192.05 113.86,191.22 106.96,195.2 105.52,197.7 105.52,200.98 
					"/>
		<polygon class="st3" points="104.32,197.46 104.86,197.77 104.86,202.04 104.32,201.73 		"/>
		
			<rect x="103.67" y="195.72" transform="matrix(0.5003 -0.8659 0.8659 0.5003 -117.0059 189.3106)" class="st0" width="3.67" height="0.62"/>
		<polygon class="st0" points="113.6,189.98 114.14,190.29 106.69,194.59 106.16,194.28 		"/>
		<polygon class="st0" points="114.78,195.02 115.31,195.33 115.31,192.05 114.78,191.74 		"/>
		<polygon class="st2" points="115.31,194.46 115.63,191.68 114.78,191.74 		"/>
	</g>
	<polygon class="st2" points="132.99,146.14 143.24,152.06 148.85,163.73 145.29,165.78 135.77,156.37 131.91,155.66 122.12,144.15 
			"/>
	<polygon class="st22" points="98.87,49.55 75.92,9.78 34.34,34.06 49.57,66.62 57.3,73.83 76,66.49 	"/>
	<polygon class="st23" points="92.4,47.99 74.05,16.21 40.82,35.61 59.17,67.4 	"/>
	<g>
		<polygon class="st3" points="117.04,147.08 131.91,155.66 143.49,128.44 123.55,122.79 		"/>
		<polygon class="st2" points="136.98,152.73 131.91,155.66 138.41,131.38 143.49,128.44 		"/>
		<polygon class="st0" points="128.63,119.86 123.55,122.79 133.66,128.63 138.41,131.38 143.49,128.44 		"/>
		<polygon class="st2" points="128.63,119.86 137.82,129.57 140.65,130.08 143.49,128.44 		"/>
		<polygon class="st24" points="126.72,98.11 129.27,96.65 155.12,111.57 152.57,113.04 148.35,112.07 		"/>
		<polygon class="st25" points="126.72,98.11 129.27,96.65 149.11,108.1 146.57,109.57 142.35,108.6 		"/>
		<polygon class="st25" points="152.58,117.63 155.12,116.24 155.12,111.57 152.58,112.96 150.38,114 		"/>
		<polygon class="st25" points="137.82,129.57 140.37,128.1 145.09,110.46 137.93,110.6 		"/>
		<path class="st26" d="M126.72,98.11l25.85,14.92v4.67l-10.02-5.79l-4.73,17.65c-3.72-2.14-7.43-4.29-11.15-6.44l4.73-17.65
			l-4.68-2.7V98.11z"/>
		<polygon class="st25" points="126.72,98.11 146.57,109.57 147.37,113.24 147.53,114.79 142.55,111.92 138.92,125.49 
			130.42,109.16 131.4,105.49 127.26,103.1 126.72,102.06 		"/>
		<polygon class="st3" points="135.33,107.98 131.43,105.73 124.07,92.5 120.13,89.61 118.7,88.18 118.09,86.86 118.09,84.2 
			119.39,85.11 122.66,85.96 126.85,88.82 132.86,98.36 135.96,99.66 140.13,103.64 140.13,107.41 		"/>
		<polygon class="st27" points="135.33,99.4 135.96,99.66 140.13,103.64 142.22,103.7 140.13,107.41 135.33,107.98 		"/>
		<polygon class="st2" points="153.59,95.86 153.59,99.63 152.45,102.13 144.45,106.75 140.13,107.41 140.13,103.64 141.29,100.48 
			149.3,95.86 		"/>
		<polygon class="st0" points="119.01,83.67 119.93,83.14 122.2,83.49 124.69,84.32 129.7,86.59 148.77,90.84 152.67,93.09 
			153.59,95.86 152.45,98.36 148.45,100.67 144.45,102.98 140.13,103.64 135.33,103.11 131.43,100.85 124.07,89.84 120.13,86.95 
			118.7,85.51 118.09,84.2 		"/>
	</g>
	<polygon class="st24" points="98.87,49.55 106.68,54.05 70.72,77.89 65.1,78.33 61.71,78.2 57.3,73.83 	"/>
	<polygon class="st25" points="106.79,58.63 106.68,54.05 65.1,78.33 63.45,79.73 65.1,82.7 	"/>
	<polygon class="st26" points="34.34,34.06 57.3,73.83 65.1,78.33 65.1,82.7 56.51,77.74 55.73,77.29 55.18,76.33 31.67,35.61 	"/>
	<polygon class="st2" points="90.12,67.47 90.36,66.6 90.36,59 94.14,61.19 94.14,69.34 91.45,79.36 81.76,84.96 82.88,74.41 
		82.88,63.29 	"/>
	<polygon class="st2" points="80.43,73.07 80.66,72.2 80.66,64.6 84.45,66.78 84.45,74.93 81.76,84.96 73.18,80 73.18,68.89 	"/>
	<g>
		<polygon class="st0" points="29.84,39.7 33.62,37.52 37.31,38.76 32.98,46.57 		"/>
		<polygon class="st1" points="34.91,59.68 40.74,59.49 47.25,70.77 43.29,75.4 38.11,68.04 		"/>
		<polygon class="st2" points="33.53,40.94 37.31,38.76 40.74,59.49 42.05,61.76 36.96,61.67 32.32,49.13 		"/>
		<polygon class="st0" points="43.47,72.95 47.25,70.77 62.4,79.51 58.61,81.7 54.53,81.95 		"/>
		<polygon class="st2" points="58.61,81.7 62.4,79.51 62.4,83.88 58.61,86.06 55.43,81.9 		"/>
		<polygon class="st3" points="33.53,40.94 36.96,61.67 43.47,72.95 58.61,81.7 58.61,86.06 42.69,76.87 41.9,76.41 41.35,75.46 
			33.89,62.54 33.5,61.86 33.38,61.14 29.84,39.7 		"/>
	</g>
	<polygon class="st0" points="54.83,79.51 58.61,81.7 106.79,56.44 119.97,46.27 116.19,44.09 	"/>
	<polygon class="st2" points="58.61,86.06 58.61,81.7 119.97,46.27 119.97,50.64 	"/>
	<polygon class="st2" points="100.52,150.26 113.02,143.04 113.57,142.87 101.07,150.09 100.78,150.43 	"/>
</g>
</svg>
