<?xml version="1.0" encoding="utf-8"?>
<!-- Generator: Adobe Illustrator 25.3.1, SVG Export Plug-In . SVG Version: 6.00 Build 0)  -->
<svg version="1.1" id="圖層_1" xmlns="http://www.w3.org/2000/svg" xmlns:xlink="http://www.w3.org/1999/xlink" x="0px" y="0px"
	 viewBox="0 0 240 240" style="enable-background:new 0 0 240 240;" xml:space="preserve">
<style type="text/css">
	.st0{opacity:0.3;fill-rule:evenodd;clip-rule:evenodd;}
	.st1{fill-rule:evenodd;clip-rule:evenodd;fill:#D7A381;}
	.st2{fill-rule:evenodd;clip-rule:evenodd;fill:#96636E;}
	.st3{fill-rule:evenodd;clip-rule:evenodd;fill:#6B3D56;}
	.st4{fill-rule:evenodd;clip-rule:evenodd;fill:#FBF6EB;}
	.st5{fill-rule:evenodd;clip-rule:evenodd;fill:url(#SVGID_1_);}
	.st6{fill-rule:evenodd;clip-rule:evenodd;fill:#FDFBF6;}
	.st7{fill-rule:evenodd;clip-rule:evenodd;fill:url(#SVGID_2_);}
	.st8{fill-rule:evenodd;clip-rule:evenodd;fill:url(#SVGID_3_);}
	.st9{fill-rule:evenodd;clip-rule:evenodd;fill:url(#SVGID_4_);}
	.st10{fill-rule:evenodd;clip-rule:evenodd;fill:#844F61;}
	.st11{fill-rule:evenodd;clip-rule:evenodd;fill:#474335;}
	.st12{fill-rule:evenodd;clip-rule:evenodd;fill:url(#SVGID_5_);}
	.st13{fill-rule:evenodd;clip-rule:evenodd;fill:#8C5967;}
	.st14{fill-rule:evenodd;clip-rule:evenodd;fill:url(#SVGID_6_);}
	.st15{fill-rule:evenodd;clip-rule:evenodd;fill:#D6BCA4;}
	.st16{fill-rule:evenodd;clip-rule:evenodd;fill:#855163;}
	.st17{fill-rule:evenodd;clip-rule:evenodd;fill:#996E7A;}
</style>
<g>
	<path class="st0" d="M226.7,190.44l-51.56-29.77l21.77-12.57l-36.41-21.03l-0.01-3.35l-6.93-3l-12.64,4.17l-30.71-8.87H94.95
		l-2.51,1.45l9.54,5.51h15.24l18.16,4.89l-8.52,4.92l-12.48-7.21h-5.48l14.23,9.36l-6.54,3.78l-13.19-7.39l-39.83,23l-13.14-3.79
		H35.18L32.66,152l9.54,5.51h15.24l0.43,0.12l-4.1,2.37h-4.46l2.08,1.37l-1.88,1.08L73.2,175.7l87.11,57.3h1.78l7.73-4.47l-2.71-3.7
		l-2.35-1.36l49.5-28.58l5.63,3.7h1.78l7.73-4.47L226.7,190.44L226.7,190.44z M168.26,164.64l30.86,20.3l-33.52-18.77L168.26,164.64
		z"/>
	<g>
		<polygon class="st1" points="54.96,160.08 50.69,156.38 28.47,143.55 20.85,143.55 10.59,149.47 39.22,165.99 44.7,165.99 		"/>
		<polygon class="st2" points="38.37,53 86.39,7 81.18,7.46 40.88,30.73 		"/>
		<polygon class="st3" points="109.06,125.68 111.57,124.22 111.57,113.28 108.92,113.89 109.05,114.73 		"/>
		<polygon class="st4" points="221.22,179.49 101.31,119.18 101.31,130.14 209.58,189.68 213.87,195.13 219.89,198.6 227.62,190.58 
					"/>
		<linearGradient id="SVGID_1_" gradientUnits="userSpaceOnUse" x1="205.4954" y1="198.3499" x2="215.1937" y2="184.4993">
			<stop  offset="0" style="stop-color:#D7A381"/>
			<stop  offset="1" style="stop-color:#D2B59E"/>
		</linearGradient>
		<polygon class="st5" points="205.16,190.1 213.87,195.13 212.18,187.38 		"/>
		<polygon class="st6" points="213.49,183.95 101.31,119.18 109.04,114.72 221.22,179.49 		"/>
		<linearGradient id="SVGID_2_" gradientUnits="userSpaceOnUse" x1="137.3604" y1="139.5702" x2="135.3457" y2="143.0598">
			<stop  offset="0" style="stop-color:#EAD9C3"/>
			<stop  offset="1" style="stop-color:#6B3D56"/>
		</linearGradient>
		<polygon class="st7" points="161.92,154.18 161.17,152.03 113.64,126.31 114.13,128.55 106.34,133.04 154.62,160.92 
			162.41,156.42 		"/>
		<linearGradient id="SVGID_3_" gradientUnits="userSpaceOnUse" x1="157.1092" y1="115.9325" x2="92.8268" y2="207.7374">
			<stop  offset="0" style="stop-color:#EFE1CD"/>
			<stop  offset="1" style="stop-color:#D2B59E"/>
		</linearGradient>
		<polygon class="st8" points="161.92,154.18 113.64,126.31 121.38,121.84 169.66,149.71 		"/>
		
			<rect x="216.09" y="180.86" transform="matrix(0.8661 -0.4998 0.4998 0.8661 -64.0711 135.3016)" class="st4" width="8.93" height="12.8"/>
		<linearGradient id="SVGID_4_" gradientUnits="userSpaceOnUse" x1="216.3216" y1="181.1776" x2="225.6047" y2="197.9248">
			<stop  offset="0" style="stop-color:#EFE1CD"/>
			<stop  offset="1" style="stop-color:#D2B59E"/>
		</linearGradient>
		<polygon class="st9" points="219.89,198.6 219.89,195.04 227.62,190.58 227.62,194.13 		"/>
		<polygon class="st10" points="105.17,105.29 72.69,98.37 72.69,113.62 101.32,130.14 101.32,119.19 		"/>
		<polygon class="st3" points="89.43,101.93 72.69,98.37 72.69,113.62 94.76,126.36 		"/>
		<polygon class="st2" points="94.92,111.2 105.17,105.29 82.94,92.46 72.69,98.37 		"/>
		<polygon class="st3" points="91.03,108.96 101.28,103.05 82.94,92.46 72.69,98.37 		"/>
		<polygon class="st3" points="100.89,107.75 103.95,106.82 105.17,105.29 97.43,100.82 87.27,100.82 84.81,102.24 94.36,107.75 		
			"/>
		<polygon class="st3" points="160.33,220.21 160.33,217.31 183.82,199.31 212.18,187.38 212.18,190.27 		"/>
		<polygon class="st11" points="158.41,213.98 28.59,139.03 26.67,140.14 26.67,143.04 28.59,146.36 158.41,221.32 160.33,220.21 
			160.33,217.31 		"/>
		<linearGradient id="SVGID_5_" gradientUnits="userSpaceOnUse" x1="191.4738" y1="211.3758" x2="177.176" y2="186.6114">
			<stop  offset="0" style="stop-color:#844F61"/>
			<stop  offset="1" style="stop-color:#8C5967"/>
		</linearGradient>
		<polygon class="st12" points="158.41,213.98 160.33,217.31 212.18,187.38 210.26,184.05 182.36,194.33 		"/>
		<polygon class="st2" points="158.41,213.98 28.59,139.03 80.44,109.1 210.26,184.05 		"/>
		<polygon class="st3" points="45.01,148.51 32.96,141.55 45.92,141.55 81.73,151.89 81.73,150.6 95.25,139.45 114.13,128.55 
			162.41,156.42 125.09,177.97 123.72,177.97 103.58,167.56 85.98,157.4 52.95,148.51 		"/>
		<polygon class="st3" points="35.22,138.56 20.85,130.27 72.69,100.33 87.06,108.63 63.77,125.79 		"/>
		<polygon class="st13" points="35.22,138.56 48.83,142.39 93.46,116.62 87.06,108.63 63.77,125.79 		"/>
		<polygon class="st3" points="35.22,138.56 44.22,142.96 92.32,115.19 87.06,108.63 		"/>
		<polygon class="st3" points="35.22,138.56 32.97,137.27 37.46,137.27 48.83,142.39 45.52,144.3 		"/>
		<polygon class="st4" points="161.64,213.88 41.58,153.5 41.58,164.45 160.31,233 168.04,224.98 		"/>
		<polygon class="st6" points="153.91,218.35 41.58,153.5 49.31,149.03 161.64,213.88 		"/>
		
			<rect x="156.51" y="215.26" transform="matrix(0.8661 -0.4999 0.4999 0.8661 -89.2516 110.1539)" class="st4" width="8.93" height="12.81"/>
		<linearGradient id="SVGID_6_" gradientUnits="userSpaceOnUse" x1="156.74" y1="215.5771" x2="166.0228" y2="232.3237">
			<stop  offset="0" style="stop-color:#EFE1CD"/>
			<stop  offset="1" style="stop-color:#D2B59E"/>
		</linearGradient>
		<polygon class="st14" points="160.31,233 160.31,229.44 168.04,224.98 168.04,228.53 		"/>
		<polygon class="st10" points="43.07,141.14 10.6,134.22 10.6,149.47 39.22,165.99 39.22,155.04 		"/>
		<polygon class="st3" points="27.33,137.79 10.6,134.22 10.6,149.47 32.67,162.21 		"/>
		<polygon class="st3" points="39.22,165.99 41.74,164.54 41.74,153.59 39.22,155.04 		"/>
		<polygon class="st13" points="32.82,147.05 43.07,141.14 49.47,149.13 39.22,155.04 		"/>
		<polygon class="st2" points="32.82,147.05 43.07,141.14 20.85,128.31 10.6,134.23 		"/>
		<polygon class="st3" points="28.94,144.81 39.19,138.9 20.85,128.31 10.6,134.23 		"/>
		<polygon class="st3" points="43.07,141.14 33.01,135.33 27.5,135.33 25.03,136.75 34.58,142.27 41.12,142.27 45.02,143.57 		"/>
		<polygon class="st15" points="34.58,142.27 37.09,140.81 37.09,110.33 56.86,76.4 54.35,77.86 33.36,111.78 		"/>
		<polygon class="st4" points="25.03,106.27 25.03,136.76 34.58,142.27 34.58,111.78 54.35,77.86 47.7,74.02 		"/>
		<polygon class="st15" points="25.03,106.27 25.03,136.76 33.72,141.77 25.74,105.26 		"/>
		<polygon class="st15" points="49.95,85.4 54.35,77.86 47.7,74.02 44.2,79.01 45.73,82.96 		"/>
		<polygon class="st4" points="84.81,71.76 86.78,103.38 94.35,107.75 94.35,77.26 115.39,41.17 108.93,37.44 		"/>
		<polygon class="st15" points="84.81,71.76 84.81,102.24 93.5,107.26 85.52,70.75 		"/>
		<polygon class="st15" points="94.36,107.75 96.87,106.3 96.87,75.82 94.35,77.26 		"/>
		<polygon class="st15" points="97.66,38.42 98.15,41.4 102.82,62.77 114.14,43.37 111.62,31.86 104.97,28.02 		"/>
		<polygon class="st15" points="115.39,41.17 117.91,39.72 96.87,75.82 95.83,79.22 94.35,77.26 		"/>
		<polygon class="st3" points="66.61,76.2 93.57,50.5 125.8,42.02 125.8,48.97 66.61,83.15 		"/>
		<polygon class="st10" points="147.9,50.1 125.8,42.02 125.8,48.97 143.84,55.17 		"/>
		<polygon class="st2" points="143.84,52.44 147.9,50.1 129.86,39.68 124.68,38.37 125.8,42.02 		"/>
		<polygon class="st3" points="143.84,52.44 147.9,50.1 147.9,52.82 143.84,55.17 		"/>
		<polygon class="st3" points="125.8,42.02 124,46.79 125.8,48.97 128.91,50.04 		"/>
		<polygon class="st13" points="94.92,111.2 105.17,105.29 111.57,113.27 101.32,119.19 		"/>
		<polygon class="st3" points="105.17,105.29 109.44,110.61 100.89,107.76 		"/>
		<polygon class="st2" points="44.16,67.93 46.09,30.27 40.88,30.73 33.16,53.46 		"/>
		<polygon class="st16" points="38.37,53 40.9,59.52 44.16,67.94 82.64,53.92 111.48,29.07 108.22,20.66 105.69,14.14 86.39,7 
			46.09,30.27 		"/>
		<polygon class="st2" points="62.54,78.55 44.16,67.94 111.48,29.07 129.86,39.68 		"/>
		<path class="st17" d="M53.19,35.73c2.58,6.66,5.17,13.32,7.75,19.98l32.15-18.56l-6.53-16.82l-1.22-3.16L53.19,35.73z"/>
		<path class="st16" d="M64.53,69.34l-0.7,0.23l-0.7,0.23h-1.62l-0.7-0.23l-0.7-0.23l-0.4-0.41l-0.41-0.4v-0.93l0.41-0.4l0.4-0.41
			l0.7-0.23l0.7-0.23h1.62l0.7,0.23l0.7,0.23l0.4,0.41l0.41,0.4v0.93l-0.41,0.4L64.53,69.34L64.53,69.34L64.53,69.34z M72.77,64.59
			l-0.7,0.23l-0.7,0.23h-1.62l-0.7-0.23l-0.7-0.23l-0.4-0.4l-0.4-0.4v-0.94l0.4-0.4l0.4-0.41l0.7-0.23l0.7-0.23h1.62l0.7,0.23
			l0.7,0.23l0.4,0.41l0.41,0.4v0.94l-0.4,0.4L72.77,64.59L72.77,64.59L72.77,64.59z M80.99,59.84l-0.7,0.23l-0.7,0.23h-1.62
			l-0.7-0.23l-0.7-0.23l-0.4-0.4l-0.4-0.4v-0.94l0.4-0.4l0.4-0.41l0.7-0.23l0.7-0.23h1.62l0.7,0.23l0.7,0.23l0.41,0.41l0.4,0.4v0.94
			l-0.4,0.4L80.99,59.84L80.99,59.84L80.99,59.84z M97.46,50.34l-0.7,0.23l-0.7,0.23h-1.62l-0.7-0.23l-0.7-0.23l-0.4-0.41l-0.4-0.4
			v-0.93l0.4-0.4l0.4-0.41l0.7-0.23l0.7-0.23h1.62l0.7,0.23l0.7,0.23l0.4,0.41l0.41,0.4v0.93l-0.4,0.4L97.46,50.34L97.46,50.34
			L97.46,50.34z M105.68,45.58l-0.7,0.23l-0.7,0.23h-1.62l-0.7-0.23l-0.7-0.23l-0.4-0.41l-0.4-0.4v-0.94l0.4-0.4l0.4-0.4l0.7-0.23
			l0.7-0.23h1.62l0.7,0.23l0.7,0.23l0.4,0.4l0.41,0.4v0.94l-0.4,0.4L105.68,45.58L105.68,45.58L105.68,45.58z M113.92,40.83
			l-0.7,0.23l-0.7,0.23h-1.62l-0.7-0.23l-0.7-0.23l-0.41-0.4l-0.4-0.4v-0.94l0.4-0.4l0.41-0.4l0.7-0.23l0.7-0.23h1.62l0.7,0.23
			l0.7,0.23l0.4,0.4l0.41,0.4v0.94l-0.41,0.4L113.92,40.83z"/>
		<polygon class="st10" points="84.64,86.62 63.14,77.36 44.17,67.93 38.37,53 33.16,53.46 40.69,72.87 62.54,85.49 80.58,91.69 		
			"/>
		<polygon class="st2" points="80.58,88.96 84.64,86.62 48.23,65.59 44.16,67.93 		"/>
		<polygon class="st3" points="80.58,88.96 84.64,86.62 84.64,89.34 80.58,91.69 		"/>
	</g>
</g>
</svg>
