<?xml version="1.0" encoding="utf-8"?>
<!-- Generator: Adobe Illustrator 25.3.1, SVG Export Plug-In . SVG Version: 6.00 Build 0)  -->
<svg version="1.1" id="圖層_1" xmlns="http://www.w3.org/2000/svg" xmlns:xlink="http://www.w3.org/1999/xlink" x="0px" y="0px"
	 viewBox="0 0 240 240" style="enable-background:new 0 0 240 240;" xml:space="preserve">
<style type="text/css">
	.st0{fill:#DFD5D6;}
	.st1{fill:#E1D8D9;}
	.st2{fill:#E3DADB;}
	.st3{fill:#E4E0DF;}
	.st4{fill:#E6E2E1;}
	.st5{fill:#E5E4E2;}
	.st6{fill:#E8E7E5;}
	.st7{fill:#DCD2D1;}
	.st8{fill:#E1D7D8;}
	.st9{fill:#DBCFD3;}
	.st10{fill:#DED1DA;}
	.st11{fill:#E4E0E1;}
	.st12{fill:#DBCFD1;}
	.st13{fill:#D8CCD0;}
	.st14{fill:#DFD4D8;}
	.st15{fill:#D8C7CD;}
	.st16{fill:#DED5D6;}
	.st17{fill:#D2C5CF;}
	.st18{fill:#E0D5D9;}
	.st19{fill:#CEC0CF;}
	.st20{fill:#E2D7DB;}
	.st21{fill:#D6C9D2;}
	.st22{fill:#DED8DA;}
	.st23{fill:#DED4D3;}
	.st24{fill:#D9CDD1;}
	.st25{fill:#DCD0D4;}
	.st26{fill:#DCCFD6;}
	.st27{fill:#D8CCCE;}
	.st28{fill:#D7C6CE;}
	.st29{fill:#D7CBCF;}
	.st30{fill:#DED1D8;}
	.st31{fill:#D8C9D0;}
	.st32{fill:#CEC1CA;}
	.st33{fill:#D7C8CF;}
	.st34{fill:#DDD0D7;}
	.st35{fill:#CBBEC8;}
	.st36{fill:#CFC2CB;}
	.st37{fill:#CCBFC9;}
	.st38{fill:#CEC1CB;}
	.st39{fill:#D8C7CF;}
	.st40{fill:#C7BBC7;}
	.st41{fill:#DBCBCE;}
	.st42{fill:url(#SVGID_1_);}
	.st43{fill:url(#SVGID_2_);}
	.st44{fill:#CABECC;}
	.st45{fill:#D7C4CA;}
	.st46{fill:url(#SVGID_3_);}
	.st47{fill:url(#SVGID_4_);}
	.st48{fill:#CBBDCA;}
	.st49{fill:#D1C0CA;}
	.st50{fill:url(#SVGID_5_);}
	.st51{fill:url(#SVGID_6_);}
	.st52{fill:#E2DCDE;}
	.st53{fill:#E6E5E3;}
	.st54{fill:#9E9E9E;}
	.st55{fill:#AD8E76;}
	.st56{fill:#8C8C8C;}
	.st57{fill:#BA9E86;}
	.st58{fill:#DEDEDE;}
	.st59{fill:#B8B8B8;}
	.st60{fill:#C1C1C1;}
	.st61{fill:#AAA9A9;}
	.st62{fill:#504C5C;}
	.st63{fill:#474454;}
	.st64{opacity:0.3;fill:url(#SVGID_7_);}
</style>
<g>
	<g>
		<polygon class="st0" points="192.53,100.24 201.47,98.91 208.47,96.23 214.12,91.95 215.72,86.74 214.25,81.84 209.28,77.4 
			201.79,74.35 192.53,73.31 183.28,74.35 175.79,77.4 170.81,81.84 169.34,86.74 170.95,91.95 176.59,96.23 183.6,98.91 		"/>
		<polygon class="st1" points="214.25,81.84 217.97,82.69 212.11,77.58 209.28,77.4 		"/>
		<polygon class="st2" points="170.81,81.84 167.1,82.69 172.95,77.58 175.79,77.4 		"/>
		<polygon class="st3" points="212.11,77.58 203.21,74.1 201.79,74.35 209.28,77.4 		"/>
		<polygon class="st4" points="172.95,77.58 181.86,74.1 183.28,74.35 175.79,77.4 		"/>
		<polygon class="st5" points="192.53,73.31 192.53,72.89 203.21,74.1 201.79,74.35 		"/>
		<polygon class="st6" points="192.53,73.31 192.53,72.89 181.86,74.1 183.28,74.35 		"/>
		<polygon class="st7" points="217.97,82.69 219.8,88.61 215.72,86.74 214.25,81.84 		"/>
		<polygon class="st8" points="167.1,82.69 165.27,88.61 169.34,86.74 170.81,81.84 		"/>
		<polygon class="st9" points="217.97,82.69 220.82,84.62 223.04,91.2 219.8,88.61 		"/>
		<polygon class="st1" points="167.1,82.69 164.25,84.62 162.03,91.2 165.27,88.61 		"/>
		<polygon class="st10" points="220.82,84.62 222.56,87.11 224.99,94.25 223.04,91.2 		"/>
		<polygon class="st11" points="164.25,84.62 162.51,87.11 160.08,94.25 162.03,91.2 		"/>
		<polygon class="st12" points="219.8,88.61 218.12,94.84 214.12,91.95 215.72,86.74 		"/>
		<polygon class="st0" points="165.27,88.61 166.95,94.84 170.95,91.95 169.34,86.74 		"/>
		<polygon class="st13" points="219.8,88.61 223.04,91.2 220.6,97.84 218.12,94.84 		"/>
		<polygon class="st14" points="165.27,88.61 162.03,91.2 164.46,97.84 166.95,94.84 		"/>
		<polygon class="st15" points="223.04,91.2 224.99,94.25 222.53,101.42 220.6,97.84 		"/>
		<polygon class="st16" points="162.03,91.2 160.08,94.25 162.54,101.42 164.46,97.84 		"/>
		<polygon class="st17" points="222.53,101.42 223.09,104.77 225.71,97.62 224.99,94.25 		"/>
		<polygon class="st18" points="162.54,101.42 161.98,104.77 159.35,97.62 160.08,94.25 		"/>
		<polygon class="st19" points="223.09,130.55 222.53,133.87 225.1,126.48 225.66,123.41 		"/>
		<polygon class="st20" points="161.98,130.55 162.54,133.87 159.97,126.48 159.41,123.41 		"/>
		<polygon class="st21" points="223.09,104.77 223.09,130.55 225.66,123.41 225.71,97.62 		"/>
		<polygon class="st22" points="161.98,104.77 161.98,130.55 159.41,123.41 159.35,97.62 		"/>
		<polygon class="st9" points="208.47,96.23 211.57,100.06 218.12,94.84 214.12,91.95 		"/>
		<polygon class="st23" points="176.59,96.23 173.49,100.06 166.95,94.84 170.95,91.95 		"/>
		<polygon class="st24" points="208.47,96.23 201.47,98.91 202.76,103.4 211.57,100.06 		"/>
		<polygon class="st14" points="176.59,96.23 183.6,98.91 182.31,103.4 173.49,100.06 		"/>
		<polygon class="st25" points="201.47,98.91 192.53,100.24 192.53,104.73 202.76,103.4 		"/>
		<polygon class="st26" points="183.6,98.91 192.53,100.24 192.53,104.73 182.31,103.4 		"/>
		<polygon class="st13" points="192.53,104.73 192.53,108.91 204.07,107.5 202.76,103.4 		"/>
		<polygon class="st9" points="192.53,104.73 192.53,108.91 181,107.5 182.31,103.4 		"/>
		<polygon class="st27" points="192.53,108.91 192.53,112.88 204.91,111.51 204.07,107.5 		"/>
		<polygon class="st13" points="192.53,108.91 192.53,112.88 180.15,111.51 181,107.5 		"/>
		<polygon class="st28" points="192.53,112.88 192.53,116.73 205.15,115.12 204.91,111.51 		"/>
		<polygon class="st13" points="192.53,112.88 192.53,116.73 179.91,115.12 180.15,111.51 		"/>
		<polygon class="st29" points="204.07,107.5 213.82,103.61 211.57,100.06 202.76,103.4 		"/>
		<polygon class="st30" points="181,107.5 171.25,103.61 173.49,100.06 182.31,103.4 		"/>
		<polygon class="st31" points="204.07,107.5 204.91,111.51 215.34,107.54 213.82,103.61 		"/>
		<polygon class="st25" points="181,107.5 180.15,111.51 169.72,107.54 171.25,103.61 		"/>
		<polygon class="st32" points="204.91,111.51 205.15,115.12 215.82,110.99 215.34,107.54 		"/>
		<polygon class="st9" points="180.15,111.51 179.91,115.12 169.24,110.99 169.72,107.54 		"/>
		<polygon class="st29" points="213.82,103.61 220.6,97.84 218.12,94.84 211.57,100.06 		"/>
		<polygon class="st25" points="171.25,103.61 164.46,97.84 166.95,94.84 173.49,100.06 		"/>
		<polygon class="st33" points="220.6,97.84 213.82,103.61 215.34,107.54 222.53,101.42 		"/>
		<polygon class="st34" points="164.46,97.84 171.25,103.61 169.72,107.54 162.54,101.42 		"/>
		<polygon class="st35" points="215.34,107.54 222.53,101.42 223.09,104.77 215.82,110.99 		"/>
		<polygon class="st9" points="169.72,107.54 162.54,101.42 161.98,104.77 169.24,110.99 		"/>
		<polygon class="st36" points="215.82,110.99 223.09,104.77 223.09,130.55 215.82,136.78 		"/>
		<polygon class="st25" points="169.24,110.99 161.98,104.77 161.98,130.55 169.24,136.78 		"/>
		<polygon class="st37" points="215.82,110.99 205.15,115.12 205.15,140.91 215.82,136.78 		"/>
		<polygon class="st24" points="169.24,110.99 179.91,115.12 179.91,140.91 169.24,136.78 		"/>
		<polygon class="st38" points="192.53,116.73 205.15,115.12 205.15,140.91 192.53,142.51 		"/>
		<polygon class="st39" points="192.53,116.73 179.91,115.12 179.91,140.91 192.53,142.51 		"/>
		<polygon class="st40" points="215.82,136.78 215.38,139.96 222.53,133.87 223.09,130.55 		"/>
		<polygon class="st41" points="169.24,136.78 169.68,139.96 162.54,133.87 161.98,130.55 		"/>
		
			<linearGradient id="SVGID_1_" gradientUnits="userSpaceOnUse" x1="14067.5664" y1="-14050.498" x2="14087.7686" y2="-14081.3311" gradientTransform="matrix(0.0283 0 0 -0.0283 -180.1309 -259.9699)">
			<stop  offset="0" style="stop-color:#C8BBCD"/>
			<stop  offset="1" style="stop-color:#A2A2BC"/>
		</linearGradient>
		<polygon class="st42" points="215.38,139.96 213.98,142.29 220.88,136.35 222.53,133.87 		"/>
		
			<linearGradient id="SVGID_2_" gradientUnits="userSpaceOnUse" x1="12251.0254" y1="-14051.6328" x2="12291.2188" y2="-14102.9131" gradientTransform="matrix(0.0283 0 0 -0.0283 -180.1309 -259.9699)">
			<stop  offset="0" style="stop-color:#DECDD3"/>
			<stop  offset="1" style="stop-color:#A2A2BC"/>
		</linearGradient>
		<polygon class="st43" points="169.68,139.96 171.09,142.29 164.19,136.35 162.54,133.87 		"/>
		<polygon class="st44" points="205.15,140.91 204.87,143.97 215.38,139.96 215.82,136.78 		"/>
		<polygon class="st45" points="179.91,140.91 180.2,143.97 169.68,139.96 169.24,136.78 		"/>
		
			<linearGradient id="SVGID_3_" gradientUnits="userSpaceOnUse" x1="13764.4111" y1="-14214.2666" x2="13788.833" y2="-14268.1074" gradientTransform="matrix(0.0283 0 0 -0.0283 -180.1309 -259.9699)">
			<stop  offset="0" style="stop-color:#CABBCE"/>
			<stop  offset="1" style="stop-color:#A2A2BC"/>
		</linearGradient>
		<polygon class="st46" points="204.87,143.97 204.07,146.06 213.98,142.29 215.38,139.96 		"/>
		
			<linearGradient id="SVGID_4_" gradientUnits="userSpaceOnUse" x1="12550.6553" y1="-14203.7598" x2="12571.4854" y2="-14276.9482" gradientTransform="matrix(0.0283 0 0 -0.0283 -180.1309 -259.9699)">
			<stop  offset="0" style="stop-color:#D9C6CC"/>
			<stop  offset="1" style="stop-color:#A2A2BC"/>
		</linearGradient>
		<polygon class="st47" points="180.2,143.97 181,146.06 171.09,142.29 169.68,139.96 		"/>
		<polygon class="st48" points="205.15,140.91 192.53,142.51 192.53,145.46 204.87,143.97 		"/>
		<polygon class="st49" points="179.91,140.91 192.53,142.51 192.53,145.46 180.2,143.97 		"/>
		
			<linearGradient id="SVGID_5_" gradientUnits="userSpaceOnUse" x1="13383.7764" y1="-14301.2412" x2="13388.7188" y2="-14364.168" gradientTransform="matrix(0.0283 0 0 -0.0283 -180.1309 -259.9699)">
			<stop  offset="0" style="stop-color:#CDBFCE"/>
			<stop  offset="1" style="stop-color:#A2A2BC"/>
		</linearGradient>
		<polygon class="st50" points="192.53,145.46 192.53,147.38 204.07,146.06 204.87,143.97 		"/>
		
			<linearGradient id="SVGID_6_" gradientUnits="userSpaceOnUse" x1="12950.4756" y1="-14301.6387" x2="12955.3496" y2="-14377.6885" gradientTransform="matrix(0.0283 0 0 -0.0283 -180.1309 -259.9699)">
			<stop  offset="0" style="stop-color:#D2C0CC"/>
			<stop  offset="1" style="stop-color:#A2A2BC"/>
		</linearGradient>
		<polygon class="st51" points="192.53,145.46 192.53,147.38 181,146.06 180.2,143.97 		"/>
		<polygon class="st52" points="220.82,84.62 214.8,79.34 212.11,77.58 217.97,82.69 		"/>
		<polygon class="st53" points="164.25,84.62 170.27,79.34 172.95,77.58 167.1,82.69 		"/>
	</g>
	<g>
		<g>
			<path class="st54" d="M50.33,112.56l49.04-28.31c0.15-19.26,5.43-34.22,3.05-42.3c-1.38-2.51-17.41-13.17-24.39-12.99
				C62.32,29.23,22.1,53.99,16.92,64.4c-3.32,6.67-2.95,15.03-1.83,30.04c0.08-0.08,11.58,65.49,21.56,72.07
				C42.07,170.09,42.88,108.21,50.33,112.56z"/>
			<path class="st55" d="M43.8,183c-0.59,1.57-2.95-0.44-2.95-1.7v-24.76l5.31,3.06L43.8,183z"/>
			<path class="st56" d="M33.32,103.3c-0.03,0.01-0.05,0.03-0.05,0.03c-0.28,0.16-0.54,0.37-0.79,0.6
				c-0.75-10.12-1.16-17.21-0.34-22.8c-11.34-1.44-15.46-3.5-17.41-9.44c-0.82,5.59-0.41,12.67,0.34,22.76
				c0.08-0.07,9.58,62.31,21.56,72.07l1.54-3.03c2.49-12.45,6.07-54.47,12.15-50.92l0.17-0.1C32.73,101.94,35.12,102.89,33.32,103.3
				z"/>
			<path class="st57" d="M45.25,181.44c-0.61,2.14-2.7,2.74-2.64,1.53l1.03-23.8l4.76-2.75L45.25,181.44z"/>
			<path class="st55" d="M146.77,178.17c-0.22,1.58-2.7-0.43-2.95-1.7l-4.79-24.87l5.31,3.06L146.77,178.17z"/>
			<path class="st55" d="M91.27,210.43c-0.4,1.64-2.82-0.39-2.95-1.7l-2.48-25.67l5.31,3.06L91.27,210.43z"/>
			<g>
				<path class="st57" d="M92.52,208.89c-0.44,2.16-2.59,2.76-2.64,1.53l-1.1-24.12l4.76-2.75L92.52,208.89z"/>
				<g>
					<path class="st57" d="M145.75,178.16c0.61,1.55,2.7-0.3,2.64-1.53l-1.1-24.12l-4.76,2.75L145.75,178.16z"/>
				</g>
			</g>
			<path class="st54" d="M142.98,156.76l7.73-4.46c10.92-6.3,15.92-66.97,9.51-72.07c-0.67-0.53-40.91-26.54-44.08-24.74
				c-8.29,4.79-4.49,24.86-12.21,53.92L142.98,156.76z"/>
			<path class="st54" d="M103.93,109.4l-29.44,17c-0.12-0.05-0.25-0.09-0.38-0.12c-0.64-0.65-37.16-25.4-40.79-22.99
				c-0.03,0.01-0.05,0.03-0.05,0.03c-9.65,5.57-5.13,60.79,4.65,63.92l40.89,23.87c1.2,1.02,2.5,1.25,3.87,0.46l7.74-4.47
				l52.55-30.34L103.93,109.4z"/>
			<path class="st58" d="M33.28,103.32c0,0,0.02-0.02,0.05-0.03c2.09-0.47-1.46-1.67,27.3,15.11l49.04-28.31
				c0.26-32.05-3.38-45.99-9.64-50.56c-9.82-7.17-59.87,22.66-65.7,34.35c-3.32,6.67-2.95,15.03-1.83,30.04
				C32.74,103.69,33,103.48,33.28,103.32z"/>
			<g>
				<path class="st59" d="M56.23,89.69c-2.85,4.18-5.36,7.39-5.6,7.17c-0.25-0.22,1.86-3.79,4.71-7.97c2.85-4.18,5.36-7.39,5.6-7.17
					C61.18,81.94,59.07,85.51,56.23,89.69z"/>
				
					<ellipse transform="matrix(0.5342 -0.8454 0.8454 0.5342 -49.495 88.749)" class="st59" cx="55.78" cy="89.29" rx="1.02" ry="6.21"/>
				<path class="st58" d="M57.03,89.1c-0.14,0.62-0.83,1.24-1.53,1.39c-0.7,0.15-1.15-0.22-1-0.84c0.14-0.62,0.83-1.24,1.53-1.39
					C56.72,88.11,57.17,88.48,57.03,89.1z"/>
			</g>
			<g>
				<path class="st59" d="M88.86,70.85c-2.85,4.18-5.36,7.39-5.6,7.17c-0.25-0.22,1.86-3.79,4.71-7.97c2.85-4.18,5.36-7.39,5.6-7.17
					C93.82,63.1,91.71,66.67,88.86,70.85z"/>
				<path class="st59" d="M87.89,71.32c-2.9-1.83-5.02-3.71-4.73-4.19c0.29-0.48,2.88,0.61,5.78,2.44c2.9,1.83,5.02,3.71,4.73,4.19
					C93.38,74.24,90.79,73.15,87.89,71.32z"/>
				<path class="st58" d="M89.66,70.26c-0.14,0.62-0.83,1.24-1.53,1.39c-0.7,0.15-1.15-0.22-1-0.84c0.14-0.62,0.83-1.24,1.53-1.39
					C89.35,69.27,89.8,69.64,89.66,70.26z"/>
			</g>
			<path class="st56" d="M30.11,149.92c1.76,9.14,4.48,16.26,7.81,17.32l40.89,23.87c1.2,1.02,2.5,1.26,3.87,0.46l7.74-4.47
				c0,0-1.78,1.03,2.04-1.18C42.68,169.59,30.11,149.92,30.11,149.92z"/>
			<path class="st59" d="M158.4,80.14c-8.29,4.79-4.49,24.86-12.21,53.92l-58.87,33.99c-5.71-16.68-4.67-42.25-11.74-40.09
				c-0.03,0.01-0.05,0.03-0.05,0.03c-10.44,6.03-4.3,70.2,7.16,63.58l7.74-4.47l52.55-30.34l7.73-4.46
				C162.53,145.47,167.41,74.93,158.4,80.14z"/>
			<path class="st56" d="M150.6,130.82c0,2.29-1.45,4.99-3.24,6.02L85.8,172.36c-1.79,1.03-3.24,0.01-3.24-2.29v-14.47
				c0-2.29,1.45-4.99,3.24-6.02l61.56-35.52c1.79-1.03,3.24-0.01,3.24,2.29V130.82z"/>
			<path class="st60" d="M151.12,127.59c0,2.28-1.44,4.97-3.22,5.99l-62.57,36c-1.78,1.03-3.22,0.01-3.22-2.27v-11.64
				c0-2.28,1.44-4.97,3.22-5.99l62.57-36c1.78-1.03,3.22-0.01,3.22,2.27V127.59z"/>
			<g>
				<path class="st58" d="M109.37,90l-48.98,28.28c8.08,4.74,16.46,9.6,16.45,9.59c3.3,1.29,5.21,12.86,6.7,23.54
					c1.51,1.67,17.8-7.83,34.16-17.04c17.3-9.74,34.63-19.31,32.56-20.75C151.84,109.34,123.23,93.79,109.37,90z"/>
			</g>
			<g>
				<path class="st61" d="M161.51,82.37L161.51,82.37c0-0.01,0-0.01-0.01-0.02C161.5,82.36,161.51,82.36,161.51,82.37z"/>
				<path class="st60" d="M158.4,80.14c0.56-0.32,1.07-0.35,1.52-0.12c-3.72-2.49-40.74-26.26-43.78-24.53
					c-1.68,0.97-2.86,2.58-3.74,4.75l42.34,24.45C155.62,82.61,156.77,81.08,158.4,80.14z"/>
			</g>
			<path class="st60" d="M71.75,134.83c0.87-3.42,2.11-5.88,3.79-6.85c0,0,0.02-0.02,0.05-0.03c0.45-0.14,0.87-0.16,1.26-0.08
				c0,0,0,0,0,0c-2.48-2.39-40.23-26.77-43.52-24.58c-0.03,0.01-0.05,0.03-0.05,0.03c-1.71,0.99-2.97,3.54-3.84,7.08
				C38.01,122.34,49.79,127.37,71.75,134.83L71.75,134.83z"/>
			<path class="st59" d="M61.65,117.72L109.66,90c0-0.57,0.01-1.12,0.01-1.68l-49.41,28.53C60.72,117.14,61.19,117.43,61.65,117.72z
				"/>
		</g>
		<g>
			<path class="st56" d="M91.84,100.93c0,0,15.74-3.32,32.47-1.07C124.31,99.86,111.84,104.23,91.84,100.93z"/>
			<path class="st62" d="M124.31,99.86c-0.5,0.57-9.46-0.07-16.45,0.16c-6.99,0.23-15.59,1.43-16.02,0.91
				c-1.08-1.3-1.89-27.27-0.63-29.55c0.44-0.8,12.28-0.16,15.71-0.27c3.44-0.11,15.59-1.31,16.18-0.58
				C124.56,72.34,125.29,98.75,124.31,99.86z"/>
			<g>
				<path class="st63" d="M123.34,71.05c-2.62,13.93,0.03,23.98,1.24,27.53C125.08,93.45,124.48,74.69,123.34,71.05z"/>
				<path class="st63" d="M92.96,101.06c2.61-0.04,9.27-0.85,14.9-1.03c6.99-0.23,15.95,0.4,16.45-0.16c0,0,0,0,0,0
					c-2.92-0.54-13.12-2.39-16.56-2.4C104.68,97.44,96.64,99.89,92.96,101.06z"/>
			</g>
			<g>
				<path class="st63" d="M107.96,85.23c-2.71,2.69-5.15,4.63-5.45,4.33c-0.3-0.3,1.65-2.73,4.36-5.42
					c2.71-2.69,5.15-4.63,5.45-4.33C112.62,80.11,110.67,82.53,107.96,85.23z"/>
				<path class="st63" d="M106.93,85.27c-3.45-2.84-6.02-5.4-5.75-5.73c0.27-0.33,3.28,1.71,6.73,4.54c3.45,2.84,6.02,5.4,5.75,5.73
					C113.39,90.15,110.37,88.11,106.93,85.27z"/>
				<path class="st62" d="M108.78,85.01c-0.09,0.51-0.78,0.81-1.55,0.67c-0.76-0.14-1.31-0.66-1.21-1.17
					c0.09-0.51,0.78-0.81,1.55-0.67C108.33,83.98,108.87,84.5,108.78,85.01z"/>
			</g>
		</g>
		<linearGradient id="SVGID_7_" gradientUnits="userSpaceOnUse" x1="14.3175" y1="119.9961" x2="163.0613" y2="119.9961">
			<stop  offset="0" style="stop-color:#FFDBA8"/>
			<stop  offset="0.996" style="stop-color:#680009"/>
		</linearGradient>
		<path class="st64" d="M161.86,116.7c0.75-6.58,3.22-33.28-2.33-36.94c-2.99-1.97-40.32-26.02-43.39-24.28
			c-4.47,2.58-5.37,10.16-6.03,15.44c-0.3,0.02-0.59,0.04-0.87,0.06c-0.92-15.46-3.3-24.39-6.82-29.03l0,0
			c-0.11-0.21-0.33-0.47-0.63-0.77c-2.47-2.8-17.13-12.39-23.76-12.22C62.32,29.23,22.1,53.99,16.92,64.4
			c-1.09,2.19-1.78,4.57-2.18,7.29c-0.38-1.14-0.86,6.64,0.34,22.74c0,0,0,0.01,0,0.01l0,0c0.07-0.03,8.07,52.43,18.64,68.63
			c1.25,2.06,2.05,2.79,2.92,3.44c0.01,0,0.01,0.01,0.02,0.01c0.05,0.04,0.09,0.07,0.14,0.11c0.07,0.05,3.98,2.28,4.05,2.32v12.35
			c0,0.97,1.4,2.38,2.31,2.26c0.65,0.01,1.69-0.72,2.09-2.13l1.16-9.24c18.18,10.61,13.52,7.89,32.41,18.91
			c0.01,0.01,0.03,0.02,0.04,0.03c0.23,0.19,0.32,0.25,0.47,0.34c1.1,0.71,2.23,0.74,3.36,0.09c0.68-0.39,2.95-1.7,3.77-2.17
			l1.87,19.33c0.08,0.82,1.06,1.93,1.88,2.23c0.06,0.03,0.13,0.05,0.2,0.06c0.04,0.01,0.07,0.01,0.11,0.01
			c0.04,0,0.08,0.01,0.12,0.01c0.09,0,0.18-0.03,0.26-0.07c0.64-0.2,1.38-0.9,1.62-2.08l0.94-23.54l46.85-27.05l3.5,18.17
			c0.19,0.99,1.75,2.43,2.53,2.26c0.85,0.18,2.09-1.14,2.05-2.1l-1.03-22.41l3.34-1.93C157.51,148.37,160.96,124.55,161.86,116.7z"
			/>
	</g>
</g>
</svg>
