<?xml version="1.0" encoding="utf-8"?>
<!-- Generator: Adobe Illustrator 25.3.1, SVG Export Plug-In . SVG Version: 6.00 Build 0)  -->
<svg version="1.1" id="圖層_1" xmlns="http://www.w3.org/2000/svg" xmlns:xlink="http://www.w3.org/1999/xlink" x="0px" y="0px"
	 viewBox="0 0 240 240" style="enable-background:new 0 0 240 240;" xml:space="preserve">
<style type="text/css">
	.st0{enable-background:new    ;}
	.st1{fill:url(#SVGID_1_);}
	.st2{fill:url(#SVGID_2_);}
	.st3{fill:url(#SVGID_3_);}
	.st4{fill:#222222;}
	.st5{fill:url(#SVGID_4_);}
	.st6{fill:url(#SVGID_5_);}
	.st7{fill:#F2F2E8;}
	.st8{fill:url(#SVGID_6_);}
	.st9{fill:#BEC6BA;}
	.st10{fill:#8D9899;}
	.st11{fill:url(#SVGID_7_);}
	.st12{fill:url(#SVGID_8_);}
	.st13{fill:url(#SVGID_9_);}
	.st14{fill:url(#SVGID_10_);}
	.st15{fill:#DBE0D5;}
	.st16{fill:#C8CEC0;}
	.st17{fill:url(#SVGID_11_);}
	.st18{fill:url(#SVGID_12_);}
	.st19{fill:url(#SVGID_13_);}
	.st20{fill:url(#SVGID_14_);}
	.st21{fill:url(#SVGID_15_);}
	.st22{fill:#C9D3D3;}
	.st23{fill:#9DA7A8;}
</style>
<g id="_x31_1">
	<g class="st0">
		<linearGradient id="SVGID_1_" gradientUnits="userSpaceOnUse" x1="35.538" y1="141.9931" x2="94.7239" y2="141.9931">
			<stop  offset="0" style="stop-color:#2F2F2F"/>
			<stop  offset="0.2355" style="stop-color:#383838"/>
			<stop  offset="0.6218" style="stop-color:#515151"/>
			<stop  offset="0.7041" style="stop-color:#575757"/>
			<stop  offset="0.7092" style="stop-color:#333333"/>
			<stop  offset="1" style="stop-color:#353535"/>
		</linearGradient>
		<path class="st1" d="M65.8,125.63c-0.79-0.46-1.51-0.5-2.03-0.2l-28.24,16.41c0.52-0.3,1.23-0.26,2.03,0.2l28.92,16.7l28.24-16.41
			L65.8,125.63z"/>
		<linearGradient id="SVGID_2_" gradientUnits="userSpaceOnUse" x1="136.7226" y1="205.4229" x2="165.8474" y2="205.4229">
			<stop  offset="0" style="stop-color:#2F2F2F"/>
			<stop  offset="0.2355" style="stop-color:#383838"/>
			<stop  offset="0.6218" style="stop-color:#515151"/>
			<stop  offset="0.7041" style="stop-color:#575757"/>
			<stop  offset="0.7092" style="stop-color:#333333"/>
			<stop  offset="1" style="stop-color:#353535"/>
		</linearGradient>
		<path class="st2" d="M137.61,203.08l-0.05,19.27c0,0.9-0.32,1.53-0.83,1.83l28.24-16.41c0.51-0.3,0.83-0.93,0.83-1.83l0.05-19.27
			L137.61,203.08z"/>
		<linearGradient id="SVGID_3_" gradientUnits="userSpaceOnUse" x1="128.6447" y1="190.6508" x2="165.8474" y2="190.6508">
			<stop  offset="0" style="stop-color:#2F2F2F"/>
			<stop  offset="0.2355" style="stop-color:#383838"/>
			<stop  offset="0.6218" style="stop-color:#515151"/>
			<stop  offset="0.7041" style="stop-color:#575757"/>
			<stop  offset="0.7092" style="stop-color:#333333"/>
			<stop  offset="1" style="stop-color:#353535"/>
		</linearGradient>
		<path class="st3" d="M165.36,184.54c-0.28-0.63-0.66-1.23-1.1-1.73c-0.38-0.43-0.8-0.79-1.24-1.05l-6.13-3.54l-28.24,16.41
			l6.13,3.54c0.45,0.26,0.87,0.62,1.24,1.05c0.45,0.51,0.82,1.11,1.1,1.73c0.31,0.71,0.49,1.45,0.49,2.13l28.24-16.41
			C165.85,185.98,165.67,185.24,165.36,184.54z"/>
		<path class="st4" d="M134.77,198.17l-6.13-3.54l-9.08-54.91L95.11,125.6l-28.63,33.14l-28.92-16.7c-1.57-0.91-2.85-0.18-2.86,1.63
			l-0.05,19.27c0,1.81,1.27,4.01,2.84,4.91l97.21,56.12c1.57,0.91,2.85,0.18,2.86-1.63l0.05-19.27
			C137.61,201.28,136.34,199.08,134.77,198.17z"/>
		<linearGradient id="SVGID_4_" gradientUnits="userSpaceOnUse" x1="119.5657" y1="158.9713" x2="156.8847" y2="158.9713">
			<stop  offset="0" style="stop-color:#2F2F2F"/>
			<stop  offset="0.2355" style="stop-color:#383838"/>
			<stop  offset="0.6218" style="stop-color:#515151"/>
			<stop  offset="0.7041" style="stop-color:#575757"/>
			<stop  offset="0.7092" style="stop-color:#333333"/>
			<stop  offset="1" style="stop-color:#353535"/>
		</linearGradient>
		<polygon class="st5" points="147.81,123.31 119.57,139.72 128.64,194.63 156.88,178.22 		"/>
		<g>
			<linearGradient id="SVGID_5_" gradientUnits="userSpaceOnUse" x1="95.1124" y1="124.4582" x2="147.8056" y2="124.4582">
				<stop  offset="0" style="stop-color:#2F2F2F"/>
				<stop  offset="0.2355" style="stop-color:#383838"/>
				<stop  offset="0.6218" style="stop-color:#515151"/>
				<stop  offset="0.7041" style="stop-color:#575757"/>
				<stop  offset="0.7092" style="stop-color:#333333"/>
				<stop  offset="1" style="stop-color:#353535"/>
			</linearGradient>
			<polygon class="st6" points="95.11,125.6 123.35,109.19 147.81,123.31 119.57,139.72 			"/>
		</g>
	</g>
	<g>
		<g class="st0">
			<path class="st7" d="M116.45,56.77c-1.97-1.14-3.76-1.25-5.06-0.5l-8.22,4.78c1.29-0.75,3.08-0.64,5.06,0.5l39.63,22.88
				l8.22-4.78L116.45,56.77z"/>
			<linearGradient id="SVGID_6_" gradientUnits="userSpaceOnUse" x1="152.6789" y1="81.6076" x2="158.4459" y2="91.5964">
				<stop  offset="0" style="stop-color:#F2F2E8"/>
				<stop  offset="3.987150e-03" style="stop-color:#F2F2E8"/>
				<stop  offset="0.1202" style="stop-color:#FCFCF1"/>
				<stop  offset="0.2755" style="stop-color:#FFFFF4"/>
				<stop  offset="0.3377" style="stop-color:#F8F9EE"/>
				<stop  offset="0.5202" style="stop-color:#E8EBE0"/>
				<stop  offset="0.7257" style="stop-color:#DEE3D8"/>
				<stop  offset="1" style="stop-color:#DBE0D5"/>
			</linearGradient>
			<path class="st8" d="M162.11,87.02c-0.06-0.14-0.12-0.29-0.18-0.43c-0.69-1.56-1.64-3.06-2.75-4.33
				c-0.94-1.07-1.99-1.97-3.1-2.61l-8.22,4.78c1.11,0.64,2.16,1.55,3.1,2.61c1.11,1.27,2.06,2.76,2.75,4.33
				c0.06,0.14,0.12,0.29,0.18,0.43c0.51,1.25,0.3,2.26-0.31,2.61l8.22-4.78C162.41,89.27,162.63,88.27,162.11,87.02z"/>
			<g>
				<path class="st9" d="M147.86,84.42c2.55,1.47,4.79,4.32,6.04,7.37c0.82,2-0.22,3.37-1.78,2.47l-48.08-27.76
					c-1.69-0.97-2.65-3.69-1.72-4.76c1.29-1.44,3.46-1.62,5.91-0.2L147.86,84.42z"/>
				<path class="st10" d="M104.82,65.16c-0.96-0.56-2.51-3.07,0.22-3.04c0.71,0.01,1.54,0.27,2.41,0.77l39.63,22.88
					c2.22,1.33,2.93,2.97,4.1,4.72c0.39,0.58-0.28,1.28-0.88,0.93L104.82,65.16z"/>
			</g>
		</g>
		<g>
			<g class="st0">
				<path class="st7" d="M118.48,87.01c-0.78-0.45-1.52-0.46-2.15-0.09l-60.7,35.38c0.63-0.37,1.37-0.36,2.15,0.09l13.5,7.8
					l60.7-35.38L118.48,87.01z"/>
				<linearGradient id="SVGID_7_" gradientUnits="userSpaceOnUse" x1="101.8267" y1="112.221" x2="105.6971" y2="118.9247">
					<stop  offset="0" style="stop-color:#F2F2E8"/>
					<stop  offset="3.987150e-03" style="stop-color:#F2F2E8"/>
					<stop  offset="0.1202" style="stop-color:#FCFCF1"/>
					<stop  offset="0.2755" style="stop-color:#FFFFF4"/>
					<stop  offset="0.3377" style="stop-color:#F8F9EE"/>
					<stop  offset="0.5202" style="stop-color:#E8EBE0"/>
					<stop  offset="0.7257" style="stop-color:#DEE3D8"/>
					<stop  offset="1" style="stop-color:#DBE0D5"/>
				</linearGradient>
				<path class="st11" d="M134.71,98.36c-0.45-1.01-0.98-1.89-1.57-2.56c-0.37-0.42-0.76-0.75-1.16-0.99l-60.7,35.38
					c0.4,0.23,0.79,0.57,1.16,0.99c0.59,0.67,1.12,1.55,1.57,2.56c0.39,0.89,0.72,1.88,0.96,2.93l60.7-35.38
					C135.43,100.24,135.1,99.25,134.71,98.36z"/>
				<path class="st7" d="M139.39,99.09c-0.78-0.45-1.52-0.46-2.15-0.09l-60.7,35.38c0.63-0.37,1.36-0.36,2.15,0.09l13.5,7.8
					l60.7-35.38L139.39,99.09z"/>
				<linearGradient id="SVGID_8_" gradientUnits="userSpaceOnUse" x1="122.7551" y1="124.2837" x2="126.5612" y2="130.8761">
					<stop  offset="0" style="stop-color:#F2F2E8"/>
					<stop  offset="3.987150e-03" style="stop-color:#F2F2E8"/>
					<stop  offset="0.1202" style="stop-color:#FCFCF1"/>
					<stop  offset="0.2755" style="stop-color:#FFFFF4"/>
					<stop  offset="0.3377" style="stop-color:#F8F9EE"/>
					<stop  offset="0.5202" style="stop-color:#E8EBE0"/>
					<stop  offset="0.7257" style="stop-color:#DEE3D8"/>
					<stop  offset="1" style="stop-color:#DBE0D5"/>
				</linearGradient>
				<path class="st12" d="M155.62,110.44c-0.45-1.01-0.98-1.89-1.57-2.56c-0.37-0.42-0.76-0.76-1.16-0.99l-60.7,35.38
					c0.4,0.23,0.79,0.57,1.16,0.99c0.59,0.67,1.12,1.55,1.57,2.56c0.38,0.85,0.69,1.8,0.93,2.79l60.7-35.38
					C156.31,112.23,156,111.29,155.62,110.44z"/>
				<path class="st7" d="M160.24,111.13c-0.79-0.45-1.52-0.46-2.15-0.09l-60.7,35.38c0.63-0.36,1.36-0.36,2.15,0.09l13.5,7.8
					l60.7-35.38L160.24,111.13z"/>
				<g>
					<path class="st9" d="M113.04,154.3c2.31,1.34,4.18,6.06,4.17,10.55l-0.01,4.85c-0.01,2.44-1.04,3.82-2.29,3.1l-59.1-34.12
						c-1.25-0.72-2.27-3.29-2.26-5.73l0.01-4.85c0.01-4.5,1.9-7.05,4.21-5.72l13.5,7.8c1.61,0.93,2.99,3.49,3.69,6.47
						c0.71-2.17,2.11-3.13,3.72-2.2l13.5,7.8c1.59,0.92,2.95,3.42,3.66,6.34c0.72-2.1,2.1-3.02,3.69-2.1L113.04,154.3z"/>
				</g>
				<linearGradient id="SVGID_9_" gradientUnits="userSpaceOnUse" x1="140.7263" y1="137.9849" x2="149.6631" y2="153.4638">
					<stop  offset="0" style="stop-color:#F2F2E8"/>
					<stop  offset="3.987150e-03" style="stop-color:#F2F2E8"/>
					<stop  offset="0.1202" style="stop-color:#FCFCF1"/>
					<stop  offset="0.2755" style="stop-color:#FFFFF4"/>
					<stop  offset="0.3377" style="stop-color:#F8F9EE"/>
					<stop  offset="0.5202" style="stop-color:#E8EBE0"/>
					<stop  offset="0.7257" style="stop-color:#DEE3D8"/>
					<stop  offset="1" style="stop-color:#DBE0D5"/>
				</linearGradient>
				<path class="st13" d="M176.48,122.48c-0.45-1.02-0.98-1.9-1.57-2.56c-0.37-0.42-0.76-0.76-1.16-0.99l-60.7,35.38
					c0.4,0.23,0.8,0.57,1.16,0.99c0.59,0.67,1.12,1.55,1.57,2.56c0.89,2,1.44,4.54,1.43,7l-0.01,4.85c0,1.61-0.46,2.76-1.12,3.15
					l60.7-35.38c0.67-0.39,1.12-1.54,1.12-3.15l0.01-4.85C177.92,127.01,177.36,124.48,176.48,122.48z"/>
			</g>
			<g>
				<g class="st0">
					<g>
						<path class="st9" d="M68.09,127.13c0,0-10.18-6.41-10.48-5.9L50.13,37.9l10.66,3.89L68.09,127.13z"/>
					</g>
					<linearGradient id="SVGID_10_" gradientUnits="userSpaceOnUse" x1="88.8385" y1="7.1925" x2="69.7014" y2="40.3388">
						<stop  offset="0" style="stop-color:#F2F2E8"/>
						<stop  offset="0.4898" style="stop-color:#FFFFF4"/>
						<stop  offset="1" style="stop-color:#F2F2E8"/>
					</linearGradient>
					<path class="st14" d="M97.36,8.05C93.5,6.65,83.32,10.7,73.4,16.43C61.36,23.38,49.7,32.79,50.13,37.9l10.66,3.89
						c-0.44-5.1,11.23-14.52,23.27-21.47c9.92-5.73,20.09-9.78,23.95-8.38L97.36,8.05z"/>
					<g>
						<path class="st15" d="M84.06,20.32c12.04-6.95,24.45-11.44,25.5-6.69l17.51,79.45l-58.98,34.05l-7.29-85.34
							C60.36,36.68,72.02,27.27,84.06,20.32z"/>
					</g>
				</g>
				<g>
					<path class="st16" d="M117.83,72.78c-0.11-0.5-0.56-0.7-1.01-0.45L71.01,98.67c-0.45,0.26-0.77,0.9-0.72,1.44
						c0.05,0.54,0.45,0.77,0.9,0.51l46.04-26.47C117.67,73.9,117.94,73.28,117.83,72.78z"/>
					<path class="st16" d="M115.59,66.7c0.44-0.25,0.7-0.86,0.59-1.36c-0.11-0.5-0.56-0.71-0.99-0.45L70.3,90.67
						c-0.44,0.25-0.75,0.89-0.71,1.43c0.05,0.54,0.44,0.77,0.88,0.52L115.59,66.7z"/>
					<path class="st16" d="M113.99,59.42c0.43-0.25,0.69-0.85,0.58-1.36c-0.11-0.5-0.55-0.71-0.98-0.46L69.61,82.87
						c-0.43,0.25-0.74,0.88-0.69,1.42c0.05,0.54,0.43,0.78,0.86,0.53L113.99,59.42z"/>
					<path class="st16" d="M112.35,51.96c0.42-0.24,0.67-0.84,0.56-1.35c-0.11-0.5-0.54-0.71-0.96-0.47L68.9,74.87
						c-0.42,0.24-0.72,0.87-0.67,1.41c0.05,0.54,0.43,0.78,0.85,0.54L112.35,51.96z"/>
					<path class="st16" d="M110.83,45.05c0.41-0.24,0.66-0.83,0.54-1.34c-0.11-0.5-0.53-0.72-0.94-0.48L68.24,67.46
						c-0.41,0.24-0.7,0.86-0.66,1.4c0.05,0.54,0.42,0.78,0.83,0.55L110.83,45.05z"/>
					<path class="st16" d="M109.19,37.59c0.4-0.23,0.64-0.83,0.53-1.33c-0.11-0.5-0.53-0.72-0.93-0.49L67.53,59.46
						c-0.4,0.23-0.69,0.85-0.64,1.39c0.05,0.54,0.41,0.79,0.81,0.56L109.19,37.59z"/>
				</g>
			</g>
		</g>
		<g class="st0">
			<path class="st7" d="M59.59,89.57c-1.97-1.14-3.76-1.25-5.06-0.5l-8.22,4.78c1.29-0.75,3.08-0.64,5.06,0.5L91,117.23l8.22-4.78
				L59.59,89.57z"/>
			<linearGradient id="SVGID_11_" gradientUnits="userSpaceOnUse" x1="95.8223" y1="114.4111" x2="101.5893" y2="124.3998">
				<stop  offset="0" style="stop-color:#F2F2E8"/>
				<stop  offset="3.987150e-03" style="stop-color:#F2F2E8"/>
				<stop  offset="0.1202" style="stop-color:#FCFCF1"/>
				<stop  offset="0.2755" style="stop-color:#FFFFF4"/>
				<stop  offset="0.3377" style="stop-color:#F8F9EE"/>
				<stop  offset="0.5202" style="stop-color:#E8EBE0"/>
				<stop  offset="0.7257" style="stop-color:#DEE3D8"/>
				<stop  offset="1" style="stop-color:#DBE0D5"/>
			</linearGradient>
			<path class="st17" d="M105.26,119.82c-0.06-0.14-0.12-0.29-0.18-0.43c-0.69-1.56-1.64-3.06-2.75-4.33
				c-0.94-1.07-1.99-1.97-3.1-2.61L91,117.23c1.11,0.64,2.16,1.55,3.1,2.61c1.11,1.27,2.06,2.76,2.75,4.33
				c0.06,0.14,0.12,0.29,0.18,0.43c0.51,1.25,0.3,2.26-0.31,2.61l8.22-4.78C105.55,122.08,105.77,121.07,105.26,119.82z"/>
			<g>
				<path class="st9" d="M91,117.23c2.55,1.47,4.79,4.32,6.04,7.37c0.82,2-0.22,3.37-1.78,2.47L47.18,99.31
					c-1.69-0.97-2.65-3.69-1.72-4.76c1.29-1.44,3.46-1.62,5.91-0.2L91,117.23z"/>
				<path class="st10" d="M47.96,97.96c-0.96-0.56-2.51-3.07,0.22-3.04c0.71,0.01,1.54,0.27,2.41,0.77l39.63,22.88
					c2.22,1.33,2.93,2.97,4.1,4.72c0.39,0.58-0.28,1.28-0.88,0.93L47.96,97.96z"/>
			</g>
		</g>
	</g>
	<g class="st0">
		<linearGradient id="SVGID_12_" gradientUnits="userSpaceOnUse" x1="164.8012" y1="147.5859" x2="197.544" y2="204.2982">
			<stop  offset="0.9694" style="stop-color:#F2F2E8"/>
			<stop  offset="0.9757" style="stop-color:#E8EAE0"/>
			<stop  offset="0.9865" style="stop-color:#DEE3D8"/>
			<stop  offset="1" style="stop-color:#DBE0D5"/>
		</linearGradient>
		<path class="st18" d="M205.22,198.16l-22.66-60.83l-24.59,14.29l22.66,60.83c0.35,0.94-0.06,1.65-0.85,2.1l24.59-14.29
			C205.16,199.8,205.57,199.09,205.22,198.16z"/>
		<g class="st0">
			<g class="st0">
				<linearGradient id="SVGID_13_" gradientUnits="userSpaceOnUse" x1="165.2943" y1="141.386" x2="167.8265" y2="145.7719">
					<stop  offset="0" style="stop-color:#EBEEE3"/>
					<stop  offset="0.3716" style="stop-color:#F3F5EA"/>
					<stop  offset="0.7245" style="stop-color:#FFFFF4"/>
					<stop  offset="0.8798" style="stop-color:#FCFCF1"/>
					<stop  offset="0.996" style="stop-color:#F2F2E8"/>
					<stop  offset="1" style="stop-color:#F2F2E8"/>
				</linearGradient>
				<path class="st19" d="M182.08,136.54c-0.24-0.28-0.54-0.51-0.89-0.71c-1.74-1-4.54-1.01-6.01-0.16l-24.59,14.29
					c1.47-0.85,4.27-0.85,6.01,0.16c0.34,0.2,0.64,0.43,0.89,0.71c0.17,0.2,0.32,0.42,0.43,0.66l24.59-14.29
					C182.4,136.96,182.26,136.74,182.08,136.54z"/>
				<path class="st7" d="M157.92,151.49l24.59-14.29c0.02,0.04,0.04,0.09,0.05,0.13l-24.59,14.29
					C157.96,151.58,157.94,151.53,157.92,151.49L157.92,151.49z"/>
			</g>
		</g>
		<path class="st9" d="M180.63,212.45l-22.66-60.83c-0.24-0.64-0.73-1.13-1.36-1.5c-2.68-1.55-7.86-0.73-6.85,1.95l22.65,60.81
			c0.24,0.64,0.73,1.14,1.37,1.51C176.45,215.94,181.63,215.13,180.63,212.45z"/>
	</g>
	<g class="st0">
		<linearGradient id="SVGID_14_" gradientUnits="userSpaceOnUse" x1="134.1828" y1="164.6505" x2="166.9212" y2="221.355">
			<stop  offset="0.9694" style="stop-color:#F2F2E8"/>
			<stop  offset="0.9757" style="stop-color:#E8EAE0"/>
			<stop  offset="0.9865" style="stop-color:#DEE3D8"/>
			<stop  offset="1" style="stop-color:#DBE0D5"/>
		</linearGradient>
		<path class="st20" d="M174.59,215.22l-22.65-60.82l-24.59,14.29L150,229.51c0.35,0.94-0.05,1.65-0.84,2.1l24.59-14.29
			C174.54,216.86,174.94,216.15,174.59,215.22z"/>
		<g class="st0">
			<g class="st0">
				<linearGradient id="SVGID_15_" gradientUnits="userSpaceOnUse" x1="134.6668" y1="158.4442" x2="137.2039" y2="162.8385">
					<stop  offset="0" style="stop-color:#EBEEE3"/>
					<stop  offset="0.3716" style="stop-color:#F3F5EA"/>
					<stop  offset="0.7245" style="stop-color:#FFFFF4"/>
					<stop  offset="0.8798" style="stop-color:#FCFCF1"/>
					<stop  offset="0.996" style="stop-color:#F2F2E8"/>
					<stop  offset="1" style="stop-color:#F2F2E8"/>
				</linearGradient>
				<path class="st21" d="M151.47,153.61c-0.24-0.28-0.54-0.51-0.89-0.71c-1.74-1.01-4.55-1.02-6.02-0.16l-24.59,14.29
					c1.47-0.86,4.28-0.84,6.02,0.16c0.34,0.2,0.65,0.43,0.89,0.71c0.17,0.2,0.32,0.42,0.43,0.66l24.59-14.29
					C151.78,154.03,151.64,153.81,151.47,153.61z"/>
				<path class="st7" d="M127.3,168.56l24.59-14.29c0.02,0.04,0.04,0.09,0.05,0.13l-24.59,14.29
					C127.34,168.64,127.32,168.6,127.3,168.56L127.3,168.56z"/>
			</g>
		</g>
		<path class="st9" d="M150,229.51l-22.65-60.82c-0.24-0.64-0.73-1.13-1.37-1.5c-2.68-1.55-7.87-0.74-6.87,1.95l22.66,60.81
			c0.24,0.64,0.73,1.13,1.36,1.5C145.82,232.99,151.01,232.19,150,229.51z"/>
	</g>
	<g>
		<g>
			<g class="st0">
				<path class="st22" d="M132.19,158.71c-0.12-0.27-0.28-0.52-0.47-0.74c-0.16-0.18-0.34-0.34-0.53-0.45
					c-0.34-0.2-0.65-0.22-0.87-0.09l-6.6,3.83c0.22-0.13,0.53-0.11,0.87,0.09c0.19,0.11,0.37,0.26,0.53,0.45
					c0.19,0.22,0.35,0.47,0.47,0.74c0.13,0.3,0.21,0.62,0.21,0.92c0,0.38-0.14,0.66-0.36,0.78l6.6-3.83
					c0.22-0.13,0.36-0.4,0.36-0.78C132.4,159.33,132.32,159.01,132.19,158.71z"/>
				<g>
					<path class="st23" d="M124.6,161.36c0.67,0.39,1.21,1.33,1.21,2.1c0,0.77-0.55,1.09-1.22,0.7c-0.68-0.39-1.22-1.34-1.21-2.1
						C123.38,161.28,123.92,160.97,124.6,161.36z"/>
				</g>
			</g>
		</g>
		<g>
			<g class="st0">
				<path class="st22" d="M141.18,153.5c-0.12-0.27-0.28-0.52-0.47-0.74c-0.16-0.18-0.34-0.34-0.53-0.45
					c-0.34-0.2-0.65-0.22-0.87-0.09l-6.6,3.83c0.22-0.13,0.53-0.11,0.87,0.09c0.19,0.11,0.37,0.26,0.53,0.45
					c0.19,0.22,0.35,0.47,0.47,0.74c0.13,0.3,0.21,0.62,0.21,0.92c0,0.38-0.14,0.66-0.36,0.78l6.6-3.83
					c0.22-0.13,0.36-0.4,0.36-0.78C141.39,154.13,141.32,153.81,141.18,153.5z"/>
				<g>
					<path class="st23" d="M133.59,156.15c0.67,0.39,1.21,1.33,1.21,2.1c0,0.77-0.55,1.09-1.22,0.7c-0.68-0.39-1.22-1.34-1.22-2.1
						C132.37,156.08,132.91,155.76,133.59,156.15z"/>
				</g>
			</g>
		</g>
	</g>
	<g>
		<g>
			<g class="st0">
				<path class="st22" d="M162.82,141.73c-0.12-0.27-0.28-0.52-0.47-0.74c-0.16-0.18-0.34-0.34-0.53-0.45
					c-0.34-0.2-0.65-0.21-0.87-0.09l-6.6,3.83c0.22-0.13,0.53-0.11,0.87,0.09c0.19,0.11,0.37,0.26,0.53,0.44
					c0.19,0.22,0.35,0.47,0.47,0.74c0.13,0.3,0.21,0.62,0.21,0.92c0,0.38-0.14,0.66-0.36,0.78l6.6-3.83
					c0.22-0.13,0.36-0.4,0.36-0.78C163.03,142.35,162.95,142.03,162.82,141.73z"/>
				<g>
					<path class="st23" d="M155.23,144.38c0.67,0.39,1.21,1.33,1.21,2.1c0,0.77-0.55,1.09-1.22,0.7c-0.68-0.39-1.22-1.34-1.21-2.1
						C154,144.3,154.55,143.99,155.23,144.38z"/>
				</g>
			</g>
		</g>
		<g>
			<g class="st0">
				<path class="st22" d="M171.81,136.52c-0.12-0.27-0.28-0.52-0.47-0.74c-0.16-0.18-0.34-0.34-0.53-0.45
					c-0.34-0.2-0.65-0.21-0.87-0.09l-6.6,3.83c0.22-0.13,0.53-0.11,0.87,0.09c0.19,0.11,0.37,0.26,0.53,0.45
					c0.19,0.22,0.35,0.47,0.47,0.74c0.13,0.3,0.21,0.62,0.21,0.92c0,0.38-0.14,0.66-0.36,0.78l6.6-3.83
					c0.22-0.13,0.36-0.4,0.36-0.78C172.02,137.15,171.95,136.83,171.81,136.52z"/>
				<g>
					<path class="st23" d="M164.22,139.17c0.67,0.39,1.21,1.33,1.21,2.1c0,0.77-0.55,1.09-1.22,0.7c-0.68-0.39-1.22-1.34-1.22-2.1
						C163,139.1,163.54,138.79,164.22,139.17z"/>
				</g>
			</g>
		</g>
	</g>
</g>
</svg>
