<?xml version="1.0" encoding="utf-8"?>
<!-- Generator: Adobe Illustrator 25.3.1, SVG Export Plug-In . SVG Version: 6.00 Build 0)  -->
<svg version="1.1" id="圖層_1" xmlns="http://www.w3.org/2000/svg" xmlns:xlink="http://www.w3.org/1999/xlink" x="0px" y="0px"
	 viewBox="0 0 240 240" style="enable-background:new 0 0 240 240;" xml:space="preserve">
<style type="text/css">
	.st0{opacity:0.2;}
	.st1{fill:#333333;}
	.st2{fill:#545454;}
	.st3{fill:#474747;}
	.st4{fill:#666666;}
	.st5{opacity:0.3;fill:#7BD0E8;}
	.st6{fill:#2B2B2B;}
	.st7{fill:#575757;}
	.st8{clip-path:url(#SVGID_2_);}
	.st9{opacity:0.5;fill:#FFFFFF;}
</style>
<g>
	<path class="st0" d="M230.32,122.12L86.68,194.04c-4.42,2.22-11.58,2.22-16.01,0.02l-60.99-30.4c-4.42-2.2-4.43-5.79-0.01-8
		l143.64-71.92c4.42-2.22,11.58-2.22,16.01-0.02l60.99,30.4C234.73,116.33,234.74,119.91,230.32,122.12z"/>
	<g>
		<path class="st1" d="M81.69,151.85c-1.69-0.84-4.43-0.84-6.12,0.01c-0.84,0.42-1.27,0.98-1.27,1.53l0,0l0.05,37.58
			c0,0.55,0.42,1.11,1.27,1.53c1.69,0.84,4.43,0.84,6.12-0.01c0.84-0.42,1.27-0.98,1.27-1.53l-0.05-37.58
			C82.95,152.83,82.53,152.27,81.69,151.85z"/>
		<path class="st2" d="M78.14,157.56c-0.72-0.36-1.89-0.36-2.61,0c-0.36,0.18-0.54,0.42-0.54,0.65l0,0l0.02,16.04
			c0,0.24,0.18,0.47,0.54,0.65c0.72,0.36,1.89,0.36,2.61,0c0.36-0.18,0.54-0.42,0.54-0.65l-0.02-16.04
			C78.69,157.98,78.51,157.74,78.14,157.56z"/>
	</g>
	<g>
		<path class="st1" d="M221.07,76.86c-1.69-0.84-4.43-0.84-6.12,0.01c-0.84,0.42-1.27,0.98-1.27,1.53l0,0l0.05,37.58
			c0,0.55,0.42,1.11,1.27,1.53c1.69,0.84,4.43,0.84,6.12-0.01c0.84-0.42,1.27-0.98,1.27-1.53l-0.05-37.58
			C222.33,77.83,221.91,77.28,221.07,76.86z"/>
		<path class="st2" d="M217.52,82.57c-0.72-0.36-1.89-0.36-2.61,0c-0.36,0.18-0.54,0.42-0.54,0.65l0,0l0.02,16.04
			c0,0.24,0.18,0.47,0.54,0.65c0.72,0.36,1.89,0.36,2.61,0c0.36-0.18,0.54-0.42,0.54-0.65l-0.02-16.04
			C218.07,82.99,217.89,82.75,217.52,82.57z"/>
	</g>
	<g>
		<path class="st1" d="M24.96,123.04c-1.69-0.84-4.43-0.84-6.12,0.01c-0.84,0.42-1.27,0.98-1.27,1.53l0,0l0.05,37.58
			c0,0.55,0.42,1.11,1.27,1.53c1.69,0.84,4.43,0.84,6.12-0.01c0.84-0.42,1.27-0.98,1.27-1.53l-0.05-37.58
			C26.22,124.02,25.8,123.47,24.96,123.04z"/>
		<path class="st2" d="M21.41,128.75c-0.72-0.36-1.89-0.36-2.61,0c-0.36,0.18-0.54,0.42-0.54,0.65l0,0l0.02,16.04
			c0,0.24,0.18,0.47,0.54,0.65c0.72,0.36,1.89,0.36,2.61,0c0.36-0.18,0.54-0.42,0.54-0.65l-0.02-16.04
			C21.96,129.17,21.78,128.93,21.41,128.75z"/>
	</g>
	<g>
		<path class="st3" d="M164.34,48.05c-1.69-0.84-4.43-0.84-6.12,0.01c-0.84,0.42-1.27,0.98-1.27,1.53l0,0L157,87.17
			c0,0.55,0.42,1.11,1.27,1.53c1.69,0.84,4.43,0.84,6.12-0.01c0.84-0.42,1.27-0.98,1.27-1.53l-0.05-37.58
			C165.6,49.03,165.18,48.47,164.34,48.05z"/>
		<path class="st4" d="M160.79,53.76c-0.72-0.36-1.89-0.36-2.61,0c-0.36,0.18-0.54,0.42-0.54,0.65l0,0l0.02,16.04
			c0,0.24,0.18,0.47,0.54,0.65c0.72,0.36,1.89,0.36,2.61,0c0.36-0.18,0.54-0.42,0.54-0.65l-0.02-16.04
			C161.34,54.18,161.15,53.94,160.79,53.76z"/>
	</g>
	<g>
		<polygon class="st5" points="213,77.12 78.62,144.4 26.89,118.62 161.28,51.34 		"/>
		<path class="st6" d="M161.28,48.58L12.8,118.63l0.01,4.29l65.83,32.81l148.47-74.34l-0.01-4.29L161.28,48.58z M26.9,122.91
			l134.39-67.28l51.72,25.78L78.62,148.69L26.9,122.91z"/>
		<path class="st7" d="M161.27,44.29L12.8,118.63l65.83,32.81L227.1,77.1L161.27,44.29z M26.89,118.62l134.39-67.28L213,77.12
			L78.62,144.4L26.89,118.62z"/>
		<g>
			<defs>
				<polygon id="SVGID_1_" points="213,77.12 78.62,144.4 26.89,118.62 161.28,51.34 				"/>
			</defs>
			<clipPath id="SVGID_2_">
				<use xlink:href="#SVGID_1_"  style="overflow:visible;"/>
			</clipPath>
			<g class="st8">
				<polygon class="st9" points="215.91,61.57 11.66,123.16 9.87,120.45 214.11,58.85 				"/>
				<polygon class="st9" points="222.64,71.72 18.39,133.32 16.59,130.6 220.84,69.01 				"/>
				<polygon class="st9" points="225,75.29 20.76,136.89 18.96,134.17 223.21,72.58 				"/>
			</g>
		</g>
	</g>
</g>
</svg>
