<?xml version="1.0" encoding="utf-8"?>
<!-- Generator: Adobe Illustrator 25.3.1, SVG Export Plug-In . SVG Version: 6.00 Build 0)  -->
<svg version="1.1" id="圖層_1" xmlns="http://www.w3.org/2000/svg" xmlns:xlink="http://www.w3.org/1999/xlink" x="0px" y="0px"
	 viewBox="0 0 240 240" style="enable-background:new 0 0 240 240;" xml:space="preserve">
<style type="text/css">
	.st0{opacity:0.2;}
	.st1{fill:#A3A3A3;}
	.st2{fill:#9E9E9E;}
	.st3{fill:#DEDEDE;}
	.st4{fill:#979797;}
	.st5{fill:#B6AAA2;}
	.st6{fill:#9E948D;}
	.st7{fill:#EDEDED;}
	.st8{fill:#DBDBDB;}
	.st9{fill:#E8E8E8;}
	.st10{fill:#9A9999;}
</style>
<g>
	<path class="st0" d="M13.33,142.77l134.7,66.78c4.27,2.14,11.2,2.14,15.47,0l52.21-26.1c4.27-2.14,4.27-5.6,0-7.73l-134.7-66.78
		c-4.27-2.14-11.2-2.14-15.47,0l-52.21,26.1C9.06,137.17,9.06,140.63,13.33,142.77z"/>
	<polygon class="st1" points="154.74,192.98 170.11,181.79 208.58,163.38 197.77,171.55 	"/>
	<g>
		<path class="st2" d="M153.55,192.63c-1.59-0.79-4.17-0.79-5.76,0c-0.8,0.4-1.19,0.92-1.19,1.44l0,0v8.66
			c0,0.52,0.4,1.04,1.19,1.44c1.59,0.8,4.17,0.8,5.76,0c0.79-0.4,1.19-0.92,1.19-1.44v-8.66
			C154.74,193.54,154.34,193.02,153.55,192.63z"/>
		<path class="st2" d="M195.08,172.4c-1.59-0.8-4.17-0.8-5.76,0c-0.8,0.4-1.19,0.92-1.19,1.44l0,0v8.66c0,0.52,0.4,1.04,1.19,1.44
			c1.59,0.8,4.17,0.8,5.76,0c0.8-0.4,1.19-0.92,1.19-1.44v-8.66C196.27,173.32,195.87,172.8,195.08,172.4z"/>
		<path class="st2" d="M27.45,126.05c-1.59-0.8-4.17-0.8-5.76,0c-0.8,0.4-1.19,0.92-1.19,1.44l0,0v8.66c0,0.52,0.4,1.04,1.19,1.44
			c1.59,0.8,4.17,0.8,5.76,0c0.8-0.4,1.19-0.92,1.19-1.44v-8.66C28.65,126.97,28.25,126.45,27.45,126.05z"/>
		<g>
			<g>
				<path class="st3" d="M224.48,103.67L198.36,90.6L101.7,42.26L75.57,29.2c-2.98-1.49-12.11,2.14-12.11,5.12l-4.55,40.08
					l31.52,15.76l87.28,43.65l51.2-25.6C227.94,106.31,226.32,104.58,224.48,103.67z"/>
				<path class="st4" d="M177.71,133.8l9.37,4.69l19.55,16.72c2.82,1.41,12.72-3.81,13.53-6.86c4.55-11.99,7.75-24.2,9.71-36.6
					c0-1.14-0.36-2.38-0.96-3.55L177.71,133.8z"/>
			</g>
			<path class="st5" d="M190.86,93.92L94.2,45.58L68.07,32.51c-2.98-1.49-4.12,0-5.39,2.69c-5.5,11.65-11.27,42.5-11.27,42.5
				l31.52,15.76l96.65,48.34l26.06,13.03c2.82,1.41,6.22-0.13,7.03-3.17c0,0,8.48-27.21,9.71-36.6c0.38-2.95-2.41-6.6-5.39-8.09
				L190.86,93.92z"/>
		</g>
		<path class="st6" d="M20.11,124.74c0,0-3.58,3.33,1.61,7.08c5.19,3.76,123.93,65.4,128.91,65.62
			c4.97,0.22,45.42-20.55,47.15-22.93c1.73-2.38-4.97-11.13-4.97-11.13L59.13,92.15L20.11,124.74z"/>
		<path class="st5" d="M24.54,131.01l123.66,61.53c2.4,1.19,5.22,1.19,7.62-0.01l5.61-2.81l36.34-18.17l-130.85-65.1l-52.86-3.04
			C14.05,103.41,12.54,116.33,24.54,131.01z"/>
		<path class="st6" d="M207.52,146.39l-24.05,5.25l-96.65-48.33l-28.1-20.3c-2.2-1.59-5.09-1.82-7.51-0.61l-34.89,5.87
			c-6.41,3.39-4.01,16.54,2.45,21.81l21.32,15.4c0.66,0.47,1.35,0.89,2.07,1.25l91.67,45.84c2.59,1.3,5.3,2.33,8.1,3.09l21.38,5.79
			c3.82,1.04,7.9,0.63,11.44-1.14c0,0,31.9-15.84,33.85-16.92C212.32,161.29,217.74,148.84,207.52,146.39z"/>
		<polygon class="st7" points="41.06,114.43 137.71,162.75 183.47,139.87 86.82,91.55 		"/>
		<path class="st8" d="M16.69,96.82l24.37,17.6c19.44-5.94,35.31-13.32,45.76-22.88l-28.1-20.3c-2.2-1.59-5.09-1.82-7.51-0.61
			L17.44,87.52C13.78,89.35,13.37,94.42,16.69,96.82z"/>
		<path class="st8" d="M137.71,162.75l25.58,6.92c3.82,1.04,7.9,0.63,11.44-1.14l33.85-16.92c2.24-1.12,1.91-4.42-0.51-5.08
			l-24.6-6.66C165.48,143.49,150.92,152.12,137.71,162.75z"/>
		<path class="st9" d="M82.81,39.88c0,0,90.68,42.16,119.51,59.77C162.65,84.53,82.81,39.88,82.81,39.88z"/>
	</g>
	<path class="st9" d="M209.24,151.16c0,0-30.58,19.68-37.93,20.65c-7.35,0.97-33.59-9.05-33.59-9.05s26.53,7.28,32.01,5.7
		C175.2,166.86,209.24,151.16,209.24,151.16z"/>
	<path class="st10" d="M120.73,183.46c0,0,22.97,14.62,29.89,13.97c6.92-0.65,25.59-10.89,25.59-10.89s-19.44,8.73-25.54,8.51
		C144.57,194.84,120.73,183.46,120.73,183.46z"/>
</g>
</svg>
