<?xml version="1.0" encoding="utf-8"?>
<!-- Generator: Adobe Illustrator 25.3.1, SVG Export Plug-In . SVG Version: 6.00 Build 0)  -->
<svg version="1.1" id="圖層_1" xmlns="http://www.w3.org/2000/svg" xmlns:xlink="http://www.w3.org/1999/xlink" x="0px" y="0px"
	 viewBox="0 0 240 240" style="enable-background:new 0 0 240 240;" xml:space="preserve">
<style type="text/css">
	.st0{fill-rule:evenodd;clip-rule:evenodd;fill:#CC9872;}
	.st1{fill-rule:evenodd;clip-rule:evenodd;fill:#F9DFAB;}
	.st2{fill-rule:evenodd;clip-rule:evenodd;fill:#D2A284;}
	.st3{fill-rule:evenodd;clip-rule:evenodd;fill:url(#SVGID_1_);}
	.st4{fill-rule:evenodd;clip-rule:evenodd;fill:#FBF6EB;}
	.st5{fill-rule:evenodd;clip-rule:evenodd;fill:url(#SVGID_2_);}
	.st6{fill-rule:evenodd;clip-rule:evenodd;fill:url(#SVGID_3_);}
	.st7{fill-rule:evenodd;clip-rule:evenodd;fill:#FDFBF6;}
	.st8{fill-rule:evenodd;clip-rule:evenodd;fill:url(#SVGID_4_);}
	.st9{fill-rule:evenodd;clip-rule:evenodd;fill:url(#SVGID_5_);}
</style>
<g>
	<polygon class="st0" points="185.37,94.31 185.37,99.43 185.37,104.56 180.2,99.39 180.2,90.11 180.2,82.46 214.12,109.93 
		220.54,122.79 220.54,130.44 220.54,139.72 215.37,134.55 215.37,129.43 215.37,124.3 	"/>
	<path class="st0" d="M137.49,103.58c9.46-3.16,18.95-6.32,28.41-9.47c9.46-3.15,18.95-6.32,28.45-9.48c0,2.83,0,5.65,0,8.47
		c0,2.82,0,5.64,0,8.46c-3.01,1-6,1.99-8.99,2.99c0-3.41,0-6.83,0-10.24c-26.44,8.81-52.88,17.63-79.32,26.44
		c-26.44,8.81-52.88,17.63-79.32,26.44c0,3.42,0,6.84,0,10.24c-2.99,1-5.98,1.99-8.95,2.98c0-3.09,0-6.18,0-9.27
		c0-3.09,0-6.19,0-9.29c19.27-6.42,38.54-12.85,57.81-19.27c19.27-6.42,38.54-12.85,57.82-19.28c9.25-7.79,18.52-15.59,27.77-23.38
		c9.25-7.79,18.54-15.6,27.81-23.39c0.53,0.78,1.09,1.55,1.64,2.32c-8.86,7.46-17.74,14.93-26.58,22.37
		C155.22,88.67,146.34,96.14,137.49,103.58z"/>
	<path class="st1" d="M17.79,150.17c0,1.71,0,3.42,0,5.13c0,1.71,0,3.42,0,5.12c-1.72-1.72-3.45-3.45-5.17-5.17
		c0-3.09,0-6.18,0-9.28c0-3.09,0-6.19,0-9.28c7.72,7.72,15.44,15.44,23.16,23.16c7.72,7.72,9.46,9.45,17.18,17.17
		c0,3.09,0,6.19,0,9.28s0,6.19,0,9.28c-1.72-1.73-3.45-3.45-5.17-5.17c0-1.71,0-3.41,0-5.12c0-1.71,0-3.42,0-5.13
		c-6-6-6.01-6.01-12.01-12.01C29.79,162.17,23.78,156.16,17.79,150.17z"/>
	<path class="st2" d="M12.62,140.31v-3.62c7.72,7.72,15.44,15.44,23.16,23.16c7.72,7.72,9.46,9.45,17.18,17.17v3.62L12.62,140.31z"
		/>
	<linearGradient id="SVGID_1_" gradientUnits="userSpaceOnUse" x1="213.2794" y1="138.3629" x2="197.7156" y2="124.8336">
		<stop  offset="0" style="stop-color:#D2A284"/>
		<stop  offset="1" style="stop-color:#CC9473"/>
	</linearGradient>
	<path class="st3" d="M229.52,119.8l-56.86,18.95c-1.72-1.73-3.45-3.45-5.17-5.17l47.88-15.95l-17.87-17.87l8.99-2.99l17.86,17.86
		L229.52,119.8z"/>
	<polygon class="st4" points="52.4,171.1 56.11,141.63 10.48,129.18 10.48,132.77 10.48,136.35 34.42,160.3 52.4,178.27 
		52.4,174.68 	"/>
	<linearGradient id="SVGID_2_" gradientUnits="userSpaceOnUse" x1="126.7607" y1="113.5663" x2="149.7292" y2="170.4153">
		<stop  offset="0" style="stop-color:#E3BA97"/>
		<stop  offset="1" style="stop-color:#D29F80"/>
	</linearGradient>
	<path class="st5" d="M172.66,138.75c9.46-3.16,18.95-6.32,28.41-9.47c9.46-3.15,18.95-6.32,28.45-9.48c0,2.83,0,5.65,0,8.47
		c0,2.82,0,5.64,0,8.46c-3.01,1-6,1.99-8.99,2.99c0-3.41,0-6.83,0-10.24c-26.44,8.81-52.88,17.63-79.32,26.44
		c-26.44,8.81-52.88,17.63-79.32,26.44c0,3.42,0,6.84,0,10.24c-2.99,1-5.98,1.99-8.95,2.98c0-3.09,0-6.18,0-9.27
		c0-3.09,0-6.19,0-9.29c19.27-6.42,38.54-12.85,57.81-19.27c19.27-6.42,38.54-12.85,57.82-19.28c9.25-7.79,18.52-15.59,27.77-23.38
		c9.25-7.79,18.54-15.6,27.81-23.39c0.53,0.78,1.09,1.55,1.64,2.32c-8.86,7.46-17.74,14.93-26.58,22.37
		C190.38,123.84,181.5,131.3,172.66,138.75z"/>
	<linearGradient id="SVGID_3_" gradientUnits="userSpaceOnUse" x1="128.2837" y1="115.7765" x2="153.2917" y2="159.0917">
		<stop  offset="0" style="stop-color:#EFE1CD"/>
		<stop  offset="1" style="stop-color:#D2B59E"/>
	</linearGradient>
	<polygon class="st6" points="52.4,171.11 104.87,146.34 167.49,132.73 185.15,102.67 222.61,86.34 226.21,91.45 197.77,115.37 
		169.38,139.27 110.88,158.77 52.4,178.27 	"/>
	<polygon class="st7" points="52.4,171.1 10.48,129.18 125.57,90.82 163.67,100.56 143.88,140.6 	"/>
	<linearGradient id="SVGID_4_" gradientUnits="userSpaceOnUse" x1="117.4538" y1="149.2176" x2="100.5252" y2="217.1145">
		<stop  offset="0" style="stop-color:#EFE1CD"/>
		<stop  offset="1" style="stop-color:#D2B59E"/>
	</linearGradient>
	<polygon class="st8" points="82.51,105.17 125.57,90.82 163.67,100.56 167.49,132.73 143.88,140.6 	"/>
	<linearGradient id="SVGID_5_" gradientUnits="userSpaceOnUse" x1="159.8107" y1="145.8582" x2="131.6879" y2="258.6526">
		<stop  offset="0" style="stop-color:#EFE1CD"/>
		<stop  offset="1" style="stop-color:#D2B59E"/>
	</linearGradient>
	<polygon class="st9" points="222.61,86.34 180.69,44.42 125.57,90.82 167.49,132.73 	"/>
</g>
</svg>
