<?xml version="1.0" encoding="utf-8"?>
<!-- Generator: Adobe Illustrator 25.3.1, SVG Export Plug-In . SVG Version: 6.00 Build 0)  -->
<svg version="1.1" id="圖層_1" xmlns="http://www.w3.org/2000/svg" xmlns:xlink="http://www.w3.org/1999/xlink" x="0px" y="0px"
	 viewBox="0 0 240 240" style="enable-background:new 0 0 240 240;" xml:space="preserve">
<style type="text/css">
	.st0{fill:#49425E;}
	.st1{fill:#403755;}
	.st2{fill:#5D546E;}
	.st3{fill:#5E586D;}
	.st4{fill:#C4BDC7;}
	.st5{fill:#362A56;}
	.st6{fill:#35294A;}
	.st7{opacity:0.6;fill:#7795B2;}
	.st8{fill:#AFA4B2;}
	.st9{fill:#968C99;}
	.st10{fill:#F8F8F9;}
	.st11{fill:#BDBACD;}
	.st12{fill:#D0CFDB;}
	.st13{fill:#E4E4E6;}
	.st14{fill:#BDBACB;}
	.st15{opacity:0.5;fill:#AFA4B2;}
</style>
<g>
	<g>
		<g>
			<g>
				<path class="st0" d="M80.29,70.43c0.83,0,1.77,0.3,2.73,0.85l15.33,8.85c3.64,2.1,6.62,7.24,6.62,11.45v1.28l1.62-1.01v-0.27
					c0-4.73-3.33-10.5-7.42-12.86l-15.33-8.85c-1.23-0.71-2.42-1.08-3.54-1.08c-1.04,0-1.96,0.32-2.69,0.89l1.7,0.92
					C79.61,70.51,79.93,70.43,80.29,70.43z"/>
				<path class="st1" d="M101.89,105.51c-0.82,0-1.76-0.29-2.73-0.85L77.22,91.99V74.63c0-2.14,0.77-3.55,2.08-4.02l-1.7-0.92
					c-1.26,0.97-2,2.71-2,4.94v18.3l22.75,13.14c1.23,0.7,2.41,1.07,3.54,1.07c0.33,0,0.65-0.04,0.96-0.1l-0.8-1.54
					C101.99,105.5,101.95,105.51,101.89,105.51z"/>
				<path class="st0" d="M104.97,92.86v8.45c0,2.55-1.1,4.1-2.92,4.18l0.8,1.54c2.3-0.46,3.74-2.6,3.74-5.72v-9.45L104.97,92.86z"/>
			</g>
			<g>
				<path class="st2" d="M100.8,107.66c-1.12,0-2.32-0.36-3.54-1.07L74.51,93.45l0-18.3c0-3.54,1.84-5.83,4.69-5.83
					c1.13,0,2.31,0.36,3.54,1.08l15.33,8.85c4.09,2.36,7.43,8.13,7.43,12.86v9.72C105.49,105.37,103.65,107.66,100.8,107.66z
					 M76.13,92.52l21.94,12.67c0.96,0.56,1.91,0.85,2.73,0.85c1.92,0,3.07-1.57,3.07-4.2v-9.72c0-4.21-2.97-9.35-6.61-11.46
					L81.93,71.8c-0.96-0.56-1.91-0.85-2.73-0.85c-1.92,0-3.07,1.57-3.07,4.2V92.52z"/>
			</g>
		</g>
		<g>
			<polygon class="st3" points="110.34,85.64 110.34,88.14 107.36,87.05 			"/>
			<path class="st3" d="M109,90.03c1.76-1.02,1.79-2.64,0.11-3.68l0.01-0.01l-0.09-0.06c-0.01,0-0.02-0.01-0.03-0.01
				c-0.01-0.01-0.03-0.01-0.04-0.02L80.36,69.73l-6.52,1.27v2.49l28.77,16.61l0.02,0C104.43,91.06,107.25,91.04,109,90.03z"/>
			<path class="st4" d="M109,87.53c1.76-1.01,1.79-2.64,0.11-3.68l0.01-0.01l-0.09-0.05c-0.01,0-0.02-0.01-0.03-0.02
				c-0.01,0-0.03-0.01-0.04-0.02L80.36,67.24l-6.52,3.75l28.77,16.61l0.02-0.01C104.43,88.57,107.25,88.55,109,87.53z"/>
		</g>
		<g>
			<polygon class="st0" points="51.25,85.96 54.46,85.96 54.46,112.93 53.83,112.57 51.25,111.07 			"/>
		</g>
		<g>
			<g>
				<polygon class="st0" points="27.92,136.87 37.53,128.86 44.86,125.61 44.3,124.93 36.95,128.2 27.36,136.19 				"/>
			</g>
			<g>
				<path class="st5" d="M25.46,136.63c-0.61,1.15-0.05,2.04,1.25,2c1.3-0.05,2.85-1.02,3.46-2.16c0.61-1.15,0.05-2.04-1.25-2
					C27.62,134.51,26.07,135.47,25.46,136.63z"/>
				<path class="st6" d="M25.46,136.21c-0.61,1.15-0.05,2.05,1.25,2c1.3-0.05,2.85-1.01,3.46-2.16c0.61-1.15,0.05-2.04-1.25-2
					C27.62,134.1,26.07,135.07,25.46,136.21z"/>
			</g>
		</g>
		<g>
			<path class="st7" d="M102.58,164.77c1.17-0.88,2.26-1.66,3.27-2.68c-0.74-0.83-2.06-1.42-3.15-1.58
				c-0.24-0.04-0.47-0.06-0.69-0.06c-0.25,0-0.48,0.03-0.69,0.08l-0.12-0.06l-0.4,0.23l-2.19,1.26l-29.14-3.12l12.09-14.63
				c0.17,0.03,0.35,0.04,0.54,0.04c0.21,0,0.44-0.02,0.69-0.05c1.33-0.21,3.03-1.04,3.55-2.17c0.34-0.74,0.13-1.49-0.51-1.9
				l-0.6-0.34l0.82-0.99l-0.94-0.6c-0.22-0.14-0.45-0.29-0.68-0.43l-0.61-0.37l-0.97,1.03l-0.04-0.03l-0.1,0.05
				c-0.22-0.05-0.46-0.08-0.72-0.08c-0.21,0-0.44,0.02-0.69,0.06c-1.33,0.2-3.02,1.03-3.55,2.16c-0.12,0.25-0.17,0.51-0.16,0.76
				l-0.69,0.38l1.29,0.72l0.57,0.33L64.8,157.62l-19.83-10.86c0,0,0.34-0.21,0.49-0.85c0.14-0.65,0.03-0.73-0.1-0.99
				c-0.34-0.74-1.2-1.35-2.13-1.74c-1.75,0.71-3.52,1.39-5.06,2.5c-0.5,0.37-1.04,0.41-1.51,0.27c0.03,0.14,0.06,0.27,0.13,0.41
				c0.53,1.13,2.22,1.96,3.55,2.17c0.25,0.04,0.48,0.06,0.7,0.06c0.32,0,1.04-0.15,1.04-0.15l18.59,11.31l-26.94,8.44l-1.02-0.59
				l-0.51-0.28l-0.09,0.05c-0.22-0.05-0.47-0.08-0.72-0.08c-0.21,0-0.44,0.02-0.69,0.06c-1.25,0.19-2.81,0.95-3.44,1.98
				c0.11,0.08,0.21,0.17,0.3,0.27c0.04,0.04,0.06,0.07,0.08,0.09c0.02,0.02,0.04,0.03,0.08,0.06c0.14,0.11,0.29,0.21,0.43,0.31
				c0.29,0.21,0.57,0.41,0.83,0.65c0.4,0.38,0.67,0.73,0.95,1.2c0.03,0.03,0.06,0.05,0.1,0.08c0.2,0.19,0.36,0.4,0.49,0.63
				l0.04-0.03c0.21,0.04,0.44,0.07,0.68,0.07c0.22,0,0.45-0.02,0.7-0.06c1.33-0.21,3.27-0.53,3.79-1.67
				c0.1-0.21,0.15-0.42,0.16-0.63l27.73-7.63l6.32,19.68l-2.23,1.29l-0.17,0.09l-0.03,0.02c-0.62,0.43-0.81,1.17-0.49,1.88
				c0.52,1.12,2.01,1.49,3.33,1.7c0.65-1.03,1.49-1.88,2.26-2.82c0.48-0.58,0.9-1.21,1.34-1.83c-0.32-0.17-0.66-0.32-0.99-0.42
				l-4.56-19.98l29.55,2.24c0.7,0.91,2.9,1.05,3.12,1.05c0.3,0,0.57-0.04,0.82-0.1C101.87,165.48,102.3,164.98,102.58,164.77z"/>
			<g>
				
					<rect x="100.64" y="159" transform="matrix(0.8659 -0.5002 0.5002 0.8659 -67.2756 72.9921)" class="st6" width="3.69" height="5.92"/>
				<path class="st6" d="M98.9,161.61c0-1.34,0.94-1.87,2.1-1.21c1.15,0.67,2.09,2.29,2.09,3.63c0,1.33-0.94,1.88-2.09,1.21
					C99.84,164.58,98.9,162.95,98.9,161.61z"/>
				<path class="st6" d="M101.96,159.85c0-1.34,0.94-1.87,2.09-1.2c1.16,0.67,2.1,2.29,2.1,3.62c0,1.34-0.94,1.88-2.1,1.21
					C102.9,162.81,101.96,161.18,101.96,159.85z"/>
				<path class="st0" d="M99.48,161.95c0-0.97,0.68-1.37,1.52-0.88c0.83,0.49,1.52,1.66,1.52,2.64c0,0.97-0.69,1.36-1.52,0.87
					C100.16,164.1,99.48,162.91,99.48,161.95z"/>
			</g>
			<g>
				
					<rect x="37.74" y="141.27" transform="matrix(0.8662 -0.4996 0.4996 0.8662 -66.7664 39.0741)" class="st6" width="3.7" height="5.92"/>
				<path class="st6" d="M36.01,143.88c0-1.34,0.94-1.88,2.1-1.21c1.16,0.67,2.1,2.29,2.1,3.63c0,1.33-0.94,1.88-2.1,1.21
					C36.94,146.84,36.01,145.22,36.01,143.88z"/>
				<path class="st6" d="M39.07,142.12c0-1.34,0.94-1.88,2.09-1.21c1.16,0.67,2.1,2.29,2.1,3.63c0,1.33-0.94,1.88-2.1,1.21
					C40,145.07,39.06,143.45,39.07,142.12z"/>
				<path class="st0" d="M36.58,144.22c0-0.97,0.68-1.36,1.52-0.88c0.84,0.49,1.52,1.66,1.52,2.64c0,0.97-0.68,1.36-1.52,0.87
					C37.26,146.36,36.58,145.18,36.58,144.22z"/>
			</g>
			<g>
				
					<rect x="80.23" y="137.71" transform="matrix(0.5003 -0.8659 0.8659 0.5003 -79.2706 141.7668)" class="st6" width="5.92" height="3.7"/>
				<path class="st6" d="M84.68,142.84c-1.16,0.67-2.1,0.12-2.1-1.21c0-1.34,0.94-2.96,2.1-3.62c1.16-0.67,2.09-0.13,2.09,1.21
					C86.77,140.54,85.84,142.17,84.68,142.84z"/>
				<path class="st6" d="M81.62,141.07c-1.16,0.67-2.1,0.13-2.1-1.2c0-1.34,0.94-2.96,2.1-3.63c1.15-0.66,2.09-0.13,2.09,1.21
					C83.71,138.78,82.77,140.4,81.62,141.07z"/>
				<path class="st0" d="M84.68,142.18c-0.84,0.48-1.52,0.09-1.52-0.88c0-0.97,0.68-2.15,1.52-2.63c0.83-0.49,1.52-0.1,1.52,0.87
					C86.19,140.51,85.51,141.69,84.68,142.18z"/>
			</g>
			<g>
				<path class="st0" d="M79.76,139.39l2.33,1.31c0.28-1.25,1.14-2.53,2.16-3.12c0.32-0.19,0.63-0.29,0.9-0.29l-1.99-1.15
					c-0.03-0.02-0.06-0.04-0.08-0.04c-0.35-0.06-0.75,0.04-1.19,0.29C80.89,136.95,80.06,138.18,79.76,139.39z"/>
			</g>
			<g>
				<path class="st0" d="M42.89,144.12l-2.33,1.32c-0.27-1.25-1.13-2.53-2.16-3.13c-0.32-0.18-0.63-0.29-0.91-0.29l2-1.15
					c0.03-0.02,0.05-0.03,0.08-0.04c0.35-0.05,0.75,0.04,1.19,0.29C41.76,141.7,42.59,142.92,42.89,144.12z"/>
			</g>
			<g>
				<path class="st0" d="M105.76,161.81l-2.33,1.31c-0.27-1.24-1.14-2.52-2.17-3.13c-0.32-0.18-0.62-0.28-0.9-0.29l2-1.15
					c0.03-0.02,0.06-0.03,0.08-0.05c0.34-0.05,0.75,0.05,1.18,0.3C104.62,159.38,105.45,160.61,105.76,161.81z"/>
			</g>
			<g>
				
					<rect x="69.56" y="180.89" transform="matrix(0.8658 -0.5004 0.5004 0.8658 -82.4203 60.4093)" class="st6" width="3.69" height="5.92"/>
				<path class="st6" d="M67.82,183.5c0-1.34,0.94-1.88,2.1-1.21c1.16,0.67,2.09,2.29,2.09,3.63c0,1.33-0.94,1.88-2.09,1.21
					C68.76,186.46,67.82,184.84,67.82,183.5z"/>
				<path class="st6" d="M70.88,181.74c0-1.34,0.94-1.88,2.1-1.21c1.15,0.67,2.09,2.29,2.09,3.63c0,1.33-0.94,1.88-2.09,1.21
					C71.82,184.7,70.88,183.07,70.88,181.74z"/>
				<path class="st0" d="M68.4,183.83c0-0.97,0.68-1.36,1.52-0.87c0.84,0.49,1.51,1.67,1.51,2.63c0,0.97-0.68,1.36-1.51,0.88
					C69.08,185.98,68.4,184.8,68.4,183.83z"/>
				<path class="st0" d="M74.48,183.75l-2.33,1.31c-0.27-1.25-1.14-2.52-2.17-3.12c-0.32-0.18-0.63-0.29-0.9-0.29l2-1.15
					c0.03-0.02,0.06-0.04,0.08-0.04c0.35-0.05,0.75,0.04,1.19,0.29C73.35,181.32,74.18,182.55,74.48,183.75z"/>
			</g>
			<g>
				
					<rect x="27.2" y="167.22" transform="matrix(0.4999 -0.8661 0.8661 0.4999 -131.336 110.6646)" class="st6" width="5.92" height="3.69"/>
				<path class="st6" d="M31.65,172.34c-1.15,0.67-2.09,0.13-2.09-1.21c0-1.34,0.94-2.96,2.1-3.63c1.15-0.67,2.09-0.13,2.09,1.21
					C33.75,170.05,32.81,171.67,31.65,172.34z"/>
				<path class="st6" d="M28.6,170.58c-1.16,0.67-2.1,0.13-2.1-1.21c0-1.33,0.94-2.96,2.1-3.62c1.15-0.67,2.09-0.13,2.09,1.2
					C30.69,168.28,29.75,169.91,28.6,170.58z"/>
				<path class="st0" d="M31.65,171.67c-0.84,0.48-1.52,0.09-1.52-0.88c0-0.96,0.68-2.14,1.52-2.63c0.84-0.49,1.52-0.09,1.52,0.88
					C33.17,170.01,32.49,171.19,31.65,171.67z"/>
			</g>
			<g>
				<path class="st0" d="M27.08,168.95l2.33,1.32c0.27-1.24,1.14-2.53,2.17-3.13c0.32-0.18,0.62-0.28,0.9-0.29l-2-1.15
					c-0.02-0.02-0.05-0.03-0.08-0.04c-0.35-0.05-0.75,0.04-1.18,0.29C28.22,166.53,27.39,167.76,27.08,168.95z"/>
			</g>
			<g>
				<path class="st6" d="M103.63,159.28l-34.21-5.4l13.79-15.5c-0.07-0.03,0.07-0.06,0.01-0.09c-0.64-0.39-1.27-0.79-1.9-1.21
					l-16.14,15.67L40.1,140.54l-0.38,0.18c-0.14,0.06-0.27,0.14-0.4,0.22c-0.11,0.05-0.21,0.1-0.29,0.16l-1.26,0.79l23.58,12.83
					l-32.06,11.66c0.28,0.67,0.61,1.3,0.88,1.96l33.92-11l7.5,25.8c0.64-0.26,1.38-0.4,2.1-0.48l-5.31-25.65l34.19,4.15
					C102.91,160.53,103.26,159.9,103.63,159.28z"/>
				<path class="st0" d="M103.69,159.18l-34.26-6.02l14.45-15.51c-0.69-0.44-1.6-0.68-2.32-1.06l-16.39,15.42l-24.86-11.59
					l-0.37,0.16c-0.09,0.05-0.19,0.09-0.3,0.16c-0.14,0.07-0.28,0.15-0.41,0.24l-1.26,0.81l23.37,12.21l-32.86,12.51l0.43,0.86
					c0.05,0.09,0.1,0.17,0.15,0.25c0.05,0.08,0.1,0.15,0.15,0.23l0.38,0.51l34.49-11.76l7.73,26.61h0.66c0.08,0,0.17-0.01,0.25-0.01
					h0.04c0.08,0,0.16-0.01,0.26-0.03l0.89-0.16l-5.53-26.73l34.24,4.74C102.97,160.41,103.33,159.79,103.69,159.18z"/>
				<path class="st6" d="M68.37,154.35C68.37,154.36,68.37,154.36,68.37,154.35c0,0.01,0,0.02,0,0.02c0,0,0,0,0,0.01
					c-0.07,0.39-0.35,0.75-0.86,1.04c-0.5,0.29-1.12,0.45-1.76,0.49c0,0,0,0-0.01,0c0,0-0.01,0-0.02,0c-0.01,0-0.01,0-0.02,0
					c-0.85,0.05-1.73-0.12-2.39-0.5c-0.3-0.17-0.52-0.37-0.66-0.58c-0.01,0-0.01,0-0.01-0.01c0,0-0.01-0.01-0.01-0.02
					c-0.01,0-0.01,0-0.01-0.01c-0.39-0.61-0.16-1.32,0.68-1.81c0.01,0,0.02-0.01,0.02-0.01c0.01,0,0.01,0,0.02,0
					c0.01,0,0.02-0.01,0.03-0.02c0,0,0.01-0.01,0.01-0.01c0.85-0.46,2.05-0.57,3.08-0.35c0,0,0.01,0.01,0.01,0.01
					c0.01,0,0.02,0,0.04,0l0.01,0c0.36,0.08,0.69,0.21,0.99,0.38C68.16,153.37,68.44,153.87,68.37,154.35z"/>
				<path class="st6" d="M65.41,149.31c-0.7,0-1.38-0.16-1.87-0.44c-0.23-0.13-0.41-0.28-0.52-0.44c-0.12-0.19-0.15-0.36-0.12-0.52
					c0.06-0.25,0.29-0.49,0.63-0.69l0.06-0.02l0.07-0.06c0.43-0.22,1.07-0.36,1.75-0.36c0.32,0,0.62,0.03,0.92,0.09l0.06,0.02
					c0.36,0.08,0.65,0.2,0.9,0.34c0.29,0.16,0.62,0.44,0.65,0.8c0.03,0.41-0.33,0.68-0.65,0.86c-0.4,0.23-0.93,0.38-1.53,0.42
					l-0.08,0.01C65.6,149.31,65.5,149.31,65.41,149.31z"/>
				<polygon class="st6" points="68.37,154.36 62.45,154.34 62.89,148.03 67.94,148.03 				"/>
				<path class="st6" d="M65.42,149.21c-0.53,0-1.05-0.13-1.48-0.38c-0.18-0.12-0.32-0.24-0.4-0.37c-0.1-0.16-0.12-0.29-0.09-0.43
					c0.05-0.2,0.22-0.4,0.49-0.57l0.04-0.02l0.06-0.05c0.33-0.18,0.84-0.3,1.37-0.3c0.25,0,0.49,0.03,0.72,0.08l0.05,0
					c0.29,0.08,0.51,0.17,0.7,0.28c0.63,0.39,0.62,0.99,0,1.38C66.46,149.08,65.94,149.21,65.42,149.21z"/>
				<g>
					<rect x="64.08" y="121.17" class="st0" width="2.65" height="26.79"/>
				</g>
				<path class="st0" d="M66.35,147.42c0.52,0.31,0.52,0.8,0,1.1c-0.53,0.3-1.38,0.3-1.9,0c-0.53-0.3-0.53-0.79,0-1.1
					C64.97,147.11,65.82,147.11,66.35,147.42z"/>
			</g>
		</g>
		<path class="st0" d="M103.25,114.43c2.88,1.66,2.88,4.36,0,6.01l-31.59,18.24c-4.64,2.55-7.55,1.66-10.42,0l-28.69-16.75
			c-2.88-1.66-2.88-4.36,0-6.02l31.59-18.24c2.88-1.67,7.54-1.67,10.42,0L103.25,114.43z"/>
		<g>
			<path class="st8" d="M106.19,117.68l-38.39,22.17c-0.96,0.55-2.21,0.83-3.45,0.82c-1.15-0.01-2.3-0.25-3.2-0.72
				c-0.06-0.02-0.12-0.06-0.18-0.1l-8.75-5.05l-3.47-2l-0.54-0.31l-0.1-0.06l-8.92-5.16l-2.7-1.56l-0.54-0.32l-4.44-2.56l-0.86-0.49
				l-0.11-0.06c-0.13-0.08-0.24-0.15-0.35-0.23c-2.9-1.9-3.32-4.85-0.4-7.03v0c0.37-0.28,0.8-0.55,1.27-0.8l37.88-21.86
				c1.89-1.09,4.95-1.09,6.84,0l4.26,2.45l4.44,2.57L85,97.69l2.71,1.56l8.92,5.15l0.09,0.06l0.54,0.32l3.47,2l5.06,2.92
				c1.56,0.8,2.53,1.75,2.99,2.73C109.64,114.3,108.62,116.3,106.19,117.68z"/>
			<path class="st4" d="M106.19,117.68l-38.39,22.17c-0.96,0.55-2.21,0.83-3.45,0.82c-1.15-0.01-2.3-0.25-3.2-0.72
				c-0.06-0.02-0.12-0.06-0.18-0.1l-8.75-5.05l48.53-28.01l5.06,2.92c1.56,0.8,2.53,1.75,2.99,2.73
				C109.64,114.3,108.62,116.3,106.19,117.68z"/>
			<g>
				<polygon class="st3" points="85,97.69 39.25,124.11 36.47,125.72 35.93,125.4 38.7,123.79 84.46,97.38 				"/>
			</g>
			<g>
				<polygon class="st3" points="97.27,104.78 51.57,131.16 48.74,132.8 48.19,132.49 51.02,130.84 96.72,104.46 				"/>
			</g>
			<path class="st3" d="M106.19,117.68l-38.39,22.17c-0.96,0.55-2.21,0.83-3.45,0.82c-1.15-0.01-2.3-0.25-3.2-0.72l47.66-27.51
				C109.64,114.3,108.62,116.3,106.19,117.68z"/>
			<polygon class="st4" points="96.63,104.4 48.09,132.43 39.17,127.27 87.71,99.25 			"/>
			<path class="st9" d="M80.02,94.81l-48.53,28.02l-0.86-0.49l-0.11-0.06c-0.13-0.08-0.24-0.15-0.35-0.23
				c-2.9-1.9-3.32-4.85-0.4-7.03v0c0.37-0.28,0.8-0.55,1.27-0.8l37.88-21.86c1.89-1.09,4.95-1.09,6.84,0L80.02,94.81z"/>
			<path class="st3" d="M59.12,135.53c3.05,1.88,4.35,3.06,8.32,0.76c3.97-2.29-0.28,3.18-0.28,3.18l-3.64,0.42l-4.16-1.95
				L59.12,135.53z"/>
			<path class="st3" d="M64.34,140.67c-1.23-0.01-2.45-0.28-3.39-0.82l-12.21-7.05l-0.55-0.32l-11.72-6.77l-0.55-0.32l-5.3-3.06
				l-0.11-0.06c-0.13-0.08-0.24-0.15-0.35-0.23c-2.9-1.9-3.32-4.85-0.41-7.03c-0.11,0.15-1.73,2.26,1.47,4.37
				c0.97,0.64,3.85,2.32,7.48,4.4c0.18,0.11,0.36,0.21,0.54,0.31c3.61,2.08,7.89,4.52,11.78,6.74c0.19,0.11,0.36,0.22,0.55,0.32
				c5.18,2.97,9.58,5.52,10.6,6.25C64.16,138.82,64.63,139.82,64.34,140.67z"/>
		</g>
		<path class="st2" d="M69.79,57.33l-4.54-16.51c-2.08-7.58-3.14-14.8-3.14-22.65v-5.92c0-0.93-0.51-1.8-1.34-2.27
			c-0.83-0.47-1.86-0.47-2.68,0L23.41,29.6c-2.01,1.13-3.24,3.23-3.24,5.5V41c0,8.45,1.14,16.26,3.38,24.42l4.08,14.84
			c1.63,5.93,2.46,12.06,2.46,18.2v7.77c0.42,0.45,0.89,0.83,1.45,1.13c0.57,0.31,1.14,0.54,1.72,0.7l38.79-21.94V73.92
			C72.03,68.32,71.28,62.74,69.79,57.33z"/>
		<polygon class="st3" points="64.24,11.92 61.52,10.36 61.02,12.17 		"/>
		<path class="st3" d="M34.7,107.95c-0.81,0.46-1.82,0.46-2.63,0c-0.82-0.46-1.32-1.31-1.32-2.23v-6.92c0-6.14-0.83-12.26-2.46-18.2
			l-4.08-14.84c-2.24-8.16-3.38-15.98-3.38-24.43v-5.9c0-2.27,1.24-4.37,3.25-5.5l34.69-19.62c0.83-0.47,1.85-0.47,2.68,0
			c0.83,0.47,1.35,1.34,1.35,2.28v5.92c0,7.85,1.05,15.06,3.14,22.64l4.53,16.51c1.49,5.41,2.24,10.99,2.24,16.59v7.91
			c0,2.66-1.45,5.12-3.8,6.45L34.7,107.95z"/>
		<polygon class="st3" points="34.66,109.43 32.06,107.9 33.95,106.04 		"/>
		<path class="st8" d="M75.45,75.83v7.91c0,2.66-1.45,5.12-3.8,6.45l-34.19,19.34c-0.82,0.46-1.83,0.46-2.63,0
			c-0.82-0.46-1.32-1.31-1.32-2.23v-6.92c0-0.68-0.02-1.38-0.04-2.05c-0.09-3.11-0.39-6.2-0.9-9.24c-0.04-0.21-0.07-0.42-0.11-0.62
			c-0.29-1.65-0.64-3.29-1.05-4.91c-0.11-0.46-0.23-0.92-0.36-1.37l-2.53-9.21l-0.1-0.36l-0.16-0.58l-1.29-4.69
			c-0.07-0.26-0.14-0.53-0.21-0.8c-0.96-3.61-1.7-7.26-2.23-10.96c-0.04-0.23-0.06-0.46-0.09-0.69c-0.03-0.22-0.05-0.42-0.08-0.64
			c-0.51-3.96-0.77-7.95-0.77-11.95v-5.29c0-2.27,1.23-4.37,3.24-5.5l34.69-19.62c0.83-0.47,1.85-0.47,2.68,0
			c0.83,0.47,1.34,1.34,1.34,2.27v5.92c0,3.71,0.23,6.82,0.7,10.49c0.03,0.21,0.05,0.42,0.08,0.63c0.03,0.23,0.06,0.46,0.1,0.68
			c0.52,3.65,1.27,7.28,2.25,10.84l0.03,0.09l1.51,5.48l0.16,0.59l0.09,0.35l2.75,10c0.06,0.19,0.11,0.38,0.15,0.58
			c0.44,1.62,0.8,3.24,1.1,4.89c0.04,0.21,0.07,0.41,0.11,0.62c0.52,3.06,0.82,6.16,0.88,9.27C75.45,75,75.45,75.42,75.45,75.83z"/>
		<path class="st4" d="M73.36,59.82L31.39,83.55c-0.11-0.46-0.23-0.92-0.36-1.37l-2.53-9.21l41.95-23.72l2.75,10
			C73.27,59.43,73.32,59.62,73.36,59.82z"/>
		<path class="st4" d="M68.7,42.82L26.75,66.54c-0.96-3.61-1.7-7.26-2.23-10.96l41.9-23.69c0.52,3.65,1.27,7.28,2.25,10.84
			L68.7,42.82z"/>
		<g>
			<path class="st3" d="M66.33,31.21l-41.9,23.69c-0.03-0.22-0.05-0.42-0.08-0.64l41.89-23.69C66.27,30.78,66.3,30.99,66.33,31.21z"
				/>
		</g>
		<g>
			<polygon class="st3" points="70.37,48.89 28.41,72.61 28.25,72.03 70.21,48.31 			"/>
		</g>
		<g>
			<path class="st3" d="M74.57,65.33L32.56,89.08c-0.04-0.21-0.07-0.42-0.11-0.62l42.01-23.75C74.5,64.92,74.53,65.12,74.57,65.33z"
				/>
		</g>
		<path class="st9" d="M75.45,75.83v7.91c0,2.66-1.45,5.12-3.8,6.45l-34.19,19.34c-0.82,0.46-1.83,0.46-2.63,0
			c-0.82-0.46-1.32-1.31-1.32-2.23v-6.92c0-0.68-0.02-1.38-0.04-2.05l41.98-23.73C75.45,75,75.45,75.42,75.45,75.83z"/>
		<g>
			<g>
				<path class="st0" d="M33.93,97.17c0.82,0,1.76,0.3,2.73,0.85l15.33,8.85c3.65,2.11,6.62,7.25,6.62,11.46v1.28l1.62-1.01v-0.27
					c0-4.73-3.33-10.5-7.43-12.86l-15.32-8.85c-1.23-0.71-2.42-1.07-3.54-1.07c-1.05,0-1.96,0.31-2.7,0.88l1.7,0.93
					C33.24,97.24,33.56,97.17,33.93,97.17z"/>
				<path class="st1" d="M55.52,132.25c-0.82,0-1.77-0.3-2.73-0.85l-21.94-12.67v-17.36c0-2.13,0.77-3.55,2.08-4.02l-1.7-0.93
					c-1.26,0.97-2,2.71-2,4.94v18.3l22.75,13.13c1.23,0.71,2.42,1.07,3.54,1.07c0.33,0,0.65-0.03,0.96-0.1l-0.8-1.54
					C55.62,132.24,55.57,132.25,55.52,132.25z"/>
				<path class="st0" d="M58.59,119.6v8.45c0,2.55-1.09,4.1-2.92,4.18l0.8,1.54c2.3-0.45,3.74-2.6,3.74-5.72v-9.45L58.59,119.6z"/>
			</g>
			<g>
				<path class="st2" d="M51.7,106l-15.33-8.85c-1.23-0.71-2.42-1.07-3.54-1.07c-2.85,0-4.7,2.28-4.7,5.82v15.63
					c0.15,1.24,0,2.35,1.17,3.33c0.03,0.02,0.04,0.04,0.06,0.05l21.52,12.42c1.22,0.7,2.42,1.07,3.54,1.07c2.85,0,4.7-2.29,4.7-5.82
					v-9.73C59.12,114.12,55.79,108.35,51.7,106z M57.5,128.58c0,2.63-1.15,4.2-3.08,4.2c-0.82,0-1.76-0.3-2.73-0.85l-21.94-12.67
					V101.9c0-2.63,1.15-4.2,3.07-4.2c0.82,0,1.77,0.29,2.73,0.85l15.33,8.85c3.64,2.1,6.61,7.24,6.61,11.45V128.58z"/>
			</g>
		</g>
		<g>
			<polygon class="st3" points="63.19,112.19 63.19,114.7 60.2,113.61 			"/>
			<path class="st3" d="M61.85,116.58c1.76-1.01,1.79-2.64,0.11-3.68l0.01-0.01l-0.09-0.06c-0.02,0-0.02-0.01-0.03-0.02
				c-0.01-0.01-0.03-0.01-0.03-0.02L33.2,96.28l-6.51,1.27v2.49l28.77,16.62l0.01-0.01C57.28,117.61,60.09,117.6,61.85,116.58z"/>
			<path class="st4" d="M61.85,114.09c1.76-1.01,1.79-2.64,0.11-3.68l0.01,0l-0.09-0.06c-0.02,0-0.02-0.01-0.03-0.02
				c-0.01,0-0.03-0.01-0.03-0.02L33.2,93.79l-6.51,3.76l28.77,16.62l0.01-0.01C57.28,115.12,60.09,115.1,61.85,114.09z"/>
		</g>
	</g>
	<g>
		<g>
			<g>
				<path class="st10" d="M155.36,114.64c-0.79,0-1.72,0.28-2.65,0.83l-14.87,8.58c-3.54,2.04-6.41,7.02-6.41,11.11v1.24l-1.58-0.98
					v-0.26c0-4.59,3.23-10.18,7.2-12.47l14.86-8.58c1.2-0.69,2.35-1.04,3.44-1.04c1.02,0,1.9,0.3,2.61,0.85l-1.65,0.9
					C156.02,114.71,155.71,114.64,155.36,114.64z"/>
				<path class="st11" d="M134.41,148.67c0.8,0,1.71-0.29,2.65-0.83l21.28-12.29v-16.84c0-2.07-0.74-3.45-2.02-3.9l1.65-0.9
					c1.23,0.94,1.94,2.63,1.94,4.79l0,17.75l-22.07,12.74c-1.18,0.69-2.34,1.04-3.43,1.04c-0.32,0-0.63-0.03-0.92-0.09l0.78-1.5
					C134.31,148.65,134.35,148.67,134.41,148.67z"/>
				<path class="st12" d="M131.43,136.4v8.19c0,2.48,1.06,3.98,2.83,4.06l-0.78,1.5c-2.24-0.44-3.63-2.52-3.63-5.55v-9.17
					L131.43,136.4z"/>
			</g>
			<g>
				<path class="st13" d="M130.91,145.1v-9.43c0-4.59,3.23-10.18,7.21-12.48l14.86-8.58c1.19-0.69,2.35-1.03,3.44-1.03
					c2.76,0,4.55,2.22,4.55,5.64l0,17.75l-22.07,12.74c-1.2,0.69-2.35,1.03-3.44,1.03C132.7,150.75,130.91,148.53,130.91,145.1z
					 M159.4,119.22c0-2.55-1.12-4.07-2.98-4.07c-0.8,0-1.71,0.28-2.65,0.83l-14.87,8.58c-3.54,2.04-6.42,7.02-6.42,11.11v9.43
					c0,2.55,1.12,4.07,2.99,4.07c0.8,0,1.71-0.28,2.65-0.83l21.28-12.29V119.22z"/>
			</g>
		</g>
		<path class="st7" d="M137.52,209.05c0.31-0.65,1.45-1.31,2.58-1.49c0.51-0.08,0.91-0.04,1.18,0.09l0.02-0.01l0.06,0.04
			c0.02,0.01,0.02,0.01,0.02,0.02l2.07,1.19l27.63-2.95l-12-14.54c-0.27,0.14-0.7,0.19-1.25,0.11c-1.12-0.17-2.27-0.84-2.57-1.48
			c-0.14-0.31-0.06-0.56,0.19-0.72l0,0l0.01,0c0.01-0.01,0.02-0.01,0.02-0.01l1.25-0.72l-0.75-0.91c0.22-0.14,0.45-0.29,0.67-0.43
			l0.85,0.89l0.13-0.08c0,0,0.01,0,0.02-0.01l0.06-0.04h0.02c0.27-0.12,0.68-0.16,1.18-0.08c1.12,0.17,2.27,0.83,2.57,1.48
			c0.14,0.29,0.07,0.53-0.14,0.68l0.01,0.01l-0.08,0.04c0,0,0,0,0,0.01l-1.22,0.69l13.51,14.37l19.4-10.63l-1.02-0.59v0l-0.08-0.04
			l0.01-0.01c-0.21-0.16-0.28-0.39-0.14-0.68c0.3-0.65,1.45-1.31,2.57-1.49c0.5-0.08,0.91-0.04,1.18,0.08l0.01-0.01l0.07,0.04
			c0,0,0.02,0,0.02,0.01l1.11,0.64l0.73-0.4c0.2,0.17,0.42,0.34,0.63,0.51l-0.57,0.35l0.25,0.15c0.01,0,0.01,0.01,0.02,0.01
			l0.01,0.01l0,0c0.25,0.16,0.34,0.4,0.19,0.71c-0.3,0.65-1.45,1.32-2.57,1.49c-0.54,0.08-0.98,0.03-1.24-0.12h0l-0.02-0.01l0,0
			l-0.17-0.1l-18.41,11.2l25.95,8.14l1.2-0.7c0.01,0,0.01-0.01,0.02-0.01l0.07-0.04l0.01,0.01c0.28-0.12,0.68-0.16,1.19-0.09
			c1.11,0.18,2.27,0.84,2.57,1.49c0.14,0.29,0.07,0.53-0.15,0.68l0.01,0.01l-0.08,0.04l0,0l-2.17,1.25l0,0l-0.03,0.02l0,0
			c-0.27,0.14-0.7,0.19-1.25,0.11c-1.12-0.17-2.27-0.84-2.57-1.48c-0.15-0.32-0.06-0.57,0.19-0.73h0l0.01,0
			c0.01-0.01,0.02-0.01,0.03-0.02l0.01,0l-26.28-7.24l-6.08,18.94c0.15,0.02,0.28,0.05,0.39,0.1l0.02,0l0.07,0.04
			c0,0,0.01,0.01,0.02,0.01l2.15,1.24c0.01,0.01,0.01,0.01,0.02,0.02l0.01,0.01l0,0c0.25,0.16,0.33,0.41,0.19,0.72
			c-0.3,0.65-1.45,1.32-2.57,1.49c-0.55,0.08-0.98,0.03-1.25-0.11h0l-0.02-0.01l0,0l-2.18-1.25l0,0l-0.08-0.04l0.01-0.01
			c-0.21-0.16-0.28-0.39-0.14-0.69c0.27-0.59,1.27-1.2,2.3-1.43l4.39-19.26l-27.76,2.11c0,0.01,0,0.03-0.01,0.04
			c-0.3,0.65-1.45,1.32-2.57,1.49c-0.55,0.08-0.97,0.03-1.25-0.11h0l-0.02-0.01l0,0l-2.17-1.25c0,0,0,0,0,0l-0.08-0.05l0.01,0
			C137.46,209.58,137.39,209.34,137.52,209.05z"/>
		<g>
			
				<rect x="194.46" y="164.11" transform="matrix(0.6403 -0.7681 0.7681 0.6403 -63.0291 212.0021)" class="st12" width="0.79" height="18.39"/>
		</g>
		<g>
			
				<rect x="137.54" y="206.45" transform="matrix(0.5 -0.866 0.866 0.5 -110.1275 225.4477)" class="st1" width="5.27" height="3.29"/>
			<path class="st6" d="M143.36,207.78c0-1.19-0.83-1.67-1.87-1.08c-1.03,0.59-1.86,2.04-1.86,3.23c0,1.19,0.83,1.67,1.86,1.08
				C142.53,210.42,143.36,208.97,143.36,207.78z"/>
			<path class="st1" d="M140.64,206.21c0-1.19-0.83-1.66-1.86-1.08c-1.03,0.6-1.86,2.04-1.86,3.23c0,1.19,0.83,1.67,1.86,1.07
				C139.8,208.84,140.64,207.4,140.64,206.21z"/>
			<path class="st12" d="M142.85,208.08c0-0.87-0.6-1.22-1.35-0.78c-0.74,0.43-1.35,1.47-1.35,2.34c0,0.86,0.61,1.21,1.35,0.78
				C142.24,209.99,142.85,208.94,142.85,208.08z"/>
		</g>
		<g>
			
				<rect x="164.71" y="225.53" transform="matrix(0.4994 -0.8664 0.8664 0.4994 -113.047 258.6957)" class="st1" width="5.27" height="3.29"/>
			<path class="st6" d="M170.53,226.87c0-1.19-0.83-1.67-1.86-1.08c-1.03,0.59-1.86,2.04-1.86,3.23c0,1.19,0.83,1.67,1.86,1.08
				C169.7,229.5,170.53,228.06,170.53,226.87z"/>
			<path class="st1" d="M167.81,225.29c0-1.19-0.84-1.67-1.86-1.07c-1.03,0.59-1.86,2.04-1.86,3.23c0,1.19,0.83,1.66,1.87,1.07
				C166.97,227.93,167.81,226.48,167.81,225.29z"/>
			<path class="st12" d="M170.02,227.16c0-0.86-0.61-1.21-1.35-0.78c-0.75,0.43-1.35,1.48-1.35,2.34c0,0.86,0.6,1.21,1.35,0.78
				C169.41,229.07,170.02,228.02,170.02,227.16z"/>
		</g>
		<g>
			
				<rect x="193.17" y="190.08" transform="matrix(0.5 -0.866 0.866 0.5 -68.1348 265.4302)" class="st1" width="5.27" height="3.29"/>
			<path class="st6" d="M198.99,191.41c0-1.19-0.83-1.68-1.86-1.08c-1.03,0.59-1.86,2.04-1.86,3.23c0,1.19,0.84,1.67,1.86,1.07
				C198.16,194.04,198.99,192.6,198.99,191.41z"/>
			<path class="st1" d="M196.27,189.84c0-1.19-0.83-1.68-1.87-1.08c-1.03,0.6-1.86,2.04-1.86,3.23s0.83,1.67,1.87,1.08
				C195.44,192.47,196.27,191.03,196.27,189.84z"/>
			<path class="st12" d="M198.48,191.71c0-0.86-0.61-1.21-1.35-0.78c-0.75,0.43-1.36,1.48-1.36,2.35c0,0.86,0.61,1.21,1.36,0.77
				C197.87,193.62,198.48,192.56,198.48,191.71z"/>
		</g>
		<g>
			
				<rect x="155.6" y="185.17" transform="matrix(0.8661 -0.4999 0.4999 0.8661 -72.8321 103.768)" class="st1" width="3.29" height="5.27"/>
			<path class="st6" d="M155.91,190.72c1.03,0.59,1.86,0.11,1.86-1.08c0-1.19-0.84-2.63-1.86-3.23c-1.03-0.59-1.87-0.11-1.87,1.08
				C154.05,188.69,154.88,190.13,155.91,190.72z"/>
			<path class="st1" d="M158.64,189.15c1.03,0.6,1.87,0.11,1.87-1.08c0-1.19-0.83-2.63-1.87-3.23c-1.03-0.59-1.86-0.11-1.86,1.08
				C156.77,187.11,157.6,188.56,158.64,189.15z"/>
			<path class="st12" d="M155.91,190.14c0.75,0.43,1.35,0.08,1.35-0.78c0-0.86-0.6-1.92-1.35-2.35c-0.75-0.43-1.35-0.08-1.35,0.78
				C154.56,188.66,155.16,189.7,155.91,190.14z"/>
		</g>
		<g>
			<path class="st12" d="M160.12,187.52l-2.07,1.17c-0.25-1.11-1.02-2.25-1.93-2.78c-0.28-0.17-0.56-0.25-0.8-0.26l1.78-1.02
				c0.02-0.01,0.05-0.03,0.07-0.04c0.31-0.04,0.67,0.04,1.05,0.26C159.12,185.36,159.86,186.45,160.12,187.52z"/>
		</g>
		<g>
			<path class="st12" d="M193.06,191.56l2.07,1.17c0.25-1.11,1.01-2.25,1.93-2.78c0.28-0.16,0.56-0.25,0.8-0.26l-1.78-1.02
				c-0.02-0.01-0.05-0.04-0.07-0.04c-0.31-0.05-0.67,0.04-1.06,0.26C194.07,189.4,193.33,190.49,193.06,191.56z"/>
		</g>
		<g>
			<path class="st12" d="M137.27,207.96l2.08,1.17c0.24-1.11,1.01-2.25,1.92-2.79c0.28-0.16,0.55-0.25,0.8-0.26l-1.77-1.02
				c-0.03-0.02-0.05-0.04-0.07-0.04c-0.3-0.05-0.67,0.04-1.05,0.26C138.28,205.79,137.53,206.88,137.27,207.96z"/>
		</g>
		<g>
			<path class="st12" d="M164.4,226.9l2.08,1.17c0.25-1.11,1.01-2.25,1.93-2.79c0.28-0.16,0.56-0.24,0.81-0.26l-1.78-1.02
				c-0.02-0.02-0.05-0.03-0.07-0.04c-0.31-0.04-0.67,0.04-1.05,0.26C165.42,224.74,164.67,225.84,164.4,226.9z"/>
		</g>
		<g>
			
				<rect x="202.91" y="211.78" transform="matrix(0.8658 -0.5003 0.5003 0.8658 -79.8324 131.1119)" class="st1" width="3.29" height="5.27"/>
			<path class="st6" d="M203.23,217.33c1.03,0.59,1.86,0.11,1.86-1.08c0-1.19-0.83-2.64-1.86-3.23c-1.03-0.59-1.86-0.11-1.86,1.08
				C201.37,215.29,202.2,216.73,203.23,217.33z"/>
			<path class="st1" d="M205.95,215.76c1.03,0.6,1.86,0.12,1.86-1.08c0-1.19-0.83-2.63-1.86-3.23c-1.03-0.59-1.86-0.11-1.86,1.08
				C204.09,213.72,204.93,215.16,205.95,215.76z"/>
			<path class="st12" d="M203.23,216.74c0.75,0.43,1.36,0.08,1.36-0.78c0-0.86-0.61-1.91-1.36-2.34c-0.74-0.43-1.35-0.08-1.35,0.78
				C201.88,215.26,202.49,216.31,203.23,216.74z"/>
		</g>
		<g>
			<path class="st12" d="M207.3,214.32l-2.07,1.17c-0.25-1.1-1.02-2.24-1.93-2.78c-0.28-0.16-0.56-0.25-0.8-0.26l1.78-1.02
				c0.03-0.02,0.05-0.03,0.07-0.04c0.3-0.05,0.67,0.04,1.05,0.26C206.28,212.16,207.03,213.24,207.3,214.32z"/>
		</g>
		<g>
			<path class="st14" d="M139.51,206.44c0.01,0.04,0.01,0.08,0.01,0.12c0.01,0.04,0.02,0.08,0.02,0.11l31.83-3.86l0.14-0.01
				l-4.85,23.44c0.07,0.01,0.15,0.01,0.22,0.01c0.06,0.02,0.12,0.02,0.18,0.02l6.77-23.26l30.85,10.01
				c0.03-0.04,0.06-0.08,0.09-0.12c0.04-0.06,0.08-0.12,0.12-0.18l-29.99-10.91l0.71-0.39l20.63-11.22
				c-0.06-0.04-0.12-0.08-0.19-0.1c-0.11-0.07-0.22-0.13-0.34-0.19l-22.47,10.94l-15.72-15.26c-0.15,0.02-0.31,0.06-0.46,0.1
				c-0.04,0.01-0.09,0.02-0.14,0.03l13.7,15.17l0.52,0.58L139.51,206.44z"/>
			<path class="st12" d="M139.5,206.33c0.01,0.04,0.01,0.07,0.01,0.1c0.01,0.04,0.01,0.08,0.01,0.12l31.99-4.43l-0.14,0.68
				l-4.84,23.42c0.05,0.01,0.08,0.01,0.14,0.01c0.07,0.01,0.15,0.01,0.22,0.01l6.95-23.9l30.94,10.54c0.04-0.06,0.08-0.12,0.12-0.18
				c0.03-0.04,0.06-0.08,0.08-0.13l-29.35-11.17l-0.71-0.27l21.15-11.06c-0.11-0.07-0.22-0.13-0.34-0.19
				c-0.06-0.04-0.12-0.08-0.19-0.11l-22.28,10.39l-15.57-14.64c-0.06,0.01-0.1,0.02-0.15,0.04c-0.15,0.02-0.31,0.06-0.46,0.1
				l14.09,15.12l-0.52,0.09L139.5,206.33z"/>
			<path class="st6" d="M170.54,201.32C170.54,201.32,170.54,201.32,170.54,201.32c0,0.01,0,0.02,0,0.02s0,0,0,0.01
				c0.06,0.34,0.32,0.67,0.77,0.93c0.43,0.25,0.99,0.4,1.57,0.44c0,0,0,0,0.01,0c0,0,0.01,0,0.01,0c0,0,0.01,0,0.01,0
				c0.76,0.04,1.55-0.1,2.13-0.44c0.26-0.15,0.46-0.33,0.59-0.51c0,0,0-0.01,0.01-0.01c0,0,0.01-0.01,0.01-0.01
				c0.01,0,0.01,0,0.01-0.01c0.35-0.54,0.15-1.17-0.61-1.6c-0.01-0.01-0.01-0.01-0.02-0.01c0,0,0,0-0.01-0.01
				c-0.01-0.01-0.02-0.01-0.02-0.02c-0.01,0-0.02,0-0.02,0c-0.76-0.41-1.82-0.51-2.74-0.31c0,0-0.01,0-0.01,0
				c-0.01,0-0.02,0.01-0.03,0.01c0,0-0.01,0-0.01,0c-0.32,0.08-0.61,0.18-0.87,0.34C170.74,200.45,170.49,200.89,170.54,201.32z"/>
			<path class="st6" d="M173.18,196.83c0.63,0,1.24-0.15,1.67-0.4c0.2-0.12,0.36-0.25,0.46-0.4c0.11-0.17,0.14-0.32,0.1-0.46
				c-0.05-0.22-0.25-0.44-0.56-0.62l-0.05-0.02l-0.06-0.05c-0.38-0.2-0.96-0.32-1.56-0.32c-0.28,0-0.56,0.03-0.82,0.08l-0.05,0.01
				c-0.32,0.08-0.58,0.18-0.8,0.3c-0.26,0.15-0.55,0.39-0.57,0.71c-0.03,0.36,0.3,0.6,0.58,0.77c0.36,0.21,0.83,0.34,1.35,0.38
				l0.08,0.01C173.02,196.83,173.1,196.83,173.18,196.83z"/>
			<polygon class="st6" points="170.54,201.33 175.81,201.3 175.42,195.7 170.93,195.7 			"/>
			<path class="st14" d="M173.18,196.74c0.46,0,0.93-0.12,1.31-0.34c0.16-0.1,0.28-0.21,0.36-0.33c0.08-0.13,0.11-0.26,0.07-0.38
				c-0.04-0.19-0.19-0.36-0.43-0.51l-0.04-0.02l-0.05-0.04c-0.3-0.16-0.75-0.27-1.22-0.27c-0.22,0-0.44,0.02-0.64,0.07l-0.05,0.01
				c-0.25,0.06-0.45,0.14-0.62,0.24c-0.56,0.34-0.55,0.88,0,1.22C172.24,196.62,172.71,196.74,173.18,196.74z"/>
			<g>
				<rect x="172.01" y="171.78" class="st12" width="2.36" height="23.85"/>
			</g>
			<path class="st12" d="M172.35,195.14c-0.47,0.27-0.47,0.71,0,0.98c0.47,0.27,1.22,0.27,1.69,0c0.47-0.28,0.47-0.71,0-0.98
				C173.57,194.87,172.81,194.87,172.35,195.14z"/>
		</g>
		<path class="st13" d="M125.97,155.8v2.17h0.02c-0.08,1.21,0.65,2.43,2.23,3.33l36.6,21.13c2.25,1.3,5.93,1.3,8.18,0l10.59-5.9
			l1.17-0.65l0.77-0.42l0.8-0.45l0.77-0.43l13.87-7.71c0.02-0.01,0.05-0.02,0.07-0.04c10.11-6.38,11.37-11.91,11.37-21.02
			c0-2.38,0.08-5.02,0.21-7.02c0.02-0.38,0.05-0.73,0.08-1.05c0.03-0.32,0.05-0.6,0.08-0.85c0-0.05,0-0.11,0.02-0.16
			c0.02-0.18,0.04-0.36,0.06-0.56c0.08-0.54,0.16-1.13,0.27-1.76c1.22-7.4,4.49-20.63,6.51-27.94c0.82-2.98-1.01-6.14-3.69-7.67
			l-36.3-20.96c-1.26-0.73-2.8-0.83-4.15-0.28c-0.03,0.01-0.05,0.02-0.07,0.03l-0.09,0.04c-0.16,0.08-0.33,0.16-0.49,0.26
			l-1.16,0.61l0.24,0.11c-0.55,0.57-0.97,1.28-1.18,2.05c-2.29,8.36-5.86,23.04-6.62,29.44c-0.25,2.08-0.3,5.88-0.27,9.65
			c-0.1,2.69-0.54,5.24-1.47,7.61l-1.79,3.41c-1.37,3.51-3.81,6.57-7.81,8.86c-0.05,0.04-0.11,0.08-0.16,0.11l-26.41,15.25
			c-0.43,0.24-0.78,0.5-1.07,0.79H125.97z"/>
		<path class="st1" d="M154.62,137.41c0.06-0.03,0.11-0.08,0.17-0.11c6.68-3.86,9.02-9.78,9.28-16.47
			c-0.03-3.78,0.01-7.58,0.26-9.66c0.77-6.39,4.72-21.38,7.01-29.72c0.39-1.41,1.4-2.56,2.76-3.12c1.35-0.56,2.89-0.45,4.15,0.28
			l36.29,20.95c2.68,1.55,3.98,4.71,3.16,7.7c-2.24,8.14-6.46,23.94-7.24,30.55c-0.22,1.84-0.28,5.05-0.27,8.4
			c0,3.88-0.64,7.55-2.33,10.73c0,0.01-0.01,0.02-0.01,0.03c-1.46,2.74-3.69,5.12-6.96,7.01c-0.02,0.01-0.04,0.03-0.07,0.03
			l-27.84,16.08c-2.25,1.3-5.93,1.3-8.18,0l-36.6-21.13c-3-1.73-3-4.56,0-6.29L154.62,137.41z"/>
		<path class="st15" d="M165.24,105.94l2.88,1.66l40.39,23.33l2.86,1.65c1.58-7.69,4.58-18.9,6.35-25.33
			c0.82-2.98-0.48-6.15-3.16-7.69l-36.3-20.96c-0.72-0.42-1.54-0.63-2.36-0.63c-0.6,0-1.22,0.12-1.79,0.36
			c-1.35,0.56-2.37,1.7-2.76,3.11C169.55,87.98,166.75,98.58,165.24,105.94z"/>
		<path class="st2" d="M164.38,110.87l46.14,26.64c0.86-6.77,4.98-22.24,7.2-30.26c0.82-2.98-0.48-6.15-3.16-7.69l-36.3-20.96
			c-1.27-0.73-2.8-0.83-4.15-0.27c-1.36,0.55-2.38,1.7-2.76,3.12C169.09,89.67,165.22,104.32,164.38,110.87z"/>
		<path class="st2" d="M128.22,158.95l36.6,21.13c2.25,1.3,5.93,1.3,8.18,0L200.83,164c0.02,0,0.05-0.02,0.07-0.04
			c0.46-0.26,0.89-0.53,1.29-0.81l-46.14-26.64c-0.4,0.27-0.82,0.53-1.26,0.79c-0.05,0.03-0.11,0.08-0.16,0.11l-26.41,15.25
			C125.23,154.39,125.23,157.22,128.22,158.95z"/>
		<g>
			<path class="st6" d="M128.21,158.95l36.61,21.13c1.13,0.65,2.6,0.97,4.08,0.97c1.49,0,2.97-0.32,4.09-0.97L200.82,164
				c0.02,0,0.05-0.02,0.07-0.04c3.28-1.89,5.51-4.27,6.97-7c0-0.01,0-0.02,0.01-0.03c1.69-3.18,2.33-6.85,2.33-10.73
				c-0.01-3.34,0.05-6.55,0.27-8.4c0.16-1.39,0.48-3.18,0.9-5.22c1.58-7.69,4.58-18.9,6.35-25.33c0.82-2.98-0.48-6.15-3.16-7.69
				l-36.3-20.96c-0.72-0.42-1.54-0.63-2.36-0.63c-0.6,0-1.22,0.12-1.79,0.36c-1.35,0.56-2.37,1.7-2.76,3.11
				c-1.8,6.54-4.6,17.13-6.11,24.5c-0.42,2.04-0.74,3.84-0.9,5.23c-0.25,2.08-0.3,5.88-0.26,9.66c-0.25,6.69-2.6,12.61-9.27,16.46
				c-0.07,0.03-0.12,0.08-0.18,0.1l-26.41,15.26C125.22,154.39,125.22,157.22,128.21,158.95z M129.22,155.8
				c0.11-0.12,0.29-0.26,0.57-0.43l26.41-15.25l0.03-0.02l0.03-0.01c0.06-0.03,0.11-0.07,0.17-0.11
				c6.82-3.97,10.46-10.38,10.79-19.04v-0.08v-0.07c-0.04-5.58,0.11-8.11,0.24-9.26c0.13-1.07,0.36-2.42,0.66-3.94
				c1.4-7.21,4.39-18.49,6.26-25.32c0.13-0.47,0.47-0.86,0.92-1.04c0.19-0.08,0.4-0.12,0.6-0.12c0.28,0,0.55,0.07,0.79,0.21
				l36.29,20.95c1.44,0.83,2.14,2.53,1.7,4.13c-1.79,6.51-4.56,16.88-6.17,24.52c-0.54,2.55-0.95,4.81-1.16,6.5
				c-0.21,1.76-0.3,4.63-0.3,8.77c0,3.58-0.58,6.5-1.79,8.92l-0.54,0.99c-1.21,2.01-2.92,3.65-5.18,5l-0.29,0.17l-27.83,16.08
				c-0.6,0.34-1.54,0.55-2.52,0.55c-0.97,0-1.91-0.2-2.5-0.55l-36.6-21.13C129.5,156.06,129.33,155.91,129.22,155.8z"/>
		</g>
		<g>
			<path class="st5" d="M203.85,179.27c0.54,1.03,0.04,1.82-1.12,1.78c-1.15-0.04-2.53-0.9-3.08-1.92
				c-0.55-1.03-0.05-1.82,1.11-1.78C201.93,177.39,203.3,178.25,203.85,179.27z"/>
			<path class="st1" d="M203.85,178.9c0.54,1.03,0.04,1.82-1.12,1.78c-1.15-0.04-2.53-0.9-3.08-1.92c-0.55-1.02-0.05-1.82,1.11-1.78
				C201.93,177.02,203.3,177.89,203.85,178.9z"/>
		</g>
		<g>
			<g>
				<path class="st10" d="M200.33,140.58c-0.79,0-1.71,0.29-2.64,0.83l-14.87,8.58c-3.54,2.04-6.41,7.03-6.41,11.11v1.25l-1.57-0.98
					v-0.27c0-4.58,3.23-10.17,7.2-12.47l14.87-8.58c1.19-0.69,2.35-1.03,3.43-1.03c1.03,0,1.91,0.3,2.62,0.85l-1.65,0.89
					C201,140.65,200.69,140.58,200.33,140.58z"/>
				<path class="st11" d="M179.39,174.61c0.8,0,1.71-0.29,2.65-0.83l21.29-12.29v-16.84c0-2.07-0.75-3.45-2.02-3.9l1.65-0.89
					c1.22,0.95,1.94,2.62,1.94,4.79v17.75l-22.07,12.74c-1.19,0.69-2.34,1.04-3.43,1.04c-0.32,0-0.63-0.04-0.92-0.09l0.77-1.5
					C179.29,174.59,179.34,174.61,179.39,174.61z"/>
				<path class="st12" d="M176.41,162.34v8.19c0,2.48,1.06,3.98,2.83,4.06l-0.77,1.5c-2.24-0.45-3.63-2.52-3.63-5.56v-9.17
					L176.41,162.34z"/>
			</g>
			<g>
				<path class="st13" d="M175.9,171.04v-9.43c0-4.59,3.23-10.18,7.2-12.47l14.87-8.59c1.19-0.69,2.35-1.03,3.44-1.03
					c2.76,0,4.55,2.22,4.55,5.64v17.75l-22.07,12.74c-1.19,0.69-2.34,1.04-3.43,1.04C177.68,176.69,175.9,174.47,175.9,171.04z
					 M204.38,145.16c0-2.55-1.11-4.07-2.98-4.07c-0.8,0-1.71,0.29-2.65,0.83l-14.87,8.58c-3.54,2.04-6.41,7.03-6.41,11.11v9.43
					c0,2.55,1.12,4.08,2.99,4.08c0.79,0,1.71-0.28,2.64-0.83L204.38,162V145.16z"/>
			</g>
		</g>
	</g>
</g>
</svg>
