<?xml version="1.0" encoding="utf-8"?>
<!-- Generator: Adobe Illustrator 25.3.1, SVG Export Plug-In . SVG Version: 6.00 Build 0)  -->
<svg version="1.1" id="圖層_1" xmlns="http://www.w3.org/2000/svg" xmlns:xlink="http://www.w3.org/1999/xlink" x="0px" y="0px"
	 viewBox="0 0 240 240" style="enable-background:new 0 0 240 240;" xml:space="preserve">
<style type="text/css">
	.st0{fill-rule:evenodd;clip-rule:evenodd;fill:url(#SVGID_1_);}
	.st1{fill-rule:evenodd;clip-rule:evenodd;fill:url(#SVGID_2_);}
	.st2{fill-rule:evenodd;clip-rule:evenodd;fill:#DED7CA;}
	.st3{fill-rule:evenodd;clip-rule:evenodd;fill:url(#SVGID_3_);}
	.st4{fill-rule:evenodd;clip-rule:evenodd;fill:#F6F0E2;}
	.st5{fill-rule:evenodd;clip-rule:evenodd;fill:url(#SVGID_4_);}
	.st6{fill-rule:evenodd;clip-rule:evenodd;fill:#D5B278;}
	.st7{fill-rule:evenodd;clip-rule:evenodd;fill:url(#SVGID_5_);}
	.st8{fill-rule:evenodd;clip-rule:evenodd;fill:url(#SVGID_6_);}
	.st9{fill-rule:evenodd;clip-rule:evenodd;fill:#B9955F;}
	.st10{fill-rule:evenodd;clip-rule:evenodd;fill:url(#SVGID_7_);}
	.st11{fill-rule:evenodd;clip-rule:evenodd;fill:#907843;}
	.st12{fill-rule:evenodd;clip-rule:evenodd;fill:url(#SVGID_8_);}
	.st13{fill-rule:evenodd;clip-rule:evenodd;fill:url(#SVGID_9_);}
	.st14{fill-rule:evenodd;clip-rule:evenodd;fill:#D7B883;}
	.st15{fill-rule:evenodd;clip-rule:evenodd;fill:url(#SVGID_10_);}
	.st16{fill-rule:evenodd;clip-rule:evenodd;fill:url(#SVGID_11_);}
	.st17{fill-rule:evenodd;clip-rule:evenodd;fill:url(#SVGID_12_);}
	.st18{fill-rule:evenodd;clip-rule:evenodd;fill:#887961;}
	.st19{fill-rule:evenodd;clip-rule:evenodd;fill:#D7CBBC;}
	.st20{fill-rule:evenodd;clip-rule:evenodd;fill:url(#SVGID_13_);}
	.st21{fill-rule:evenodd;clip-rule:evenodd;fill:#F9E2B2;}
	.st22{fill-rule:evenodd;clip-rule:evenodd;fill:#E9E690;}
	.st23{fill-rule:evenodd;clip-rule:evenodd;fill:url(#SVGID_14_);}
	.st24{fill-rule:evenodd;clip-rule:evenodd;fill:url(#SVGID_15_);}
	.st25{fill-rule:evenodd;clip-rule:evenodd;fill:url(#SVGID_16_);}
	.st26{fill-rule:evenodd;clip-rule:evenodd;fill:url(#SVGID_17_);}
	.st27{fill-rule:evenodd;clip-rule:evenodd;fill:#EDE7DE;}
	.st28{fill-rule:evenodd;clip-rule:evenodd;fill:url(#SVGID_18_);}
	.st29{fill-rule:evenodd;clip-rule:evenodd;fill:url(#SVGID_19_);}
	.st30{fill-rule:evenodd;clip-rule:evenodd;fill:#F9F5EF;}
	.st31{fill-rule:evenodd;clip-rule:evenodd;fill:url(#SVGID_20_);}
	.st32{fill-rule:evenodd;clip-rule:evenodd;fill:url(#SVGID_21_);}
	.st33{fill-rule:evenodd;clip-rule:evenodd;fill:url(#SVGID_22_);}
	.st34{fill-rule:evenodd;clip-rule:evenodd;fill:url(#SVGID_23_);}
	.st35{fill-rule:evenodd;clip-rule:evenodd;fill:url(#SVGID_24_);}
	.st36{fill-rule:evenodd;clip-rule:evenodd;fill:url(#SVGID_25_);}
	.st37{fill-rule:evenodd;clip-rule:evenodd;fill:url(#SVGID_26_);}
	.st38{fill-rule:evenodd;clip-rule:evenodd;fill:url(#SVGID_27_);}
	.st39{fill-rule:evenodd;clip-rule:evenodd;fill:url(#SVGID_28_);}
	.st40{fill-rule:evenodd;clip-rule:evenodd;fill:url(#SVGID_29_);}
	.st41{fill-rule:evenodd;clip-rule:evenodd;fill:url(#SVGID_30_);}
	.st42{fill-rule:evenodd;clip-rule:evenodd;fill:url(#SVGID_31_);}
	.st43{fill-rule:evenodd;clip-rule:evenodd;fill:url(#SVGID_32_);}
	.st44{fill-rule:evenodd;clip-rule:evenodd;fill:url(#SVGID_33_);}
	.st45{fill-rule:evenodd;clip-rule:evenodd;fill:#A39A63;}
	.st46{fill-rule:evenodd;clip-rule:evenodd;fill:#D7CDBF;}
	.st47{fill-rule:evenodd;clip-rule:evenodd;fill:#B1A997;}
	.st48{fill-rule:evenodd;clip-rule:evenodd;fill:url(#SVGID_34_);}
	.st49{fill-rule:evenodd;clip-rule:evenodd;fill:url(#SVGID_35_);}
	.st50{fill-rule:evenodd;clip-rule:evenodd;fill:url(#SVGID_36_);}
	.st51{fill-rule:evenodd;clip-rule:evenodd;fill:#F8F0E8;}
	.st52{fill-rule:evenodd;clip-rule:evenodd;fill:#F1E8DD;}
	.st53{fill-rule:evenodd;clip-rule:evenodd;fill:#F6EDE3;}
	.st54{fill-rule:evenodd;clip-rule:evenodd;fill:url(#SVGID_37_);}
	.st55{fill-rule:evenodd;clip-rule:evenodd;fill:url(#SVGID_38_);}
	.st56{fill-rule:evenodd;clip-rule:evenodd;fill:url(#SVGID_39_);}
	.st57{fill-rule:evenodd;clip-rule:evenodd;fill:url(#SVGID_40_);}
	.st58{fill-rule:evenodd;clip-rule:evenodd;fill:#BDB7A9;}
	.st59{fill-rule:evenodd;clip-rule:evenodd;fill:url(#SVGID_41_);}
	.st60{fill-rule:evenodd;clip-rule:evenodd;fill:url(#SVGID_42_);}
	.st61{fill-rule:evenodd;clip-rule:evenodd;fill:url(#SVGID_43_);}
	.st62{fill-rule:evenodd;clip-rule:evenodd;fill:url(#SVGID_44_);}
	.st63{fill-rule:evenodd;clip-rule:evenodd;fill:url(#SVGID_45_);}
	.st64{fill-rule:evenodd;clip-rule:evenodd;fill:url(#SVGID_46_);}
	.st65{fill-rule:evenodd;clip-rule:evenodd;fill:url(#SVGID_47_);}
	.st66{fill-rule:evenodd;clip-rule:evenodd;fill:#665B49;}
	.st67{fill-rule:evenodd;clip-rule:evenodd;fill:url(#SVGID_48_);}
	.st68{fill-rule:evenodd;clip-rule:evenodd;fill:url(#SVGID_49_);}
	.st69{fill-rule:evenodd;clip-rule:evenodd;fill:#897864;}
	.st70{fill-rule:evenodd;clip-rule:evenodd;fill:url(#SVGID_50_);}
	.st71{fill-rule:evenodd;clip-rule:evenodd;fill:url(#SVGID_51_);}
	.st72{fill-rule:evenodd;clip-rule:evenodd;fill:url(#SVGID_52_);}
	.st73{fill-rule:evenodd;clip-rule:evenodd;fill:#4C4939;}
	.st74{fill-rule:evenodd;clip-rule:evenodd;fill:#150E00;}
	.st75{fill-rule:evenodd;clip-rule:evenodd;fill:url(#SVGID_53_);}
	.st76{fill-rule:evenodd;clip-rule:evenodd;fill:url(#SVGID_54_);}
	.st77{fill-rule:evenodd;clip-rule:evenodd;fill:#A07F63;}
	.st78{fill-rule:evenodd;clip-rule:evenodd;fill:url(#SVGID_55_);}
	.st79{fill-rule:evenodd;clip-rule:evenodd;fill:#B2AA6B;}
	.st80{fill-rule:evenodd;clip-rule:evenodd;fill:url(#SVGID_56_);}
	.st81{fill-rule:evenodd;clip-rule:evenodd;fill:url(#SVGID_57_);}
	.st82{fill-rule:evenodd;clip-rule:evenodd;fill:url(#SVGID_58_);}
	.st83{fill-rule:evenodd;clip-rule:evenodd;fill:url(#SVGID_59_);}
	.st84{fill-rule:evenodd;clip-rule:evenodd;fill:url(#SVGID_60_);}
	.st85{fill-rule:evenodd;clip-rule:evenodd;fill:url(#SVGID_61_);}
	.st86{fill-rule:evenodd;clip-rule:evenodd;fill:#BBAD9D;}
	.st87{fill-rule:evenodd;clip-rule:evenodd;fill:url(#SVGID_62_);}
	.st88{fill-rule:evenodd;clip-rule:evenodd;fill:url(#SVGID_63_);}
</style>
<g>
	<linearGradient id="SVGID_1_" gradientUnits="userSpaceOnUse" x1="143.0834" y1="261.9489" x2="-31.8849" y2="-41.1051">
		<stop  offset="0" style="stop-color:#A89F8B"/>
		<stop  offset="1" style="stop-color:#8F8A76"/>
	</linearGradient>
	<polygon class="st0" points="82.21,144.58 66.45,135.49 64,136.9 79.75,145.99 	"/>
	<linearGradient id="SVGID_2_" gradientUnits="userSpaceOnUse" x1="68.1878" y1="96.2223" x2="114.1148" y2="199.3759">
		<stop  offset="0" style="stop-color:#A89F8B"/>
		<stop  offset="1" style="stop-color:#8F8A76"/>
	</linearGradient>
	<polygon class="st1" points="81.82,149.58 81.82,111.04 84.28,109.63 84.28,148.17 	"/>
	<path class="st2" d="M81.82,108.65l-2.07-1.19v38.54l-35.79-20.67v2.39l37.87,21.86C81.83,135.94,81.82,122.29,81.82,108.65z"/>
	<linearGradient id="SVGID_3_" gradientUnits="userSpaceOnUse" x1="69.9617" y1="167.4804" x2="76.5761" y2="113.6099">
		<stop  offset="0" style="stop-color:#A89F8B"/>
		<stop  offset="1" style="stop-color:#8F8A76"/>
	</linearGradient>
	<path class="st3" d="M81.82,108.65l-2.07-1.19v38.54l-15.71-9.07l1.15,3.05l16.63,9.6C81.83,135.94,81.82,122.29,81.82,108.65z"/>
	<polygon class="st4" points="12.99,108.88 47.21,128.64 84.28,107.23 50.06,87.48 	"/>
	<linearGradient id="SVGID_4_" gradientUnits="userSpaceOnUse" x1="91.6783" y1="112.3711" x2="86.3645" y2="102.7848">
		<stop  offset="0" style="stop-color:#806338"/>
		<stop  offset="1" style="stop-color:#7A5E34"/>
	</linearGradient>
	<polygon class="st5" points="103.93,94.99 71.77,113.55 71.77,115.95 103.93,97.38 	"/>
	<polygon class="st6" points="138.47,112.1 102.67,91.43 65.61,112.83 101.4,133.5 103.86,132.08 71.77,113.55 103.93,94.99 
		136.02,113.51 	"/>
	<linearGradient id="SVGID_5_" gradientUnits="userSpaceOnUse" x1="199.3457" y1="229.4658" x2="24.3774" y2="-73.5883">
		<stop  offset="0" style="stop-color:#A89F8B"/>
		<stop  offset="1" style="stop-color:#8F8A76"/>
	</linearGradient>
	<polygon class="st7" points="138.47,112.1 122.72,103 120.26,104.42 136.02,113.51 	"/>
	<linearGradient id="SVGID_6_" gradientUnits="userSpaceOnUse" x1="124.4501" y1="63.7392" x2="170.377" y2="166.8927">
		<stop  offset="0" style="stop-color:#A89F8B"/>
		<stop  offset="1" style="stop-color:#8F8A76"/>
	</linearGradient>
	<polygon class="st8" points="138.09,117.1 138.09,78.56 140.54,77.14 140.54,115.69 	"/>
	<path class="st2" d="M138.09,76.16l-2.07-1.19v38.54l-35.79-20.67v2.39l37.87,21.86C138.09,103.46,138.09,89.81,138.09,76.16z"/>
	<polygon class="st4" points="69.26,76.39 103.47,96.16 140.54,74.75 106.32,55 	"/>
	<path class="st9" d="M103.47,96.15l-2.07-1.19v38.54l-35.79-20.67v2.39l37.87,21.86C103.48,123.45,103.47,109.8,103.47,96.15z"/>
	<linearGradient id="SVGID_7_" gradientUnits="userSpaceOnUse" x1="93.7695" y1="155.2378" x2="105.8666" y2="113.05">
		<stop  offset="0" style="stop-color:#806338"/>
		<stop  offset="1" style="stop-color:#7A5E34"/>
	</linearGradient>
	<polygon class="st10" points="103.47,137.09 103.47,98.55 105.93,97.13 105.93,135.68 	"/>
	<polygon class="st11" points="103.47,101.9 103.47,96.15 140.54,74.75 140.54,80.5 	"/>
	<linearGradient id="SVGID_8_" gradientUnits="userSpaceOnUse" x1="112.5758" y1="100.586" x2="80.4276" y2="37.4916">
		<stop  offset="0" style="stop-color:#BAAE8D"/>
		<stop  offset="1" style="stop-color:#A6997F"/>
	</linearGradient>
	<polygon class="st12" points="69.24,76.39 74.25,79.28 110.22,76.4 116.09,72.29 126.19,66.47 106.31,54.99 	"/>
	<linearGradient id="SVGID_9_" gradientUnits="userSpaceOnUse" x1="234.5253" y1="36.0297" x2="211.05" y2="130.1837">
		<stop  offset="0" style="stop-color:#795D34"/>
		<stop  offset="1" style="stop-color:#907843"/>
	</linearGradient>
	<polygon class="st13" points="223.14,64.24 224.86,90.58 223.14,140.5 214.13,135.3 214.13,59.03 	"/>
	<polygon class="st14" points="23.47,106.94 23.47,183.2 14.46,178 14.46,101.73 	"/>
	<linearGradient id="SVGID_10_" gradientUnits="userSpaceOnUse" x1="30.873" y1="91.8952" x2="27.164" y2="127.1843">
		<stop  offset="0" style="stop-color:#795D34"/>
		<stop  offset="1" style="stop-color:#907843"/>
	</linearGradient>
	<polygon class="st15" points="23.47,183.2 27.33,180.97 27.34,104.7 23.47,106.94 	"/>
	<polygon class="st14" points="14.46,112.14 86.32,153.63 86.33,143.23 14.46,101.73 	"/>
	<polygon class="st14" points="86.33,143.23 86.33,219.49 77.31,214.29 77.31,138.02 	"/>
	<polygon class="st14" points="23.47,106.94 23.47,183.2 14.46,178 14.46,101.73 	"/>
	<polygon class="st14" points="160.28,27.95 160.28,104.21 151.27,99.01 151.27,22.74 	"/>
	<linearGradient id="SVGID_11_" gradientUnits="userSpaceOnUse" x1="213.4727" y1="120.5581" x2="188.5541" y2="162.0295">
		<stop  offset="0" style="stop-color:#AA8D59"/>
		<stop  offset="1" style="stop-color:#967D48"/>
	</linearGradient>
	<polygon class="st16" points="223.14,140.5 227.01,138.27 227.01,62 223.14,64.24 	"/>
	<linearGradient id="SVGID_12_" gradientUnits="userSpaceOnUse" x1="193.4515" y1="96.198" x2="179.4651" y2="82.2116">
		<stop  offset="0" style="stop-color:#AA8D59"/>
		<stop  offset="1" style="stop-color:#967D48"/>
	</linearGradient>
	<polygon class="st17" points="160.28,104.21 164.15,101.98 164.15,25.71 160.28,27.95 	"/>
	<polygon class="st14" points="160.28,28.15 160.28,104.21 151.27,99.01 151.27,22.95 	"/>
	<polygon class="st18" points="223.14,64.24 223.14,68.7 86.33,147.69 86.33,143.23 	"/>
	<polygon class="st19" points="155.14,20.51 14.45,101.73 86.33,143.23 227.01,62 	"/>
	<linearGradient id="SVGID_13_" gradientUnits="userSpaceOnUse" x1="75.9599" y1="144.5179" x2="104.8892" y2="228.5347">
		<stop  offset="0" style="stop-color:#AA8D59"/>
		<stop  offset="1" style="stop-color:#967D48"/>
	</linearGradient>
	<polygon class="st20" points="86.33,219.49 90.19,217.26 90.19,140.99 86.33,143.23 	"/>
	<polygon class="st21" points="14.46,101.73 18.32,99.5 90.19,140.99 86.33,143.23 	"/>
	<polygon class="st21" points="151.27,22.74 155.13,20.51 227.01,62 223.14,64.24 	"/>
	<path class="st18" d="M133.18,86.32c1.11,0.64,2.23,1.29,3.34,1.93c1.26,0,2.53,0,3.8,0c0.39-0.23,0.79-0.46,1.19-0.69
		c0.77,0.45,1.54,0.89,2.31,1.33c1.26,0,2.53,0,3.8,0c0.61-0.36,1.24-0.72,1.86-1.07c0.82,0.48,1.65,0.95,2.47,1.43
		c0.79,0,1.57,0,2.36,0c1.53-0.89,3.07-1.77,4.61-2.66c-3.26-1.88-6.51-3.76-9.76-5.64c-0.79,0-1.57,0-2.36,0
		c-0.93-0.53-1.84-1.06-2.76-1.6c-0.78,0-1.57,0-2.35,0l0,0c-0.7-0.41-1.4-0.81-2.1-1.21c-0.19,0-0.37,0-0.55,0
		c-1.72-0.99-3.43-1.98-5.15-2.97c-1.27,0-2.54,0-3.8,0c-1.04,0.59-2.07,1.19-3.09,1.78c-1.08-0.62-2.15-1.24-3.21-1.86
		c-0.63,0-1.26,0-1.89,0c-1.51,0.87-3.01,1.73-4.51,2.6c-1.5,0.87-3,1.73-4.5,2.6c3.52,2.03,7.03,4.06,10.56,6.09
		c-0.01,0.54-0.01,1.08,0,1.62c0.93,0,1.87,0,2.8,0c0.35,0.2,0.7,0.41,1.06,0.61c0.63,0,1.26,0,1.89,0
		C130.52,87.86,131.84,87.09,133.18,86.32z"/>
	<g>
		<polygon class="st22" points="130.93,79.2 161.1,96.63 202.55,72.69 172.37,55.27 		"/>
		<g>
			<polygon class="st22" points="74.67,111.68 104.84,129.11 146.29,105.17 116.11,87.76 			"/>
			<polygon class="st22" points="38.91,91.04 69.08,108.46 110.53,84.53 80.36,67.11 			"/>
			<polygon class="st22" points="95.17,58.56 125.34,75.98 166.79,52.04 136.61,34.63 			"/>
		</g>
	</g>
	<linearGradient id="SVGID_14_" gradientUnits="userSpaceOnUse" x1="144.7754" y1="82.8297" x2="104.0612" y2="87.1089">
		<stop  offset="0" style="stop-color:#AEA569"/>
		<stop  offset="1" style="stop-color:#79714A"/>
	</linearGradient>
	<path class="st23" d="M130.93,79.2l16.75,9.67c0.6-0.35,1.21-0.7,1.81-1.05c0.82,0.48,1.65,0.95,2.47,1.43c0.79,0,1.57,0,2.36,0
		c1.53-0.89,3.07-1.77,4.61-2.66c-3.26-1.88-6.51-3.76-9.76-5.64c-0.79,0-1.57,0-2.36,0c-0.93-0.53-1.84-1.06-2.76-1.6
		c-0.78,0-1.57,0-2.35,0l0,0c-0.7-0.41-1.4-0.81-2.1-1.21c-0.19,0-0.37,0-0.55,0l-3.14-1.81L130.93,79.2z"/>
	<g>
		<linearGradient id="SVGID_15_" gradientUnits="userSpaceOnUse" x1="71.1511" y1="69.3016" x2="38.0368" y2="35.0108">
			<stop  offset="0" style="stop-color:#AEA569"/>
			<stop  offset="1" style="stop-color:#79714A"/>
		</linearGradient>
		<polygon class="st24" points="97.93,77.25 80.36,67.11 60.83,78.39 61.42,78.39 63.28,78.39 65.13,78.39 66.99,78.39 68.84,78.39 
			70.7,78.39 72.55,78.39 74.41,78.39 76.26,78.39 78.12,78.39 79.97,78.39 81.83,78.39 83.68,78.39 85.54,78.39 87.39,78.39 
			89.24,78.39 89.44,78.5 89.63,78.61 89.82,78.72 90.02,78.83 90.21,78.94 90.41,79.06 90.61,79.17 90.8,79.28 91.25,79.28 
			91.7,79.28 92.15,79.28 92.6,79.28 93.05,79.28 93.5,79.28 93.95,79.28 94.4,79.28 		"/>
		<linearGradient id="SVGID_16_" gradientUnits="userSpaceOnUse" x1="108.0951" y1="34.4931" x2="74.1131" y2="-0.6962">
			<stop  offset="0" style="stop-color:#AEA569"/>
			<stop  offset="1" style="stop-color:#79714A"/>
		</linearGradient>
		<polygon class="st25" points="95.17,58.56 112.73,68.7 154.18,44.77 136.61,34.63 		"/>
	</g>
	<g>
		<linearGradient id="SVGID_17_" gradientUnits="userSpaceOnUse" x1="87.0583" y1="94.0687" x2="69.0243" y2="69.247">
			<stop  offset="0" style="stop-color:#AEA569"/>
			<stop  offset="1" style="stop-color:#79714A"/>
		</linearGradient>
		<polygon class="st26" points="93,89.88 89.07,92.15 83.93,93.38 83.02,93.38 78.36,93.38 77.46,93.38 72.32,92.15 68.39,89.88 
			66.26,86.91 66.26,83.7 68.39,80.74 72.32,78.46 77.46,77.24 78.36,77.24 83.02,77.24 83.93,77.24 89.07,78.46 93,80.74 
			95.13,83.7 95.13,86.91 		"/>
		<polygon class="st27" points="89.38,87.17 85.45,89.44 80.31,90.67 74.75,90.67 69.61,89.44 65.68,87.17 63.55,84.2 63.55,80.99 
			65.68,78.02 69.61,75.75 74.75,74.52 80.31,74.52 85.45,75.75 89.38,78.02 91.51,80.99 91.51,84.2 		"/>
		<linearGradient id="SVGID_18_" gradientUnits="userSpaceOnUse" x1="64.3858" y1="84.5803" x2="95.1204" y2="93.3934">
			<stop  offset="0" style="stop-color:#EDE7DE"/>
			<stop  offset="1" style="stop-color:#CCBEB5"/>
		</linearGradient>
		<polygon class="st28" points="79.23,90.67 74.75,90.67 69.61,89.44 69.61,85.48 79.23,85.48 		"/>
		<linearGradient id="SVGID_19_" gradientUnits="userSpaceOnUse" x1="75.0309" y1="82.6838" x2="97.5616" y2="81.897">
			<stop  offset="0" style="stop-color:#CEC1B8"/>
			<stop  offset="1" style="stop-color:#BFB2A9"/>
		</linearGradient>
		<polygon class="st29" points="89.38,87.17 85.45,89.44 80.31,90.67 74.75,90.67 74.75,74.52 80.31,74.52 85.45,75.75 89.38,78.02 
			91.51,80.99 91.51,84.2 		"/>
		<polygon class="st30" points="89.38,86.26 85.45,88.54 80.31,89.77 74.75,89.77 69.61,88.54 65.68,86.26 63.55,83.3 63.55,80.09 
			65.68,77.12 69.61,74.85 74.75,73.62 80.31,73.62 85.45,74.85 89.38,77.12 91.51,80.09 91.51,83.3 		"/>
		<linearGradient id="SVGID_20_" gradientUnits="userSpaceOnUse" x1="51.6409" y1="71.07" x2="96.5551" y2="91.0671">
			<stop  offset="0" style="stop-color:#EDE7DE"/>
			<stop  offset="1" style="stop-color:#F9F5EF"/>
		</linearGradient>
		<polygon class="st31" points="85.91,85.83 83.13,87.44 79.5,88.31 75.56,88.31 71.93,87.44 69.15,85.83 67.64,83.73 67.64,81.46 
			69.15,79.36 71.93,77.76 75.56,76.89 79.5,76.89 83.13,77.76 85.91,79.36 87.42,81.46 87.42,83.73 		"/>
		<polygon class="st30" points="84.77,86.3 82.37,87.68 79.23,88.43 75.83,88.43 72.69,87.68 70.29,86.3 68.99,84.48 68.99,82.52 
			70.29,80.71 72.69,79.32 75.83,78.57 79.23,78.57 82.37,79.32 84.77,80.71 86.07,82.52 86.07,84.48 		"/>
	</g>
	<linearGradient id="SVGID_21_" gradientUnits="userSpaceOnUse" x1="144.5396" y1="60.8336" x2="126.5056" y2="36.0119">
		<stop  offset="0" style="stop-color:#AEA569"/>
		<stop  offset="1" style="stop-color:#79714A"/>
	</linearGradient>
	<polygon class="st32" points="150.48,56.65 146.55,58.92 141.41,60.15 140.51,60.15 135.85,60.15 134.94,60.15 129.8,58.92 
		125.87,56.65 123.74,53.68 123.74,50.47 125.87,47.5 129.8,45.23 134.94,44 135.85,44 140.51,44 141.41,44 146.55,45.23 
		150.48,47.5 152.61,50.47 152.61,53.68 	"/>
	<polygon class="st27" points="146.86,53.93 142.93,56.21 137.79,57.43 132.23,57.43 127.09,56.21 123.16,53.93 121.03,50.97 
		121.03,47.76 123.16,44.79 127.09,42.52 132.23,41.29 137.79,41.29 142.93,42.52 146.86,44.79 148.99,47.76 148.99,50.97 	"/>
	<linearGradient id="SVGID_22_" gradientUnits="userSpaceOnUse" x1="130.0184" y1="50.9461" x2="119.997" y2="52.3546">
		<stop  offset="0" style="stop-color:#CEC1B8"/>
		<stop  offset="1" style="stop-color:#BFB2A9"/>
	</linearGradient>
	<polygon class="st33" points="126.58,55.91 123.16,53.93 121.03,50.97 121.03,47.76 121.05,47.73 126.58,47.73 	"/>
	<linearGradient id="SVGID_23_" gradientUnits="userSpaceOnUse" x1="121.867" y1="51.3453" x2="152.6017" y2="60.1583">
		<stop  offset="0" style="stop-color:#EDE7DE"/>
		<stop  offset="1" style="stop-color:#CCBEB5"/>
	</linearGradient>
	<polygon class="st34" points="136.71,57.43 132.23,57.43 127.09,56.2 127.09,52.24 136.71,52.24 	"/>
	<linearGradient id="SVGID_24_" gradientUnits="userSpaceOnUse" x1="132.5122" y1="49.4487" x2="155.0429" y2="48.662">
		<stop  offset="0" style="stop-color:#CEC1B8"/>
		<stop  offset="1" style="stop-color:#BFB2A9"/>
	</linearGradient>
	<polygon class="st35" points="146.86,53.93 142.93,56.2 137.79,57.43 132.23,57.43 132.23,41.29 137.79,41.29 142.93,42.52 
		146.86,44.79 148.99,47.76 148.99,50.97 	"/>
	<polygon class="st30" points="146.86,53.03 142.93,55.3 137.79,56.53 132.23,56.53 127.09,55.3 123.16,53.03 121.03,50.06 
		121.03,46.85 123.16,43.88 127.09,41.61 132.23,40.39 137.79,40.39 142.93,41.61 146.86,43.88 148.99,46.85 148.99,50.06 	"/>
	<linearGradient id="SVGID_25_" gradientUnits="userSpaceOnUse" x1="109.1222" y1="37.8348" x2="154.0365" y2="57.8319">
		<stop  offset="0" style="stop-color:#EDE7DE"/>
		<stop  offset="1" style="stop-color:#F9F5EF"/>
	</linearGradient>
	<polygon class="st36" points="143.39,52.6 140.61,54.2 136.98,55.07 133.04,55.07 129.41,54.2 126.63,52.6 125.12,50.5 
		125.12,48.23 126.63,46.13 129.41,44.52 133.04,43.65 136.98,43.65 140.61,44.52 143.39,46.13 144.9,48.23 144.9,50.5 	"/>
	<polygon class="st30" points="142.25,53.06 139.85,54.45 136.71,55.2 133.31,55.2 130.17,54.45 127.77,53.06 126.47,51.25 
		126.47,49.28 127.77,47.47 130.17,46.08 133.31,45.33 136.71,45.33 139.85,46.08 142.25,47.47 143.56,49.28 143.56,51.25 	"/>
	<g>
		<linearGradient id="SVGID_26_" gradientUnits="userSpaceOnUse" x1="113.357" y1="119.5038" x2="95.323" y2="94.6821">
			<stop  offset="0" style="stop-color:#AEA569"/>
			<stop  offset="1" style="stop-color:#79714A"/>
		</linearGradient>
		<polygon class="st37" points="119.3,115.32 115.37,117.59 110.23,118.82 109.32,118.82 104.66,118.82 103.76,118.82 98.62,117.59 
			94.69,115.32 92.56,112.35 92.56,109.14 94.69,106.17 98.62,103.9 103.76,102.67 104.66,102.67 109.32,102.67 110.23,102.67 
			115.36,103.9 119.3,106.17 121.43,109.14 121.43,112.35 		"/>
		<polygon class="st27" points="115.68,112.6 111.75,114.88 106.61,116.1 101.05,116.1 95.91,114.88 91.98,112.6 89.85,109.64 
			89.85,106.43 91.97,103.46 95.91,101.19 101.05,99.96 106.61,99.96 111.75,101.19 115.68,103.46 117.81,106.43 117.81,109.64 		
			"/>
		<linearGradient id="SVGID_27_" gradientUnits="userSpaceOnUse" x1="90.6842" y1="110.015" x2="121.4189" y2="118.828">
			<stop  offset="0" style="stop-color:#EDE7DE"/>
			<stop  offset="1" style="stop-color:#CCBEB5"/>
		</linearGradient>
		<polygon class="st38" points="105.53,116.1 101.05,116.1 95.91,114.87 95.91,110.91 105.53,110.91 		"/>
		<linearGradient id="SVGID_28_" gradientUnits="userSpaceOnUse" x1="101.329" y1="108.1184" x2="123.8597" y2="107.3316">
			<stop  offset="0" style="stop-color:#CEC1B8"/>
			<stop  offset="1" style="stop-color:#BFB2A9"/>
		</linearGradient>
		<polygon class="st39" points="115.68,112.6 111.75,114.87 106.61,116.1 101.05,116.1 101.05,99.96 106.61,99.96 111.75,101.19 
			115.68,103.46 117.81,106.43 117.81,109.64 		"/>
		<polygon class="st30" points="115.68,111.7 111.75,113.97 106.61,115.2 101.05,115.2 95.91,113.97 91.98,111.7 89.85,108.73 
			89.85,105.52 91.97,102.55 95.91,100.28 101.05,99.05 106.61,99.05 111.75,100.28 115.68,102.55 117.81,105.52 117.81,108.73 		
			"/>
		<linearGradient id="SVGID_29_" gradientUnits="userSpaceOnUse" x1="77.939" y1="96.5048" x2="122.8533" y2="116.5019">
			<stop  offset="0" style="stop-color:#EDE7DE"/>
			<stop  offset="1" style="stop-color:#F9F5EF"/>
		</linearGradient>
		<polygon class="st40" points="112.21,111.27 109.43,112.87 105.8,113.74 101.86,113.74 98.23,112.87 95.45,111.27 93.94,109.17 
			93.94,106.9 95.45,104.8 98.23,103.19 101.86,102.32 105.8,102.32 109.43,103.19 112.21,104.8 113.71,106.9 113.71,109.17 		"/>
		<polygon class="st30" points="111.07,111.73 108.67,113.12 105.53,113.87 102.13,113.87 98.99,113.12 96.58,111.73 95.28,109.92 
			95.28,107.95 96.58,106.14 98.99,104.75 102.13,104 105.53,104 108.67,104.75 111.07,106.14 112.37,107.95 112.37,109.92 		"/>
	</g>
	<g>
		<linearGradient id="SVGID_30_" gradientUnits="userSpaceOnUse" x1="170.8383" y1="86.2687" x2="152.8042" y2="61.447">
			<stop  offset="0" style="stop-color:#AEA569"/>
			<stop  offset="1" style="stop-color:#79714A"/>
		</linearGradient>
		<polygon class="st41" points="176.78,82.08 172.85,84.35 167.71,85.58 166.8,85.58 162.14,85.58 161.24,85.58 156.1,84.35 
			152.17,82.08 150.04,79.11 150.04,75.9 152.17,72.94 156.1,70.66 161.24,69.44 162.14,69.44 166.8,69.44 167.71,69.44 
			172.85,70.66 176.78,72.94 178.91,75.9 178.91,79.11 		"/>
		<polygon class="st27" points="173.16,79.37 169.23,81.64 164.09,82.87 158.53,82.87 153.39,81.64 149.46,79.37 147.33,76.4 
			147.33,73.19 149.46,70.22 153.39,67.95 158.53,66.72 164.09,66.72 169.23,67.95 173.16,70.22 175.29,73.19 175.29,76.4 		"/>
		<linearGradient id="SVGID_31_" gradientUnits="userSpaceOnUse" x1="148.1655" y1="76.78" x2="178.9002" y2="85.593">
			<stop  offset="0" style="stop-color:#EDE7DE"/>
			<stop  offset="1" style="stop-color:#CCBEB5"/>
		</linearGradient>
		<polygon class="st42" points="163.01,82.87 158.53,82.87 153.39,81.64 153.39,77.67 163.01,77.67 		"/>
		<linearGradient id="SVGID_32_" gradientUnits="userSpaceOnUse" x1="158.8103" y1="74.8834" x2="181.341" y2="74.0966">
			<stop  offset="0" style="stop-color:#CEC1B8"/>
			<stop  offset="1" style="stop-color:#BFB2A9"/>
		</linearGradient>
		<polygon class="st43" points="173.16,79.37 169.23,81.64 164.09,82.87 158.53,82.87 158.53,66.72 164.09,66.72 169.23,67.95 
			173.16,70.22 175.29,73.19 175.29,76.4 		"/>
		<polygon class="st30" points="173.16,78.46 169.23,80.74 164.09,81.97 158.53,81.97 153.39,80.74 149.46,78.46 147.33,75.5 
			147.33,72.29 149.46,69.32 153.39,67.05 158.53,65.82 164.09,65.82 169.23,67.05 173.16,69.32 175.29,72.29 175.29,75.5 		"/>
		<linearGradient id="SVGID_33_" gradientUnits="userSpaceOnUse" x1="135.4203" y1="63.2697" x2="180.3346" y2="83.2668">
			<stop  offset="0" style="stop-color:#EDE7DE"/>
			<stop  offset="1" style="stop-color:#F9F5EF"/>
		</linearGradient>
		<polygon class="st44" points="169.69,78.03 166.91,79.64 163.28,80.5 159.34,80.5 155.71,79.64 152.93,78.03 151.42,75.93 
			151.42,73.66 152.93,71.56 155.71,69.96 159.34,69.09 163.28,69.09 166.91,69.96 169.69,71.56 171.2,73.66 171.2,75.93 		"/>
		<polygon class="st30" points="168.55,78.49 166.15,79.88 163.01,80.63 159.61,80.63 156.47,79.88 154.07,78.49 152.77,76.68 
			152.77,74.72 154.07,72.91 156.47,71.52 159.61,70.77 163.01,70.77 166.15,71.52 168.55,72.91 169.85,74.72 169.85,76.68 		"/>
	</g>
	<g>
		<path class="st45" d="M117.59,95.19l0,0.31l-0.54-0.31l-0.01,1.83l0.87,1.22l5.4,3.12h0.54l0.3-0.17l6.01,3.47
			c0.37,0,0.75,0,1.12,0l1.06-0.61v-0.34L117.59,95.19z"/>
		<polygon class="st46" points="117.05,95.19 117.04,97.02 117.91,98.23 123.32,101.35 123.89,101.02 130.16,104.65 130.74,104.65 
			131.8,104.04 131.8,103.5 		"/>
		<polygon class="st47" points="124.61,99.55 119.93,97.32 123.32,100.81 123.32,101.35 123.89,101.02 124.16,101.18 123.89,100.48 
			129.82,102.85 130.16,104.11 130.16,104.65 130.74,104.65 131.8,104.04 131.8,103.5 		"/>
		<path class="st45" d="M112.01,98.57l1.99,1.71l0.86,0.58h0.54l0.99-0.25l3.2,1.4l6.9,4.76c0.37,0,0.75,0,1.12,0l1.06-0.61v-0.34
			l-7.7-4.3l-3.12-1.65l0.58-0.77l-1.01-0.5L115,97.16l-0.28,0.16l-0.26-0.16l-0.4,0.23l0.24,0.17l-0.28,0.16l-0.24-0.17l-0.4,0.23
			l0.24,0.17l-0.28,0.16l-0.24-0.17l-0.4,0.23l0.24,0.17l-0.28,0.16l-0.24-0.17L112.01,98.57z"/>
		<polygon class="st46" points="111.47,98.03 114,100.28 114.86,100.86 116.19,100.53 119.04,101.47 126.48,106.77 127.07,106.77 
			128.12,106.16 128.12,105.83 128.12,105.62 119.88,100.99 117.3,99.89 117.89,99.12 117.89,98.57 116.88,98.62 113.51,96.31 
			113.51,96.85 116.25,98.98 115.98,99.13 112.83,96.7 112.83,97.24 115.58,99.37 115.3,99.53 112.15,97.09 112.15,97.64 
			114.89,99.76 114.62,99.92 111.47,97.49 		"/>
		<linearGradient id="SVGID_34_" gradientUnits="userSpaceOnUse" x1="124.4148" y1="106.9455" x2="124.8006" y2="108.0055">
			<stop  offset="0" style="stop-color:#B1A997"/>
			<stop  offset="1" style="stop-color:#9A967A"/>
		</linearGradient>
		<polygon class="st48" points="126.48,106.77 127.07,106.77 128.12,106.16 128.12,105.83 128.12,105.62 119.88,100.99 
			117.72,100.06 126.54,105.26 		"/>
		<linearGradient id="SVGID_35_" gradientUnits="userSpaceOnUse" x1="126.4728" y1="105.1423" x2="127.0659" y2="106.7718">
			<stop  offset="0" style="stop-color:#B1A997"/>
			<stop  offset="1" style="stop-color:#9A967A"/>
		</linearGradient>
		<polygon class="st49" points="126.48,106.77 127.07,106.77 127.07,105.17 126.39,105.17 126.54,105.26 		"/>
		<linearGradient id="SVGID_36_" gradientUnits="userSpaceOnUse" x1="130.1516" y1="103.0197" x2="130.7447" y2="104.6492">
			<stop  offset="0" style="stop-color:#B1A997"/>
			<stop  offset="1" style="stop-color:#9A967A"/>
		</linearGradient>
		<polygon class="st50" points="130.16,104.65 130.74,104.65 130.74,103.05 130.07,103.05 130.21,103.14 		"/>
		<polygon class="st47" points="114.86,100.32 114.86,100.86 116.19,100.53 116.47,100.62 116.19,99.99 116.12,99.58 117.72,100.06 
			117.3,99.89 117.89,99.12 117.89,98.57 116.88,98.62 114.62,99.92 		"/>
		<polygon class="st51" points="111.47,97.49 114,99.74 114.86,100.32 116.19,99.99 119.04,100.93 126.48,106.23 127.07,106.23 
			128.12,105.62 128.12,105.29 119.88,100.45 117.3,99.34 117.89,98.57 116.88,98.08 113.91,96.08 113.51,96.31 116.25,98.43 
			115.98,98.59 113.23,96.47 112.83,96.7 115.58,98.83 115.3,98.99 112.55,96.86 112.15,97.09 114.89,99.22 114.62,99.38 
			111.87,97.25 		"/>
		<polygon class="st52" points="119.04,100.93 126.48,106.23 127.07,106.23 128.12,105.62 128.12,105.29 119.88,100.45 		"/>
		<polygon class="st53" points="117.05,94.64 117.04,96.47 117.91,97.69 123.32,100.81 123.89,100.48 130.16,104.11 130.74,104.11 
			131.8,103.5 131.8,103.16 		"/>
	</g>
	<g>
		<path class="st45" d="M175.07,61.95l0,0.31l-0.54-0.31l-0.01,1.83L175.4,65l5.4,3.12h0.54l0.3-0.17l6.01,3.47
			c0.37,0,0.75,0,1.12,0l1.06-0.61v-0.34L175.07,61.95z"/>
		<polygon class="st46" points="174.53,61.95 174.52,63.78 175.4,65 180.8,68.12 181.37,67.79 187.64,71.41 188.23,71.41 
			189.28,70.8 189.28,70.26 		"/>
		<polygon class="st47" points="182.09,66.32 177.41,64.09 180.8,67.58 180.8,68.12 181.37,67.79 181.64,67.95 181.37,67.25 
			187.3,69.62 187.64,70.87 187.64,71.41 188.23,71.41 189.28,70.8 189.28,70.26 		"/>
		<path class="st45" d="M169.49,65.33l1.99,1.71l0.86,0.58h0.54l0.99-0.25l3.2,1.4l6.9,4.76c0.38,0,0.75,0,1.12,0l1.06-0.61v-0.34
			l-7.7-4.3l-3.12-1.65l0.58-0.77l-1.01-0.5l-2.42-1.46l-0.28,0.16l-0.26-0.16l-0.4,0.23l0.24,0.17l-0.28,0.16l-0.24-0.17l-0.4,0.23
			l0.24,0.17l-0.28,0.16l-0.24-0.17l-0.4,0.23l0.24,0.17l-0.28,0.16l-0.24-0.17L169.49,65.33z"/>
		<polygon class="st46" points="168.95,64.79 171.48,67.04 172.34,67.63 173.67,67.29 176.53,68.24 183.97,73.54 184.55,73.54 
			185.6,72.93 185.6,72.59 185.6,72.39 177.36,67.75 174.79,66.65 175.37,65.88 175.37,65.34 174.36,65.38 170.99,63.07 
			170.99,63.61 173.74,65.74 173.46,65.9 170.31,63.47 170.31,64.01 173.06,66.13 172.78,66.29 169.63,63.86 169.63,64.4 
			172.38,66.53 172.1,66.69 168.95,64.25 		"/>
		<linearGradient id="SVGID_37_" gradientUnits="userSpaceOnUse" x1="181.896" y1="73.7104" x2="182.2818" y2="74.7704">
			<stop  offset="0" style="stop-color:#B1A997"/>
			<stop  offset="1" style="stop-color:#9A967A"/>
		</linearGradient>
		<polygon class="st54" points="183.97,73.54 184.55,73.54 185.6,72.93 185.6,72.59 185.6,72.39 177.36,67.75 175.2,66.83 
			184.02,72.03 		"/>
		<linearGradient id="SVGID_38_" gradientUnits="userSpaceOnUse" x1="183.9541" y1="71.9069" x2="184.5473" y2="73.5368">
			<stop  offset="0" style="stop-color:#B1A997"/>
			<stop  offset="1" style="stop-color:#9A967A"/>
		</linearGradient>
		<polygon class="st55" points="183.97,73.54 184.55,73.54 184.55,71.94 183.87,71.94 184.02,72.03 		"/>
		<linearGradient id="SVGID_39_" gradientUnits="userSpaceOnUse" x1="187.6328" y1="69.7843" x2="188.226" y2="71.4141">
			<stop  offset="0" style="stop-color:#B1A997"/>
			<stop  offset="1" style="stop-color:#9A967A"/>
		</linearGradient>
		<polygon class="st56" points="187.64,71.41 188.23,71.41 188.23,69.82 187.55,69.82 187.7,69.9 		"/>
		<polygon class="st47" points="172.34,67.09 172.34,67.63 173.67,67.29 173.95,67.39 173.67,66.75 173.61,66.35 175.2,66.83 
			174.79,66.65 175.37,65.88 175.37,65.34 174.36,65.38 172.1,66.69 		"/>
		<polygon class="st51" points="168.95,64.25 171.48,66.5 172.34,67.09 173.67,66.75 176.53,67.7 183.97,72.99 184.55,72.99 
			185.6,72.39 185.6,72.05 177.36,67.21 174.79,66.11 175.37,65.34 174.36,64.84 171.4,62.84 170.99,63.07 173.74,65.2 
			173.46,65.36 170.71,63.23 170.31,63.47 173.06,65.59 172.78,65.75 170.03,63.63 169.63,63.86 172.38,65.98 172.1,66.14 
			169.36,64.02 		"/>
		<polygon class="st52" points="176.53,67.7 183.97,72.99 184.55,72.99 185.6,72.39 185.6,72.05 177.36,67.21 		"/>
		<polygon class="st53" points="174.53,61.41 174.52,63.24 175.4,64.46 180.8,67.58 181.37,67.25 187.64,70.87 188.23,70.87 
			189.28,70.26 189.28,69.93 		"/>
	</g>
	<g>
		<polygon class="st45" points="65.14,98.43 65.68,98.43 65.69,96.6 64.82,95.38 59.41,92.26 59.14,92.42 58.87,92.26 58.58,92.44 
			52.57,88.97 52.03,88.97 51.99,88.97 51.45,88.97 50.39,89.58 50.39,89.91 		"/>
		<polygon class="st46" points="65.14,98.43 65.15,96.6 64.28,95.38 58.87,92.26 58.3,92.59 52.03,88.97 51.45,88.97 50.39,89.03 
			50.39,89.91 		"/>
		<polygon class="st53" points="65.14,97.89 65.15,96.06 64.28,94.84 58.87,91.72 58.3,92.05 52.03,88.43 51.45,88.43 50.39,89.03 
			50.39,89.37 		"/>
		<polygon class="st45" points="71.8,95.05 68.73,93.34 67.87,92.75 67.48,92.85 67.33,92.75 66.39,92.99 64.23,91.6 56.25,86.84 
			55.71,86.84 55.67,86.84 55.12,86.84 54.07,87.45 54.07,87.79 62.85,92.08 64.89,93.73 64.3,94.5 65.31,95 68.82,96.46 
			69.36,96.46 69.76,96.22 66.48,94.64 66.51,94.62 69.5,96.07 70.04,96.07 70.44,95.83 67.16,94.25 67.19,94.23 70.18,95.67 
			70.72,95.67 71.12,95.44 67.84,93.86 67.87,93.84 70.86,95.28 71.4,95.28 		"/>
		<polygon class="st46" points="70.32,94.2 68.19,93.34 67.33,92.75 66,93.09 63.15,91.06 55.71,86.3 55.12,86.3 54.07,86.91 
			54.07,87.79 62.31,91.54 64.89,93.73 64.3,93.96 64.3,94.5 65.31,95 68.28,95.92 68.28,95.37 68.96,95.52 68.96,94.98 
			69.64,95.13 69.64,94.59 70.32,94.74 		"/>
		<polygon class="st47" points="65.56,93.81 65.65,94.39 66.44,94.54 66.21,93.94 		"/>
		<polygon class="st47" points="66.24,93.42 66.45,93.9 67.12,94.14 66.89,93.55 		"/>
		<polygon class="st47" points="66.92,93.02 67.13,93.51 67.8,93.75 67.57,93.15 		"/>
		<polygon class="st51" points="70.72,93.96 68.19,92.8 67.33,92.21 66,92.55 63.15,90.52 55.71,86.3 55.12,86.3 54.07,86.91 
			54.07,87.25 62.31,91 64.89,93.19 64.3,93.96 65.31,94.46 68.28,95.37 68.68,95.14 65.94,94.1 66.21,93.94 68.96,94.98 
			69.36,94.75 66.62,93.71 66.89,93.55 69.64,94.59 70.04,94.36 67.3,93.31 67.57,93.15 70.32,94.2 		"/>
		<polygon class="st47" points="68.28,95.37 68.68,95.14 68.68,95.68 68.28,95.92 		"/>
		<polygon class="st47" points="68.96,94.98 69.36,94.75 69.36,95.29 68.96,95.52 		"/>
		<polygon class="st47" points="69.64,94.59 70.04,94.36 70.04,94.9 69.64,95.13 		"/>
		<polygon class="st47" points="70.32,94.2 70.72,93.96 70.72,94.51 70.32,94.74 		"/>
	</g>
	<polygon class="st45" points="122.62,65.19 123.16,65.19 123.17,63.36 122.3,62.15 116.9,59.03 116.63,59.18 116.35,59.03 
		116.06,59.2 110.05,55.73 109.51,55.73 109.47,55.73 108.93,55.73 107.87,56.34 107.87,56.68 	"/>
	<polygon class="st46" points="122.62,65.19 122.63,63.36 121.76,62.15 116.35,59.03 115.79,59.36 109.51,55.73 108.93,55.73 
		107.87,55.8 107.87,56.68 	"/>
	<linearGradient id="SVGID_40_" gradientUnits="userSpaceOnUse" x1="115.5812" y1="57.8844" x2="113.7622" y2="60.7954">
		<stop  offset="0" style="stop-color:#B1A997"/>
		<stop  offset="1" style="stop-color:#9B937F"/>
	</linearGradient>
	<polygon class="st57" points="120.44,63.4 116.35,59.03 115.79,59.36 109.51,55.73 108.93,55.73 107.87,55.8 107.87,56.68 
		120.71,64.09 120.71,64.09 	"/>
	<polygon class="st53" points="122.62,64.65 122.63,62.82 121.76,61.61 116.35,58.49 115.79,58.81 109.51,55.19 108.93,55.19 
		107.87,55.8 107.87,56.14 	"/>
	<polygon class="st58" points="122.28,62.34 121.76,61.61 116.35,58.49 115.79,58.81 109.51,55.19 108.93,55.19 107.87,55.8 
		107.87,56.14 120.44,63.4 	"/>
	<polygon class="st45" points="129.29,61.81 126.22,60.1 125.35,59.52 124.96,59.62 124.81,59.52 123.87,59.76 121.71,58.37 
		113.73,53.61 113.19,53.61 113.15,53.61 112.61,53.61 111.55,54.22 111.55,54.55 120.33,58.85 122.37,60.5 121.78,61.27 
		122.8,61.76 126.3,63.22 126.84,63.22 127.24,62.99 123.96,61.41 123.99,61.39 126.98,62.83 127.52,62.83 127.93,62.6 
		124.64,61.01 124.67,60.99 127.66,62.44 128.2,62.44 128.6,62.2 125.32,60.62 125.35,60.6 128.34,62.04 128.88,62.04 	"/>
	<polygon class="st46" points="127.8,60.96 125.67,60.1 124.81,59.52 123.48,59.85 120.63,57.83 113.19,53.07 112.61,53.07 
		111.55,53.68 111.55,54.55 119.79,58.31 122.37,60.5 121.78,60.72 121.78,61.27 122.8,61.76 125.76,62.68 125.76,62.14 
		126.44,62.29 126.44,61.75 127.12,61.9 127.12,61.35 127.8,61.5 	"/>
	<linearGradient id="SVGID_41_" gradientUnits="userSpaceOnUse" x1="118.8992" y1="55.7306" x2="117.078" y2="58.6451">
		<stop  offset="0" style="stop-color:#B1A997"/>
		<stop  offset="1" style="stop-color:#9B937F"/>
	</linearGradient>
	<polygon class="st59" points="122.5,59.16 120.63,57.83 113.19,53.07 112.61,53.07 111.55,53.68 111.55,54.55 119.79,58.31 
		122.37,60.5 121.78,60.72 121.78,61.27 122.8,61.76 123.61,62.01 123.37,61.4 	"/>
	<polygon class="st47" points="123.69,60.7 123.42,60.86 124.45,61.5 124.22,60.9 	"/>
	<polygon class="st47" points="124.37,60.31 124.1,60.47 125.14,61.11 124.9,60.51 	"/>
	<polygon class="st47" points="125.05,59.92 124.78,60.08 125.82,60.72 125.58,60.12 	"/>
	<polygon class="st51" points="128.2,60.73 125.67,59.56 124.81,58.98 123.48,59.31 120.63,57.28 113.19,53.07 112.61,53.07 
		111.55,53.68 111.55,54.01 119.79,57.77 122.37,59.95 121.78,60.72 122.8,61.22 125.76,62.14 126.16,61.91 123.42,60.86 
		123.69,60.7 126.44,61.75 126.84,61.51 124.1,60.47 124.37,60.31 127.12,61.35 127.52,61.12 124.78,60.08 125.05,59.92 
		127.8,60.96 	"/>
	<polygon class="st58" points="126.16,59.79 125.67,59.56 124.81,58.98 123.48,59.31 120.63,57.28 113.19,53.07 112.61,53.07 
		111.55,53.68 111.55,54.01 119.79,57.77 122.37,59.95 121.78,60.72 122.8,61.22 123.37,61.4 123.95,61.06 123.42,60.86 
		123.69,60.7 124.22,60.9 124.63,60.67 124.1,60.47 124.37,60.31 124.9,60.51 125.31,60.28 124.78,60.08 125.05,59.92 125.58,60.12 
			"/>
	<polygon class="st47" points="125.76,62.14 126.16,61.91 126.16,62.45 125.76,62.68 	"/>
	<polygon class="st47" points="126.44,61.75 126.84,61.51 126.84,62.06 126.44,62.29 	"/>
	<polygon class="st47" points="127.12,61.35 127.52,61.12 127.52,61.66 127.12,61.9 	"/>
	<polygon class="st47" points="127.8,60.96 128.2,60.73 128.2,61.27 127.8,61.5 	"/>
	<linearGradient id="SVGID_42_" gradientUnits="userSpaceOnUse" x1="117.6671" y1="95.8555" x2="119.5675" y2="97.7559">
		<stop  offset="0" style="stop-color:#F1E8DD"/>
		<stop  offset="1" style="stop-color:#F8F0E8"/>
	</linearGradient>
	<polygon class="st60" points="114.95,95.55 117.48,97.8 120.36,96.14 117.4,94.14 116.99,94.37 119.74,96.5 119.46,96.65 
		116.72,94.53 116.31,94.76 119.06,96.89 118.78,97.05 116.03,94.92 115.63,95.16 118.38,97.28 118.1,97.44 115.36,95.31 	"/>
	<linearGradient id="SVGID_43_" gradientUnits="userSpaceOnUse" x1="133.5433" y1="46.6" x2="123.3129" y2="30.8465">
		<stop  offset="0" style="stop-color:#CEC1B8"/>
		<stop  offset="1" style="stop-color:#BFB2A9"/>
	</linearGradient>
	<polygon class="st61" points="126.58,55 123.16,53.03 121.03,50.06 121.03,46.85 123.16,43.88 127.09,41.61 132.23,40.39 
		137.79,40.39 142.93,41.61 146.35,43.59 142.35,47.61 129.93,54.31 129.64,54.26 	"/>
	<linearGradient id="SVGID_44_" gradientUnits="userSpaceOnUse" x1="138.9461" y1="55.5174" x2="128.7652" y2="39.8402">
		<stop  offset="0" style="stop-color:#CEC1B8"/>
		<stop  offset="1" style="stop-color:#BFB2A9"/>
	</linearGradient>
	<polygon class="st62" points="143.57,46.38 142.35,47.61 129.93,54.31 129.64,54.26 129.41,54.2 126.63,52.6 125.12,50.5 
		125.12,48.23 126.63,46.13 129.41,44.52 133.04,43.65 136.98,43.65 140.61,44.52 143.39,46.13 	"/>
	<linearGradient id="SVGID_45_" gradientUnits="userSpaceOnUse" x1="134.2921" y1="49.2463" x2="127.8738" y2="39.3629">
		<stop  offset="0" style="stop-color:#CEC1B8"/>
		<stop  offset="1" style="stop-color:#BFB2A9"/>
	</linearGradient>
	<polygon class="st63" points="130.4,54.5 130.17,54.45 127.77,53.06 126.47,51.25 126.47,49.28 127.77,47.47 130.17,46.08 
		133.31,45.33 136.71,45.33 139.85,46.08 142.25,47.47 142.35,47.61 	"/>
	<g>
		<polygon class="st18" points="54.12,109.82 51.07,108.06 54.12,106.3 62.62,106.3 65.66,108.06 62.62,109.82 		"/>
		<polygon class="st30" points="54.12,101.32 51.07,99.56 54.12,97.8 57.17,99.56 		"/>
		<polygon class="st27" points="54.12,101.32 51.07,99.56 51.07,108.06 54.12,109.82 		"/>
		<linearGradient id="SVGID_46_" gradientUnits="userSpaceOnUse" x1="54.0658" y1="101.1475" x2="57.7437" y2="109.4082">
			<stop  offset="0" style="stop-color:#CABAB0"/>
			<stop  offset="1" style="stop-color:#B9A99E"/>
		</linearGradient>
		<polygon class="st64" points="54.12,101.32 57.17,99.56 57.17,108.06 54.12,109.82 		"/>
	</g>
	<g>
		<polygon class="st18" points="61.09,114.94 58.05,113.19 61.09,111.43 69.59,111.43 72.64,113.19 69.59,114.94 		"/>
		<polygon class="st30" points="61.09,106.45 58.05,104.69 61.09,102.93 64.14,104.69 		"/>
		<polygon class="st27" points="61.09,106.45 58.05,104.69 58.05,113.19 61.09,114.94 		"/>
		<linearGradient id="SVGID_47_" gradientUnits="userSpaceOnUse" x1="61.0402" y1="106.2758" x2="64.7181" y2="114.5364">
			<stop  offset="0" style="stop-color:#CABAB0"/>
			<stop  offset="1" style="stop-color:#B9A99E"/>
		</linearGradient>
		<polygon class="st65" points="61.09,106.45 64.14,104.69 64.14,113.19 61.09,114.94 		"/>
	</g>
	<g>
		<polygon class="st66" points="123.43,84.15 123.43,88.02 110.07,80.3 110.07,76.44 		"/>
		<linearGradient id="SVGID_48_" gradientUnits="userSpaceOnUse" x1="116.1547" y1="74.005" x2="117.4896" y2="89.2629">
			<stop  offset="0" style="stop-color:#433F32"/>
			<stop  offset="1" style="stop-color:#30332B"/>
		</linearGradient>
		<polygon class="st67" points="123.43,84.15 123.43,85.21 110.07,77.5 110.07,76.44 		"/>
		<linearGradient id="SVGID_49_" gradientUnits="userSpaceOnUse" x1="124.5506" y1="78.4258" x2="126.5282" y2="82.145">
			<stop  offset="0" style="stop-color:#433F32"/>
			<stop  offset="1" style="stop-color:#30332B"/>
		</linearGradient>
		<polygon class="st68" points="131.38,79.57 123.43,84.15 123.43,88.02 131.38,83.43 		"/>
		<polygon class="st69" points="132.44,77.67 123.43,82.87 109.01,74.55 118.02,69.35 		"/>
		<linearGradient id="SVGID_50_" gradientUnits="userSpaceOnUse" x1="123.6584" y1="68.2064" x2="125.1538" y2="85.2993">
			<stop  offset="0" style="stop-color:#433F32"/>
			<stop  offset="1" style="stop-color:#30332B"/>
		</linearGradient>
		<polygon class="st70" points="132.44,77.67 127.43,80.57 119.82,76.17 118.16,76.17 116.51,75.22 117.34,74.74 116.22,74.1 
			121.23,71.21 		"/>
		<linearGradient id="SVGID_51_" gradientUnits="userSpaceOnUse" x1="116.2943" y1="67.7799" x2="119.7323" y2="74.2458">
			<stop  offset="0" style="stop-color:#433F32"/>
			<stop  offset="1" style="stop-color:#30332B"/>
		</linearGradient>
		<polygon class="st71" points="130.32,77.67 118.02,70.57 111.13,74.55 123.43,81.65 		"/>
		<linearGradient id="SVGID_52_" gradientUnits="userSpaceOnUse" x1="112.7759" y1="69.1781" x2="115.2522" y2="73.8353">
			<stop  offset="0" style="stop-color:#433F32"/>
			<stop  offset="1" style="stop-color:#30332B"/>
		</linearGradient>
		<polygon class="st72" points="118.02,70.57 111.13,74.55 121.99,80.82 		"/>
		<polygon class="st73" points="112.05,75.08 123.43,81.65 129.4,78.21 118.02,71.63 		"/>
		<polygon class="st74" points="125.98,80.18 129.4,78.21 120.7,73.19 117.28,75.16 118.4,75.8 117.57,76.28 119.22,77.23 
			120.88,77.23 		"/>
		<polygon class="st66" points="123.43,82.87 123.43,84.77 109.01,76.44 109.01,74.55 		"/>
		<linearGradient id="SVGID_53_" gradientUnits="userSpaceOnUse" x1="125.3948" y1="76.4441" x2="127.2035" y2="79.8458">
			<stop  offset="0" style="stop-color:#433F32"/>
			<stop  offset="1" style="stop-color:#30332B"/>
		</linearGradient>
		<polygon class="st75" points="132.44,77.67 123.43,82.87 123.43,84.77 132.44,79.57 		"/>
		<polygon class="st74" points="112.05,75.08 112.58,75.38 118.55,71.94 118.02,71.63 		"/>
		<linearGradient id="SVGID_54_" gradientUnits="userSpaceOnUse" x1="120.1521" y1="79.4707" x2="120.0024" y2="70.8906">
			<stop  offset="0" style="stop-color:#7B6453"/>
			<stop  offset="1" style="stop-color:#655140"/>
		</linearGradient>
		<polygon class="st76" points="119.22,77.23 119.22,70.86 120.88,69.91 120.88,76.28 		"/>
		<polygon class="st77" points="119.22,77.23 119.22,70.86 117.57,69.91 117.57,76.28 		"/>
		<linearGradient id="SVGID_55_" gradientUnits="userSpaceOnUse" x1="118.2304" y1="74.3544" x2="118.5864" y2="70.9669">
			<stop  offset="0" style="stop-color:#7B6453"/>
			<stop  offset="1" style="stop-color:#655140"/>
		</linearGradient>
		<polygon class="st78" points="119.22,75.66 119.22,70.86 117.57,69.91 117.57,74.7 		"/>
		<polygon class="st22" points="133.56,68.77 125.46,73.45 110.91,65.04 119.01,60.37 		"/>
		<polygon class="st79" points="110.91,65.04 125.46,73.44 125.46,77.25 110.91,68.85 		"/>
		<linearGradient id="SVGID_56_" gradientUnits="userSpaceOnUse" x1="121.8554" y1="65.8672" x2="134.0203" y2="77.2111">
			<stop  offset="0" style="stop-color:#AEA569"/>
			<stop  offset="1" style="stop-color:#79714A"/>
		</linearGradient>
		<polygon class="st80" points="133.56,68.77 125.46,73.44 125.46,77.25 133.56,72.57 		"/>
		<polygon class="st79" points="115.62,62.59 128.96,70.29 128.96,74.09 115.62,66.39 		"/>
		<polygon class="st22" points="134.24,67.24 128.96,70.29 115.62,62.59 120.91,59.54 		"/>
		<linearGradient id="SVGID_57_" gradientUnits="userSpaceOnUse" x1="130.0614" y1="71.4016" x2="128.5803" y2="68.2252">
			<stop  offset="0" style="stop-color:#AEA569"/>
			<stop  offset="1" style="stop-color:#79714A"/>
		</linearGradient>
		<polygon class="st81" points="129.74,64.64 134.24,67.24 130.82,69.22 130.3,68.92 128.7,69.84 128.17,69.84 121.38,65.91 
			126.67,62.86 		"/>
		<polygon class="st22" points="132.55,63.9 126.35,67.48 116.81,61.98 123.01,58.4 		"/>
		<linearGradient id="SVGID_58_" gradientUnits="userSpaceOnUse" x1="120.94" y1="71.6774" x2="124.3815" y2="64.923">
			<stop  offset="0" style="stop-color:#AEA569"/>
			<stop  offset="1" style="stop-color:#79714A"/>
		</linearGradient>
		<polygon class="st82" points="128.17,69.84 117.73,63.8 118.64,66.16 128.17,71.66 		"/>
		<polygon class="st79" points="116.81,61.98 126.35,67.48 126.35,69.84 116.81,64.33 		"/>
		<linearGradient id="SVGID_59_" gradientUnits="userSpaceOnUse" x1="128.2483" y1="65.6931" x2="135.9526" y2="77.1153">
			<stop  offset="0" style="stop-color:#AEA569"/>
			<stop  offset="1" style="stop-color:#79714A"/>
		</linearGradient>
		<polygon class="st83" points="134.24,67.24 128.96,70.29 128.96,74.09 134.24,71.04 		"/>
		<linearGradient id="SVGID_60_" gradientUnits="userSpaceOnUse" x1="128.4935" y1="65.0766" x2="130.3433" y2="68.5556">
			<stop  offset="0" style="stop-color:#AEA569"/>
			<stop  offset="1" style="stop-color:#79714A"/>
		</linearGradient>
		<polygon class="st84" points="132.55,63.9 126.35,67.48 126.35,69.84 132.55,66.26 		"/>
		<polygon class="st22" points="135.54,63.28 130.94,65.93 121.17,60.3 125.77,57.64 		"/>
		<polygon class="st79" points="121.17,60.3 130.94,65.93 130.94,68.29 121.17,62.65 		"/>
		<linearGradient id="SVGID_61_" gradientUnits="userSpaceOnUse" x1="132.2799" y1="64.1215" x2="136.2784" y2="71.047">
			<stop  offset="0" style="stop-color:#AEA569"/>
			<stop  offset="1" style="stop-color:#79714A"/>
		</linearGradient>
		<polygon class="st85" points="135.54,63.28 130.94,65.93 130.94,68.29 135.54,65.63 		"/>
	</g>
	<path class="st86" d="M149.22,106.91L166.4,97h-6.15l-5.14,1.23l-3.93,2.27l-2.13,2.97v3.21L149.22,106.91L149.22,106.91z
		 M186.29,85.51l17.18-9.92h-6.15l-5.14,1.23l-3.93,2.27l-2.13,2.97v3.21L186.29,85.51L186.29,85.51z M223.35,64.12l3.66-2.11
		l-3.39-1.96l-0.44,0.62v3.21L223.35,64.12z"/>
	<linearGradient id="SVGID_62_" gradientUnits="userSpaceOnUse" x1="227.9445" y1="47.9125" x2="245.6446" y2="-35.36">
		<stop  offset="0" style="stop-color:#CFB188"/>
		<stop  offset="1" style="stop-color:#B79F73"/>
	</linearGradient>
	<polygon class="st87" points="223.35,64.12 227.01,62 223.62,60.05 223.18,60.67 223.18,63.88 	"/>
	<linearGradient id="SVGID_63_" gradientUnits="userSpaceOnUse" x1="179.1545" y1="66.2286" x2="204.2384" y2="91.3124">
		<stop  offset="0" style="stop-color:#B2AA6B"/>
		<stop  offset="1" style="stop-color:#E9E690"/>
	</linearGradient>
	<polygon class="st88" points="186.11,82.18 197.52,75.6 197.31,75.6 192.18,76.83 188.24,79.1 186.11,82.06 	"/>
</g>
</svg>
