<?xml version="1.0" encoding="utf-8"?>
<!-- Generator: Adobe Illustrator 25.3.1, SVG Export Plug-In . SVG Version: 6.00 Build 0)  -->
<svg version="1.1" id="圖層_1" xmlns="http://www.w3.org/2000/svg" xmlns:xlink="http://www.w3.org/1999/xlink" x="0px" y="0px"
	 viewBox="0 0 240 240" style="enable-background:new 0 0 240 240;" xml:space="preserve">
<style type="text/css">
	.st0{fill:#D6C2AD;}
	.st1{fill:#BA9E86;}
	.st2{fill:#DBC7B2;}
	.st3{fill:#F7F1E6;}
	.st4{fill:#EFE0D3;}
	.st5{fill:#B79D8A;}
	.st6{opacity:0.4;fill:url(#SVGID_1_);}
	.st7{opacity:0.4;fill:url(#SVGID_2_);}
	.st8{opacity:0.2;fill:#BA9E86;}
	.st9{opacity:0.4;fill:url(#SVGID_3_);}
</style>
<g>
	<g>
		<g>
			<polygon class="st0" points="58.75,61.37 22.14,82.51 16.53,47.31 54.39,25.48 			"/>
			<polygon class="st0" points="52.1,24.37 47.89,26.66 56.68,100.87 61.28,102.28 			"/>
			<polygon class="st1" points="55.81,26.38 51.67,28.8 60.04,99.86 64.77,102.43 			"/>
			<polygon class="st1" points="18.75,47.7 14.61,50.12 22.99,121.62 27.72,124.19 			"/>
			<polygon class="st2" points="51.67,28.82 47.89,26.66 52.04,24.23 55.81,26.39 			"/>
			<polygon class="st2" points="14.64,50.13 10.87,47.98 15.01,45.55 18.78,47.7 			"/>
			<polygon class="st0" points="14.64,50.13 10.87,47.99 19.59,121.91 23.36,124.05 			"/>
			<path class="st3" d="M22.58,80.47l29.66-17.12c1.79-2.47,3.14-9.94,2.64-16.48C54.21,37.98,50.95,30,48.4,30.93L18.78,48.04
				L22.58,80.47z"/>
			<path class="st4" d="M18.78,48.04l3.81,32.43C22.58,80.47,29.13,61.02,18.78,48.04z"/>
		</g>
		<g>
			<polygon class="st0" points="96.29,119.18 99.87,121.25 99.87,194.08 96.29,192.01 			"/>
			<polygon class="st1" points="99.87,122.63 103.85,120.41 103.85,191.87 99.87,194.08 			"/>
			<polygon class="st0" points="60.62,100.86 64.2,102.93 64.2,169.99 60.62,167.93 			"/>
			<polygon class="st5" points="64.2,104.5 68.18,102.28 68.18,167.78 64.2,169.99 			"/>
			<polygon class="st1" points="66,140.86 62.42,142.93 62.42,215.77 66,213.7 			"/>
			<polygon class="st0" points="62.42,143.3 58.44,141.08 58.44,213.55 62.42,215.77 			"/>
			<polygon class="st1" points="27.15,118.5 23.57,120.57 23.57,193.4 27.15,191.33 			"/>
			<polygon class="st0" points="23.57,120.93 19.59,118.71 19.59,191.18 23.57,193.4 			"/>
			<polygon class="st0" points="62.42,153.46 19.59,128.73 19.59,118.46 62.42,143.19 			"/>
			<polygon class="st2" points="62.42,143.3 22.66,120.41 64.12,96.47 103.88,119.36 			"/>
			<polygon class="st1" points="103.85,129.02 62.42,152.96 62.42,143.32 103.85,119.37 			"/>
			<path class="st3" d="M66.37,96.78c-1.43-0.82-3.18-0.82-4.6,0l-33.95,19.6c-1.43,0.82-2.3,2.35-2.3,3.99l36.98,21.28l38.56-22.26
				c0-1.65-0.88-3.17-2.31-3.99L66.37,96.78z"/>
			<path class="st4" d="M99.57,116.04l-37.09,21.41l-35.51-20.44c-0.92,0.86-1.46,2.07-1.46,3.36l36.98,21.28l38.56-22.26
				C101.04,118.11,100.49,116.9,99.57,116.04z"/>
		</g>
		<linearGradient id="SVGID_1_" gradientUnits="userSpaceOnUse" x1="10.871" y1="120" x2="103.8824" y2="120">
			<stop  offset="0" style="stop-color:#FFDBA8"/>
			<stop  offset="0.996" style="stop-color:#680009"/>
		</linearGradient>
		<path class="st6" d="M103.88,119.36l-3.27-1.88c-0.11-0.25-0.25-0.49-0.41-0.71c-0.01-0.01-0.01-0.02-0.02-0.03
			c-0.18-0.25-0.38-0.48-0.61-0.7h0l0,0c-0.25-0.24-0.53-0.45-0.84-0.63L66.37,96.78c-0.72-0.42-1.53-0.62-2.34-0.61l-8.22-69.79
			l-0.01,0.01l-1.4-0.8l-0.01-0.1l-0.08,0.05l-2.27-1.3l-4.05,2.37l-0.09,0.05l0,0l0,0l0,0l0.28,2.4l-30.87,17.8l-2.29-1.31
			l-4.14,2.43l3.75,2.14h0l-3.75-2.13l8.72,73.92v6.82v62.46l3.98,2.22l3.58-2.07v-58.24l31.3,18.07v62.39l3.98,2.22L66,213.7
			v-44.71l2.17-1.21v-18.14l28.12-16.25v58.63l3.58,2.07l3.98-2.22v-62.85v-8.61v-1.03L103.88,119.36z M56.55,99.79l-28.74,16.59
			c-0.31,0.18-0.59,0.39-0.84,0.63l0,0c0,0,0,0,0,0c-0.03,0.02-0.06,0.05-0.08,0.07l-4.1-34.95l29.65-17.12L56.55,99.79z"/>
	</g>
	<g>
		<g>
			<polygon class="st1" points="144.01,119.18 140.43,121.25 140.43,194.08 144.01,192.01 			"/>
			<polygon class="st0" points="140.43,122.63 136.45,120.41 136.45,191.87 140.43,194.08 			"/>
			<polygon class="st0" points="179.68,100.86 176.1,102.93 176.1,169.99 179.68,167.93 			"/>
			<polygon class="st5" points="176.1,104.5 172.13,102.28 172.13,167.78 176.1,169.99 			"/>
			<polygon class="st0" points="174.3,140.86 177.88,142.93 177.88,215.77 174.3,213.7 			"/>
			<polygon class="st1" points="177.88,143.3 181.86,141.08 181.86,213.55 177.88,215.77 			"/>
			<polygon class="st0" points="210.08,120.22 213.66,122.28 213.66,195.12 210.08,193.05 			"/>
			<polygon class="st1" points="213.66,122.65 217.64,120.43 217.64,192.9 213.66,195.12 			"/>
			<polygon class="st1" points="177.86,153.44 217.65,130.7 217.66,120.43 177.87,143.17 			"/>
			<polygon class="st2" points="177.88,143.3 217.64,120.41 176.18,96.47 136.42,119.36 			"/>
			<polygon class="st0" points="136.45,129.02 177.88,152.96 177.88,143.32 136.45,119.37 			"/>
			<path class="st3" d="M180.12,95.36c-1.43-0.82-3.18-0.82-4.6,0l-33.95,19.6c-1.43,0.82-2.3,2.35-2.3,3.99l36.98,21.28
				l38.56-22.26c0-1.65-0.88-3.17-2.31-3.99L180.12,95.36z"/>
			<path class="st4" d="M213.33,114.62l-37.09,21.41l-35.51-20.44c-0.92,0.86-1.46,2.07-1.46,3.36l36.98,21.28l38.56-22.26
				C214.79,116.68,214.25,115.48,213.33,114.62z"/>
			<linearGradient id="SVGID_2_" gradientUnits="userSpaceOnUse" x1="136.4191" y1="155.2533" x2="217.6561" y2="155.2533">
				<stop  offset="0" style="stop-color:#FFDBA8"/>
				<stop  offset="0.996" style="stop-color:#680009"/>
			</linearGradient>
			<path class="st7" d="M217.66,120.43l-0.02,0.01v-0.01v-0.02l-3.53-2.04l0.69-0.4c0-1.7-0.96-3.22-2.31-3.99l-32.37-18.63
				c-1.43-0.82-3.18-0.82-4.6,0l-33.95,19.6c-0.93,0.54-1.74,1.48-2.1,2.64l-3.05,1.76l0.03,0.02c0,37.82,0,34.92,0,72.49l3.98,2.22
				l3.58-2.07v-58.63l28.12,16.25v18.14l2.17,1.21v44.71l3.58,2.07l3.98-2.22v-62.4l28.22-16.13v58.03l3.58,2.07l3.98-2.22
				L217.66,120.43z"/>
		</g>
		<g>
			<polygon class="st0" points="225.07,53.83 222.46,51.9 211,121.1 213.62,122.73 			"/>
			<polygon class="st1" points="222.88,84.03 187.35,104.59 191.57,71.76 228.23,50.87 			"/>
			<polygon class="st1" points="193.32,72.08 189.26,74.43 177.82,143.33 181.88,141.02 			"/>
			<polygon class="st1" points="189.29,74.43 186.69,72.49 190.75,70.14 193.35,72.09 			"/>
			<polygon class="st0" points="189.29,74.43 186.68,72.5 175.22,141.71 177.84,143.33 			"/>
			<polygon class="st1" points="229.1,51.48 225.04,53.82 213.58,123.07 217.64,120.76 			"/>
			<polygon class="st1" points="225.07,53.83 222.47,51.88 226.53,49.54 229.13,51.48 			"/>
			<polygon class="st0" points="193.14,73.17 224.82,55.12 225.04,53.82 225.05,53.82 224.19,53.17 192.33,71.33 193.35,72.09 
				193.31,72.11 			"/>
			<polygon class="st8" points="193.14,73.17 187.98,104.22 189.82,103.16 194.97,72.13 			"/>
			<polygon class="st8" points="219.72,85.86 224.83,55.08 223,56.12 217.89,86.92 			"/>
			<linearGradient id="SVGID_3_" gradientUnits="userSpaceOnUse" x1="130.3405" y1="96.4361" x2="221.421" y2="96.4361">
				<stop  offset="0" style="stop-color:#FFDBA8"/>
				<stop  offset="0.996" style="stop-color:#680009"/>
			</linearGradient>
			<polygon class="st9" points="229.13,51.48 226.53,49.54 222.47,51.88 222.46,51.9 222.05,54.39 192.33,71.33 190.75,70.14 
				186.69,72.49 186.68,72.5 175.22,141.71 177.82,143.33 177.82,143.33 177.83,143.33 177.84,143.33 177.84,143.33 181.88,141.02 
				187.98,104.22 216.53,87.7 211,121.1 213.62,122.73 213.58,123.07 217.64,120.76 229.1,51.5 			"/>
		</g>
	</g>
</g>
</svg>
