<?xml version="1.0" encoding="utf-8"?>
<!-- Generator: Adobe Illustrator 25.3.1, SVG Export Plug-In . SVG Version: 6.00 Build 0)  -->
<svg version="1.1" id="圖層_1" xmlns="http://www.w3.org/2000/svg" xmlns:xlink="http://www.w3.org/1999/xlink" x="0px" y="0px"
	 viewBox="0 0 240 240" style="enable-background:new 0 0 240 240;" xml:space="preserve">
<style type="text/css">
	.st0{fill:#6D797E;}
	.st1{fill:#292D2E;}
	.st2{fill:#AAB9BD;}
	.st3{fill:#BCCBCF;}
	.st4{fill:#FAFFFE;}
	.st5{fill:#E8EFEE;}
	.st6{fill:#8C8C8C;}
	.st7{fill:#454545;}
	.st8{fill:#3D3D3D;}
	.st9{fill:#BDC6C5;}
	.st10{fill:#D8DFDE;}
	.st11{fill:#A1AEB0;}
	.st12{fill:#D1DDE0;}
	.st13{fill:#393C3D;}
	.st14{fill:#646768;}
	.st15{fill:#495051;}
	.st16{fill:#444647;}
	.st17{fill:#525657;}
	.st18{fill:#50575A;}
	.st19{fill:#839094;}
	.st20{fill:#869296;}
	.st21{fill:#A9C3C9;}
	.st22{fill:#738287;}
	.st23{fill:#EEFCFF;}
	.st24{fill:#91A0A4;}
	.st25{fill:#97A6AB;}
	.st26{fill:#5F6A6E;}
</style>
<g transform="matrix( 1, 0, 0, 1, -744.4,5557.5) ">
	<g>
		<g id="kitchen_furniture_0_Layer4_7_FILL_2_">
			<path class="st0" d="M868.84-5359.58l-1.76,0.92v26.06l1.76-1.01V-5359.58z"/>
			<path class="st1" d="M868.84-5420.61l-1.76,0.98v58.93l1.76-0.94V-5420.61z"/>
			<path class="st2" d="M868.84-5425.63l-1.72,0.96l-0.04,0.02l-4.46,2.47l-0.18,7.21l2.7-1.53v-2.04l1.94-1.08l1.76-0.98V-5425.63z
				"/>
			<path class="st3" d="M868.84-5448.2l-1.76,1.01v0.41v20.31l1.76-0.99V-5448.2z"/>
			<path class="st4" d="M867.08-5447.19l1.76-1.01l88.51-50.82l-90.62-52.52l-90.92,51.72l90.92,52.82L867.08-5447.19
				 M949.46-5499.33l-1.72,1.01l-81.11,46.7l-81.6-47.34l-1.79-1.05l83.08-47.23L949.46-5499.33z"/>
			<path class="st5" d="M785.03-5498.96l81.6,47.34l81.11-46.7l-81.5-46.93L785.03-5498.96 M929.03-5499.35
				c-0.09,3.31-2.22,6.07-6.37,8.27c-4.14,2.2-9.1,3.2-14.88,2.98c-5.78-0.19-10.67-1.52-14.68-3.99c-4-2.47-5.95-5.37-5.86-8.68
				c0.09-3.31,2.21-6.07,6.36-8.27c4.15-2.2,9.12-3.2,14.9-2.98c5.78,0.19,10.66,1.52,14.67,3.99
				C927.16-5505.56,929.12-5502.66,929.03-5499.35 M847.6-5524.53c0.09-3.31,2.21-6.07,6.36-8.27c4.15-2.2,9.12-3.2,14.9-2.98
				c5.78,0.19,10.66,1.52,14.67,3.99c4.01,2.47,5.97,5.37,5.88,8.68c-0.09,3.31-2.22,6.07-6.37,8.27c-4.14,2.2-9.1,3.2-14.88,2.98
				c-5.78-0.19-10.67-1.52-14.68-4C849.46-5518.32,847.51-5521.21,847.6-5524.53 M814.31-5507.39c3.28-1.73,7.2-2.51,11.77-2.34
				c4.56,0.14,8.42,1.19,11.58,3.14c3.16,1.95,4.71,4.24,4.63,6.87c-0.07,2.62-1.75,4.79-5.02,6.52c-3.28,1.74-7.2,2.53-11.75,2.36
				c-4.56-0.15-8.42-1.21-11.59-3.16c-3.16-1.95-4.7-4.24-4.62-6.85C809.38-5503.48,811.05-5505.65,814.31-5507.39 M838.09-5479.46
				c0.11-4.3,2.85-7.87,8.22-10.72c5.37-2.84,11.8-4.12,19.28-3.85c7.47,0.25,13.79,1.97,18.96,5.17c5.18,3.2,7.72,6.94,7.62,11.24
				c-0.13,4.27-2.88,7.84-8.26,10.69c-5.36,2.86-11.78,4.15-19.26,3.87c-7.47-0.25-13.8-1.97-18.98-5.17
				C840.5-5471.45,837.97-5475.19,838.09-5479.46z"/>
			<path class="st6" d="M846.31-5490.19c-5.37,2.85-8.11,6.43-8.22,10.72c-0.12,4.27,2.41,8.01,7.58,11.22
				c5.18,3.2,11.51,4.92,18.98,5.17c7.48,0.28,13.9-1.01,19.26-3.87c5.37-2.85,8.13-6.42,8.26-10.69c0.11-4.3-2.43-8.04-7.62-11.24
				c-5.17-3.2-11.49-4.92-18.96-5.17C858.11-5494.31,851.68-5493.03,846.31-5490.19 M839.79-5480.37c0.11-4.02,2.67-7.37,7.69-10.05
				c5.03-2.65,11.06-3.85,18.07-3.6c7,0.24,12.92,1.85,17.77,4.85c4.85,2.98,7.23,6.49,7.12,10.53c-0.13,4-2.71,7.33-7.74,10
				c-5.02,2.69-11.03,3.89-18.02,3.62c-7.01-0.23-12.94-1.83-17.79-4.83C842.05-5472.87,839.69-5476.37,839.79-5480.37
				 M826.08-5509.74c-4.57-0.17-8.49,0.62-11.77,2.34c-3.27,1.74-4.94,3.92-5.01,6.53c-0.08,2.62,1.46,4.9,4.62,6.85
				c3.17,1.95,7.04,3.01,11.59,3.16c4.56,0.17,8.48-0.62,11.75-2.36c3.28-1.73,4.95-3.9,5.02-6.52c0.07-2.63-1.47-4.92-4.63-6.87
				C834.5-5508.55,830.64-5509.59,826.08-5509.74 M815.43-5507.41c2.96-1.56,6.5-2.27,10.64-2.11c4.11,0.13,7.59,1.08,10.44,2.84
				c2.85,1.75,4.25,3.82,4.19,6.2c-0.07,2.36-1.59,4.31-4.55,5.88c-2.96,1.57-6.49,2.28-10.6,2.13c-4.12-0.13-7.61-1.08-10.48-2.84
				c-2.85-1.76-4.24-3.83-4.17-6.2C810.97-5503.87,812.48-5505.84,815.43-5507.41 M853.96-5532.8c-4.14,2.2-6.26,4.96-6.36,8.27
				c-0.09,3.31,1.86,6.21,5.86,8.68c4.01,2.47,8.91,3.81,14.68,4c5.78,0.21,10.74-0.78,14.88-2.98c4.15-2.2,6.28-4.96,6.37-8.27
				c0.09-3.31-1.86-6.21-5.88-8.68c-4-2.47-8.89-3.81-14.67-3.99C863.08-5536,858.11-5535,853.96-5532.8 M849.15-5525.18
				c0.09-3.08,2.06-5.63,5.89-7.67c3.85-2.04,8.45-2.96,13.8-2.77c5.35,0.18,9.88,1.41,13.58,3.71c3.72,2.28,5.53,4.97,5.43,8.04
				c-0.08,3.07-2.05,5.62-5.89,7.65c-3.84,2.04-8.43,2.96-13.78,2.77c-5.35-0.18-9.88-1.41-13.6-3.71
				C850.88-5519.44,849.07-5522.12,849.15-5525.18 M922.65-5491.08c4.15-2.2,6.28-4.96,6.37-8.27c0.09-3.31-1.86-6.21-5.88-8.68
				c-4-2.47-8.89-3.81-14.67-3.99c-5.78-0.21-10.74,0.78-14.9,2.98c-4.14,2.2-6.26,4.96-6.36,8.27c-0.09,3.31,1.86,6.21,5.86,8.68
				c4.01,2.47,8.91,3.81,14.68,3.99C913.55-5487.88,918.51-5488.87,922.65-5491.08 M927.43-5500.29c-0.08,3.05-2.04,5.6-5.88,7.63
				c-3.82,2.04-8.4,2.95-13.74,2.75c-5.34-0.17-9.86-1.39-13.56-3.68c-3.69-2.28-5.5-4.96-5.42-8.02c0.09-3.07,2.05-5.61,5.88-7.63
				c3.84-2.04,8.42-2.96,13.76-2.77c5.34,0.18,9.85,1.41,13.55,3.69C925.72-5506.03,927.53-5503.36,927.43-5500.29z"/>
			<path class="st7" d="M847.48-5490.42c-5.02,2.67-7.58,6.02-7.69,10.05c-0.11,4,2.26,7.5,7.1,10.51
				c4.85,2.99,10.78,4.6,17.79,4.83c7,0.27,13-0.94,18.02-3.62c5.03-2.66,7.61-6,7.74-10c0.11-4.04-2.27-7.55-7.12-10.53
				c-4.85-2.99-10.78-4.61-17.77-4.85C858.53-5494.27,852.51-5493.07,847.48-5490.42 M870.92-5475.95
				c-1.66,0.89-3.63,1.29-5.93,1.21c-2.32-0.08-4.27-0.62-5.86-1.6c-1.6-0.99-2.38-2.15-2.34-3.46c0.04-1.33,0.88-2.43,2.54-3.3
				c1.65-0.89,3.63-1.28,5.95-1.19c2.3,0.07,4.24,0.6,5.84,1.58c1.61,0.99,2.39,2.15,2.34,3.46
				C873.42-5477.93,872.57-5476.82,870.92-5475.95 M826.07-5509.52c-4.13-0.15-7.68,0.55-10.64,2.11c-2.95,1.57-4.46,3.54-4.53,5.89
				c-0.07,2.37,1.32,4.43,4.17,6.2c2.86,1.76,6.36,2.71,10.48,2.84c4.11,0.15,7.64-0.56,10.6-2.13c2.96-1.56,4.47-3.52,4.55-5.88
				c0.06-2.38-1.34-4.44-4.19-6.2C833.65-5508.45,830.17-5509.39,826.07-5509.52 M825.73-5498.34c-1.29-0.04-2.39-0.33-3.28-0.89
				c-0.9-0.54-1.34-1.19-1.31-1.94c0.02-0.73,0.5-1.35,1.42-1.85c0.92-0.49,2.04-0.7,3.34-0.66c1.28,0.04,2.37,0.33,3.27,0.89
				c0.89,0.54,1.33,1.19,1.31,1.94c-0.02,0.73-0.5,1.35-1.42,1.85C828.11-5498.5,827.01-5498.28,825.73-5498.34 M855.04-5532.85
				c-3.84,2.04-5.8,4.59-5.89,7.67c-0.08,3.07,1.73,5.74,5.43,8.03c3.72,2.3,8.25,3.53,13.6,3.71c5.35,0.19,9.94-0.73,13.78-2.77
				c3.85-2.04,5.81-4.59,5.89-7.65c0.09-3.08-1.72-5.76-5.43-8.04c-3.7-2.3-8.23-3.53-13.58-3.71
				C863.49-5535.81,858.89-5534.89,855.04-5532.85 M873.86-5527.37c1.43,0.88,2.13,1.91,2.1,3.09c-0.04,1.18-0.79,2.17-2.27,2.95
				s-3.25,1.14-5.31,1.06c-2.06-0.07-3.8-0.55-5.22-1.44c-1.43-0.88-2.13-1.91-2.1-3.09c0.04-1.18,0.79-2.17,2.27-2.95
				c1.48-0.78,3.25-1.14,5.31-1.07C870.7-5528.73,872.44-5528.25,873.86-5527.37 M921.55-5492.66c3.84-2.04,5.79-4.58,5.88-7.63
				c0.09-3.07-1.71-5.74-5.42-8.03c-3.69-2.28-8.21-3.52-13.55-3.69c-5.34-0.19-9.93,0.73-13.76,2.77
				c-3.82,2.02-5.78,4.57-5.88,7.63c-0.08,3.07,1.72,5.74,5.42,8.02c3.7,2.28,8.23,3.51,13.56,3.68
				C913.15-5489.7,917.73-5490.62,921.55-5492.66 M913.28-5497.77c-1.47,0.78-3.23,1.14-5.27,1.07c-2.05-0.07-3.78-0.54-5.18-1.42
				c-1.42-0.86-2.11-1.89-2.08-3.07c0.04-1.17,0.78-2.15,2.24-2.93c1.48-0.77,3.24-1.12,5.29-1.05c2.04,0.06,3.76,0.53,5.18,1.4
				c1.42,0.88,2.11,1.91,2.08,3.09C915.5-5499.52,914.75-5498.55,913.28-5497.77z"/>
			<path class="st8" d="M864.99-5474.74c2.3,0.08,4.27-0.32,5.93-1.21c1.66-0.88,2.5-1.98,2.54-3.3c0.05-1.31-0.73-2.47-2.34-3.46
				c-1.6-0.98-3.55-1.51-5.84-1.58c-2.32-0.09-4.3,0.3-5.95,1.19c-1.66,0.88-2.5,1.98-2.54,3.3c-0.04,1.31,0.75,2.47,2.34,3.46
				C860.71-5475.36,862.67-5474.82,864.99-5474.74 M822.44-5499.23c0.9,0.56,1.99,0.85,3.28,0.89c1.28,0.06,2.39-0.16,3.32-0.66
				c0.92-0.5,1.4-1.11,1.42-1.85c0.01-0.75-0.43-1.39-1.31-1.94c-0.9-0.56-1.99-0.85-3.27-0.89c-1.3-0.05-2.41,0.17-3.34,0.66
				c-0.92,0.5-1.4,1.11-1.42,1.85C821.11-5500.42,821.55-5499.77,822.44-5499.23 M875.96-5524.28c0.04-1.18-0.66-2.21-2.1-3.09
				c-1.42-0.89-3.16-1.37-5.22-1.44c-2.06-0.07-3.83,0.28-5.31,1.07c-1.48,0.78-2.24,1.76-2.27,2.95c-0.04,1.18,0.66,2.21,2.1,3.09
				c1.42,0.89,3.16,1.37,5.22,1.44c2.06,0.07,3.83-0.28,5.31-1.06S875.92-5523.09,875.96-5524.28 M908.01-5496.7
				c2.05,0.07,3.81-0.28,5.27-1.07c1.47-0.78,2.22-1.75,2.26-2.91c0.04-1.18-0.66-2.21-2.08-3.09c-1.42-0.88-3.15-1.34-5.18-1.4
				c-2.05-0.07-3.81,0.28-5.29,1.05c-1.46,0.78-2.2,1.76-2.24,2.93c-0.04,1.18,0.66,2.21,2.08,3.07
				C904.23-5497.25,905.96-5496.78,908.01-5496.7z"/>
			<path class="st9" d="M866.25-5545.25l0.07-1.99l-83.08,47.23l1.79,1.05L866.25-5545.25z"/>
			<path class="st10" d="M947.74-5498.32l1.72-1.01l-83.15-47.9l-0.07,1.99L947.74-5498.32z"/>
			<path class="st11" d="M778.16-5384.94v9.77l90.69,51.7v-9.91l-0.02-0.23l-1.76,1.01L778.16-5384.94z"/>
			<path class="st12" d="M775.98-5386.21l2.18,1.28l88.92,52.34v-26.06l-91.14-51.69L775.98-5386.21 M775.84-5478.79l1.69,0.98
				l89.54,51.37l0.02-0.02v-20.31l-0.36-0.21l-90.92-52.82L775.84-5478.79 M806.23-5475.33c0.01-0.02,0.02-0.04,0.04-0.04
				c0.05-0.01,0.08-0.03,0.11-0.05c0.59-0.31,1.28-0.32,2.08-0.04c0.17,0.06,0.34,0.13,0.51,0.21c0.11,0.05,0.21,0.1,0.32,0.16
				c0.92,0.53,1.72,1.34,2.4,2.43c0.75,1.23,1.12,2.44,1.12,3.64c0,1.2-0.37,2.02-1.12,2.49h-0.04l-0.02,0.04
				c-0.05,0.01-0.08,0.03-0.09,0.05l-3.6,2.04c-0.75,0.49-1.66,0.47-2.73-0.05c-1.07-0.53-1.97-1.41-2.72-2.63
				c-0.75-1.21-1.12-2.41-1.12-3.6s0.37-2.03,1.12-2.5c0.07-0.05,0.15-0.09,0.23-0.14L806.23-5475.33 M799.36-5473.18
				c-0.04,0-0.06,0.01-0.09,0.04l-3.6,2.06c-0.75,0.47-1.66,0.46-2.73-0.05c-1.07-0.54-1.97-1.43-2.72-2.65
				c-0.75-1.2-1.12-2.39-1.12-3.59c0-1.2,0.37-2.04,1.12-2.52c0.08-0.05,0.16-0.09,0.23-0.12l3.52-2.02
				c0.01-0.01,0.03-0.02,0.05-0.02c0.04-0.02,0.07-0.05,0.11-0.07c0.63-0.33,1.36-0.33,2.2,0.02c0.12,0.05,0.24,0.1,0.37,0.16
				c0.14,0.07,0.28,0.15,0.43,0.23c0.88,0.53,1.64,1.33,2.29,2.38c0.75,1.22,1.12,2.43,1.12,3.62c0,1.2-0.37,2.02-1.12,2.49
				L799.36-5473.18 M785.12-5488.63c0.08,0.04,0.17,0.08,0.27,0.12c0.18,0.08,0.35,0.18,0.51,0.28c0.84,0.53,1.57,1.31,2.2,2.33
				c0.75,1.22,1.12,2.43,1.12,3.62c0,1.2-0.37,2.02-1.12,2.49l-0.07,0.04c-0.04,0.01-0.07,0.03-0.09,0.05l-3.59,2.06
				c-0.75,0.47-1.66,0.45-2.73-0.07c-1.07-0.53-1.97-1.41-2.72-2.63c-0.09-0.13-0.18-0.27-0.25-0.43c-0.58-1.05-0.87-2.11-0.87-3.16
				c0-1.05,0.29-1.83,0.87-2.33c0.07-0.07,0.15-0.14,0.25-0.2c0.07-0.05,0.15-0.09,0.23-0.12l3.52-2.02c0-0.01,0.01-0.02,0.04-0.02
				c0.04-0.02,0.07-0.05,0.11-0.07C783.46-5489.02,784.24-5489,785.12-5488.63 M857.67-5447.79c0.11,0.06,0.22,0.12,0.34,0.18
				c0.92,0.53,1.72,1.34,2.38,2.41c0.75,1.23,1.12,2.44,1.12,3.64c0,1.2-0.37,2.02-1.12,2.49h-0.02l-0.04,0.04
				c-0.04,0.01-0.07,0.03-0.09,0.05l-3.6,2.04c-0.75,0.49-1.66,0.47-2.73-0.05c-1.07-0.53-1.97-1.41-2.72-2.63
				c-0.75-1.21-1.12-2.41-1.12-3.6s0.37-2.03,1.12-2.5c0.08-0.05,0.16-0.09,0.23-0.14l3.52-2.01c0.01-0.02,0.03-0.04,0.05-0.04
				c0.04-0.01,0.06-0.03,0.09-0.05c0.62-0.32,1.32-0.33,2.11-0.04C857.35-5447.94,857.51-5447.87,857.67-5447.79 M842.65-5454.98
				c0.65-0.34,1.43-0.33,2.33,0.05c0.08,0.04,0.17,0.08,0.27,0.12c0.18,0.08,0.35,0.18,0.51,0.3c0.84,0.52,1.57,1.28,2.2,2.29
				c0.73,1.23,1.1,2.44,1.1,3.64s-0.37,2.02-1.1,2.49l-0.07,0.04c-0.04,0.01-0.07,0.03-0.09,0.05l-3.59,2.06
				c-0.75,0.47-1.66,0.45-2.73-0.07c-1.08-0.53-1.98-1.41-2.72-2.63c-0.75-1.21-1.12-2.41-1.12-3.6c0-1.2,0.37-2.03,1.12-2.5
				c0.07-0.05,0.15-0.09,0.23-0.14l3.52-2.01c0-0.02,0.01-0.04,0.04-0.04C842.58-5454.94,842.61-5454.96,842.65-5454.98
				 M820.94-5468.4c0.12,0.06,0.24,0.12,0.37,0.2c0.9,0.53,1.68,1.33,2.34,2.4c0.75,1.23,1.12,2.44,1.12,3.64
				c0,1.2-0.37,2.02-1.12,2.47l-0.04,0.02l-0.02,0.04c-0.05,0.01-0.08,0.02-0.09,0.04l-3.6,2.06c-0.75,0.49-1.66,0.47-2.73-0.05
				c-1.07-0.54-1.97-1.42-2.72-2.63c-0.75-1.21-1.12-2.41-1.12-3.6c0-1.2,0.37-2.03,1.12-2.5c0.08-0.06,0.16-0.11,0.23-0.14
				l3.52-2.01c0.01-0.02,0.02-0.04,0.04-0.04c0.05-0.02,0.08-0.04,0.11-0.05c0.6-0.33,1.31-0.34,2.13-0.02
				C820.63-5468.55,820.78-5468.49,820.94-5468.4z"/>
			<path class="st13" d="M775.94-5412.28l1.83,1.05l83.56,47.35c1.88,1.08,3.77,2.15,5.66,3.23c0.02,0.01,0.05,0.03,0.09,0.05v-0.11
				v-58.93l-1.94,1.08v2.04l-2.7,1.53l-86.59-49.43L775.94-5412.28 M787.06-5455.83l1.78,1.01l10.81,6.18l55.88,31.94l-0.09,19.81
				v1.94l-0.07,18.61l-0.02,2.15l-68.29-38.69v-0.04V-5455.83z"/>
			<path class="st14" d="M788.83-5434.88v1.95l66.6,37.98v-1.94L788.83-5434.88 M787.06-5412.92v0.04l68.29,38.69l0.02-2.15
				l-66.46-37.73L787.06-5412.92z"/>
			<path class="st15" d="M788.89-5414.07h0.02l66.46,37.73l0.07-18.61l-66.6-37.98L788.89-5414.07z"/>
			<path class="st16" d="M788.83-5454.82v12.36l10.81-6.18L788.83-5454.82z"/>
			<path class="st17" d="M788.83-5442.46v7.58l66.6,38l0.09-19.81l-55.88-31.94L788.83-5442.46z"/>
			<path class="st18" d="M788.83-5454.82l-1.78-1.01v42.91l1.85-1.15h-0.02l-0.05-18.86v-1.95v-7.58V-5454.82z"/>
			<path class="st19" d="M777.77-5411.23l-1.83,0.89l91.14,51.69l1.76-0.92v-2.06l-1.76,0.94v0.11c-0.04-0.02-0.07-0.04-0.09-0.05
				c-1.89-1.08-3.78-2.15-5.66-3.23L777.77-5411.23z"/>
			<path class="st20" d="M771.4-5466.93l4.46,2.52l86.59,49.43l0.18-7.21l-91.23-52.2V-5466.93z"/>
			<path class="st21" d="M817.1-5466.31c-0.09-0.05-0.19-0.09-0.28-0.12c-0.8-0.32-1.52-0.34-2.13-0.05
				c-0.07,0.04-0.15,0.08-0.23,0.14c-0.75,0.47-1.12,1.31-1.12,2.5c0,1.2,0.37,2.4,1.12,3.6c0.75,1.21,1.65,2.08,2.72,2.63
				c1.08,0.52,1.99,0.54,2.73,0.05c0.69-0.41,1.06-1.13,1.12-2.15c0-0.12,0-0.23,0-0.34c0-1.2-0.37-2.4-1.12-3.62
				c-0.63-1.03-1.37-1.81-2.22-2.33c-0.17-0.09-0.34-0.18-0.51-0.27C817.14-5466.28,817.11-5466.3,817.1-5466.31 M841.32-5452.74
				c-0.89-0.4-1.66-0.45-2.33-0.14c-0.08,0.05-0.16,0.09-0.23,0.14c-0.75,0.47-1.12,1.31-1.12,2.5c0,1.2,0.37,2.4,1.12,3.6
				c0.73,1.22,1.64,2.09,2.72,2.63c1.08,0.52,1.99,0.54,2.73,0.07c0.69-0.43,1.05-1.15,1.1-2.17c0-0.11,0-0.21,0-0.32
				c0-1.2-0.37-2.41-1.1-3.64c-0.59-0.96-1.28-1.7-2.08-2.22c-0.21-0.14-0.43-0.27-0.66-0.37c-0.04-0.02-0.06-0.04-0.07-0.05
				C841.37-5452.72,841.34-5452.73,841.32-5452.74 M857.76-5439.09c0-0.11,0-0.21,0-0.32c0-1.2-0.37-2.41-1.12-3.64
				c-0.64-1.03-1.39-1.81-2.25-2.33c-0.15-0.09-0.31-0.18-0.48-0.27c-0.02-0.02-0.05-0.04-0.07-0.05c-0.11-0.05-0.21-0.09-0.3-0.12
				c-0.8-0.32-1.51-0.34-2.11-0.05c-0.07,0.05-0.15,0.09-0.23,0.14c-0.75,0.47-1.12,1.31-1.12,2.5s0.37,2.4,1.12,3.6
				c0.75,1.22,1.65,2.09,2.72,2.63c1.08,0.52,1.99,0.54,2.73,0.05C857.33-5437.35,857.7-5438.07,857.76-5439.09 M781.63-5486.35
				c-0.04-0.02-0.06-0.04-0.07-0.05c-0.04-0.01-0.07-0.02-0.09-0.04c-0.89-0.4-1.66-0.44-2.33-0.12c-0.08,0.04-0.16,0.08-0.23,0.12
				c-0.09,0.06-0.18,0.12-0.25,0.2c-0.58,0.5-0.87,1.27-0.87,2.33c0,1.05,0.29,2.11,0.87,3.16c0.07,0.15,0.15,0.3,0.25,0.43
				c0.75,1.22,1.65,2.09,2.72,2.63c1.08,0.52,1.99,0.54,2.73,0.07c0.69-0.43,1.06-1.15,1.12-2.17c0-0.11,0-0.21,0-0.32
				c0-1.2-0.37-2.41-1.12-3.64c-0.59-0.96-1.28-1.7-2.08-2.22C782.07-5486.12,781.85-5486.25,781.63-5486.35 M792.86-5479.84
				c-0.07-0.04-0.14-0.06-0.21-0.09c-0.84-0.37-1.57-0.4-2.2-0.09c-0.07,0.04-0.15,0.08-0.23,0.12c-0.75,0.49-1.12,1.33-1.12,2.52
				c0,1.2,0.37,2.39,1.12,3.59c0.75,1.22,1.65,2.1,2.72,2.65c1.08,0.51,1.99,0.53,2.73,0.05c0.69-0.43,1.06-1.15,1.12-2.17
				c0-0.11,0-0.21,0-0.32c0-1.2-0.37-2.4-1.12-3.62c-0.62-1.01-1.34-1.77-2.17-2.29c-0.19-0.12-0.38-0.22-0.57-0.32
				C792.91-5479.83,792.89-5479.84,792.86-5479.84 M802.72-5473.32c-0.08,0.05-0.16,0.09-0.23,0.14c-0.75,0.47-1.12,1.31-1.12,2.5
				s0.37,2.4,1.12,3.6c0.75,1.22,1.65,2.09,2.72,2.63c1.08,0.52,1.99,0.54,2.73,0.05c0.69-0.41,1.06-1.13,1.12-2.15
				c0-0.11,0-0.21,0-0.32c0-1.2-0.37-2.41-1.12-3.64c-0.64-1.04-1.4-1.82-2.27-2.34c-0.15-0.09-0.31-0.18-0.46-0.25
				c-0.04-0.02-0.06-0.04-0.07-0.05c-0.12-0.06-0.23-0.11-0.34-0.14C804.02-5473.59,803.32-5473.6,802.72-5473.32z"/>
			<path class="st22" d="M820.47-5468.6c-0.82-0.32-1.53-0.31-2.13,0.02c-0.02,0.01-0.06,0.03-0.11,0.05
				c-0.01,0-0.02,0.01-0.04,0.04l-3.52,2.01c0.62-0.28,1.33-0.27,2.13,0.05L820.47-5468.6 M823.65-5465.81
				c-0.66-1.06-1.44-1.86-2.34-2.4l-3.62,2.22c0.85,0.52,1.59,1.3,2.22,2.33c0.75,1.22,1.12,2.43,1.12,3.62c0,0.11,0,0.22,0,0.34
				c-0.06,1.02-0.43,1.73-1.12,2.15l3.6-2.06c0.01-0.01,0.04-0.02,0.09-0.04l0.02-0.04l0.04-0.02c0.75-0.45,1.12-1.27,1.12-2.47
				C824.77-5463.37,824.4-5464.58,823.65-5465.81 M847.8-5446c0.02-0.02,0.05-0.04,0.09-0.05l0.07-0.04c0.73-0.46,1.1-1.29,1.1-2.49
				s-0.37-2.41-1.1-3.64c-0.63-1.01-1.36-1.77-2.2-2.29l-3.62,2.22c0.79,0.52,1.49,1.26,2.08,2.22c0.73,1.23,1.1,2.44,1.1,3.64
				c0,0.11,0,0.21,0,0.32c-0.05,1.02-0.41,1.74-1.1,2.17L847.8-5446 M844.98-5454.93c-0.9-0.38-1.67-0.4-2.33-0.05
				c-0.04,0.02-0.07,0.04-0.11,0.05c-0.02,0-0.04,0.01-0.04,0.04l-3.52,2.01c0.66-0.31,1.44-0.26,2.33,0.14L844.98-5454.93
				 M855.08-5447.97c-0.02,0.02-0.05,0.04-0.09,0.05c-0.02,0-0.04,0.01-0.05,0.04l-3.52,2.01c0.6-0.28,1.31-0.27,2.11,0.05
				l3.66-2.18C856.4-5448.3,855.69-5448.29,855.08-5447.97 M860.39-5445.2c-0.66-1.08-1.46-1.88-2.38-2.41l-3.62,2.24
				c0.86,0.52,1.62,1.3,2.25,2.33c0.75,1.23,1.12,2.44,1.12,3.64c0,0.11,0,0.21,0,0.32c-0.06,1.02-0.43,1.73-1.12,2.15l3.6-2.04
				c0.02-0.02,0.05-0.04,0.09-0.05l0.04-0.04h0.02c0.75-0.46,1.12-1.29,1.12-2.49C861.51-5442.75,861.13-5443.97,860.39-5445.2
				 M782.28-5485.98c0.79,0.52,1.49,1.26,2.08,2.22c0.75,1.23,1.12,2.44,1.12,3.64c0,0.11,0,0.21,0,0.32
				c-0.06,1.02-0.43,1.74-1.12,2.17l3.59-2.06c0.02-0.02,0.05-0.04,0.09-0.05l0.07-0.04c0.75-0.46,1.12-1.29,1.12-2.49
				c0-1.2-0.37-2.4-1.12-3.62c-0.63-1.02-1.36-1.79-2.2-2.33L782.28-5485.98 M782.69-5488.61c-0.02,0-0.04,0.01-0.04,0.02
				l-3.52,2.02c0.66-0.32,1.44-0.28,2.33,0.12l3.66-2.18c-0.89-0.38-1.66-0.4-2.33-0.05
				C782.76-5488.66,782.73-5488.63,782.69-5488.61 M794.02-5482.06c-0.02,0-0.04,0.01-0.05,0.02l-3.52,2.02
				c0.63-0.31,1.36-0.28,2.2,0.09l3.68-2.18c-0.84-0.34-1.57-0.35-2.2-0.02C794.09-5482.1,794.05-5482.08,794.02-5482.06
				 M799.27-5473.14c0.02-0.02,0.05-0.04,0.09-0.04l0.05-0.05c0.75-0.46,1.12-1.29,1.12-2.49c0-1.2-0.37-2.4-1.12-3.62
				c-0.65-1.05-1.41-1.85-2.29-2.38l-3.62,2.24c0.83,0.52,1.55,1.28,2.17,2.29c0.75,1.22,1.12,2.43,1.12,3.62c0,0.11,0,0.21,0,0.32
				c-0.06,1.02-0.43,1.74-1.12,2.17L799.27-5473.14 M811.69-5472.65c-0.67-1.09-1.47-1.9-2.4-2.43l-3.62,2.24
				c0.88,0.52,1.63,1.3,2.27,2.34c0.75,1.23,1.12,2.44,1.12,3.64c0,0.11,0,0.21,0,0.32c-0.06,1.02-0.43,1.73-1.12,2.15l3.6-2.04
				c0.01-0.02,0.04-0.04,0.09-0.05l0.02-0.04h0.04c0.75-0.46,1.12-1.29,1.12-2.49C812.8-5470.2,812.43-5471.42,811.69-5472.65
				 M806.27-5475.36c-0.01,0-0.02,0.01-0.04,0.04l-3.52,2.01c0.6-0.28,1.3-0.27,2.08,0.04l3.66-2.17c-0.79-0.28-1.49-0.27-2.08,0.04
				C806.35-5475.39,806.32-5475.37,806.27-5475.36z"/>
			<path class="st23" d="M821.31-5468.21c-0.13-0.07-0.25-0.14-0.37-0.2c-0.15-0.08-0.31-0.15-0.46-0.2l-3.66,2.17
				c0.09,0.04,0.19,0.08,0.28,0.12c0.01,0.01,0.04,0.03,0.07,0.05c0.18,0.08,0.35,0.17,0.51,0.27L821.31-5468.21 M845.76-5454.5
				c-0.17-0.12-0.34-0.22-0.51-0.3c-0.09-0.05-0.18-0.09-0.27-0.12l-3.66,2.18c0.02,0.01,0.05,0.02,0.09,0.04
				c0.01,0.01,0.04,0.03,0.07,0.05c0.22,0.11,0.44,0.23,0.66,0.37L845.76-5454.5 M858.01-5447.61c-0.12-0.06-0.23-0.12-0.34-0.18
				c-0.17-0.08-0.33-0.15-0.48-0.21l-3.66,2.18c0.09,0.04,0.2,0.08,0.3,0.12c0.02,0.01,0.05,0.03,0.07,0.05
				c0.17,0.08,0.33,0.17,0.48,0.27L858.01-5447.61 M785.39-5488.5c-0.09-0.05-0.18-0.09-0.27-0.12l-3.66,2.18
				c0.02,0.01,0.05,0.02,0.09,0.04c0.01,0.01,0.04,0.03,0.07,0.05c0.22,0.11,0.44,0.23,0.66,0.37l3.62-2.24
				C785.74-5488.32,785.57-5488.42,785.39-5488.5 M792.65-5479.93c0.07,0.02,0.14,0.05,0.21,0.09c0.02,0,0.05,0.01,0.07,0.04
				c0.19,0.09,0.38,0.2,0.57,0.32l3.62-2.24c-0.14-0.08-0.28-0.16-0.43-0.23c-0.13-0.06-0.25-0.11-0.37-0.16L792.65-5479.93
				 M804.8-5473.29c0.11,0.04,0.22,0.08,0.34,0.14c0.01,0.01,0.04,0.03,0.07,0.05c0.15,0.07,0.31,0.15,0.46,0.25l3.62-2.24
				c-0.11-0.06-0.21-0.11-0.32-0.16c-0.18-0.08-0.35-0.15-0.51-0.21L804.8-5473.29z"/>
			<path class="st24" d="M775.94-5477.05l-4.55,2.66l91.23,52.2l4.46-2.47v-0.04l0.04,0.02l1.72-0.96v-1.83l-1.76,0.99v0.02h-0.02
				l-89.54-51.37L775.94-5477.05z"/>
			<path class="st25" d="M957.4-5498.98l-0.05-0.04l-88.51,50.82v20.74v1.83v5.02v58.96v2.06v25.98h0.02v0.23v9.91l88.54-52
				V-5498.98 M937.14-5474.17v-3.18l8.88-5.13v3.21L937.14-5474.17 M934.28-5475.7v3.18l-9.77,5.61v-3.16L934.28-5475.7
				 M946.02-5476.23v3.04l-8.88,5.13v-3.04L946.02-5476.23 M946.02-5469.57v3.16l-8.88,5.06v-3.12L946.02-5469.57 M934.28-5462.83
				v3.11l-9.77,5.57v-3.09L934.28-5462.83 M934.28-5469.45v3.04l-9.77,5.63v-3.04L934.28-5469.45 M899.8-5455.97v3.12l-8.72,5.01
				v-3.11L899.8-5455.97 M899.8-5449.71v3.04l-8.72,5.02v-3.02L899.8-5449.71 M888.42-5449.42v3.12l-8.72,5.01v-3.11L888.42-5449.42
				 M888.42-5443.14v3.04l-8.72,5.02v-3.02L888.42-5443.14 M891.09-5435.24v-2.96l8.72-5.01v3L891.09-5435.24 M879.7-5428.74v-2.93
				l8.72-5.01v2.97L879.7-5428.74z"/>
			<path class="st26" d="M879.7-5431.67v2.93l8.72-4.97v-2.97L879.7-5431.67 M891.09-5438.2v2.96l8.72-4.97v-3L891.09-5438.2
				 M888.42-5440.1v-3.04l-8.72,5.04v3.02L888.42-5440.1 M888.42-5446.3v-3.12l-8.72,5.02v3.11L888.42-5446.3 M899.8-5446.67v-3.04
				l-8.72,5.04v3.02L899.8-5446.67 M899.8-5452.85v-3.12l-8.72,5.02v3.11L899.8-5452.85 M934.28-5466.41v-3.04l-9.77,5.63v3.04
				L934.28-5466.41 M934.28-5459.72v-3.11l-9.77,5.59v3.09L934.28-5459.72 M946.02-5466.41v-3.16l-8.88,5.1v3.12L946.02-5466.41
				 M946.02-5473.2v-3.04l-8.88,5.13v3.04L946.02-5473.2 M934.28-5472.52v-3.18l-9.77,5.63v3.16L934.28-5472.52 M937.14-5477.35
				v3.18l8.88-5.1v-3.21L937.14-5477.35z"/>
		</g>
	</g>
</g>
</svg>
