<?xml version="1.0" encoding="utf-8"?>
<!-- Generator: Adobe Illustrator 25.3.1, SVG Export Plug-In . SVG Version: 6.00 Build 0)  -->
<svg version="1.1" id="圖層_1" xmlns="http://www.w3.org/2000/svg" xmlns:xlink="http://www.w3.org/1999/xlink" x="0px" y="0px"
	 viewBox="0 0 240 240" style="enable-background:new 0 0 240 240;" xml:space="preserve">
<style type="text/css">
	.st0{opacity:0.6;fill:#7795B2;}
	.st1{fill:#B8C3DB;}
	.st2{fill:#8A9BB5;}
	.st3{fill:#3E4868;}
	.st4{fill:#4F5B7A;}
	.st5{fill:#F7F9FC;}
	.st6{fill:#222745;}
	.st7{fill:#EDF1F4;}
	.st8{fill:#DFE5FF;}
	.st9{fill:#AEC6D3;}
	.st10{fill:#F0F0F2;}
	.st11{fill:#677C9B;}
	.st12{fill:#99A9C6;}
	.st13{fill:#3A1E45;}
	.st14{fill:#4B4C5B;}
	.st15{fill:#F9B723;}
	.st16{fill:#FFCC4D;}
	.st17{fill:#35A7ED;}
	.st18{fill:#6BC0FF;}
	.st19{fill:#FAFAFC;}
</style>
<g>
	<polygon class="st0" points="169,166.1 146.15,147.29 53.05,204.65 53.05,212.89 91.55,234.55 100.51,234.54 183.79,186 
		177.94,182.16 	"/>
	<polygon class="st1" points="68.38,201.72 159.48,163.45 186.95,182.17 100.57,231.92 64,210.94 	"/>
	<polygon class="st2" points="186.95,52.65 186.95,184.78 154.85,166.1 154.85,84.96 155.09,29.43 	"/>
	<polygon class="st1" points="64,86.83 155.09,43.74 186.95,66.96 100.57,116.71 64,95.73 	"/>
	<polygon class="st2" points="186.95,26.86 186.95,66.96 155.09,43.74 149.72,5.45 	"/>
	<g>
		<g>
			<g>
				<polygon class="st3" points="179.39,35.66 173.31,39.16 173.31,69.17 179.39,65.67 				"/>
				<polygon class="st4" points="173.98,40.17 173.98,67.6 178.72,64.87 178.72,37.43 				"/>
				<polygon class="st3" points="179.38,63.86 173.31,67.36 173.31,69.17 179.38,65.67 				"/>
			</g>
			<polygon class="st4" points="159.56,31.23 165.63,27.72 179.38,35.66 173.31,39.17 			"/>
			<polygon class="st5" points="160.02,30.97 165.2,27.98 178.43,35.66 173.25,38.65 			"/>
			<polygon class="st6" points="173.31,69.17 159.56,56.4 159.56,31.22 173.31,39.16 			"/>
		</g>
		<g>
			<g>
				<polygon class="st3" points="171.86,39.99 165.79,43.5 165.79,73.51 171.86,70 				"/>
				<polygon class="st4" points="166.45,44.5 166.45,71.94 171.19,69.21 171.19,41.77 				"/>
				<polygon class="st3" points="171.85,68.19 165.78,71.7 165.78,73.51 171.85,70 				"/>
			</g>
			<polygon class="st4" points="152.02,35.57 158.1,32.06 171.85,40.01 165.78,43.51 			"/>
			<polygon class="st5" points="152.49,35.31 157.66,32.32 170.9,39.99 165.72,42.98 			"/>
			<polygon class="st6" points="165.78,73.51 152.02,60.74 152.02,35.56 165.78,43.5 			"/>
		</g>
		<g>
			<g>
				<polygon class="st3" points="164.33,44.33 158.25,47.84 158.25,77.85 164.33,74.34 				"/>
				<polygon class="st4" points="158.92,48.84 158.92,76.28 163.66,73.54 163.66,46.11 				"/>
				<polygon class="st3" points="164.32,72.53 158.25,76.03 158.25,77.84 164.32,74.34 				"/>
			</g>
			<polygon class="st4" points="144.5,39.91 150.58,36.4 164.32,44.34 158.25,47.85 			"/>
			<polygon class="st5" points="144.97,39.65 150.14,36.66 163.37,44.33 158.19,47.32 			"/>
			<polygon class="st6" points="158.25,77.85 144.5,65.08 144.5,39.9 158.25,47.84 			"/>
		</g>
		<g>
			<g>
				<polygon class="st3" points="156.8,48.67 150.73,52.18 150.73,82.18 156.8,78.67 				"/>
				<polygon class="st4" points="151.39,53.17 151.39,80.62 156.13,77.88 156.13,50.44 				"/>
				<polygon class="st3" points="156.79,76.87 150.72,80.38 150.72,82.18 156.79,78.67 				"/>
			</g>
			<polygon class="st4" points="136.97,44.25 143.04,40.74 156.79,48.68 150.72,52.19 			"/>
			<polygon class="st5" points="137.44,43.99 142.6,41 155.84,48.67 150.67,51.66 			"/>
			<polygon class="st6" points="150.72,82.18 136.97,69.42 136.97,44.24 150.72,52.18 			"/>
		</g>
		<g>
			<g>
				<polygon class="st3" points="149.27,53.01 143.2,56.52 143.2,86.52 149.27,83.02 				"/>
				<polygon class="st4" points="143.87,57.52 143.87,84.96 148.6,82.22 148.6,54.78 				"/>
				<polygon class="st3" points="149.27,81.21 143.19,84.71 143.19,86.52 149.27,83.02 				"/>
			</g>
			<polygon class="st4" points="129.44,48.58 135.52,45.08 149.27,53.02 143.19,56.52 			"/>
			<polygon class="st5" points="129.91,48.33 135.08,45.34 148.31,53.01 143.14,56 			"/>
			<polygon class="st6" points="143.19,86.52 129.44,73.76 129.44,48.58 143.19,56.52 			"/>
		</g>
		<g>
			<g>
				<polygon class="st3" points="141.74,57.35 135.67,60.85 135.67,90.86 141.74,87.35 				"/>
				<polygon class="st4" points="136.34,61.85 136.34,89.3 141.07,86.56 141.07,59.12 				"/>
				<polygon class="st3" points="141.74,85.54 135.67,89.05 135.67,90.86 141.74,87.35 				"/>
			</g>
			<polygon class="st4" points="121.91,52.92 127.99,49.41 141.74,57.36 135.67,60.86 			"/>
			<polygon class="st5" points="122.38,52.66 127.55,49.67 140.79,57.35 135.61,60.34 			"/>
			<polygon class="st6" points="135.67,90.86 121.91,78.09 121.91,52.92 135.67,60.86 			"/>
		</g>
		<g>
			<g>
				<polygon class="st3" points="134.21,61.68 128.14,65.19 128.14,95.2 134.21,91.69 				"/>
				<polygon class="st4" points="128.8,66.19 128.8,93.63 133.54,90.9 133.54,63.46 				"/>
				<polygon class="st3" points="134.21,89.88 128.14,93.39 128.14,95.2 134.21,91.69 				"/>
			</g>
			<polygon class="st4" points="114.39,57.26 120.46,53.75 134.21,61.69 128.14,65.2 			"/>
			<polygon class="st5" points="114.85,56.99 120.02,54.01 133.26,61.68 128.08,64.67 			"/>
			<polygon class="st6" points="128.14,95.2 114.39,82.43 114.39,57.25 128.14,65.2 			"/>
		</g>
		<g>
			<g>
				<polygon class="st3" points="126.69,66.02 120.61,69.53 120.61,99.54 126.69,96.03 				"/>
				<polygon class="st4" points="121.28,70.53 121.28,97.97 126.02,95.24 126.02,67.8 				"/>
				<polygon class="st3" points="126.68,94.22 120.61,97.72 120.61,99.54 126.68,96.03 				"/>
			</g>
			<polygon class="st4" points="106.86,61.59 112.93,58.09 126.68,66.03 120.61,69.53 			"/>
			<polygon class="st5" points="107.32,61.33 112.49,58.35 125.73,66.02 120.55,69.01 			"/>
			<polygon class="st6" points="120.61,99.54 106.86,91.59 106.86,61.59 120.61,69.53 			"/>
		</g>
		<g>
			<g>
				<polygon class="st3" points="119.16,70.36 113.08,73.87 113.08,103.87 119.16,100.37 				"/>
				<polygon class="st4" points="113.75,74.87 113.75,102.31 118.48,99.57 118.48,72.13 				"/>
				<polygon class="st3" points="119.15,98.56 113.08,102.07 113.08,103.87 119.15,100.37 				"/>
			</g>
			<polygon class="st4" points="99.33,65.93 105.4,62.43 119.15,70.37 113.08,73.87 			"/>
			<polygon class="st5" points="99.8,65.67 104.96,62.69 118.2,70.36 113.03,73.35 			"/>
			<polygon class="st6" points="113.08,103.87 99.33,95.94 99.33,65.93 113.08,73.87 			"/>
		</g>
		<g>
			<g>
				<polygon class="st3" points="111.62,74.7 105.56,78.21 105.56,108.21 111.62,104.71 				"/>
				<polygon class="st4" points="106.22,79.2 106.22,106.65 110.96,103.91 110.96,76.47 				"/>
				<polygon class="st3" points="111.62,102.89 105.55,106.4 105.55,108.21 111.62,104.71 				"/>
			</g>
			<polygon class="st4" points="91.8,70.27 97.87,66.77 111.62,74.71 105.55,78.21 			"/>
			<polygon class="st5" points="92.26,70.01 97.44,67.03 110.67,74.7 105.49,77.69 			"/>
			<polygon class="st6" points="105.55,108.21 91.8,100.27 91.8,70.26 105.55,78.21 			"/>
		</g>
	</g>
	<polygon class="st7" points="186.95,26.86 144.05,53.75 100.57,76.63 63.34,55.21 149.72,5.45 	"/>
	<polygon class="st1" points="63.34,55.21 63.34,213.12 100.57,234.54 102.35,129.17 100.57,76.63 	"/>
	<path class="st8" d="M100.57,114.16v120.39l86.38-49.76V64.39L100.57,114.16z"/>
	<path class="st8" d="M118.15,66.59l-2.61,1.52l-14.98,8.53v40.09l14.98-8.53l2.61-1.52l68.8-39.71V26.87L118.15,66.59z
		 M184.33,65.43l-66.18,38.22l-2.61,1.52l-12.36,7V78.13l12.36-7.01l2.61-1.52l66.18-38.19V65.43z"/>
	<g>
		<polygon class="st9" points="140.88,206.94 103.91,228.28 103.91,194.87 104.86,193.36 140.88,174.5 		"/>
		<g>
			<polygon class="st1" points="141.83,204.46 105.96,226.43 104.86,225.8 104.86,193.36 141.83,172.02 142.93,172.65 			"/>
			<g>
				<polygon class="st10" points="142.93,205.09 105.96,226.43 105.96,193.99 142.93,172.65 				"/>
				<polygon class="st7" points="104.86,193.36 105.96,193.99 142.93,172.65 141.83,172.02 				"/>
				<path class="st0" d="M124.47,195.9c-1.15,0.67-2.08,0.14-2.08-1.2c0-1.32,0.93-2.94,2.09-3.61c1.15-0.67,2.08-0.13,2.08,1.2
					C126.55,193.62,125.62,195.25,124.47,195.9z"/>
				<g>
					<polygon class="st4" points="125.47,190.17 127.53,191.55 125.69,194.61 123.57,193.43 					"/>
					<g>
						<path class="st4" d="M124.48,193.32c-0.75,0.42-1.34,0.08-1.35-0.78c0.02-0.85,0.62-1.88,1.34-2.32
							c0.75-0.42,1.34-0.07,1.35,0.78C125.82,191.86,125.22,192.89,124.48,193.32z"/>
						<path class="st11" d="M126.45,194.89c-1.03,0.58-1.86,0.1-1.85-1.07c0-1.16,0.82-2.59,1.84-3.18
							c1.01-0.59,1.83-0.11,1.85,1.07C128.28,192.87,127.46,194.3,126.45,194.89z"/>
						<path class="st12" d="M126.66,195.01c-1.01,0.59-1.83,0.12-1.83-1.06c0-1.16,0.82-2.6,1.84-3.18
							c1.01-0.59,1.83-0.11,1.83,1.06C128.5,193,127.67,194.43,126.66,195.01z"/>
						<path class="st11" d="M126.66,194.43c-0.73,0.43-1.34,0.08-1.33-0.76c-0.01-0.86,0.59-1.9,1.34-2.32
							c0.73-0.43,1.33-0.08,1.32,0.76C128,192.97,127.4,194,126.66,194.43z"/>
						<path class="st8" d="M126.87,194.55c-0.75,0.42-1.34,0.08-1.35-0.78c0.02-0.84,0.62-1.88,1.34-2.31
							c0.75-0.42,1.34-0.07,1.35,0.78C128.21,193.08,127.61,194.12,126.87,194.55z"/>
					</g>
				</g>
			</g>
		</g>
	</g>
	<g>
		<polygon class="st9" points="181.22,145.02 144.25,166.36 144.25,132.95 145.2,131.44 181.22,112.57 		"/>
		<g>
			<polygon class="st1" points="182.17,142.54 146.3,164.51 145.2,163.88 145.2,131.44 182.17,110.09 183.27,110.73 			"/>
			<g>
				<polygon class="st10" points="183.27,143.17 146.3,164.51 146.3,132.07 183.27,110.73 				"/>
				<polygon class="st7" points="145.2,131.44 146.3,132.07 183.27,110.73 182.17,110.09 				"/>
				<path class="st0" d="M164.81,133.98c-1.15,0.67-2.08,0.13-2.08-1.2c-0.01-1.32,0.93-2.94,2.09-3.61
					c1.15-0.67,2.08-0.13,2.08,1.2C166.9,131.7,165.96,133.33,164.81,133.98z"/>
				<g>
					<polygon class="st4" points="165.81,128.25 167.87,129.63 166.03,132.69 163.92,131.51 					"/>
					<g>
						<path class="st4" d="M164.82,131.4c-0.75,0.42-1.34,0.08-1.35-0.78c0.01-0.84,0.61-1.88,1.34-2.32
							c0.75-0.42,1.34-0.07,1.35,0.78C166.16,129.93,165.56,130.97,164.82,131.4z"/>
						<path class="st11" d="M166.8,132.96c-1.03,0.58-1.85,0.1-1.85-1.07c0-1.16,0.82-2.59,1.84-3.18c1.01-0.59,1.83-0.11,1.85,1.07
							C168.62,130.95,167.8,132.38,166.8,132.96z"/>
						<path class="st12" d="M167.01,133.09c-1.02,0.59-1.83,0.12-1.83-1.06c0-1.16,0.82-2.59,1.84-3.18
							c1.01-0.59,1.83-0.11,1.83,1.06C168.84,131.07,168.02,132.51,167.01,133.09z"/>
						<path class="st11" d="M167,132.5c-0.73,0.43-1.33,0.08-1.32-0.76c-0.01-0.86,0.59-1.89,1.34-2.32
							c0.72-0.43,1.33-0.08,1.33,0.76C168.35,131.04,167.75,132.08,167,132.5z"/>
						<path class="st8" d="M167.21,132.62c-0.75,0.42-1.34,0.08-1.35-0.78c0.02-0.85,0.61-1.88,1.34-2.32
							c0.75-0.42,1.34-0.07,1.35,0.78C168.55,131.16,167.95,132.19,167.21,132.62z"/>
					</g>
				</g>
			</g>
		</g>
	</g>
	<g>
		<polygon class="st9" points="140.88,128.51 103.91,149.86 103.91,116.45 104.86,114.93 140.88,96.07 		"/>
		<g>
			<polygon class="st1" points="141.83,126.03 105.96,148.01 104.86,147.38 104.86,114.93 141.83,93.59 142.93,94.22 			"/>
			<g>
				<polygon class="st10" points="142.93,126.67 105.96,148.01 105.96,115.57 142.93,94.22 				"/>
				<polygon class="st7" points="104.86,114.93 105.96,115.57 142.93,94.22 141.83,93.59 				"/>
				<path class="st0" d="M124.47,117.48c-1.15,0.67-2.08,0.13-2.08-1.2c0-1.32,0.93-2.95,2.09-3.61c1.15-0.66,2.08-0.13,2.08,1.2
					C126.55,115.2,125.62,116.82,124.47,117.48z"/>
				<g>
					<polygon class="st4" points="125.47,111.74 127.53,113.13 125.69,116.19 123.57,115.01 					"/>
					<g>
						<path class="st4" d="M124.48,114.9c-0.75,0.42-1.34,0.08-1.35-0.78c0.02-0.84,0.62-1.88,1.34-2.32
							c0.75-0.42,1.34-0.07,1.35,0.78C125.82,113.43,125.22,114.47,124.48,114.9z"/>
						<path class="st11" d="M126.45,116.46c-1.03,0.58-1.86,0.1-1.85-1.07c0-1.16,0.82-2.6,1.84-3.18c1.01-0.59,1.83-0.11,1.85,1.07
							C128.28,114.45,127.46,115.88,126.45,116.46z"/>
						<path class="st12" d="M126.66,116.58c-1.01,0.59-1.83,0.12-1.83-1.06c0-1.16,0.82-2.6,1.84-3.18
							c1.01-0.59,1.83-0.11,1.83,1.06C128.5,114.57,127.67,116,126.66,116.58z"/>
						<path class="st11" d="M126.66,116c-0.73,0.44-1.34,0.09-1.33-0.76c-0.01-0.86,0.59-1.89,1.34-2.32
							c0.73-0.43,1.33-0.08,1.32,0.77C128,114.54,127.4,115.58,126.66,116z"/>
						<path class="st8" d="M126.87,116.12c-0.75,0.42-1.34,0.08-1.35-0.78c0.02-0.85,0.62-1.88,1.34-2.32
							c0.75-0.42,1.34-0.07,1.35,0.78C128.21,114.66,127.61,115.69,126.87,116.12z"/>
					</g>
				</g>
			</g>
		</g>
	</g>
	<g>
		<polygon class="st9" points="181.22,106.42 144.25,127.76 144.25,94.35 145.2,92.84 181.22,73.97 		"/>
		<g>
			<polygon class="st1" points="182.17,103.94 146.3,125.91 145.2,125.28 145.2,92.84 182.17,71.49 183.27,72.13 			"/>
			<g>
				<polygon class="st10" points="183.27,104.57 146.3,125.91 146.3,93.47 183.27,72.13 				"/>
				<polygon class="st7" points="145.2,92.84 146.3,93.47 183.27,72.13 182.17,71.49 				"/>
				<path class="st0" d="M164.81,95.38c-1.15,0.67-2.08,0.13-2.08-1.2c-0.01-1.32,0.93-2.95,2.09-3.61c1.15-0.67,2.08-0.13,2.08,1.2
					C166.9,93.1,165.96,94.73,164.81,95.38z"/>
				<g>
					<polygon class="st4" points="165.81,89.65 167.87,91.03 166.03,94.09 163.92,92.91 					"/>
					<g>
						<path class="st4" d="M164.82,92.8c-0.75,0.42-1.34,0.08-1.35-0.78c0.01-0.84,0.61-1.88,1.34-2.32
							c0.75-0.42,1.34-0.07,1.35,0.78C166.16,91.33,165.56,92.37,164.82,92.8z"/>
						<path class="st11" d="M166.8,94.36c-1.03,0.58-1.85,0.1-1.85-1.06c0-1.16,0.82-2.6,1.84-3.18c1.01-0.59,1.83-0.12,1.85,1.07
							C168.62,92.35,167.8,93.78,166.8,94.36z"/>
						<path class="st12" d="M167.01,94.48c-1.02,0.59-1.83,0.12-1.83-1.06c0-1.16,0.82-2.59,1.84-3.18
							c1.01-0.59,1.83-0.11,1.83,1.06C168.84,92.47,168.02,93.91,167.01,94.48z"/>
						<path class="st11" d="M167,93.9c-0.73,0.43-1.33,0.08-1.32-0.77c-0.01-0.86,0.59-1.89,1.34-2.31
							c0.72-0.43,1.33-0.08,1.33,0.76C168.35,92.44,167.75,93.48,167,93.9z"/>
						<path class="st8" d="M167.21,94.03c-0.75,0.42-1.34,0.08-1.35-0.78c0.02-0.84,0.61-1.88,1.34-2.31
							c0.75-0.42,1.34-0.07,1.35,0.78C168.55,92.56,167.95,93.6,167.21,94.03z"/>
					</g>
				</g>
			</g>
		</g>
	</g>
	<g>
		<polygon class="st9" points="181.22,183.62 144.25,204.96 144.25,171.55 145.2,170.04 181.22,151.17 		"/>
		<g>
			<polygon class="st1" points="182.17,181.14 146.3,203.11 145.2,202.48 145.2,170.04 182.17,148.69 183.27,149.33 			"/>
			<g>
				<polygon class="st10" points="183.27,181.77 146.3,203.11 146.3,170.67 183.27,149.33 				"/>
				<polygon class="st7" points="145.2,170.04 146.3,170.67 183.27,149.33 182.17,148.69 				"/>
				<path class="st0" d="M164.81,172.58c-1.15,0.67-2.08,0.13-2.08-1.2c-0.01-1.32,0.93-2.95,2.09-3.61
					c1.15-0.67,2.08-0.13,2.08,1.2C166.9,170.3,165.96,171.92,164.81,172.58z"/>
				<g>
					<polygon class="st4" points="165.81,166.85 167.87,168.23 166.03,171.29 163.92,170.11 					"/>
					<g>
						<path class="st4" d="M164.82,170c-0.75,0.42-1.34,0.08-1.35-0.78c0.01-0.85,0.61-1.88,1.34-2.32
							c0.75-0.42,1.34-0.07,1.35,0.78C166.16,168.53,165.56,169.57,164.82,170z"/>
						<path class="st11" d="M166.8,171.56c-1.03,0.58-1.85,0.1-1.85-1.07c0-1.16,0.82-2.59,1.84-3.18c1.01-0.59,1.83-0.12,1.85,1.07
							C168.62,169.55,167.8,170.98,166.8,171.56z"/>
						<path class="st12" d="M167.01,171.68c-1.02,0.59-1.83,0.12-1.83-1.06c0-1.16,0.82-2.6,1.84-3.18
							c1.01-0.59,1.83-0.12,1.83,1.06C168.84,169.68,168.02,171.11,167.01,171.68z"/>
						<path class="st11" d="M167,171.1c-0.73,0.43-1.33,0.08-1.32-0.77c-0.01-0.86,0.59-1.89,1.34-2.32
							c0.72-0.43,1.33-0.08,1.33,0.76C168.35,169.64,167.75,170.68,167,171.1z"/>
						<path class="st8" d="M167.21,171.22c-0.75,0.42-1.34,0.08-1.35-0.78c0.02-0.84,0.61-1.88,1.34-2.32
							c0.75-0.42,1.34-0.07,1.35,0.78C168.55,169.76,167.95,170.8,167.21,171.22z"/>
					</g>
				</g>
			</g>
		</g>
	</g>
	<g>
		<polygon class="st9" points="140.88,182.11 103.91,203.45 103.91,168.52 105.04,161.71 140.88,149.67 		"/>
		<polygon class="st6" points="135.68,135.3 135.68,167.74 105.06,184.5 105.11,152.94 118.98,144.93 120.16,144.25 134.48,135.98 
			135.67,135.31 		"/>
		<polygon class="st7" points="153.32,145.52 153.32,168.31 135.66,158.11 120.14,149.14 120.14,144.25 134.46,135.98 
			135.65,135.31 135.66,135.32 		"/>
		<polygon class="st1" points="155.93,148.38 155.93,171.17 135.66,159.47 114.81,147.32 118.96,144.93 120.14,144.25 
			134.46,135.98 135.66,136.68 153.32,146.88 		"/>
		<g>
			<g>
				<polygon class="st13" points="110.08,179.37 109.85,179.76 110.26,180 110.49,179.6 				"/>
				
					<rect x="129.56" y="137.19" transform="matrix(0.4956 -0.8685 0.8685 0.4956 -53.8226 182.1422)" class="st13" width="0.7" height="0.45"/>
				<path class="st13" d="M130.01,137.25c-0.01-0.24-0.18-0.35-0.4-0.23l-19.47,11.24c-0.22,0.13-0.39,0.43-0.39,0.68l0.01,30.57
					c0,0.25,0.17,0.36,0.39,0.23l19.47-11.23c0.22-0.13,0.4-0.44,0.39-0.68L130.01,137.25z"/>
				<path class="st14" d="M130.4,137.47c-0.01-0.24-0.18-0.34-0.39-0.23l-19.47,11.25c-0.22,0.13-0.39,0.42-0.39,0.68v30.56
					c0,0.25,0.18,0.36,0.39,0.23L130,168.72c0.22-0.13,0.4-0.43,0.39-0.68L130.4,137.47z"/>
			</g>
			<path class="st14" d="M132.38,142.86c0-0.68-0.36-1.31-0.95-1.65c-0.59-0.34-1.31-0.34-1.9,0c-0.59,0.34-0.95,0.97-0.95,1.65
				l0,2.07c0,0.64,0.34,1.22,0.89,1.54c0.55,0.32,1.23,0.32,1.78,0c0.7-0.41,1.13-1.15,1.13-1.96V142.86z"/>
		</g>
		<g>
			<g>
				
					<rect x="113.14" y="181.06" transform="matrix(0.4973 -0.8676 0.8676 0.4973 -100.3046 189.4825)" class="st13" width="0.45" height="0.47"/>
				<polygon class="st13" points="132.74,139.22 133.09,138.61 133.48,138.84 133.13,139.45 				"/>
				<path class="st13" d="M133.21,138.87c-0.01-0.24-0.18-0.34-0.4-0.23l-19.47,11.24c-0.22,0.13-0.39,0.43-0.39,0.68l0.01,30.57
					c-0.01,0.25,0.17,0.35,0.39,0.22l19.47-11.23c0.21-0.13,0.4-0.44,0.39-0.69L133.21,138.87z"/>
				<path class="st12" d="M133.6,139.09c-0.01-0.24-0.18-0.35-0.4-0.23l-19.47,11.25c-0.22,0.12-0.39,0.42-0.39,0.67l0,30.56
					c0,0.25,0.17,0.35,0.39,0.23l19.46-11.23c0.22-0.12,0.4-0.43,0.39-0.68L133.6,139.09z"/>
			</g>
			<path class="st12" d="M135.58,144.48c0-0.68-0.36-1.31-0.95-1.65c-0.59-0.34-1.31-0.34-1.9,0c-0.59,0.34-0.95,0.97-0.95,1.65
				v2.07c0,0.64,0.34,1.22,0.89,1.54c0.55,0.32,1.23,0.32,1.78,0c0.7-0.41,1.13-1.15,1.13-1.96V144.48z"/>
		</g>
		<g>
			<g>
				<polygon class="st13" points="116.81,183.34 116.59,183.74 117,183.98 117.22,183.58 				"/>
				<polygon class="st13" points="136.28,141.58 136.63,140.97 137.02,141.2 136.67,141.81 				"/>
				<path class="st13" d="M136.75,141.23c-0.01-0.25-0.18-0.35-0.4-0.23l-19.47,11.24c-0.21,0.13-0.39,0.43-0.39,0.68l0.01,30.57
					c0,0.25,0.17,0.35,0.39,0.22l19.47-11.23c0.22-0.13,0.4-0.44,0.4-0.68L136.75,141.23z"/>
				<path class="st4" d="M137.14,141.45c0-0.24-0.18-0.34-0.39-0.23l-19.47,11.25c-0.22,0.12-0.39,0.42-0.39,0.67l0,30.56
					c0,0.25,0.18,0.35,0.39,0.23l19.46-11.23c0.22-0.13,0.4-0.43,0.39-0.68L137.14,141.45z"/>
			</g>
			<path class="st14" d="M139.12,146.84c0-0.68-0.36-1.31-0.95-1.65c-0.59-0.34-1.31-0.34-1.9,0c-0.59,0.34-0.95,0.97-0.95,1.64
				v0.95c0,0.51,0.34,0.95,0.83,1.08c0.49,0.13,1-0.09,1.26-0.53c0.7-0.4,1.71,0.95,1.71,0.14V146.84z"/>
		</g>
		<g>
			<g>
				<polygon class="st15" points="120.18,185.08 119.95,185.47 120.36,185.71 120.58,185.32 				"/>
				
					<rect x="139.66" y="142.9" transform="matrix(0.501 -0.8654 0.8654 0.501 -54.004 192.588)" class="st15" width="0.7" height="0.45"/>
				<path class="st15" d="M140.11,142.97c-0.01-0.24-0.18-0.35-0.4-0.23l-19.47,11.24c-0.21,0.13-0.39,0.43-0.39,0.68l0.01,30.57
					c0,0.25,0.17,0.35,0.39,0.22l19.46-11.23c0.22-0.12,0.39-0.43,0.39-0.68L140.11,142.97z"/>
				<path class="st16" d="M140.5,143.19c0-0.24-0.18-0.34-0.39-0.23l-19.47,11.25c-0.22,0.12-0.39,0.42-0.39,0.67l0,30.56
					c0,0.26,0.17,0.36,0.39,0.23l19.46-11.23c0.22-0.12,0.4-0.43,0.39-0.68L140.5,143.19z"/>
			</g>
			<path class="st16" d="M142.48,148.58c0-0.68-0.36-1.31-0.95-1.65c-0.59-0.34-1.31-0.34-1.9,0c-0.59,0.34-0.95,0.97-0.95,1.64
				v2.07c0,0.64,0.34,1.22,0.89,1.54c0.55,0.32,1.23,0.32,1.78,0c0.7-0.41,1.13-1.15,1.13-1.96V148.58z"/>
		</g>
		<g>
			<g>
				
					<rect x="123.27" y="186.75" transform="matrix(0.4997 -0.8662 0.8662 0.4997 -100.1867 200.5231)" class="st13" width="0.45" height="0.47"/>
				<polygon class="st17" points="142.87,144.91 143.22,144.3 143.61,144.53 143.26,145.14 				"/>
				<path class="st17" d="M143.34,144.56c-0.01-0.24-0.18-0.35-0.39-0.23l-19.48,11.24c-0.21,0.13-0.39,0.43-0.39,0.68l0.01,30.57
					c0,0.25,0.17,0.35,0.39,0.22l19.47-11.23c0.22-0.12,0.4-0.44,0.39-0.68L143.34,144.56z"/>
				<path class="st18" d="M143.73,144.78c-0.01-0.24-0.18-0.35-0.4-0.23l-19.47,11.25c-0.22,0.12-0.39,0.42-0.39,0.67l0,30.56
					c0,0.25,0.18,0.35,0.4,0.23l19.46-11.23c0.22-0.13,0.4-0.44,0.39-0.68L143.73,144.78z"/>
			</g>
			<path class="st18" d="M145.71,146.88l-2.85-5.17c-0.59,3.74-0.95,7.77-0.95,8.45l0,2.07c0,0.64,0.34,1.22,0.89,1.54
				c0.55,0.32,1.23-3.09,1.78-6.81l0,0.01c0.05,3.69,0.32,3.9,0.61,3.87C145.48,150.82,145.71,150.58,145.71,146.88z"/>
		</g>
		<polygon class="st7" points="105.06,160.35 105.06,183.14 120.16,191.85 120.16,169.06 		"/>
		<polygon class="st1" points="105.06,161.71 105.06,184.5 118.98,192.54 118.98,169.74 		"/>
		<g>
			<g>
				<polygon class="st1" points="154.83,170.56 118.96,192.54 117.86,191.9 117.86,159.46 154.83,138.12 155.93,138.75 				"/>
				<g>
					<polygon class="st19" points="155.93,171.2 118.96,192.54 118.96,160.09 155.93,138.75 					"/>
					<polygon class="st7" points="117.86,159.46 118.96,160.09 155.93,138.75 154.83,138.12 					"/>
					<path class="st0" d="M137.48,162.01c-1.15,0.67-2.08,0.13-2.08-1.2c-0.01-1.32,0.93-2.95,2.09-3.61
						c1.15-0.67,2.08-0.13,2.07,1.2C139.56,159.72,138.62,161.35,137.48,162.01z"/>
					<g>
						<polygon class="st4" points="138.47,156.27 140.54,157.66 138.7,160.71 136.58,159.53 						"/>
						<g>
							<path class="st4" d="M137.49,159.42c-0.75,0.42-1.34,0.08-1.35-0.78c0.02-0.84,0.61-1.88,1.34-2.31
								c0.75-0.42,1.34-0.07,1.35,0.78C138.82,157.96,138.22,158.99,137.49,159.42z"/>
							<path class="st11" d="M139.46,160.99c-1.03,0.58-1.85,0.1-1.85-1.07c0-1.16,0.82-2.59,1.84-3.18
								c1.01-0.59,1.83-0.11,1.85,1.07C141.29,158.97,140.46,160.41,139.46,160.99z"/>
							<path class="st12" d="M139.67,161.11c-1.02,0.59-1.83,0.12-1.83-1.05c0-1.16,0.82-2.6,1.84-3.18
								c1.01-0.59,1.83-0.12,1.83,1.06C141.51,159.1,140.68,160.53,139.67,161.11z"/>
							<path class="st11" d="M139.67,160.53c-0.73,0.43-1.33,0.08-1.32-0.77c-0.01-0.86,0.59-1.89,1.34-2.32
								c0.72-0.43,1.33-0.08,1.32,0.76C141.01,159.07,140.41,160.1,139.67,160.53z"/>
							<path class="st8" d="M139.88,160.65c-0.75,0.42-1.34,0.08-1.35-0.78c0.02-0.84,0.61-1.88,1.34-2.32
								c0.75-0.42,1.34-0.07,1.35,0.78C141.21,159.19,140.61,160.22,139.88,160.65z"/>
						</g>
					</g>
				</g>
			</g>
		</g>
	</g>
</g>
</svg>
