<?xml version="1.0" encoding="utf-8"?>
<!-- Generator: Adobe Illustrator 25.3.1, SVG Export Plug-In . SVG Version: 6.00 Build 0)  -->
<svg version="1.1" id="圖層_1" xmlns="http://www.w3.org/2000/svg" xmlns:xlink="http://www.w3.org/1999/xlink" x="0px" y="0px"
	 viewBox="0 0 240 240" style="enable-background:new 0 0 240 240;" xml:space="preserve">
<style type="text/css">
	.st0{opacity:0.6;fill:#7795B2;}
	.st1{fill:#A4A1B7;}
	.st2{fill:#BDBACB;}
	.st3{fill:#D0CFDB;}
	.st4{fill:#5D546E;}
	.st5{fill:#DFE5FF;}
	.st6{fill:#F4F5F9;}
	.st7{fill:#E4E4E6;}
	.st8{opacity:0.5;fill:#F7D586;}
	.st9{fill:#F0F2F7;}
</style>
<g>
	<g>
		<path class="st0" d="M220.09,162.22c5.96,3.45,5.96,9.02,0,12.47l-26.13,15.09c-5.96,3.44-15.63,3.44-21.59,0l-26.13-15.08
			c-5.96-3.45-5.96-9.03,0-12.47l26.13-15.09c5.96-3.44,15.63-3.44,21.59,0L220.09,162.22z"/>
		<g>
			<path class="st1" d="M223.12,164.77l-5.6-3.24l-4.77-2.77l-4.15-2.41l-21.2-12.28c-0.21-0.12-0.47-0.23-0.74-0.33v-3.04h-2.29
				v2.66c-2.05-0.1-4.7,0.37-7.23,1.89l0,0c-0.34,0.19-5.95,3.33-12.4,7.04c-0.66,0.38-1.33,0.76-2,1.15
				c-0.41,0.23-0.82,0.47-1.22,0.7c-0.22,0.13-0.43,0.25-0.65,0.38c-0.02,0.01-0.04,0.02-0.06,0.03c-0.68,0.4-1.35,0.79-2.03,1.18
				c-0.09,0.05-0.18,0.1-0.26,0.16c-0.76,0.44-1.51,0.88-2.25,1.31c-1.86,1.1-3.63,2.15-5.19,3.09c-1.81,1.1-3.32,1.98-4.6,2.46
				c-0.1,0.27-1.42,0.82-1.27,1.09c0.25,0.48,1.23,0.98,2.33,0.63c1.5-0.48,3.16-1.29,4.72-2.24c1.43-0.87,3.04-1.83,4.74-2.83
				c0.73-0.43,1.48-0.87,2.24-1.31c0.04-0.03,0.09-0.06,0.14-0.08c0.74-0.44,1.48-0.87,2.23-1.3c1.04-0.61,2.1-1.22,3.13-1.81
				c7.05-4.05,13.44-7.65,13.55-7.7l-0.49-0.88l0.51,0.87c2.23-1.33,4.49-1.65,6.07-1.57v0.02c0.14-0.01,0.28,0,0.42,0.04
				c0.19,0.04,0.39,0.12,0.56,0.26c0.49,0,1,0.22,1.3,0.63v-0.29L208.6,159l3,1.73l4.61,2.68l5.77,3.35
				c1.09,0.62,1.71,1.45,1.71,2.24c0,0.79-0.59,1.56-1.63,2.17c-0.16,0.09-16.81,9.43-26.1,15.06c-1.32,0.8-4.17,2.02-5.19,2.53
				c0.76,0.46,1.68,2.02,4.15,0.67c3.2-1.75,28.09-16.17,28.27-16.28c1.77-1.02,2.78-2.52,2.78-4.14
				C225.98,167.35,224.93,165.81,223.12,164.77z"/>
			<g>
				<path class="st2" d="M212.75,158l-1.15,1.98l-3-1.74l-21.95-12.72l-0.41-0.23c-0.33-0.19-0.98-0.36-1.88-0.41
					c-1.57-0.08-3.83,0.24-6.07,1.57l-1.17-1.96c2.54-1.52,5.18-1.99,7.23-1.89c0.9,0.03,1.68,0.18,2.29,0.39
					c0.28,0.1,0.53,0.21,0.74,0.33l21.2,12.28L212.75,158z"/>
			</g>
			<g>
				<path class="st3" d="M225.98,168.24c0,1.61-1.01,3.12-2.78,4.14c-0.18,0.11-16.79,9.43-26.03,15.04
					c-2.71,1.64-5.29,3.2-7.65,3.2c-0.63,0-1.23-0.11-1.83-0.35c-2.81-1.18-3.32-3.89-3.32-8.79v-41.54h2.29v41.54
					c0,5.45,0.79,6.2,1.91,6.68c1.64,0.68,4-0.63,7.4-2.69c9.29-5.64,25.93-14.97,26.1-15.07c1.05-0.61,1.63-1.38,1.63-2.16
					c0-0.8-0.62-1.62-1.71-2.25l-5.77-3.34l-4.61-2.67l1.15-1.98l4.77,2.77l5.6,3.24C224.93,165.05,225.98,166.59,225.98,168.24z"/>
			</g>
			<g>
				<path class="st3" d="M156.26,156.44c-1.86,1.1-3.63,2.15-5.19,3.09c-3.41,2.06-5.76,3.37-7.4,2.69
					c-1.13-0.47-1.92-1.22-1.92-6.67v-48.51h-2.29v48.51c0,4.91,0.51,7.61,3.32,8.78c0.59,0.24,1.2,0.36,1.83,0.36
					c2.37,0,4.94-1.57,7.64-3.21c1.43-0.87,3.04-1.83,4.74-2.82c1.49-0.88,3.04-1.78,4.61-2.69l-0.73-2.22
					C159.3,154.66,157.75,155.56,156.26,156.44z"/>
				<path class="st2" d="M178.28,146.46l-1.12-1.99c-0.1,0.05-5.83,3.26-12.43,7.06c-1.27,0.72-2.57,1.48-3.87,2.23l0.73,2.22
					c1.04-0.61,2.1-1.22,3.13-1.81C171.78,150.11,178.17,146.52,178.28,146.46z"/>
			</g>
			<path class="st3" d="M223.87,126.85c0,0-16.31,9.56-25.47,15.37c-4.73,2.99-7.7,3.86-10.79,1.73c0,0.01-44.97-27.45-44.97-27.45
				c-0.01-0.01-0.02-0.03-0.02-0.04c1.31-1.74,6.15-1.14,8.34-2.46c0.02-0.01-0.53-0.27-0.5-0.28l30.42-14.54
				c0.81-0.48,1.8-0.8,2.84-0.91c1.81-0.24,3.77,0.07,5.16,0.91l34.93,21.15C226.73,122.09,226.8,125.09,223.87,126.85z"/>
			<path class="st4" d="M223.87,124.44c0,0-16.31,9.56-25.47,15.37c-4.73,2.99-7.7,3.86-10.79,1.73c0,0.01-45.07-27.15-45.07-27.15
				c-0.01-0.01-0.01-0.02-0.02-0.04c1.31-1.74,6.24-1.43,8.43-2.74c0.02-0.03-0.53-0.28-0.5-0.29l30.42-14.55
				c0.81-0.49,1.8-0.8,2.84-0.92c1.81-0.23,3.77,0.07,5.16,0.92l34.93,21.15C226.73,119.68,226.8,122.67,223.87,124.44z"/>
			<path class="st5" d="M223.87,124.44c0,0-16.31,9.56-25.47,15.37c-4.73,2.99-7.7,3.86-10.79,1.73c0,0.01-45.07-27.15-45.07-27.15
				c-0.01-0.01-0.01-0.02-0.02-0.04c1.31-1.74,6.24-1.43,8.43-2.74c0.02-0.03-0.53-0.28-0.5-0.29l30.42-14.55
				c0.81-0.49,1.8-0.8,2.84-0.92c1.81-0.23,3.77,0.07,5.16,0.92l34.93,21.15C226.73,119.68,226.8,122.67,223.87,124.44z"/>
			<g>
				<path class="st6" d="M223.8,117.92l-34.93-21.15c-1.09-0.66-2.53-0.99-3.97-0.99c-0.39,0-0.79,0.03-1.18,0.08
					c-1.03,0.12-2.03,0.43-2.84,0.92l-30.42,14.55c-0.02,0.01,0.53,0.26,0.5,0.29c-2.19,1.31-7.13,1-8.43,2.74
					c0,0.02,0.01,0.03,0.02,0.04c0,0,45.06,27.15,45.07,27.15c1.16,0.8,2.31,1.19,3.54,1.19c2.04,0,4.29-1.05,7.25-2.91
					c9.17-5.81,25.47-15.37,25.47-15.37C226.8,122.67,226.73,119.68,223.8,117.92z M222.36,121.64c-0.16,0.1-16.46,9.66-25.56,15.42
					c-1.06,0.67-2.15,1.32-3.29,1.82c-1.08,0.48-2.02,0.55-3.19,0.58c-1.89,0.06-4.04-0.55-5.23-2.19c-0.3-0.42-0.55-0.91-0.75-1.4
					c-7.55-4.55-22.6-13.62-34.13-20.57c0.8-0.22,1.57-0.51,2.26-0.92l0.1-0.06l0.09-0.07l1.47-1.03l-0.01-0.14l28.02-13.4
					l0.13-0.06l0.12-0.07c0.43-0.25,1.01-0.44,1.68-0.51c0.26-0.03,0.54-0.05,0.81-0.05c0.95,0,1.86,0.21,2.44,0.56l34.94,21.15
					c0.35,0.22,0.54,0.4,0.63,0.52C222.81,121.31,222.65,121.46,222.36,121.64z"/>
			</g>
			<path class="st6" d="M143.68,113.56c-0.01-0.02-0.02-0.02-0.02-0.04c-0.39-0.54-0.72-1.12-1.01-1.71c0-0.02-0.01-0.02-0.02-0.03
				c-1.65-3.26-2.27-6.99-2.27-10.96c0.01-3.42-0.05-6.69-0.27-8.58c-0.81-7.18-7.36-26.83-7.63-27.78
				c-0.7-2.53,0.24-7.41,5.59-4.27c6.76,3.96,32.04,19.98,35.62,22.07c3.57,2.07,4.47,6,4.47,6c0.26,0.97,0.55,2.07,0.86,3.26
				c2.21,8.47,5.5,21.66,6.22,27.95c0.22,1.89,0.28,5.16,0.27,8.58c0,3.97,0.62,7.71,2.28,10.96c0.01,0.01,0.02,0.36,0.02,0.37
				C188.06,139.96,143.68,113.56,143.68,113.56z"/>
			<path class="st3" d="M187.86,143.51l-45.22-27.02c-0.01-0.01-0.74-1.16-1.04-1.75c0-0.01,0-0.03-0.02-0.03
				c-1.65-3.25-2.27-7-2.27-10.97c0.01-3.41-0.05-6.69-0.27-8.58c-0.14-1.24-0.41-2.88-0.78-4.74c-1.73-8.92-5.4-23-5.62-23.78
				c-0.71-2.53-0.99-6.67,4.36-3.53c6.76,3.97,32.05,19.99,35.63,22.07c3.57,2.07,4.47,6,4.47,6c0.26,0.97,0.54,2.07,0.85,3.26
				c1.75,6.7,4.18,16.36,5.48,23.22c0.34,1.81,0.6,3.42,0.75,4.74c0.22,1.88,0.28,5.16,0.27,8.58c0,3.97,0.56,9.84,5.35,11.57
				C189.81,142.57,187.86,143.51,187.86,143.51z"/>
			<path class="st7" d="M183.16,116.36L138,89.11c-1.73-8.91-5.4-23-5.62-23.77c-0.71-2.53-0.99-6.67,4.36-3.53
				c6.76,3.97,32.04,20,35.62,22.07c3.58,2.07,4.48,6,4.48,6c0.26,0.97,0.54,2.08,0.85,3.26
				C179.44,99.83,181.87,109.5,183.16,116.36z"/>
			<path class="st2" d="M216.2,162.49c0,0.05,0,0.11,0,0.16l-4.61-2.67l-3-1.74v-2.65l4.15,2.41l4.77,2.77
				C216.77,160.95,216.2,161.65,216.2,162.49z"/>
			<path class="st2" d="M164.73,151.53v2.64c-2.58,1.48-5.26,3.04-7.74,4.5c0.09-0.22,0.14-0.44,0.14-0.68
				c0-0.66-0.35-1.23-0.87-1.54C159,154.83,161.94,153.12,164.73,151.53z"/>
		</g>
	</g>
	<g>
		<path class="st0" d="M95.33,160.79c5.96,3.45,5.96,9.03,0,12.47l-26.13,15.09c-5.96,3.44-15.63,3.44-21.59,0l-26.13-15.09
			c-5.96-3.44-5.96-9.03,0-12.47L47.6,145.7c5.96-3.44,15.63-3.44,21.59,0L95.33,160.79z"/>
		<g>
			<path class="st2" d="M21.67,169.93c0.07-0.69,0.44-1.4,1.08-2.09c0.35-0.38,4.63-2.84,9.51-5.61c1.08-0.62,2.18-1.25,3.28-1.87
				c0,0,0,0,0,0l0,0c1.04-0.59,2.08-1.18,3.08-1.75c0.02-0.01,0.05-0.03,0.08-0.05c0.67-0.38,1.32-0.76,1.96-1.12
				c0.89-0.51,1.72-0.99,2.49-1.43l3.47-0.14c-1.29,0.8-21.47,13.05-22.3,13.64c-0.26,0.31-0.37,0.56-0.38,0.69
				c-0.02,0.16,0.26,0.44,0.68,0.68c0.01,0,0.01,0.01,0.01,0.01l0.25,0.15c3.05,1.76,32.03,18.49,32.03,18.5
				c0.6,0.35,1.52,0.55,2.47,0.55c0.94,0,1.87-0.2,2.5-0.57l3.78-2.1c7.05-3.92,20.01-11.13,20.91-11.63
				c0.97-0.62,1.83-1.23,2.61-1.81l2.88-0.18c-1.3,1.25-2.44,2.75-5.97,4.73c-1.11,0.62-17.74,10.02-23.11,13
				c-0.99,0.57-2.29,0.85-3.6,0.85c-1.31,0-2.62-0.28-3.6-0.85l-32.3-18.65C22.15,172.09,21.55,171.04,21.67,169.93z"/>
			<path class="st3" d="M55.39,142.15c0.3-0.76,0.52-1.54,0.71-2.35c0.76,0.1,1.53,0.16,2.3,0.22c-0.23,1.04-0.51,2.03-0.87,2.96
				l-0.05,0.13l-0.06,0.11l-1.52,2.9c-1.48,3.72-4.09,6.68-7.76,8.81c-1.02,0.68-3.86,2.33-7.47,4.38
				c-0.41,0.24-0.84,0.48-1.27,0.72c-0.41-0.65-0.81-1.3-1.21-1.95c0.85-0.48,1.69-0.96,2.48-1.41c3.04-1.73,5.47-3.14,6.25-3.68
				c3.53-2.03,5.69-4.73,6.9-7.82L55.39,142.15z"/>
			<path class="st7" d="M21.67,169.17c0.07-0.69,0.44-1.41,1.08-2.09c0.35-0.39,4.63-2.84,9.51-5.61c1.08-0.62,2.18-1.25,3.28-1.87
				c0.4,0.65,0.8,1.3,1.21,1.95c-0.06,0.03-0.12,0.07-0.18,0.1c-1.16,0.67-2.43,1.38-3.69,2.11c-3.87,2.19-7.72,4.41-8.55,5
				c-0.26,0.31-0.37,0.56-0.38,0.69c-0.02,0.16,0.26,0.44,0.68,0.69c0.01,0,0.01,0,0.01,0l0.25,0.15
				c3.05,1.76,32.03,18.49,32.03,18.5c0.6,0.34,1.52,0.55,2.47,0.55c0.94,0,1.87-0.21,2.5-0.57l3.78-2.1
				c7.05-3.92,20.01-11.14,20.91-11.63c8.03-5.09,8.91-9.16,8.91-16.59c-0.03-10.37-0.04-34.57,0.02-41.97l-27.78-16.03
				c-0.28-0.17-0.61-0.25-0.94-0.25c-0.23,0-0.45,0.04-0.65,0.13l-0.09,0.05l-0.04,0l-0.04,0.03c-0.05,0.02-0.1,0.05-0.15,0.08
				l-0.06,0.04l-0.06,0.03l-0.06,0.03l-0.19,0.19c-0.22,0.23-0.39,0.51-0.46,0.81c-1.95,7.1-5.12,20.16-5.78,25.65
				c-0.12,1.01-0.27,3.27-0.22,8.22v0.11c-0.02,0.51-0.07,1-0.11,1.5c-0.76-0.04-1.52-0.11-2.27-0.21c0.04-0.45,0.08-0.91,0.1-1.37
				c-0.03-3.33,0.01-6.68,0.24-8.52c0.67-5.64,3.82-18.6,5.83-25.97c0.19-0.68,0.56-1.31,1.05-1.81l-0.21-0.1l1.02-0.54
				c0.14-0.08,0.29-0.17,0.43-0.23l0.08-0.04c0.02-0.01,0.04-0.02,0.06-0.03c0.51-0.21,1.05-0.32,1.58-0.32
				c0.72,0,1.44,0.19,2.08,0.56l28.94,16.7c-0.08,4.97-0.07,31.5-0.04,43.28c0,8.05-1.1,12.92-10.03,18.55
				c-0.02,0.01-19.39,10.8-24.76,13.78c-0.99,0.57-2.29,0.85-3.6,0.85c-1.31,0-2.62-0.28-3.6-0.85l-32.3-18.66
				C22.15,171.33,21.55,170.28,21.67,169.17z"/>
			<path class="st7" d="M13.97,124.52v2.12h0.01c-0.08,1.18,0.63,2.37,2.19,3.26l35.8,20.68c2.2,1.26,5.8,1.26,8,0l10.37-5.77
				l1.15-0.64l0.75-0.41l0.78-0.43l0.76-0.43l13.56-7.54c0.02-0.01,0.05-0.02,0.07-0.04c9.89-6.25,11.12-11.65,11.12-20.56
				c0-2.33,0.07-4.91,0.21-6.86c0.02-0.37,0.05-0.72,0.07-1.03c0.03-0.31,0.05-0.58,0.08-0.83c0-0.05,0.01-0.11,0.02-0.15
				c0.02-0.18,0.04-0.36,0.06-0.55c0.07-0.52,0.15-1.1,0.26-1.72c1.19-7.26,4.4-20.19,6.37-27.35c0.8-2.91-0.98-5.99-3.61-7.5
				L66.49,48.26c-1.24-0.71-2.74-0.82-4.06-0.27c-0.03,0.01-0.04,0.02-0.07,0.03l-0.09,0.05c-0.16,0.06-0.33,0.16-0.48,0.25
				l-1.14,0.6l0.24,0.11c-0.55,0.55-0.95,1.24-1.16,2c-2.24,8.18-5.73,22.55-6.48,28.8c-0.24,2.04-0.29,5.76-0.26,9.45
				c-0.1,2.63-0.54,5.13-1.44,7.43l-1.76,3.34c-1.34,3.44-3.72,6.42-7.64,8.68c-0.05,0.03-0.11,0.07-0.16,0.11l-25.83,14.92
				c-0.42,0.23-0.76,0.49-1.06,0.77H13.97z"/>
			<path class="st5" d="M55.97,149.07c1.49,0,2.88-0.33,3.92-0.93l27.31-15.77c3-1.73,5.27-4.01,6.75-6.78
				c1.54-2.89,2.28-6.3,2.28-10.46c-0.01-3.87,0.08-6.64,0.27-8.24c0.76-6.39,4.77-21.49,7.08-29.9c0.78-2.85-0.46-5.88-3.02-7.35
				l-35.51-20.5c-0.68-0.39-1.45-0.6-2.23-0.6c-0.59,0-1.15,0.11-1.7,0.33c-1.27,0.52-2.25,1.62-2.61,2.95
				c-2.24,8.18-6.1,22.82-6.85,29.05c-0.21,1.74-0.3,4.92-0.26,9.42c-0.29,7.55-3.28,12.86-9.15,16.25l-0.16,0.11l-25.84,14.91
				c-1.37,0.79-2.12,1.84-2.12,2.94c0,1.11,0.75,2.16,2.12,2.95l35.8,20.68C53.09,148.74,54.48,149.07,55.97,149.07z"/>
			<path class="st8" d="M52.38,75.74l2.81,1.62l39.52,22.83l2.8,1.62c1.54-7.51,4.48-18.48,6.2-24.78c0.8-2.92-0.47-6.01-3.09-7.52
				L65.12,49c-0.7-0.41-1.51-0.62-2.3-0.62c-0.59,0-1.2,0.12-1.75,0.34c-1.32,0.55-2.32,1.67-2.7,3.05
				C56.61,58.17,53.86,68.54,52.38,75.74z"/>
			<path class="st9" d="M51.54,80.56l45.13,26.07c0.85-6.62,4.88-21.75,7.05-29.6c0.8-2.93-0.48-6.02-3.09-7.52L65.12,49
				c-1.24-0.71-2.74-0.81-4.06-0.27c-1.33,0.54-2.32,1.67-2.7,3.05C56.15,59.82,52.37,74.16,51.54,80.56z"/>
			<path class="st9" d="M16.17,127.6l35.8,20.67c2.2,1.27,5.8,1.27,8,0l27.23-15.73c0.02-0.01,0.05-0.02,0.07-0.04
				c0.45-0.26,0.87-0.52,1.27-0.79l-45.14-26.07c-0.39,0.27-0.8,0.53-1.23,0.77c-0.05,0.04-0.11,0.07-0.16,0.11l-25.83,14.92
				C13.24,123.13,13.24,125.9,16.17,127.6z"/>
			<g>
				<path class="st6" d="M16.17,127.6l35.81,20.67c1.1,0.64,2.54,0.95,3.99,0.95c1.45,0,2.9-0.31,4-0.95l27.23-15.73
					c0.02,0,0.05-0.02,0.07-0.03c3.2-1.85,5.38-4.17,6.8-6.85c0-0.02,0.01-0.03,0.01-0.03c1.66-3.11,2.28-6.7,2.28-10.5
					c-0.01-3.27,0.05-6.4,0.26-8.21c0.16-1.35,0.47-3.11,0.88-5.11c1.54-7.51,4.48-18.48,6.2-24.78c0.8-2.92-0.47-6.01-3.09-7.52
					L65.12,49c-0.7-0.41-1.51-0.62-2.3-0.62c-0.59,0-1.2,0.12-1.75,0.34c-1.32,0.55-2.32,1.67-2.7,3.05
					c-1.75,6.39-4.5,16.76-5.97,23.96c-0.41,2-0.72,3.77-0.89,5.12c-0.24,2.04-0.29,5.75-0.25,9.45c-0.26,6.54-2.55,12.33-9.08,16.1
					c-0.06,0.04-0.11,0.07-0.17,0.1l-25.83,14.92C13.23,123.13,13.23,125.9,16.17,127.6z M17.15,124.52
					c0.1-0.11,0.28-0.25,0.56-0.41l25.83-14.91l0.03-0.02l0.03-0.01c0.05-0.03,0.11-0.07,0.16-0.1
					c6.67-3.89,10.23-10.16,10.55-18.63l0.01-0.08v-0.07c-0.05-5.46,0.1-7.94,0.23-9.05c0.13-1.05,0.35-2.37,0.65-3.86
					c1.37-7.05,4.3-18.09,6.13-24.78c0.12-0.45,0.46-0.83,0.9-1.01c0.19-0.08,0.38-0.11,0.59-0.11c0.27,0,0.54,0.07,0.77,0.21
					l35.51,20.49c1.41,0.81,2.09,2.48,1.66,4.05c-1.76,6.37-4.46,16.51-6.04,23.98c-0.53,2.5-0.93,4.71-1.13,6.36
					c-0.21,1.72-0.3,4.53-0.29,8.58c0,3.5-0.57,6.36-1.75,8.73l-0.53,0.97c-1.18,1.96-2.85,3.56-5.06,4.88l-0.28,0.17l-27.24,15.73
					c-0.59,0.34-1.51,0.54-2.46,0.54c-0.96,0-1.87-0.2-2.45-0.54L17.7,124.94C17.43,124.77,17.25,124.63,17.15,124.52z"/>
			</g>
			<path class="st3" d="M33.06,162.95c0,0.28-0.07,0.55-0.18,0.79c1.26-0.72,2.52-1.44,3.69-2.11c1.43-0.81,2.81-1.58,4.1-2.32
				v-2.63c-2.58,1.47-5.59,3.18-8.4,4.79C32.74,161.77,33.06,162.32,33.06,162.95z"/>
		</g>
	</g>
</g>
</svg>
