<?xml version="1.0" encoding="utf-8"?>
<!-- Generator: Adobe Illustrator 25.3.1, SVG Export Plug-In . SVG Version: 6.00 Build 0)  -->
<svg version="1.1" id="圖層_1" xmlns="http://www.w3.org/2000/svg" xmlns:xlink="http://www.w3.org/1999/xlink" x="0px" y="0px"
	 viewBox="0 0 240 240" style="enable-background:new 0 0 240 240;" xml:space="preserve">
<style type="text/css">
	.st0{opacity:0.1;}
	.st1{fill:#3B3B3B;}
	.st2{fill:#747474;}
	.st3{fill:#4C4C4C;}
	.st4{enable-background:new    ;}
	.st5{clip-path:url(#SVGID_2_);enable-background:new    ;}
	.st6{fill:#7B7B7B;}
	.st7{fill:#999992;}
	.st8{fill:#D3D3CB;}
	.st9{fill:#BABAB5;}
	.st10{fill:#777777;}
	.st11{fill:#DDDDD7;}
	.st12{fill:#F1F1EF;}
	.st13{fill:#D8D8D8;}
	.st14{fill:#C6C6C6;}
	.st15{fill:#E2E2E2;}
</style>
<g>
	<polygon class="st0" points="49.65,190.31 126.87,147.5 190.35,184.59 114.51,228.28 	"/>
	<g>
		<g>
			<g>
				<path class="st1" d="M173.01,181.64c-0.01,2.46,1.73,5.47,3.88,6.71c2.15,1.24,3.89,0.25,3.9-2.22
					c0.01-2.47-1.73-5.47-3.87-6.71C174.77,178.18,173.02,179.16,173.01,181.64z M174.55,182.52c0-1.5,1.06-2.09,2.36-1.35
					c1.29,0.75,2.34,2.56,2.34,4.06c0,1.49-1.06,2.09-2.35,1.34C175.6,185.83,174.55,184.01,174.55,182.52z"/>
				<g>
					<path class="st2" d="M176.91,181.18c-1.3-0.75-2.36-0.15-2.36,1.35c0,1.49,1.05,3.31,2.34,4.06c1.3,0.75,2.35,0.15,2.35-1.34
						C179.25,183.74,178.21,181.93,176.91,181.18z"/>
				</g>
				<path class="st3" d="M177.39,177.26c0.71-0.41,1.69-0.35,2.77,0.28c2.15,1.24,3.88,4.24,3.87,6.71
					c-0.01,1.23-0.43,2.09-1.13,2.49l-3.24,1.88c0.7-0.4,1.13-1.27,1.13-2.49c0.01-2.47-1.73-5.47-3.87-6.71
					c-1.08-0.62-2.06-0.68-2.77-0.27L177.39,177.26z"/>
			</g>
			<g>
				<path class="st1" d="M114.25,212.9c1.08-0.63,2.06-0.68,2.77-0.27c0.27,0.16,0.54,0.32,0.81,0.47c0.38,0.22,0.75,0.44,1.13,0.66
					c0.43,0.25,0.86,0.5,1.29,0.76c-0.71-0.41-1.69-0.35-2.77,0.27c-0.46,0.26-0.89,0.62-1.29,1.02l1.3,0.75
					c-1.3,0.75-2.35,2.56-2.34,4.05c0,0.74,0.26,1.26,0.69,1.51l-2.18-1.27c-0.02,0.22-0.05,0.44-0.05,0.65
					c0,1.23,0.44,2.09,1.13,2.49l-3.24-1.88c-0.7-0.41-1.13-1.27-1.14-2.49C110.37,217.15,112.11,214.14,114.25,212.9z"/>
				<g class="st4">
					<defs>
						<path id="SVGID_1_" class="st4" d="M115.93,214.51c0.42,0.25,0.68,0.77,0.69,1.51c1.08,0.62,2.16,1.25,3.24,1.88
							c0-0.74-0.26-1.26-0.68-1.51C118.19,215.83,116.9,215.08,115.93,214.51z"/>
					</defs>
					<clipPath id="SVGID_2_">
						<use xlink:href="#SVGID_1_"  style="overflow:visible;"/>
					</clipPath>
					<g class="st5">
						<path class="st3" d="M119.17,216.39l-3.24-1.88c0.42,0.25,0.68,0.77,0.69,1.51c0,1.49-1.04,3.31-2.34,4.06l3.24,1.88
							c1.3-0.75,2.34-2.57,2.34-4.06C119.85,217.16,119.59,216.64,119.17,216.39L119.17,216.39z"/>
					</g>
				</g>
				<path class="st3" d="M113.61,221.5c0,2.47,1.75,3.46,3.9,2.22c2.14-1.24,3.88-4.25,3.87-6.71c-0.01-2.47-1.76-3.47-3.9-2.23
					C115.34,216.02,113.61,219.03,113.61,221.5z M115.16,220.61c-0.01-1.49,1.05-3.3,2.34-4.05c1.3-0.75,2.35-0.15,2.35,1.34
					c0,1.49-1.04,3.31-2.34,4.06C116.21,222.71,115.16,222.1,115.16,220.61z"/>
				<path class="st6" d="M117.5,216.56c1.3-0.75,2.35-0.15,2.35,1.34c0,1.49-1.04,3.31-2.34,4.06c-1.3,0.75-2.35,0.14-2.35-1.35
					C115.15,219.12,116.2,217.31,117.5,216.56z"/>
			</g>
			<g>
				<path class="st1" d="M60.33,183.21c1.08-0.63,2.06-0.68,2.77-0.27c0.27,0.16,0.54,0.32,0.81,0.47c0.37,0.22,0.76,0.44,1.13,0.66
					c0.43,0.25,0.86,0.5,1.3,0.76c-0.71-0.42-1.69-0.35-2.77,0.27c-0.46,0.26-0.89,0.62-1.3,1.02l1.3,0.75
					c-1.3,0.75-2.34,2.56-2.34,4.05c0,0.74,0.26,1.26,0.69,1.51l-2.18-1.26c-0.02,0.22-0.05,0.43-0.05,0.64
					c0.01,1.23,0.44,2.09,1.14,2.5l-3.24-1.88c-0.7-0.41-1.13-1.27-1.13-2.49C56.45,187.45,58.19,184.45,60.33,183.21z"/>
				<path class="st3" d="M59.69,191.8c0.01,2.47,1.75,3.47,3.9,2.23c2.15-1.24,3.88-4.25,3.87-6.72c0-2.46-1.76-3.46-3.9-2.22
					C61.42,186.33,59.69,189.34,59.69,191.8z M61.24,190.91c-0.01-1.49,1.04-3.3,2.34-4.05c1.3-0.75,2.35-0.15,2.36,1.34
					c0,1.49-1.04,3.31-2.34,4.06C62.3,193.01,61.24,192.4,61.24,190.91z"/>
				<path class="st6" d="M63.58,186.86c1.3-0.75,2.35-0.15,2.36,1.34c0,1.49-1.04,3.31-2.34,4.06c-1.3,0.75-2.35,0.14-2.35-1.35
					C61.23,189.42,62.28,187.61,63.58,186.86z"/>
			</g>
			<g>
				<g>
					<g class="st4">
						<g>
							<polygon class="st7" points="115.88,82.71 59.06,49.69 59.44,183.11 116.26,216.13 							"/>
						</g>
						<g>
							<polygon class="st8" points="181.66,44.74 124.84,11.72 59.06,49.69 115.88,82.71 							"/>
						</g>
						<g>
							<polygon class="st9" points="115.88,82.71 116.26,216.13 182.04,178.15 181.66,44.74 							"/>
						</g>
					</g>
				</g>
				<g>
					<g>
						<path class="st10" d="M173.01,106.3l-48.06,27.74l-0.05-17.94l48.06-27.74L173.01,106.3z M125.5,133.11l46.97-27.12
							l-0.05-16.69l-46.97,27.12L125.5,133.11L125.5,133.11z"/>
					</g>
					<g>
						<path class="st10" d="M173.01,81.32l-48.06,27.74l-0.05-17.94l48.06-27.74L173.01,81.32z M125.5,108.13l46.97-27.12
							l-0.05-16.69l-46.97,27.12L125.5,108.13L125.5,108.13z"/>
					</g>
					<g>
						<path class="st10" d="M173.06,166.89l-48.06,27.74l-0.15-53.09l48.06-27.74L173.06,166.89z M125.55,193.7l46.97-27.12
							l-0.15-51.85l-46.97,27.12L125.55,193.7L125.55,193.7z"/>
					</g>
				</g>
				<g>
					<g>
						<path class="st11" d="M157.01,82.76l-10.83,6.25l-0.02-6.35l10.83-6.25L157.01,82.76z M146.6,88.29l9.99-5.77l-0.02-5.39
							l-9.99,5.77L146.6,88.29L146.6,88.29z"/>
					</g>
					<g>
						<path class="st12" d="M169.38,68.34c1.1-0.22,1.78,0.95,1.99,2.07c0.05,0.28,0.1,0.55,0.16,0.82
							c-0.07-0.36-2.28,0.28-2.19,1.47c0.09,1.31,1.09,1.65,1.74,0.77c0.23-0.32,0.44-0.87-0.11,0.36c-0.91,2-2.59,2.24-3.37,0.46
							C166.69,72.27,167.58,68.7,169.38,68.34z"/>
						<g>
							<path class="st13" d="M169.8,70.6c-0.52,0.71-0.66,1.92-0.31,2.72c0.35,0.79,1.06,0.86,1.58,0.16
								c0.52-0.71,0.66-1.92,0.31-2.72C171.03,69.97,170.32,69.9,169.8,70.6z"/>
						</g>
					</g>
					<g>
						<path class="st14" d="M159.74,85.72c0.23,0.14,0.34,0.31,0.34,0.48c0,0.57,0,1.15,0,1.72c0-0.17-0.11-0.34-0.34-0.48
							l-1.59-0.92l0-1.73L159.74,85.72z"/>
						<path class="st14" d="M146.82,93.62c0.83,0.49,2.19,0.49,3.03,0l11.33-6.54c0.42-0.24,0.63-0.56,0.63-0.88
							c0,0.58,0,1.15,0.01,1.73c0,0.32-0.21,0.64-0.63,0.88l-11.33,6.54c-0.84,0.48-2.2,0.48-3.03,0l-1.97-1.15l0-1.72L146.82,93.62
							z"/>
						<g>
							<path class="st15" d="M144.85,92.48l1.97,1.14c0.83,0.49,2.19,0.49,3.03,0l11.33-6.54c0.84-0.48,0.85-1.27,0.01-1.75
								l-1.97-1.15l-1.07,0.62l1.59,0.92c0.46,0.26,0.45,0.7-0.01,0.96l-10.57,6.1c-0.46,0.26-1.2,0.26-1.65,0l-1.59-0.92
								L144.85,92.48z"/>
						</g>
					</g>
				</g>
				<g>
					<g>
						<path class="st11" d="M157.01,107.74l-10.83,6.25l-0.02-6.35l10.83-6.25L157.01,107.74z M146.6,113.27l9.99-5.77l-0.02-5.39
							l-9.99,5.77L146.6,113.27L146.6,113.27z"/>
					</g>
					<g>
						<path class="st12" d="M169.38,93.32c1.1-0.22,1.78,0.95,1.99,2.07c0.05,0.28,0.1,0.55,0.16,0.82
							c-0.07-0.37-2.28,0.28-2.19,1.47c0.09,1.31,1.09,1.65,1.74,0.77c0.23-0.32,0.44-0.87-0.11,0.36c-0.91,2-2.59,2.24-3.37,0.46
							C166.69,97.25,167.58,93.67,169.38,93.32z"/>
						<g>
							<path class="st13" d="M169.8,95.58c-0.52,0.71-0.66,1.92-0.31,2.72c0.35,0.79,1.06,0.86,1.58,0.16
								c0.52-0.71,0.66-1.93,0.31-2.72C171.03,94.94,170.32,94.87,169.8,95.58z"/>
						</g>
					</g>
					<g>
						<path class="st14" d="M159.74,110.7c0.23,0.13,0.34,0.31,0.34,0.48c0,0.57,0,1.15,0,1.72c0-0.17-0.11-0.34-0.34-0.47
							l-1.59-0.93l0-1.73L159.74,110.7z"/>
						<path class="st14" d="M146.82,118.6c0.83,0.49,2.19,0.49,3.03,0l11.33-6.54c0.42-0.25,0.63-0.57,0.63-0.88
							c0,0.57,0,1.15,0.01,1.72c0,0.32-0.21,0.64-0.63,0.88l-11.33,6.54c-0.84,0.48-2.2,0.48-3.03,0l-1.97-1.15l0-1.73L146.82,118.6
							z"/>
						<g>
							<path class="st15" d="M144.85,117.45l1.97,1.15c0.83,0.49,2.19,0.49,3.03,0l11.33-6.54c0.84-0.49,0.85-1.27,0.01-1.76
								l-1.97-1.14l-1.07,0.62l1.59,0.92c0.46,0.27,0.45,0.69-0.01,0.96l-10.57,6.1c-0.46,0.26-1.2,0.26-1.65,0l-1.59-0.92
								L144.85,117.45z"/>
						</g>
					</g>
				</g>
				<g>
					<g>
						<path class="st11" d="M157.01,134.8l-10.83,6.25l-0.02-6.35l10.83-6.25L157.01,134.8z M146.6,140.33l9.99-5.77l-0.02-5.39
							l-9.99,5.77L146.6,140.33L146.6,140.33z"/>
					</g>
					<g>
						<path class="st12" d="M169.38,120.38c1.1-0.22,1.78,0.95,1.99,2.07c0.05,0.27,0.1,0.55,0.16,0.82
							c-0.07-0.37-2.28,0.28-2.19,1.47c0.09,1.31,1.09,1.65,1.74,0.77c0.23-0.32,0.44-0.87-0.11,0.36c-0.91,2-2.59,2.24-3.37,0.46
							C166.69,124.31,167.58,120.73,169.38,120.38z"/>
						<g>
							<path class="st13" d="M169.8,122.63c-0.52,0.71-0.66,1.93-0.31,2.72c0.35,0.79,1.06,0.86,1.58,0.15
								c0.52-0.71,0.66-1.92,0.31-2.72C171.03,122,170.32,121.93,169.8,122.63z"/>
						</g>
					</g>
					<g>
						<path class="st14" d="M159.74,137.76c0.23,0.13,0.34,0.3,0.34,0.48c0,0.58,0,1.15,0,1.73c0-0.17-0.11-0.35-0.34-0.48
							l-1.59-0.93l0-1.73L159.74,137.76z"/>
						<path class="st14" d="M146.82,145.66c0.83,0.48,2.19,0.48,3.03,0l11.33-6.55c0.42-0.24,0.63-0.56,0.63-0.88
							c0,0.57,0,1.15,0.01,1.73c0,0.32-0.21,0.64-0.63,0.88l-11.33,6.55c-0.84,0.48-2.2,0.48-3.03,0l-1.97-1.15l0-1.72
							L146.82,145.66z"/>
						<g>
							<path class="st15" d="M144.85,144.51l1.97,1.15c0.83,0.48,2.19,0.48,3.03,0l11.33-6.55c0.84-0.49,0.85-1.27,0.01-1.75
								l-1.97-1.15l-1.07,0.62l1.59,0.93c0.46,0.27,0.45,0.69-0.01,0.96l-10.57,6.1c-0.46,0.27-1.2,0.27-1.65,0l-1.59-0.92
								L144.85,144.51z"/>
						</g>
					</g>
				</g>
			</g>
		</g>
	</g>
</g>
</svg>
