<?xml version="1.0" encoding="utf-8"?>
<!-- Generator: Adobe Illustrator 25.3.1, SVG Export Plug-In . SVG Version: 6.00 Build 0)  -->
<svg version="1.1" id="圖層_1" xmlns="http://www.w3.org/2000/svg" xmlns:xlink="http://www.w3.org/1999/xlink" x="0px" y="0px"
	 viewBox="0 0 240 240" style="enable-background:new 0 0 240 240;" xml:space="preserve">
<style type="text/css">
	.st0{opacity:0.6;fill:#7795B2;}
	.st1{fill:#B8C3DB;}
	.st2{fill:#8A9BB5;}
	.st3{fill:#DFE5FF;}
	.st4{fill:#CAD4E5;}
	.st5{fill:#A8A8A8;}
	.st6{fill:#CECECE;}
	.st7{fill:#C1C1C1;}
	.st8{fill:#DDDDDD;}
	.st9{opacity:0.7;fill:#B8C3DB;}
	.st10{fill:#F4F5F9;}
	.st11{fill:#F7F0E3;}
</style>
<g>
	<polygon class="st0" points="222.13,175.41 145.84,219.45 14.07,143.26 90.36,99.21 	"/>
	<g>
		<polygon class="st1" points="225.93,133.39 225.93,99.23 106.18,30.2 103.8,31.58 106.18,64.37 223.54,134.77 		"/>
		<polygon class="st2" points="223.54,134.77 223.54,100.61 103.8,31.58 103.8,65.74 		"/>
	</g>
	<polygon class="st3" points="223.54,100.61 225.93,99.23 225.93,133.39 223.54,134.77 	"/>
	<polygon class="st4" points="76.89,110.58 23.13,144.13 20.93,142.89 20.93,66.59 76.89,34.28 	"/>
	<polygon class="st2" points="79.1,111.82 23.13,144.13 23.13,67.84 79.1,35.53 	"/>
	<g>
		<polygon class="st1" points="23.9,67 23.9,135.81 23.13,135.36 23.13,67 		"/>
	</g>
	<g>
		<polygon class="st4" points="61.62,140.11 61.62,157.42 61.42,157.31 60.64,156.88 23.9,135.66 23.9,118.35 60.64,139.57 
			61.42,140.01 		"/>
		<g>
			<polygon class="st0" points="47.59,142.99 35.36,135.93 35.36,133.75 41.87,137.51 47.59,140.81 			"/>
			<g>
				<path class="st5" d="M47.59,142.99l-0.52,0.32l-1-1.2c0,0-4.51-1.27-5.74-2c-1.07-0.63-3.44-3.3-3.44-3.3l-1.53-0.88l-0.53-1.86
					l0.53-0.31l1.53,0.88c0,0,2.37,2.65,3.43,3.29c1.24,0.74,5.74,2,5.74,2l1.53,0.88V142.99z"/>
				<path class="st6" d="M47.06,141.12v2.18l-1.53-0.88c0,0-1.33-0.37-2.73-0.83c-1.19-0.39-2.44-0.84-3.01-1.17
					c-0.17-0.09-0.36-0.25-0.57-0.42c-0.16-0.13-0.31-0.26-0.47-0.4c-1.09-1.01-2.39-2.47-2.39-2.47l-1.53-0.88v-2.18l1.53,0.88
					c0,0,1.3,1.45,2.39,2.46c0.15,0.13,0.31,0.28,0.47,0.4c0.22,0.18,0.4,0.33,0.57,0.43c0.57,0.34,1.82,0.79,3.01,1.17
					c1.4,0.46,2.73,0.83,2.73,0.83L47.06,141.12z"/>
				<path class="st7" d="M38.75,137.41v2.19c-1.09-1.01-2.39-2.47-2.39-2.47v-2.18C36.36,134.95,37.66,136.4,38.75,137.41z"/>
				<path class="st8" d="M42.8,139.41v2.18c-1.19-0.39-2.44-0.84-3.01-1.17c-0.17-0.09-0.36-0.25-0.57-0.42v-2.19
					c0.22,0.18,0.4,0.33,0.57,0.43C40.36,138.58,41.61,139.03,42.8,139.41z"/>
			</g>
		</g>
	</g>
	<g>
		<polygon class="st4" points="61.62,123.13 61.62,140.45 23.9,118.66 23.9,101.35 		"/>
		<g>
			<polygon class="st0" points="47.59,126.01 35.36,118.95 35.36,116.77 41.87,120.53 47.59,123.83 			"/>
			<g>
				<path class="st5" d="M47.59,126.01l-0.52,0.31l-1-1.19c0,0-4.51-1.27-5.74-2c-1.07-0.64-3.44-3.29-3.44-3.29l-1.53-0.88
					l-0.53-1.87l0.53-0.31l1.53,0.88c0,0,2.37,2.65,3.43,3.29c1.24,0.74,5.74,2,5.74,2l1.53,0.88V126.01z"/>
				<path class="st6" d="M47.06,124.14v2.17l-1.53-0.88c0,0-1.33-0.37-2.73-0.83c-1.19-0.38-2.44-0.83-3.01-1.17
					c-0.17-0.1-0.36-0.25-0.57-0.42c-0.16-0.12-0.31-0.26-0.47-0.4c-1.09-1.02-2.39-2.47-2.39-2.47l-1.53-0.88v-2.18l1.53,0.88
					c0,0,1.3,1.45,2.39,2.45c0.15,0.14,0.31,0.28,0.47,0.4c0.22,0.19,0.4,0.33,0.57,0.43c0.57,0.34,1.82,0.79,3.01,1.18
					c1.4,0.46,2.73,0.83,2.73,0.83L47.06,124.14z"/>
				<path class="st7" d="M38.75,120.42v2.19c-1.09-1.02-2.39-2.47-2.39-2.47v-2.18C36.36,117.96,37.66,119.41,38.75,120.42z"/>
				<path class="st8" d="M42.8,122.43v2.17c-1.19-0.38-2.44-0.83-3.01-1.17c-0.17-0.1-0.36-0.25-0.57-0.42v-2.19
					c0.22,0.19,0.4,0.33,0.57,0.43C40.36,121.59,41.61,122.04,42.8,122.43z"/>
			</g>
		</g>
		<g>
			<polygon class="st1" points="23.29,117.85 23.29,118.75 61.79,141 62.18,140.33 			"/>
		</g>
	</g>
	<g>
		<polygon class="st4" points="61.62,106.14 61.62,123.47 23.9,101.68 23.9,84.37 		"/>
		<g>
			<polygon class="st0" points="47.59,109.03 35.36,101.96 35.36,99.78 41.87,103.54 47.59,106.85 			"/>
			<g>
				<path class="st5" d="M47.59,109.03l-0.52,0.31l-1-1.2c0,0-4.51-1.27-5.74-2c-1.07-0.63-3.44-3.3-3.44-3.3l-1.53-0.88l-0.53-1.86
					l0.53-0.32l1.53,0.89c0,0,2.37,2.65,3.43,3.29c1.24,0.73,5.74,2,5.74,2l1.53,0.89V109.03z"/>
				<path class="st6" d="M47.06,107.16v2.18l-1.53-0.88c0,0-1.33-0.37-2.73-0.84c-1.19-0.38-2.44-0.84-3.01-1.18
					c-0.17-0.09-0.36-0.25-0.57-0.41c-0.16-0.13-0.31-0.26-0.47-0.4c-1.09-1.02-2.39-2.47-2.39-2.47l-1.53-0.88v-2.18l1.53,0.88
					c0,0,1.3,1.45,2.39,2.45c0.15,0.14,0.31,0.28,0.47,0.4c0.22,0.19,0.4,0.32,0.57,0.43c0.57,0.34,1.82,0.79,3.01,1.17
					c1.4,0.46,2.73,0.83,2.73,0.83L47.06,107.16z"/>
				<path class="st7" d="M38.75,103.43v2.2c-1.09-1.02-2.39-2.47-2.39-2.47v-2.18C36.36,100.98,37.66,102.43,38.75,103.43z"/>
				<path class="st8" d="M42.8,105.44v2.18c-1.19-0.38-2.44-0.84-3.01-1.18c-0.17-0.09-0.36-0.25-0.57-0.41v-2.2
					c0.22,0.19,0.4,0.32,0.57,0.43C40.36,104.61,41.61,105.06,42.8,105.44z"/>
			</g>
		</g>
		<g>
			<polygon class="st1" points="23.29,100.87 23.29,101.76 61.79,124.02 62.18,123.35 			"/>
		</g>
	</g>
	<g>
		<polygon class="st4" points="61.62,89.16 61.62,106.48 23.9,84.7 23.9,67.39 		"/>
		<g>
			<polygon class="st0" points="47.59,92.04 35.36,84.98 35.36,82.8 41.87,86.56 47.59,89.86 			"/>
			<g>
				<path class="st5" d="M47.59,92.04l-0.52,0.31l-1-1.2c0,0-4.51-1.27-5.74-2c-1.07-0.63-3.44-3.29-3.44-3.29l-1.53-0.89
					l-0.53-1.86l0.53-0.32l1.53,0.88c0,0,2.37,2.66,3.43,3.29c1.24,0.73,5.74,2,5.74,2l1.53,0.88V92.04z"/>
				<path class="st6" d="M47.06,90.17v2.18l-1.53-0.88c0,0-1.33-0.37-2.73-0.83c-1.19-0.39-2.44-0.83-3.01-1.17
					c-0.17-0.09-0.36-0.25-0.57-0.42c-0.16-0.12-0.31-0.27-0.47-0.4c-1.09-1.02-2.39-2.47-2.39-2.47l-1.53-0.88v-2.18L36.36,84
					c0,0,1.3,1.45,2.39,2.45c0.15,0.14,0.31,0.28,0.47,0.4c0.22,0.18,0.4,0.32,0.57,0.43c0.57,0.34,1.82,0.79,3.01,1.18
					c1.4,0.47,2.73,0.83,2.73,0.83L47.06,90.17z"/>
				<path class="st7" d="M38.75,86.45v2.19c-1.09-1.02-2.39-2.47-2.39-2.47V84C36.36,84,37.66,85.45,38.75,86.45z"/>
				<path class="st8" d="M42.8,88.46v2.18c-1.19-0.39-2.44-0.83-3.01-1.17c-0.17-0.09-0.36-0.25-0.57-0.42v-2.19
					c0.22,0.18,0.4,0.32,0.57,0.43C40.36,87.62,41.61,88.08,42.8,88.46z"/>
			</g>
		</g>
		<g>
			<polygon class="st1" points="23.29,83.89 23.29,84.78 61.79,107.04 62.18,106.37 			"/>
		</g>
	</g>
	<g>
		<polygon class="st1" points="61.42,61.56 61.42,157.31 60.64,156.88 60.64,61.56 		"/>
	</g>
	<g>
		<polygon class="st1" points="23.29,66.9 23.29,67.8 61.79,90.05 62.18,89.38 		"/>
	</g>
	<polygon class="st4" points="117.38,132.77 63.63,166.32 61.42,165.08 61.42,71.96 117.38,39.65 	"/>
	<polygon class="st2" points="119.59,134.02 63.63,166.32 63.62,73.21 119.59,40.9 	"/>
	<g>
		<polygon class="st1" points="149.65,131.6 146.29,133.43 146.29,215.29 149.65,217.24 152.34,215.67 152.34,133.08 		"/>
		<polygon class="st3" points="152.34,133.08 152.34,215.67 149.65,217.24 149.65,131.6 		"/>
		<polygon class="st9" points="146.29,131.31 146.29,148.89 149.65,150.84 152.34,149.28 152.34,131.31 		"/>
	</g>
	<polygon class="st9" points="37.41,64.82 20.93,64.82 20.93,72.58 63.62,97.31 63.62,79.98 	"/>
	<g>
		<polygon class="st1" points="215.8,96.67 215.8,175.14 219.16,177.08 221.85,175.52 221.85,96.67 		"/>
		<polygon class="st3" points="219.16,96.67 219.16,177.08 221.85,175.52 221.85,96.67 		"/>
		<polygon class="st9" points="215.8,96.67 215.8,108.74 219.16,110.68 221.85,109.13 221.85,96.67 		"/>
	</g>
	<g>
		<polygon class="st1" points="225.93,99.78 149.65,143.82 17.87,67.63 17.87,64.59 94.16,23.58 225.93,96.74 		"/>
		<polygon class="st10" points="225.93,96.74 149.65,140.79 17.87,64.59 94.16,20.55 		"/>
		<polygon class="st11" points="225.93,96.74 149.65,140.79 17.87,64.59 149.58,140.2 		"/>
	</g>
	<polygon class="st3" points="149.65,140.79 149.65,143.82 225.93,99.78 225.93,96.74 	"/>
</g>
</svg>
