<?xml version="1.0" encoding="utf-8"?>
<!-- Generator: Adobe Illustrator 25.3.1, SVG Export Plug-In . SVG Version: 6.00 Build 0)  -->
<svg version="1.1" id="圖層_1" xmlns="http://www.w3.org/2000/svg" xmlns:xlink="http://www.w3.org/1999/xlink" x="0px" y="0px"
	 viewBox="0 0 240 240" style="enable-background:new 0 0 240 240;" xml:space="preserve">
<style type="text/css">
	.st0{fill:#414042;}
	.st1{fill:#231F20;}
	.st2{fill:#A7A9AC;}
	.st3{fill:url(#SVGID_1_);}
	.st4{fill:#E6E7E8;}
	.st5{fill:#9E9E9E;}
	.st6{fill:#BCBEC0;}
	.st7{fill:#D1D3D4;}
	.st8{fill:#F1F2F2;}
	.st9{fill:#52CCF7;}
	.st10{fill:#6D6E71;}
	.st11{fill:#58595B;}
	.st12{fill:#141414;}
	.st13{enable-background:new    ;}
	.st14{fill:#92969A;}
	.st15{fill:#65696B;}
	.st16{fill:#A3A8AB;}
</style>
<g>
	<g>
		<g>
			<polygon class="st0" points="88.02,190.24 88.02,194.36 91.59,196.42 91.59,192.3 			"/>
			<polygon class="st1" points="88.02,190.24 91.59,188.19 95.15,190.24 91.59,192.3 			"/>
			<polygon class="st1" points="91.59,192.3 91.59,196.42 95.15,194.36 95.15,190.24 			"/>
		</g>
		<g>
			<polygon class="st0" points="123.4,169.83 123.4,173.95 126.97,176.01 126.97,171.89 			"/>
			<polygon class="st1" points="123.4,169.83 126.97,167.77 130.53,169.83 126.97,171.89 			"/>
			<polygon class="st1" points="126.97,171.89 126.97,176.01 130.53,173.95 130.53,169.83 			"/>
		</g>
		<polygon class="st2" points="91.59,54.38 91.59,194.16 130.53,171.67 130.53,31.89 		"/>
		<linearGradient id="SVGID_1_" gradientUnits="userSpaceOnUse" x1="67.2458" y1="26.2645" x2="67.2458" y2="194.1593">
			<stop  offset="0" style="stop-color:#D1D3D4"/>
			<stop  offset="1" style="stop-color:#A7A9AC"/>
		</linearGradient>
		<polygon class="st3" points="91.59,54.38 42.9,26.26 42.9,166.05 91.59,194.16 		"/>
		<polygon class="st4" points="42.9,26.26 81.85,3.78 130.53,31.89 91.59,54.38 		"/>
		<g>
			<polygon class="st5" points="88.31,56.2 88.31,195.98 91.58,194.15 91.58,54.37 			"/>
			<polygon class="st6" points="88.31,56.2 39.63,28.09 39.63,167.87 88.31,195.98 			"/>
			<path class="st7" d="M71.06,105.8L53.7,95.77V68.22l17.36,10.02V105.8z M54.19,95.49l16.38,9.46V78.52l-16.38-9.46V95.49z"/>
			<polygon class="st8" points="39.63,28.09 42.9,26.26 91.58,54.37 88.31,56.2 			"/>
			<polygon class="st6" points="92.07,193.88 91.59,194.16 91.59,54.36 42.9,26.26 43.4,25.98 92.07,54.08 			"/>
			<polygon class="st1" points="47.29,114.41 47.29,109.99 78.61,128.08 78.61,132.49 			"/>
			<polygon class="st7" points="47.29,110.76 47.29,108.77 78.61,126.86 78.61,128.84 			"/>
			<polygon class="st6" points="88.31,137.32 79.21,132.07 79.21,126.51 46.68,107.72 46.68,113.29 39.63,109.21 39.63,110.05 
				46.68,114.13 46.68,114.13 47.29,114.48 47.29,113.64 47.29,108.77 78.61,126.86 78.61,131.72 78.61,132.56 79.21,132.91 
				79.21,132.91 88.31,138.16 			"/>
			<polygon class="st1" points="69.6,79.08 55.16,70.75 55.16,81.31 69.6,89.65 			"/>
			<polygon class="st9" points="57.09,79.45 57.09,74.27 67.66,80.31 67.66,85.48 			"/>
			<polygon class="st0" points="69.6,88.82 55.16,80.48 55.16,94.93 69.6,103.27 			"/>
			<polygon class="st10" points="55.16,94.93 60.4,91.88 69.6,96.72 69.6,103.27 			"/>
			<polygon class="st11" points="60.4,91.88 60.4,83.51 55.16,80.48 55.16,94.93 			"/>
			<polygon class="st7" points="69.6,88.82 55.16,80.48 55.16,81.31 69.6,89.65 			"/>
			<polygon class="st6" points="88.31,137.32 91.58,135.42 91.58,136.25 88.31,138.16 			"/>
		</g>
	</g>
	<g>
		<g>
			<g>
				<polygon class="st4" points="157.84,109.47 157.84,234.8 200.37,210.25 200.37,84.92 				"/>
				<polygon class="st6" points="157.84,109.47 157.84,234.8 115.32,210.25 115.32,84.92 				"/>
				<polygon class="st8" points="115.32,84.92 158.04,60.45 200.37,84.92 157.84,109.47 				"/>
			</g>
			<g>
				<polygon class="st7" points="155.38,236.22 112.86,211.67 112.86,149.68 155.38,174.23 				"/>
				<polygon class="st8" points="156.9,235.35 155.38,236.22 155.38,174.23 156.9,173.36 				"/>
				<polygon class="st6" points="112.86,149.68 114.38,148.81 156.9,173.36 155.38,174.23 				"/>
			</g>
			<g>
				<polygon class="st7" points="155.38,172.8 112.86,148.24 112.86,86.26 155.38,110.81 				"/>
				<polygon class="st8" points="156.9,171.92 155.38,172.8 155.38,110.81 156.9,109.94 				"/>
				<polygon class="st4" points="112.86,86.26 114.38,85.39 156.9,109.94 155.38,110.81 				"/>
			</g>
		</g>
		<g>
			<path class="st12" d="M127.64,107.95l-0.01,6.79l10.62,6.13l0.01-6.79L127.64,107.95z"/>
		</g>
		<g>
			<g class="st13">
				<g>
					<polygon class="st14" points="113.58,145.79 113.58,147.27 112.94,147.65 112.94,146.17 					"/>
				</g>
				<g>
					<polygon class="st15" points="124.7,153.72 124.7,155.2 111.66,147.65 111.66,146.17 					"/>
				</g>
				<g>
					<polygon class="st15" points="125.97,152.97 125.98,154.45 124.7,155.2 124.7,153.72 					"/>
				</g>
				<g>
					<polygon class="st16" points="125.97,152.97 124.7,153.72 111.66,146.17 112.94,145.42 113.58,145.79 112.94,146.17 
						124.69,152.97 125.33,152.6 					"/>
				</g>
			</g>
		</g>
		<g>
			<g class="st13">
				<g>
					<polygon class="st14" points="113.58,151.05 113.58,152.53 112.94,152.91 112.94,151.43 					"/>
				</g>
				<g>
					<polygon class="st15" points="124.7,158.98 124.7,160.46 111.66,152.92 111.66,151.44 					"/>
				</g>
				<g>
					<polygon class="st15" points="125.97,158.23 125.98,159.71 124.7,160.46 124.7,158.98 					"/>
				</g>
				<g>
					<polygon class="st16" points="125.97,158.23 124.7,158.98 111.66,151.44 112.94,150.69 113.58,151.05 112.94,151.43 
						124.69,158.24 125.33,157.86 					"/>
				</g>
			</g>
		</g>
	</g>
</g>
</svg>
