<?xml version="1.0" encoding="utf-8"?>
<!-- Generator: Adobe Illustrator 25.3.1, SVG Export Plug-In . SVG Version: 6.00 Build 0)  -->
<svg version="1.1" id="圖層_1" xmlns="http://www.w3.org/2000/svg" xmlns:xlink="http://www.w3.org/1999/xlink" x="0px" y="0px"
	 viewBox="0 0 240 240" style="enable-background:new 0 0 240 240;" xml:space="preserve">
<style type="text/css">
	.st0{fill:#231F20;}
	.st1{fill:#E6E7E8;}
	.st2{fill:#D1D3D4;}
	.st3{fill:#BCBEC0;}
	.st4{fill:#58595B;}
	.st5{fill:#6D6E71;}
	.st6{fill:#414042;}
	.st7{fill:#626364;}
	.st8{fill:#787A7B;}
	.st9{fill:#2B2B2B;}
	.st10{fill:#F1F2F2;}
</style>
<g>
	
		<ellipse transform="matrix(0.5047 -0.8633 0.8633 0.5047 -58.3147 250.2365)" class="st0" cx="188.92" cy="175.94" rx="25.13" ry="14.51"/>
	<path class="st0" d="M207.64,157.98c-2.15-2.02-5.14-2.8-8.59-2.13c-0.27,0.05-0.56,0.12-0.84,0.2c-1.52,0.39-3.13,1.05-4.79,2.02
		c-9.84,5.68-17.82,19.44-17.82,30.74c0,2.81,0.5,5.21,1.4,7.14l-0.74,0.42c-0.99-2.08-1.52-4.63-1.52-7.56
		c0-11.55,8.18-25.68,18.25-31.48c1.76-1.01,3.48-1.73,5.15-2.15c0.28-0.07,0.57-0.13,0.85-0.18c0.83-0.15,1.64-0.23,2.43-0.23
		c2.41,0,4.49,0.73,6.17,2.06v0.01C207.62,157.21,207.64,157.59,207.64,157.98z"/>
	<path class="st1" d="M207.97,177.65l-8.15,4.85l-0.86,0.51l-13.88,8.25l-8.1,4.68c-0.9-1.92-1.4-4.32-1.4-7.14
		c0-11.29,7.98-25.06,17.82-30.74c1.66-0.96,3.27-1.63,4.79-2.02c0.28-0.08,0.57-0.15,0.84-0.2c3.46-0.68,6.44,0.1,8.59,2.13
		C207.88,164.08,208,170.63,207.97,177.65z"/>
	<path class="st2" d="M199.82,182.5l-0.86,0.51c0.01-9.86-0.27-18.82-0.76-26.95c0.28-0.08,0.57-0.15,0.84-0.2
		C199.55,163.89,199.82,172.74,199.82,182.5z"/>
	<path class="st3" d="M207.97,177.65l-8.15,4.85c0-9.75-0.27-18.6-0.78-26.64c3.46-0.68,6.44,0.1,8.59,2.13
		C207.88,164.08,208,170.63,207.97,177.65z"/>
	<polygon class="st0" points="176.14,197.57 181,200.35 181.1,193.94 	"/>
	<path class="st4" d="M211.24,168.22c0,11.29-7.98,25.06-17.82,30.74c-7.39,4.27-13.73,2.77-16.42-3.03c-0.9-1.92-1.4-4.32-1.4-7.14
		c0-11.29,7.98-25.06,17.82-30.74c1.66-0.96,3.27-1.63,4.79-2.02c0.28-0.08,0.57-0.15,0.84-0.2c3.46-0.68,6.44,0.1,8.59,2.13
		C209.9,160.1,211.24,163.59,211.24,168.22z"/>
	<path class="st5" d="M204.56,172.07c0,7.06-4.99,15.67-11.15,19.23c-4.62,2.67-8.59,1.73-10.27-1.89c-0.56-1.2-0.87-2.7-0.87-4.46
		c0-7.06,4.99-15.67,11.15-19.23c1.04-0.6,2.04-1.02,2.99-1.26c0.18-0.05,0.35-0.09,0.53-0.12c2.16-0.42,4.03,0.06,5.37,1.33
		C203.73,166.99,204.56,169.18,204.56,172.07z"/>
	<g>
		<path class="st1" d="M174.74,188.8c0,2.92,0.53,5.48,1.52,7.56l-2.58,1.49c-4.3,2.49-9.59,2.49-13.9,0.02l-36.26-20.82
			c-3.8-2.18-6.22-6.14-6.44-10.51c-1.01-20.38,0.11-78.19,44.13-90.15h0.01c0.55-0.15,1.11-0.29,1.67-0.43
			c0.32-0.08,0.64-0.15,0.97-0.22c0.26-0.06,0.51-0.11,0.77-0.16c0.43-0.09,0.87-0.18,1.3-0.26c0.54-0.1,1.09-0.2,1.65-0.28
			c0.01,0,0.03-0.01,0.03-0.01c0.54-0.09,1.09-0.16,1.65-0.23c0.48-0.07,0.96-0.12,1.45-0.17c0.15-0.02,0.31-0.03,0.47-0.05
			c0.49-0.05,0.99-0.09,1.48-0.13c0.61-0.05,1.23-0.09,1.85-0.13c0,0,0.49-0.09,1.34-0.05h0.05c0.23,0.01,0.5,0.03,0.79,0.07
			c0.07,0.01,0.13,0.02,0.19,0.03c0.06,0.01,0.13,0.02,0.2,0.03c0.07,0.01,0.14,0.03,0.21,0.03c0.06,0.01,0.13,0.02,0.21,0.03
			c0.07,0.02,0.15,0.03,0.21,0.04c0.03,0,0.06,0.01,0.09,0.02c0.12,0.03,0.25,0.05,0.37,0.08c0.69,0.16,1.46,0.4,2.29,0.75
			c0.16,0.07,0.33,0.14,0.49,0.21c0.11,0.05,0.23,0.11,0.36,0.17c0.16,0.08,0.33,0.15,0.49,0.24c0.73,0.38,1.49,0.82,2.28,1.38
			c0.1,0.07,0.21,0.15,0.32,0.22c0.68,0.49,1.38,1.05,2.09,1.71c0.18,0.16,0.36,0.33,0.55,0.51c0.13,0.12,0.26,0.24,0.39,0.38
			c0.2,0.2,0.39,0.39,0.59,0.61c1.42,1.5,2.88,3.35,4.31,5.62c0.12,0.18,0.24,0.37,0.35,0.56c0.24,0.39,0.47,0.77,0.7,1.17
			c0.12,0.21,0.23,0.41,0.35,0.62c0.12,0.21,0.24,0.42,0.35,0.63c0.11,0.21,0.23,0.43,0.34,0.64c0.12,0.22,0.24,0.45,0.35,0.67
			c0.23,0.45,0.45,0.91,0.69,1.39c0.25,0.5,0.49,1.01,0.72,1.54c0.1,0.22,0.2,0.45,0.3,0.69c0.57,1.29,1.11,2.65,1.66,4.1
			c0.1,0.27,0.2,0.53,0.29,0.8c0.57,1.58,1.13,3.25,1.66,5.03c0.18,0.6,0.36,1.22,0.54,1.85c1.47,5.15,2.8,11.14,3.89,18.09
			c0.14,0.87,0.27,1.74,0.4,2.64c0.5,3.38,0.94,6.97,1.32,10.79c0.05,0.48,0.09,0.96,0.15,1.44c0.03,0.35,0.07,0.69,0.09,1.05
			c0.05,0.57,0.1,1.14,0.15,1.72c0.05,0.57,0.09,1.16,0.15,1.74c0.15,1.76,0.27,3.56,0.39,5.4c0.04,0.62,0.08,1.23,0.11,1.86
			c0.12,1.96,0.22,3.97,0.3,6.02c-1.68-1.33-3.76-2.06-6.17-2.06c-0.79,0-1.6,0.08-2.43,0.23c-0.28,0.05-0.57,0.11-0.85,0.18
			c-1.67,0.42-3.4,1.14-5.15,2.15C182.92,163.12,174.74,177.25,174.74,188.8z"/>
		<path class="st2" d="M198.99,154.98c-0.28,0.05-0.57,0.11-0.85,0.18c-4.73-73.66-28.51-78.77-32.15-79.11
			c0.13-0.01,0.26-0.02,0.39-0.03C166.38,76.03,193.83,75.33,198.99,154.98z"/>
		<path class="st3" d="M207.59,156.81c-1.68-1.33-3.76-2.06-6.17-2.06c-0.79,0-1.6,0.08-2.43,0.23
			c-5.16-79.65-32.61-78.96-32.61-78.96c-0.13,0.01-0.26,0.02-0.39,0.03h-0.01c-0.3-0.03-0.46-0.03-0.46-0.03
			c-0.98,0.05-1.95,0.12-2.89,0.21c-0.47,0.04-0.93,0.09-1.41,0.15c0.55-0.15,1.11-0.29,1.67-0.43c0.32-0.08,0.64-0.15,0.97-0.22
			c0.26-0.06,0.51-0.11,0.77-0.16c0.43-0.09,0.87-0.18,1.3-0.26c0.54-0.1,1.09-0.2,1.65-0.28c0.01,0,0.03-0.01,0.03-0.01
			c0.54-0.09,1.09-0.16,1.65-0.23c0.48-0.07,0.96-0.12,1.45-0.17c0.15-0.02,0.31-0.03,0.47-0.05c0.49-0.05,0.99-0.09,1.48-0.13
			c0.61-0.05,1.23-0.09,1.85-0.13c0,0,0.49-0.09,1.34-0.05h0.05c0.23,0.01,0.5,0.03,0.79,0.07c0.07,0.01,0.13,0.02,0.19,0.03
			c0.06,0.01,0.13,0.02,0.2,0.03c0.07,0.01,0.14,0.03,0.21,0.03c0.06,0.01,0.13,0.02,0.21,0.03c0.07,0.02,0.15,0.03,0.21,0.04
			c0.03,0,0.06,0.01,0.09,0.02c0.12,0.03,0.25,0.05,0.37,0.08c0.69,0.16,1.46,0.4,2.29,0.75c0.16,0.07,0.33,0.14,0.49,0.21
			c0.11,0.05,0.23,0.11,0.36,0.17c0.16,0.08,0.33,0.15,0.49,0.24c0.73,0.38,1.49,0.82,2.28,1.38c0.1,0.07,0.21,0.15,0.32,0.22
			c0.68,0.49,1.38,1.05,2.09,1.71c0.18,0.16,0.36,0.33,0.55,0.51c0.13,0.12,0.26,0.24,0.39,0.38c0.2,0.2,0.39,0.39,0.59,0.61
			c1.42,1.5,2.88,3.35,4.31,5.62c0.12,0.18,0.24,0.37,0.35,0.56c0.24,0.39,0.47,0.77,0.7,1.17c0.12,0.21,0.23,0.41,0.35,0.62
			c0.12,0.21,0.24,0.42,0.35,0.63c0.12,0.21,0.24,0.43,0.34,0.64c0.12,0.22,0.24,0.45,0.35,0.67c0.23,0.45,0.45,0.91,0.69,1.39
			c0.25,0.5,0.49,1.01,0.72,1.54c0.1,0.22,0.2,0.45,0.3,0.69c0.57,1.29,1.11,2.65,1.66,4.1c0.1,0.27,0.2,0.53,0.29,0.8
			c0.57,1.58,1.13,3.25,1.66,5.03c0.18,0.6,0.36,1.22,0.54,1.85c1.47,5.15,2.8,11.14,3.89,18.09c0.14,0.87,0.27,1.74,0.4,2.64
			c0.5,3.38,0.94,6.97,1.32,10.79c0.05,0.48,0.09,0.96,0.15,1.44c0.03,0.35,0.07,0.69,0.09,1.05c0.05,0.57,0.1,1.14,0.15,1.72
			c0.05,0.57,0.09,1.16,0.15,1.74c0.15,1.76,0.27,3.56,0.39,5.4c0.04,0.62,0.08,1.23,0.11,1.86
			C207.41,152.75,207.52,154.76,207.59,156.81z"/>
		<g>
			<path class="st0" d="M151.35,155.31c0,8.56,0,17.12,0,25.68c0,1.19-0.83,1.88-1.86,1.47c-5.84-2.29-11.82-6-17.65-10.27
				c-1.03-0.76-1.86-2.35-1.86-3.54c0-8.56,0-17.12,0-25.68c0-1.19,0.84-1.67,1.88-1.07c5.86,3.43,11.75,7.14,17.62,10.27
				C150.52,152.73,151.35,154.12,151.35,155.31z"/>
			<g>
				<path class="st6" d="M151.35,179.21c0,0.44,0,0.88,0,1.33c-7.04-2.5-14.32-7.12-21.37-12.34c0-0.44,0-0.88,0-1.33
					C137.03,172.03,144.31,176.65,151.35,179.21z"/>
			</g>
			<g>
				<path class="st6" d="M151.35,175.89c0,0.44,0,0.88,0,1.33c-7.05-2.64-14.32-7.26-21.37-12.34c0-0.44,0-0.88,0-1.33
					C137.04,168.58,144.3,173.2,151.35,175.89z"/>
			</g>
			<g>
				<path class="st6" d="M151.35,172.58c0,0.44,0,0.88,0,1.33c-7.06-2.78-14.31-7.4-21.37-12.34c0-0.44,0-0.88,0-1.33
					C137.05,165.13,144.29,169.75,151.35,172.58z"/>
			</g>
			<g>
				<path class="st6" d="M151.35,169.27c0,0.44,0,0.88,0,1.33c-7.07-2.91-14.3-7.54-21.37-12.34c0-0.44,0-0.88,0-1.33
					C137.06,161.67,144.28,166.3,151.35,169.27z"/>
			</g>
			<g>
				<path class="st6" d="M151.35,165.95c0,0.44,0,0.88,0,1.33c-7.07-3.05-14.29-7.67-21.37-12.34c0-0.44,0-0.88,0-1.33
					C137.06,158.22,144.28,162.85,151.35,165.95z"/>
			</g>
			<g>
				<path class="st6" d="M151.35,162.64c0,0.44,0,0.88,0,1.33c-7.08-3.19-14.28-7.81-21.37-12.34c0-0.44,0-0.88,0-1.33
					C137.07,154.77,144.27,159.4,151.35,162.64z"/>
			</g>
			<g>
				<path class="st6" d="M151.35,159.33c0,0.44,0,0.88,0,1.33c-7.09-3.32-14.28-7.95-21.37-12.34c0-0.44,0-0.88,0-1.33
					C137.08,151.32,144.26,155.95,151.35,159.33z"/>
			</g>
			<g>
				<path class="st6" d="M151.35,156.01c0,0.44,0,0.88,0,1.33c-7.1-3.46-14.27-8.09-21.37-12.34c0-0.44,0-0.88,0-1.33
					C137.09,147.87,144.25,152.49,151.35,156.01z"/>
			</g>
		</g>
		<path class="st7" d="M153.91,94.02c-3.2,3.76-8.76,5.11-12.37,3.03c-0.27-0.15-0.52-0.32-0.75-0.51c-0.02-0.05-0.02-0.1-0.03-0.15
			c-0.04-0.21-0.05-0.42-0.06-0.64c-0.01-0.13-0.02-0.26-0.02-0.4c0-0.19,0.02-0.38,0.04-0.57c0.02-0.18,0.03-0.36,0.06-0.55
			c0.03-0.18,0.08-0.38,0.13-0.57c0.05-0.18,0.09-0.36,0.14-0.55c0.07-0.19,0.15-0.38,0.23-0.57c0.08-0.18,0.14-0.37,0.23-0.55
			c0.09-0.19,0.21-0.37,0.31-0.56c0.1-0.18,0.21-0.36,0.32-0.54c0.23-0.33,0.46-0.66,0.74-0.98c0.09-0.11,0.2-0.22,0.29-0.32
			c0.12-0.12,0.24-0.25,0.36-0.38c0.21-0.21,0.42-0.41,0.64-0.59c0.02-0.01,0.03-0.01,0.04-0.02c0.21-0.18,0.42-0.35,0.64-0.5
			c0.08-0.06,0.15-0.1,0.22-0.15c0.16-0.11,0.32-0.22,0.48-0.32c0.09-0.06,0.19-0.11,0.28-0.17c0.15-0.08,0.3-0.17,0.45-0.25
			c0.1-0.06,0.21-0.11,0.31-0.16c0.15-0.08,0.29-0.14,0.43-0.2c0.12-0.06,0.25-0.11,0.38-0.16c0.13-0.05,0.26-0.1,0.4-0.15
			c0.16-0.06,0.32-0.11,0.49-0.16c0.11-0.04,0.24-0.07,0.35-0.1c0.26-0.07,0.53-0.12,0.79-0.18c0.09-0.01,0.16-0.04,0.25-0.05
			c0.09-0.02,0.19-0.03,0.29-0.04c0.17-0.03,0.33-0.05,0.5-0.07c0.11-0.01,0.22-0.01,0.32-0.02c0.16-0.01,0.32-0.02,0.47-0.02
			c0.11,0,0.22,0.01,0.33,0.01c0.15,0,0.3,0.01,0.45,0.02c0.11,0.01,0.22,0.02,0.33,0.04c0.15,0.02,0.29,0.04,0.44,0.07l0.31,0.06
			c0.15,0.03,0.3,0.08,0.44,0.11c0.09,0.03,0.2,0.05,0.29,0.08c0.15,0.06,0.31,0.11,0.46,0.18c0.08,0.03,0.16,0.06,0.24,0.08
			c0.23,0.1,0.45,0.21,0.66,0.34c0.28,0.16,0.55,0.34,0.78,0.53C156.37,89.53,155.69,91.92,153.91,94.02z"/>
		<path class="st8" d="M157.36,88.99c-0.26-0.44-0.59-0.86-0.99-1.23c-0.01-0.01-0.02-0.02-0.03-0.03c-0.1-0.09-0.22-0.2-0.34-0.29
			c-0.24-0.19-0.5-0.37-0.78-0.53c-0.21-0.13-0.43-0.24-0.66-0.34c-0.08-0.03-0.15-0.06-0.24-0.08c-0.15-0.07-0.31-0.12-0.46-0.18
			c-0.09-0.03-0.2-0.05-0.29-0.08c-0.14-0.04-0.29-0.08-0.44-0.11l-0.31-0.06c-0.15-0.03-0.29-0.05-0.44-0.07
			c-0.11-0.02-0.22-0.03-0.33-0.04c-0.15-0.01-0.3-0.02-0.45-0.02c-0.11,0-0.22-0.01-0.33-0.01c-0.15,0-0.31,0.01-0.47,0.02
			c-0.1,0.01-0.21,0.01-0.32,0.02c-0.17,0.02-0.33,0.04-0.5,0.07c-0.1,0.01-0.2,0.02-0.29,0.04c-0.08,0.01-0.16,0.04-0.25,0.05
			c-0.26,0.06-0.53,0.11-0.79,0.18c-0.11,0.04-0.24,0.07-0.35,0.1c-0.17,0.05-0.33,0.1-0.49,0.16c-0.13,0.05-0.26,0.1-0.4,0.15
			c-0.12,0.05-0.25,0.1-0.38,0.16c-0.14,0.06-0.28,0.12-0.43,0.2c-0.1,0.05-0.21,0.1-0.31,0.16c-0.15,0.08-0.3,0.16-0.45,0.25
			c-0.09,0.06-0.19,0.11-0.28,0.17c-0.16,0.1-0.32,0.21-0.48,0.32c-0.07,0.05-0.14,0.09-0.22,0.15c-0.22,0.15-0.43,0.32-0.64,0.5
			c-0.01,0.01-0.02,0.01-0.04,0.02c-0.22,0.19-0.43,0.39-0.64,0.59c-0.12,0.12-0.24,0.25-0.36,0.38c-0.09,0.1-0.2,0.21-0.29,0.32
			c-0.27,0.32-0.51,0.65-0.74,0.98c-0.11,0.18-0.22,0.36-0.32,0.54c-0.1,0.19-0.22,0.37-0.31,0.56c-0.08,0.18-0.15,0.37-0.23,0.55
			c-0.08,0.19-0.16,0.38-0.23,0.57c-0.06,0.19-0.09,0.37-0.14,0.55c-0.05,0.19-0.1,0.39-0.13,0.57c-0.03,0.19-0.04,0.37-0.06,0.55
			c-0.02,0.19-0.04,0.38-0.04,0.57c0,0.13,0.01,0.26,0.02,0.4c0.01,0.22,0.02,0.43,0.06,0.64c0.01,0.05,0.01,0.1,0.03,0.15
			c0,0.05,0.01,0.08,0.02,0.13c0.03,0.11,0.05,0.22,0.08,0.33c0,0,0,0,0.01,0c0.03,0.14,0.08,0.29,0.12,0.43
			c0.02,0.04,0.03,0.08,0.04,0.11c0.12,0.32,0.26,0.62,0.43,0.92l-1.1-1.85l-0.85-1.44c-0.04-0.07-0.08-0.13-0.12-0.2
			c-0.06-0.09-0.1-0.19-0.16-0.29c-0.08-0.16-0.16-0.33-0.24-0.51c-0.06-0.16-0.11-0.32-0.16-0.49c-0.02-0.07-0.05-0.14-0.07-0.21
			v-0.03c-0.03-0.08-0.05-0.18-0.06-0.26c-0.02-0.09-0.04-0.19-0.05-0.27c-0.01-0.06-0.02-0.1-0.03-0.16
			c-0.01-0.03-0.01-0.05-0.01-0.06c-0.02-0.13-0.01-0.28-0.02-0.42c-0.01-0.14-0.02-0.27-0.02-0.41v-0.05
			c-0.01-0.02-0.01-0.05-0.01-0.08c0-0.08,0.01-0.14,0.02-0.22c-0.01-0.02-0.01-0.03,0.01-0.05c0.01-0.06,0.02-0.12,0.02-0.18
			c0.02-0.18,0.03-0.36,0.06-0.54c0.03-0.19,0.09-0.38,0.13-0.57c0.03-0.09,0.05-0.19,0.07-0.28c0.02-0.05,0.03-0.1,0.05-0.16
			c0.01-0.04,0.02-0.08,0.03-0.11c0.01-0.04,0.03-0.07,0.05-0.1c0.05-0.15,0.11-0.3,0.18-0.45c0.07-0.16,0.12-0.32,0.2-0.48
			c0.05-0.12,0.1-0.24,0.18-0.35c0.06-0.09,0.11-0.19,0.16-0.28c0.09-0.15,0.18-0.31,0.28-0.46c0-0.03,0.02-0.06,0.04-0.08
			c0.02-0.03,0.04-0.07,0.06-0.09c0.03-0.04,0.06-0.08,0.09-0.12c0.07-0.1,0.14-0.21,0.23-0.3c0.1-0.16,0.23-0.31,0.36-0.46
			c0.17-0.2,0.35-0.4,0.54-0.58c0.04-0.04,0.08-0.09,0.11-0.12c0.01-0.01,0.02-0.02,0.02-0.02c0.04-0.03,0.07-0.07,0.1-0.09
			c0.17-0.17,0.35-0.34,0.54-0.49c0.01,0,0.02-0.01,0.02-0.01c0.09-0.08,0.19-0.16,0.29-0.24c0.11-0.09,0.23-0.19,0.35-0.26
			c0.08-0.06,0.15-0.1,0.23-0.15c0.08-0.06,0.16-0.12,0.25-0.17c0.09-0.08,0.19-0.13,0.29-0.19c0.08-0.05,0.14-0.08,0.22-0.12
			c0.08-0.05,0.14-0.09,0.23-0.14c0.02-0.01,0.04-0.02,0.06-0.03c0.05-0.03,0.11-0.05,0.17-0.08c0.1-0.06,0.21-0.1,0.31-0.16
			c0.27-0.14,0.56-0.26,0.84-0.37c0.05-0.02,0.09-0.05,0.14-0.07c0.05-0.01,0.09-0.03,0.14-0.05c0.02-0.01,0.05-0.02,0.08-0.02
			c0.17-0.06,0.33-0.11,0.49-0.17c0.07-0.03,0.14-0.05,0.21-0.06c0.05-0.02,0.1-0.03,0.15-0.04c0.26-0.08,0.53-0.13,0.79-0.19
			c0.08-0.02,0.17-0.04,0.25-0.05c0.09-0.02,0.19-0.03,0.29-0.04c0.13-0.02,0.26-0.04,0.41-0.06c0.14-0.01,0.28-0.03,0.42-0.03
			c0.16-0.01,0.32-0.01,0.47-0.01h0.32c0.15,0,0.31,0.01,0.46,0.03c0.11,0.01,0.22,0.02,0.33,0.03c0.15,0.02,0.29,0.04,0.44,0.07
			c0.08,0.02,0.16,0.03,0.24,0.05c0.24,0.04,0.47,0.1,0.7,0.17c0.04,0.01,0.07,0.02,0.1,0.04c0.16,0.05,0.31,0.11,0.47,0.16
			c0.03,0.01,0.07,0.03,0.09,0.04c0.05,0.02,0.09,0.04,0.14,0.06c0.04,0.02,0.08,0.04,0.11,0.06c0.19,0.08,0.37,0.18,0.55,0.28
			c0.25,0.14,0.47,0.29,0.69,0.46c0.1,0.08,0.21,0.16,0.31,0.25c0.09,0.09,0.19,0.18,0.28,0.26c0.09,0.09,0.18,0.19,0.26,0.29
			c0.17,0.19,0.33,0.4,0.46,0.6c0.05,0.07,0.09,0.13,0.13,0.2l0.96,1.62c0.01,0,0.01,0.01,0.01,0.01L157.36,88.99z"/>
		<path class="st5" d="M155.15,84.77l-0.28,0.17c-0.05-0.08-0.11-0.17-0.19-0.25c-0.08-0.09-0.17-0.19-0.26-0.28
			s-0.19-0.19-0.28-0.26c-0.11-0.09-0.2-0.19-0.31-0.27c-0.22-0.17-0.44-0.31-0.69-0.45c-0.19-0.11-0.36-0.2-0.55-0.28
			c-0.09-0.05-0.17-0.08-0.26-0.12c-0.02,0-0.06-0.03-0.09-0.03c-0.19-0.08-0.37-0.14-0.58-0.2c-0.22-0.06-0.45-0.12-0.69-0.17
			c-0.34-0.08-0.67-0.12-1.01-0.14c-0.16-0.02-0.31-0.03-0.47-0.03c-0.26,0-0.53,0-0.8,0.02c-0.12,0-0.26,0.02-0.41,0.03
			c-0.23,0.02-0.47,0.05-0.7,0.09c-0.08,0-0.16,0.03-0.25,0.05c-0.31,0.05-0.62,0.12-0.94,0.22c-0.08,0.02-0.16,0.03-0.22,0.06
			c-0.16,0.05-0.33,0.11-0.48,0.17c-0.03,0-0.06,0.02-0.08,0.02c-0.09,0.05-0.19,0.06-0.28,0.11c-0.28,0.11-0.58,0.23-0.84,0.37
			c-0.16,0.08-0.33,0.16-0.48,0.25c-0.02,0-0.03,0.02-0.06,0.03c-0.14,0.08-0.3,0.16-0.44,0.26c-0.11,0.05-0.2,0.11-0.3,0.19
			c-0.16,0.09-0.31,0.19-0.47,0.31c-0.12,0.08-0.23,0.17-0.36,0.27c-0.09,0.08-0.2,0.16-0.31,0.25c-0.19,0.16-0.36,0.31-0.53,0.48
			c-0.08,0.08-0.16,0.16-0.23,0.25c-0.19,0.17-0.37,0.37-0.55,0.56c-0.12,0.16-0.25,0.31-0.36,0.47c-0.08,0.09-0.16,0.2-0.22,0.3
			c-0.06,0.08-0.11,0.16-0.16,0.22c-0.02,0.03-0.03,0.05-0.03,0.08c-0.19,0.25-0.33,0.5-0.45,0.75c-0.08,0.11-0.12,0.23-0.17,0.34
			c-0.17,0.31-0.28,0.62-0.37,0.94c-0.05,0.08-0.08,0.16-0.08,0.22c-0.03,0.05-0.05,0.11-0.05,0.17c-0.09,0.28-0.17,0.56-0.2,0.84
			c-0.05,0.23-0.08,0.48-0.08,0.72c-0.02,0.02-0.02,0.03-0.02,0.05c0,0.09-0.02,0.2,0,0.3c-0.02,0.3,0,0.58,0.03,0.87
			c0,0.02,0,0.03,0.02,0.06c0.02,0.14,0.03,0.3,0.08,0.44c0,0.08,0.03,0.17,0.05,0.26c0.03,0.08,0.05,0.16,0.08,0.23
			c0.05,0.17,0.09,0.33,0.16,0.48c0.06,0.17,0.16,0.36,0.23,0.51c0.02,0.03,0.03,0.06,0.05,0.08l-0.26,0.16
			c-1.34-2.45-0.86-5.78,1.53-8.6c3.32-3.88,9.05-5.28,12.8-3.12C154.09,83.61,154.7,84.14,155.15,84.77z"/>
		<g>
			<path class="st9" d="M63.69,202.53c-0.52,0-1.04-0.06-1.57-0.19c-3.43-0.86-5.51-4.34-4.65-7.77
				c0.1-0.39,10.08-39.81,26.47-81.51c22.46-57.12,45.84-91.27,69.52-101.51c11.67-5.04,23.29-4.42,34.56,1.86
				c3.09,1.72,4.2,5.62,2.48,8.71c-1.72,3.09-5.62,4.2-8.71,2.48c-7.71-4.3-15.31-4.72-23.23-1.29
				C117.3,41.13,80.57,155.23,69.9,197.69C69.17,200.59,66.56,202.53,63.69,202.53z"/>
		</g>
		<g>
			<path class="st0" d="M148.39,99.7c-2.67,0-5.26-1.38-6.69-3.86c-0.43-0.75-1.18-1.75-1.97-2.8c-3.92-5.24-12.08-16.15-1.25-30.09
				c9.25-11.91,24.21-9.59,36.24-7.72c9.47,1.47,15.82,2.2,17.66-0.87c3.29-5.51,4.28-10.56,2.94-15
				c-1.55-5.12-6.25-9.67-13.59-13.16c-3.85-1.83-5.49-6.43-3.66-10.28c1.83-3.85,6.43-5.49,10.28-3.66
				c11.38,5.41,18.89,13.23,21.74,22.62c2.62,8.66,1.08,18.13-4.47,27.4c-7.31,12.22-21.7,9.99-33.27,8.2
				c-10.87-1.69-18.26-2.47-21.68,1.94c-3.47,4.46-2.57,6.04,1.42,11.37c1.02,1.37,2.09,2.79,2.98,4.33
				c2.13,3.69,0.87,8.41-2.82,10.54C151.02,99.36,149.7,99.7,148.39,99.7z"/>
		</g>
		<path class="st5" d="M156.4,88.47v0.08c0,0,0,0,0,0.02c-0.02,0.36-0.03,0.75-0.11,1.12c-0.06,0.39-0.16,0.76-0.28,1.15
			c-0.06,0.2-0.16,0.41-0.23,0.59c-0.03,0.09-0.06,0.19-0.11,0.3c-0.03,0.09-0.08,0.19-0.12,0.28c-0.19,0.37-0.41,0.76-0.65,1.12
			c-0.11,0.17-0.23,0.34-0.36,0.51c-0.12,0.17-0.25,0.34-0.41,0.5c-0.09,0.11-0.19,0.23-0.31,0.34c-0.11,0.12-0.23,0.26-0.36,0.39
			c-0.11,0.09-0.22,0.2-0.33,0.31c-0.12,0.09-0.23,0.2-0.34,0.3c-0.19,0.16-0.36,0.3-0.55,0.42c-0.02,0.03-0.03,0.03-0.05,0.05
			c-0.11,0.08-0.22,0.16-0.31,0.22c-0.51,0.36-1.04,0.67-1.61,0.94c-0.16,0.08-0.31,0.14-0.45,0.22c-0.61,0.27-1.22,0.47-1.84,0.62
			c-0.19,0.05-0.36,0.09-0.55,0.14c-0.12,0.02-0.25,0.05-0.36,0.06c-0.25,0.03-0.48,0.06-0.72,0.09c-0.53,0.06-1.06,0.06-1.56,0.03
			c-0.11,0-0.2-0.02-0.3-0.03c-0.08,0-0.14-0.02-0.22-0.02c-0.14-0.03-0.3-0.05-0.45-0.08c-0.14,0-0.28-0.03-0.42-0.06
			c-0.17-0.05-0.36-0.09-0.53-0.16c-0.05-0.02-0.09-0.02-0.14-0.05c-0.17-0.05-0.33-0.11-0.48-0.17c-0.09-0.03-0.17-0.06-0.23-0.08
			c-0.25-0.11-0.48-0.22-0.7-0.36c-0.16-0.08-0.31-0.17-0.45-0.28c-0.05-0.03-0.09-0.08-0.14-0.11c-0.12-0.09-0.25-0.19-0.36-0.28
			c-0.19-0.16-0.36-0.31-0.5-0.48c-0.12-0.12-0.22-0.23-0.33-0.37c-0.08-0.09-0.16-0.2-0.23-0.3c-0.02-0.05-0.05-0.08-0.06-0.12
			c-0.09-0.14-0.17-0.28-0.23-0.42l0.26-0.16c0.03,0.08,0.08,0.16,0.11,0.22c0.05,0.06,0.09,0.12,0.12,0.19
			c0.33,0.51,0.76,0.98,1.26,1.37c0.23,0.19,0.48,0.36,0.75,0.51c3.62,2.09,9.18,0.73,12.37-3.02c1.78-2.1,2.46-4.5,2.09-6.58
			c-0.14-0.76-0.42-1.5-0.84-2.15c-0.08-0.12-0.17-0.23-0.28-0.36l0.28-0.17c0.19,0.22,0.34,0.45,0.48,0.7
			c0.06,0.11,0.12,0.23,0.17,0.34c0.08,0.16,0.14,0.3,0.2,0.45c0,0.02,0,0.02,0,0.02c0.06,0.17,0.12,0.34,0.16,0.51
			c0.05,0.11,0.06,0.22,0.09,0.34c0,0.02,0.02,0.03,0,0.05c0.05,0.19,0.08,0.39,0.11,0.58C156.4,87.99,156.4,88.24,156.4,88.47z"/>
		<path class="st7" d="M157.62,95.49c0.09-0.19,0.16-0.38,0.24-0.57c0.08-0.2,0.17-0.39,0.23-0.59c0.06-0.19,0.1-0.38,0.15-0.57
			c0.05-0.2,0.1-0.39,0.14-0.58c0.03-0.19,0.04-0.37,0.06-0.56c0.01-0.15,0.04-0.31,0.05-0.46c0-0.04-0.01-0.08-0.01-0.12
			c0-0.14-0.01-0.28-0.02-0.42c-0.01-0.15,0-0.31-0.02-0.46c-0.01-0.07-0.03-0.13-0.04-0.2c-0.02-0.1-0.03-0.19-0.05-0.29
			c-0.02-0.1-0.03-0.21-0.06-0.31c-0.04-0.17-0.1-0.33-0.16-0.49c-0.01-0.04-0.02-0.08-0.04-0.12c-0.01-0.02-0.01-0.04-0.02-0.05
			c-0.08-0.2-0.17-0.4-0.26-0.59c-0.05-0.1-0.11-0.2-0.17-0.3l-2.08-3.49c0.18,0.3,0.33,0.61,0.45,0.94
			c0.02,0.04,0.03,0.08,0.04,0.12c0.09,0.26,0.16,0.52,0.21,0.79c0.02,0.1,0.04,0.19,0.05,0.29c0.03,0.22,0.05,0.44,0.06,0.66
			c0.01,0.14,0.02,0.28,0.02,0.42c0,0.19-0.03,0.39-0.04,0.58c-0.02,0.19-0.03,0.37-0.06,0.56c-0.03,0.19-0.09,0.39-0.14,0.59
			c-0.05,0.19-0.09,0.38-0.15,0.57c-0.06,0.2-0.15,0.39-0.23,0.59c-0.08,0.19-0.15,0.38-0.24,0.57c-0.09,0.19-0.21,0.39-0.32,0.58
			c-0.11,0.19-0.21,0.37-0.33,0.56c-0.23,0.34-0.48,0.68-0.76,1.01c-0.1,0.12-0.21,0.23-0.32,0.34c-0.12,0.13-0.24,0.26-0.36,0.39
			c-0.22,0.21-0.44,0.42-0.67,0.61c-0.01,0.01-0.01,0.01-0.02,0.01c-0.22,0.19-0.45,0.36-0.68,0.53c-0.07,0.05-0.15,0.1-0.23,0.15
			c-0.17,0.11-0.33,0.23-0.5,0.33c-0.09,0.06-0.19,0.11-0.28,0.17c-0.16,0.09-0.31,0.18-0.47,0.26c-0.11,0.06-0.22,0.11-0.33,0.16
			c-0.15,0.07-0.3,0.14-0.45,0.21c-0.13,0.06-0.25,0.11-0.38,0.16c-0.14,0.05-0.27,0.1-0.41,0.15c-0.17,0.06-0.34,0.12-0.51,0.17
			c-0.12,0.04-0.24,0.07-0.36,0.1c-0.27,0.07-0.55,0.14-0.82,0.19c-0.08,0.02-0.17,0.04-0.25,0.05c-0.1,0.02-0.2,0.03-0.3,0.04
			c-0.17,0.02-0.35,0.05-0.52,0.06c-0.11,0.01-0.22,0.01-0.33,0.02c-0.16,0.01-0.33,0.02-0.49,0.02c-0.11,0-0.23,0-0.34-0.01
			c-0.16,0-0.32-0.01-0.47-0.03c-0.11-0.01-0.22-0.02-0.33-0.03c-0.16-0.02-0.31-0.04-0.46-0.07c-0.11-0.02-0.21-0.04-0.32-0.06
			c-0.16-0.03-0.31-0.07-0.46-0.12c-0.1-0.03-0.2-0.05-0.29-0.08c-0.17-0.05-0.33-0.12-0.49-0.18c-0.08-0.03-0.16-0.06-0.24-0.09
			c-0.24-0.1-0.47-0.22-0.69-0.35c-0.72-0.42-1.32-0.93-1.78-1.53c-0.16-0.2-0.3-0.4-0.42-0.62l0,0l0,0l2.08,3.49
			c0.51,0.85,1.25,1.59,2.21,2.15c0.22,0.13,0.45,0.24,0.69,0.35c0.08,0.03,0.16,0.06,0.24,0.09c0.16,0.06,0.32,0.13,0.49,0.18
			c0.1,0.03,0.2,0.06,0.3,0.08c0.15,0.04,0.31,0.08,0.46,0.12c0.11,0.02,0.21,0.04,0.32,0.06c0.15,0.03,0.31,0.05,0.46,0.07
			c0.11,0.01,0.22,0.02,0.34,0.03c0.16,0.01,0.31,0.02,0.47,0.03c0.11,0,0.23,0.01,0.34,0.01c0.16,0,0.33-0.01,0.49-0.02
			c0.11-0.01,0.22-0.01,0.33-0.02c0.17-0.02,0.35-0.04,0.52-0.06c0.1-0.01,0.2-0.03,0.31-0.04c0.02,0,0.05-0.01,0.07-0.01
			c0.06-0.01,0.12-0.03,0.18-0.04c0.27-0.05,0.55-0.11,0.82-0.19c0.05-0.01,0.11-0.02,0.16-0.04c0.07-0.02,0.13-0.05,0.2-0.07
			c0.17-0.05,0.34-0.11,0.51-0.17c0.08-0.03,0.15-0.05,0.23-0.07c0.06-0.02,0.12-0.05,0.18-0.08c0.13-0.05,0.26-0.11,0.39-0.16
			c0.08-0.03,0.16-0.06,0.24-0.1c0.07-0.03,0.14-0.07,0.21-0.11c0.11-0.05,0.22-0.11,0.33-0.17c0.06-0.03,0.13-0.06,0.2-0.1
			c0.09-0.05,0.18-0.11,0.27-0.16c0.1-0.06,0.19-0.11,0.29-0.17c0.04-0.03,0.09-0.05,0.13-0.08c0.13-0.08,0.25-0.17,0.37-0.25
			c0.08-0.05,0.15-0.1,0.23-0.16c0.02-0.01,0.04-0.03,0.06-0.04c0.21-0.16,0.42-0.32,0.62-0.49c0.01-0.01,0.01-0.01,0.02-0.01l0,0
			c0.22-0.19,0.44-0.38,0.64-0.59c0.01-0.01,0.02-0.02,0.03-0.03c0.13-0.12,0.24-0.26,0.36-0.39c0.09-0.1,0.19-0.19,0.28-0.3
			c0.01-0.01,0.03-0.03,0.04-0.04c0.25-0.3,0.49-0.6,0.7-0.91c0.02-0.03,0.04-0.07,0.06-0.1c0.12-0.18,0.22-0.37,0.33-0.56
			C157.41,95.88,157.52,95.69,157.62,95.49z"/>
		<g>
			<polygon class="st2" points="71.04,204.04 59.13,197.17 59.13,186.2 71.04,193.07 			"/>
			<path class="st10" d="M90.82,221.52v3.33l-12.01,6.97v-3.33c0-3.38-2.39-7.51-5.34-9.21l-39.45-22.77
				c-1.36-0.78-2.6-0.92-3.55-0.49l11.16-6.36h0.01c0.96-1.05,2.58-1.17,4.4-0.11l39.44,22.77
				C88.43,214.01,90.82,218.14,90.82,221.52z"/>
			<path class="st2" d="M78.81,228.5v3.33l-50.13-28.94v-3.33c0-1.82,0.69-3.05,1.78-3.54h0.01c0.94-0.43,2.18-0.29,3.55,0.49
				l39.45,22.77C76.42,220.99,78.81,225.11,78.81,228.5z"/>
			<g>
				<polygon class="st2" points="66.13,197.95 61.64,210.32 49.66,203.4 54.15,191.04 				"/>
			</g>
			<polygon class="st10" points="54.15,191.04 59.13,186.2 71.04,193.07 66.13,197.95 			"/>
			<polygon class="st1" points="61.64,210.32 71.1,204.04 71.04,193.07 66.13,197.95 			"/>
		</g>
	</g>
</g>
</svg>
