<?xml version="1.0" encoding="utf-8"?>
<!-- Generator: Adobe Illustrator 25.3.1, SVG Export Plug-In . SVG Version: 6.00 Build 0)  -->
<svg version="1.1" id="圖層_1" xmlns="http://www.w3.org/2000/svg" xmlns:xlink="http://www.w3.org/1999/xlink" x="0px" y="0px"
	 viewBox="0 0 240 240" style="enable-background:new 0 0 240 240;" xml:space="preserve">
<style type="text/css">
	.st0{fill:#E6E7E8;}
	.st1{fill:#BCBEC0;}
	.st2{fill:#58595B;}
	.st3{fill:#050505;}
	.st4{fill:#6D6E71;}
	.st5{fill:#F1F2F2;}
	.st6{fill:#D1D3D4;}
	.st7{fill:#282828;}
	.st8{fill:#2B2B2B;}
	.st9{fill:#333333;}
	.st10{fill:#414042;}
	.st11{fill:#231F20;}
	.st12{clip-path:url(#SVGID_2_);}
	.st13{opacity:0.09;fill:#FFFFFF;}
	.st14{clip-path:url(#SVGID_4_);fill:#414042;}
	.st15{clip-path:url(#SVGID_6_);fill:#414042;}
	.st16{clip-path:url(#SVGID_8_);}
	.st17{fill:#808285;}
	.st18{fill:#939598;}
	.st19{fill:#A7A9AC;}
	.st20{fill:#141414;}
	.st21{fill:#262626;}
</style>
<g>
	<g>
		<g>
			<polygon class="st0" points="105.42,113.15 145.83,89.75 218.28,131.64 177.87,154.83 			"/>
		</g>
		<polygon class="st1" points="177.87,154.83 177.87,206.07 218.28,182.71 218.28,131.69 		"/>
		<polygon class="st2" points="175.78,156.01 160.63,147.33 160.63,198.6 175.78,207.28 		"/>
		<polygon class="st3" points="160.63,198.12 103.41,165.07 103.41,165.56 160.63,198.6 		"/>
		<g>
			<polygon class="st4" points="103.41,114.31 105.49,113.12 162.72,146.15 160.63,147.33 			"/>
		</g>
		<g>
			<path class="st1" d="M170.46,176.46c0-1.53-1.07-3.39-2.41-4.17c-0.67-0.39-1.27-0.42-1.71-0.17l0,0l-1.69,1.36l3.4,5.32
				l1.43-0.68c0.13-0.04,0.25-0.09,0.36-0.17l0.05-0.02l-0.01-0.01C170.24,177.63,170.46,177.14,170.46,176.46z"/>
			<g>
				<g>
					<path class="st5" d="M168.74,177.33c-0.01,1.43-1.01,2.01-2.27,1.28c-1.24-0.71-2.24-2.45-2.24-3.89
						c0.01-1.19,0.71-1.79,1.67-1.53c0.1,0.01,0.18,0.05,0.28,0.1c0.1,0.03,0.2,0.09,0.31,0.14
						C167.73,174.17,168.74,175.9,168.74,177.33z"/>
				</g>
			</g>
			<path class="st6" d="M166.18,173.3v1.67l-0.28-0.16v-1.6C165.99,173.21,166.08,173.25,166.18,173.3z"/>
		</g>
		<g>
			<path class="st1" d="M170.46,190.9c0-1.53-1.07-3.39-2.41-4.17c-0.67-0.39-1.27-0.42-1.71-0.17l0,0l-1.69,1.36l3.4,5.32
				l1.43-0.68c0.13-0.04,0.25-0.09,0.36-0.17l0.05-0.02l-0.01-0.01C170.24,192.08,170.46,191.59,170.46,190.9z"/>
			<g>
				<g>
					<path class="st5" d="M168.74,191.78c-0.01,1.43-1.01,2.01-2.27,1.28c-1.24-0.71-2.24-2.45-2.24-3.89
						c0.01-1.19,0.71-1.79,1.67-1.53c0.1,0.01,0.18,0.05,0.28,0.1c0.1,0.03,0.2,0.09,0.31,0.14
						C167.73,188.61,168.74,190.35,168.74,191.78z"/>
				</g>
			</g>
			<path class="st6" d="M166.18,187.74v1.67l-0.28-0.16v-1.6C165.99,187.66,166.08,187.69,166.18,187.74z"/>
		</g>
		<polygon class="st7" points="160.63,147.33 103.41,114.31 103.41,165.06 160.63,198.11 		"/>
		<polygon class="st8" points="107.7,162.59 107.7,121.75 156.34,149.83 156.34,190.67 		"/>
		<polygon class="st9" points="107.7,162.59 143.05,142.18 107.7,121.75 		"/>
		<g>
			<g>
				<g>
					<path class="st7" d="M173.22,159.28v3.28c0,0.46-0.33,0.64-0.75,0.42l-8.54-4.93c-0.2-0.11-0.38-0.33-0.51-0.55
						c-0.13-0.22-0.22-0.48-0.22-0.71l0.02-3.28c0-0.48,0.33-0.66,0.73-0.42l7.37,4.24l1.17,0.68
						C172.89,158.24,173.22,158.81,173.22,159.28z"/>
				</g>
			</g>
		</g>
		<polygon class="st10" points="175.78,207.28 175.78,156.01 177.87,154.83 177.87,206.07 		"/>
		<g>
			<polygon class="st4" points="160.63,147.33 162.72,146.15 177.87,154.83 175.78,156.01 			"/>
		</g>
		<g>
			<g>
				<path class="st11" d="M166.52,163.89c-0.13,0-0.26-0.04-0.39-0.11l-1.98-1.14c-0.39-0.22-0.68-0.73-0.68-1.19
					c0-0.27,0.11-0.48,0.3-0.59c0.19-0.11,0.43-0.1,0.67,0.04l1.97,1.14c0.39,0.23,0.69,0.73,0.69,1.18c0,0.27-0.11,0.49-0.31,0.6
					C166.72,163.86,166.62,163.89,166.52,163.89z M164.06,161.35c0,0.01-0.01,0.04-0.01,0.1c0,0.25,0.18,0.57,0.39,0.69l1.98,1.14
					c0.06,0.04,0.09,0.04,0.11,0.04c0,0,0.01-0.03,0.01-0.1c0-0.24-0.19-0.56-0.4-0.68l-1.97-1.14
					C164.11,161.36,164.08,161.35,164.06,161.35z"/>
			</g>
			<g>
				<path class="st11" d="M171.04,166.42c-0.13,0-0.26-0.04-0.39-0.11l-1.97-1.14c-0.39-0.22-0.68-0.73-0.68-1.19
					c0-0.27,0.11-0.48,0.3-0.59c0.19-0.11,0.43-0.09,0.67,0.04l1.98,1.14c0.4,0.23,0.69,0.74,0.69,1.18c0,0.27-0.11,0.49-0.3,0.6
					C171.24,166.4,171.14,166.42,171.04,166.42z M168.58,163.89c0,0.01-0.01,0.04-0.01,0.1c0,0.25,0.18,0.57,0.39,0.69l1.97,1.14
					c0.06,0.03,0.09,0.04,0.11,0.04c0,0,0.01-0.03,0.01-0.1c0-0.24-0.19-0.56-0.4-0.68l-1.98-1.14
					C168.63,163.89,168.6,163.89,168.58,163.89z"/>
			</g>
			<g>
				<path class="st2" d="M166.28,162.28l-1.97-1.14c-0.3-0.17-0.54-0.04-0.54,0.31c0,0.35,0.23,0.76,0.53,0.94l1.97,1.14
					c0.3,0.17,0.55,0.03,0.55-0.31C166.82,162.87,166.58,162.46,166.28,162.28L166.28,162.28z"/>
			</g>
			<g>
				<path class="st2" d="M170.8,164.82l-1.97-1.14c-0.3-0.17-0.54-0.04-0.54,0.31s0.23,0.76,0.53,0.94l1.97,1.14
					c0.3,0.17,0.55,0.03,0.55-0.31C171.35,165.4,171.1,164.99,170.8,164.82L170.8,164.82z"/>
			</g>
		</g>
		<g>
			<g>
				<path class="st11" d="M166.52,166.83c-0.13,0-0.26-0.04-0.39-0.11l-1.98-1.14c-0.39-0.23-0.68-0.74-0.68-1.19
					c0-0.27,0.11-0.48,0.3-0.59c0.19-0.11,0.43-0.1,0.67,0.04l1.97,1.14c0.39,0.23,0.69,0.73,0.69,1.18c0,0.27-0.11,0.49-0.31,0.6
					C166.72,166.81,166.62,166.83,166.52,166.83z M164.06,164.3c0,0.01-0.01,0.04-0.01,0.1c0,0.25,0.18,0.57,0.39,0.69l1.98,1.14
					c0.06,0.04,0.09,0.04,0.11,0.04c0,0,0.01-0.03,0.01-0.1c0-0.24-0.19-0.56-0.4-0.68l-1.97-1.14
					C164.11,164.3,164.08,164.3,164.06,164.3z"/>
			</g>
			<g>
				<path class="st11" d="M171.04,169.37c-0.13,0-0.26-0.04-0.39-0.11l-1.97-1.14c-0.39-0.22-0.68-0.73-0.68-1.19
					c0-0.27,0.11-0.48,0.3-0.59c0.19-0.11,0.43-0.1,0.67,0.04l1.98,1.14c0.4,0.23,0.69,0.74,0.69,1.18c0,0.27-0.11,0.49-0.3,0.6
					C171.24,169.34,171.14,169.37,171.04,169.37z M168.58,166.83c0,0.01-0.01,0.04-0.01,0.1c0,0.25,0.18,0.57,0.39,0.69l1.97,1.14
					c0.06,0.03,0.09,0.03,0.11,0.04c0,0,0.01-0.03,0.01-0.1c0-0.24-0.19-0.56-0.4-0.68l-1.98-1.14
					C168.63,166.84,168.6,166.83,168.58,166.83z"/>
			</g>
			<g>
				<path class="st2" d="M166.28,165.23l-1.97-1.14c-0.3-0.17-0.54-0.04-0.54,0.31c0,0.35,0.23,0.76,0.53,0.94l1.97,1.14
					c0.3,0.17,0.55,0.03,0.55-0.31C166.82,165.81,166.58,165.4,166.28,165.23L166.28,165.23z"/>
			</g>
			<g>
				<path class="st2" d="M170.8,167.76l-1.97-1.14c-0.3-0.17-0.54-0.04-0.54,0.31c0,0.35,0.23,0.76,0.53,0.94l1.97,1.14
					c0.3,0.17,0.55,0.03,0.55-0.31C171.35,168.35,171.1,167.94,170.8,167.76L170.8,167.76z"/>
			</g>
		</g>
		<polygon class="st7" points="170.41,183.33 164.1,179.6 164.1,180.36 170.41,184.07 		"/>
		<polygon class="st7" points="170.41,185.56 164.1,181.84 164.1,182.59 170.41,186.3 		"/>
		<polygon class="st7" points="170.41,197.14 164.1,193.41 164.1,194.16 170.41,197.87 		"/>
		<polygon class="st7" points="170.41,199.37 164.1,195.64 164.1,196.39 170.41,200.1 		"/>
		<g>
			<g>
				<polygon class="st0" points="186.25,161.61 210.15,147.57 210.15,149.11 186.25,163.14 				"/>
			</g>
			<g>
				<polygon class="st0" points="186.25,164.93 210.15,150.89 210.15,152.44 186.25,166.46 				"/>
			</g>
			<g>
				<polygon class="st0" points="186.25,168.25 210.15,154.21 210.15,155.76 186.25,169.78 				"/>
			</g>
			<g>
				<polygon class="st0" points="186.25,171.57 210.15,157.53 210.15,159.08 186.25,173.1 				"/>
			</g>
		</g>
		<polygon class="st7" points="160.24,147.13 162.33,145.93 162.72,146.16 160.62,147.33 		"/>
		<polygon class="st7" points="178.44,205.74 177.87,206.07 177.87,154.84 105.5,113.11 106.09,112.78 178.44,154.51 		"/>
		<g>
			<defs>
				<polygon id="SVGID_1_" points="107.7,162.59 107.7,121.75 156.34,149.83 156.34,190.67 				"/>
			</defs>
			<clipPath id="SVGID_2_">
				<use xlink:href="#SVGID_1_"  style="overflow:visible;"/>
			</clipPath>
			<g class="st12">
				<g>
					<g>
						<path class="st7" d="M170.26,153.64c-9.97-5.75-26.09-5.75-35.99,0c-9.9,5.75-9.85,15.09,0.12,20.85
							c9.98,5.76,26.1,5.76,36.01,0.01C180.3,168.75,180.25,159.41,170.26,153.64L170.26,153.64z"/>
					</g>
				</g>
				<g>
					<g>
						<path class="st9" d="M170.26,152.1c-9.97-5.75-26.09-5.75-35.99,0c-9.9,5.75-9.85,15.09,0.12,20.85
							c9.98,5.76,26.1,5.76,36.01,0.01C180.3,167.2,180.25,157.86,170.26,152.1L170.26,152.1z"/>
					</g>
				</g>
			</g>
		</g>
		<polygon class="st13" points="107.7,152.5 156.34,149.83 107.7,121.75 		"/>
	</g>
	<g>
		<g>
			<path class="st11" d="M116.51,88.93l0-0.12v0l0-9l0.9,0.19c0.17-0.14,0.35-0.27,0.57-0.39c1.95-1.12,5.1-1.13,7.03-0.01
				c0.28,0.16,0.51,0.33,0.71,0.52l0.73-0.35l0,8.99l0,0c0.02,0.75-0.47,1.51-1.47,2.08c-1.95,1.12-5.1,1.13-7.03,0.01
				C117.04,90.31,116.56,89.62,116.51,88.93L116.51,88.93z"/>
			<path class="st6" d="M117.96,81.89c1.94,1.12,5.09,1.11,7.03-0.01c1.95-1.12,1.96-2.94,0.02-4.06c-1.94-1.12-5.09-1.11-7.03,0.01
				C116.03,78.95,116.02,80.77,117.96,81.89z"/>
		</g>
		<g>
			<path class="st11" d="M63.11,119.69l0-0.12c0,0,0,0,0,0l0-9l0.9,0.19c0.17-0.14,0.35-0.27,0.57-0.39
				c1.95-1.12,5.1-1.13,7.03-0.01c0.28,0.16,0.51,0.33,0.71,0.52l0.73-0.35l0,8.99l0,0c0.02,0.75-0.47,1.51-1.47,2.08
				c-1.95,1.12-5.1,1.13-7.03,0.01C63.63,121.06,63.16,120.38,63.11,119.69L63.11,119.69z"/>
			<path class="st6" d="M64.55,112.65c1.94,1.12,5.09,1.11,7.03-0.01c1.95-1.12,1.96-2.94,0.02-4.06c-1.94-1.12-5.09-1.11-7.03,0.01
				C62.62,109.71,62.62,111.53,64.55,112.65z"/>
		</g>
		<g>
			<path class="st5" d="M44.37,32.26L84.05,9.35C88.94,6.53,93.36,6.22,96.59,8l0,0l0.07,0.04c0.03,0.02,0.06,0.03,0.09,0.05
				l30.47,17.64l0,0c-3.16-1.41-7.33-0.97-11.91,1.67L75.65,50.32c-5.59,3.23-10.59,9.05-13.87,15.56L30.51,47.82
				C33.79,41.32,38.78,35.49,44.37,32.26z"/>
			<path class="st0" d="M27.31,56.39L27.31,56.39c0.69-2.88,1.79-5.79,3.2-8.57l31.27,18.05c-2.52,5-4.04,10.4-4.04,15.33v40.23
				l-31.28-18.06V63.15C26.46,60.96,26.76,58.69,27.31,56.39L27.31,56.39z"/>
			<path class="st6" d="M57.74,121.43l75.49-43.59V37.62c0-11.35-8.02-15.92-17.91-10.21L75.65,50.32
				c-9.89,5.71-17.91,19.54-17.91,30.89V121.43z"/>
			<g>
				<polygon class="st10" points="108.39,24.4 100.16,19.65 55.55,45.4 63.78,50.15 				"/>
				<polygon class="st4" points="100.16,20.32 107.22,24.4 100.16,28.47 63.78,49.48 56.72,45.4 				"/>
				<polygon class="st2" points="107.22,24.4 100.16,28.47 100.16,20.32 				"/>
				<polygon class="st4" points="100.16,20.32 100.16,28.47 63.78,49.48 56.72,45.4 				"/>
				<polygon class="st4" points="88.73,13.72 95.79,17.8 88.73,21.87 52.35,42.88 45.28,38.8 				"/>
				<polygon class="st10" points="96.95,17.8 88.73,13.05 44.12,38.8 52.35,43.55 				"/>
				<polygon class="st4" points="88.73,13.72 95.79,17.8 88.73,21.87 52.35,42.88 45.28,38.8 				"/>
				<polygon class="st2" points="95.79,17.8 88.73,21.87 88.73,13.72 				"/>
				<g>
					<defs>
						<polygon id="SVGID_3_" points="45.28,38.8 88.73,13.72 88.73,21.87 52.35,42.88 						"/>
					</defs>
					<use xlink:href="#SVGID_3_"  style="overflow:visible;fill:#6D6E71;"/>
					<clipPath id="SVGID_4_">
						<use xlink:href="#SVGID_3_"  style="overflow:visible;"/>
					</clipPath>
					<path class="st14" d="M57.45,34.27c0.74-0.42,1.5-0.47,2.1-0.12c0.48,0.28,0.78,0.77,0.89,1.39c0.03,0.09,0.05,0.18,0.05,0.28
						v0.2v15.2c0,0.24,0.06,0.35,0.06,0.36c0.03,0.01,0.16,0,0.41-0.14c0.57-0.33,1.07-1.09,1.24-1.79V34.1
						c0-1.42,0.93-3.03,2.21-3.77c0.73-0.42,1.5-0.47,2.1-0.12c0.48,0.28,0.78,0.77,0.89,1.39c0.03,0.09,0.05,0.18,0.05,0.28v0.2
						v15.2v0c0,0.24,0.06,0.35,0.06,0.36c0.03,0.01,0.15,0,0.41-0.14c0.69-0.4,1.3-1.45,1.3-2.24v-15.2v-0.2
						c0-0.08,0.01-0.15,0.03-0.23c0.16-1.31,1.02-2.68,2.17-3.35c0.73-0.42,1.5-0.47,2.1-0.12c0.48,0.28,0.78,0.77,0.89,1.39
						c0.03,0.09,0.05,0.18,0.05,0.28v0.2v15.2v0c0,0.24,0.06,0.35,0.06,0.36c0.03,0.01,0.15,0,0.4-0.14c0.69-0.4,1.3-1.45,1.3-2.24
						v0V25.92V25.8c0-0.07,0.01-0.14,0.03-0.2c0.13-1.32,1.02-2.78,2.18-3.45c0.73-0.42,1.5-0.47,2.09-0.12
						c0.48,0.28,0.78,0.77,0.89,1.39c0.03,0.09,0.05,0.18,0.05,0.28v0.2v15.2c0,0.24,0.06,0.35,0.06,0.36c0.03,0.01,0.16,0,0.4-0.14
						c0.69-0.4,1.3-1.45,1.3-2.24v-15.4c0-0.48,0.39-0.87,0.87-0.87c0.48,0,0.87,0.39,0.87,0.87v15.4c0,1.42-0.93,3.03-2.2,3.77
						c-0.41,0.24-0.82,0.35-1.22,0.35c-0.32,0-0.62-0.08-0.88-0.23c-0.55-0.32-0.87-0.93-0.92-1.68c-0.01-0.06-0.02-0.12-0.02-0.18
						v0V23.9c0-0.24-0.06-0.35-0.07-0.36c-0.03-0.01-0.15,0-0.41,0.14c-0.69,0.4-1.3,1.45-1.3,2.24V41.2v0
						c0,1.42-0.93,3.03-2.21,3.77c-0.41,0.24-0.82,0.35-1.22,0.35c-0.32,0-0.62-0.08-0.88-0.23c-0.55-0.32-0.87-0.93-0.92-1.69
						c-0.01-0.06-0.02-0.11-0.02-0.17c0,0,0,0,0-0.01v0v-15.2c0-0.24-0.06-0.35-0.06-0.36c-0.03-0.01-0.16,0-0.41,0.14
						c-0.69,0.4-1.3,1.45-1.3,2.24v15.2c0,1.42-0.93,3.03-2.2,3.77c-0.41,0.23-0.82,0.35-1.22,0.35c-0.32,0-0.62-0.08-0.88-0.23
						c-0.55-0.32-0.87-0.93-0.92-1.69c-0.01-0.06-0.02-0.11-0.02-0.17c0,0,0,0,0-0.01v0v-15.2c0-0.24-0.06-0.35-0.06-0.36
						c-0.03-0.01-0.15,0-0.41,0.14c-0.58,0.33-1.09,1.12-1.25,1.83c0,0.03,0.01,0.07,0.01,0.1v15.4c0,1.42-0.93,3.03-2.21,3.77
						c-0.41,0.24-0.82,0.35-1.22,0.35c-0.32,0-0.62-0.08-0.88-0.23c-0.48-0.28-0.78-0.77-0.89-1.39c-0.03-0.09-0.05-0.18-0.05-0.28
						v-0.2v-15.2c0-0.24-0.06-0.35-0.06-0.36c-0.02-0.01-0.15-0.01-0.4,0.14c-0.69,0.4-1.3,1.45-1.3,2.24v15.4
						c0,0.48-0.39,0.87-0.87,0.87c-0.48,0-0.87-0.39-0.87-0.87v-15.4C55.25,36.61,56.18,35,57.45,34.27z"/>
				</g>
				<g>
					<defs>
						<polygon id="SVGID_5_" points="100.16,20.32 107.22,24.4 100.16,28.47 63.78,49.48 56.72,45.4 						"/>
					</defs>
					<clipPath id="SVGID_6_">
						<use xlink:href="#SVGID_5_"  style="overflow:visible;"/>
					</clipPath>
					<path class="st15" d="M68.26,41.33c0.74-0.42,1.5-0.47,2.1-0.12c0.48,0.28,0.78,0.77,0.89,1.39c0.03,0.09,0.05,0.18,0.05,0.28
						v0.2v15.2c0,0.24,0.06,0.35,0.06,0.36c0.03,0.01,0.16,0,0.41-0.14c0.57-0.33,1.07-1.09,1.24-1.79V41.16
						c0-1.42,0.93-3.03,2.21-3.77c0.73-0.42,1.5-0.47,2.1-0.12c0.48,0.28,0.78,0.77,0.89,1.39c0.03,0.09,0.05,0.18,0.05,0.28v0.2
						v15.2v0c0,0.24,0.06,0.35,0.06,0.36c0.03,0.01,0.15,0,0.41-0.14c0.69-0.4,1.3-1.45,1.3-2.24v-15.2v-0.2
						c0-0.08,0.01-0.15,0.03-0.23c0.16-1.31,1.02-2.68,2.17-3.35c0.73-0.42,1.5-0.47,2.1-0.12c0.48,0.28,0.78,0.77,0.89,1.39
						c0.03,0.09,0.05,0.18,0.05,0.28v0.2v15.2v0c0,0.24,0.06,0.35,0.06,0.36c0.03,0.01,0.15,0,0.4-0.14c0.69-0.4,1.3-1.45,1.3-2.24
						v0V32.98v-0.12c0-0.07,0.01-0.14,0.03-0.2c0.13-1.32,1.02-2.78,2.18-3.45c0.73-0.42,1.5-0.47,2.09-0.12
						c0.48,0.28,0.78,0.77,0.89,1.39c0.03,0.09,0.05,0.18,0.05,0.28v0.2v15.2c0,0.24,0.06,0.35,0.06,0.36c0.03,0.01,0.16,0,0.4-0.14
						c0.69-0.4,1.3-1.45,1.3-2.24v-15.4c0-0.48,0.39-0.87,0.87-0.87c0.48,0,0.87,0.39,0.87,0.87v15.4c0,1.42-0.93,3.03-2.2,3.77
						c-0.41,0.24-0.82,0.35-1.22,0.35c-0.32,0-0.62-0.08-0.88-0.23c-0.55-0.32-0.87-0.93-0.92-1.68c-0.01-0.06-0.02-0.12-0.02-0.18
						v0v-15.2c0-0.24-0.06-0.35-0.07-0.36c-0.03-0.01-0.15,0-0.41,0.14c-0.69,0.4-1.3,1.45-1.3,2.24v15.28v0
						c0,1.42-0.93,3.03-2.21,3.77c-0.41,0.24-0.82,0.35-1.22,0.35c-0.32,0-0.62-0.08-0.88-0.23c-0.55-0.32-0.87-0.93-0.92-1.69
						c-0.01-0.06-0.02-0.11-0.02-0.17c0,0,0,0,0-0.01v0v-15.2c0-0.24-0.06-0.35-0.06-0.36c-0.03-0.01-0.16,0-0.41,0.14
						c-0.69,0.4-1.3,1.45-1.3,2.24v15.2c0,1.42-0.93,3.03-2.2,3.77c-0.41,0.23-0.82,0.35-1.22,0.35c-0.32,0-0.62-0.08-0.88-0.23
						c-0.55-0.32-0.87-0.93-0.92-1.69c-0.01-0.06-0.02-0.11-0.02-0.17c0,0,0,0,0-0.01v0v-15.2c0-0.24-0.06-0.35-0.06-0.36
						c-0.03-0.01-0.15,0-0.41,0.14c-0.58,0.33-1.09,1.12-1.25,1.83c0,0.03,0.01,0.07,0.01,0.1v15.4c0,1.42-0.93,3.03-2.21,3.77
						c-0.41,0.24-0.82,0.35-1.22,0.35c-0.32,0-0.62-0.08-0.88-0.23c-0.48-0.28-0.78-0.77-0.89-1.39c-0.03-0.09-0.05-0.18-0.05-0.28
						v-0.2v-15.2c0-0.24-0.06-0.35-0.06-0.36c-0.02-0.01-0.15-0.01-0.4,0.14c-0.69,0.4-1.3,1.45-1.3,2.24v15.4
						c0,0.48-0.39,0.87-0.87,0.87s-0.87-0.39-0.87-0.87V45.1C66.06,43.67,66.99,42.06,68.26,41.33z"/>
				</g>
			</g>
			<g>
				<g>
					<path class="st2" d="M37.8,105.28l6.16,3.55c1.7,0.98,3.08,0.2,3.08-1.76V74.67c0-1.95-1.38-4.33-3.08-5.31l-6.16-3.55
						c-1.7-0.98-3.08-0.2-3.08,1.75v32.41C34.73,101.93,36.1,104.3,37.8,105.28z"/>
					<polygon class="st10" points="43.42,104.37 43.42,73.2 38.35,70.27 38.35,101.44 					"/>
				</g>
				<g>
					<g>
						<defs>
							<rect id="SVGID_7_" x="34.96" y="69.86" width="8.38" height="25.73"/>
						</defs>
						<clipPath id="SVGID_8_">
							<use xlink:href="#SVGID_7_"  style="overflow:visible;"/>
						</clipPath>
						<g class="st16">
							<polygon class="st17" points="33.53,83.93 46.34,76.53 46.89,76.85 48.62,76.26 48.62,77.85 34.34,86.09 32.07,84.78 
								32.07,83.19 							"/>
							<polygon class="st18" points="34.34,84.5 48.62,76.26 46.34,74.95 32.07,83.19 							"/>
						</g>
					</g>
					<g>
						<path class="st1" d="M30.08,82.35c0-0.06,0-0.12,0-0.17v-2.13l0.67,0.17c0.47-0.69,1.18-1.33,2.14-1.88l7.42,4.28l6.31,1.58
							v2.06c-3.77,2.17-9.89,2.16-13.68-0.02c-1.8-1.04-2.75-2.38-2.84-3.74l-0.01,0V82.35z"/>
						<path class="st6" d="M32.89,76.27c-3.77,2.17-3.75,5.71,0.04,7.9c3.79,2.19,9.92,2.2,13.68,0.02L32.89,76.27z"/>
					</g>
				</g>
			</g>
			<g>
				<path class="st19" d="M110.29,69.7c0.08-0.02,0.16-0.05,0.24-0.07c0.08-0.02,0.15-0.03,0.22-0.05c0.1-0.02,0.19-0.03,0.29-0.04
					c0.05-0.01,0.11-0.01,0.16-0.02c0.12-0.01,0.23-0.01,0.35-0.01c0.03,0,0.05,0,0.08,0c0.14,0.01,0.27,0.03,0.4,0.05
					c0.03,0.01,0.06,0.01,0.09,0.02c0.1,0.02,0.2,0.05,0.3,0.09c0.03,0.01,0.06,0.02,0.09,0.03c0.12,0.05,0.24,0.1,0.35,0.17
					l-0.01,0c0,0,0,0,0.01,0l-2.93-1.72c-0.01-0.01-0.02-0.01-0.03-0.02c-0.09-0.05-0.18-0.09-0.27-0.13
					c-0.02-0.01-0.04-0.01-0.05-0.02c-0.03-0.01-0.06-0.02-0.09-0.03c-0.05-0.02-0.09-0.04-0.14-0.05c-0.05-0.02-0.1-0.02-0.16-0.04
					c-0.03-0.01-0.06-0.02-0.1-0.02c-0.02,0-0.03-0.01-0.05-0.01c-0.11-0.02-0.22-0.03-0.33-0.04c-0.01,0-0.01,0-0.02,0
					c-0.03,0-0.05,0-0.08,0c-0.09,0-0.17-0.01-0.26,0c-0.03,0-0.06,0.01-0.09,0.01c-0.05,0-0.11,0.01-0.16,0.02
					c-0.05,0.01-0.1,0.01-0.15,0.01c-0.04,0.01-0.09,0.02-0.13,0.03c-0.07,0.01-0.15,0.03-0.22,0.05c-0.04,0.01-0.08,0.01-0.12,0.03
					c-0.04,0.01-0.08,0.03-0.12,0.04c-0.13,0.04-0.25,0.08-0.38,0.13c-0.05,0.02-0.09,0.03-0.14,0.05
					c-0.03,0.01-0.05,0.03-0.08,0.04c-0.22,0.1-0.45,0.2-0.68,0.34c-0.35,0.2-0.69,0.44-1.02,0.7c-0.11,0.09-0.21,0.18-0.32,0.28
					c-0.16,0.14-0.32,0.27-0.48,0.42c-0.07,0.07-0.14,0.15-0.21,0.22c-0.06,0.06-0.12,0.13-0.18,0.19
					c-0.07,0.07-0.14,0.14-0.21,0.22c-0.15,0.17-0.3,0.35-0.44,0.53c-0.05,0.06-0.1,0.13-0.15,0.2c-0.03,0.03-0.05,0.07-0.08,0.1
					c-0.05,0.06-0.1,0.13-0.14,0.19c-0.11,0.15-0.21,0.31-0.32,0.47c-0.1,0.15-0.19,0.3-0.28,0.46c-0.01,0.01-0.01,0.03-0.02,0.04
					c-0.01,0.01-0.01,0.02-0.02,0.04c-0.07,0.13-0.15,0.25-0.21,0.38c-0.08,0.15-0.16,0.31-0.24,0.46c-0.07,0.14-0.13,0.28-0.2,0.42
					c0,0.01-0.01,0.02-0.01,0.03c0,0.01-0.01,0.02-0.01,0.02c-0.07,0.16-0.14,0.32-0.2,0.49c-0.07,0.17-0.13,0.34-0.19,0.51
					c-0.03,0.09-0.05,0.17-0.08,0.26c-0.01,0.04-0.02,0.07-0.03,0.11c-0.02,0.06-0.04,0.12-0.06,0.19
					c-0.06,0.21-0.11,0.41-0.16,0.62c-0.03,0.13-0.04,0.25-0.07,0.37c-0.01,0.07-0.02,0.13-0.03,0.2c-0.01,0.06-0.02,0.12-0.03,0.18
					c-0.05,0.36-0.07,0.71-0.07,1.06c0,1.71,0.59,2.91,1.56,3.48l2.93,1.72c-0.97-0.57-1.57-1.77-1.56-3.48
					c0-0.4,0.04-0.82,0.11-1.24c0.01-0.06,0.02-0.13,0.03-0.2c0.07-0.39,0.16-0.79,0.28-1.18c0.01-0.04,0.02-0.07,0.03-0.11
					c0.13-0.43,0.29-0.86,0.48-1.28c0-0.01,0.01-0.02,0.01-0.02c0.19-0.43,0.41-0.85,0.65-1.26c0.01-0.01,0.01-0.02,0.02-0.03
					c0.23-0.4,0.49-0.78,0.76-1.15c0.03-0.03,0.05-0.07,0.08-0.1c0.25-0.33,0.52-0.65,0.8-0.95c0.06-0.06,0.12-0.13,0.18-0.19
					c0.22-0.23,0.45-0.43,0.69-0.64c0.11-0.09,0.21-0.19,0.31-0.27c0.33-0.26,0.67-0.5,1.02-0.7c0.23-0.13,0.46-0.24,0.68-0.34
					c0.07-0.03,0.14-0.06,0.21-0.08C110.04,69.78,110.17,69.74,110.29,69.7z"/>
				<g>
					<path class="st1" d="M109.01,70.25c3-1.71,5.43-0.31,5.43,3.13c-0.01,3.44-2.45,7.61-5.45,9.33c-3,1.71-5.43,0.32-5.43-3.12
						C103.57,76.15,106.01,71.97,109.01,70.25z"/>
				</g>
			</g>
			<g>
				<path class="st19" d="M92.46,79.84c0.08-0.02,0.16-0.05,0.24-0.07c0.08-0.02,0.15-0.03,0.22-0.05c0.1-0.02,0.19-0.03,0.29-0.04
					c0.05-0.01,0.11-0.01,0.16-0.02c0.12-0.01,0.23-0.01,0.35-0.01c0.03,0,0.05,0,0.08,0c0.14,0.01,0.27,0.03,0.4,0.05
					c0.03,0.01,0.06,0.01,0.09,0.02c0.1,0.02,0.2,0.05,0.3,0.09c0.03,0.01,0.06,0.02,0.09,0.03c0.12,0.05,0.24,0.1,0.35,0.17
					l-0.01,0c0,0,0,0,0.01,0l-2.93-1.72c-0.01-0.01-0.02-0.01-0.03-0.02c-0.09-0.05-0.18-0.09-0.27-0.13
					c-0.02-0.01-0.04-0.01-0.05-0.02c-0.03-0.01-0.06-0.02-0.09-0.03c-0.05-0.02-0.09-0.04-0.14-0.05c-0.05-0.01-0.1-0.02-0.16-0.04
					c-0.03-0.01-0.06-0.02-0.1-0.02c-0.02,0-0.03-0.01-0.05-0.01c-0.11-0.02-0.22-0.03-0.33-0.04c-0.01,0-0.01,0-0.02,0
					c-0.03,0-0.05,0-0.08,0c-0.09,0-0.17-0.01-0.26,0c-0.03,0-0.06,0.01-0.09,0.01c-0.05,0-0.11,0.01-0.16,0.02
					c-0.05,0.01-0.1,0.01-0.15,0.01C90.09,77.98,90.04,77.99,90,78c-0.07,0.01-0.15,0.03-0.22,0.05c-0.04,0.01-0.08,0.01-0.12,0.03
					c-0.04,0.01-0.08,0.03-0.12,0.04c-0.13,0.04-0.25,0.08-0.38,0.13c-0.05,0.02-0.09,0.03-0.14,0.05
					c-0.03,0.01-0.05,0.03-0.08,0.04c-0.22,0.1-0.45,0.2-0.68,0.34c-0.35,0.2-0.69,0.44-1.02,0.7c-0.11,0.09-0.21,0.18-0.32,0.28
					c-0.16,0.14-0.32,0.27-0.48,0.42c-0.07,0.07-0.14,0.15-0.21,0.22c-0.06,0.06-0.12,0.13-0.18,0.19
					c-0.07,0.07-0.14,0.14-0.21,0.22c-0.15,0.17-0.3,0.35-0.44,0.53c-0.05,0.06-0.1,0.13-0.15,0.2c-0.03,0.03-0.05,0.07-0.08,0.1
					c-0.05,0.06-0.1,0.13-0.14,0.19c-0.11,0.15-0.21,0.31-0.32,0.47c-0.1,0.15-0.19,0.3-0.28,0.46c-0.01,0.01-0.01,0.03-0.02,0.04
					c-0.01,0.01-0.01,0.02-0.02,0.04c-0.07,0.13-0.15,0.25-0.21,0.38c-0.08,0.15-0.16,0.31-0.24,0.46c-0.07,0.14-0.13,0.28-0.2,0.42
					c0,0.01-0.01,0.02-0.01,0.03c0,0.01-0.01,0.02-0.01,0.02c-0.07,0.16-0.14,0.32-0.2,0.49c-0.07,0.17-0.13,0.34-0.19,0.51
					c-0.03,0.09-0.05,0.17-0.08,0.26c-0.01,0.04-0.02,0.07-0.03,0.11c-0.02,0.06-0.04,0.12-0.06,0.19
					c-0.06,0.21-0.11,0.41-0.16,0.62c-0.03,0.13-0.04,0.25-0.07,0.37c-0.01,0.07-0.02,0.13-0.03,0.2c-0.01,0.06-0.02,0.12-0.03,0.18
					c-0.05,0.36-0.07,0.71-0.07,1.06c0,1.71,0.59,2.91,1.56,3.48l2.93,1.72c-0.97-0.57-1.57-1.77-1.56-3.48
					c0-0.4,0.04-0.82,0.11-1.24c0.01-0.07,0.02-0.13,0.03-0.2c0.07-0.39,0.16-0.79,0.28-1.18c0.01-0.04,0.02-0.07,0.03-0.11
					c0.13-0.43,0.29-0.86,0.48-1.28c0-0.01,0.01-0.02,0.01-0.02c0.19-0.43,0.41-0.85,0.65-1.26c0.01-0.01,0.01-0.02,0.02-0.03
					c0.23-0.4,0.49-0.78,0.76-1.15c0.02-0.03,0.05-0.07,0.08-0.1c0.25-0.33,0.52-0.65,0.8-0.95c0.06-0.06,0.12-0.13,0.18-0.19
					c0.22-0.23,0.45-0.43,0.69-0.64c0.11-0.09,0.21-0.19,0.31-0.27c0.33-0.26,0.67-0.5,1.02-0.7c0.23-0.13,0.46-0.24,0.68-0.34
					c0.07-0.03,0.14-0.06,0.21-0.08C92.21,79.92,92.34,79.87,92.46,79.84z"/>
				<g>
					<path class="st1" d="M91.18,80.39c3-1.71,5.43-0.31,5.42,3.13c-0.01,3.44-2.45,7.61-5.45,9.33c-3,1.71-5.43,0.32-5.43-3.12
						C85.74,86.28,88.18,82.1,91.18,80.39z"/>
				</g>
			</g>
			<path class="st20" d="M85.78,59.13l0.03,14.57l22.77-13.14l-0.03-14.57L85.78,59.13z"/>
			<g>
				<polygon class="st8" points="57.64,121.19 57.74,121.13 57.74,125.62 57.64,125.68 55.7,124.55 26.47,107.68 26.47,103.18 				
					"/>
				<polygon class="st11" points="133.23,77.55 133.23,82.04 61.29,123.57 57.74,125.62 57.74,121.13 				"/>
			</g>
		</g>
	</g>
	<g>
		<g>
			<g>
				<path class="st11" d="M54.34,231.03v-0.09v0l0-11.89l-0.68,0.14c-0.13-0.1-0.27-0.2-0.43-0.3c-1.48-0.85-3.86-0.86-5.33-0.01
					c-0.21,0.12-0.39,0.25-0.54,0.39l-0.56-0.27l0,11.88l0,0c-0.01,0.57,0.36,1.14,1.11,1.58c1.48,0.85,3.86,0.86,5.33,0.01
					C53.94,232.07,54.31,231.55,54.34,231.03L54.34,231.03z"/>
				<path class="st6" d="M53.25,220.63c-1.47,0.85-3.85,0.84-5.33-0.01c-1.48-0.85-1.48-2.23-0.02-3.07
					c1.47-0.85,3.85-0.84,5.33,0.01C54.71,218.41,54.71,219.78,53.25,220.63z"/>
			</g>
			<g>
				<path class="st11" d="M77.7,223.32l0-0.09v0l0-11.89l-0.68,0.14c-0.13-0.1-0.27-0.2-0.43-0.3c-1.48-0.85-3.86-0.86-5.33-0.01
					c-0.21,0.12-0.39,0.25-0.54,0.39l-0.56-0.27l0,11.88l0,0c-0.01,0.57,0.36,1.14,1.11,1.58c1.48,0.85,3.86,0.86,5.33,0.01
					C77.3,224.36,77.66,223.84,77.7,223.32L77.7,223.32z"/>
				<path class="st6" d="M76.6,212.91c-1.47,0.85-3.85,0.84-5.33-0.01c-1.48-0.85-1.48-2.23-0.02-3.07
					c1.47-0.85,3.85-0.84,5.33,0.01C78.06,210.69,78.07,212.07,76.6,212.91z"/>
			</g>
			<g>
				<path class="st11" d="M31.68,223.32v-0.09v0l0-11.89l-0.68,0.14c-0.13-0.1-0.27-0.2-0.43-0.3c-1.48-0.85-3.86-0.86-5.33-0.01
					c-0.21,0.12-0.39,0.25-0.54,0.39l-0.56-0.27l0,11.88l0,0c-0.01,0.57,0.36,1.14,1.11,1.58c1.48,0.85,3.86,0.86,5.33,0.01
					C31.28,224.36,31.64,223.84,31.68,223.32L31.68,223.32z"/>
				<path class="st6" d="M30.58,212.91c-1.47,0.85-3.85,0.84-5.33-0.01c-1.48-0.85-1.48-2.23-0.02-3.07
					c1.47-0.85,3.85-0.84,5.33,0.01C32.04,210.69,32.05,212.07,30.58,212.91z"/>
			</g>
		</g>
		<g>
			<g>
				<polygon class="st0" points="79.79,139.09 84.47,141.81 76.95,142.32 				"/>
				<g>
					<path class="st1" d="M82.86,159.49c-0.17,6.92-2.2,12.9-6.04,17.8c-2.86,3.64-5.8,5.5-6.08,5.67v1.89
						c-2.24,1.97-3.91,2.96-4.2,3.13l-0.01-7.48c0.28-0.17,3.22-2.03,6.08-5.67c3.84-4.89,5.87-10.88,6.04-17.79
						c0.08-3.64-0.41-6.35-1.5-8.1c0.84,0.04,1.66,0.23,2.41,0.65C81.88,150.91,82.98,154.24,82.86,159.49z"/>
					<path class="st0" d="M85.17,153.48c-0.29,12.26-5.32,21.01-9.49,26.2c-1.75,2.17-3.48,3.89-4.94,5.17v-1.89
						c0.28-0.18,3.22-2.04,6.08-5.67c3.84-4.9,5.87-10.88,6.04-17.8c0.12-5.25-0.98-8.58-3.29-9.9c-0.75-0.42-1.57-0.62-2.41-0.65
						c-0.48-0.79-1.07-1.39-1.79-1.79c-1.42-0.81-3.13-0.78-4.66-0.44c-2.22,0.47-4.08,1.55-4.11,1.57l-0.18-7.37
						c0.33-0.2,8.08-4.84,13.57-1.71c0.74,0.42,1.39,0.95,1.96,1.6C84.23,143.31,85.31,147.57,85.17,153.48z"/>
				</g>
				<g>
					<path class="st6" d="M89.37,155.94c-0.29,12.25-5.32,21.01-9.49,26.19c-4.41,5.49-8.66,8.04-9.14,8.31l-0.01-5.59v-1.89
						c0.28-0.18,3.22-2.04,6.08-5.67c3.84-4.9,5.87-10.88,6.04-17.8c0.12-5.25-0.98-8.58-3.29-9.9c-0.75-0.42-1.57-0.62-2.41-0.65
						c-3.07-0.14-6.32,1.78-6.36,1.79l-0.09-4.03l-0.08-3.36c0.28-0.17,6.18-3.7,11.33-2.56c0.78,0.17,1.52,0.44,2.24,0.85
						C87.8,143.7,89.55,148.51,89.37,155.94z"/>
				</g>
				<polygon class="st1" points="66.41,140.9 70.61,143.35 70.79,150.73 66.59,148.27 				"/>
				<polygon class="st1" points="70.74,182.96 70.74,190.44 66.54,187.98 66.53,180.5 				"/>
			</g>
			<g>
				<path class="st21" d="M70.57,224.31c-10.82,6.25-28.41,6.21-39.29-0.07s-10.94-15.09-0.12-21.34
					c10.82-6.25,28.41-6.21,39.29,0.07C81.33,209.26,81.39,218.07,70.57,224.31z"/>
				<polygon class="st21" points="78.63,210.25 78.63,213.62 74.5,213.5 				"/>
				<polygon class="st21" points="23.08,213.17 23.08,209.12 28.52,212.26 				"/>
				
					<ellipse transform="matrix(5.419577e-03 -1 1 5.419577e-03 -158.9692 259.2832)" class="st11" cx="50.86" cy="209.56" rx="16.04" ry="27.79"/>
			</g>
			<path class="st0" d="M70.57,220.26c-10.82,6.25-28.41,6.21-39.29-0.07c-10.88-6.28-10.94-16.44-0.12-22.69
				c10.82-6.25,28.41-6.21,39.29,0.07C81.33,203.86,81.39,214.02,70.57,220.26z"/>
			<path class="st0" d="M23.17,208.88c0,0-5.43-31.72,4.73-60.21h45.87c10.16,28.49,4.87,60.21,4.87,60.21H23.17z"/>
			
				<ellipse transform="matrix(5.419294e-03 -1 1 5.419294e-03 -100.2067 200.8385)" class="st6" cx="50.86" cy="150.79" rx="13.41" ry="23.23"/>
			<path class="st5" d="M67.24,141.34c-9.1-5.25-23.81-5.28-32.85-0.06c-6.89,3.98-8.5,9.86-4.84,14.76l-4.77,7.88
				c-0.66,1.08,1.15,2.12,3.03,1.74l13.39-2.69c8.6,2.3,19.09,1.42,26.15-2.65C76.38,155.09,76.33,146.6,67.24,141.34z
				 M66.83,159.43c-4.2,2.42-9.82,3.76-15.83,3.76c-2.57,0-5.07-0.24-7.42-0.72c-0.62-0.12-1.23-0.26-1.82-0.42l-2.13,0.43
				l-11.97,2.42c-0.21,0.04-0.43,0.06-0.64,0.06c-1,0-1.59-0.45-1.6-0.6c0,0,0-0.01,0.03-0.05l4.62-7.63l0.55-0.91
				c-0.18-0.22-0.35-0.44-0.49-0.66c-0.96-1.4-1.47-2.88-1.47-4.4c0-3.19,2.22-6.23,6.24-8.55c4.21-2.42,9.83-3.76,15.83-3.76
				c6.06,0,11.75,1.36,16.01,3.82c4.09,2.36,6.35,5.44,6.35,8.66C73.08,154.07,70.86,157.11,66.83,159.43z"/>
			<path class="st6" d="M73.08,150.88c0,3.19-2.22,6.23-6.25,8.55c-4.2,2.42-9.82,3.76-15.83,3.76c-2.57,0-5.07-0.24-7.42-0.72
				c-0.62-0.12-1.23-0.26-1.82-0.42l-2.13,0.43l-11.97,2.42c-0.21,0.04-0.43,0.06-0.64,0.06c-1,0-1.59-0.45-1.6-0.6
				c0,0,0-0.01,0.03-0.05l4.62-7.63l0.55-0.91c-0.18-0.22-0.35-0.44-0.49-0.66c-0.96-1.4-1.47-2.88-1.47-4.4
				c0-3.19,2.22-6.23,6.24-8.55c4.21-2.42,9.83-3.76,15.83-3.76c6.06,0,11.75,1.36,16.01,3.82
				C70.82,144.59,73.08,147.66,73.08,150.88z"/>
			<g>
				
					<ellipse transform="matrix(1 -5.423860e-03 5.423860e-03 1 -0.8171 0.2781)" class="st10" cx="50.87" cy="150.79" rx="23.34" ry="13.48"/>
				<polygon class="st10" points="74.18,147.92 74.18,151.47 71.97,149.11 				"/>
				<polygon class="st10" points="27.53,148.94 27.58,151.81 28.57,150.23 				"/>
				
					<ellipse transform="matrix(1 -5.423860e-03 5.423860e-03 1 -0.8062 0.2781)" class="st2" cx="50.87" cy="148.77" rx="23.34" ry="13.48"/>
			</g>
			<g>
				<path class="st19" d="M65.94,143.32c0.03-0.03,0.06-0.06,0.09-0.09c0.03-0.03,0.05-0.06,0.08-0.09
					c0.03-0.04,0.06-0.08,0.09-0.12c0.02-0.02,0.03-0.05,0.05-0.07c0.03-0.05,0.06-0.1,0.09-0.15c0.01-0.01,0.01-0.02,0.02-0.04
					c0.03-0.06,0.06-0.13,0.08-0.19c0.01-0.02,0.01-0.03,0.01-0.05c0.02-0.05,0.03-0.1,0.04-0.16c0-0.02,0.01-0.03,0.01-0.05
					c0.01-0.07,0.02-0.13,0.02-0.2v0v0l0.01,1.08c0,0.01,0,0.01,0,0.02c0,0.05,0,0.1-0.01,0.16c0,0.01,0,0.02-0.01,0.03
					c0,0.02-0.01,0.03-0.01,0.05c0,0.03-0.01,0.05-0.01,0.08c-0.01,0.03-0.02,0.05-0.02,0.08c0,0.02-0.01,0.03-0.01,0.05
					c0,0.01,0,0.02-0.01,0.03c-0.02,0.05-0.04,0.1-0.07,0.16c0,0,0,0.01-0.01,0.01c-0.01,0.01-0.01,0.02-0.02,0.04
					c-0.02,0.04-0.04,0.08-0.07,0.12c-0.01,0.01-0.02,0.02-0.03,0.04c-0.02,0.02-0.03,0.05-0.05,0.07
					c-0.02,0.02-0.03,0.04-0.05,0.06c-0.01,0.02-0.03,0.04-0.05,0.05c-0.02,0.03-0.05,0.06-0.08,0.09
					c-0.01,0.02-0.03,0.03-0.04,0.05c-0.01,0.01-0.03,0.03-0.05,0.04c-0.05,0.05-0.1,0.09-0.16,0.14c-0.02,0.02-0.03,0.03-0.06,0.05
					c-0.01,0.01-0.03,0.02-0.04,0.02c-0.1,0.08-0.21,0.15-0.33,0.22c-0.18,0.1-0.37,0.19-0.58,0.28c-0.07,0.03-0.14,0.05-0.2,0.07
					c-0.1,0.04-0.2,0.08-0.31,0.11c-0.05,0.01-0.1,0.02-0.15,0.04c-0.04,0.01-0.09,0.02-0.13,0.03c-0.05,0.01-0.1,0.03-0.15,0.04
					c-0.12,0.02-0.23,0.04-0.35,0.06c-0.04,0.01-0.08,0.01-0.12,0.01c-0.02,0-0.04,0.01-0.07,0.01c-0.04,0-0.08,0.01-0.12,0.01
					c-0.1,0.01-0.19,0.02-0.29,0.02c-0.09,0-0.18,0.01-0.28,0.01c-0.01,0-0.02,0-0.02,0c-0.01,0-0.01,0-0.02,0
					c-0.08,0-0.15,0-0.23,0c-0.09,0-0.18-0.01-0.27-0.01c-0.08-0.01-0.16-0.01-0.24-0.02c0,0-0.01,0-0.01,0c0,0-0.01,0-0.01,0
					c-0.09-0.01-0.18-0.02-0.27-0.04c-0.09-0.01-0.18-0.03-0.28-0.05c-0.05-0.01-0.09-0.02-0.13-0.03c-0.02,0-0.04-0.01-0.06-0.01
					c-0.03-0.01-0.07-0.01-0.1-0.02c-0.11-0.03-0.21-0.06-0.32-0.09c-0.06-0.02-0.12-0.04-0.18-0.07c-0.03-0.01-0.06-0.02-0.1-0.03
					c-0.03-0.01-0.06-0.02-0.09-0.03c-0.17-0.07-0.34-0.15-0.49-0.24c-0.76-0.44-1.15-1.02-1.15-1.59l-0.01-1.08
					c0,0.58,0.39,1.16,1.15,1.59c0.18,0.1,0.38,0.19,0.58,0.27c0.03,0.01,0.06,0.02,0.1,0.03c0.19,0.07,0.39,0.13,0.6,0.18
					c0.02,0,0.04,0.01,0.06,0.01c0.23,0.05,0.46,0.09,0.69,0.12c0,0,0.01,0,0.01,0c0.24,0.03,0.49,0.04,0.73,0.04
					c0.01,0,0.01,0,0.02,0c0.24,0,0.48-0.02,0.71-0.04c0.02,0,0.04,0,0.06-0.01c0.21-0.03,0.42-0.06,0.63-0.11
					c0.04-0.01,0.09-0.02,0.13-0.03c0.16-0.04,0.31-0.09,0.46-0.14c0.07-0.02,0.14-0.04,0.2-0.07c0.2-0.08,0.4-0.17,0.58-0.28
					c0.12-0.07,0.23-0.14,0.33-0.22c0.03-0.02,0.06-0.05,0.09-0.07C65.83,143.41,65.89,143.37,65.94,143.32z"/>
				<g>
					<path class="st1" d="M65.36,143.75c1.54-0.9,1.54-2.34,0-3.23c-1.54-0.88-4.03-0.87-5.57,0.03c-1.54,0.9-1.54,2.34-0.01,3.23
						C61.33,144.66,63.82,144.65,65.36,143.75z"/>
				</g>
			</g>
			<g>
				<path class="st2" d="M71.97,173.15c0,15.42,0,30.83,0,46.25c-0.44,0.3-0.91,0.6-1.4,0.89c-0.25,0.14-0.5,0.29-0.76,0.42
					c-0.95,0.51-1.96,0.97-3.01,1.38c-0.7,0.28-1.42,0.54-2.15,0.77c0-15.16,0-30.33,0-45.49c0-1.17,0.78-2.24,1.8-2.61
					c1.22-0.45,2.49-1.14,3.71-2.08C71.19,171.89,71.97,171.98,71.97,173.15z"/>
				<path class="st10" d="M69.84,175.35c-0.01,15.12-0.02,30.24-0.02,45.36c-0.95,0.51-1.96,0.97-3.01,1.38
					c-0.01-15.01-0.02-30.01-0.02-45.02C67.8,176.65,68.83,176.09,69.84,175.35z"/>
			</g>
			<g>
				<g>
					<path class="st18" d="M67.03,184.23c-0.03,0-0.06-0.02-0.07-0.05c-0.01-0.04,0-0.08,0.04-0.09c0.91-0.36,1.77-0.77,2.57-1.19
						c0.03-0.02,0.08-0.01,0.1,0.03c0.02,0.03,0.01,0.08-0.03,0.1c-0.8,0.43-1.67,0.84-2.58,1.2
						C67.04,184.22,67.04,184.23,67.03,184.23z"/>
				</g>
				<g>
					<path class="st18" d="M67.03,181.52c-0.03,0-0.06-0.02-0.07-0.05c-0.01-0.04,0-0.08,0.04-0.09c0.91-0.36,1.77-0.77,2.57-1.19
						c0.03-0.02,0.08-0.01,0.1,0.03c0.02,0.03,0.01,0.08-0.03,0.1c-0.8,0.43-1.67,0.84-2.58,1.2
						C67.04,181.52,67.04,181.52,67.03,181.52z"/>
				</g>
				<g>
					<path class="st18" d="M67.03,219.35c-0.03,0-0.06-0.02-0.07-0.05c-0.01-0.04,0-0.08,0.04-0.09c0.91-0.36,1.77-0.77,2.57-1.19
						c0.03-0.02,0.08-0.01,0.1,0.03c0.02,0.03,0.01,0.08-0.03,0.1c-0.8,0.43-1.67,0.84-2.58,1.2
						C67.04,219.35,67.04,219.35,67.03,219.35z"/>
				</g>
				<g>
					<path class="st18" d="M67.03,216.65c-0.03,0-0.06-0.02-0.07-0.05c-0.01-0.04,0-0.08,0.04-0.09c0.91-0.36,1.77-0.77,2.57-1.19
						c0.03-0.02,0.08-0.01,0.1,0.03c0.02,0.03,0.01,0.08-0.03,0.1c-0.8,0.43-1.67,0.84-2.58,1.2
						C67.04,216.65,67.04,216.65,67.03,216.65z"/>
				</g>
				<g>
					<path class="st18" d="M67.03,213.95c-0.03,0-0.06-0.02-0.07-0.05c-0.01-0.04,0-0.08,0.04-0.09c0.91-0.36,1.77-0.77,2.57-1.19
						c0.03-0.02,0.08-0.01,0.1,0.03c0.02,0.03,0.01,0.08-0.03,0.1c-0.8,0.43-1.67,0.84-2.58,1.2
						C67.04,213.94,67.04,213.95,67.03,213.95z"/>
				</g>
				<g>
					<path class="st18" d="M67.03,211.24c-0.03,0-0.06-0.02-0.07-0.05c-0.01-0.04,0-0.08,0.04-0.09c0.91-0.36,1.77-0.77,2.57-1.19
						c0.03-0.02,0.08-0.01,0.1,0.03c0.02,0.03,0.01,0.08-0.03,0.1c-0.8,0.43-1.67,0.84-2.58,1.2
						C67.04,211.24,67.04,211.24,67.03,211.24z"/>
				</g>
				<g>
					<path class="st18" d="M67.03,208.54c-0.03,0-0.06-0.02-0.07-0.05c-0.01-0.04,0-0.08,0.04-0.09c0.91-0.36,1.77-0.77,2.57-1.19
						c0.03-0.02,0.08-0.01,0.1,0.03c0.02,0.03,0.01,0.08-0.03,0.1c-0.8,0.43-1.67,0.84-2.58,1.2
						C67.04,208.54,67.04,208.54,67.03,208.54z"/>
				</g>
				<g>
					<path class="st18" d="M67.03,205.84c-0.03,0-0.06-0.02-0.07-0.05c-0.01-0.04,0-0.08,0.04-0.09c0.91-0.36,1.77-0.77,2.57-1.19
						c0.03-0.02,0.08-0.01,0.1,0.03c0.02,0.03,0.01,0.08-0.03,0.1c-0.8,0.43-1.67,0.84-2.58,1.2
						C67.04,205.84,67.04,205.84,67.03,205.84z"/>
				</g>
				<g>
					<path class="st18" d="M67.03,203.14c-0.03,0-0.06-0.02-0.07-0.05c-0.01-0.04,0-0.08,0.04-0.09c0.91-0.36,1.77-0.77,2.57-1.19
						c0.03-0.02,0.08-0.01,0.1,0.03c0.02,0.03,0.01,0.08-0.03,0.1c-0.8,0.43-1.67,0.84-2.58,1.2
						C67.04,203.14,67.04,203.14,67.03,203.14z"/>
				</g>
				<g>
					<path class="st18" d="M67.03,200.44c-0.03,0-0.06-0.02-0.07-0.05c-0.01-0.04,0-0.08,0.04-0.09c0.91-0.36,1.77-0.77,2.57-1.19
						c0.03-0.02,0.08-0.01,0.1,0.03c0.02,0.03,0.01,0.08-0.03,0.1c-0.8,0.43-1.67,0.84-2.58,1.2
						C67.04,200.43,67.04,200.44,67.03,200.44z"/>
				</g>
				<g>
					<path class="st18" d="M67.03,197.74c-0.03,0-0.06-0.02-0.07-0.05c-0.01-0.04,0-0.08,0.04-0.09c0.91-0.36,1.77-0.77,2.57-1.19
						c0.03-0.02,0.08-0.01,0.1,0.03c0.02,0.03,0.01,0.08-0.03,0.1c-0.8,0.43-1.67,0.84-2.58,1.2
						C67.04,197.73,67.04,197.74,67.03,197.74z"/>
				</g>
				<g>
					<path class="st18" d="M67.03,195.03c-0.03,0-0.06-0.02-0.07-0.05c-0.01-0.04,0-0.08,0.04-0.09c0.91-0.36,1.77-0.77,2.57-1.19
						c0.03-0.02,0.08-0.01,0.1,0.03c0.02,0.03,0.01,0.08-0.03,0.1c-0.8,0.43-1.67,0.84-2.58,1.2
						C67.04,195.03,67.04,195.03,67.03,195.03z"/>
				</g>
				<g>
					<path class="st18" d="M67.03,192.33c-0.03,0-0.06-0.02-0.07-0.05c-0.01-0.04,0-0.08,0.04-0.09c0.91-0.36,1.77-0.77,2.57-1.19
						c0.03-0.02,0.08-0.01,0.1,0.03c0.02,0.03,0.01,0.08-0.03,0.1c-0.8,0.43-1.67,0.84-2.58,1.2
						C67.04,192.33,67.04,192.33,67.03,192.33z"/>
				</g>
				<g>
					<path class="st18" d="M67.03,189.63c-0.03,0-0.06-0.02-0.07-0.05c-0.01-0.04,0-0.08,0.04-0.09c0.91-0.36,1.77-0.77,2.57-1.19
						c0.03-0.02,0.08-0.01,0.1,0.03c0.02,0.03,0.01,0.08-0.03,0.1c-0.8,0.43-1.67,0.84-2.58,1.2
						C67.04,189.63,67.04,189.63,67.03,189.63z"/>
				</g>
				<g>
					<path class="st18" d="M67.03,186.93c-0.03,0-0.06-0.02-0.07-0.05c-0.01-0.04,0-0.08,0.04-0.09c0.91-0.36,1.77-0.77,2.57-1.19
						c0.03-0.02,0.08-0.01,0.1,0.03c0.02,0.03,0.01,0.08-0.03,0.1c-0.8,0.43-1.67,0.84-2.58,1.2
						C67.04,186.93,67.04,186.93,67.03,186.93z"/>
				</g>
			</g>
		</g>
	</g>
</g>
</svg>
