<?xml version="1.0" encoding="utf-8"?>
<!-- Generator: Adobe Illustrator 25.3.1, SVG Export Plug-In . SVG Version: 6.00 Build 0)  -->
<svg version="1.1" id="圖層_1" xmlns="http://www.w3.org/2000/svg" xmlns:xlink="http://www.w3.org/1999/xlink" x="0px" y="0px"
	 viewBox="0 0 240 240" style="enable-background:new 0 0 240 240;" xml:space="preserve">
<style type="text/css">
	.st0{fill:#C9D3D3;}
	.st1{fill:#9DA7A8;}
	.st2{fill:url(#SVGID_1_);}
	.st3{fill:url(#SVGID_2_);}
	.st4{fill:#EBECEF;}
	.st5{fill:#F7F7F7;}
	.st6{opacity:0.8;clip-path:url(#SVGID_4_);fill:#FDFCFF;}
	.st7{enable-background:new    ;}
	.st8{fill:url(#SVGID_5_);}
	.st9{fill:url(#SVGID_6_);}
	.st10{fill:#BEC6BA;}
	.st11{fill:#DADFD4;}
	.st12{fill:url(#SVGID_7_);}
	.st13{opacity:0.6;fill:#898D9B;}
	.st14{fill:#D9DADE;}
</style>
<g>
	<g>
		<polygon class="st0" points="231.45,139.33 231.4,149.13 115.04,216.75 115.09,206.95 		"/>
		<polygon class="st1" points="115.09,206.95 115.04,216.75 8.55,155.4 8.6,145.6 		"/>
		<linearGradient id="SVGID_1_" gradientUnits="userSpaceOnUse" x1="8.5961" y1="142.4612" x2="231.4516" y2="142.4612">
			<stop  offset="0" style="stop-color:#EEF5F5"/>
			<stop  offset="0.6009" style="stop-color:#E9EFEF"/>
			<stop  offset="1" style="stop-color:#E2E8E8"/>
		</linearGradient>
		<polygon class="st2" points="231.45,139.33 115.09,206.95 8.6,145.6 124.96,77.97 		"/>
	</g>
	<path class="st0" d="M68.18,133.6l23.58-13.62c17.99-10.38,47.18-10.38,65.02-0.02l10.99,6.39c17.87,10.38,17.75,27.28-0.24,37.66
		l-23.58,13.62c-17.96,10.37-47.12,10.38-64.99,0l-10.99-6.39C50.13,160.88,50.22,143.97,68.18,133.6z"/>
	<g>
		<linearGradient id="SVGID_2_" gradientUnits="userSpaceOnUse" x1="64.8036" y1="127.6442" x2="183.42" y2="127.6442">
			<stop  offset="0" style="stop-color:#D9DADE"/>
			<stop  offset="1" style="stop-color:#E3E4E8"/>
		</linearGradient>
		<path class="st3" d="M65.18,114.37C64.03,101,78.47,95.35,101.01,82.34c16.39-9.47,42.84-9.47,59.12,0
			c10.31,5.99,23.15,11.64,23.14,23.45c0-0.02,0-0.04,0-0.06c0.02,48.82,4.43,43.88-35.91,67.22c-16.36,9.47-42.86,9.45-59.12,0
			c-27.75-16.13-23.14-14.73-23.15-59.75C65.08,113.59,65.15,113.98,65.18,114.37z"/>
		<path class="st4" d="M74.32,130.52l10.99,6.39c17.87,10.38,47.03,10.37,64.99,0l23.58-13.62c9.06-5.23,13.58-12.11,13.57-18.98
			l0.01,3.39c0.02,6.87-4.51,13.75-13.57,18.98l-23.58,13.62c-17.96,10.37-47.12,10.38-64.99,0l-10.99-6.39
			c-8.86-5.15-13.3-11.92-13.32-18.69L61,111.83C61.02,118.6,65.46,125.37,74.32,130.52z"/>
		<path class="st5" d="M74.54,92.87l23.58-13.62c17.99-10.38,47.18-10.38,65.02-0.02l10.99,6.39c17.87,10.38,17.75,27.28-0.24,37.66
			l-23.58,13.62c-17.96,10.37-47.12,10.38-64.99,0l-10.99-6.39C56.48,120.15,56.58,103.24,74.54,92.87z"/>
		<g>
			<defs>
				<path id="SVGID_3_" d="M117.76,140.54c22.02-0.01,29.97-6.94,54.05-20.84c15.21-8.78,15.33-21.7,0.23-30.47
					c-11.71-6.8-20.69-13.6-41.35-13.6c-11.59,0-22.42,2.57-30.5,7.24c-23.03,13.3-35.02,18.07-35.04,28.91
					c-0.02,10.5,12.75,16.03,22.24,21.55C95.41,137.97,106.2,140.54,117.76,140.54L117.76,140.54z"/>
			</defs>
			<use xlink:href="#SVGID_3_"  style="overflow:visible;opacity:0.6;fill:#D9DADE;"/>
			<clipPath id="SVGID_4_">
				<use xlink:href="#SVGID_3_"  style="overflow:visible;opacity:0.6;"/>
			</clipPath>
			<path class="st6" d="M117.76,170.04c22.02-0.01,29.97-6.94,54.05-20.84c15.21-8.78,15.33-21.7,0.23-30.47
				c-11.71-6.8-20.69-13.6-41.35-13.6c-11.59,0-22.42,2.57-30.5,7.24c-23.03,13.3-35.02,18.07-35.04,28.91
				c-0.02,10.5,12.75,16.03,22.24,21.55C95.41,167.47,106.2,170.04,117.76,170.04L117.76,170.04z"/>
		</g>
	</g>
	<g>
		<path class="st0" d="M151.28,59.28l-9.93-5.89c-2.36-1.52-4.77,2.95-2.39,4.14l9.93,5.89c8.43,4.86,15.55,16,15.55,24.33v83.19
			c0,2,4.78,2.17,4.78,0V87.76C169.21,77.59,161.33,65.08,151.28,59.28z"/>
		<g class="st7">
			<linearGradient id="SVGID_5_" gradientUnits="userSpaceOnUse" x1="156.4476" y1="29.547" x2="153.7664" y2="34.1909">
				<stop  offset="0" style="stop-color:#F2F2E8"/>
				<stop  offset="6.719095e-03" style="stop-color:#F2F2E8"/>
				<stop  offset="0.2026" style="stop-color:#FCFCF1"/>
				<stop  offset="0.4643" style="stop-color:#FFFFF4"/>
				<stop  offset="0.7144" style="stop-color:#ECEFE4"/>
				<stop  offset="1" style="stop-color:#DBE0D5"/>
			</linearGradient>
			<path class="st8" d="M145.7,23.34c-0.25-0.15-0.61-0.13-0.99,0.09l-2.11,1.22c-0.71,0.41-1.29,1.35-1.39,2.2l23.51,13.66
				c0.1-0.85,0.68-1.79,1.39-2.2l2.11-1.22c0.38-0.22,0.74-0.24,0.99-0.09L145.7,23.34z"/>
			<g>
				<g class="st7">
					<linearGradient id="SVGID_6_" gradientUnits="userSpaceOnUse" x1="150.6818" y1="32.3207" x2="137.9357" y2="54.3976">
						<stop  offset="0" style="stop-color:#BEC6BA"/>
						<stop  offset="1" style="stop-color:#CED5C9"/>
					</linearGradient>
					<path class="st9" d="M145.75,58.91l-23.51-13.66c2.03,1.18,4.83,1.01,7.93-0.77c5.69-3.29,10.37-10.9,11.04-17.62l23.51,13.66
						c-0.67,6.72-5.34,14.34-11.04,17.62C150.58,59.92,147.78,60.09,145.75,58.91L145.75,58.91z"/>
				</g>
			</g>
			<path class="st10" d="M137.62,71.71l-0.04-15.32l-23.51-13.66l0.04,15.32c0,0.44,0.16,0.74,0.41,0.89l23.51,13.66
				C137.78,72.46,137.62,72.15,137.62,71.71z"/>
			<g>
				<path class="st11" d="M168.21,37.09c0.76-0.44,1.4-0.08,1.4,0.8l0.04,15.32c0,0.88-0.63,1.97-1.39,2.41l-29.25,16.89
					c-0.76,0.44-1.4,0.08-1.4-0.8l-0.04-15.32c0-0.88,0.63-1.97,1.39-2.41l2.21-1.28c0.71-0.41,1.29-0.14,1.4,0.59
					c0.7,5.93,5.41,8.13,11.1,4.84c5.69-3.29,10.37-10.9,11.04-17.62c0.1-0.85,0.68-1.79,1.39-2.2L168.21,37.09z"/>
			</g>
			<linearGradient id="SVGID_7_" gradientUnits="userSpaceOnUse" x1="129.393" y1="45.1365" x2="126.5642" y2="50.0362">
				<stop  offset="0" style="stop-color:#F2F2E8"/>
				<stop  offset="6.719095e-03" style="stop-color:#F2F2E8"/>
				<stop  offset="0.2026" style="stop-color:#FCFCF1"/>
				<stop  offset="0.4643" style="stop-color:#FFFFF4"/>
				<stop  offset="0.7144" style="stop-color:#ECEFE4"/>
				<stop  offset="1" style="stop-color:#DBE0D5"/>
			</linearGradient>
			<path class="st12" d="M118.67,38.95c-0.26-0.15-0.61-0.13-1,0.1l-2.21,1.28c-0.76,0.44-1.39,1.53-1.39,2.41l23.51,13.66
				c0-0.88,0.63-1.97,1.39-2.41l2.21-1.28c0.39-0.23,0.74-0.25,1-0.1L118.67,38.95z"/>
		</g>
	</g>
	<path class="st13" d="M134.67,113.53c-3.29-1.9-8.63-1.9-11.92,0c-3.29,1.9-3.29,4.98,0,6.88c3.29,1.9,8.63,1.9,11.92,0
		C137.96,118.51,137.96,115.43,134.67,113.53z"/>
	<path class="st14" d="M122.11,113.16c-3.64,2.1-3.64,5.51,0,7.62s9.55,2.1,13.19,0c3.64-2.1,3.64-5.51,0-7.62
		C131.66,111.06,125.76,111.06,122.11,113.16z M132.8,113.76l-4.2,2.42l-4.1-2.37C126.94,112.73,130.32,112.71,132.8,113.76z
		 M123.21,114.57l4.09,2.36l-4.15,2.4C121.34,117.92,121.36,115.98,123.21,114.57z M124.43,120.09l4.17-2.41l4.27,2.46
		C130.37,121.24,126.9,121.22,124.43,120.09z M134.17,119.4l-4.27-2.47l4.21-2.43C136.08,115.94,136.1,117.96,134.17,119.4z"/>
</g>
</svg>
