<?xml version="1.0" encoding="utf-8"?>
<!-- Generator: Adobe Illustrator 25.3.1, SVG Export Plug-In . SVG Version: 6.00 Build 0)  -->
<svg version="1.1" id="圖層_1" xmlns="http://www.w3.org/2000/svg" xmlns:xlink="http://www.w3.org/1999/xlink" x="0px" y="0px"
	 viewBox="0 0 240 240" style="enable-background:new 0 0 240 240;" xml:space="preserve">
<style type="text/css">
	.st0{fill:#98A6AB;}
	.st1{fill:#D1DDE0;}
	.st2{fill:#808E91;}
	.st3{fill:#FFFFFF;}
	.st4{fill:#E0E9ED;}
	.st5{fill:#A9CEDF;}
	.st6{fill:#C0E0EE;}
	.st7{fill:#95A6B0;}
	.st8{fill:#768388;}
	.st9{fill:url(#SVGID_1_);}
	.st10{fill:#A9C3C9;}
	.st11{fill:#738287;}
	.st12{fill:#A7B9C0;}
	.st13{fill:#EBF4F8;}
	.st14{fill:#424C50;}
	.st15{fill:#FF563F;}
	.st16{fill:#D58757;}
	.st17{fill:#ECA173;}
	.st18{fill:#F1F8FA;}
	.st19{fill:#FAFFFE;}
	.st20{fill:#E4EFF2;}
	.st21{fill:#D8DFDE;}
	.st22{fill:#BDC6C5;}
	.st23{fill:#6A7577;}
</style>
<g>
	<g transform="matrix( 1, 0, 0, 1, 662.95,3670.6) ">
		<g>
			<g id="kitchen_furniture_0_Layer1_20_FILL_2_">
				<path class="st0" d="M-536.92-3440.73v-11.96l-5.63,2.94v12.32L-536.92-3440.73 M-536.92-3535.87l-5.63,3.21v82.12l5.63-2.96
					V-3535.87 M-542.54-3553.58v19.89l5.63-3.2v-19.95L-542.54-3553.58 M-542.44-3560.92l-0.1-0.05v6.32l5.63-3.25v-6.14l-5.49,3.14
					L-542.44-3560.92 M-452.89-3489.82v-115.54l-82.97,47.91v116.1L-452.89-3489.82 M-452.89-3606.3v-5.91l-0.05-0.03l-0.12,0.08
					l-82.8,47.54v6.12L-452.89-3606.3z"/>
				<path class="st1" d="M-633.01-3584.68v82.02l90.47,52.12v-82.12L-633.01-3584.68 M-556.89-3505.98
					c0.23,1.96,0.34,3.92,0.34,5.88c0.02,9.49-2.58,16.27-7.82,20.33c-0.51,0.39-1.04,0.75-1.58,1.09
					c-6.28,3.89-13.88,3.36-22.81-1.58c-8.92-4.93-16.54-12.84-22.88-23.73c-6.32-10.87-9.49-21.5-9.52-31.9
					c-0.03-10.44,3.09-17.58,9.36-21.45c6.31-3.85,13.93-3.31,22.84,1.63c8.93,4.94,16.54,12.83,22.82,23.67
					C-560.95-3523.22-557.87-3514.53-556.89-3505.98 M-633.01-3501.8v12.3l90.47,52.06v-12.32L-633.01-3501.8 M-602.2-3567.98
					v-20.19l-30.81-17.86v20.33L-602.2-3567.98 M-610.01-3584.87v3.93c-0.2,0.68-1,0.92-2.4,0.71c-1.61-0.23-3.55-0.99-5.83-2.29
					c-2.27-1.3-4.21-2.75-5.83-4.35c-1.3-1.3-2.08-2.39-2.35-3.26c-0.01-0.08-0.02-0.15-0.02-0.2c-0.01-0.02-0.02-0.04-0.03-0.05
					v-3.98l2.19,1.27L-610.01-3584.87 M-542.54-3533.7v-19.89l-58.79-34.08v20.17L-542.54-3533.7 M-566.95-3564.07
					c0.27,0.09,0.57,0.22,0.9,0.39c1.3,0.71,2.43,1.83,3.38,3.35c0.95,1.54,1.43,3.05,1.43,4.52c0,0.28-0.02,0.55-0.07,0.82
					c-0.14,0.93-0.52,1.61-1.16,2.06c-0.03,0-0.06,0.01-0.07,0.02c-0.05,0.02-0.09,0.04-0.14,0.05c-0.67,0.4-1.42,0.48-2.26,0.24
					l-1.68,0.97c-0.02,0.01-0.05,0.03-0.08,0.05c-0.02,0-0.04,0.01-0.05,0.02c-0.03,0.02-0.07,0.04-0.1,0.05
					c-0.8,0.46-1.76,0.39-2.87-0.22c-1.12-0.59-2.08-1.53-2.89-2.82c-0.79-1.29-1.19-2.55-1.19-3.77c0-1.09,0.32-1.87,0.95-2.35
					c0.08-0.07,0.16-0.12,0.24-0.17c0.05-0.03,0.1-0.06,0.17-0.08l1.61-0.93c0.14-0.82,0.48-1.43,1.04-1.84l0.49-0.31
					C-568.61-3564.35-567.83-3564.36-566.95-3564.07 M-549.37-3553.33c0.74,0.37,1.37,0.89,1.9,1.55c0.53,0.65,0.8,1.23,0.8,1.75
					c0,0.32-0.1,0.56-0.31,0.73c-0.07,0.06-0.14,0.1-0.22,0.14l-0.7,0.44c-0.01,0-0.02,0.01-0.02,0.02
					c-0.11,0.08-0.26,0.14-0.44,0.17c-0.52,0.09-1.16-0.06-1.92-0.44c-0.74-0.37-1.37-0.88-1.9-1.53c-0.52-0.65-0.78-1.23-0.78-1.75
					c0-0.24,0.05-0.43,0.15-0.56c0.01-0.03,0.03-0.06,0.05-0.09c0.09-0.09,0.2-0.16,0.34-0.22l0.66-0.44
					c0.03-0.02,0.06-0.04,0.08-0.05c0.11-0.06,0.24-0.1,0.37-0.14C-550.76-3553.87-550.12-3553.72-549.37-3553.33 M-551.67-3546.75
					c0.11-0.07,0.24-0.12,0.37-0.15c0.53-0.1,1.17,0.04,1.92,0.43c0.74,0.37,1.37,0.89,1.9,1.55c0.53,0.65,0.8,1.24,0.8,1.77
					c0,0.32-0.1,0.55-0.31,0.71c-0.06,0.07-0.13,0.12-0.22,0.15l-0.7,0.44l-0.02,0.02c-0.11,0.08-0.26,0.14-0.44,0.17
					c-0.52,0.09-1.16-0.06-1.92-0.44c-0.74-0.37-1.37-0.88-1.9-1.53c-0.52-0.65-0.78-1.23-0.78-1.75c0-0.24,0.05-0.43,0.15-0.58
					c0.01-0.02,0.03-0.05,0.05-0.07c0.09-0.1,0.2-0.18,0.34-0.22l0.66-0.44C-551.72-3546.72-551.69-3546.74-551.67-3546.75
					 M-557.92-3557.08c0-0.24,0.06-0.41,0.19-0.51l0.1-0.03c0.1-0.06,0.21-0.07,0.32-0.05c0.03,0.01,0.07,0.02,0.1,0.02
					c0.05,0.02,0.1,0.05,0.17,0.07c0.24,0.12,0.44,0.33,0.61,0.61c0.17,0.28,0.25,0.56,0.25,0.82c0,0.06-0.01,0.11-0.02,0.15
					c0,0.02-0.01,0.05-0.03,0.08c-0.02,0.14-0.08,0.23-0.19,0.29h-0.02c-0.17,0.1-0.37,0.09-0.61-0.05
					c-0.25-0.11-0.45-0.31-0.61-0.58C-557.83-3556.54-557.92-3556.81-557.92-3557.08 M-594.43-3568.35
					c-0.03,0.02-0.07,0.05-0.1,0.07l-0.36,0.22c-0.01,0-0.02,0.01-0.02,0.02c-0.06,0.03-0.12,0.06-0.2,0.08
					c-0.27,0.05-0.59-0.03-0.97-0.22c-0.36-0.19-0.68-0.45-0.95-0.77c-0.26-0.33-0.39-0.62-0.39-0.88c0-0.11,0.02-0.2,0.07-0.27
					c0.02-0.01,0.04-0.02,0.05-0.03c0.03-0.05,0.08-0.09,0.15-0.14l0.34-0.2c0.02-0.01,0.04-0.02,0.05-0.03
					c0.05-0.02,0.1-0.05,0.17-0.07c0.27-0.05,0.59,0.02,0.97,0.2c0.36,0.19,0.68,0.45,0.95,0.78c0.26,0.33,0.39,0.62,0.39,0.88
					C-594.28-3568.55-594.33-3568.43-594.43-3568.35 M-592.59-3567.64l0.34-0.22c0.02-0.01,0.04-0.02,0.05-0.03
					c0.05-0.02,0.1-0.05,0.17-0.07c0.27-0.05,0.59,0.02,0.97,0.2c0.36,0.19,0.68,0.45,0.95,0.78c0.26,0.33,0.39,0.62,0.39,0.88
					c0,0.16-0.05,0.28-0.14,0.37c-0.05,0.02-0.08,0.05-0.12,0.07l-0.34,0.2c-0.01,0-0.02,0.01-0.02,0.02
					c-0.07,0.03-0.14,0.06-0.22,0.09c-0.27,0.05-0.59-0.03-0.97-0.22c-0.36-0.19-0.68-0.45-0.95-0.76
					c-0.25-0.33-0.37-0.62-0.37-0.87c0-0.12,0.02-0.22,0.07-0.29c0.01-0.01,0.02-0.02,0.03-0.03
					C-592.71-3567.56-592.66-3567.6-592.59-3567.64 M-588.33-3565.02c0.01-0.01,0.02-0.02,0.03-0.03c0.03-0.05,0.08-0.08,0.15-0.12
					l0.34-0.22c0.02-0.01,0.04-0.02,0.05-0.03c0.05-0.02,0.1-0.05,0.17-0.07c0.27-0.05,0.59,0.02,0.97,0.2
					c0.36,0.19,0.68,0.45,0.95,0.78c0.26,0.33,0.39,0.62,0.39,0.88c0,0.16-0.05,0.28-0.14,0.37c-0.05,0.02-0.08,0.05-0.12,0.07
					l-0.34,0.2c-0.01,0-0.02,0.01-0.02,0.02c-0.07,0.03-0.14,0.06-0.22,0.08c-0.27,0.05-0.59-0.03-0.97-0.22
					c-0.36-0.19-0.68-0.45-0.95-0.77c-0.26-0.33-0.39-0.62-0.39-0.87C-588.41-3564.86-588.38-3564.95-588.33-3565.02
					 M-578.98-3572.18l-0.03,8.02v0.54l-17.93-10.21v-0.03v-8.8l0.41,0.24L-578.98-3572.18 M-580.77-3560.98
					c0,0.17-0.05,0.29-0.14,0.37c-0.05,0.02-0.09,0.05-0.12,0.07l-0.34,0.2c-0.01,0-0.02,0.01-0.02,0.02
					c-0.07,0.05-0.14,0.08-0.22,0.1c-0.27,0.05-0.59-0.03-0.97-0.24c-0.36-0.18-0.68-0.43-0.95-0.75c-0.25-0.33-0.37-0.62-0.37-0.88
					c0-0.11,0.02-0.21,0.07-0.29c0.01-0.01,0.02-0.02,0.03-0.03c0.03-0.05,0.09-0.09,0.15-0.12l0.34-0.2
					c0.02-0.01,0.04-0.02,0.05-0.03c0.05-0.03,0.1-0.06,0.17-0.08c0.27-0.05,0.59,0.03,0.97,0.22c0.36,0.18,0.68,0.44,0.95,0.76
					C-580.9-3561.53-580.77-3561.24-580.77-3560.98 M-633.01-3612.97v5.8l90.47,52.52v-6.32l-22.67-12.92L-633.01-3612.97z"/>
				<path class="st2" d="M-556.55-3500.1c0-1.96-0.11-3.92-0.34-5.88c-0.99-8.55-4.06-17.24-9.23-26.05
					c-6.29-10.84-13.9-18.73-22.82-23.67c-8.92-4.94-16.53-5.48-22.84-1.63c-6.28,3.86-9.4,11.01-9.36,21.45
					c0.02,10.4,3.2,21.03,9.52,31.9c6.33,10.89,13.96,18.8,22.88,23.73c8.93,4.94,16.53,5.47,22.81,1.58
					c0.54-0.34,1.07-0.7,1.58-1.09C-559.13-3483.83-556.52-3490.6-556.55-3500.1 M-557.46-3506.2c0.22,1.93,0.32,3.85,0.32,5.78
					c0.03,9.32-2.52,15.98-7.66,19.95c-0.49,0.39-1,0.74-1.55,1.07c-6.18,3.82-13.64,3.3-22.4-1.55
					c-8.76-4.84-16.25-12.61-22.47-23.3c-6.21-10.67-9.32-21.12-9.35-31.34c-0.02-10.24,3.04-17.26,9.19-21.04
					c6.21-3.8,13.69-3.26,22.43,1.6c8.77,4.85,16.25,12.6,22.43,23.25C-561.44-3523.12-558.43-3514.6-557.46-3506.2
					 M-633.01-3502.66v0.87l90.47,52.04v-0.78L-633.01-3502.66 M-633.01-3607.17v1.14l30.81,17.86v20.19l-30.81-17.73v1.02
					l90.47,52.02v-1.04l-58.79-33.79v-20.17l58.79,34.08v-1.07L-633.01-3607.17z"/>
				<path class="st3" d="M-557.14-3500.42c0-1.93-0.11-3.85-0.32-5.78c-0.96-8.4-3.98-16.92-9.04-25.58
					c-6.19-10.65-13.66-18.4-22.43-23.25c-8.75-4.86-16.23-5.39-22.43-1.6c-6.15,3.78-9.22,10.8-9.19,21.04
					c0.02,10.22,3.14,20.67,9.35,31.34c6.22,10.7,13.71,18.46,22.47,23.3c8.76,4.85,16.23,5.36,22.4,1.55
					c0.54-0.33,1.06-0.69,1.55-1.07C-559.66-3484.45-557.11-3491.1-557.14-3500.42 M-564.25-3523.82c1.1,2.42,2.03,4.84,2.79,7.26
					c1.07,3.41,1.78,6.8,2.16,10.18c0.23,1.86,0.34,3.71,0.34,5.56c0.03,9.04-2.44,15.48-7.41,19.32c-0.49,0.36-0.99,0.7-1.51,1.02
					c-5.96,3.68-13.18,3.19-21.65-1.48c-8.46-4.69-15.71-12.21-21.74-22.55c-5.99-10.3-9.01-20.39-9.04-30.27
					c-0.02-9.91,2.95-16.71,8.91-20.38c5.99-3.65,13.23-3.14,21.7,1.53c6.28,3.48,11.88,8.5,16.81,15.07
					c0.65,0.86,1.27,1.76,1.89,2.69c1.03,1.5,2.03,3.07,2.99,4.72C-566.59-3528.69-565.33-3526.25-564.25-3523.82z"/>
				<path class="st4" d="M-561.46-3516.57c-0.76-2.41-1.69-4.83-2.79-7.26c-1.09-2.42-2.35-4.87-3.77-7.33
					c-0.96-1.65-1.96-3.23-2.99-4.72c-0.61-0.93-1.24-1.82-1.89-2.69c-4.93-6.57-10.53-11.6-16.81-15.07
					c-8.48-4.67-15.71-5.18-21.7-1.53c-5.96,3.67-8.93,10.46-8.91,20.38c0.03,9.88,3.05,19.97,9.04,30.27
					c6.03,10.34,13.27,17.86,21.74,22.55c8.48,4.67,15.69,5.16,21.65,1.48c0.52-0.32,1.03-0.66,1.51-1.02
					c4.97-3.84,7.44-10.28,7.41-19.32c0-1.85-0.11-3.7-0.34-5.56C-559.67-3509.76-560.39-3513.16-561.46-3516.57 M-612.09-3530.32
					c-0.01-7.29,2.17-12.27,6.54-14.96c1.93-1.19,4.04-1.78,6.34-1.78c1.99,0,4.13,0.46,6.41,1.38c0.07,0.03,0.14,0.06,0.2,0.08
					c0.96,0.4,1.96,0.88,2.99,1.44c1.96,1.09,3.83,2.38,5.61,3.88c0.51,0.43,1.01,0.88,1.5,1.36c3.26,3.04,6.2,6.8,8.82,11.29
					c3.5,5.98,5.63,11.87,6.37,17.68c-1.35-0.03-2.56,0.53-3.64,1.7c-1.67,1.88-2.5,4.7-2.5,8.45c0,0.25,0.01,0.5,0.02,0.75
					c0.01,0.49,0.04,0.98,0.08,1.48c0.01,0.22,0.03,0.43,0.07,0.65c0.05,0.43,0.1,0.86,0.17,1.27c0.24,1.39,0.61,2.77,1.1,4.13
					c-0.5,0.41-1.03,0.78-1.58,1.1c-1.93,1.21-4.03,1.82-6.31,1.82c-2.91,0-6.11-0.96-9.59-2.89c-6.23-3.44-11.56-8.96-15.98-16.55
					C-609.85-3515.62-612.07-3523.04-612.09-3530.32z"/>
				<path class="st5" d="M-586.27-3540.17c0.83,0.23,1.57,0.67,2.23,1.33c1.01,1.01,1.51,2.23,1.51,3.65c0,1.43-0.5,2.64-1.51,3.64
					c-0.45,0.49-0.95,0.86-1.5,1.1c-0.07,0.02-0.12,0.05-0.17,0.08c-0.22,0.08-0.42,0.18-0.61,0.29c-2.73,1.55-4.1,4.5-4.1,8.84
					c0,4.33,1.37,8.78,4.1,13.36c1.54,2.59,3.27,4.8,5.18,6.61c1.23,1.18,2.55,2.19,3.96,3.04c1.34,0.43,2.62,0.65,3.84,0.65
					c-0.05-0.5-0.07-0.99-0.08-1.48c-0.01-0.25-0.02-0.5-0.02-0.75c0-3.75,0.83-6.57,2.5-8.45c1.08-1.17,2.29-1.73,3.64-1.7
					c-0.75-5.8-2.87-11.69-6.37-17.68c-2.62-4.49-5.56-8.25-8.82-11.29C-583.81-3539.53-585.07-3539.95-586.27-3540.17z"/>
				<path class="st6" d="M-586.65-3540.24c-0.09-0.01-0.19-0.02-0.29-0.03c-0.27-0.05-0.54-0.07-0.82-0.08
					c-1.87-0.1-3.59,0.29-5.15,1.17c-3.33,1.9-5,5.49-5,10.78c0,5.28,1.67,10.71,5,16.28c1.89,3.16,4.01,5.85,6.34,8.07
					c1.77,1.68,3.67,3.07,5.69,4.18c1.11,0.62,2.19,1.12,3.23,1.5c0.16,0.05,0.31,0.1,0.46,0.15c-1.4-0.85-2.72-1.86-3.96-3.04
					c-1.91-1.81-3.64-4.02-5.18-6.61c-2.73-4.58-4.1-9.03-4.1-13.36c0-4.34,1.37-7.29,4.1-8.84c0.19-0.11,0.4-0.21,0.61-0.29
					c0.05-0.03,0.1-0.06,0.17-0.08c0.54-0.25,1.04-0.62,1.5-1.1c1.01-1,1.51-2.21,1.51-3.64c0-1.43-0.5-2.65-1.51-3.65
					c-0.66-0.66-1.4-1.1-2.23-1.33c-0.02-0.01-0.05-0.02-0.08-0.02C-586.46-3540.21-586.55-3540.23-586.65-3540.24z"/>
				<path class="st7" d="M-605.54-3545.27c-4.37,2.69-6.55,7.67-6.54,14.96c0.02,7.27,2.24,14.7,6.65,22.26
					c4.42,7.59,9.74,13.11,15.98,16.55c3.48,1.93,6.67,2.89,9.59,2.89c2.28,0,4.38-0.61,6.31-1.82c0.56-0.33,1.08-0.7,1.58-1.1
					c-0.5-1.36-0.87-2.74-1.1-4.13c-0.07-0.42-0.12-0.84-0.17-1.27c-0.03-0.22-0.06-0.43-0.07-0.65c-1.22,0-2.5-0.22-3.84-0.65
					c-0.15-0.06-0.3-0.11-0.46-0.15c-1.04-0.37-2.12-0.87-3.23-1.5c-2.03-1.11-3.93-2.5-5.69-4.18c-2.33-2.22-4.45-4.91-6.34-8.07
					c-3.33-5.57-5-11-5-16.28c0-5.28,1.67-8.87,5-10.78c1.56-0.88,3.28-1.27,5.15-1.17c0.27,0.01,0.54,0.04,0.82,0.08
					c0.1,0.01,0.2,0.02,0.29,0.03c0.09,0.01,0.19,0.03,0.29,0.05c0.03,0,0.06,0.01,0.08,0.02c1.2,0.23,2.46,0.65,3.77,1.26
					c-0.49-0.48-0.99-0.93-1.5-1.36c-1.78-1.5-3.65-2.79-5.61-3.88c-1.03-0.57-2.03-1.05-2.99-1.44c-0.07-0.02-0.14-0.05-0.2-0.08
					c-2.28-0.92-4.41-1.38-6.41-1.38C-601.51-3547.06-603.62-3546.46-605.54-3545.27z"/>
				<path class="st8" d="M-626.47-3590.4l2.19-2.7l-2.19-1.27V-3590.4z"/>
				
					<linearGradient id="SVGID_1_" gradientUnits="userSpaceOnUse" x1="-815.7938" y1="-1016.5946" x2="-776.177" y2="-946.0435" gradientTransform="matrix(0.0695 0 0 -0.0695 -561.9005 -3655.6611)">
					<stop  offset="3.921570e-03" style="stop-color:#D1DDE0"/>
					<stop  offset="1" style="stop-color:#819296"/>
				</linearGradient>
				<path class="st9" d="M-610.01-3580.95v-3.93l-14.26-8.23l-2.19,2.7c0.01,0.01,0.02,0.03,0.03,0.05c0,0.06,0.01,0.12,0.02,0.2
					c0.26,0.87,1.04,1.96,2.35,3.26c1.62,1.6,3.56,3.05,5.83,4.35c2.28,1.3,4.22,2.07,5.83,2.29
					C-611.02-3580.03-610.22-3580.27-610.01-3580.95z"/>
				<path class="st10" d="M-581.24-3560.48c0.02-0.06,0.03-0.12,0.03-0.2c0-0.27-0.13-0.57-0.39-0.88
					c-0.27-0.33-0.59-0.59-0.97-0.78c-0.33-0.17-0.61-0.24-0.85-0.2c-0.03,0-0.07,0-0.1,0c-0.03,0.01-0.07,0.02-0.12,0.03
					c-0.07,0.03-0.12,0.07-0.15,0.12c-0.01,0.01-0.02,0.02-0.03,0.03c-0.05,0.08-0.07,0.18-0.07,0.29c0,0.26,0.12,0.55,0.37,0.88
					c0.27,0.32,0.59,0.57,0.95,0.75c0.37,0.2,0.7,0.28,0.97,0.24c0.08-0.02,0.15-0.06,0.22-0.1c0-0.01,0.01-0.02,0.02-0.02
					C-581.3-3560.38-581.26-3560.43-581.24-3560.48 M-588.29-3565.05c-0.01,0.01-0.02,0.02-0.03,0.03
					c-0.06,0.07-0.08,0.16-0.08,0.29c0,0.25,0.13,0.54,0.39,0.87c0.27,0.32,0.59,0.57,0.95,0.77c0.37,0.19,0.7,0.27,0.97,0.22
					c0.08-0.02,0.15-0.05,0.22-0.08c0-0.01,0.01-0.02,0.02-0.02c0.06-0.05,0.1-0.1,0.12-0.15c0.02-0.06,0.03-0.13,0.03-0.22
					c0-0.26-0.13-0.55-0.39-0.87c-0.27-0.33-0.59-0.59-0.97-0.78c-0.33-0.18-0.62-0.25-0.87-0.2c-0.02,0-0.05,0-0.09,0
					c-0.03,0.01-0.07,0.02-0.12,0.03C-588.21-3565.14-588.26-3565.1-588.29-3565.05 M-592.47-3567.67
					c-0.03,0.01-0.07,0.02-0.12,0.03c-0.07,0.03-0.12,0.07-0.15,0.12c-0.01,0.01-0.02,0.02-0.03,0.03
					c-0.05,0.07-0.07,0.16-0.07,0.29c0,0.25,0.12,0.54,0.37,0.87c0.27,0.32,0.59,0.57,0.95,0.76c0.37,0.19,0.7,0.27,0.97,0.22
					c0.08-0.02,0.15-0.05,0.22-0.09c0-0.01,0.01-0.02,0.02-0.02c0.06-0.05,0.1-0.1,0.12-0.15c0.02-0.06,0.03-0.13,0.03-0.22
					c0-0.26-0.13-0.55-0.39-0.87c-0.27-0.33-0.59-0.59-0.97-0.78c-0.33-0.17-0.62-0.24-0.87-0.2
					C-592.41-3567.67-592.44-3567.67-592.47-3567.67 M-594.75-3568.22c0.02-0.07,0.03-0.14,0.03-0.22c0-0.27-0.13-0.57-0.39-0.88
					c-0.27-0.33-0.59-0.58-0.97-0.76c-0.33-0.18-0.62-0.25-0.87-0.22c-0.02,0-0.05,0-0.08,0c-0.03,0.01-0.07,0.02-0.12,0.03
					c-0.07,0.05-0.12,0.09-0.15,0.14c-0.01,0.01-0.03,0.02-0.05,0.03c-0.05,0.07-0.07,0.16-0.07,0.27c0,0.26,0.13,0.56,0.39,0.88
					c0.27,0.32,0.59,0.57,0.95,0.77c0.37,0.19,0.7,0.27,0.97,0.22c0.08-0.02,0.15-0.05,0.2-0.08c0-0.01,0.01-0.02,0.02-0.02
					C-594.82-3568.11-594.78-3568.16-594.75-3568.22 M-547.56-3542.62c0-0.52-0.27-1.1-0.8-1.75c-0.52-0.65-1.16-1.17-1.92-1.56
					c-0.67-0.34-1.24-0.48-1.72-0.42c-0.06,0-0.12,0.01-0.19,0.03c-0.08,0.01-0.16,0.03-0.24,0.07c-0.14,0.05-0.25,0.12-0.34,0.22
					c-0.02,0.02-0.04,0.05-0.05,0.07c-0.1,0.15-0.15,0.34-0.15,0.58c0,0.52,0.26,1.1,0.78,1.75c0.53,0.65,1.17,1.16,1.9,1.53
					c0.76,0.39,1.4,0.53,1.92,0.44c0.18-0.03,0.33-0.09,0.44-0.17l0.02-0.02c0.11-0.1,0.2-0.22,0.27-0.36
					C-547.58-3542.33-547.56-3542.46-547.56-3542.62 M-552.18-3553.19c-0.08,0.01-0.16,0.03-0.24,0.07
					c-0.14,0.06-0.25,0.13-0.34,0.22c-0.02,0.02-0.04,0.05-0.05,0.09c-0.1,0.14-0.15,0.32-0.15,0.56c0,0.52,0.26,1.1,0.78,1.75
					c0.53,0.65,1.17,1.16,1.9,1.53c0.76,0.39,1.4,0.53,1.92,0.44c0.18-0.03,0.33-0.09,0.44-0.17c0-0.01,0.01-0.02,0.02-0.02
					c0.11-0.09,0.2-0.2,0.27-0.34c0.03-0.11,0.05-0.25,0.05-0.43c0-0.52-0.26-1.1-0.78-1.73c-0.52-0.66-1.16-1.18-1.92-1.56
					c-0.67-0.34-1.24-0.48-1.72-0.42C-552.05-3553.21-552.11-3553.2-552.18-3553.19 M-566.61-3551.66l0.02-0.02
					c0.41-0.32,0.68-0.75,0.82-1.29c0.02-0.11,0.05-0.23,0.07-0.36c0.03-0.23,0.05-0.46,0.05-0.71c0-1.23-0.4-2.5-1.19-3.79
					c-0.22-0.33-0.43-0.63-0.65-0.92l-0.44,0.65c-0.02-0.03-0.05-0.06-0.07-0.09c-0.19-0.25-0.4-0.48-0.61-0.7l0.44-0.63
					c-0.48-0.46-0.99-0.84-1.55-1.14c-0.27-0.15-0.52-0.26-0.75-0.34c-0.16-0.05-0.31-0.08-0.44-0.1c-0.57-0.11-1.08-0.07-1.53,0.14
					l-0.41,0.26c-0.63,0.48-0.95,1.26-0.95,2.35c0,1.22,0.4,2.48,1.19,3.77c0.8,1.29,1.77,2.23,2.89,2.82
					c1.11,0.61,2.07,0.69,2.87,0.22c0.03-0.01,0.07-0.03,0.1-0.05c0.01-0.01,0.03-0.02,0.05-0.02
					C-566.66-3551.63-566.63-3551.65-566.61-3551.66z"/>
				<path class="st11" d="M-581.21-3560.69c0,0.08-0.01,0.15-0.03,0.2c-0.02,0.06-0.06,0.11-0.12,0.15l0.34-0.2
					c0.03-0.02,0.07-0.05,0.12-0.07c0.09-0.08,0.14-0.2,0.14-0.37c0-0.26-0.13-0.56-0.39-0.88c-0.27-0.33-0.59-0.58-0.95-0.76
					c-0.37-0.19-0.7-0.27-0.97-0.22c-0.07,0.02-0.12,0.05-0.17,0.08c-0.01,0.01-0.03,0.02-0.05,0.03l-0.34,0.2
					c0.05-0.01,0.08-0.02,0.12-0.03c0.03,0,0.07,0,0.1,0c0.24-0.03,0.52,0.03,0.85,0.2c0.37,0.19,0.7,0.45,0.97,0.78
					C-581.34-3561.25-581.21-3560.96-581.21-3560.69 M-587.94-3565.21c0.25-0.05,0.54,0.02,0.87,0.2c0.37,0.19,0.7,0.45,0.97,0.78
					c0.26,0.32,0.39,0.61,0.39,0.87c0,0.09-0.01,0.16-0.03,0.22c-0.02,0.06-0.06,0.11-0.12,0.15l0.34-0.2
					c0.03-0.02,0.07-0.05,0.12-0.07c0.09-0.09,0.14-0.22,0.14-0.37c0-0.26-0.13-0.56-0.39-0.88c-0.27-0.33-0.59-0.59-0.95-0.78
					c-0.37-0.18-0.7-0.25-0.97-0.2c-0.07,0.02-0.12,0.05-0.17,0.07c-0.01,0.01-0.03,0.02-0.05,0.03l-0.34,0.22
					c0.05-0.01,0.09-0.02,0.12-0.03C-587.99-3565.21-587.96-3565.21-587.94-3565.21 M-592.59-3567.64c0.05-0.01,0.08-0.02,0.12-0.03
					c0.03,0,0.06,0,0.08,0c0.25-0.03,0.54,0.03,0.87,0.2c0.37,0.19,0.7,0.45,0.97,0.78c0.26,0.32,0.39,0.61,0.39,0.87
					c0,0.09-0.01,0.16-0.03,0.22c-0.02,0.06-0.06,0.11-0.12,0.15l0.34-0.2c0.03-0.02,0.07-0.05,0.12-0.07
					c0.09-0.09,0.14-0.22,0.14-0.37c0-0.26-0.13-0.56-0.39-0.88c-0.27-0.33-0.59-0.59-0.95-0.78c-0.37-0.18-0.7-0.25-0.97-0.2
					c-0.07,0.02-0.12,0.05-0.17,0.07c-0.01,0.01-0.03,0.02-0.05,0.03L-592.59-3567.64 M-594.53-3568.28
					c0.03-0.02,0.07-0.05,0.1-0.07c0.1-0.08,0.15-0.2,0.15-0.36c0-0.26-0.13-0.55-0.39-0.88c-0.27-0.33-0.59-0.59-0.95-0.78
					c-0.37-0.18-0.7-0.25-0.97-0.2c-0.07,0.02-0.12,0.05-0.17,0.07c-0.01,0.01-0.03,0.02-0.05,0.03l-0.34,0.2
					c0.05-0.01,0.08-0.02,0.12-0.03c0.03,0,0.06,0,0.08,0c0.25-0.03,0.54,0.04,0.87,0.22c0.37,0.18,0.7,0.44,0.97,0.76
					c0.26,0.32,0.39,0.61,0.39,0.88c0,0.08-0.01,0.15-0.03,0.22c-0.02,0.06-0.07,0.11-0.14,0.15L-594.53-3568.28 M-551.29-3546.9
					c-0.14,0.03-0.26,0.08-0.37,0.15c-0.02,0.01-0.05,0.03-0.08,0.05l-0.66,0.44c0.08-0.03,0.16-0.06,0.24-0.07
					c0.07-0.02,0.13-0.03,0.19-0.03c0.48-0.06,1.05,0.08,1.72,0.42c0.76,0.4,1.4,0.92,1.92,1.56c0.53,0.65,0.8,1.23,0.8,1.75
					c0,0.16-0.02,0.29-0.07,0.41c-0.07,0.14-0.16,0.25-0.27,0.36l0.7-0.44c0.09-0.03,0.16-0.08,0.22-0.15
					c0.2-0.16,0.31-0.4,0.31-0.71c0-0.53-0.27-1.12-0.8-1.77c-0.53-0.66-1.17-1.17-1.9-1.55
					C-550.12-3546.86-550.76-3547.01-551.29-3546.9 M-547.47-3551.78c-0.53-0.66-1.17-1.17-1.9-1.55c-0.75-0.4-1.39-0.54-1.92-0.42
					c-0.14,0.03-0.26,0.08-0.37,0.14c-0.02,0.01-0.05,0.03-0.08,0.05l-0.66,0.44c0.08-0.03,0.16-0.06,0.24-0.07
					c0.07-0.01,0.13-0.02,0.19-0.02c0.48-0.06,1.05,0.08,1.72,0.42c0.76,0.39,1.4,0.91,1.92,1.56c0.52,0.63,0.78,1.21,0.78,1.73
					c0,0.17-0.02,0.31-0.05,0.43c-0.07,0.14-0.16,0.25-0.27,0.34l0.7-0.44c0.08-0.03,0.15-0.08,0.22-0.14
					c0.2-0.17,0.31-0.41,0.31-0.73C-546.67-3550.55-546.94-3551.14-547.47-3551.78 M-564.87-3561.4c-0.49-0.48-1.01-0.87-1.58-1.17
					c-1.08-0.57-2-0.66-2.77-0.29l-0.03,0.03l-0.25,0.17l-1.31,0.76l-1.61,0.93c0.45-0.2,0.96-0.25,1.53-0.14
					c0.14,0.02,0.28,0.06,0.44,0.1c0.23,0.08,0.48,0.19,0.75,0.34c0.56,0.29,1.07,0.67,1.55,1.14L-564.87-3561.4 M-562.39-3555.96
					c0-1.22-0.4-2.48-1.21-3.77c-0.18-0.31-0.38-0.59-0.59-0.87l-3.3,1.85c0.22,0.28,0.43,0.59,0.65,0.92
					c0.79,1.29,1.19,2.56,1.19,3.79c0,0.25-0.02,0.49-0.05,0.71c-0.02,0.12-0.05,0.24-0.07,0.36c-0.14,0.54-0.41,0.97-0.82,1.29
					l-0.02,0.02l1.68-0.97l1.27-0.78c0.01-0.01,0.03-0.02,0.05-0.03c0.03-0.01,0.07-0.03,0.1-0.05c0.02-0.01,0.05-0.02,0.07-0.03
					C-562.74-3553.98-562.39-3554.8-562.39-3555.96z"/>
				<path class="st12" d="M-596.54-3582.42l-0.41-0.24v8.8l0.41-0.32v-0.03V-3582.42z"/>
				<path class="st13" d="M-579.01-3563.61v-0.54l-17.51-10.06l-0.02,0.03l-0.41,0.32v0.03L-579.01-3563.61z"/>
				<path class="st14" d="M-579.01-3564.15l0.03-8.02l-17.56-10.25v8.21h0.02L-579.01-3564.15z"/>
				<path class="st15" d="M-557.74-3557.59c-0.12,0.1-0.19,0.27-0.19,0.51c0,0.27,0.09,0.54,0.27,0.82
					c0.16,0.27,0.36,0.46,0.61,0.58c0.24,0.14,0.44,0.15,0.61,0.05h0.02c0.1-0.06,0.16-0.15,0.19-0.29
					c0.02-0.03,0.03-0.06,0.03-0.08c0.01-0.05,0.02-0.1,0.02-0.15c0-0.26-0.08-0.53-0.25-0.82c-0.17-0.28-0.37-0.49-0.61-0.61
					c-0.07-0.02-0.12-0.05-0.17-0.07c-0.03,0-0.07-0.01-0.1-0.02c-0.11-0.02-0.22-0.01-0.32,0.05L-557.74-3557.59z"/>
				<path class="st16" d="M-568.61-3558.89c0.22,0.22,0.42,0.45,0.61,0.7c0.02,0.02,0.05,0.05,0.07,0.09l0.44-0.65
					c-0.22-0.27-0.44-0.53-0.68-0.76L-568.61-3558.89z"/>
				<path class="st17" d="M-564.19-3560.6c-0.2-0.29-0.43-0.56-0.68-0.8l-3.3,1.89c0.24,0.24,0.46,0.49,0.68,0.76L-564.19-3560.6z"
					/>
				<path class="st18" d="M-566.05-3563.68c-0.33-0.17-0.63-0.3-0.9-0.39c-0.88-0.29-1.67-0.28-2.35,0.03l-0.49,0.31
					c-0.56,0.41-0.9,1.02-1.04,1.84l1.31-0.76c0.06-0.05,0.11-0.09,0.17-0.14c0.03-0.01,0.06-0.02,0.09-0.03l0.03-0.03
					c0.77-0.37,1.69-0.28,2.77,0.29c0.57,0.31,1.09,0.7,1.58,1.17c0.25,0.24,0.48,0.5,0.68,0.8c0.22,0.27,0.41,0.56,0.59,0.87
					c0.8,1.29,1.21,2.55,1.21,3.77c0,1.17-0.35,1.98-1.04,2.43c-0.02,0.01-0.05,0.02-0.07,0.03c-0.03,0.02-0.07,0.04-0.1,0.05
					c-0.02,0.01-0.04,0.02-0.05,0.03l-1.27,0.78c0.84,0.24,1.59,0.16,2.26-0.24c0.05-0.01,0.09-0.03,0.14-0.05
					c0.01-0.01,0.03-0.02,0.07-0.02c0.63-0.44,1.02-1.13,1.16-2.06c0.05-0.26,0.07-0.53,0.07-0.82c0-1.47-0.48-2.98-1.43-4.52
					C-563.62-3561.85-564.74-3562.96-566.05-3563.68z"/>
				<path class="st19" d="M-633.01-3612.98v0.02l67.8,39.07l22.67,12.92l0.1,0.05l0.03,0.03l5.49-3.14l1.05-0.59l82.8-47.54
					l-89.38-51.6L-633.01-3612.98 M-624.36-3612.22l-1.07-0.63l82.34-46.82l82.41,47.49l-0.92,0.54l-81.53-46.79L-624.36-3612.22
					 M-528.61-3587.54c0,0.01,0,0.03,0,0.05c0,0.03,0,0.06,0,0.08l-0.61-0.34h0.61C-528.61-3587.69-528.61-3587.62-528.61-3587.54z"
					/>
				<path class="st20" d="M-528.61-3587.49c0-0.02,0-0.04,0-0.05c0-0.08,0-0.15,0-0.2h-0.61l0.61,0.34
					C-528.61-3587.43-528.61-3587.45-528.61-3587.49z"/>
				<path class="st21" d="M-543.09-3659.67l-0.03,1.24l81.53,46.79l0.92-0.54L-543.09-3659.67z"/>
				<path class="st22" d="M-625.43-3612.85l1.07,0.63l81.24-46.21l0.03-1.24L-625.43-3612.85z"/>
				<path class="st23" d="M-452.89-3605.35v-0.95l-82.97,47.79v-6.12l-1.05,0.59v6.14l-5.63,3.25v1.07l5.63-3.26v19.95l-5.63,3.2
					v1.04l5.63-3.21v82.38l-5.63,2.96v0.78l5.63-2.94v11.96l1.05-0.61v-116.1L-452.89-3605.35z"/>
			</g>
		</g>
	</g>
</g>
</svg>
