<?xml version="1.0" encoding="utf-8"?>
<!-- Generator: Adobe Illustrator 25.3.1, SVG Export Plug-In . SVG Version: 6.00 Build 0)  -->
<svg version="1.1" id="圖層_1" xmlns="http://www.w3.org/2000/svg" xmlns:xlink="http://www.w3.org/1999/xlink" x="0px" y="0px"
	 viewBox="0 0 240 240" style="enable-background:new 0 0 240 240;" xml:space="preserve">
<style type="text/css">
	.st0{fill:#E6E7E8;}
	.st1{fill:#BCBEC0;}
	.st2{fill:#58595B;}
	.st3{fill:#050505;}
	.st4{fill:#6D6E71;}
	.st5{fill:#F1F2F2;}
	.st6{fill:#D1D3D4;}
	.st7{fill:#282828;}
	.st8{fill:#2B2B2B;}
	.st9{fill:#333333;}
	.st10{clip-path:url(#SVGID_2_);}
	.st11{fill:#414042;}
	.st12{opacity:0.09;fill:#FFFFFF;}
	.st13{fill:#231F20;}
	.st14{fill:#A7A9AC;}
</style>
<g>
	<g>
		<polygon class="st0" points="31.18,52.68 104.71,10.1 208.82,70.21 135.29,112.8 		"/>
	</g>
	<polygon class="st1" points="135.29,112.71 135.29,229.9 208.82,187.4 208.82,70.21 	"/>
	<polygon class="st2" points="135.29,102.3 31.18,42.18 31.18,166.72 135.29,226.84 	"/>
	<polygon class="st3" points="135.29,229.04 31.18,168.91 31.18,169.8 135.29,229.9 	"/>
	<g>
		<polygon class="st4" points="31.18,42.16 34.97,40.02 139.08,100.13 135.29,102.28 		"/>
	</g>
	<polygon class="st3" points="135.29,135.79 31.18,75.67 31.18,76.56 135.29,136.66 	"/>
	<g>
		<g>
			<g>
				<path class="st5" d="M159.83,106.42c-1.51,0.87-2.74,3-2.73,4.73l0.27,96.55c0.01,1.74,1.24,2.42,2.75,1.55
					c1.51-0.87,2.74-2.98,2.73-4.71l-0.27-96.55C162.58,106.25,161.34,105.54,159.83,106.42L159.83,106.42z"/>
			</g>
		</g>
		<g>
			<g>
				<path class="st5" d="M176.79,96.67c-1.51,0.87-2.74,3-2.73,4.73l0.27,96.55c0.01,1.74,1.24,2.42,2.75,1.55
					c1.51-0.87,2.74-2.98,2.73-4.71l-0.27-96.55C179.54,96.5,178.3,95.8,176.79,96.67L176.79,96.67z"/>
			</g>
		</g>
		<g>
			<g>
				<path class="st5" d="M193.75,86.98c-1.51,0.87-2.74,3-2.73,4.73l0.27,96.55c0.01,1.74,1.24,2.42,2.75,1.55
					c1.51-0.87,2.74-2.98,2.73-4.71l-0.27-96.55C196.5,86.81,195.26,86.1,193.75,86.98L193.75,86.98z"/>
			</g>
		</g>
	</g>
	<g>
		<path class="st1" d="M57.32,75.43c0.01-2.79-1.95-6.17-4.39-7.58c-1.22-0.7-2.32-0.77-3.12-0.31l0,0l-3.07,2.47l6.18,9.67
			l2.6-1.23c0.24-0.07,0.45-0.17,0.65-0.31l0.09-0.04l-0.01-0.02C56.91,77.57,57.32,76.68,57.32,75.43z"/>
		<g>
			<g>
				<path class="st5" d="M54.18,77.03c-0.02,2.6-1.84,3.65-4.13,2.34c-2.25-1.3-4.07-4.46-4.07-7.08c0.02-2.16,1.3-3.25,3.04-2.77
					c0.18,0.02,0.33,0.09,0.51,0.18c0.18,0.05,0.37,0.16,0.56,0.26C52.35,71.27,54.18,74.43,54.18,77.03z"/>
			</g>
		</g>
		<path class="st6" d="M49.53,69.69v3.04l-0.51-0.3v-2.92C49.19,69.53,49.35,69.6,49.53,69.69z"/>
	</g>
	<g>
		<path class="st1" d="M116.85,110.87c0.01-2.79-1.95-6.17-4.39-7.58c-1.22-0.7-2.32-0.77-3.12-0.31l0,0l-3.07,2.47l6.18,9.67
			l2.6-1.23c0.24-0.07,0.45-0.17,0.65-0.31l0.09-0.04l-0.01-0.02C116.44,113.01,116.85,112.12,116.85,110.87z"/>
		<g>
			<g>
				<path class="st5" d="M113.72,112.47c-0.02,2.6-1.84,3.65-4.13,2.34c-2.25-1.3-4.07-4.46-4.07-7.08c0.02-2.16,1.3-3.25,3.04-2.77
					c0.18,0.02,0.33,0.09,0.51,0.18c0.18,0.05,0.37,0.16,0.56,0.26C111.89,106.71,113.72,109.87,113.72,112.47z"/>
			</g>
		</g>
		<path class="st6" d="M109.06,105.13v3.04l-0.51-0.3v-2.92C108.73,104.97,108.89,105.04,109.06,105.13z"/>
	</g>
	<polygon class="st7" points="135.29,136.67 31.18,76.55 31.18,168.89 135.29,229.01 	"/>
	<polygon class="st8" points="38.99,164.38 38.99,90.08 127.48,141.18 127.48,215.48 	"/>
	<polygon class="st3" points="139.08,133.59 139.08,227.73 135.29,229.9 135.29,135.79 	"/>
	<polygon class="st9" points="38.99,164.38 103.3,127.25 38.99,90.08 	"/>
	<g>
		<defs>
			<polygon id="SVGID_1_" points="38.99,164.38 38.99,90.08 127.48,141.18 127.48,215.48 			"/>
		</defs>
		<clipPath id="SVGID_2_">
			<use xlink:href="#SVGID_1_"  style="overflow:visible;"/>
		</clipPath>
		<g class="st10">
			<g>
				<path class="st11" d="M171.78,161.31l0.73-0.42l1.48,0.85l-0.73,0.42l7.43,4.29l-51.87,30.15l-7.43-4.29l-0.73,0.42l-1.48-0.85
					l0.73-0.42l-6.83-3.94l-0.73,0.42l-1.48-0.85l0.73-0.42l-6.83-3.94l-0.73,0.42l-1.48-0.85l0.73-0.42l-6.83-3.94l-0.73,0.42
					l-1.48-0.85l0.73-0.42l-6.83-3.94l-0.73,0.42l-1.48-0.85l0.73-0.42l-6.83-3.94l-0.73,0.42l-1.48-0.85l0.73-0.42l-6.83-3.94
					l-0.73,0.42l-1.48-0.85l0.73-0.42l-6.83-3.94l-0.73,0.42l-1.48-0.85l0.73-0.42l-6.83-3.94l-0.73,0.42l-1.48-0.85l0.73-0.42
					l-6.4-3.69l51.87-30.15l6.4,3.69l0.73-0.42l1.48,0.85l-0.73,0.42l6.83,3.94l0.73-0.42l1.48,0.85l-0.73,0.42l6.83,3.94l0.73-0.42
					l1.48,0.85l-0.73,0.42l6.83,3.94l0.73-0.42l1.48,0.85l-0.73,0.42l6.83,3.94l0.73-0.42l1.48,0.85l-0.73,0.42l6.83,3.94l0.73-0.42
					l1.48,0.85l-0.73,0.42l6.83,3.94l0.73-0.42l1.48,0.85l-0.73,0.42l6.83,3.94l0.73-0.42l1.48,0.85l-0.73,0.42L171.78,161.31
					L171.78,161.31z M183.6,166.45l-84.7-48.9l-54.78,31.83l84.7,48.9L183.6,166.45L183.6,166.45z"/>
				<polygon class="st11" points="107.51,123.36 106.03,122.51 105.31,122.93 53.43,153.07 52.71,153.5 54.19,154.35 54.91,153.93 
					106.79,123.78 107.51,123.36 				"/>
				<polygon class="st11" points="115.82,128.16 114.34,127.3 113.62,127.72 61.74,157.87 61.02,158.29 62.49,159.15 63.22,158.72 
					115.1,128.58 115.82,128.16 				"/>
				<polygon class="st11" points="124.13,132.95 122.65,132.1 121.93,132.52 70.05,162.67 69.32,163.09 70.8,163.94 71.53,163.52 
					123.4,133.38 124.13,132.95 				"/>
				<polygon class="st11" points="132.44,137.75 130.96,136.9 130.23,137.32 78.36,167.47 77.63,167.89 79.11,168.74 79.84,168.32 
					131.71,138.17 132.44,137.75 				"/>
				<polygon class="st11" points="140.75,142.55 139.27,141.69 138.54,142.12 86.67,172.26 85.94,172.68 87.42,173.54 88.15,173.12 
					140.02,142.97 140.75,142.55 				"/>
				<polygon class="st11" points="149.06,147.35 147.58,146.49 146.85,146.91 94.98,177.06 94.25,177.48 95.73,178.34 96.46,177.91 
					148.33,147.77 149.06,147.35 				"/>
				<polygon class="st11" points="157.37,152.14 155.89,151.29 155.16,151.71 103.29,181.86 102.56,182.28 104.04,183.13 
					104.77,182.71 156.64,152.56 157.37,152.14 				"/>
				<polygon class="st11" points="165.68,156.94 164.2,156.09 163.47,156.51 111.6,186.65 110.87,187.08 112.35,187.93 
					113.08,187.51 164.95,157.36 165.68,156.94 				"/>
				<polygon class="st11" points="173.99,161.74 172.51,160.88 171.78,161.31 119.91,191.45 119.18,191.87 120.66,192.73 
					121.38,192.31 173.26,162.16 173.99,161.74 				"/>
			</g>
		</g>
		<g class="st10">
			<g>
				<path class="st11" d="M171.79,132.45l0.73-0.42l1.48,0.85l-0.73,0.42l7.43,4.29l-51.87,30.15l-7.43-4.29l-0.73,0.42l-1.48-0.85
					l0.73-0.42l-6.83-3.94l-0.73,0.42l-1.48-0.85l0.73-0.42l-6.83-3.94l-0.73,0.42l-1.48-0.85l0.73-0.42l-6.83-3.94l-0.73,0.42
					l-1.48-0.85l0.73-0.42l-6.83-3.94l-0.73,0.42l-1.48-0.85l0.73-0.42l-6.83-3.94l-0.73,0.42l-1.48-0.85l0.73-0.42l-6.83-3.94
					l-0.73,0.42l-1.48-0.85l0.73-0.42l-6.83-3.94l-0.73,0.42l-1.48-0.85l0.73-0.42l-6.83-3.94l-0.73,0.42l-1.48-0.85l0.73-0.42
					l-6.4-3.69l51.87-30.15l6.4,3.69l0.73-0.42l1.48,0.85l-0.73,0.42l6.83,3.94l0.73-0.42l1.48,0.85l-0.73,0.42l6.83,3.94l0.73-0.42
					l1.48,0.85l-0.73,0.42l6.83,3.94l0.73-0.42l1.48,0.85l-0.73,0.42l6.83,3.94l0.73-0.42l1.48,0.85l-0.73,0.42l6.83,3.94l0.73-0.42
					l1.48,0.85l-0.73,0.42l6.83,3.94l0.73-0.42l1.48,0.85l-0.73,0.42l6.83,3.94l0.73-0.42l1.48,0.85l-0.73,0.42L171.79,132.45
					L171.79,132.45z M183.61,137.59l-84.7-48.9l-54.8,31.84l84.7,48.9L183.61,137.59L183.61,137.59z"/>
				<polygon class="st11" points="107.52,94.51 106.04,93.65 105.32,94.07 53.44,124.22 52.71,124.64 54.19,125.5 54.92,125.07 
					106.79,94.93 107.52,94.51 				"/>
				<polygon class="st11" points="115.83,99.3 114.35,98.45 113.62,98.87 61.75,129.02 61.02,129.44 62.5,130.29 63.23,129.87 
					115.1,99.73 115.83,99.3 				"/>
				<polygon class="st11" points="124.14,104.1 122.66,103.25 121.93,103.67 70.06,133.82 69.33,134.24 70.81,135.09 71.54,134.67 
					123.41,104.52 124.14,104.1 				"/>
				<polygon class="st11" points="132.45,108.9 130.97,108.04 130.24,108.47 78.37,138.61 77.64,139.03 79.12,139.89 79.85,139.47 
					131.72,109.32 132.45,108.9 				"/>
				<polygon class="st11" points="140.76,113.69 139.28,112.84 138.55,113.26 86.68,143.41 85.95,143.83 87.43,144.69 88.16,144.26 
					140.03,114.12 140.76,113.69 				"/>
				<polygon class="st11" points="149.07,118.49 147.59,117.64 146.86,118.06 94.99,148.21 94.26,148.63 95.74,149.48 96.47,149.06 
					148.34,118.91 149.07,118.49 				"/>
				<polygon class="st11" points="157.38,123.29 155.9,122.44 155.17,122.86 103.3,153 102.57,153.43 104.05,154.28 104.77,153.86 
					156.65,123.71 157.38,123.29 				"/>
				<polygon class="st11" points="165.68,128.09 164.21,127.23 163.48,127.65 111.6,157.8 110.88,158.22 112.36,159.08 
					113.08,158.65 164.96,128.51 165.68,128.09 				"/>
				<polygon class="st11" points="173.99,132.88 172.51,132.03 171.79,132.45 119.91,162.6 119.19,163.02 120.67,163.87 
					121.39,163.45 173.27,133.31 173.99,132.88 				"/>
			</g>
		</g>
	</g>
	<polygon class="st12" points="38.99,146.03 127.48,141.18 38.99,90.08 	"/>
	<g>
		<g>
			<g>
				<path class="st13" d="M91.56,88.7L71.37,76.88c-1.32-0.76-2.39-0.15-2.39,1.36l-0.03,10.64c0,1.49,1.06,3.33,2.38,4.09
					l20.19,11.82c1.32,0.76,2.39,0.15,2.39-1.34l0.03-10.64C93.94,91.3,92.88,89.46,91.56,88.7L91.56,88.7z"/>
			</g>
		</g>
		<g>
			<g>
				<path class="st9" d="M90.21,93.12v5.97c0,0.83-0.6,1.17-1.37,0.77L73.3,90.88c-0.37-0.2-0.7-0.6-0.93-1
					c-0.23-0.4-0.4-0.87-0.4-1.3L72,82.61c0-0.87,0.6-1.2,1.33-0.77l13.41,7.71l2.13,1.23C89.61,91.22,90.21,92.25,90.21,93.12z"/>
			</g>
		</g>
	</g>
	<g>
		<polygon class="st11" points="112.5,127.79 112.5,130.95 114.99,129.55 114.99,126.39 		"/>
		<polygon class="st2" points="112.5,127.79 109.45,126.11 109.45,129.27 112.5,130.95 		"/>
		<polygon class="st4" points="109.45,126.11 112.09,124.71 114.99,126.39 112.5,127.79 		"/>
	</g>
	<g>
		<polygon class="st11" points="50.95,92.34 50.95,95.5 53.44,94.09 53.44,90.93 		"/>
		<polygon class="st2" points="50.95,92.34 47.9,90.66 47.9,93.82 50.95,95.5 		"/>
		<polygon class="st4" points="47.9,90.66 50.54,89.26 53.44,90.93 50.95,92.34 		"/>
	</g>
	<polygon class="st11" points="135.29,135.79 135.29,102.28 139.08,100.13 139.08,133.59 	"/>
	<rect x="77.38" y="61.3" transform="matrix(0.5 -0.866 0.866 0.5 -56.9165 125.2165)" class="st14" width="5.21" height="101.19"/>
	<g>
		<g>
			<path class="st14" d="M35.92,84.33c-1.04,0.6-1.88,2.05-1.87,3.24c0,1.19,0.85,1.67,1.88,1.07c1.02-0.59,1.88-2.05,1.87-3.24
				C37.8,84.21,36.95,83.73,35.92,84.33L35.92,84.33z"/>
		</g>
	</g>
	<g>
		<g>
			<path class="st4" d="M123.99,135.13c-1.04,0.6-1.88,2.05-1.87,3.24c0,1.19,0.85,1.67,1.88,1.07c1.02-0.59,1.88-2.05,1.87-3.24
				C125.87,135.01,125.01,134.54,123.99,135.13L123.99,135.13z"/>
		</g>
	</g>
</g>
</svg>
