<?xml version="1.0" encoding="utf-8"?>
<!-- Generator: Adobe Illustrator 25.3.1, SVG Export Plug-In . SVG Version: 6.00 Build 0)  -->
<svg version="1.1" id="圖層_1" xmlns="http://www.w3.org/2000/svg" xmlns:xlink="http://www.w3.org/1999/xlink" x="0px" y="0px"
	 viewBox="0 0 240 240" style="enable-background:new 0 0 240 240;" xml:space="preserve">
<style type="text/css">
	.st0{fill:#414042;}
	.st1{fill:#231F20;}
	.st2{fill:#BCBEC0;}
	.st3{fill:#E6E7E8;}
	.st4{fill:url(#SVGID_1_);}
	.st5{fill:#A7A9AC;}
	.st6{fill:#D1D3D4;}
	.st7{fill:#F1F2F2;}
	.st8{fill:#52CCF7;}
	.st9{fill:#E0E0E0;}
</style>
<g>
	<g>
		<polygon class="st0" points="127.27,219.28 127.27,226.48 133.5,230.08 133.5,222.88 		"/>
		<polygon class="st1" points="127.27,219.28 133.5,215.68 139.74,219.28 133.5,222.88 		"/>
		<polygon class="st1" points="133.5,222.88 133.5,230.08 139.74,226.48 139.74,219.28 		"/>
	</g>
	<g>
		<polygon class="st0" points="51.16,175.22 51.16,182.42 57.4,186.02 57.4,178.82 		"/>
		<polygon class="st1" points="51.16,175.22 57.4,171.61 63.64,175.22 57.4,178.82 		"/>
		<polygon class="st1" points="57.4,178.82 57.4,186.02 63.64,182.42 63.64,175.22 		"/>
	</g>
	<g>
		<polygon class="st0" points="176.14,191.09 176.14,198.29 182.38,201.89 182.38,194.69 		"/>
		<polygon class="st1" points="176.14,191.09 182.38,187.49 188.62,191.09 182.38,194.69 		"/>
		<polygon class="st1" points="182.38,194.69 182.38,201.89 188.62,198.29 188.62,191.09 		"/>
	</g>
	<polygon class="st2" points="133.5,98.71 133.5,226.13 191.65,192.56 191.65,65.15 	"/>
	<polygon class="st3" points="133.5,98.71 48.35,49.54 48.35,176.95 133.5,226.13 	"/>
	<linearGradient id="SVGID_1_" gradientUnits="userSpaceOnUse" x1="120" y1="15.9831" x2="120" y2="98.7128">
		<stop  offset="0" style="stop-color:#F1F2F2"/>
		<stop  offset="1" style="stop-color:#E6E7E8"/>
	</linearGradient>
	<polygon class="st4" points="48.35,49.54 106.5,15.98 191.65,65.15 133.5,98.71 	"/>
	<g>
		<polygon class="st2" points="133.5,208.74 139.22,205.42 139.22,206.13 133.5,209.47 		"/>
		<polygon class="st2" points="139.74,222.5 139.23,222.82 139.23,96.15 139.74,95.84 		"/>
		<polygon class="st2" points="133.5,208.76 48.35,159.58 48.35,160.31 89.47,184.07 89.47,200.72 89.95,200.96 89.95,184.32 
			133.5,209.47 		"/>
	</g>
	<g>
		<polygon class="st5" points="133.5,92.65 133.5,98.72 191.65,65.15 191.65,59.08 		"/>
		<polygon class="st6" points="133.5,92.65 48.35,43.48 48.35,49.55 133.5,98.72 		"/>
		<polygon class="st7" points="48.35,43.48 106.5,9.92 191.65,59.08 133.5,92.65 		"/>
	</g>
	<polygon class="st6" points="133.5,98.74 48.35,49.57 48.35,50.3 133.5,99.45 	"/>
	<polygon class="st2" points="133.5,98.72 191.65,65.15 191.65,65.87 133.5,99.45 	"/>
	<polygon class="st6" points="133.5,123.98 48.35,74.8 48.35,75.53 133.5,124.69 	"/>
	<polygon class="st2" points="133.5,123.96 139.23,120.72 139.23,121.43 133.5,124.69 	"/>
	<polygon class="st1" points="70.38,87.53 70.38,62.99 111.37,86.66 111.37,111.19 	"/>
	<g>
		<g>
			<path class="st5" d="M67.06,76.28v2.69c0,0.83-0.92,1.36-1.64,0.94l-13.39-7.75c-0.28-0.15-0.51-0.38-0.64-0.64
				c-0.15-0.26-0.23-0.55-0.23-0.85v-3.61l5.28,3.07L67.06,76.28z"/>
		</g>
		<path class="st2" d="M55.42,69.53l-4.02,1.99c-0.15-0.26-0.23-0.55-0.23-0.85v-3.61L55.42,69.53z"/>
	</g>
	<g>
		<g>
			<path class="st7" d="M153.58,99.96c-1.24,0.71-2.24,2.45-2.24,3.87l0.22,98.12c0,1.42,1.01,1.98,2.25,1.27
				c1.24-0.71,2.24-2.43,2.24-3.86l-0.22-98.12C155.82,99.82,154.81,99.24,153.58,99.96L153.58,99.96z"/>
		</g>
	</g>
	<g>
		<g>
			<path class="st7" d="M167.45,91.98c-1.24,0.71-2.24,2.45-2.24,3.87l0.22,98.12c0,1.42,1.01,1.98,2.25,1.27
				c1.24-0.71,2.24-2.43,2.24-3.86l-0.22-98.12C169.69,91.84,168.68,91.27,167.45,91.98L167.45,91.98z"/>
		</g>
	</g>
	<g>
		<g>
			<path class="st7" d="M181.32,84.06c-1.24,0.71-2.24,2.45-2.24,3.87l0.22,98.12c0,1.42,1.01,1.98,2.25,1.27
				c1.24-0.71,2.24-2.43,2.24-3.86l-0.22-98.12C183.56,83.92,182.55,83.34,181.32,84.06L181.32,84.06z"/>
		</g>
	</g>
	<g>
		<g>
			<path class="st8" d="M105.56,90.24v7.63c0,1.07-0.77,1.49-1.75,0.98L78.05,83.97c-0.47-0.26-0.9-0.77-1.19-1.28
				c-0.3-0.51-0.51-1.11-0.51-1.66l0.04-7.64c0-1.11,0.77-1.54,1.71-0.98l23.03,13.27l2.73,1.58
				C104.8,87.8,105.56,89.13,105.56,90.24z"/>
		</g>
	</g>
	<g>
		<g>
			<g>
				<g>
					<path class="st6" d="M127.31,109.86c0.02,0.01,0.14-0.51,0.14-0.51l1.91,0.59c0,0-0.1,0.6-0.13,0.59L127.31,109.86z"/>
				</g>
				<g>
					<path class="st6" d="M126.45,111.13c0.01,0.02,0.32-0.3,0.32-0.3l1.54,1.34c0,0-0.38,0.42-0.4,0.4L126.45,111.13z"/>
				</g>
				<g>
					<path class="st6" d="M125.06,111.56c0.01,0.02,0.47-0.03,0.47-0.03l0.35,2.01c0,0-0.64,0.09-0.63,0.06L125.06,111.56z"/>
				</g>
				<g>
					<path class="st6" d="M123.38,111.16c0,0,0.51,0.22,0.51,0.2l-0.63,1.94c-0.01,0.02-0.7-0.27-0.7-0.27L123.38,111.16z"/>
				</g>
				<g>
					<path class="st6" d="M121.75,110.17c0,0,0.47,0.36,0.47,0.35l-1.14,1.69c-0.01,0.01-0.58-0.42-0.58-0.42L121.75,110.17z"/>
				</g>
				<g>
					<polygon class="st6" points="120.32,108.82 120.73,109.26 119.28,110.69 118.8,110.18 					"/>
				</g>
				<g>
					<polygon class="st6" points="119.09,107.23 119.44,107.74 117.79,108.93 117.39,108.36 					"/>
				</g>
				<g>
					<polygon class="st6" points="118.1,105.48 118.38,106.03 116.58,106.98 116.26,106.36 					"/>
				</g>
				<g>
					<polygon class="st6" points="117.37,103.62 117.56,104.19 115.64,104.88 115.42,104.22 					"/>
				</g>
				<g>
					<path class="st6" d="M116.96,101.7c0,0,0.07,0.59,0.08,0.59l-2.01,0.36l-0.1-0.71L116.96,101.7z"/>
				</g>
				<g>
					<path class="st6" d="M116.74,99.82c0,0-0.07,0.55-0.06,0.56l-2.04-0.12c-0.02,0,0.07-0.74,0.07-0.74L116.74,99.82z"/>
				</g>
				<g>
					<path class="st6" d="M117.14,98.28c0,0-0.31,0.37-0.3,0.39l-1.6-1.27c-0.02-0.01,0.4-0.51,0.4-0.51L117.14,98.28z"/>
				</g>
				<g>
					<path class="st6" d="M118.68,97.36c-0.01-0.01-0.71,0.25-0.5,0.18l-0.73-1.89c0.28-0.18,0.62-0.27,0.63-0.25L118.68,97.36z"/>
				</g>
				<g>
					<path class="st6" d="M120.26,97.37c0,0-0.51-0.11-0.51-0.09l0.23-2.03c0.01-0.02,0.78,0.14,0.78,0.14L120.26,97.37z"/>
				</g>
				<g>
					<path class="st6" d="M121.95,98.1c-0.01-0.03-0.47-0.26-0.46-0.25l0.84-1.86c0.02-0.01,0.71,0.35,0.69,0.37L121.95,98.1z"/>
				</g>
				<g>
					<polygon class="st6" points="123.48,99.29 123.03,98.89 124.35,97.33 124.88,97.8 					"/>
				</g>
				<g>
					<polygon class="st6" points="124.81,100.77 124.43,100.3 125.99,98.98 126.42,99.52 					"/>
				</g>
				<g>
					<polygon class="st6" points="125.92,102.44 125.61,101.92 127.34,100.84 127.7,101.44 					"/>
				</g>
				<g>
					<polygon class="st6" points="126.79,104.26 126.56,103.69 128.42,102.86 128.69,103.51 					"/>
				</g>
				<g>
					<path class="st6" d="M127.37,106.16c0.01,0-0.14-0.58-0.14-0.58l1.97-0.53l0.17,0.69L127.37,106.16z"/>
				</g>
				<g>
					<polygon class="st6" points="127.59,108.08 127.57,107.5 129.61,107.46 129.63,108.08 					"/>
				</g>
			</g>
		</g>
	</g>
	<path class="st2" d="M127.21,107.7c0.01-3.38-2.36-7.48-5.32-9.19c-1.48-0.85-2.81-0.93-3.78-0.37l0,0l-3.72,2.99l7.49,11.72
		l3.15-1.49c0.29-0.08,0.55-0.21,0.79-0.37l0.11-0.05l-0.02-0.03C126.71,110.29,127.2,109.21,127.21,107.7z"/>
	<g>
		<g>
			<path class="st7" d="M123.4,109.63c-0.02,3.15-2.24,4.43-5,2.83c-2.72-1.58-4.94-5.41-4.94-8.58c0.02-2.62,1.58-3.94,3.68-3.36
				c0.21,0.02,0.4,0.11,0.62,0.21c0.21,0.06,0.45,0.19,0.68,0.32C121.19,102.65,123.4,106.48,123.4,109.63z"/>
		</g>
	</g>
	<path class="st6" d="M117.76,100.73v3.68l-0.62-0.36v-3.53C117.36,100.54,117.55,100.62,117.76,100.73z"/>
	<path class="st2" d="M101.55,182.28c-4.39,0-9.25-1.47-14.28-4.37c-17.08-9.87-30.98-34.01-30.98-53.8c0-4.4,0.89-15.18,9.18-20.13
		c12.78-7.64,28.65,3.74,38.34,15.8c9.95,12.38,15.61,26.95,15.52,39.98l-0.69,0l0.69,0c-0.07,9.7-3.42,16.95-9.44,20.4
		C107.41,181.58,104.59,182.28,101.55,182.28z M74.51,102.89c-2.86,0-5.67,0.7-8.32,2.28c-7.68,4.58-8.5,14.77-8.5,18.93
		c0,19.35,13.58,42.95,30.28,52.6c8.08,4.66,15.62,5.46,21.24,2.24c5.57-3.2,8.68-10.01,8.74-19.2c0.09-12.72-5.46-26.97-15.21-39.1
		C95.45,111.59,84.62,102.89,74.51,102.89z"/>
	<path class="st6" d="M118.64,159.75c-0.13,19.54-13.86,27.46-31.02,17.56c-16.9-9.77-30.63-33.53-30.63-53.2
		c0-7.25,2.22-15.58,8.84-19.53c13.41-8.01,29.52,5.78,37.44,15.64C112.05,131.13,118.73,145.52,118.64,159.75z"/>
	<path class="st7" d="M82.99,108.68c-3.85-2.1-7.85-3.21-11.55-3.21c-4.84,0-9.16,1.89-12.17,5.32c-3.01,3.43-4.6,8.24-4.6,13.91
		c0,19.42,13.63,43.09,30.38,52.78c4.63,2.67,9.19,4.08,13.17,4.08c9.31,0,15.15-7.7,15.23-20.12
		C113.46,142.11,99.84,118.47,82.99,108.68z"/>
	<path class="st9" d="M108.68,161.43c0,1.85-0.19,4.73-1.02,7.47c-1.23,4.07-3.85,7.88-9.43,7.88c-3.15,0-6.88-1.19-10.79-3.45
		c-15.18-8.77-27.99-31.04-27.99-48.64c0-0.21,0-0.4,0.02-0.62c0.09-4.21,1.26-7.71,3.38-10.13c2.09-2.38,5.15-3.7,8.6-3.7
		c2.9,0,6.11,0.92,9.26,2.64C95.82,121.66,108.68,143.93,108.68,161.43z"/>
	<path class="st3" d="M107.7,167.28c0,0.47-0.02,1.02-0.04,1.62c-1.23,4.07-3.85,7.88-9.43,7.88c-3.15,0-6.88-1.19-10.79-3.45
		c-15.18-8.77-27.99-31.04-27.99-48.64c0-0.21,0-0.4,0.02-0.62c0.55-1.66,1.36-3.11,2.41-4.3c2.09-2.38,5.13-3.68,8.58-3.68
		c2.92,0,6.13,0.92,9.28,2.62C94.85,127.49,107.7,149.78,107.7,167.28z"/>
	<polygon class="st2" points="126.37,209.23 95.2,191.01 95.2,191.73 126.37,209.94 	"/>
	<polygon class="st2" points="126.37,212.07 95.2,193.85 95.2,194.57 126.37,212.78 	"/>
	<polygon class="st2" points="126.37,214.91 95.2,196.69 95.2,197.42 126.37,215.62 	"/>
	<polygon class="st2" points="126.37,217.76 95.2,199.53 95.2,200.26 126.37,218.47 	"/>
	<g>
		<g>
			<path class="st0" d="M80.99,88.72l-3.86-2.23c-0.39-0.23-0.69-0.06-0.7,0.4c0,0.44,0.3,0.97,0.69,1.2l3.86,2.23
				c0.38,0.22,0.69,0.04,0.7-0.4C81.68,89.46,81.37,88.94,80.99,88.72L80.99,88.72z"/>
			<path class="st0" d="M88.16,92.86l-3.87-2.24c-0.38-0.22-0.69-0.06-0.7,0.4c0,0.44,0.31,0.98,0.69,1.2l3.87,2.24
				c0.38,0.22,0.69,0.04,0.7-0.4C88.86,93.6,88.54,93.08,88.16,92.86L88.16,92.86z"/>
			<path class="st0" d="M95.34,97l-3.87-2.24c-0.38-0.22-0.69-0.06-0.7,0.4c0,0.44,0.31,0.98,0.69,1.2l3.87,2.24
				c0.38,0.22,0.69,0.04,0.7-0.4C96.03,97.75,95.72,97.22,95.34,97L95.34,97z"/>
			<path class="st0" d="M102.52,101.15l-3.87-2.24c-0.38-0.22-0.69-0.06-0.7,0.4c0,0.44,0.31,0.98,0.69,1.2l3.87,2.24
				c0.38,0.22,0.69,0.04,0.7-0.4C103.21,101.89,102.9,101.37,102.52,101.15L102.52,101.15z"/>
		</g>
	</g>
</g>
</svg>
