<?xml version="1.0" encoding="utf-8"?>
<!-- Generator: Adobe Illustrator 25.3.1, SVG Export Plug-In . SVG Version: 6.00 Build 0)  -->
<svg version="1.1" id="圖層_1" xmlns="http://www.w3.org/2000/svg" xmlns:xlink="http://www.w3.org/1999/xlink" x="0px" y="0px"
	 viewBox="0 0 240 240" style="enable-background:new 0 0 240 240;" xml:space="preserve">
<style type="text/css">
	.st0{fill:#D1D3D4;}
	.st1{fill:#A7A9AC;}
	.st2{fill:#F1F2F2;}
	.st3{fill:#BCBEC0;}
	.st4{fill:#939598;}
	.st5{fill:#231F20;}
	.st6{fill:#333333;}
	.st7{fill:#E6E7E8;}
	.st8{fill:#B2192C;}
	.st9{fill:#F15A29;}
	.st10{fill:#BE1E2D;}
</style>
<g>
	<g>
		<polygon class="st0" points="29.47,139.07 29.47,142.88 26.47,141.19 26.47,137.38 		"/>
		<polygon class="st1" points="29.47,139.07 62.07,120.29 62.07,124.09 29.47,142.88 		"/>
		<polygon class="st2" points="62.07,120.29 59.08,118.6 26.47,137.38 29.47,139.07 		"/>
	</g>
	<g>
		<polygon class="st1" points="188.96,106.96 188.96,221.62 206.81,211.48 206.81,96.81 		"/>
		<polygon class="st3" points="188.96,106.96 36.94,20.06 36.94,134.73 188.96,221.62 		"/>
		<polygon class="st0" points="36.94,20.06 54.78,9.92 206.81,96.81 188.96,106.96 		"/>
	</g>
	<g>
		<g>
			<g>
				<g>
					<g>
						<path class="st4" d="M190.23,147.73c-0.02,0.01-0.13-0.45-0.13-0.45l-1.71,0.53c0,0,0.09,0.53,0.12,0.53L190.23,147.73z"/>
					</g>
					<g>
						<path class="st4" d="M191,148.87c-0.01,0.02-0.29-0.27-0.29-0.27l-1.38,1.2c0,0,0.34,0.38,0.36,0.36L191,148.87z"/>
					</g>
					<g>
						<path class="st4" d="M192.25,149.25c-0.01,0.02-0.42-0.03-0.42-0.03l-0.31,1.8c0,0,0.57,0.08,0.56,0.05L192.25,149.25z"/>
					</g>
					<g>
						<path class="st4" d="M193.75,148.89c0,0-0.46,0.19-0.46,0.18l0.57,1.74c0.01,0.01,0.63-0.24,0.63-0.24L193.75,148.89z"/>
					</g>
					<g>
						<path class="st4" d="M195.2,148.01c0,0-0.42,0.32-0.42,0.31l1.02,1.51c0.01,0.01,0.52-0.38,0.52-0.38L195.2,148.01z"/>
					</g>
					<g>
						<polygon class="st4" points="196.49,146.8 196.12,147.19 197.41,148.48 197.85,148.02 						"/>
					</g>
					<g>
						<polygon class="st4" points="197.59,145.38 197.27,145.83 198.75,146.9 199.11,146.39 						"/>
					</g>
					<g>
						<polygon class="st4" points="198.47,143.81 198.23,144.3 199.84,145.16 200.12,144.6 						"/>
					</g>
					<g>
						<polygon class="st4" points="199.13,142.15 198.96,142.66 200.67,143.28 200.87,142.68 						"/>
					</g>
					<g>
						<path class="st4" d="M199.49,140.42c0,0-0.06,0.52-0.08,0.52l1.8,0.32l0.09-0.63L199.49,140.42z"/>
					</g>
					<g>
						<path class="st4" d="M199.69,138.74c0,0,0.06,0.49,0.05,0.5l1.82-0.1c0.01,0-0.07-0.67-0.07-0.67L199.69,138.74z"/>
					</g>
					<g>
						<path class="st4" d="M199.33,137.36c0,0,0.27,0.33,0.27,0.35l1.44-1.14c0.02-0.01-0.36-0.45-0.36-0.45L199.33,137.36z"/>
					</g>
					<g>
						<path class="st4" d="M197.96,136.54c0.01-0.01,0.64,0.22,0.45,0.16l0.65-1.69c-0.25-0.16-0.56-0.24-0.56-0.22L197.96,136.54z"
							/>
					</g>
					<g>
						<path class="st4" d="M196.54,136.56c0,0,0.46-0.1,0.45-0.08l-0.21-1.81c-0.01-0.02-0.7,0.13-0.7,0.13L196.54,136.56z"/>
					</g>
					<g>
						<path class="st4" d="M195.03,137.2c0.01-0.02,0.42-0.23,0.42-0.22l-0.75-1.67c-0.01-0.01-0.64,0.32-0.61,0.33L195.03,137.2z"
							/>
					</g>
					<g>
						<polygon class="st4" points="193.66,138.27 194.06,137.91 192.88,136.52 192.4,136.94 						"/>
					</g>
					<g>
						<polygon class="st4" points="192.47,139.59 192.81,139.17 191.41,137.99 191.02,138.48 						"/>
					</g>
					<g>
						<polygon class="st4" points="191.47,141.09 191.75,140.62 190.2,139.66 189.88,140.19 						"/>
					</g>
					<g>
						<polygon class="st4" points="190.69,142.72 190.9,142.21 189.23,141.47 189,142.05 						"/>
					</g>
					<g>
						<path class="st4" d="M190.17,144.42c-0.01,0,0.13-0.52,0.13-0.52l-1.76-0.48l-0.15,0.61L190.17,144.42z"/>
					</g>
					<g>
						<polygon class="st4" points="189.98,146.13 190,145.62 188.17,145.59 188.15,146.14 						"/>
					</g>
				</g>
			</g>
		</g>
		<path class="st3" d="M190.32,145.79c-0.01-3.02,2.11-6.7,4.76-8.22c1.32-0.76,2.52-0.83,3.38-0.33l0,0l3.33,2.68l-6.71,10.49
			l-2.82-1.33c-0.26-0.07-0.49-0.18-0.71-0.33l-0.1-0.05l0.01-0.02C190.77,148.12,190.33,147.15,190.32,145.79z"/>
		<g>
			<g>
				<path class="st2" d="M193.73,147.52c0.02,2.82,2,3.96,4.48,2.53c2.44-1.41,4.42-4.84,4.42-7.68c-0.02-2.34-1.41-3.53-3.3-3.01
					c-0.19,0.02-0.36,0.1-0.55,0.19c-0.19,0.06-0.4,0.17-0.61,0.29C195.71,141.27,193.73,144.7,193.73,147.52z"/>
			</g>
		</g>
		<path class="st0" d="M198.78,139.56v3.3l0.55-0.32v-3.16C199.14,139.39,198.97,139.46,198.78,139.56z"/>
	</g>
	<g>
		<g>
			<g>
				<g>
					<g>
						<path class="st4" d="M190.23,169.58c-0.02,0.01-0.13-0.45-0.13-0.45l-1.71,0.53c0,0,0.09,0.53,0.12,0.53L190.23,169.58z"/>
					</g>
					<g>
						<path class="st4" d="M191,170.73c-0.01,0.02-0.29-0.27-0.29-0.27l-1.38,1.2c0,0,0.34,0.38,0.36,0.36L191,170.73z"/>
					</g>
					<g>
						<path class="st4" d="M192.25,171.11c-0.01,0.02-0.42-0.03-0.42-0.03l-0.31,1.8c0,0,0.57,0.08,0.56,0.05L192.25,171.11z"/>
					</g>
					<g>
						<path class="st4" d="M193.75,170.75c0,0-0.46,0.19-0.46,0.18l0.57,1.74c0.01,0.01,0.63-0.24,0.63-0.24L193.75,170.75z"/>
					</g>
					<g>
						<path class="st4" d="M195.2,169.86c0,0-0.42,0.32-0.42,0.31l1.02,1.51c0.01,0.01,0.52-0.38,0.52-0.38L195.2,169.86z"/>
					</g>
					<g>
						<polygon class="st4" points="196.49,168.65 196.12,169.05 197.41,170.33 197.85,169.88 						"/>
					</g>
					<g>
						<polygon class="st4" points="197.59,167.24 197.27,167.69 198.75,168.76 199.11,168.25 						"/>
					</g>
					<g>
						<polygon class="st4" points="198.47,165.67 198.23,166.16 199.84,167.01 200.12,166.46 						"/>
					</g>
					<g>
						<polygon class="st4" points="199.13,164 198.96,164.52 200.67,165.13 200.87,164.54 						"/>
					</g>
					<g>
						<path class="st4" d="M199.49,162.28c0,0-0.06,0.52-0.08,0.52l1.8,0.32l0.09-0.63L199.49,162.28z"/>
					</g>
					<g>
						<path class="st4" d="M199.69,160.6c0,0,0.06,0.49,0.05,0.5l1.82-0.1c0.01,0-0.07-0.67-0.07-0.67L199.69,160.6z"/>
					</g>
					<g>
						<path class="st4" d="M199.33,159.22c0,0,0.27,0.33,0.27,0.35l1.44-1.14c0.02-0.01-0.36-0.45-0.36-0.45L199.33,159.22z"/>
					</g>
					<g>
						<path class="st4" d="M197.96,158.4c0.01-0.01,0.64,0.22,0.45,0.16l0.65-1.69c-0.25-0.16-0.56-0.24-0.56-0.22L197.96,158.4z"/>
					</g>
					<g>
						<path class="st4" d="M196.54,158.41c0,0,0.46-0.1,0.45-0.08l-0.21-1.81c-0.01-0.02-0.7,0.13-0.7,0.13L196.54,158.41z"/>
					</g>
					<g>
						<path class="st4" d="M195.03,159.06c0.01-0.02,0.42-0.23,0.42-0.22l-0.75-1.67c-0.01-0.01-0.64,0.32-0.61,0.33L195.03,159.06z
							"/>
					</g>
					<g>
						<polygon class="st4" points="193.66,160.12 194.06,159.77 192.88,158.37 192.4,158.79 						"/>
					</g>
					<g>
						<polygon class="st4" points="192.47,161.45 192.81,161.03 191.41,159.85 191.02,160.33 						"/>
					</g>
					<g>
						<polygon class="st4" points="191.47,162.95 191.75,162.48 190.2,161.51 189.88,162.05 						"/>
					</g>
					<g>
						<polygon class="st4" points="190.69,164.57 190.9,164.07 189.23,163.32 189,163.9 						"/>
					</g>
					<g>
						<path class="st4" d="M190.17,166.27c-0.01,0,0.13-0.52,0.13-0.52l-1.76-0.48l-0.15,0.61L190.17,166.27z"/>
					</g>
					<g>
						<polygon class="st4" points="189.98,167.99 190,167.47 188.17,167.44 188.15,168 						"/>
					</g>
				</g>
			</g>
		</g>
		<path class="st3" d="M190.32,167.65c-0.01-3.02,2.11-6.7,4.76-8.22c1.32-0.76,2.52-0.83,3.38-0.33l0,0l3.33,2.68l-6.71,10.49
			l-2.82-1.33c-0.26-0.07-0.49-0.18-0.71-0.33l-0.1-0.05l0.01-0.02C190.77,169.97,190.33,169,190.32,167.65z"/>
		<g>
			<g>
				<path class="st2" d="M193.73,169.38c0.02,2.82,2,3.96,4.48,2.53c2.44-1.41,4.42-4.84,4.42-7.68c-0.02-2.34-1.41-3.53-3.3-3.01
					c-0.19,0.02-0.36,0.1-0.55,0.19c-0.19,0.06-0.4,0.17-0.61,0.29C195.71,163.13,193.73,166.56,193.73,169.38z"/>
			</g>
		</g>
		<path class="st0" d="M198.78,161.41v3.3l0.55-0.32v-3.16C199.14,161.24,198.97,161.32,198.78,161.41z"/>
	</g>
	<g>
		<g>
			<g>
				<path class="st5" d="M190.37,116.9l10.67-6.29c1.18-0.68,2.13-0.14,2.13,1.21l0.03,9.48c0,1.33-0.94,2.97-2.12,3.65l-10.67,6.29
					c-1.18,0.68-2.13,0.14-2.13-1.19l-0.03-9.48C188.25,119.21,189.2,117.57,190.37,116.9L190.37,116.9z"/>
			</g>
		</g>
		<g>
			<g>
				<path class="st6" d="M191.58,120.83v5.32c0,0.74,0.53,1.04,1.22,0.68l6.53-3.75c0.33-0.18,0.62-0.53,0.83-0.89
					s0.36-0.77,0.36-1.16l-0.03-5.32c0-0.77-0.53-1.07-1.19-0.68l-4.63,2.62l-1.9,1.1C192.11,119.14,191.58,120.06,191.58,120.83z"
					/>
			</g>
		</g>
	</g>
	<g>
		<polygon class="st3" points="182.77,103.63 182.77,225.11 189,221.62 189,100.14 		"/>
		<polygon class="st7" points="182.77,103.63 30.75,16.73 30.75,138.21 182.77,225.11 		"/>
		<polygon class="st2" points="30.75,16.73 36.98,13.25 189,100.14 182.77,103.63 		"/>
	</g>
	<polygon class="st3" points="173.45,109.82 38.47,30.91 38.47,34.06 173.45,112.89 	"/>
	<polygon class="st3" points="173.45,117.15 38.47,38.24 38.47,41.39 173.45,120.22 	"/>
	<polygon class="st3" points="173.45,124.48 38.47,45.56 38.47,48.72 173.45,127.55 	"/>
	<polygon class="st3" points="173.45,131.8 38.47,52.89 38.47,56.05 173.45,134.88 	"/>
	<g>
		<polygon class="st8" points="195.11,179.66 200.26,176.65 200.26,181.01 195.11,183.97 		"/>
		<polygon class="st9" points="198.18,177.91 201.25,177.15 201.25,181.52 198.18,182.22 		"/>
		<polygon class="st10" points="201.25,177.15 200.26,176.65 197.68,178.15 		"/>
	</g>
	<polygon class="st3" points="173.45,98.3 173.45,134.88 177.56,137.2 182.77,103.63 189,100.14 179.61,94.77 	"/>
	<polygon class="st4" points="189,100.14 189,101.99 182.87,105.63 178.08,136.72 177.56,137.2 182.77,103.63 	"/>
	<g>
		<polygon class="st3" points="30.69,14.83 34.25,53.73 38.36,56.06 40.02,20.16 46.25,16.66 36.85,11.29 		"/>
		<polygon class="st4" points="46.25,16.66 46.25,18.52 40.12,22.16 38.88,55.57 38.36,56.06 40.02,20.16 		"/>
	</g>
	<g>
		<polygon class="st0" points="180.92,226.27 180.92,230.08 177.93,228.39 177.93,224.58 		"/>
		<polygon class="st1" points="180.92,226.27 213.53,207.49 213.53,211.29 180.92,230.08 		"/>
		<polygon class="st2" points="213.53,207.49 210.53,205.8 177.93,224.58 180.92,226.27 		"/>
	</g>
</g>
</svg>
