<?xml version="1.0" encoding="utf-8"?>
<!-- Generator: Adobe Illustrator 25.3.1, SVG Export Plug-In . SVG Version: 6.00 Build 0)  -->
<svg version="1.1" id="圖層_1" xmlns="http://www.w3.org/2000/svg" xmlns:xlink="http://www.w3.org/1999/xlink" x="0px" y="0px"
	 viewBox="0 0 240 240" style="enable-background:new 0 0 240 240;" xml:space="preserve">
<style type="text/css">
	.st0{fill:url(#SVGID_1_);}
	.st1{fill:url(#SVGID_2_);}
	.st2{fill:#414E52;}
	.st3{fill:#C5CCD0;}
	.st4{fill:url(#SVGID_3_);}
	.st5{fill:#ACB3B7;}
</style>
<g>
	
		<linearGradient id="SVGID_1_" gradientUnits="userSpaceOnUse" x1="8.6778" y1="65.1967" x2="177.3209" y2="65.1967" gradientTransform="matrix(1 0 0 1 22.9961 0)">
		<stop  offset="0" style="stop-color:#EBEAEB"/>
		<stop  offset="0.8666" style="stop-color:#C6C6C6"/>
		<stop  offset="1" style="stop-color:#B1B1B1"/>
	</linearGradient>
	<polygon class="st0" points="31.67,110.7 41.28,111.89 200.32,19.69 190.72,18.51 	"/>
	
		<linearGradient id="SVGID_2_" gradientUnits="userSpaceOnUse" x1="12.6035" y1="106.6427" x2="15.214" y2="254.2621" gradientTransform="matrix(1 0 0 1 22.9961 0)">
		<stop  offset="0" style="stop-color:#B8B7B8"/>
		<stop  offset="0.3877" style="stop-color:#C0BFC0"/>
		<stop  offset="0.8666" style="stop-color:#939393"/>
		<stop  offset="1" style="stop-color:#7E7E7E"/>
	</linearGradient>
	<polygon class="st1" points="31.67,200.31 41.27,216.27 41.28,111.89 31.67,110.7 	"/>
	<g>
		<path class="st2" d="M36.02,167.62c0,0.67-0.47,0.95-1.06,0.61c-0.58-0.34-1.06-1.16-1.06-1.83c0-0.67,0.47-0.95,1.06-0.61
			C35.54,166.12,36.02,166.94,36.02,167.62z"/>
		<path class="st2" d="M38.12,171.96c0,0.67-0.47,0.95-1.05,0.61c-0.58-0.34-1.06-1.15-1.06-1.83s0.47-0.94,1.06-0.61
			C37.65,170.47,38.12,171.28,38.12,171.96z"/>
		<path class="st2" d="M40.22,170.05c0,0.67-0.47,0.95-1.05,0.61c-0.58-0.34-1.06-1.16-1.06-1.83s0.47-0.95,1.06-0.61
			C39.75,168.56,40.22,169.37,40.22,170.05z"/>
		<path class="st2" d="M36.02,174.08c0,0.67-0.47,0.94-1.06,0.61c-0.58-0.34-1.06-1.16-1.06-1.83c0-0.67,0.47-0.95,1.06-0.61
			C35.54,172.59,36.02,173.41,36.02,174.08z"/>
		<path class="st2" d="M38.12,178.42c0,0.67-0.47,0.95-1.05,0.61c-0.58-0.34-1.06-1.15-1.06-1.83c0-0.67,0.47-0.95,1.06-0.61
			C37.65,176.93,38.12,177.75,38.12,178.42z"/>
		<path class="st2" d="M40.22,176.51c0,0.67-0.47,0.95-1.05,0.61c-0.58-0.34-1.06-1.16-1.06-1.83c0-0.67,0.47-0.95,1.06-0.61
			C39.75,175.02,40.22,175.84,40.22,176.51z"/>
		<path class="st2" d="M36.02,180.54c0,0.67-0.47,0.95-1.06,0.61c-0.58-0.34-1.06-1.15-1.06-1.83c0-0.67,0.47-0.95,1.06-0.61
			C35.54,179.05,36.02,179.87,36.02,180.54z"/>
		<path class="st2" d="M38.12,184.88c0,0.67-0.47,0.95-1.05,0.61c-0.58-0.33-1.06-1.15-1.06-1.83c0-0.67,0.47-0.95,1.06-0.61
			C37.65,183.39,38.12,184.21,38.12,184.88z"/>
		<path class="st2" d="M40.22,182.97c0,0.67-0.47,0.95-1.05,0.61c-0.58-0.34-1.06-1.15-1.06-1.83c0-0.67,0.47-0.95,1.06-0.61
			C39.75,181.48,40.22,182.3,40.22,182.97z"/>
		<path class="st2" d="M36.02,187.01c0,0.67-0.47,0.95-1.06,0.61c-0.58-0.34-1.06-1.15-1.06-1.83c0-0.67,0.47-0.94,1.06-0.61
			C35.54,185.52,36.02,186.33,36.02,187.01z"/>
		<path class="st2" d="M38.12,191.35c0,0.67-0.47,0.95-1.05,0.61c-0.58-0.34-1.06-1.16-1.06-1.83s0.47-0.95,1.06-0.61
			C37.65,189.86,38.12,190.68,38.12,191.35z"/>
		<path class="st2" d="M40.22,189.44c0,0.67-0.47,0.95-1.05,0.61c-0.58-0.33-1.06-1.15-1.06-1.83c0-0.67,0.47-0.95,1.06-0.61
			C39.75,187.94,40.22,188.77,40.22,189.44z"/>
		<path class="st2" d="M36.02,193.47c0,0.67-0.47,0.94-1.06,0.61c-0.58-0.33-1.06-1.15-1.06-1.83c0-0.67,0.47-0.94,1.06-0.61
			C35.54,191.98,36.02,192.8,36.02,193.47z"/>
		<path class="st2" d="M38.12,197.81c0,0.67-0.47,0.95-1.05,0.61c-0.58-0.34-1.06-1.16-1.06-1.83c0-0.67,0.47-0.95,1.05-0.61
			C37.65,196.32,38.12,197.14,38.12,197.81z"/>
		<path class="st2" d="M40.22,195.9c0,0.67-0.47,0.95-1.05,0.61c-0.58-0.34-1.06-1.15-1.06-1.83c0-0.67,0.47-0.95,1.06-0.61
			C39.75,194.41,40.22,195.23,40.22,195.9z"/>
		<path class="st2" d="M36.02,199.93c0,0.67-0.47,0.95-1.06,0.61c-0.58-0.34-1.06-1.16-1.06-1.83c0-0.67,0.47-0.94,1.06-0.61
			C35.54,198.44,36.02,199.26,36.02,199.93z"/>
		<path class="st2" d="M40.22,202.37c0,0.67-0.47,0.95-1.05,0.61c-0.58-0.34-1.06-1.16-1.06-1.83c0-0.67,0.47-0.95,1.06-0.61
			C39.75,200.87,40.22,201.69,40.22,202.37z"/>
	</g>
	<path class="st3" d="M41.28,98.33l0,130.91l8.01,4.63l0-121.66C49.29,107.1,45.7,100.88,41.28,98.33z"/>
	
		<linearGradient id="SVGID_3_" gradientUnits="userSpaceOnUse" x1="73.3418" y1="68.7834" x2="81.0264" y2="82.0936" gradientTransform="matrix(1 0 0 1 22.9961 0)">
		<stop  offset="0" style="stop-color:#E7EEF2"/>
		<stop  offset="0.2914" style="stop-color:#EDF4F7"/>
		<stop  offset="1" style="stop-color:#D4DADD"/>
	</linearGradient>
	<path class="st4" d="M200.32,6.14L41.28,98.33c4.42,2.55,8.01,8.77,8.01,13.87l0,121.66l159.04-92.19l0-121.66
		C208.33,14.9,204.74,8.69,200.32,6.14z"/>
	<path class="st2" d="M198.99,15.15c0.33,0.52,0.63,1.06,0.91,1.6l-5.3,3.06c-0.28-0.55-0.58-1.08-0.91-1.6L198.99,15.15z
		 M201.73,23.55v1.87l-5.15,2.97v-1.3c0-0.26-0.02-0.54-0.04-0.81l5.18-2.99C201.72,23.39,201.73,23.47,201.73,23.55z M67.49,97.55
		l5.26-3.03c0.18,0.64,0.31,1.27,0.4,1.9l-5.21,3.01C67.83,98.8,67.68,98.18,67.49,97.55z M67.02,99.95l-5.21,3.01
		c-0.11-0.62-0.25-1.24-0.44-1.87l5.26-3.03C66.81,98.69,66.94,99.32,67.02,99.95z M73.61,94.02l5.26-3.03
		c0.18,0.64,0.31,1.27,0.39,1.9l-5.21,3.01C73.94,95.27,73.8,94.65,73.61,94.02z M79.73,90.49l5.26-3.04
		c0.18,0.64,0.31,1.27,0.39,1.9l-5.21,3.01C80.06,91.74,79.92,91.11,79.73,90.49z M85.85,86.96l5.27-3.04
		c0.18,0.64,0.3,1.27,0.39,1.9l-5.22,3.01C86.18,88.21,86.03,87.58,85.85,86.96z M91.97,83.42l5.27-3.04
		c0.18,0.64,0.3,1.27,0.39,1.9L92.4,85.3C92.3,84.68,92.15,84.05,91.97,83.42z M98.09,79.89l5.27-3.04c0.18,0.64,0.3,1.27,0.39,1.9
		l-5.21,3.01C98.42,81.14,98.27,80.52,98.09,79.89z M104.21,76.36l5.27-3.04c0.17,0.64,0.3,1.27,0.38,1.9l-5.22,3.01
		C104.54,77.61,104.39,76.98,104.21,76.36z M110.33,72.82l5.27-3.04c0.18,0.64,0.3,1.28,0.38,1.91l-5.22,3.01
		C110.66,74.08,110.51,73.45,110.33,72.82z M116.45,69.29l5.27-3.04c0.17,0.64,0.3,1.28,0.38,1.91l-5.22,3.01
		C116.78,70.55,116.63,69.92,116.45,69.29z M122.57,65.76l5.27-3.04c0.17,0.64,0.3,1.28,0.38,1.91L123,67.63
		C122.9,67.01,122.75,66.38,122.57,65.76z M128.69,62.22l5.27-3.04c0.17,0.64,0.3,1.28,0.38,1.91l-5.22,3.01
		C129.02,63.48,128.87,62.85,128.69,62.22z M134.81,58.69l5.27-3.04c0.17,0.64,0.3,1.28,0.38,1.91l-5.21,3.01
		C135.14,59.95,134.99,59.32,134.81,58.69z M140.93,55.15l5.27-3.04c0.17,0.64,0.29,1.28,0.37,1.91l-5.22,3.01
		C141.25,56.41,141.11,55.79,140.93,55.15z M147.05,51.62l5.27-3.04c0.17,0.64,0.29,1.28,0.37,1.91l-5.22,3.01
		C147.37,52.88,147.23,52.25,147.05,51.62z M153.17,48.09l5.27-3.04c0.17,0.64,0.29,1.28,0.37,1.91l-5.21,3.01
		C153.49,49.35,153.35,48.72,153.17,48.09z M159.29,44.55l5.27-3.04c0.17,0.64,0.29,1.28,0.37,1.91l-5.22,3.01
		C159.61,45.81,159.47,45.19,159.29,44.55z M165.41,41.02l5.27-3.04c0.17,0.64,0.29,1.28,0.37,1.91l-5.22,3.01
		C165.73,42.28,165.59,41.65,165.41,41.02z M171.53,37.49l5.27-3.04c0.17,0.64,0.29,1.28,0.37,1.92l-5.22,3.01
		C171.85,38.75,171.71,38.12,171.53,37.49z M177.65,33.95l5.27-3.04c0.17,0.64,0.29,1.28,0.36,1.92l-5.22,3.01
		C177.97,35.22,177.83,34.59,177.65,33.95z M183.77,30.42l5.27-3.04c0.17,0.64,0.29,1.29,0.36,1.92l-5.22,3.01
		C184.09,31.68,183.95,31.05,183.77,30.42z M189.89,26.89l5.27-3.04c0.17,0.64,0.29,1.28,0.36,1.92l-5.21,3.01
		C190.21,28.15,190.07,27.52,189.89,26.89z M189.6,25.94c-0.2-0.58-0.43-1.16-0.7-1.72l5.29-3.05c0.26,0.57,0.49,1.15,0.68,1.73
		L189.6,25.94z M188.76,26.42l-5.28,3.05c-0.2-0.58-0.43-1.16-0.69-1.72l5.29-3.05C188.33,25.26,188.56,25.84,188.76,26.42z
		 M182.64,29.96l-5.28,3.05c-0.2-0.58-0.43-1.16-0.7-1.72l5.29-3.05C182.21,28.8,182.44,29.38,182.64,29.96z M176.52,33.49
		l-5.28,3.05c-0.2-0.58-0.44-1.16-0.7-1.72l5.29-3.05C176.09,32.33,176.32,32.91,176.52,33.49z M170.39,37.02l-5.28,3.05
		c-0.2-0.58-0.44-1.16-0.7-1.72l5.29-3.05C169.97,35.87,170.2,36.44,170.39,37.02z M164.27,40.56l-5.28,3.05
		c-0.2-0.58-0.44-1.15-0.7-1.72l5.29-3.05C163.84,39.4,164.08,39.98,164.27,40.56z M158.15,44.09l-5.28,3.05
		c-0.2-0.58-0.44-1.15-0.7-1.72l5.29-3.05C157.72,42.94,157.96,43.51,158.15,44.09z M152.03,47.63l-5.28,3.05
		c-0.2-0.58-0.44-1.15-0.7-1.72l5.29-3.05C151.6,46.47,151.84,47.04,152.03,47.63z M145.91,51.16l-5.28,3.05
		c-0.2-0.58-0.44-1.15-0.7-1.72l5.29-3.06C145.48,50,145.72,50.58,145.91,51.16z M139.79,54.69l-5.28,3.05
		c-0.2-0.58-0.44-1.15-0.7-1.72l5.29-3.05C139.36,53.54,139.6,54.11,139.79,54.69z M133.67,58.23l-5.28,3.05
		c-0.2-0.58-0.44-1.15-0.7-1.72l5.29-3.05C133.24,57.07,133.47,57.65,133.67,58.23z M127.55,61.76l-5.28,3.05
		c-0.2-0.58-0.44-1.15-0.7-1.72l5.29-3.05C127.12,60.61,127.35,61.18,127.55,61.76z M121.43,65.29l-5.28,3.05
		c-0.21-0.58-0.44-1.15-0.71-1.72l5.29-3.06C120.99,64.14,121.23,64.72,121.43,65.29z M115.31,68.83l-5.28,3.05
		c-0.21-0.58-0.44-1.15-0.71-1.72l5.29-3.06C114.87,67.67,115.11,68.25,115.31,68.83z M109.18,72.36l-5.28,3.05
		c-0.2-0.58-0.44-1.15-0.71-1.72l5.29-3.06C108.75,71.21,108.99,71.78,109.18,72.36z M103.06,75.9l-5.28,3.05
		c-0.2-0.58-0.44-1.15-0.71-1.72l5.29-3.05C102.63,74.74,102.87,75.32,103.06,75.9z M96.94,79.43l-5.28,3.05
		c-0.21-0.58-0.44-1.15-0.71-1.72l5.29-3.05C96.5,78.28,96.75,78.85,96.94,79.43z M90.82,82.97l-5.28,3.05
		c-0.21-0.58-0.44-1.15-0.71-1.72l5.29-3.05C90.38,81.81,90.62,82.39,90.82,82.97z M84.7,86.5l-5.27,3.05
		c-0.21-0.58-0.45-1.15-0.71-1.72L84,84.78C84.26,85.35,84.5,85.92,84.7,86.5z M78.58,90.03l-5.28,3.05
		c-0.21-0.58-0.44-1.15-0.71-1.71l5.29-3.05C78.14,88.88,78.38,89.45,78.58,90.03z M72.46,93.57l-5.28,3.05
		c-0.21-0.58-0.45-1.15-0.71-1.71l5.29-3.05C72.02,92.42,72.26,92.99,72.46,93.57z M66.34,97.1l-5.28,3.05
		c-0.21-0.58-0.45-1.15-0.72-1.71l5.29-3.05C65.89,95.95,66.14,96.52,66.34,97.1z M60.21,100.64l-5.28,3.05
		c-0.21-0.58-0.45-1.15-0.72-1.71l5.29-3.05C59.77,99.48,60.01,100.06,60.21,100.64z M60.51,101.59c0.18,0.64,0.31,1.27,0.4,1.9
		l-5.21,3.01c-0.11-0.62-0.25-1.25-0.44-1.87L60.51,101.59z M61.01,104.54c0.01,0.19,0.03,0.38,0.03,0.57v1.54l-5.15,2.97v-0.97
		c0-0.37-0.02-0.75-0.05-1.13L61.01,104.54z M61.95,104l5.17-2.99c0.01,0.19,0.03,0.37,0.03,0.56v1.55L62,106.09v-0.98
		C62,104.74,61.99,104.37,61.95,104z M68.07,100.46l5.17-2.99c0.01,0.18,0.03,0.36,0.03,0.54v1.57l-5.15,2.97v-1
		C68.12,101.2,68.1,100.84,68.07,100.46z M74.19,96.93l5.17-2.99c0.01,0.18,0.03,0.36,0.03,0.53v1.58l-5.15,2.97v-1.01
		C74.24,97.66,74.22,97.3,74.19,96.93z M80.31,93.4l5.17-2.99c0.01,0.17,0.03,0.35,0.03,0.51v1.6l-5.15,2.97v-1.02
		C80.36,94.12,80.34,93.76,80.31,93.4z M86.42,89.87l5.17-2.99c0.01,0.17,0.03,0.34,0.03,0.5v1.61l-5.15,2.97v-1.04
		C86.47,90.58,86.45,90.23,86.42,89.87z M92.54,86.34l5.17-2.99c0.01,0.16,0.02,0.33,0.02,0.49v1.62l-5.15,2.97v-1.05
		C92.59,87.04,92.57,86.69,92.54,86.34z M98.66,82.81l5.17-2.99c0.01,0.16,0.02,0.32,0.02,0.47v1.64l-5.15,2.97v-1.07
		C98.71,83.5,98.69,83.15,98.66,82.81z M104.78,79.27l5.17-2.99c0.01,0.15,0.02,0.31,0.02,0.46v1.65l-5.15,2.97v-1.08
		C104.83,79.96,104.8,79.62,104.78,79.27z M110.89,75.74l5.18-2.99c0.01,0.15,0.02,0.3,0.02,0.44v1.67l-5.15,2.97v-1.1
		C110.94,76.41,110.92,76.08,110.89,75.74z M117.01,72.21l5.17-2.99c0.01,0.14,0.02,0.29,0.02,0.43v1.68l-5.15,2.97V73.2
		C117.06,72.87,117.04,72.54,117.01,72.21z M123.13,68.68l5.18-2.99c0,0.14,0.02,0.28,0.02,0.42v1.7l-5.15,2.97v-1.12
		C123.17,69.33,123.15,69.01,123.13,68.68z M129.24,65.15l5.18-2.99c0.01,0.13,0.02,0.27,0.02,0.4v1.71l-5.15,2.97v-1.14
		C129.29,65.79,129.27,65.47,129.24,65.15z M135.36,61.61l5.17-2.99c0.01,0.13,0.02,0.26,0.02,0.39v1.73l-5.15,2.97v-1.15
		C135.41,62.25,135.39,61.93,135.36,61.61z M141.48,58.08l5.18-2.99c0,0.12,0.02,0.25,0.02,0.37v1.74l-5.15,2.97v-1.17
		C141.53,58.71,141.5,58.39,141.48,58.08z M147.6,54.55l5.18-2.99c0,0.12,0.02,0.24,0.02,0.36v1.76l-5.15,2.97v-1.18
		C147.64,55.17,147.62,54.86,147.6,54.55z M153.72,51.02l5.17-2.99c0,0.12,0.02,0.23,0.02,0.35v1.77l-5.15,2.97v-1.2
		C153.76,51.62,153.74,51.32,153.72,51.02z M159.83,47.49l5.17-2.99c0,0.11,0.02,0.22,0.02,0.33v1.78l-5.15,2.97v-1.21
		C159.88,48.08,159.86,47.78,159.83,47.49z M165.95,43.95l5.18-2.99c0,0.11,0.01,0.21,0.01,0.32v1.8l-5.15,2.97v-1.22
		C165.99,44.54,165.97,44.25,165.95,43.95z M172.07,40.42l5.17-2.99c0,0.1,0.01,0.2,0.01,0.3v1.81l-5.15,2.97v-1.24
		C172.11,41,172.09,40.71,172.07,40.42z M178.19,36.89l5.17-2.99c0,0.1,0.01,0.19,0.01,0.29v1.83l-5.15,2.97v-1.25
		C178.23,37.46,178.21,37.17,178.19,36.89z M184.3,33.36l5.18-2.99c0,0.09,0.01,0.18,0.01,0.27v1.84l-5.15,2.97v-1.27
		C184.34,33.92,184.33,33.64,184.3,33.36z M190.42,29.83l5.17-2.99c0,0.09,0.01,0.18,0.01,0.26v1.86l-5.15,2.97v-1.28
		C190.46,30.38,190.44,30.1,190.42,29.83z M196.42,25.24c-0.09-0.62-0.23-1.25-0.41-1.89l5.27-3.04c0.17,0.65,0.29,1.29,0.36,1.92
		L196.42,25.24z M195.72,22.4c-0.2-0.58-0.43-1.16-0.69-1.73l5.29-3.05c0.26,0.57,0.49,1.15,0.68,1.73L195.72,22.4z M192.86,18.68
		c0.33,0.52,0.63,1.05,0.91,1.6l-5.3,3.06c-0.28-0.54-0.58-1.08-0.91-1.6L192.86,18.68z M186.74,22.22c0.33,0.51,0.63,1.05,0.91,1.6
		l-5.3,3.06c-0.28-0.54-0.58-1.08-0.91-1.6L186.74,22.22z M180.62,25.75c0.33,0.52,0.63,1.05,0.91,1.6l-5.3,3.06
		c-0.28-0.54-0.58-1.08-0.91-1.6L180.62,25.75z M174.49,29.29c0.33,0.52,0.63,1.05,0.91,1.6l-5.3,3.06
		c-0.28-0.54-0.58-1.08-0.91-1.6L174.49,29.29z M168.37,32.83c0.33,0.51,0.63,1.05,0.92,1.6l-5.3,3.06
		c-0.28-0.54-0.58-1.08-0.92-1.6L168.37,32.83z M162.24,36.36c0.33,0.51,0.63,1.05,0.92,1.6l-5.3,3.06
		c-0.28-0.54-0.58-1.08-0.92-1.6L162.24,36.36z M156.12,39.9c0.33,0.51,0.64,1.05,0.92,1.6l-5.3,3.06c-0.28-0.54-0.58-1.08-0.92-1.6
		L156.12,39.9z M150,43.43c0.33,0.51,0.64,1.05,0.92,1.6l-5.3,3.06c-0.29-0.54-0.58-1.08-0.92-1.6L150,43.43z M143.87,46.97
		c0.33,0.51,0.64,1.05,0.92,1.59l-5.3,3.06c-0.28-0.54-0.59-1.08-0.92-1.59L143.87,46.97z M137.75,50.5
		c0.33,0.51,0.64,1.05,0.92,1.59l-5.3,3.06c-0.29-0.54-0.59-1.08-0.92-1.59L137.75,50.5z M131.63,54.04
		c0.34,0.51,0.64,1.05,0.92,1.59l-5.3,3.06c-0.29-0.54-0.59-1.08-0.92-1.59L131.63,54.04z M125.51,57.57
		c0.33,0.51,0.64,1.05,0.92,1.59l-5.3,3.06c-0.29-0.54-0.59-1.08-0.92-1.59L125.51,57.57z M119.38,61.11
		c0.34,0.51,0.64,1.05,0.92,1.59l-5.3,3.06c-0.29-0.54-0.59-1.08-0.92-1.59L119.38,61.11z M113.26,64.64
		c0.33,0.51,0.64,1.05,0.92,1.59l-5.3,3.06c-0.29-0.54-0.59-1.08-0.92-1.59L113.26,64.64z M107.13,68.18
		c0.34,0.51,0.64,1.05,0.92,1.59l-5.3,3.06c-0.29-0.54-0.59-1.08-0.93-1.59L107.13,68.18z M101.01,71.71
		c0.34,0.51,0.64,1.05,0.93,1.59l-5.3,3.06c-0.29-0.54-0.59-1.08-0.93-1.59L101.01,71.71z M94.88,75.25
		c0.34,0.51,0.64,1.05,0.93,1.59l-5.3,3.06c-0.29-0.54-0.59-1.08-0.93-1.59L94.88,75.25z M88.76,78.79
		c0.34,0.51,0.64,1.05,0.93,1.59l-5.29,3.06c-0.29-0.54-0.59-1.08-0.93-1.59L88.76,78.79z M82.64,82.32
		c0.34,0.51,0.64,1.05,0.93,1.59l-5.29,3.05c-0.29-0.54-0.6-1.07-0.93-1.59L82.64,82.32z M76.51,85.86
		c0.34,0.51,0.64,1.05,0.93,1.59l-5.29,3.05c-0.29-0.54-0.6-1.07-0.94-1.59L76.51,85.86z M70.39,89.39
		c0.34,0.51,0.64,1.05,0.93,1.59l-5.29,3.05c-0.29-0.54-0.6-1.07-0.94-1.58L70.39,89.39z M64.27,92.93
		c0.34,0.51,0.64,1.04,0.93,1.59l-5.29,3.05c-0.29-0.54-0.6-1.07-0.94-1.58L64.27,92.93z M58.14,96.46
		c0.34,0.51,0.65,1.04,0.93,1.59l-5.29,3.05c-0.29-0.54-0.6-1.07-0.94-1.58L58.14,96.46z M55.89,112.87v-2.13l5.15-2.97v2.12
		L55.89,112.87z M62,109.34v-2.13l5.15-2.97v2.12L62,109.34z M68.12,105.8v-2.12l5.15-2.97v2.12L68.12,105.8z M74.24,102.27v-2.12
		l5.15-2.97v2.13L74.24,102.27z M80.36,98.74v-2.12l5.15-2.97v2.13L80.36,98.74z M86.47,95.21v-2.12l5.15-2.97v2.13L86.47,95.21z
		 M92.59,91.68v-2.12l5.15-2.97v2.13L92.59,91.68z M98.71,88.15v-2.12l5.15-2.97v2.13L98.71,88.15z M104.83,84.61v-2.13l5.15-2.97
		v2.13L104.83,84.61z M110.94,81.08v-2.13l5.15-2.97v2.13L110.94,81.08z M117.06,77.55v-2.13l5.15-2.97v2.13L117.06,77.55z
		 M123.17,74.02v-2.13l5.15-2.97v2.13L123.17,74.02z M129.29,70.49v-2.12l5.15-2.97v2.12L129.29,70.49z M135.41,66.96v-2.13
		l5.15-2.97v2.13L135.41,66.96z M141.53,63.43V61.3l5.15-2.97v2.12L141.53,63.43z M147.64,59.89v-2.13l5.15-2.97v2.12L147.64,59.89z
		 M153.76,56.36v-2.13l5.15-2.97v2.13L153.76,56.36z M159.88,52.83v-2.13l5.15-2.97v2.13L159.88,52.83z M165.99,49.3v-2.13
		l5.15-2.97v2.12L165.99,49.3z M172.11,45.77v-2.13l5.15-2.97v2.12L172.11,45.77z M178.23,42.24v-2.13l5.15-2.97v2.12L178.23,42.24z
		 M184.34,38.71v-2.13l5.15-2.97v2.13L184.34,38.71z M190.46,35.17v-2.12l5.15-2.97v2.13L190.46,35.17z M196.58,31.64v-2.12
		l5.15-2.97v2.13L196.58,31.64z"/>
	<polygon class="st5" points="184.89,149.45 202.77,139.15 202.78,135.94 184.89,146.25 	"/>
</g>
</svg>
