<?xml version="1.0" encoding="utf-8"?>
<!-- Generator: Adobe Illustrator 25.3.1, SVG Export Plug-In . SVG Version: 6.00 Build 0)  -->
<svg version="1.1" id="圖層_1" xmlns="http://www.w3.org/2000/svg" xmlns:xlink="http://www.w3.org/1999/xlink" x="0px" y="0px"
	 viewBox="0 0 240 240" style="enable-background:new 0 0 240 240;" xml:space="preserve">
<style type="text/css">
	.st0{fill:#919191;}
	.st1{fill:#E5E5E5;}
	.st2{fill:#C7C7C7;}
	.st3{fill:#A6A6A6;}
	.st4{fill:#E0EDF2;}
	.st5{fill:#AFE2E3;}
	.st6{fill:#FFFFFF;}
	.st7{fill:#E4F0E9;}
	.st8{fill:#5EA687;}
	.st9{fill:#477D64;}
	.st10{fill:#71C7A1;}
	.st11{fill:#CAF0ED;}
	.st12{fill:#4C9EA6;}
	.st13{fill:#39777D;}
	.st14{fill:#5BBEC7;}
	.st15{fill:#FAFAFA;}
	.st16{opacity:0.5;}
	.st17{fill:#ADDCE3;}
	.st18{opacity:0.75;clip-path:url(#SVGID_2_);}
</style>
<g>
	<g>
		<polygon class="st0" points="69.3,212.11 159.34,166.85 137.1,11.11 47.06,56.36 		"/>
		<polygon class="st1" points="184.33,187.98 192.94,183.68 192.94,38.59 184.33,42.9 		"/>
		<polygon class="st2" points="128.49,161.24 184.33,187.98 184.33,43.62 128.49,16.16 		"/>
		<polygon class="st3" points="47.66,184.65 66.64,175.05 71.07,172.74 93.38,183.43 150.73,154.42 184.33,171.22 103.5,212.4 
			47.66,184.95 47.95,184.8 		"/>
		<g>
			<g>
				<path class="st4" d="M172.99,169.87L172.99,169.87v-12.55c-0.11-2.24-3.09-12.99-3.09-12.99h-5.54c0,0-3.09,10.28-3.09,12.99
					v12.97h0.07c0.18,0.6,0.72,1.18,1.65,1.65c2.29,1.14,6,1.14,8.28,0c0.93-0.46,1.47-1.04,1.65-1.65h0.07V169.87z"/>
				<g>
					<path class="st5" d="M169.9,141.73h-5.54v2.6h0.01c0.06,0.31,0.33,0.61,0.8,0.84c1.08,0.54,2.83,0.54,3.91,0
						c0.47-0.24,0.73-0.54,0.79-0.84h0.02V141.73z"/>
					<path class="st6" d="M169.09,140.82c-1.08-0.54-2.83-0.54-3.91,0c-1.08,0.54-1.08,1.42,0,1.96c1.08,0.54,2.83,0.54,3.91,0
						C170.17,142.24,170.17,141.37,169.09,140.82z"/>
				</g>
				<path class="st5" d="M172.99,164.42v-4.16c0,0.75-0.57,1.5-1.72,2.07c-2.29,1.14-6,1.14-8.28,0c-1.14-0.57-1.72-1.32-1.72-2.07
					v4.16l0,0c0,0.75,0.57,1.5,1.72,2.07c2.29,1.14,6,1.14,8.28,0C172.41,165.92,172.99,165.17,172.99,164.42z"/>
			</g>
			<g>
				<polygon class="st7" points="151.77,164.63 141.49,159.49 151.77,154.35 162.05,159.49 				"/>
				<polygon class="st8" points="162.05,173.32 151.77,178.46 151.77,164.63 162.05,159.49 				"/>
				<polygon class="st9" points="160.42,164.67 153.4,168.18 153.4,167.35 160.42,163.84 				"/>
				<polygon class="st9" points="160.42,166.51 153.4,170.02 153.4,169.19 160.42,165.68 				"/>
				<polygon class="st10" points="151.77,178.46 141.49,173.32 141.49,159.49 151.77,164.63 				"/>
				<polygon class="st7" points="150.2,168.03 143.19,164.52 143.19,163.69 150.2,167.2 				"/>
				<polygon class="st7" points="150.2,169.59 143.19,166.08 143.19,165.25 150.2,168.76 				"/>
				<polygon class="st7" points="150.2,171.15 143.19,167.64 143.19,166.81 150.2,170.32 				"/>
			</g>
			<g>
				<path class="st4" d="M157.63,182.76L157.63,182.76v-12.55c-0.11-2.24-3.09-7.44-3.09-7.44H149c0,0-3.09,4.73-3.09,7.44v12.97
					h0.07c0.18,0.6,0.72,1.18,1.65,1.65c2.29,1.14,6,1.14,8.28,0c0.93-0.46,1.47-1.04,1.65-1.65h0.07V182.76z"/>
				<g>
					<path class="st5" d="M154.54,160.17H149v2.6h0.01c0.06,0.31,0.33,0.61,0.8,0.84c1.08,0.54,2.83,0.54,3.91,0
						c0.47-0.24,0.73-0.54,0.79-0.84h0.02V160.17z"/>
					<path class="st6" d="M153.73,159.27c-1.08-0.54-2.83-0.54-3.91,0c-1.08,0.54-1.08,1.42,0,1.96c1.08,0.54,2.83,0.54,3.91,0
						S154.81,159.81,153.73,159.27z"/>
				</g>
				<path class="st5" d="M157.63,177.31v-4.16c0,0.75-0.57,1.5-1.72,2.07c-2.29,1.14-6,1.14-8.28,0c-1.14-0.57-1.72-1.32-1.72-2.07
					v4.16l0,0c0,0.75,0.57,1.5,1.72,2.07c2.29,1.14,6,1.14,8.28,0C157.06,178.81,157.63,178.06,157.63,177.31z"/>
			</g>
			<g>
				<polygon class="st11" points="127.24,169.84 113.13,162.79 127.24,155.74 141.34,162.79 				"/>
				<polygon class="st12" points="141.34,181.76 127.24,188.82 127.24,169.84 141.34,162.79 				"/>
				<polygon class="st13" points="139.11,169.89 129.47,174.71 129.47,173.57 139.11,168.75 				"/>
				<polygon class="st13" points="139.11,172.43 129.47,177.24 129.47,176.1 139.11,171.29 				"/>
				<polygon class="st14" points="127.24,188.82 113.13,181.76 113.13,162.79 127.24,169.84 				"/>
				<polygon class="st11" points="125.09,174.51 115.46,169.69 115.46,168.55 125.09,173.36 				"/>
				<polygon class="st11" points="125.09,176.65 115.46,171.83 115.46,170.69 125.09,175.51 				"/>
				<polygon class="st11" points="125.09,178.79 115.46,173.97 115.46,172.83 125.09,177.65 				"/>
			</g>
			<g>
				<path class="st4" d="M116.78,193.11L116.78,193.11v-14.82c-0.13-2.65-3.65-15.34-3.65-15.34h-6.54c0,0-3.65,12.14-3.65,15.34
					v15.32h0.08c0.21,0.71,0.85,1.4,1.95,1.95c2.7,1.35,7.08,1.35,9.78,0c1.1-0.55,1.74-1.23,1.95-1.95h0.08V193.11z"/>
				<g>
					<path class="st5" d="M113.13,159.88h-6.54v3.07h0.02c0.07,0.36,0.38,0.72,0.94,1c1.28,0.64,3.35,0.64,4.62,0
						c0.56-0.28,0.87-0.63,0.94-1h0.02V159.88z"/>
					<path class="st6" d="M112.17,158.81c-1.28-0.64-3.35-0.64-4.62,0c-1.28,0.64-1.28,1.67,0,2.31s3.35,0.64,4.62,0
						C113.45,160.48,113.45,159.45,112.17,158.81z"/>
				</g>
				<path class="st5" d="M116.78,186.68v-4.91c0,0.89-0.67,1.77-2.03,2.45c-2.7,1.35-7.08,1.35-9.78,0
					c-1.35-0.67-2.03-1.56-2.03-2.45v4.91l0,0c0,0.89,0.68,1.77,2.03,2.45c2.7,1.35,7.08,1.35,9.78,0
					C116.1,188.45,116.78,187.56,116.78,186.68z"/>
			</g>
		</g>
		<polygon class="st3" points="69.9,153.31 150.73,112.42 184.33,129.22 103.5,170.4 47.66,142.95 47.96,142.8 		"/>
		<g>
			<g>
				<polygon class="st11" points="147.37,116.92 133.26,109.87 147.37,102.81 161.48,109.87 				"/>
				<polygon class="st12" points="161.48,128.84 147.37,135.89 147.37,116.92 161.48,109.87 				"/>
				<polygon class="st13" points="159.24,116.97 149.61,121.79 149.61,120.65 159.24,115.83 				"/>
				<polygon class="st13" points="159.24,119.5 149.61,124.32 149.61,123.18 159.24,118.36 				"/>
				<polygon class="st14" points="147.37,135.89 133.26,128.84 133.26,109.87 147.37,116.92 				"/>
				<polygon class="st11" points="145.22,121.58 135.59,116.77 135.59,115.62 145.22,120.44 				"/>
				<polygon class="st11" points="145.22,123.72 135.59,118.91 135.59,117.76 145.22,122.58 				"/>
				<polygon class="st11" points="145.22,125.86 135.59,121.05 135.59,119.91 145.22,124.72 				"/>
			</g>
			<g>
				<path class="st4" d="M175.75,126.55L175.75,126.55V114c-0.11-2.24-3.09-12.99-3.09-12.99h-5.54c0,0-3.09,10.28-3.09,12.99v12.97
					h0.07c0.18,0.6,0.72,1.18,1.65,1.65c2.29,1.14,6,1.14,8.28,0c0.93-0.46,1.47-1.05,1.65-1.65h0.07V126.55z"/>
				<g>
					<path class="st5" d="M172.66,98.41h-5.54v2.6h0.01c0.06,0.31,0.33,0.61,0.8,0.84c1.08,0.54,2.83,0.54,3.91,0
						c0.47-0.24,0.73-0.54,0.79-0.84h0.02V98.41z"/>
					<ellipse class="st6" cx="169.9" cy="98.48" rx="2.77" ry="1.38"/>
				</g>
				<path class="st5" d="M175.75,121.1v-4.16c0,0.75-0.57,1.5-1.72,2.07c-2.29,1.14-6,1.14-8.28,0c-1.14-0.57-1.72-1.32-1.72-2.07
					v4.16l0,0c0,0.75,0.57,1.5,1.72,2.07c2.29,1.14,6,1.14,8.28,0C175.18,122.6,175.75,121.85,175.75,121.1z"/>
			</g>
			<g>
				<polygon class="st7" points="136.03,130.65 125.75,125.51 136.03,120.37 146.31,125.51 				"/>
				<polygon class="st8" points="146.31,139.33 136.03,144.47 136.03,130.65 146.31,125.51 				"/>
				<polygon class="st9" points="144.68,130.69 137.66,134.2 137.66,133.36 144.68,129.85 				"/>
				<polygon class="st9" points="144.68,132.53 137.66,136.04 137.66,135.21 144.68,131.7 				"/>
				<polygon class="st10" points="136.03,144.47 125.75,139.33 125.75,125.51 136.03,130.65 				"/>
				<polygon class="st7" points="134.47,134.05 127.45,130.54 127.45,129.7 134.47,133.21 				"/>
				<polygon class="st7" points="134.47,135.61 127.45,132.1 127.45,131.26 134.47,134.77 				"/>
				<polygon class="st7" points="134.47,137.16 127.45,133.66 127.45,132.82 134.47,136.33 				"/>
			</g>
			<g>
				<path class="st4" d="M125.86,148.05L125.86,148.05V135.5c-0.11-2.24-3.09-7.44-3.09-7.44h-5.54c0,0-3.09,4.73-3.09,7.44v12.97
					h0.07c0.18,0.6,0.72,1.18,1.65,1.65c2.29,1.14,6,1.14,8.28,0c0.93-0.46,1.47-1.04,1.65-1.65h0.07V148.05z"/>
				<g>
					<path class="st5" d="M122.77,125.45h-5.54v2.6h0.01c0.06,0.31,0.33,0.61,0.8,0.84c1.08,0.54,2.83,0.54,3.91,0
						c0.47-0.24,0.73-0.54,0.79-0.84h0.02V125.45z"/>
					<ellipse class="st6" cx="120" cy="125.53" rx="2.77" ry="1.38"/>
				</g>
				<path class="st5" d="M125.86,142.6v-4.16c0,0.75-0.57,1.5-1.72,2.07c-2.29,1.14-6,1.14-8.28,0c-1.14-0.57-1.72-1.32-1.72-2.07
					v4.16l0,0c0,0.75,0.57,1.5,1.72,2.07c2.29,1.14,6,1.14,8.28,0C125.28,144.1,125.86,143.35,125.86,142.6z"/>
			</g>
		</g>
		<polygon class="st3" points="69.9,111.4 150.73,70.51 184.33,87.31 103.5,128.49 47.66,101.04 47.95,100.89 		"/>
		<polygon class="st1" points="102.9,228.89 111.51,224.58 111.51,79.5 102.9,83.8 		"/>
		<polygon class="st1" points="102.9,87.22 192.93,41.97 192.93,38.59 102.9,83.84 		"/>
		<polygon class="st15" points="102.9,83.8 47.06,56.34 137.1,11.11 192.93,38.57 		"/>
		<polygon class="st1" points="102.9,228.89 184.33,187.94 184.33,171.29 102.9,212.24 		"/>
		<polygon class="st1" points="102.9,173.77 184.33,132.83 184.33,129.45 102.9,170.4 		"/>
		<polygon class="st1" points="102.9,131.96 184.33,91.01 184.33,87.64 102.9,128.58 		"/>
		<g>
			<polygon class="st11" points="164.65,72.57 151.95,66.22 164.65,59.87 177.35,66.22 			"/>
			<polygon class="st12" points="177.35,83.31 164.65,89.66 164.65,72.57 177.35,66.22 			"/>
			<polygon class="st13" points="175.34,72.62 166.67,76.96 166.67,75.93 175.34,71.59 			"/>
			<polygon class="st13" points="175.34,74.9 166.67,79.24 166.67,78.21 175.34,73.87 			"/>
			<polygon class="st14" points="164.65,89.66 151.95,83.31 151.95,66.22 164.65,72.57 			"/>
			<polygon class="st11" points="162.72,76.77 154.04,72.43 154.04,71.41 162.72,75.74 			"/>
			<polygon class="st11" points="162.72,78.7 154.04,74.36 154.04,73.33 162.72,77.67 			"/>
			<polygon class="st11" points="162.72,80.63 154.04,76.29 154.04,75.26 162.72,79.6 			"/>
		</g>
		<g>
			<polygon class="st7" points="154.44,84.93 145.19,80.31 154.44,75.68 163.7,80.31 			"/>
			<polygon class="st8" points="163.7,92.75 154.44,97.38 154.44,84.93 163.7,80.31 			"/>
			<polygon class="st9" points="162.23,84.97 155.91,88.13 155.91,87.38 162.23,84.22 			"/>
			<polygon class="st9" points="162.23,86.63 155.91,89.79 155.91,89.04 162.23,85.88 			"/>
			<polygon class="st10" points="154.44,97.38 145.19,92.75 145.19,80.31 154.44,84.93 			"/>
			<polygon class="st7" points="153.03,87.99 146.71,84.83 146.71,84.08 153.03,87.24 			"/>
			<polygon class="st7" points="153.03,89.4 146.71,86.24 146.71,85.49 153.03,88.65 			"/>
			<polygon class="st7" points="153.03,90.8 146.71,87.64 146.71,86.89 153.03,90.05 			"/>
		</g>
		<polygon class="st2" points="47.06,201.43 102.9,228.89 102.9,83.8 47.06,56.34 		"/>
		<g>
			<polygon class="st11" points="132.25,88.28 118.14,81.22 132.25,74.17 146.35,81.22 			"/>
			<polygon class="st12" points="146.35,100.2 132.25,107.25 132.25,88.28 146.35,81.22 			"/>
			<polygon class="st13" points="144.11,88.33 134.48,93.15 134.48,92 144.11,87.19 			"/>
			<polygon class="st13" points="144.11,90.86 134.48,95.68 134.48,94.54 144.11,89.72 			"/>
			<polygon class="st14" points="132.25,107.25 118.14,100.2 118.14,81.22 132.25,88.28 			"/>
			<polygon class="st11" points="130.1,92.94 120.46,88.12 120.46,86.98 130.1,91.8 			"/>
			<polygon class="st11" points="130.1,95.08 120.46,90.26 120.46,89.12 130.1,93.94 			"/>
			<polygon class="st11" points="130.1,97.22 120.46,92.4 120.46,91.26 130.1,96.08 			"/>
		</g>
		<g>
			<polygon class="st7" points="120.91,102.01 110.63,96.87 120.91,91.73 131.18,96.87 			"/>
			<polygon class="st8" points="131.18,110.69 120.91,115.83 120.91,102.01 131.18,96.87 			"/>
			<polygon class="st9" points="129.55,102.04 122.54,105.55 122.54,104.72 129.55,101.21 			"/>
			<polygon class="st9" points="129.55,103.89 122.54,107.4 122.54,106.57 129.55,103.06 			"/>
			<polygon class="st10" points="120.91,115.83 110.63,110.69 110.63,96.87 120.91,102.01 			"/>
			<polygon class="st7" points="119.34,105.4 112.32,101.89 112.32,101.06 119.34,104.57 			"/>
			<polygon class="st7" points="119.34,106.96 112.32,103.45 112.32,102.62 119.34,106.13 			"/>
			<polygon class="st7" points="119.34,108.52 112.32,105.01 112.32,104.18 119.34,107.69 			"/>
		</g>
	</g>
	<g class="st16">
		<polygon class="st17" points="109.31,84.1 186.52,45.31 186.52,169.75 109.31,208.52 		"/>
		<g>
			<defs>
				<polygon id="SVGID_1_" points="109.31,84.1 186.52,45.31 186.52,169.75 109.31,208.52 				"/>
			</defs>
			<use xlink:href="#SVGID_1_"  style="overflow:visible;fill:#A3F3FF;"/>
			<clipPath id="SVGID_2_">
				<use xlink:href="#SVGID_1_"  style="overflow:visible;"/>
			</clipPath>
			<g class="st18">
				<polygon class="st6" points="253.02,11.79 37.49,170.25 36.47,166.42 252,7.95 				"/>
				<polygon class="st6" points="260.38,39.43 44.86,197.9 44.26,195.64 259.78,37.17 				"/>
				<polygon class="st6" points="261.66,44.22 46.13,202.69 45.53,200.43 261.06,41.97 				"/>
				<polygon class="st6" points="265.97,60.4 50.45,218.87 48.68,212.25 264.21,53.78 				"/>
			</g>
		</g>
	</g>
</g>
</svg>
