<?xml version="1.0" encoding="utf-8"?>
<!-- Generator: Adobe Illustrator 25.3.1, SVG Export Plug-In . SVG Version: 6.00 Build 0)  -->
<svg version="1.1" id="圖層_1" xmlns="http://www.w3.org/2000/svg" xmlns:xlink="http://www.w3.org/1999/xlink" x="0px" y="0px"
	 viewBox="0 0 240 240" style="enable-background:new 0 0 240 240;" xml:space="preserve">
<style type="text/css">
	.st0{fill:#2E383B;}
	.st1{fill:#485255;}
	.st2{fill:#3B4548;}
	.st3{fill:#212B2E;}
	.st4{fill:url(#SVGID_1_);}
	.st5{fill:url(#SVGID_2_);}
	.st6{fill:#BDD3DE;}
	.st7{fill:url(#SVGID_3_);}
	.st8{fill:url(#SVGID_4_);}
	.st9{fill:url(#SVGID_5_);}
	.st10{fill:url(#SVGID_6_);}
	.st11{fill:url(#SVGID_7_);}
	.st12{fill:url(#SVGID_8_);}
	.st13{fill:url(#SVGID_9_);}
	.st14{fill:url(#SVGID_10_);}
	.st15{fill:#222C2F;}
	.st16{fill:#151F22;}
	.st17{fill:#A70000;}
	.st18{fill:#DA2F30;}
	.st19{fill:#A80000;}
	.st20{fill:#C01617;}
	.st21{fill:#5B686C;}
</style>
<g>
	<g>
		<polygon class="st0" points="109.72,217.89 201.81,164.72 201.81,161.58 184.01,166.22 127.52,198.83 109.72,214.75 		"/>
		<polygon class="st1" points="89.58,176.73 127.52,198.83 184.01,166.22 146.07,144.11 		"/>
		<polygon class="st2" points="163.87,139.48 201.81,161.58 184.01,166.22 146.07,144.11 		"/>
		<polygon class="st2" points="89.58,176.73 127.52,198.83 109.72,214.75 71.78,192.65 		"/>
		<polygon class="st0" points="71.78,195.12 109.72,217.89 109.72,214.75 71.78,192.65 		"/>
		<g>
			<polygon class="st3" points="126.46,139.86 126.46,179.51 152.48,164.49 152.48,124.84 			"/>
			<polygon class="st0" points="118.79,135.43 126.46,139.86 126.46,179.51 118.79,175.08 			"/>
		</g>
	</g>
	
		<linearGradient id="SVGID_1_" gradientUnits="userSpaceOnUse" x1="-1796.0013" y1="25.0176" x2="-1833.1753" y2="89.4047" gradientTransform="matrix(-1 0 0 1 -1599.3643 0)">
		<stop  offset="0" style="stop-color:#464F52"/>
		<stop  offset="0.0495" style="stop-color:#7C8487"/>
		<stop  offset="0.0727" style="stop-color:#5C6466"/>
		<stop  offset="0.8666" style="stop-color:#1A1F21"/>
		<stop  offset="1" style="stop-color:#2E383B"/>
	</linearGradient>
	<path class="st4" d="M222.46,94.6c0.01-10.63-2.41-21.64-6.85-32.46c-4.28-10.83-10.54-21.37-18.71-31
		c-0.7-0.83-1.83-1.74-3.17-1.58l-7.35,0.9c-0.31,0.04-0.56,0.13-0.77,0.25l0-0.01l12.67-7.29c0.24-0.19,0.55-0.33,0.97-0.38
		l7.35-0.9c1.34-0.17,2.47,0.75,3.17,1.58c8.17,9.63,14.43,20.17,18.71,31c4.44,10.82,6.86,21.82,6.85,32.46
		c0,0.71-0.19,1.51-0.89,1.92l-12.63,7.27C222.31,95.92,222.46,95.22,222.46,94.6z"/>
	<path class="st0" d="M184.71,32.64c0-0.92,0.32-2,1.67-2.17l7.35-0.9c1.34-0.17,2.47,0.75,3.17,1.58
		c8.17,9.63,14.43,20.17,18.71,31c4.44,10.82,6.86,21.83,6.85,32.46c0,0.92-0.32,2.01-1.66,2.17l-7.35,0.9
		c-1.34,0.16-2.47-0.75-3.17-1.58c-8.17-9.63-14.43-20.17-18.71-31C187.12,54.28,184.7,43.27,184.71,32.64z"/>
	
		<linearGradient id="SVGID_2_" gradientUnits="userSpaceOnUse" x1="-1699.8474" y1="82.1614" x2="-1735.5911" y2="144.0713" gradientTransform="matrix(-1 0 0 1 -1599.3643 0)">
		<stop  offset="0" style="stop-color:#B3B3B3"/>
		<stop  offset="0.0346" style="stop-color:#CAC9CA"/>
		<stop  offset="0.0595" style="stop-color:#DEDDDE"/>
		<stop  offset="0.8666" style="stop-color:#B9B9B9"/>
		<stop  offset="1" style="stop-color:#A4A4A4"/>
	</linearGradient>
	<path class="st5" d="M41.95,197.22c0-10.22-2.32-20.81-6.59-31.21c-4.12-10.42-10.14-20.55-17.99-29.81
		c-0.68-0.8-1.76-1.67-3.05-1.52l-7.07,0.87c-0.3,0.04-0.54,0.12-0.74,0.24l0-0.02L185.42,32.48c0.23-0.19,0.54-0.32,0.93-0.37
		l7.07-0.86c1.29-0.16,2.37,0.72,3.05,1.52c7.85,9.26,13.87,19.39,17.99,29.81c4.27,10.4,6.59,20.99,6.59,31.21
		c0,0.68-0.18,1.45-0.85,1.85L41.32,198.91C41.81,198.49,41.95,197.82,41.95,197.22z"/>
	<path class="st6" d="M5.65,137.64c0-0.88,0.31-1.93,1.6-2.09l7.07-0.87c1.29-0.16,2.37,0.72,3.05,1.52
		c7.85,9.26,13.87,19.39,17.99,29.81c4.26,10.4,6.59,20.98,6.59,31.21c0,0.88-0.31,1.93-1.6,2.09l-7.07,0.87
		c-1.29,0.16-2.37-0.72-3.05-1.52c-7.85-9.26-13.87-19.39-17.99-29.81C7.97,158.45,5.64,147.86,5.65,137.64z"/>
	
		<linearGradient id="SVGID_3_" gradientUnits="userSpaceOnUse" x1="-1717.3966" y1="88.4764" x2="-1718.8823" y2="91.0497" gradientTransform="matrix(-1 0 0 1 -1599.3643 0)">
		<stop  offset="0.2121" style="stop-color:#DEDDDE"/>
		<stop  offset="1" style="stop-color:#A4A4A4"/>
	</linearGradient>
	<path class="st7" d="M203.77,42.4L35.26,139.69l0-3.43l166.82-96.31C202.66,40.77,203.22,41.58,203.77,42.4z"/>
	
		<linearGradient id="SVGID_4_" gradientUnits="userSpaceOnUse" x1="-1722.3521" y1="96.2988" x2="-1723.837" y2="98.871" gradientTransform="matrix(-1 0 0 1 -1599.3643 0)">
		<stop  offset="0.2121" style="stop-color:#DEDDDE"/>
		<stop  offset="1" style="stop-color:#A4A4A4"/>
	</linearGradient>
	<path class="st8" d="M208.63,50.29L40.31,147.46v-3.43l166.84-96.32C207.65,48.57,208.14,49.42,208.63,50.29z"/>
	
		<linearGradient id="SVGID_5_" gradientUnits="userSpaceOnUse" x1="-1734.4406" y1="125.2348" x2="-1735.9257" y2="127.807" gradientTransform="matrix(-1 0 0 1 -1599.3643 0)">
		<stop  offset="0.2121" style="stop-color:#DEDDDE"/>
		<stop  offset="1" style="stop-color:#A4A4A4"/>
	</linearGradient>
	<path class="st9" d="M219.67,79.82L52.61,176.27v-3.43l166.41-96.07C219.26,77.79,219.48,78.8,219.67,79.82z"/>
	
		<linearGradient id="SVGID_6_" gradientUnits="userSpaceOnUse" x1="-1735.2236" y1="132.2502" x2="-1736.7083" y2="134.8216" gradientTransform="matrix(-1 0 0 1 -1599.3643 0)">
		<stop  offset="0.2121" style="stop-color:#DEDDDE"/>
		<stop  offset="1" style="stop-color:#A4A4A4"/>
	</linearGradient>
	<path class="st10" d="M220.68,86.71L52.91,183.57l0-3.43L220.29,83.5C220.45,84.57,220.58,85.64,220.68,86.71z"/>
	
		<linearGradient id="SVGID_7_" gradientUnits="userSpaceOnUse" x1="-1615.9705" y1="128.9699" x2="-1653.144" y2="193.3565" gradientTransform="matrix(-1 0 0 1 -1599.3643 0)">
		<stop  offset="0" style="stop-color:#464F52"/>
		<stop  offset="0.0495" style="stop-color:#7C8487"/>
		<stop  offset="0.0727" style="stop-color:#5C6466"/>
		<stop  offset="0.8666" style="stop-color:#1A1F21"/>
		<stop  offset="1" style="stop-color:#2E383B"/>
	</linearGradient>
	<path class="st11" d="M42.43,198.56c0.01-10.63-2.41-21.64-6.85-32.46c-4.28-10.83-10.55-21.37-18.71-31
		c-0.7-0.83-1.83-1.74-3.17-1.58l-7.35,0.9c-0.31,0.04-0.56,0.13-0.77,0.25l0-0.02l12.67-7.29c0.24-0.19,0.55-0.33,0.97-0.38
		l7.35-0.9c1.34-0.17,2.47,0.74,3.17,1.58c8.17,9.63,14.43,20.17,18.71,31c4.44,10.81,6.86,21.83,6.85,32.46
		c0,0.71-0.19,1.51-0.89,1.92l-12.63,7.27C42.28,199.87,42.43,199.18,42.43,198.56z"/>
	<path class="st0" d="M4.68,136.59c0-0.92,0.32-2.01,1.66-2.17l7.35-0.9c1.34-0.17,2.47,0.75,3.17,1.58
		c8.17,9.63,14.43,20.17,18.71,31c4.44,10.82,6.86,21.83,6.85,32.46c0,0.92-0.32,2-1.66,2.17l-7.35,0.9
		c-1.34,0.16-2.47-0.75-3.17-1.58c-8.17-9.63-14.43-20.17-18.71-31C7.09,158.23,4.67,147.22,4.68,136.59z"/>
	
		<linearGradient id="SVGID_8_" gradientUnits="userSpaceOnUse" x1="-1710.7914" y1="85.9508" x2="-1740.9315" y2="138.1551" gradientTransform="matrix(-1 0 0 1 -1599.3643 0)">
		<stop  offset="0" style="stop-color:#E34100"/>
		<stop  offset="0.4973" style="stop-color:#FFDE38"/>
		<stop  offset="1" style="stop-color:#FF530E"/>
	</linearGradient>
	<path class="st12" d="M73.79,177.18c-0.21-9.75-2.51-19.79-6.57-29.68c-3.7-9.37-8.95-18.5-15.68-26.98l126.64-73.01
		c6.72,8.48,11.96,17.61,15.67,26.97c4.06,9.89,6.35,19.94,6.57,29.7L73.79,177.18z"/>
	
		<linearGradient id="SVGID_9_" gradientUnits="userSpaceOnUse" x1="-1781.1055" y1="79.074" x2="-1793.7083" y2="74.033" gradientTransform="matrix(-1 0 0 1 -1599.3643 0)">
		<stop  offset="0" style="stop-color:#F16425"/>
		<stop  offset="1" style="stop-color:#BD4813"/>
	</linearGradient>
	<path class="st13" d="M178.18,47.52c6.72,8.48,11.96,17.61,15.67,26.97c4.06,9.89,6.35,19.94,6.57,29.7l-2.29,1.32
		c-8.08-9.57-14.28-20.03-18.53-30.78c-3.31-8.08-5.5-16.27-6.39-24.33L178.18,47.52z"/>
	
		<linearGradient id="SVGID_10_" gradientUnits="userSpaceOnUse" x1="-1725.3734" y1="104.7671" x2="-1730.4281" y2="113.5221" gradientTransform="matrix(-1 0 0 1 -1599.3643 0)">
		<stop  offset="0" style="stop-color:#FF530E"/>
		<stop  offset="0.4973" style="stop-color:#FFDE38"/>
		<stop  offset="1" style="stop-color:#FF530E"/>
	</linearGradient>
	<path class="st14" d="M186.73,70.41c0.64-0.36,1.51-0.31,2.48,0.25c1.94,1.12,3.51,3.85,3.51,6.09c0,1.13-0.4,1.92-1.04,2.28
		l-123.6,70.66c-0.28-0.73-0.56-1.45-0.86-2.18c-0.93-2.35-1.96-4.7-3.09-7.02L186.73,70.41z"/>
	<path class="st0" d="M190.5,78c0-2.24-1.57-4.97-3.51-6.09c-0.91-0.52-1.72-0.6-2.35-0.31c0.05-0.04,0.09-0.07,0.14-0.1l1.95-1.1
		c0.64-0.36,1.51-0.31,2.48,0.25c1.94,1.12,3.51,3.85,3.51,6.09c0,1.13-0.4,1.92-1.04,2.28l-1.95,1.1
		c-0.04,0.02-0.08,0.04-0.12,0.06C190.16,79.78,190.5,79.04,190.5,78z"/>
	<polygon class="st15" points="39.64,196.8 40.31,196.78 15.61,138.38 14.94,138.4 	"/>
	<polygon class="st15" points="38.18,184.14 38.85,184.13 24.13,149.68 23.47,149.7 	"/>
	<polygon class="st15" points="22.8,185.95 23.47,185.94 8.75,151.49 8.08,151.51 	"/>
	<polygon class="st15" points="31.39,198.65 32.06,198.64 7.36,140.24 6.69,140.26 	"/>
	<polygon class="st15" points="23.88,177.51 29.62,176.27 20.61,154.42 14.87,155.67 	"/>
	<polygon class="st16" points="28.2,175.52 19.99,155.61 16.3,156.42 24.5,176.32 	"/>
	<path class="st17" d="M28.2,175.52l-1.18-0.34c0,0-2.1-6.26-4.55-8.45l1.33-1.88L28.2,175.52z"/>
	<polygon class="st18" points="18.81,167.54 22.47,166.74 23.8,164.86 20.14,165.66 	"/>
	<polygon class="st19" points="24.5,176.32 28.2,175.52 27.02,175.19 23.36,175.99 	"/>
	<path class="st20" d="M22.47,166.74c2.29,2.04,4.27,7.65,4.52,8.37l0.03,0.08l-3.66,0.8c0,0-2.1-6.26-4.55-8.45L22.47,166.74z"/>
	<path d="M192.61,108.68l0.81-0.47l2.11-2.77l2.11,0.34l0.5-0.29l-2.36-0.38l4.35-5.73c-0.02-0.18-0.03-0.36-0.05-0.54l-4.72,6.2
		l-5.28-0.85l5.44-7.15l4.44,0.71c-0.02-0.12-0.03-0.25-0.04-0.38l-4.15-0.66l3.38-4.44c-0.03-0.16-0.06-0.32-0.09-0.48l-3.69,4.85
		l-5.28-0.84l5.44-7.15l2.98,0.48c-0.03-0.13-0.06-0.25-0.09-0.38l-2.64-0.42l1.91-2.51c-0.04-0.15-0.08-0.3-0.12-0.44l-2.2,2.89
		l-5.28-0.84l5.44-7.15l0.5,0.08c-0.04-0.13-0.09-0.26-0.13-0.39l-0.12-0.02l0.08-0.1c-0.05-0.14-0.1-0.27-0.14-0.41l-0.34,0.45
		l-5.28-0.84l3.65-4.8c-0.05-0.13-0.11-0.26-0.16-0.39l-3.9,5.13l-5.28-0.84l5.44-7.15l2.72,0.43c-0.06-0.13-0.11-0.26-0.17-0.4
		l-2.31-0.37l1.34-1.76c-0.06-0.12-0.12-0.25-0.18-0.37l-1.57,2.06l-5.28-0.84l4.5-5.91c-0.06-0.12-0.13-0.23-0.19-0.35l-4.71,6.19
		l-5.28-0.84l5.44-7.15l3.92,0.63c-0.07-0.13-0.15-0.27-0.23-0.4l-3.44-0.55l1.77-2.32c-0.07-0.11-0.14-0.22-0.2-0.33l-1.97,2.59
		l-5.28-0.85l4.54-5.97c-0.07-0.11-0.14-0.21-0.21-0.32l-4.74,6.23l-5.28-0.85l5.44-7.15l3.78,0.6c-0.1-0.14-0.19-0.27-0.29-0.41
		l-3.24-0.52l1.47-1.93c-0.08-0.1-0.15-0.2-0.23-0.3l-1.65,2.16l-5.28-0.84l0.88-1.15l-0.81,0.47l-0.47,0.62L172.14,51l-0.5,0.29
		l0.72,0.12l-5.44,7.15l-5.28-0.84l0.89-1.17l-0.81,0.47l-0.48,0.64l-0.48-0.08l-0.5,0.29l0.73,0.12l-5.44,7.15l-5.28-0.85l0.9-1.19
		l-0.81,0.47l-0.49,0.65l-0.5-0.08l-0.5,0.29l0.75,0.12l-5.44,7.15l-5.28-0.84l0.91-1.2l-0.81,0.47l-0.51,0.67l-0.51-0.08l-0.5,0.29
		l0.76,0.12l-5.44,7.15l-5.28-0.84l0.93-1.22l-0.82,0.47l-0.52,0.68l-0.52-0.08l-0.5,0.29l0.77,0.12l-5.44,7.15l-5.28-0.85
		l0.94-1.23l-0.81,0.47l-0.53,0.7l-0.53-0.09l-0.5,0.29l0.78,0.13l-5.44,7.15l-5.28-0.84l0.95-1.25l-0.81,0.47l-0.54,0.71
		l-0.54-0.09l-0.5,0.29l0.8,0.13l-5.44,7.15l-5.28-0.84l0.96-1.27l-0.81,0.47l-0.56,0.73l-0.56-0.09l-0.5,0.29l0.81,0.13l-5.44,7.15
		l-5.28-0.85l0.98-1.28l-0.81,0.47l-0.57,0.75l-0.57-0.09l-0.5,0.29l0.82,0.13l-5.44,7.15l-5.28-0.85l0.99-1.3l-0.81,0.47
		l-0.58,0.77l-0.58-0.09l-0.5,0.29l0.83,0.13l-5.44,7.15l-5.28-0.84l1-1.32l-0.82,0.47l-0.59,0.78l-0.59-0.1l-0.5,0.29l0.85,0.13
		l-4.81,6.32c0.08,0.1,0.15,0.2,0.23,0.3l4.99-6.56l5.28,0.85l-5.44,7.15l-4.29-0.69c0.1,0.14,0.2,0.28,0.3,0.42l3.74,0.6
		l-1.74,2.29c0.07,0.11,0.14,0.21,0.21,0.32l1.94-2.54l5.28,0.84l-4.53,5.96c0.06,0.11,0.13,0.23,0.2,0.34l4.74-6.23l5.28,0.84
		l-5.44,7.15l-3.91-0.63c0.08,0.13,0.15,0.27,0.23,0.4l3.43,0.55l-1.81,2.38c0.06,0.12,0.12,0.24,0.19,0.36l2.04-2.68l5.28,0.85
		l-4.98,6.55c0.06,0.12,0.11,0.25,0.17,0.38l5.22-6.86l5.28,0.85l-5.44,7.15l-4.91-0.79c0.06,0.13,0.12,0.26,0.18,0.4l4.48,0.72
		l-2.69,3.53c0.05,0.13,0.1,0.26,0.16,0.39l2.93-3.86l5.28,0.84l-5.44,7.15l-1.29-0.21c0.05,0.13,0.09,0.26,0.14,0.39l0.9,0.14
		l-0.58,0.77c0.05,0.14,0.09,0.28,0.14,0.42l0.86-1.12l5.28,0.85l-4.47,5.87c0.04,0.15,0.08,0.3,0.12,0.45l4.76-6.26l5.28,0.85
		l-5.44,7.15l-4.33-0.69c0.03,0.13,0.06,0.26,0.09,0.38l3.99,0.64l-3.02,3.98c0.03,0.16,0.06,0.32,0.09,0.49l3.35-4.4l5.28,0.84
		l-5.44,7.15l-2.71-0.43c0.02,0.13,0.04,0.25,0.05,0.38l2.41,0.39l-2.09,2.74c0.02,0.18,0.03,0.36,0.05,0.54l2.45-3.21l5.28,0.84
		l-2.39,3.14l0.82-0.47l1.98-2.61l1.99,0.32l0.5-0.29l-2.24-0.36l5.44-7.15l5.28,0.85l-2.4,3.16l0.82-0.47l1.99-2.62l2,0.32
		l0.5-0.29l-2.25-0.36l5.44-7.15l5.28,0.85l-2.41,3.17l0.81-0.47l2.01-2.64l2.01,0.32l0.5-0.29l-2.26-0.36l5.44-7.15l5.28,0.85
		l-2.43,3.19l0.81-0.47l2.02-2.66l2.03,0.32l0.5-0.29l-2.28-0.36l5.44-7.15l5.28,0.84l-2.44,3.21l0.81-0.47l2.03-2.67l2.04,0.33
		l0.5-0.29l-2.29-0.36l5.44-7.15l5.28,0.84l-2.45,3.22l0.81-0.47l2.04-2.69l2.05,0.33l0.5-0.29l-2.3-0.37l5.44-7.15l5.28,0.84
		l-2.46,3.24l0.81-0.47l2.06-2.71l2.06,0.33l0.5-0.29l-2.31-0.37l5.44-7.15l5.28,0.84l-2.48,3.26l0.81-0.47l2.07-2.72l2.07,0.33
		l0.5-0.29l-2.33-0.37l5.44-7.15l5.28,0.84l-2.49,3.27l0.81-0.47l2.08-2.74l2.09,0.33l0.5-0.29l-2.34-0.37l5.44-7.15l5.28,0.84
		l-2.5,3.29l0.81-0.47l2.1-2.75l2.1,0.34l0.5-0.29l-2.35-0.38l5.44-7.15l5.28,0.85L192.61,108.68z M178.71,110.77l5.44-7.15
		l5.28,0.84l-5.44,7.15L178.71,110.77z M98.81,123.53l5.28,0.84l-5.44,7.15l-5.28-0.84L98.81,123.53z M92.96,130.62l-5.28-0.85
		l5.44-7.15l5.28,0.84L92.96,130.62z M104.5,124.44l5.28,0.84l-5.44,7.15l-5.28-0.84L104.5,124.44z M99.06,123.2l5.44-7.15
		l5.28,0.84l-5.44,7.15L99.06,123.2z M110.18,116.96l5.28,0.84l-5.44,7.15l-5.28-0.85L110.18,116.96z M115.87,117.87l5.28,0.84
		l-5.44,7.15l-5.28-0.84L115.87,117.87z M110.44,116.63l5.44-7.15l5.28,0.85l-5.44,7.15L110.44,116.63z M121.57,110.39l5.28,0.85
		l-5.44,7.15l-5.28-0.84L121.57,110.39z M127.26,111.3l5.28,0.84l-5.44,7.15l-5.28-0.85L127.26,111.3z M121.81,110.06l5.44-7.15
		l5.28,0.84l-5.44,7.15L121.81,110.06z M132.94,103.82l5.28,0.84l-5.44,7.15l-5.28-0.84L132.94,103.82z M138.63,104.73l5.28,0.84
		l-5.44,7.15l-5.28-0.84L138.63,104.73z M133.19,103.49l5.44-7.15l5.28,0.84l-5.44,7.15L133.19,103.49z M144.32,97.25l5.28,0.84
		l-5.44,7.15l-5.28-0.84L144.32,97.25z M150.01,98.16l5.28,0.84l-5.44,7.15l-5.28-0.84L150.01,98.16z M144.57,96.92l5.44-7.15
		l5.28,0.84l-5.44,7.15L144.57,96.92z M155.7,90.68l5.28,0.84l-5.44,7.15l-5.28-0.84L155.7,90.68z M155.95,90.35l5.44-7.15
		l5.28,0.84l-5.44,7.15L155.95,90.35z M161.39,91.59l5.28,0.85l-5.44,7.15l-5.28-0.85L161.39,91.59z M167.08,92.5l5.28,0.85
		l-5.44,7.15l-5.28-0.85L167.08,92.5z M166.68,100.83l-5.44,7.15l-5.28-0.84l5.44-7.15L166.68,100.83z M155.55,107.07l-5.28-0.84
		l5.44-7.15l5.28,0.84L155.55,107.07z M155.3,107.39l-5.44,7.15l-5.28-0.85l5.44-7.15L155.3,107.39z M144.17,113.64l-5.28-0.84
		l5.44-7.15l5.28,0.85L144.17,113.64z M143.92,113.96l-5.44,7.15l-5.28-0.84l5.44-7.15L143.92,113.96z M132.79,120.21l-5.28-0.85
		l5.44-7.15l5.28,0.84L132.79,120.21z M132.54,120.53l-5.44,7.15l-5.28-0.84l5.44-7.15L132.54,120.53z M121.41,126.78l-5.28-0.84
		l5.44-7.15l5.28,0.84L121.41,126.78z M121.16,127.1l-5.44,7.15l-5.28-0.85l5.44-7.15L121.16,127.1z M110.03,133.35l-5.28-0.84
		l5.44-7.15l5.28,0.84L110.03,133.35z M109.78,133.67l-5.44,7.15l-5.28-0.84l5.44-7.15L109.78,133.67z M98.65,139.91l-5.28-0.84
		l5.44-7.15l5.28,0.84L98.65,139.91z M98.4,140.24l-5.44,7.15l-5.28-0.84l5.44-7.15L98.4,140.24z M92.96,139.01l-5.28-0.85
		l5.44-7.15l5.28,0.84L92.96,139.01z M87.27,138.1l-5.28-0.85l5.44-7.15l5.28,0.85L87.27,138.1z M87.27,129.71l-5.28-0.85l5.44-7.15
		l5.28,0.84L87.27,129.71z M87.68,121.38l5.44-7.15l5.28,0.84l-5.44,7.15L87.68,121.38z M98.81,115.14l5.28,0.84l-5.44,7.15
		l-5.28-0.84L98.81,115.14z M99.05,114.81l5.44-7.15l5.28,0.84l-5.44,7.15L99.05,114.81z M110.19,108.57l5.28,0.84l-5.44,7.15
		l-5.28-0.84L110.19,108.57z M110.44,108.24l5.44-7.15l5.28,0.84l-5.44,7.15L110.44,108.24z M121.57,102l5.28,0.85l-5.44,7.15
		l-5.28-0.84L121.57,102z M121.81,101.67l5.44-7.15l5.28,0.84l-5.44,7.15L121.81,101.67z M132.94,95.43l5.28,0.84l-5.44,7.15
		l-5.28-0.84L132.94,95.43z M133.19,95.1l5.44-7.15l5.28,0.85l-5.44,7.15L133.19,95.1z M144.32,88.86l5.28,0.84l-5.44,7.15
		l-5.28-0.84L144.32,88.86z M144.57,88.53l5.44-7.15l5.28,0.84l-5.44,7.15L144.57,88.53z M155.7,82.29l5.28,0.84l-5.44,7.15
		l-5.28-0.84L155.7,82.29z M155.95,81.96l5.44-7.15l5.28,0.85l-5.44,7.15L155.95,81.96z M167.08,75.72l5.28,0.85l-5.44,7.15
		l-5.28-0.85L167.08,75.72z M167.08,84.11l5.28,0.84l-5.44,7.15l-5.28-0.84L167.08,84.11z M172.77,85.02l5.28,0.84l-5.44,7.15
		l-5.28-0.84L172.77,85.02z M172.77,93.41l5.28,0.84l-5.44,7.15l-5.28-0.85L172.77,93.41z M178.46,94.32l5.28,0.84l-5.44,7.15
		l-5.28-0.84L178.46,94.32z M178.06,102.64l-5.44,7.15l-5.28-0.84l5.44-7.15L178.06,102.64z M166.93,108.89l-5.28-0.84l5.44-7.15
		l5.28,0.84L166.93,108.89z M166.68,109.21l-5.44,7.15l-5.28-0.84l5.44-7.15L166.68,109.21z M155.55,115.45l-5.28-0.84l5.44-7.15
		l5.28,0.84L155.55,115.45z M155.3,115.78l-5.44,7.15l-5.28-0.85l5.44-7.15L155.3,115.78z M144.17,122.03l-5.28-0.84l5.44-7.15
		l5.28,0.85L144.17,122.03z M143.92,122.35l-5.44,7.15l-5.28-0.84l5.44-7.15L143.92,122.35z M132.79,128.6l-5.28-0.84l5.44-7.15
		l5.28,0.84L132.79,128.6z M132.54,128.92l-5.44,7.15l-5.28-0.85l5.44-7.15L132.54,128.92z M121.41,135.16l-5.28-0.84l5.44-7.15
		l5.28,0.84L121.41,135.16z M121.16,135.49l-5.44,7.15l-5.28-0.85l5.44-7.15L121.16,135.49z M110.03,141.74l-5.28-0.84l5.44-7.15
		l5.28,0.85L110.03,141.74z M109.78,142.06l-5.44,7.15l-5.28-0.84l5.44-7.15L109.78,142.06z M98.65,148.3l-5.28-0.84l5.44-7.15
		l5.28,0.84L98.65,148.3z M98.4,148.63l-5.44,7.15l-5.28-0.84l5.44-7.15L98.4,148.63z M87.27,154.88l-5.28-0.85l5.44-7.15l5.28,0.84
		L87.27,154.88z M87.27,146.49l-5.28-0.84l5.44-7.15l5.28,0.84L87.27,146.49z M81.58,145.58l-5.28-0.84l5.44-7.15l5.28,0.84
		L81.58,145.58z M81.58,137.19l-5.28-0.84l5.44-7.15l5.28,0.85L81.58,137.19z M81.58,128.8l-5.28-0.84l5.44-7.15l5.28,0.84
		L81.58,128.8z M75.89,127.89l-5.28-0.84l5.44-7.15l5.28,0.84L75.89,127.89z M76.3,119.56l5.44-7.15l5.28,0.85l-5.44,7.15
		L76.3,119.56z M87.43,113.32l5.28,0.85l-5.44,7.15l-5.28-0.84L87.43,113.32z M87.68,112.99l5.44-7.15l5.28,0.84l-5.44,7.15
		L87.68,112.99z M98.81,106.75l5.28,0.85l-5.44,7.15l-5.29-0.84L98.81,106.75z M99.05,106.42l5.44-7.15l5.28,0.84l-5.44,7.15
		L99.05,106.42z M110.19,100.18l5.28,0.84l-5.44,7.15l-5.28-0.84L110.19,100.18z M110.44,99.85l5.44-7.15l5.28,0.85l-5.44,7.15
		L110.44,99.85z M121.57,93.61l5.28,0.84l-5.44,7.15l-5.28-0.85L121.57,93.61z M121.81,93.28l5.44-7.15l5.28,0.84l-5.44,7.15
		L121.81,93.28z M132.94,87.04l5.28,0.84l-5.44,7.15l-5.28-0.84L132.94,87.04z M133.19,86.71l5.44-7.15l5.28,0.84l-5.44,7.15
		L133.19,86.71z M144.32,80.47l5.28,0.84l-5.44,7.15l-5.28-0.84L144.32,80.47z M144.57,80.14l5.44-7.15l5.28,0.84l-5.44,7.15
		L144.57,80.14z M155.7,73.9l5.28,0.85l-5.44,7.15l-5.28-0.84L155.7,73.9z M155.95,73.58l5.44-7.15l5.28,0.84l-5.44,7.15
		L155.95,73.58z M167.08,67.33l5.28,0.84l-5.44,7.15l-5.28-0.84L167.08,67.33z M172.77,68.24l5.28,0.85l-5.44,7.15l-5.28-0.84
		L172.77,68.24z M172.77,76.63l5.28,0.84l-5.44,7.15l-5.28-0.84L172.77,76.63z M178.46,77.54l5.28,0.84l-5.44,7.15l-5.28-0.84
		L178.46,77.54z M178.46,85.93l5.28,0.85l-5.44,7.15l-5.28-0.85L178.46,85.93z M184.15,86.84l5.28,0.85l-5.44,7.15l-5.28-0.84
		L184.15,86.84z M184.15,95.23l5.28,0.84l-5.44,7.15l-5.28-0.84L184.15,95.23z M178.31,110.7l-5.28-0.84l5.44-7.15l5.28,0.84
		L178.31,110.7z M167.33,117.34l5.44-7.15l5.28,0.84l-5.44,7.15L167.33,117.34z M166.93,117.28l-5.28-0.85l5.44-7.15l5.28,0.85
		L166.93,117.28z M155.95,123.91l5.44-7.15l5.28,0.84l-5.44,7.15L155.95,123.91z M155.55,123.84l-5.28-0.84l5.44-7.15l5.28,0.84
		L155.55,123.84z M144.57,130.48l5.44-7.15l5.28,0.85l-5.44,7.15L144.57,130.48z M144.17,130.41l-5.28-0.84l5.44-7.15l5.28,0.84
		L144.17,130.41z M133.19,137.05l5.44-7.15l5.28,0.84l-5.44,7.15L133.19,137.05z M132.79,136.99l-5.28-0.85l5.44-7.15l5.28,0.85
		L132.79,136.99z M121.81,143.62l5.44-7.15l5.28,0.84l-5.44,7.15L121.81,143.62z M121.41,143.55l-5.28-0.84l5.44-7.15l5.28,0.84
		L121.41,143.55z M110.44,150.19l5.44-7.15l5.28,0.85l-5.44,7.15L110.44,150.19z M110.03,150.12l-5.28-0.84l5.44-7.15l5.28,0.84
		L110.03,150.12z M99.06,156.76l5.44-7.15l5.28,0.84l-5.44,7.15L99.06,156.76z M98.65,156.69l-5.28-0.85l5.44-7.15l5.28,0.84
		L98.65,156.69z M87.68,163.33l5.44-7.15l5.28,0.84l-5.44,7.15L87.68,163.33z M87.27,163.27l-5.28-0.85l5.44-7.15l5.28,0.85
		L87.27,163.27z M81.74,162.75l5.28,0.85l-5.44,7.15l-5.28-0.84L81.74,162.75z M81.74,154.36l5.28,0.85l-5.44,7.15l-5.28-0.85
		L81.74,154.36z M76.3,153.12l5.44-7.15l5.28,0.84l-5.44,7.15L76.3,153.12z M76.05,145.06l5.28,0.84l-5.44,7.15l-5.28-0.85
		L76.05,145.06z M76.05,136.67l5.28,0.85l-5.44,7.15l-5.28-0.85L76.05,136.67z M70.61,135.43l5.44-7.15l5.28,0.84l-5.44,7.15
		L70.61,135.43z M70.36,127.37l5.28,0.85l-5.44,7.15l-5.28-0.84L70.36,127.37z M64.92,126.13l5.44-7.15l5.28,0.84l-5.44,7.15
		L64.92,126.13z M64.67,118.07l5.28,0.85l-5.44,7.15l-5.28-0.85L64.67,118.07z M75.64,111.44l-5.44,7.15l-5.28-0.84l5.44-7.15
		L75.64,111.44z M76.05,111.5l5.28,0.84l-5.44,7.15l-5.28-0.84L76.05,111.5z M87.02,104.87l-5.44,7.15l-5.28-0.84l5.44-7.15
		L87.02,104.87z M87.43,104.93l5.28,0.84l-5.44,7.15l-5.28-0.84L87.43,104.93z M98.4,98.3l-5.44,7.15l-5.28-0.84l5.44-7.15
		L98.4,98.3z M98.8,98.36l5.28,0.85l-5.44,7.15l-5.29-0.84L98.8,98.36z M109.78,91.73l-5.44,7.15l-5.28-0.85l5.44-7.15L109.78,91.73
		z M110.18,91.79l5.28,0.84l-5.44,7.15l-5.28-0.84L110.18,91.79z M121.16,85.16l-5.44,7.15l-5.28-0.84l5.44-7.15L121.16,85.16z
		 M121.57,85.22l5.28,0.84l-5.44,7.15l-5.28-0.84L121.57,85.22z M132.54,78.59l-5.44,7.15l-5.28-0.84l5.44-7.15L132.54,78.59z
		 M132.94,78.65l5.28,0.84l-5.44,7.15l-5.28-0.84L132.94,78.65z M143.91,72.02l-5.44,7.15l-5.28-0.85l5.44-7.15L143.91,72.02z
		 M144.32,72.08l5.28,0.84l-5.44,7.15l-5.28-0.85L144.32,72.08z M155.3,65.45l-5.44,7.15l-5.28-0.84l5.44-7.15L155.3,65.45z
		 M155.7,65.51l5.28,0.84l-5.44,7.15l-5.28-0.84L155.7,65.51z M166.67,58.88l-5.44,7.15l-5.28-0.85l5.44-7.15L166.67,58.88z
		 M167.08,58.95l5.28,0.84l-5.44,7.15l-5.28-0.84L167.08,58.95z M172.62,59.46l-5.28-0.85l5.44-7.15l5.28,0.85L172.62,59.46z
		 M178.06,60.7l-5.44,7.15l-5.28-0.84l5.44-7.15L178.06,60.7z M178.3,68.76l-5.28-0.84l5.44-7.15l5.28,0.84L178.3,68.76z M183.74,70
		l-5.44,7.15l-5.28-0.85l5.44-7.15L183.74,70z M183.99,78.06l-5.28-0.85l5.44-7.15l5.28,0.85L183.99,78.06z M189.44,79.3l-5.44,7.15
		l-5.28-0.84l5.44-7.15L189.44,79.3z M189.68,87.36l-5.28-0.84l5.44-7.15l5.28,0.84L189.68,87.36z M189.68,95.75l-5.28-0.85
		l5.44-7.15l5.29,0.84L189.68,95.75z M189.68,104.14l-5.28-0.85l5.44-7.15l5.28,0.84L189.68,104.14z"/>
	<path class="st21" d="M51.54,120.53c6.73,8.48,11.97,17.62,15.68,26.98c4.05,9.88,6.35,19.93,6.57,29.68l126.62-73
		c-0.21-9.75-2.51-19.81-6.57-29.7c-3.7-9.36-8.95-18.49-15.67-26.97L51.54,120.53z M53.09,120.83l124.83-71.97
		c6.3,8.07,11.33,16.82,14.97,26.02c4.01,9.78,6.19,19.44,6.47,28.72L74.76,175.43c-0.43-9.18-2.64-18.69-6.58-28.3
		C64.51,137.84,59.43,128.99,53.09,120.83z"/>
</g>
</svg>
