<?xml version="1.0" encoding="utf-8"?>
<!-- Generator: Adobe Illustrator 25.3.1, SVG Export Plug-In . SVG Version: 6.00 Build 0)  -->
<svg version="1.1" id="圖層_1" xmlns="http://www.w3.org/2000/svg" xmlns:xlink="http://www.w3.org/1999/xlink" x="0px" y="0px"
	 viewBox="0 0 240 240" style="enable-background:new 0 0 240 240;" xml:space="preserve">
<style type="text/css">
	.st0{fill:#878787;}
	.st1{fill:#707070;}
	.st2{fill:#525252;}
	.st3{fill:#666666;}
	.st4{fill:#424242;}
</style>
<g>
	<g>
		<polygon class="st0" points="184.89,177.32 80.9,229.32 55.11,216.42 159.1,164.42 		"/>
		<polygon class="st1" points="55.11,220.27 80.9,233.16 80.9,229.32 55.11,216.42 		"/>
		<polygon class="st2" points="80.9,233.16 184.89,181.16 184.89,177.31 80.9,229.32 		"/>
	</g>
	<g>
		<polygon class="st3" points="92.7,208.14 92.7,190.73 89.16,188.17 89.16,205.57 		"/>
		<polygon class="st4" points="92.7,208.16 148.4,180.31 148.4,162.9 92.7,190.76 		"/>
		<polygon class="st0" points="148.4,162.9 92.7,190.75 91.61,190.21 147.3,162.36 		"/>
	</g>
	<g>
		<polygon class="st4" points="23.86,224.09 219.98,126 219.98,8.75 23.86,106.83 		"/>
		<polygon class="st0" points="219.98,8.76 23.86,106.82 20.02,104.9 216.14,6.84 		"/>
		<polygon class="st3" points="23.86,224.01 23.86,106.76 20.02,104.83 20.02,222.09 		"/>
	</g>
</g>
</svg>
