<?xml version="1.0" encoding="utf-8"?>
<!-- Generator: Adobe Illustrator 25.3.1, SVG Export Plug-In . SVG Version: 6.00 Build 0)  -->
<svg version="1.1" id="圖層_1" xmlns="http://www.w3.org/2000/svg" xmlns:xlink="http://www.w3.org/1999/xlink" x="0px" y="0px"
	 viewBox="0 0 240 240" style="enable-background:new 0 0 240 240;" xml:space="preserve">
<style type="text/css">
	.st0{fill:#485255;}
	.st1{fill:url(#SVGID_1_);}
	.st2{fill:url(#SVGID_2_);}
	.st3{fill:url(#SVGID_3_);}
	.st4{fill:url(#SVGID_4_);}
	.st5{fill:url(#SVGID_5_);}
	.st6{fill:url(#SVGID_6_);}
	.st7{fill:#586770;}
	.st8{fill:#26353E;}
	.st9{fill:url(#SVGID_7_);}
	.st10{fill:url(#SVGID_8_);}
	.st11{fill:url(#SVGID_9_);}
	.st12{fill:url(#SVGID_10_);}
	.st13{fill:url(#SVGID_11_);}
	.st14{fill:url(#SVGID_12_);}
	.st15{fill:url(#SVGID_13_);}
	.st16{fill:url(#SVGID_14_);}
	.st17{fill:url(#SVGID_15_);}
	.st18{fill:url(#SVGID_16_);}
	.st19{fill:url(#SVGID_17_);}
	.st20{fill:#E1EAF2;}
	.st21{fill:url(#SVGID_18_);}
	.st22{fill:url(#SVGID_19_);}
	.st23{fill:url(#SVGID_20_);}
	.st24{fill:#414E52;}
	.st25{fill:#AEB5B9;}
	.st26{fill:url(#SVGID_21_);}
	.st27{fill:url(#SVGID_22_);}
	.st28{fill:url(#SVGID_23_);}
	.st29{fill:url(#SVGID_24_);}
	.st30{fill:#8597A2;}
	.st31{fill:#B9C0C4;}
	.st32{fill:#D2D9DD;}
	.st33{fill:#DEE5E9;}
	.st34{fill:url(#SVGID_25_);}
	.st35{fill:url(#SVGID_26_);}
	.st36{fill:url(#SVGID_27_);}
</style>
<g>
	<g>
		<path class="st0" d="M150.97,204.4c-11.67-6.74-30.6-6.74-42.28,0c-5.84,3.37-8.76,7.79-8.75,12.2v2.23
			c0,4.42,2.92,8.83,8.76,12.2c11.67,6.74,30.6,6.74,42.27,0c5.84-3.37,8.76-7.79,8.76-12.2v-2.23
			C159.72,212.19,156.8,207.77,150.97,204.4z"/>
		<linearGradient id="SVGID_1_" gradientUnits="userSpaceOnUse" x1="99.9358" y1="216.6057" x2="159.7212" y2="216.6057">
			<stop  offset="0" style="stop-color:#485255"/>
			<stop  offset="1" style="stop-color:#69787D"/>
		</linearGradient>
		<path class="st1" d="M150.97,204.4c11.67,6.74,11.67,17.67,0,24.41c-11.67,6.74-30.6,6.74-42.27,0
			c-11.67-6.74-11.67-17.67,0-24.41C120.36,197.66,139.29,197.66,150.97,204.4z"/>
		<linearGradient id="SVGID_2_" gradientUnits="userSpaceOnUse" x1="117.7844" y1="224.1816" x2="161.3134" y2="192.1255">
			<stop  offset="0" style="stop-color:#485255"/>
			<stop  offset="1" style="stop-color:#5B686C"/>
		</linearGradient>
		<path class="st2" d="M148.91,204.3c10.54,6.08,10.54,15.95,0,22.03c-10.54,6.08-27.62,6.08-38.15,0
			c-10.54-6.08-10.54-15.95,0-22.03C121.29,198.21,138.37,198.21,148.91,204.3z"/>
		<linearGradient id="SVGID_3_" gradientUnits="userSpaceOnUse" x1="127.962" y1="216.6861" x2="134.7085" y2="211.7177">
			<stop  offset="0" style="stop-color:#2F393C"/>
			<stop  offset="1" style="stop-color:#424F53"/>
		</linearGradient>
		<path class="st3" d="M132.79,213.6c1.63,0.94,1.63,2.47,0,3.41c-1.63,0.94-4.28,0.94-5.91,0c-1.63-0.94-1.63-2.47,0-3.41
			C128.51,212.66,131.15,212.66,132.79,213.6z"/>
	</g>
	<g>
		<linearGradient id="SVGID_4_" gradientUnits="userSpaceOnUse" x1="131.5419" y1="166.9733" x2="127.8556" y2="166.9733">
			<stop  offset="0" style="stop-color:#6E6864"/>
			<stop  offset="0.1417" style="stop-color:#F3F3F4"/>
			<stop  offset="0.5428" style="stop-color:#F3F3F4"/>
			<stop  offset="0.626" style="stop-color:#1E2123"/>
			<stop  offset="0.7193" style="stop-color:#505250"/>
			<stop  offset="0.7918" style="stop-color:#938F8F"/>
			<stop  offset="0.9412" style="stop-color:#959191"/>
			<stop  offset="1" style="stop-color:#383637"/>
		</linearGradient>
		<path class="st4" d="M131.17,118.04c-0.74-0.43-1.94-0.43-2.68,0c-0.37,0.21-0.56,0.49-0.56,0.77v96.33
			c0,0.28,0.19,0.56,0.56,0.77c0.74,0.43,1.94,0.43,2.68,0c0.37-0.21,0.56-0.49,0.56-0.77v-96.33
			C131.72,118.53,131.54,118.25,131.17,118.04z"/>
		<g>
			<linearGradient id="SVGID_5_" gradientUnits="userSpaceOnUse" x1="121.3032" y1="88.6888" x2="135.5025" y2="90.3773">
				<stop  offset="0" style="stop-color:#C5CED6"/>
				<stop  offset="1" style="stop-color:#E1EAF2"/>
			</linearGradient>
			<path class="st5" d="M131.78,95.97c-0.11,7.54-0.89,29.31-5.14,26.85c-4.25-2.45-5.03-25.12-5.14-32.79
				c-0.09-6.07,0-34.94,0-34.94l10.28,5.93C131.78,61.03,131.87,90,131.78,95.97z"/>
			<linearGradient id="SVGID_6_" gradientUnits="userSpaceOnUse" x1="132.4108" y1="121.5684" x2="133.9453" y2="55.9386">
				<stop  offset="0" style="stop-color:#B8C1C9"/>
				<stop  offset="1" style="stop-color:#D4DDE5"/>
			</linearGradient>
			<path class="st6" d="M137.53,57.47l-5.76,3.55c0,0,0.09,28.97,0,34.94c-0.1,6.69-0.72,24.62-3.84,26.82v0l5.52-3.42
				c3.33-1.43,3.98-20.1,4.08-26.96C137.62,86.44,137.53,57.47,137.53,57.47z"/>
			<path class="st7" d="M124.17,75.46c-0.8-0.46-1.46-0.08-1.46,0.84c0,0-0.02,11.06,0.03,14.43c0.03,1.89,0.29,8.29,0.29,8.29
				c0.04,0.93,0.72,2.06,1.53,2.52l4.17,2.41c0.8,0.46,1.49,0.08,1.53-0.84c0,0,0.26-6.02,0.28-7.88
				c0.05-3.31,0.03-14.39,0.03-14.39c0-0.93-0.66-2.06-1.46-2.53L124.17,75.46z"/>
			<g>
				<path class="st8" d="M129.18,85.99c0,0.63-1.14,0.48-2.54-0.33c-1.4-0.81-2.54-1.98-2.54-2.61c0-0.63,1.14-0.48,2.54,0.33
					C128.04,84.19,129.18,85.36,129.18,85.99z"/>
				<linearGradient id="SVGID_7_" gradientUnits="userSpaceOnUse" x1="126.082" y1="85.5462" x2="126.6206" y2="83.9512">
					<stop  offset="0" style="stop-color:#388CD9"/>
					<stop  offset="1" style="stop-color:#6DB0ED"/>
				</linearGradient>
				<path class="st9" d="M128.65,86c0,0.54-1.02,0.4-2.28-0.33c-1.26-0.73-2.28-1.76-2.28-2.3c0-0.54,1.02-0.4,2.28,0.33
					C127.63,84.42,128.65,85.45,128.65,86z"/>
				<linearGradient id="SVGID_8_" gradientUnits="userSpaceOnUse" x1="126.5522" y1="86.1496" x2="126.5522" y2="85.5488">
					<stop  offset="0" style="stop-color:#2079C9"/>
					<stop  offset="1" style="stop-color:#84C5FF"/>
				</linearGradient>
				<path class="st10" d="M126.64,83.5c-1.08-0.63-2-0.84-2.27-0.56c0,0-0.21,0.17-0.25,0.31c0,0,0,0,0,0.01
					c0.14-0.41,1.1-0.23,2.26,0.44c1.26,0.73,2.28,1.76,2.28,2.3c0,0.18-0.11,0.28-0.31,0.32c0,0,0,0,0.01,0
					c0.17-0.01,0.45-0.14,0.45-0.14c0.13-0.05,0.19-0.15,0.19-0.29C128.99,85.32,127.94,84.25,126.64,83.5z"/>
			</g>
			<g>
				<path class="st8" d="M129.18,89.7c0,0.63-1.14,0.48-2.54-0.33c-1.4-0.81-2.54-1.98-2.54-2.61c0-0.63,1.14-0.48,2.54,0.33
					C128.04,87.91,129.18,89.07,129.18,89.7z"/>
				<linearGradient id="SVGID_9_" gradientUnits="userSpaceOnUse" x1="126.082" y1="89.2613" x2="126.6207" y2="87.666">
					<stop  offset="0" style="stop-color:#388CD9"/>
					<stop  offset="1" style="stop-color:#6DB0ED"/>
				</linearGradient>
				<path class="st11" d="M128.65,89.71c0,0.54-1.02,0.4-2.28-0.33c-1.26-0.73-2.28-1.76-2.28-2.3c0-0.54,1.02-0.4,2.28,0.33
					C127.63,88.14,128.65,89.17,128.65,89.71z"/>
				<linearGradient id="SVGID_10_" gradientUnits="userSpaceOnUse" x1="126.5522" y1="89.8645" x2="126.5522" y2="89.2637">
					<stop  offset="0" style="stop-color:#2079C9"/>
					<stop  offset="1" style="stop-color:#84C5FF"/>
				</linearGradient>
				<path class="st12" d="M126.64,87.22c-1.08-0.63-2-0.84-2.27-0.56c0,0-0.21,0.17-0.25,0.31c0,0,0,0,0,0.01
					c0.14-0.41,1.1-0.23,2.26,0.44c1.26,0.73,2.28,1.76,2.28,2.3c0,0.18-0.11,0.28-0.31,0.32c0,0,0,0,0.01,0
					c0.17-0.01,0.45-0.14,0.45-0.14c0.13-0.05,0.19-0.15,0.19-0.29C128.99,89.03,127.94,87.97,126.64,87.22z"/>
			</g>
			<g>
				<path class="st8" d="M129.18,93.42c0,0.63-1.14,0.48-2.54-0.33c-1.4-0.81-2.54-1.98-2.54-2.61c0-0.63,1.14-0.48,2.54,0.33
					C128.04,91.62,129.18,92.79,129.18,93.42z"/>
				<linearGradient id="SVGID_11_" gradientUnits="userSpaceOnUse" x1="126.0821" y1="92.9758" x2="126.6207" y2="91.3805">
					<stop  offset="0" style="stop-color:#388CD9"/>
					<stop  offset="1" style="stop-color:#6DB0ED"/>
				</linearGradient>
				<path class="st13" d="M128.65,93.43c0,0.54-1.02,0.4-2.28-0.33c-1.26-0.73-2.28-1.76-2.28-2.3c0-0.54,1.02-0.4,2.28,0.33
					C127.63,91.85,128.65,92.88,128.65,93.43z"/>
				<linearGradient id="SVGID_12_" gradientUnits="userSpaceOnUse" x1="126.5522" y1="93.5794" x2="126.5522" y2="92.9786">
					<stop  offset="0" style="stop-color:#2079C9"/>
					<stop  offset="1" style="stop-color:#84C5FF"/>
				</linearGradient>
				<path class="st14" d="M126.64,90.93c-1.08-0.63-2-0.84-2.27-0.56c0,0-0.21,0.17-0.25,0.31c0,0,0,0,0,0.01
					c0.14-0.41,1.1-0.23,2.26,0.44c1.26,0.73,2.28,1.76,2.28,2.3c0,0.18-0.11,0.28-0.31,0.32c0,0,0,0,0.01,0
					c0.17-0.01,0.45-0.14,0.45-0.14c0.13-0.05,0.19-0.15,0.19-0.29C128.99,92.75,127.94,91.68,126.64,90.93z"/>
			</g>
			<g>
				<path class="st8" d="M129.18,97.13c0,0.63-1.14,0.48-2.54-0.32c-1.4-0.81-2.54-1.98-2.54-2.61c0-0.63,1.14-0.48,2.54,0.33
					C128.04,95.34,129.18,96.5,129.18,97.13z"/>
				<linearGradient id="SVGID_13_" gradientUnits="userSpaceOnUse" x1="126.082" y1="96.6905" x2="126.6206" y2="95.0952">
					<stop  offset="0" style="stop-color:#388CD9"/>
					<stop  offset="1" style="stop-color:#6DB0ED"/>
				</linearGradient>
				<path class="st15" d="M128.65,97.14c0,0.55-1.02,0.4-2.28-0.33c-1.26-0.73-2.28-1.76-2.28-2.3c0-0.54,1.02-0.4,2.28,0.33
					C127.63,95.57,128.65,96.6,128.65,97.14z"/>
				<linearGradient id="SVGID_14_" gradientUnits="userSpaceOnUse" x1="126.5522" y1="97.294" x2="126.5522" y2="96.6932">
					<stop  offset="0" style="stop-color:#2079C9"/>
					<stop  offset="1" style="stop-color:#84C5FF"/>
				</linearGradient>
				<path class="st16" d="M126.64,94.65c-1.08-0.63-2-0.84-2.27-0.56c0,0-0.21,0.17-0.25,0.31c0,0,0,0,0,0.01
					c0.14-0.41,1.1-0.23,2.26,0.44c1.26,0.73,2.28,1.76,2.28,2.3c0,0.18-0.11,0.28-0.31,0.32c0,0,0,0,0.01,0
					c0.17-0.01,0.45-0.14,0.45-0.14c0.13-0.05,0.19-0.15,0.19-0.29C128.99,96.46,127.94,95.4,126.64,94.65z"/>
			</g>
			<g>
				<path class="st8" d="M129.18,100.85c0,0.63-1.14,0.48-2.54-0.33c-1.4-0.81-2.54-1.98-2.54-2.61c0-0.63,1.14-0.48,2.54,0.33
					C128.04,99.05,129.18,100.22,129.18,100.85z"/>
				<linearGradient id="SVGID_15_" gradientUnits="userSpaceOnUse" x1="126.082" y1="100.4051" x2="126.6206" y2="98.8099">
					<stop  offset="0" style="stop-color:#388CD9"/>
					<stop  offset="1" style="stop-color:#6DB0ED"/>
				</linearGradient>
				<path class="st17" d="M128.65,100.86c0,0.54-1.02,0.4-2.28-0.33c-1.26-0.73-2.28-1.76-2.28-2.3c0-0.54,1.02-0.4,2.28,0.33
					C127.63,99.28,128.65,100.31,128.65,100.86z"/>
				<linearGradient id="SVGID_16_" gradientUnits="userSpaceOnUse" x1="126.5522" y1="101.0085" x2="126.5522" y2="100.4077">
					<stop  offset="0" style="stop-color:#2079C9"/>
					<stop  offset="1" style="stop-color:#84C5FF"/>
				</linearGradient>
				<path class="st18" d="M126.64,98.36c-1.08-0.63-2-0.84-2.27-0.56c0,0-0.21,0.17-0.25,0.31c0,0,0,0,0,0.01
					c0.14-0.41,1.1-0.23,2.26,0.44c1.26,0.73,2.28,1.76,2.28,2.3c0,0.18-0.11,0.28-0.31,0.32c0,0,0,0,0.01,0
					c0.17-0.01,0.45-0.14,0.45-0.14c0.13-0.05,0.19-0.15,0.19-0.29C128.99,100.18,127.94,99.11,126.64,98.36z"/>
			</g>
			
				<linearGradient id="SVGID_17_" gradientUnits="userSpaceOnUse" x1="154.4013" y1="10.299" x2="154.8665" y2="11.6714" gradientTransform="matrix(0.866 0.5 0 1 -7.2346 -8.5767)">
				<stop  offset="0" style="stop-color:#9FB0B9"/>
				<stop  offset="1" style="stop-color:#3F4E57"/>
			</linearGradient>
			<path class="st19" d="M127.21,79.89c0,0.37-0.26,0.52-0.58,0.33c-0.32-0.18-0.58-0.63-0.58-1c0-0.37,0.26-0.52,0.58-0.33
				C126.96,79.08,127.21,79.53,127.21,79.89z"/>
			<polygon class="st20" points="137.53,57.47 131.78,61.03 121.5,55.09 127.26,51.54 			"/>
		</g>
	</g>
	<g>
		<g>
			<linearGradient id="SVGID_18_" gradientUnits="userSpaceOnUse" x1="104.5005" y1="43.3088" x2="122.3772" y2="43.3088">
				<stop  offset="0" style="stop-color:#CDD6DE"/>
				<stop  offset="1" style="stop-color:#E1EAF2"/>
			</linearGradient>
			<path class="st21" d="M113.44,30.22c-4.94-2.85-8.94-0.54-8.94,5.16V47.3l17.88,10.32V45.7C122.38,40,118.38,33.07,113.44,30.22z
				"/>
			<linearGradient id="SVGID_19_" gradientUnits="userSpaceOnUse" x1="136.0337" y1="44.5998" x2="122.3902" y2="20.436">
				<stop  offset="0" style="stop-color:#C5CED6"/>
				<stop  offset="1" style="stop-color:#E1EAF2"/>
			</linearGradient>
			<path class="st22" d="M136.49,49.55v-5.56c0,0,0.77-3.39,1.87-4.02c2.02-1.15,5.16-2.96,6.76-3.92c2.08-1.25,2.08-4.54,2.08-4.54
				c0-5.7-2.45-10.19-7.39-13.04c-2.49-1.44-6.07-2.31-7.75-1.47c-7.6,3.81-24.83,12.52-24.83,12.52l0.01,0.01
				c1.61-0.86,3.79-0.7,6.2,0.69c4.94,2.85,8.94,9.78,8.94,15.48v11.92L136.49,49.55z"/>
			<linearGradient id="SVGID_20_" gradientUnits="userSpaceOnUse" x1="106.5078" y1="40.5809" x2="120.3707" y2="40.5809">
				<stop  offset="0" style="stop-color:#B4BDC5"/>
				<stop  offset="1" style="stop-color:#C8D1D9"/>
			</linearGradient>
			<path class="st23" d="M120.37,44.58c0,4.42-3.1,6.21-6.93,4c-3.83-2.21-6.93-7.59-6.93-12.01c0-4.42,3.1-6.21,6.93-4
				C117.27,34.79,120.37,40.16,120.37,44.58z"/>
			<path class="st24" d="M117.6,42.98c0,2.65-1.86,3.73-4.16,2.4c-2.3-1.33-4.16-4.55-4.16-7.2c0-2.65,1.86-3.73,4.16-2.4
				C115.74,37.1,117.6,40.33,117.6,42.98z"/>
		</g>
		<g>
			<path class="st25" d="M137.31,57.61l0.21-0.06l-1.15-3.86c0-0.07,0-0.15,0-0.22c0-0.96-0.04-1.94-0.13-2.92l0.45,1.34l0.21-0.07
				l-0.76-2.26c-0.17-1.5-0.42-3.01-0.77-4.53l0.22,0.52l0.2-0.09l-0.73-1.71c-2.46-9.64-8.19-19.42-15.39-26.21l-0.65-0.97
				l-0.18,0.12l0.13,0.19c-1.04-0.93-2.1-1.81-3.18-2.61l-1.38-1.83l-0.18,0.13l0.95,1.26c-0.88-0.63-1.78-1.21-2.69-1.73
				c-0.3-0.18-0.61-0.34-0.91-0.5l-2.13-2.54l-0.17,0.14l1.78,2.13c-0.97-0.49-1.92-0.91-2.86-1.26l-3.85-3.51l-0.15,0.16l3.46,3.15
				c-1.27-0.43-2.51-0.73-3.73-0.89l-4.29-3.59l-0.14,0.17l4.03,3.37c-0.59-0.07-1.18-0.1-1.76-0.1c-0.5,0-0.98,0.02-1.45,0.07
				L95.2,5.22L95.07,5.4l4.92,3.54c-1.06,0.13-2.07,0.39-3.01,0.76l-5.56-3.54l-0.12,0.19l5.44,3.46c-0.96,0.41-1.86,0.94-2.68,1.59
				l-6.3-3.26l-0.1,0.2l6.22,3.21c-0.64,0.53-1.24,1.13-1.78,1.81c-0.17,0.21-0.33,0.43-0.49,0.66l-6.68-2.86l-0.09,0.2l6.65,2.85
				c-0.65,0.95-1.2,2.02-1.65,3.18l-6.77-2.36l-0.07,0.21l6.77,2.36c-0.43,1.16-0.76,2.41-0.99,3.75l-7.14-1.55l-0.05,0.22
				l7.15,1.55c-0.22,1.39-0.34,2.88-0.34,4.44l-7.25-0.95l-0.03,0.22l7.28,0.95c0.01,1.53,0.13,3.1,0.35,4.69H81.6v0.22h7.16
				c0.23,1.64,0.58,3.31,1.02,4.97l-6.79,1.04l0.03,0.22l6.81-1.04c0.48,1.78,1.06,3.55,1.75,5.32l-6.73,1.94l0.06,0.21l6.75-1.94
				c0.68,1.73,1.45,3.43,2.31,5.11l-6.22,2.72l0.09,0.2l6.23-2.72c0.87,1.68,1.82,3.32,2.84,4.91L91,55.8l0.12,0.19l5.93-3.74
				c0.99,1.51,2.04,2.98,3.15,4.37l-5.13,4.56l0.15,0.17l5.12-4.55c1.17,1.46,2.41,2.85,3.7,4.14l-0.09-0.07l-4.45,5.31l0.17,0.14
				l4.44-5.31c1.24,1.23,2.52,2.38,3.84,3.42l-3.74,5.9l0.19,0.12l3.72-5.88c1.29,1,2.61,1.91,3.96,2.7l-3,6.58l0.2,0.09l2.99-6.56
				c1.34,0.77,2.65,1.41,3.95,1.91l-2.17,6.79l0.21,0.07l2.16-6.77c1.3,0.49,2.57,0.84,3.82,1.05l-1.3,6.9l0.22,0.04l1.3-6.9
				c0.86,0.13,1.71,0.2,2.54,0.2c0.34,0,0.68-0.02,1.01-0.04l-0.9,6.76l0.22,0.03l0.91-6.8c1.2-0.1,2.34-0.36,3.4-0.77l-0.4,6.72
				l0.22,0.01l0.4-6.82c0.91-0.37,1.76-0.85,2.55-1.43l0.28,6.25l0.22-0.01l-0.29-6.4c0.75-0.58,1.43-1.26,2.05-2.03
				c0.1-0.12,0.19-0.26,0.29-0.39l0.46,5.76l0.22-0.02l-0.48-6.01c0.59-0.84,1.1-1.78,1.53-2.79l0.7,5.2l0.22-0.03l-0.75-5.58
				c0.42-1.07,0.76-2.22,1-3.44l0.8,4.34l0.22-0.04l-0.9-4.91c0.21-1.2,0.33-2.46,0.38-3.79L137.31,57.61z M129.97,49.77
				c0-1.12-0.08-2.26-0.24-3.42l5.84,2.18l0.01,0.02c0.22,1.58,0.34,3.13,0.35,4.66L129.97,49.77z M129.53,49.77
				c0,1.08-0.08,2.09-0.22,3.05l-15.6-12.19L129.53,49.77L129.53,49.77z M121.1,61.9l-7.83-20.19l10.08,19.69
				C122.64,61.65,121.9,61.82,121.1,61.9z M123.54,61.79l3.92,7.66c-0.98,0.37-2.04,0.61-3.16,0.71l-3.04-7.83
				C122.07,62.24,122.83,62.06,123.54,61.79z M89.18,30.92c-0.22-1.57-0.33-3.12-0.35-4.64l5.96,3.44v0c0,1.12,0.08,2.26,0.24,3.42
				l-5.84-2.18v-0.04H89.18z M120.51,18.95c1.24,1.24,2.42,2.58,3.55,3.98l-2.94,4.19c-0.84-1.03-1.71-2.02-2.63-2.93L120.51,18.95z
				 M113.29,39.77l13.94-1.24c0.47,1.2,0.87,2.41,1.2,3.62L113.29,39.77z M128.5,42.39c0.32,1.18,0.56,2.37,0.73,3.53l-15.78-5.9
				L128.5,42.39z M123.43,31.06c0.72,1.12,1.39,2.27,2,3.45l-12.4,4.85L123.43,31.06z M112.92,39.17l8.08-11.5
				c0.81,1.02,1.58,2.09,2.3,3.2L112.92,39.17z M125.53,34.71c0.6,1.18,1.14,2.38,1.62,3.6l-14,1.25L125.53,34.71z M127.69,38.49
				l5.1-0.46c0.65,1.68,1.21,3.37,1.67,5.06l-5.54-0.87C128.58,40.98,128.16,39.73,127.69,38.49z M127.6,38.27
				c-0.49-1.25-1.05-2.5-1.67-3.72l4.5-1.76c0.84,1.65,1.6,3.33,2.26,5.02L127.6,38.27z M125.83,34.36
				c-0.63-1.22-1.32-2.41-2.06-3.57l3.77-3.01c1,1.56,1.93,3.17,2.79,4.82L125.83,34.36z M123.65,30.6
				c-0.74-1.15-1.54-2.25-2.39-3.3l2.94-4.18c1.14,1.43,2.21,2.92,3.22,4.47L123.65,30.6z M120.86,27.49l-8.05,11.45l5.51-14.3
				C119.2,25.53,120.05,26.49,120.86,27.49z M112.67,38.68l2.78-16.62c0.93,0.74,1.83,1.54,2.69,2.4L112.67,38.68z M112.49,38.41
				V20.02c0.94,0.56,1.86,1.19,2.76,1.89L112.49,38.41z M112.02,37.95l-5.39-20.23c0.87,0.15,1.75,0.39,2.66,0.73L112.02,37.95z
				 M109.52,18.55c0.9,0.35,1.82,0.8,2.75,1.34l0,0v18.27L109.52,18.55z M111.76,37.82l-7.86-20.25c0.24-0.02,0.48-0.03,0.73-0.03
				c0.58,0,1.16,0.05,1.76,0.14L111.76,37.82z M111.5,37.78l-10.08-19.69c0.7-0.26,1.45-0.43,2.24-0.5L111.5,37.78z M111.28,37.84
				l-12-18.56c0.59-0.46,1.23-0.83,1.93-1.11L111.28,37.84z M111.12,38L97.55,21.11c0.46-0.65,0.98-1.21,1.56-1.69L111.12,38z
				 M111.03,38.23L96.27,23.51c0.31-0.81,0.7-1.55,1.14-2.21L111.03,38.23z M111.01,38.53L95.5,26.41c0.16-0.96,0.39-1.85,0.69-2.67
				L111.01,38.53z M111.06,38.85l-15.82-9.14c0-1.08,0.08-2.09,0.22-3.05L111.06,38.85z M94.8,29.46l-5.97-3.45
				c0-1.51,0.11-2.94,0.32-4.28l5.91,4.62C94.9,27.33,94.81,28.37,94.8,29.46z M95.24,29.98l15.93,9.2L95.5,33.32
				C95.35,32.18,95.26,31.07,95.24,29.98z M111.32,39.46L96.27,37.1c-0.32-1.18-0.56-2.36-0.73-3.53L111.32,39.46z M111.48,39.71
				l-13.94,1.24c-0.47-1.2-0.87-2.41-1.2-3.62L111.48,39.71z M111.62,39.92l-12.38,4.85c-0.6-1.18-1.14-2.38-1.62-3.6L111.62,39.92z
				 M111.74,40.11l-10.4,8.31c-0.72-1.12-1.38-2.27-1.99-3.46L111.74,40.11z M111.85,40.31l-8.08,11.5
				c-0.81-1.02-1.58-2.09-2.31-3.2L111.85,40.31z M111.96,40.54l-5.51,14.3c-0.88-0.89-1.73-1.85-2.54-2.85L111.96,40.54z
				 M112.09,40.8l-2.78,16.61c-0.93-0.73-1.83-1.54-2.69-2.4L112.09,40.8z M112.27,41.08v18.39c-0.94-0.56-1.86-1.19-2.76-1.89
				L112.27,41.08z M112.49,41.33l2.75,19.61c-0.9-0.35-1.82-0.8-2.75-1.34L112.49,41.33z M112.75,41.54l5.4,20.23
				c-0.87-0.15-1.75-0.39-2.66-0.73L112.75,41.54z M113.01,41.67l7.86,20.25c-0.24,0.02-0.48,0.03-0.73,0.03
				c-0.57,0-1.16-0.05-1.76-0.14L113.01,41.67z M113.48,41.65l12,18.56c-0.59,0.46-1.23,0.83-1.93,1.11L113.48,41.65z M113.64,41.49
				l13.58,16.89c-0.46,0.65-0.98,1.21-1.56,1.69L113.64,41.49z M113.74,41.25l14.76,14.72c-0.31,0.81-0.7,1.55-1.14,2.21
				L113.74,41.25z M113.76,40.96l15.51,12.12c-0.16,0.96-0.39,1.85-0.69,2.67L113.76,40.96z M113.59,40.31l15.67,5.86
				c0.16,1.13,0.25,2.25,0.26,3.34L113.59,40.31z M135.54,48.28l-5.84-2.18c-0.17-1.2-0.41-2.42-0.73-3.64l5.55,0.87
				C134.96,44.99,135.3,46.64,135.54,48.28z M120.11,18.55l0.2,0.3l-1.99,5.17c-0.9-0.88-1.83-1.71-2.78-2.45l1.03-6.15
				C117.79,16.38,118.97,17.42,120.11,18.55z M116.12,15.07l0.23,0.31l-1.01,6.04c-0.93-0.71-1.88-1.36-2.85-1.92l0-6.88
				C113.73,13.34,114.94,14.16,116.12,15.07z M111.83,12.23l0.36,0.43l0.09-0.07l0,6.78c-0.96-0.54-1.9-0.98-2.82-1.33l-1.04-7.42
				C109.53,11.05,110.67,11.59,111.83,12.23z M108.17,10.52l1.04,7.43c-0.92-0.33-1.83-0.57-2.72-0.71l-2.07-7.75
				C105.65,9.7,106.9,10.05,108.17,10.52z M104.16,9.45l0.04,0.03l2.06,7.73c-0.55-0.08-1.1-0.12-1.63-0.12
				c-0.3,0-0.6,0.02-0.9,0.04l-3.04-7.83c0.35-0.03,0.71-0.04,1.07-0.04C102.55,9.26,103.35,9.33,104.16,9.45z M100.46,9.33
				l3.04,7.83c-0.8,0.09-1.56,0.27-2.28,0.54l-3.92-7.66C98.29,9.67,99.34,9.43,100.46,9.33z M97.1,10.12l3.92,7.66
				c-0.71,0.29-1.36,0.67-1.97,1.14l-4.68-7.23C95.2,11.04,96.11,10.51,97.1,10.12z M94.2,11.82l4.68,7.23
				c-0.49,0.4-0.95,0.86-1.36,1.38c-0.08,0.11-0.17,0.22-0.25,0.33l-5.27-6.56C92.64,13.29,93.37,12.49,94.2,11.82z M91.86,14.39
				l5.27,6.56c-0.47,0.67-0.86,1.42-1.19,2.23l-5.69-5.68C90.69,16.35,91.23,15.31,91.86,14.39z M90.16,17.73l5.69,5.67
				c-0.32,0.84-0.57,1.74-0.74,2.71l-5.92-4.62C89.41,20.13,89.74,18.88,90.16,17.73z M89.22,31.21l5.84,2.18
				c0.17,1.2,0.41,2.42,0.73,3.64l-5.55-0.87c0,0,0,0,0-0.01l-0.02-0.1l-0.01,0C89.79,34.42,89.46,32.81,89.22,31.21z M90.31,36.39
				l5.54,0.87c0.33,1.25,0.75,2.5,1.23,3.74l-5.09,0.45C91.34,39.77,90.77,38.08,90.31,36.39z M92.07,41.67l5.09-0.46
				c0.49,1.26,1.05,2.5,1.67,3.72l-4.5,1.76C93.49,45.04,92.74,43.36,92.07,41.67z M94.44,46.89l4.5-1.76
				c0.63,1.22,1.32,2.41,2.06,3.57l-3.77,3.01C96.22,50.15,95.29,48.54,94.44,46.89z M97.34,51.9l3.77-3.01
				c0.75,1.14,1.55,2.25,2.39,3.3l-2.94,4.18C99.42,54.94,98.35,53.45,97.34,51.9z M100.7,56.55l2.94-4.18
				c0.84,1.03,1.71,2.02,2.63,2.93l-2.02,5.24C103.02,59.29,101.83,57.95,100.7,56.55z M104.42,60.71l2.02-5.24
				c0.9,0.88,1.83,1.7,2.78,2.45l-1.03,6.15C106.9,63.04,105.64,61.92,104.42,60.71z M108.4,64.22l1.03-6.15
				c0.93,0.71,1.88,1.36,2.85,1.92c0,0,0,0,0,0l0,6.88C110.95,66.09,109.66,65.2,108.4,64.22z M112.49,67v-6.89
				c0.96,0.54,1.9,0.98,2.82,1.33l1.04,7.43C115.09,68.38,113.8,67.76,112.49,67z M116.6,68.96l-1.04-7.44
				c0.92,0.33,1.83,0.57,2.72,0.71l2.07,7.75C119.12,69.78,117.87,69.44,116.6,68.96z M123,70.22c-0.79,0-1.6-0.07-2.43-0.19
				l-2.07-7.76c0.55,0.08,1.1,0.12,1.63,0.12c0.3,0,0.6-0.02,0.9-0.04l3.04,7.83C123.72,70.2,123.37,70.22,123,70.22z M127.67,69.37
				l-3.92-7.66c0.71-0.29,1.36-0.67,1.97-1.14l4.68,7.23C129.57,68.45,128.66,68.97,127.67,69.37z M130.57,67.67l-4.68-7.24
				c0.49-0.4,0.95-0.86,1.36-1.38c0.08-0.11,0.16-0.22,0.25-0.33l5.27,6.56C132.13,66.2,131.4,67,130.57,67.67z M132.91,65.1
				l-5.27-6.56c0.47-0.67,0.87-1.42,1.2-2.23l5.69,5.68C134.08,63.13,133.54,64.17,132.91,65.1z M134.61,61.76l-5.69-5.67
				c0.32-0.84,0.57-1.74,0.74-2.71l5.92,4.62C135.36,59.35,135.03,60.6,134.61,61.76z M135.62,57.75l-5.91-4.62
				c0.16-0.98,0.25-2.02,0.26-3.11l5.97,3.45l0,0C135.94,54.98,135.83,56.41,135.62,57.75z"/>
			<g>
				<linearGradient id="SVGID_21_" gradientUnits="userSpaceOnUse" x1="83.6627" y1="37.2639" x2="108.6402" y2="37.2639">
					<stop  offset="0" style="stop-color:#9FB0B9"/>
					<stop  offset="1" style="stop-color:#3F4E57"/>
				</linearGradient>
				<path class="st26" d="M84.64,36.09c1.72,7.81,8.8,19.93,15.35,18.25c6.55-1.67,8.65-13.58,8.65-13.58l-1.04-2.39
					C96.64,36.13,93,22.07,88.37,20.27C83.75,18.47,82.59,26.79,84.64,36.09z"/>
				<linearGradient id="SVGID_22_" gradientUnits="userSpaceOnUse" x1="125.534" y1="77.5869" x2="117.8375" y2="37.3554">
					<stop  offset="0" style="stop-color:#9FB0B9"/>
					<stop  offset="1" style="stop-color:#3F4E57"/>
				</linearGradient>
				<path class="st27" d="M128.97,72.39c4.25-2.68,6.73-12.34-0.63-20.41c-7.37-8.07-18.26-9.9-18.26-9.9l-0.81,1.47
					c8.53,13.85,1.39,19.34,4.35,25.24C116.58,74.68,123.91,75.58,128.97,72.39z"/>
				
					<linearGradient id="SVGID_23_" gradientUnits="userSpaceOnUse" x1="551.1235" y1="33.5673" x2="541.735" y2="49.8287" gradientTransform="matrix(-1 0 0 1 655.2148 0)">
					<stop  offset="0" style="stop-color:#B8C9D2"/>
					<stop  offset="1" style="stop-color:#586770"/>
				</linearGradient>
				<path class="st28" d="M103.43,33.67l1.1-0.67c1.24-0.71,2.95-0.6,4.83,0.49c3.78,2.19,6.85,7.5,6.85,11.87
					c0,2.2-0.78,3.74-2.03,4.45l-1.1,0.67c-1.24,0.7-2.94,0.59-4.82-0.49c-3.78-2.19-6.85-7.5-6.85-11.87
					C101.4,35.92,102.18,34.38,103.43,33.67z"/>
				<linearGradient id="SVGID_24_" gradientUnits="userSpaceOnUse" x1="108.0798" y1="10.9167" x2="118.7423" y2="42.3679">
					<stop  offset="0" style="stop-color:#9FB0B9"/>
					<stop  offset="1" style="stop-color:#3F4E57"/>
				</linearGradient>
				<path class="st29" d="M114.39,14.79c-5.98-5.14-15.54-7.59-14.72,2.16c0.42,5.03,2.96,11.11,5.33,15.83
					c1.19-0.45,2.74-0.11,4.11,0.84c1.47,1.02,2.38,2.42,3.21,3.86c3.98-4.55,12.32,0.13,13.69-3.25
					C127.67,30.12,121.51,20.91,114.39,14.79z"/>
				<path class="st30" d="M101.4,38.11c0,4.37,3.07,9.69,6.85,11.87c1.88,1.09,3.59,1.2,4.82,0.49c1.25-0.71,2.03-2.25,2.03-4.45
					c0-4.37-3.07-9.69-6.85-11.87c-1.88-1.09-3.59-1.2-4.83-0.49C102.18,34.38,101.4,35.92,101.4,38.11z"/>
			</g>
			<path class="st31" d="M109.71,7.86C93.7-1.38,80.73,6.11,80.73,24.6c0,18.49,12.98,40.97,28.99,50.21
				c16.01,9.24,28.99,1.75,28.99-16.74C138.7,39.58,125.72,17.11,109.71,7.86z M109.71,73.36C94.4,64.52,81.98,43.01,81.98,25.32
				c0-17.69,12.42-24.86,27.73-16.01c15.32,8.84,27.73,30.35,27.73,48.04C137.45,75.03,125.03,82.2,109.71,73.36z"/>
			<path class="st32" d="M109.27,7.98C93.26-1.26,80.28,6.23,80.28,24.72c0,18.49,12.98,40.97,28.99,50.21
				c16.01,9.24,28.99,1.75,28.99-16.74C138.26,39.7,125.28,17.22,109.27,7.98z M109.27,73.48c-15.32-8.84-27.73-30.35-27.73-48.04
				c0-17.69,12.42-24.86,27.73-16.01C124.58,18.27,137,39.78,137,57.47C137,75.15,124.58,82.32,109.27,73.48z"/>
			<path class="st33" d="M130.42,57.13v-0.07l7.07,0.86l0.05-0.44l-7.16-0.87l-21.43-12.37l21.15,7.9l-0.03-0.2l6.84,0.01v-0.44
				l-7.09-0.01v0.06l-21.16-7.91l20.4,3.2l-0.02-0.09l6.82-0.96l-0.06-0.44l-7.04,0.99l-20.41-3.21l18.83-1.68l0.14-0.02l-0.01-0.03
				l6.41-1.97l-0.13-0.42l-6.54,2.01l-18.99,1.7l16.78-6.57l0.1-0.06l0-0.01l6-2.91l-0.19-0.4l-6.12,2.97l-0.06,0.04l-16.75,6.56
				l14.13-11.29l0.08-0.06l-0.04-0.06l5.52-3.78l-0.25-0.37l-5.75,3.93l0.05,0.08l-13.95,11.14l10.98-15.62l0.02-0.05l4.91-4.71
				l-0.31-0.32l-5.07,4.85l0.03,0.03L107.4,41.5l7.47-19.38l0.03-0.07l-0.01-0.01l4.23-5.43l-0.35-0.27l-4.19,5.39l-0.02-0.02
				l-0.03,0.07l-0.09,0.12l0.04,0.03l-7.34,19.05l3.76-22.44l0.01-0.05l0.15,0.08l3.45-6.12l-0.39-0.22l-3.42,6.07l-0.18-0.14
				l-3.73,22.27l0-24.72l2.75-6.66l-0.41-0.17l-2.71,6.55l-0.07-0.04l0,24.53l-3.66-26.11l1.97-7.2L104.2,6.5l-1.92,7.02l-0.12-0.04
				l3.65,26.04L98.66,12.7l1.25-7.29l-0.44-0.07l-1.22,7.13l-0.11-0.02l7.15,26.8L94.89,12.47l0.58-7.25l-0.44-0.04l-0.58,7.18
				l-0.08,0.01l0.06,0.16l-0.01,0.14l0.07,0.01l10.28,26.49l-13.36-26.1l-0.02,0.01l0.07-6.94l-0.44,0l-0.08,7.3l0.16,0l13.24,25.86
				L88.56,14.9l0.06-0.05l-0.09,0.01l-0.09-0.14l-0.03,0.02l-0.4-6.63l-0.44,0.03L88,15.11l0.17-0.01l15.85,24.51L86.15,17.39
				l0.02-0.03l-0.04,0.01l-0.03-0.04l-0.92-6.22l-0.44,0.06l0.95,6.49l0.09-0.01l18.04,22.45L84.45,20.75l0.09-0.02L83.1,15
				l-0.43,0.11l1.42,5.66c-0.01,0.02-0.02,0.04-0.02,0.06l-0.04,0.12l19.77,19.73L83.4,24.75l0.01,0l-1.58-5.03l-0.42,0.13
				l1.58,5.03L83,24.87l-0.02,0.12l20.92,16.33L82.87,29.18l-1.47-4.23l-0.42,0.15l1.58,4.54l0.14-0.05l21.42,12.36L83.35,34.2
				l-1.7-3.32l-0.39,0.2l1.76,3.43l0.02-0.01l0.01,0.05l21.37,7.99l-20.08-3.15l-1.28-2.28l-0.39,0.22l1.38,2.45l0.08-0.04
				l0.02,0.07l20.59,3.23l-18.67,1.67l-0.96-1.31l-0.36,0.26l1.16,1.58l0.12-0.09l19-1.7l-16.6,6.5l-0.66-0.33l-0.2,0.4l0.72,0.36
				l0.05,0.08l16.93-6.63L91.13,55.13l-0.08,0.06l0.04,0.07l-0.05-0.01l-0.11,0.74l0.44,0.06l0.07-0.52l0.1,0.01l-0.08-0.12
				l14-11.18L94.49,59.86l-0.05,0.07L94.49,60l-0.08,0.04l0.67,1.56l0.41-0.18l-0.59-1.37l10.78-15.34l-7.47,19.38l-0.11,0.06
				l1.43,2.41l0.38-0.23l-1.27-2.14l7.31-18.96l-3.76,22.44l-0.01,0.07l0.06,0.04l-0.09,0.06l2.12,2.92l0.36-0.26l-2-2.75
				l3.68-21.97l0,24.78l0.01,0.01l-0.03,0.03l2.87,3.47l0.34-0.28l-2.75-3.32V46.28l3.67,26.14l-0.13,0.13l3.86,3.88l0.32-0.31
				l-3.58-3.6l-3.62-25.82l7.18,26.91l-0.04,0.05l4.51,4.02l0.3-0.33l-4.34-3.87l-7.07-26.51l10.41,26.84l0.01,0.03v0l0.02,0.05
				l0.04,0l4.96,3.97l0.28-0.35l-4.84-3.87l0.01-0.01l-0.01,0l-0.07-0.06L108.3,47.03l13.3,25.99l-0.04,0.05l5.69,3.83l0.25-0.37
				l-5.49-3.7l-0.01-0.01l0.05-0.08l-0.08,0.03l-13.24-25.86l15.83,24.48l0.07,0.1l0.07-0.05l6.03,3.47l0.22-0.38l-5.99-3.45
				l0.13-0.23l-0.23,0.18l-0.01,0l-15.8-24.43L127.07,69l0.04-0.06l6.39,2.9l0.18-0.4l-6.44-2.93l-18-22.39l19.47,19.42l0,0.01
				l0.17,0.16l0.03-0.09l6.68,2.5l0.15-0.42l-6.78-2.54l-19.69-19.64l20.73,16.19l0.02-0.14l6.83,1.71l0.11-0.43l-6.89-1.73
				l-0.02,0.06l-20.88-16.31l21.08,12.17L130.42,57.13z"/>
			<g>
				<path class="st33" d="M117.16,74.02c-3.35,0-6.96-1.1-10.73-3.28c-13.17-7.6-23.89-26.16-23.89-41.37
					c0-5.25,1.28-9.62,3.7-12.66c2.37-2.97,5.72-4.54,9.68-4.54c3.35,0,6.96,1.1,10.73,3.28c13.17,7.6,23.89,26.16,23.89,41.37
					c0,5.25-1.28,9.62-3.7,12.66C124.47,72.46,121.12,74.02,117.16,74.02z M95.92,12.62c-7.98,0-12.93,6.42-12.93,16.75
					c0,15.07,10.62,33.45,23.66,40.99c3.7,2.14,7.23,3.22,10.51,3.22c7.98,0,12.94-6.42,12.94-16.75
					c0-15.07-10.62-33.45-23.66-40.99C102.73,13.71,99.2,12.62,95.92,12.62z"/>
			</g>
			<g>
				<path class="st33" d="M114.3,65.75c-2.46,0-5.11-0.81-7.87-2.4c-9.64-5.56-17.48-19.14-17.48-30.27c0-3.85,0.94-7.06,2.72-9.28
					c1.74-2.18,4.2-3.34,7.12-3.34c2.46,0,5.11,0.81,7.87,2.4c9.64,5.56,17.48,19.14,17.48,30.27c0,3.85-0.94,7.06-2.72,9.28
					C119.67,64.6,117.21,65.75,114.3,65.75z M98.78,20.9c-5.79,0-9.39,4.67-9.39,12.18c0,10.99,7.74,24.39,17.26,29.89
					c2.69,1.55,5.27,2.34,7.65,2.34c5.79,0,9.39-4.67,9.39-12.18c0-10.99-7.74-24.39-17.26-29.89
					C103.74,21.69,101.17,20.9,98.78,20.9z"/>
			</g>
			<g>
				<linearGradient id="SVGID_25_" gradientUnits="userSpaceOnUse" x1="110.154" y1="54.9022" x2="102.2951" y2="33.5398">
					<stop  offset="0" style="stop-color:#2079C9"/>
					<stop  offset="1" style="stop-color:#84C5FF"/>
				</linearGradient>
				<path class="st34" d="M98.25,31.46l1.18-0.67c1.83-1.04,4.36-0.88,7.15,0.73c5.6,3.24,10.15,11.11,10.15,17.58
					c0,3.26-1.15,5.54-3.01,6.59l-1.18,0.67c-1.83,1.04-4.36,0.88-7.14-0.73c-5.6-3.24-10.15-11.11-10.15-17.58
					C95.25,34.8,96.4,32.52,98.25,31.46z"/>
				<linearGradient id="SVGID_26_" gradientUnits="userSpaceOnUse" x1="102.9753" y1="55.0533" x2="107.7242" y2="33.2192">
					<stop  offset="0" style="stop-color:#2079C9"/>
					<stop  offset="1" style="stop-color:#84C5FF"/>
				</linearGradient>
				<path class="st35" d="M95.25,38.05c0,6.47,4.54,14.34,10.15,17.58c2.79,1.61,5.31,1.77,7.14,0.73c1.86-1.05,3.01-3.33,3.01-6.59
					c0-6.47-4.54-14.34-10.15-17.58c-2.79-1.61-5.32-1.77-7.15-0.73C96.4,32.52,95.25,34.8,95.25,38.05z"/>
				<linearGradient id="SVGID_27_" gradientUnits="userSpaceOnUse" x1="104.2709" y1="54.0208" x2="106.5358" y2="30.2165">
					<stop  offset="0" style="stop-color:#388CD9"/>
					<stop  offset="1" style="stop-color:#6DB0ED"/>
				</linearGradient>
				<path class="st36" d="M96.15,38.67c0,5.79,4.07,12.83,9.08,15.73c2.49,1.44,4.75,1.58,6.39,0.65c1.66-0.94,2.69-2.98,2.69-5.9
					c0-5.79-4.07-12.83-9.08-15.73c-2.5-1.44-4.76-1.58-6.4-0.65C97.18,33.72,96.15,35.76,96.15,38.67z"/>
			</g>
		</g>
	</g>
</g>
</svg>
