<?xml version="1.0" encoding="utf-8"?>
<!-- Generator: Adobe Illustrator 25.3.1, SVG Export Plug-In . SVG Version: 6.00 Build 0)  -->
<svg version="1.1" id="圖層_1" xmlns="http://www.w3.org/2000/svg" xmlns:xlink="http://www.w3.org/1999/xlink" x="0px" y="0px"
	 viewBox="0 0 240 240" style="enable-background:new 0 0 240 240;" xml:space="preserve">
<style type="text/css">
	.st0{fill:#231F20;}
	.st1{fill:#D1D3D4;}
	.st2{fill:#E6E7E8;}
	.st3{fill:#F1F2F2;}
	.st4{fill:#A7A9AC;}
	.st5{fill:#BCBEC0;}
	.st6{fill:#141414;}
	.st7{opacity:0.32;fill:#939598;}
</style>
<g>
	<g>
		<g>
			<g>
				<g>
					<path class="st0" d="M128.98,222.84l0-0.2v-0.01l0-25.78l-1.48,0.31c-0.27-0.23-0.58-0.44-0.93-0.64
						c-3.2-1.85-8.37-1.86-11.55-0.02c-0.45,0.26-0.84,0.55-1.16,0.85l-1.21-0.57l0,25.75l0,0c-0.03,1.23,0.77,2.47,2.41,3.42
						c3.2,1.85,8.37,1.86,11.55,0.02c1.5-0.87,2.29-2,2.37-3.14L128.98,222.84z"/>
					<path class="st1" d="M126.6,200.28c-3.18,1.84-8.35,1.83-11.55-0.02c-3.2-1.85-3.22-4.83-0.04-6.67
						c3.18-1.84,8.35-1.83,11.55,0.02C129.76,195.46,129.78,198.44,126.6,200.28z"/>
				</g>
				<g>
					<path class="st0" d="M197.95,195.11v-0.2v-0.01l0-25.78l-1.48,0.31c-0.27-0.23-0.58-0.44-0.93-0.64
						c-3.2-1.85-8.37-1.86-11.55-0.02c-0.45,0.26-0.84,0.55-1.16,0.85l-1.21-0.57l0,25.75l0,0c-0.03,1.23,0.77,2.47,2.41,3.42
						c3.2,1.85,8.37,1.86,11.55,0.02c1.5-0.87,2.29-2,2.37-3.14L197.95,195.11z"/>
					<path class="st1" d="M195.58,172.55c-3.18,1.84-8.35,1.83-11.55-0.02c-3.2-1.85-3.22-4.83-0.04-6.67
						c3.18-1.84,8.35-1.83,11.55,0.02C198.74,167.73,198.76,170.71,195.58,172.55z"/>
				</g>
				<g>
					<path class="st0" d="M61.49,195.11v-0.2v-0.01l0-25.78l-1.48,0.31c-0.27-0.23-0.58-0.44-0.93-0.64
						c-3.2-1.85-8.37-1.86-11.55-0.02c-0.45,0.26-0.84,0.55-1.16,0.85l-1.21-0.57l0,25.75l0,0c-0.03,1.23,0.77,2.47,2.41,3.42
						c3.2,1.85,8.37,1.86,11.55,0.02c1.5-0.87,2.29-2,2.37-3.14L61.49,195.11z"/>
					<path class="st1" d="M59.12,172.55c-3.18,1.84-8.35,1.83-11.55-0.02s-3.22-4.83-0.04-6.67c3.18-1.84,8.35-1.83,11.55,0.02
						C62.28,167.73,62.3,170.71,59.12,172.55z"/>
				</g>
			</g>
			<g>
				<path class="st2" d="M42.48,36.29c0,0,0.24,17.28,1.46,20.03c1.22,2.75,9.5-16.8,9.5-16.8L42.48,36.29z"/>
				<g>
					<path class="st3" d="M48.19,28.5c4.99-2.9,12.06-3.96,18.88-2.9l13.24,2.05c-0.95,0.29-1.87,0.62-2.79,0.95
						c-5.39,1.87-10.52,4.14-15.18,6.86c-5.54,3.19-10.12,6.78-13.68,10.6c-0.55,0.55-1.06,1.14-1.58,1.72l-3.92-8.4
						C41.33,35.46,43.2,31.36,48.19,28.5z"/>
					<path class="st1" d="M66.48,26.88l11.04,1.72c-5.39,1.87-10.52,4.14-15.18,6.86c-5.54,3.19-10.12,6.78-13.68,10.6l-3.26-7
						C41.92,31.65,53.61,24.87,66.48,26.88z"/>
				</g>
				
					<ellipse transform="matrix(5.419517e-03 -1 1 5.419517e-03 49.2588 189.7102)" class="st1" cx="120" cy="70.09" rx="46.39" ry="80.36"/>
				<g>
					<g>
						
							<ellipse transform="matrix(5.419517e-03 -1 1 5.419517e-03 51.0973 187.8816)" class="st2" cx="120" cy="68.25" rx="46.39" ry="80.36"/>
						<polygon class="st2" points="200.35,59.21 200.31,70.02 162.89,67.71 						"/>
						<polygon class="st2" points="39.65,59.44 39.72,70.02 54.55,60.97 						"/>
					</g>
					<path class="st3" d="M177,91.97c-31.28,18.06-82.16,17.97-113.64-0.21C31.88,73.59,31.72,44.21,63,26.15
						c31.28-18.06,82.16-17.97,113.64,0.21c15.74,9.09,23.65,20.97,23.71,32.85C200.42,71.08,192.64,82.94,177,91.97z"/>
				</g>
				<g>
					<path class="st2" d="M177,103c-31.28,18.06-82.16,17.97-113.64-0.21C49.01,94.51,41.19,83.9,39.87,73.1l-0.13,91.97
						c-0.11,1.39-0.11,2.78-0.01,4.16l0,0.12h0.01c0.88,11.21,8.75,22.3,23.62,30.89c31.48,18.17,82.36,18.27,113.64,0.21
						c14.91-8.61,22.66-19.78,23.3-31.09h0.02v-0.45c0.03-0.72,0.03-1.44,0-2.16V71.85l-0.01,0C199.68,83.18,191.93,94.38,177,103z"
						/>
					<path class="st2" d="M191.15,109.95c-4.99,2.9-12.06,3.96-18.88,2.9l-13.24-2.05c0.95-0.29,1.87-0.62,2.79-0.95
						c5.39-1.87,10.52-4.14,15.18-6.86c5.54-3.19,10.12-6.78,13.68-10.6c0.55-0.55,1.06-1.14,1.58-1.72l3.92,8.4
						C198,102.99,196.13,107.09,191.15,109.95z"/>
					<g>
						<path class="st3" d="M191.15,109.95c-4.99,2.9-12.06,3.96-18.88,2.9l-13.24-2.05c0.95-0.29,1.87-0.62,2.79-0.95
							c5.39-1.87,10.52-4.14,15.18-6.86c5.54-3.19,10.12-6.78,13.68-10.6c0.55-0.55,1.06-1.14,1.58-1.72l3.92,8.4
							C198,102.99,196.13,107.09,191.15,109.95z"/>
						<path class="st1" d="M172.85,111.57l-11.04-1.72c5.39-1.87,10.52-4.14,15.18-6.86c5.54-3.19,10.12-6.78,13.68-10.6l3.26,7
							C197.42,106.8,185.72,113.58,172.85,111.57z"/>
					</g>
				</g>
				<g>
					<path class="st0" d="M200.31,165.8v4.61c0.04,0.72,0.04,1.43,0,2.15v0.44h-0.02c-0.63,11.33-8.38,22.49-23.29,31.11
						c-31.27,18.05-82.15,17.96-113.64-0.22c-14.87-8.59-22.74-19.67-23.61-30.89h-0.02v-0.11c-0.09-1.4-0.09-2.78,0.02-4.17v-2.91
						c0.94,11.16,8.82,22.19,23.61,30.72c31.49,18.18,82.37,18.28,113.64,0.22C191.85,188.18,199.61,177.05,200.31,165.8z"/>
				</g>
				<g>
					<path class="st3" d="M92.16,120.86l-0.02,36.77c-10.5-2.26-20.33-5.83-28.79-10.72c-7.04-4.06-12.52-8.7-16.42-13.64V96.52
						c0.24,0.29,0.5,0.61,0.74,0.9c3.86,4.6,9.06,8.92,15.68,12.72C71.81,115.03,81.66,118.6,92.16,120.86z"/>
					<g>
						<path class="st4" d="M58.44,135.88c-0.04-0.01-0.07-0.02-0.11-0.03c-0.03-0.01-0.07-0.01-0.1-0.02
							c-0.04-0.01-0.08-0.01-0.13-0.02c-0.02,0-0.05-0.01-0.07-0.01c-0.05,0-0.1,0-0.15,0c-0.01,0-0.02,0-0.04,0
							c-0.06,0-0.12,0.01-0.18,0.02c-0.01,0-0.03,0.01-0.04,0.01c-0.04,0.01-0.09,0.02-0.13,0.04c-0.01,0-0.03,0.01-0.04,0.01
							c-0.05,0.02-0.11,0.05-0.16,0.07l0,0l0,0l1.28-0.75c0,0,0.01-0.01,0.01-0.01c0.04-0.02,0.08-0.04,0.12-0.06
							c0.01,0,0.02-0.01,0.02-0.01c0.01-0.01,0.03-0.01,0.04-0.01c0.02-0.01,0.04-0.02,0.06-0.02c0.02-0.01,0.05-0.01,0.07-0.02
							c0.01,0,0.03-0.01,0.04-0.01c0.01,0,0.02,0,0.02-0.01c0.05-0.01,0.09-0.01,0.14-0.02c0,0,0.01,0,0.01,0c0.01,0,0.03,0,0.04,0
							c0.04,0,0.07,0,0.11,0c0.01,0,0.03,0,0.04,0c0.02,0,0.05,0,0.07,0.01c0.02,0,0.04,0,0.07,0.01c0.02,0,0.04,0.01,0.06,0.01
							c0.03,0.01,0.06,0.01,0.1,0.02c0.02,0,0.03,0.01,0.05,0.01c0.02,0,0.04,0.01,0.05,0.02c0.06,0.02,0.11,0.04,0.17,0.06
							c0.02,0.01,0.04,0.01,0.06,0.02c0.01,0,0.02,0.01,0.03,0.02c0.1,0.04,0.2,0.09,0.3,0.15c0.15,0.09,0.3,0.19,0.45,0.31
							c0.05,0.04,0.09,0.08,0.14,0.12c0.07,0.06,0.14,0.12,0.21,0.18c0.03,0.03,0.06,0.06,0.09,0.1c0.03,0.03,0.05,0.06,0.08,0.08
							c0.03,0.03,0.06,0.06,0.09,0.1c0.07,0.08,0.13,0.15,0.19,0.23c0.02,0.03,0.04,0.06,0.06,0.09c0.01,0.02,0.02,0.03,0.03,0.04
							c0.02,0.03,0.04,0.05,0.06,0.08c0.05,0.07,0.09,0.14,0.14,0.2c0.04,0.07,0.08,0.13,0.12,0.2c0,0.01,0.01,0.01,0.01,0.02
							c0,0.01,0.01,0.01,0.01,0.02c0.03,0.06,0.06,0.11,0.09,0.17c0.04,0.07,0.07,0.13,0.1,0.2c0.03,0.06,0.06,0.12,0.09,0.18
							c0,0,0,0.01,0,0.01c0,0,0,0.01,0.01,0.01c0.03,0.07,0.06,0.14,0.09,0.21c0.03,0.07,0.06,0.15,0.08,0.22
							c0.01,0.04,0.02,0.07,0.03,0.11c0.01,0.02,0.01,0.03,0.02,0.05c0.01,0.03,0.02,0.05,0.03,0.08c0.03,0.09,0.05,0.18,0.07,0.27
							c0.01,0.06,0.02,0.11,0.03,0.16c0.01,0.03,0.01,0.06,0.02,0.09c0,0.03,0.01,0.05,0.01,0.08c0.02,0.16,0.03,0.31,0.03,0.46
							c0,0.75-0.26,1.28-0.68,1.53l-1.28,0.75c0.42-0.25,0.69-0.78,0.68-1.53c0-0.18-0.02-0.36-0.05-0.54
							c0-0.03-0.01-0.06-0.02-0.09c-0.03-0.17-0.07-0.34-0.12-0.52c-0.01-0.02-0.01-0.03-0.02-0.05c-0.06-0.19-0.13-0.38-0.21-0.56
							c0,0,0-0.01,0-0.01c-0.08-0.19-0.18-0.37-0.28-0.55c0-0.01-0.01-0.01-0.01-0.02c-0.1-0.17-0.22-0.34-0.33-0.51
							c-0.01-0.01-0.02-0.03-0.03-0.04c-0.11-0.15-0.23-0.28-0.35-0.42c-0.03-0.03-0.05-0.06-0.08-0.08c-0.1-0.1-0.2-0.19-0.3-0.28
							c-0.05-0.04-0.09-0.08-0.14-0.12c-0.15-0.11-0.29-0.22-0.45-0.31c-0.1-0.06-0.2-0.11-0.3-0.15c-0.03-0.01-0.06-0.03-0.09-0.04
							C58.55,135.91,58.49,135.89,58.44,135.88z"/>
						<g>
							<path class="st5" d="M59,136.12c-1.32-0.75-2.38-0.14-2.38,1.37c0,1.51,1.07,3.34,2.39,4.09c1.32,0.75,2.38,0.14,2.38-1.37
								C61.39,138.7,60.32,136.87,59,136.12z"/>
						</g>
					</g>
					<g>
						<path class="st4" d="M69.48,141.93c-0.04-0.01-0.07-0.02-0.11-0.03c-0.03-0.01-0.07-0.01-0.1-0.02
							c-0.04-0.01-0.08-0.01-0.13-0.02c-0.02,0-0.05-0.01-0.07-0.01c-0.05,0-0.1,0-0.15,0c-0.01,0-0.02,0-0.04,0
							c-0.06,0-0.12,0.01-0.18,0.02c-0.01,0-0.03,0.01-0.04,0.01c-0.04,0.01-0.09,0.02-0.13,0.04c-0.01,0-0.03,0.01-0.04,0.01
							c-0.05,0.02-0.11,0.05-0.16,0.07l0,0l0,0l1.28-0.75c0,0,0.01-0.01,0.01-0.01c0.04-0.02,0.08-0.04,0.12-0.06
							c0.01,0,0.02-0.01,0.02-0.01c0.01-0.01,0.03-0.01,0.04-0.01c0.02-0.01,0.04-0.02,0.06-0.02c0.02-0.01,0.05-0.01,0.07-0.02
							c0.01,0,0.03-0.01,0.04-0.01c0.01,0,0.01,0,0.02-0.01c0.05-0.01,0.09-0.01,0.14-0.02c0,0,0.01,0,0.01,0c0.01,0,0.03,0,0.04,0
							c0.04,0,0.07,0,0.11,0c0.01,0,0.03,0,0.04,0c0.02,0,0.05,0,0.07,0.01c0.02,0,0.04,0,0.07,0.01c0.02,0,0.04,0.01,0.06,0.01
							c0.03,0.01,0.06,0.01,0.1,0.02c0.02,0,0.03,0.01,0.05,0.01c0.02,0,0.04,0.01,0.05,0.02c0.06,0.02,0.11,0.04,0.17,0.06
							c0.02,0.01,0.04,0.01,0.06,0.02c0.01,0,0.02,0.01,0.03,0.02c0.1,0.04,0.2,0.09,0.3,0.15c0.15,0.09,0.3,0.19,0.45,0.31
							c0.05,0.04,0.09,0.08,0.14,0.12c0.07,0.06,0.14,0.12,0.21,0.18c0.03,0.03,0.06,0.06,0.09,0.1c0.03,0.03,0.05,0.06,0.08,0.08
							c0.03,0.03,0.06,0.06,0.09,0.1c0.07,0.08,0.13,0.15,0.19,0.23c0.02,0.03,0.04,0.06,0.06,0.09c0.01,0.02,0.02,0.03,0.03,0.04
							c0.02,0.03,0.04,0.05,0.06,0.08c0.05,0.07,0.09,0.14,0.14,0.21c0.04,0.07,0.08,0.13,0.12,0.2c0,0.01,0.01,0.01,0.01,0.02
							c0,0.01,0.01,0.01,0.01,0.02c0.03,0.06,0.06,0.11,0.09,0.17c0.04,0.07,0.07,0.13,0.1,0.2c0.03,0.06,0.06,0.12,0.09,0.18
							c0,0,0,0.01,0.01,0.01c0,0,0,0.01,0,0.01c0.03,0.07,0.06,0.14,0.09,0.21c0.03,0.07,0.06,0.15,0.08,0.22
							c0.01,0.04,0.02,0.07,0.03,0.11c0.01,0.02,0.01,0.03,0.02,0.05c0.01,0.03,0.02,0.05,0.03,0.08c0.03,0.09,0.05,0.18,0.07,0.27
							c0.01,0.05,0.02,0.11,0.03,0.16c0.01,0.03,0.01,0.06,0.02,0.09c0,0.03,0.01,0.05,0.01,0.08c0.02,0.16,0.03,0.31,0.03,0.46
							c0,0.75-0.26,1.28-0.68,1.53l-1.28,0.75c0.42-0.25,0.69-0.78,0.68-1.53c0-0.18-0.02-0.36-0.05-0.54
							c0-0.03-0.01-0.06-0.02-0.09c-0.03-0.17-0.07-0.34-0.12-0.52c0-0.02-0.01-0.03-0.02-0.05c-0.06-0.19-0.13-0.38-0.21-0.56
							c0,0,0-0.01,0-0.01c-0.08-0.19-0.18-0.37-0.28-0.55c0-0.01-0.01-0.01-0.01-0.02c-0.1-0.17-0.22-0.34-0.33-0.51
							c-0.01-0.02-0.02-0.03-0.03-0.04c-0.11-0.15-0.23-0.28-0.35-0.42c-0.03-0.03-0.05-0.06-0.08-0.08c-0.1-0.1-0.2-0.19-0.3-0.28
							c-0.05-0.04-0.09-0.08-0.14-0.12c-0.15-0.11-0.3-0.22-0.45-0.31c-0.1-0.06-0.2-0.11-0.3-0.15c-0.03-0.01-0.06-0.03-0.09-0.04
							C69.59,141.96,69.54,141.94,69.48,141.93z"/>
						<g>
							<path class="st5" d="M70.04,142.17c-1.32-0.75-2.38-0.14-2.38,1.37c0,1.51,1.07,3.34,2.39,4.09
								c1.32,0.75,2.38,0.14,2.38-1.37C72.43,144.75,71.36,142.92,70.04,142.17z"/>
						</g>
					</g>
					<g>
						<path class="st4" d="M84.05,127.98c-0.04-0.01-0.07-0.02-0.11-0.03c-0.03-0.01-0.07-0.01-0.1-0.02
							c-0.04-0.01-0.08-0.01-0.13-0.02c-0.02,0-0.05-0.01-0.07-0.01c-0.05,0-0.1,0-0.15,0c-0.01,0-0.02,0-0.04,0
							c-0.06,0-0.12,0.01-0.18,0.02c-0.01,0-0.03,0.01-0.04,0.01c-0.04,0.01-0.09,0.02-0.13,0.04c-0.01,0-0.03,0.01-0.04,0.01
							c-0.05,0.02-0.11,0.05-0.16,0.07l0,0l0,0l1.28-0.75c0,0,0.01-0.01,0.01-0.01c0.04-0.02,0.08-0.04,0.12-0.06
							c0.01,0,0.02-0.01,0.02-0.01c0.01-0.01,0.03-0.01,0.04-0.01c0.02-0.01,0.04-0.02,0.06-0.02c0.02-0.01,0.05-0.01,0.07-0.02
							c0.01,0,0.03-0.01,0.04-0.01c0.01,0,0.02,0,0.02-0.01c0.05-0.01,0.09-0.01,0.14-0.02c0,0,0.01,0,0.01,0c0.01,0,0.03,0,0.04,0
							c0.04,0,0.07,0,0.11,0c0.01,0,0.03,0,0.04,0c0.02,0,0.05,0,0.07,0.01c0.02,0,0.04,0,0.07,0.01c0.02,0,0.04,0.01,0.06,0.01
							c0.03,0.01,0.06,0.01,0.1,0.02c0.02,0,0.03,0.01,0.05,0.01c0.02,0,0.04,0.01,0.05,0.02c0.06,0.02,0.11,0.04,0.17,0.06
							c0.02,0.01,0.04,0.01,0.06,0.02c0.01,0,0.02,0.01,0.03,0.02c0.1,0.04,0.2,0.09,0.3,0.15c0.15,0.09,0.3,0.19,0.45,0.31
							c0.05,0.04,0.09,0.08,0.14,0.12c0.07,0.06,0.14,0.12,0.21,0.18c0.03,0.03,0.06,0.06,0.09,0.1c0.03,0.03,0.05,0.06,0.08,0.08
							c0.03,0.03,0.06,0.06,0.09,0.1c0.07,0.08,0.13,0.15,0.19,0.23c0.02,0.03,0.04,0.06,0.06,0.09c0.01,0.02,0.02,0.03,0.03,0.04
							c0.02,0.03,0.04,0.06,0.06,0.08c0.05,0.07,0.09,0.14,0.14,0.2c0.04,0.07,0.08,0.13,0.12,0.2c0,0.01,0.01,0.01,0.01,0.02
							c0,0.01,0.01,0.01,0.01,0.02c0.03,0.06,0.06,0.11,0.09,0.17c0.04,0.07,0.07,0.13,0.1,0.2c0.03,0.06,0.06,0.12,0.09,0.18
							c0,0,0,0.01,0.01,0.01c0,0,0,0.01,0,0.01c0.03,0.07,0.06,0.15,0.09,0.22c0.03,0.07,0.06,0.15,0.08,0.22
							c0.01,0.04,0.02,0.07,0.03,0.11c0.01,0.02,0.01,0.03,0.02,0.05c0.01,0.03,0.02,0.05,0.03,0.08c0.03,0.09,0.05,0.18,0.07,0.27
							c0.01,0.05,0.02,0.11,0.03,0.16c0.01,0.03,0.01,0.06,0.02,0.09c0,0.03,0.01,0.05,0.01,0.08c0.02,0.16,0.03,0.31,0.03,0.47
							c0,0.75-0.26,1.28-0.68,1.53l-1.28,0.75c0.42-0.25,0.69-0.78,0.68-1.53c0-0.18-0.02-0.36-0.05-0.54
							c0-0.03-0.01-0.06-0.02-0.09c-0.03-0.17-0.07-0.34-0.12-0.52c-0.01-0.02-0.01-0.03-0.02-0.05c-0.06-0.19-0.13-0.38-0.21-0.56
							c0,0,0-0.01,0-0.01c-0.08-0.19-0.18-0.37-0.28-0.55c0-0.01-0.01-0.01-0.01-0.02c-0.1-0.18-0.22-0.34-0.33-0.51
							c-0.01-0.01-0.02-0.03-0.03-0.04c-0.11-0.15-0.23-0.28-0.35-0.42c-0.03-0.03-0.05-0.06-0.08-0.08c-0.1-0.1-0.2-0.19-0.3-0.28
							c-0.05-0.04-0.09-0.08-0.14-0.12c-0.15-0.11-0.29-0.22-0.45-0.31c-0.1-0.06-0.2-0.11-0.3-0.15c-0.03-0.01-0.06-0.03-0.09-0.04
							C84.16,128.01,84.1,127.99,84.05,127.98z"/>
						<g>
							<path class="st5" d="M84.61,128.22c-1.32-0.75-2.38-0.14-2.38,1.37c0,1.51,1.07,3.34,2.39,4.09
								c1.32,0.75,2.38,0.14,2.38-1.37C87,130.8,85.93,128.97,84.61,128.22z"/>
						</g>
					</g>
					<g>
						<path class="st4" d="M84.05,138.06c-0.04-0.01-0.07-0.02-0.11-0.03c-0.03-0.01-0.07-0.01-0.1-0.02
							c-0.04-0.01-0.08-0.01-0.13-0.02c-0.02,0-0.05-0.01-0.07-0.01c-0.05,0-0.1,0-0.15,0c-0.01,0-0.02,0-0.04,0
							c-0.06,0-0.12,0.01-0.18,0.02c-0.01,0-0.03,0.01-0.04,0.01c-0.04,0.01-0.09,0.02-0.13,0.04c-0.01,0-0.03,0.01-0.04,0.01
							c-0.05,0.02-0.11,0.05-0.16,0.07l0,0l0,0l1.28-0.75c0,0,0.01-0.01,0.01-0.01c0.04-0.02,0.08-0.04,0.12-0.06
							c0.01,0,0.02-0.01,0.02-0.01c0.01-0.01,0.03-0.01,0.04-0.01c0.02-0.01,0.04-0.02,0.06-0.02c0.02-0.01,0.05-0.01,0.07-0.02
							c0.01,0,0.03-0.01,0.04-0.01c0.01,0,0.02,0,0.02-0.01c0.05-0.01,0.09-0.01,0.14-0.02c0,0,0.01,0,0.01,0c0.01,0,0.03,0,0.04,0
							c0.04,0,0.07,0,0.11,0c0.01,0,0.03,0,0.04,0c0.02,0,0.05,0,0.07,0.01c0.02,0,0.04,0,0.07,0.01c0.02,0,0.04,0.01,0.06,0.01
							c0.03,0.01,0.06,0.01,0.1,0.02c0.02,0,0.03,0.01,0.05,0.01c0.02,0,0.04,0.01,0.05,0.02c0.06,0.02,0.11,0.04,0.17,0.06
							c0.02,0.01,0.04,0.01,0.06,0.02c0.01,0,0.02,0.01,0.03,0.02c0.1,0.04,0.2,0.09,0.3,0.15c0.15,0.09,0.3,0.19,0.45,0.31
							c0.05,0.04,0.09,0.08,0.14,0.12c0.07,0.06,0.14,0.12,0.21,0.18c0.03,0.03,0.06,0.06,0.09,0.1c0.03,0.03,0.05,0.06,0.08,0.08
							c0.03,0.03,0.06,0.06,0.09,0.1c0.07,0.08,0.13,0.15,0.19,0.23c0.02,0.03,0.04,0.06,0.06,0.09c0.01,0.02,0.02,0.03,0.03,0.04
							c0.02,0.03,0.04,0.05,0.06,0.08c0.05,0.07,0.09,0.14,0.14,0.2c0.04,0.07,0.08,0.13,0.12,0.2c0,0.01,0.01,0.01,0.01,0.02
							c0,0.01,0.01,0.01,0.01,0.02c0.03,0.06,0.06,0.11,0.09,0.17c0.04,0.07,0.07,0.13,0.1,0.2c0.03,0.06,0.06,0.12,0.09,0.18
							c0,0,0,0.01,0.01,0.01c0,0,0,0.01,0,0.01c0.03,0.07,0.06,0.14,0.09,0.21c0.03,0.07,0.06,0.15,0.08,0.22
							c0.01,0.04,0.02,0.07,0.03,0.11c0.01,0.02,0.01,0.03,0.02,0.05c0.01,0.03,0.02,0.05,0.03,0.08c0.03,0.09,0.05,0.18,0.07,0.27
							c0.01,0.06,0.02,0.11,0.03,0.16c0.01,0.03,0.01,0.06,0.02,0.09c0,0.03,0.01,0.05,0.01,0.08c0.02,0.16,0.03,0.31,0.03,0.46
							c0,0.75-0.26,1.28-0.68,1.53l-1.28,0.75c0.42-0.25,0.69-0.78,0.68-1.53c0-0.18-0.02-0.36-0.05-0.54
							c0-0.03-0.01-0.06-0.02-0.09c-0.03-0.17-0.07-0.34-0.12-0.52c-0.01-0.02-0.01-0.03-0.02-0.05c-0.06-0.19-0.13-0.38-0.21-0.56
							c0,0,0-0.01,0-0.01c-0.08-0.19-0.18-0.37-0.28-0.55c0-0.01-0.01-0.01-0.01-0.02c-0.1-0.17-0.22-0.34-0.33-0.51
							c-0.01-0.01-0.02-0.03-0.03-0.04c-0.11-0.15-0.23-0.28-0.35-0.42c-0.03-0.03-0.05-0.06-0.08-0.08c-0.1-0.1-0.2-0.19-0.3-0.28
							c-0.05-0.04-0.09-0.08-0.14-0.12c-0.15-0.11-0.29-0.22-0.45-0.31c-0.1-0.06-0.2-0.11-0.3-0.15c-0.03-0.01-0.06-0.03-0.09-0.04
							C84.16,138.1,84.1,138.08,84.05,138.06z"/>
						<g>
							<path class="st5" d="M84.61,138.3c-1.32-0.75-2.38-0.14-2.38,1.37c0,1.51,1.07,3.34,2.39,4.09c1.32,0.75,2.38,0.14,2.38-1.37
								C87,140.89,85.93,139.06,84.61,138.3z"/>
						</g>
					</g>
					<g>
						<path class="st4" d="M49.2,111.69c-0.04-0.01-0.07-0.02-0.11-0.03c-0.03-0.01-0.07-0.01-0.1-0.02
							c-0.04-0.01-0.08-0.01-0.13-0.02c-0.02,0-0.05-0.01-0.07-0.01c-0.05,0-0.1,0-0.15,0c-0.01,0-0.02,0-0.04,0
							c-0.06,0-0.12,0.01-0.18,0.02c-0.01,0-0.03,0.01-0.04,0.01c-0.04,0.01-0.09,0.02-0.13,0.04c-0.01,0-0.03,0.01-0.04,0.01
							c-0.05,0.02-0.11,0.05-0.16,0.07l0,0l0,0l1.28-0.75c0,0,0.01-0.01,0.01-0.01c0.04-0.02,0.08-0.04,0.12-0.06
							c0.01,0,0.02-0.01,0.02-0.01c0.01-0.01,0.03-0.01,0.04-0.01c0.02-0.01,0.04-0.02,0.06-0.02c0.02-0.01,0.05-0.01,0.07-0.02
							c0.01,0,0.03-0.01,0.04-0.01c0.01,0,0.02,0,0.02-0.01c0.05-0.01,0.09-0.01,0.14-0.02c0,0,0.01,0,0.01,0c0.01,0,0.02,0,0.03,0
							c0.04,0,0.07,0,0.11,0c0.01,0,0.03,0,0.04,0c0.02,0,0.05,0,0.07,0.01c0.02,0,0.04,0,0.07,0.01c0.02,0,0.04,0.01,0.06,0.01
							c0.03,0.01,0.06,0.01,0.1,0.02c0.02,0,0.03,0.01,0.05,0.01c0.02,0,0.04,0.01,0.05,0.02c0.06,0.02,0.11,0.04,0.17,0.06
							c0.02,0.01,0.04,0.01,0.06,0.02c0.01,0,0.02,0.01,0.03,0.02c0.1,0.04,0.2,0.09,0.3,0.15c0.15,0.09,0.3,0.19,0.45,0.31
							c0.05,0.04,0.09,0.08,0.14,0.12c0.07,0.06,0.14,0.12,0.21,0.18c0.03,0.03,0.06,0.06,0.09,0.1c0.03,0.03,0.05,0.06,0.08,0.08
							c0.03,0.03,0.06,0.06,0.09,0.1c0.07,0.08,0.13,0.15,0.19,0.23c0.02,0.03,0.04,0.06,0.06,0.09c0.01,0.01,0.02,0.03,0.03,0.04
							c0.02,0.03,0.04,0.05,0.06,0.08c0.05,0.07,0.09,0.14,0.14,0.2c0.04,0.07,0.08,0.13,0.12,0.2c0,0.01,0.01,0.01,0.01,0.02
							c0,0.01,0.01,0.01,0.01,0.02c0.03,0.06,0.06,0.11,0.09,0.17c0.04,0.07,0.07,0.13,0.1,0.2c0.03,0.06,0.06,0.12,0.09,0.18
							c0,0,0,0.01,0.01,0.01c0,0,0,0.01,0,0.01c0.03,0.07,0.06,0.14,0.09,0.21c0.03,0.07,0.06,0.15,0.08,0.22
							c0.01,0.04,0.02,0.07,0.04,0.11c0.01,0.02,0.01,0.03,0.02,0.05c0.01,0.03,0.02,0.05,0.03,0.08c0.03,0.09,0.05,0.18,0.07,0.27
							c0.01,0.05,0.02,0.11,0.03,0.16c0.01,0.03,0.01,0.06,0.02,0.09c0,0.03,0.01,0.05,0.01,0.08c0.02,0.16,0.03,0.31,0.03,0.46
							c0,0.75-0.26,1.28-0.68,1.53l-1.28,0.75c0.42-0.25,0.69-0.78,0.68-1.53c0-0.18-0.02-0.36-0.05-0.54
							c0-0.03-0.01-0.06-0.02-0.09c-0.03-0.17-0.07-0.34-0.12-0.52c-0.01-0.02-0.01-0.03-0.02-0.05c-0.06-0.19-0.13-0.38-0.21-0.56
							c0,0,0-0.01,0-0.01c-0.08-0.19-0.18-0.37-0.28-0.55c0-0.01-0.01-0.01-0.01-0.02c-0.1-0.17-0.22-0.34-0.33-0.51
							c-0.01-0.02-0.02-0.03-0.03-0.04c-0.11-0.15-0.23-0.28-0.35-0.42c-0.03-0.03-0.05-0.06-0.08-0.08c-0.1-0.1-0.2-0.19-0.3-0.28
							c-0.05-0.04-0.09-0.08-0.14-0.12c-0.15-0.12-0.29-0.22-0.45-0.31c-0.1-0.06-0.2-0.11-0.3-0.15c-0.03-0.01-0.06-0.03-0.09-0.04
							C49.32,111.73,49.26,111.71,49.2,111.69z"/>
						<g>
							<path class="st5" d="M49.77,111.93c-1.32-0.75-2.38-0.14-2.38,1.37c0,1.51,1.07,3.34,2.39,4.09
								c1.32,0.75,2.38,0.14,2.38-1.37C52.15,114.52,51.08,112.68,49.77,111.93z"/>
						</g>
					</g>
					<g>
						<path class="st4" d="M49.09,120.84c-0.04-0.01-0.07-0.02-0.11-0.03c-0.03-0.01-0.07-0.01-0.1-0.02
							c-0.04-0.01-0.08-0.01-0.13-0.02c-0.02,0-0.05-0.01-0.07-0.01c-0.05,0-0.1,0-0.15,0c-0.01,0-0.02,0-0.04,0
							c-0.06,0-0.12,0.01-0.18,0.02c-0.01,0-0.03,0.01-0.04,0.01c-0.04,0.01-0.09,0.02-0.13,0.04c-0.01,0-0.03,0.01-0.04,0.01
							c-0.05,0.02-0.11,0.05-0.16,0.07l0,0l0,0l1.28-0.75c0,0,0.01-0.01,0.01-0.01c0.04-0.02,0.08-0.04,0.12-0.06
							c0.01,0,0.02-0.01,0.02-0.01c0.01-0.01,0.03-0.01,0.04-0.01c0.02-0.01,0.04-0.02,0.06-0.02c0.02-0.01,0.05-0.01,0.07-0.02
							c0.01,0,0.03-0.01,0.04-0.01c0.01,0,0.01,0,0.02-0.01c0.05-0.01,0.09-0.01,0.14-0.02c0,0,0.01,0,0.01,0c0.01,0,0.02,0,0.03,0
							c0.04,0,0.07,0,0.11,0c0.01,0,0.03,0,0.04,0c0.02,0,0.05,0,0.07,0.01c0.02,0,0.04,0,0.07,0.01c0.02,0,0.04,0.01,0.06,0.01
							c0.03,0.01,0.06,0.01,0.1,0.02c0.02,0,0.03,0.01,0.05,0.01c0.02,0,0.04,0.01,0.05,0.02c0.06,0.02,0.11,0.04,0.17,0.06
							c0.02,0.01,0.04,0.01,0.06,0.02c0.01,0,0.02,0.01,0.03,0.02c0.1,0.04,0.2,0.09,0.3,0.15c0.15,0.09,0.3,0.19,0.45,0.31
							c0.05,0.04,0.09,0.08,0.14,0.12c0.07,0.06,0.14,0.12,0.21,0.18c0.03,0.03,0.06,0.06,0.09,0.1c0.03,0.03,0.05,0.06,0.08,0.08
							c0.03,0.03,0.06,0.06,0.09,0.1c0.07,0.08,0.13,0.15,0.19,0.23c0.02,0.03,0.04,0.06,0.06,0.09c0.01,0.01,0.02,0.03,0.03,0.04
							c0.02,0.03,0.04,0.05,0.06,0.08c0.05,0.07,0.09,0.14,0.14,0.2c0.04,0.07,0.08,0.13,0.12,0.2c0,0.01,0.01,0.01,0.01,0.02
							c0,0.01,0.01,0.01,0.01,0.02c0.03,0.06,0.06,0.11,0.09,0.17c0.04,0.07,0.07,0.13,0.1,0.2c0.03,0.06,0.06,0.12,0.09,0.18
							c0,0,0,0.01,0.01,0.01c0,0,0,0.01,0,0.01c0.03,0.07,0.06,0.14,0.09,0.21c0.03,0.07,0.06,0.15,0.08,0.22
							c0.01,0.04,0.02,0.07,0.03,0.11c0.01,0.02,0.01,0.03,0.02,0.05c0.01,0.03,0.02,0.05,0.03,0.08c0.03,0.09,0.05,0.18,0.07,0.27
							c0.01,0.05,0.02,0.11,0.03,0.16c0.01,0.03,0.01,0.06,0.02,0.09c0,0.03,0.01,0.05,0.01,0.08c0.02,0.16,0.03,0.31,0.03,0.47
							c0,0.75-0.26,1.28-0.68,1.53l-1.28,0.75c0.42-0.25,0.69-0.78,0.68-1.53c0-0.18-0.02-0.36-0.05-0.54
							c0-0.03-0.01-0.06-0.02-0.09c-0.03-0.17-0.07-0.34-0.12-0.52c0-0.02-0.01-0.03-0.02-0.05c-0.06-0.19-0.13-0.38-0.21-0.56
							c0,0,0-0.01,0-0.01c-0.08-0.19-0.18-0.37-0.28-0.55c0-0.01-0.01-0.01-0.01-0.02c-0.1-0.18-0.22-0.34-0.33-0.51
							c-0.01-0.02-0.02-0.03-0.03-0.04c-0.11-0.15-0.23-0.28-0.35-0.42c-0.03-0.03-0.05-0.06-0.08-0.08c-0.1-0.1-0.2-0.19-0.3-0.28
							c-0.05-0.04-0.09-0.08-0.14-0.12c-0.15-0.12-0.3-0.22-0.45-0.31c-0.1-0.06-0.2-0.11-0.3-0.15c-0.03-0.01-0.06-0.03-0.09-0.04
							C49.21,120.87,49.15,120.86,49.09,120.84z"/>
						<g>
							<path class="st5" d="M49.65,121.08c-1.32-0.75-2.38-0.14-2.38,1.37c0,1.51,1.07,3.34,2.39,4.09
								c1.32,0.75,2.38,0.14,2.38-1.37C52.04,123.66,50.97,121.83,49.65,121.08z"/>
						</g>
					</g>
					<g>
						<path class="st6" d="M79.77,125.63l-0.02,16.55c-6.23-2.04-12.1-4.6-17.41-7.67c-2.87-1.64-5.46-3.38-7.8-5.2l0.02-16.55
							c2.34,1.82,4.93,3.57,7.78,5.2C67.66,121.03,73.54,123.59,79.77,125.63z"/>
					</g>
				</g>
			</g>
		</g>
	</g>
	<g>
		<path class="st5" d="M120.23,82.75c-8.65,0-17.01-1.51-24.17-4.36c-2.14-0.85-4.17-1.83-6.04-2.91c-1.88-1.08-3.58-2.27-5.08-3.52
			c-5.53-4.62-8.3-10.3-7.81-16c0.55-6.37,5.06-12.31,12.7-16.72c8-4.62,18.63-7.16,29.92-7.16c8.65,0,17.01,1.51,24.17,4.36
			c2.14,0.85,4.17,1.83,6.04,2.91c1.88,1.08,3.58,2.27,5.08,3.52c5.53,4.62,8.3,10.3,7.81,16c-0.55,6.37-5.06,12.31-12.71,16.72
			C142.15,80.21,131.53,82.75,120.23,82.75L120.23,82.75z"/>
		<path class="st7" d="M154.2,43.88c-1.44-1.2-3.08-2.34-4.89-3.39c-1.81-1.04-3.78-1.99-5.86-2.82
			c-16.53-6.59-38.8-5.45-52.94,2.72c-14.14,8.17-16.12,21.02-4.71,30.57c1.44,1.2,3.08,2.34,4.89,3.39
			c1.81,1.04,3.78,1.99,5.86,2.82c16.53,6.59,38.8,5.45,52.94-2.72C163.64,66.28,165.62,53.43,154.2,43.88z"/>
		<g>
			<g>
				<path class="st2" d="M147.21,73.13c-13.25,7.65-33.87,8.48-48.84,2.51c-1.9-0.76-3.72-1.63-5.41-2.61
					c-1.7-0.98-3.2-2.03-4.51-3.13c-10.34-8.65-8.9-20.55,4.34-28.2c13.25-7.65,33.87-8.48,48.85-2.51c1.9,0.76,3.72,1.63,5.41,2.61
					c1.7,0.98,3.2,2.03,4.51,3.13C161.9,53.58,160.46,65.48,147.21,73.13z"/>
				<path class="st3" d="M154.2,43.88c-1.44-1.2-3.08-2.34-4.89-3.39c-1.81-1.04-3.78-1.99-5.86-2.82
					c-16.53-6.59-38.8-5.45-52.94,2.72c-14.14,8.17-16.12,21.02-4.71,30.57c1.44,1.2,3.08,2.34,4.89,3.39
					c1.81,1.04,3.78,1.99,5.86,2.82c16.53,6.59,38.8,5.45,52.94-2.72C163.64,66.28,165.62,53.43,154.2,43.88z M92.79,41.71
					c13.25-7.65,33.87-8.48,48.85-2.51L88.44,69.91C78.1,61.26,79.54,49.36,92.79,41.71z M98.37,75.64l53.19-30.71
					c10.34,8.65,8.9,20.55-4.35,28.2C133.96,80.78,113.35,81.61,98.37,75.64z"/>
			</g>
			<path class="st1" d="M151.7,45.07c-7.28,10.81-16.48,20.06-26.48,25.84c-10.07,5.82-19.33,7.16-26.64,4.69l53.02-30.61
				C151.64,45.01,151.67,45.04,151.7,45.07z"/>
		</g>
	</g>
</g>
</svg>
