<?xml version="1.0" encoding="utf-8"?>
<!-- Generator: Adobe Illustrator 25.3.1, SVG Export Plug-In . SVG Version: 6.00 Build 0)  -->
<svg version="1.1" id="圖層_1" xmlns="http://www.w3.org/2000/svg" xmlns:xlink="http://www.w3.org/1999/xlink" x="0px" y="0px"
	 viewBox="0 0 240 240" style="enable-background:new 0 0 240 240;" xml:space="preserve">
<style type="text/css">
	.st0{fill:#515151;}
	.st1{fill:#3F3E3E;}
	.st2{fill:#BA9E86;}
	.st3{fill:#AA8D77;}
	.st4{opacity:0.4;fill:#C4A891;}
	.st5{fill:#D6C2AD;}
	.st6{fill:#C4A891;}
	.st7{fill:#FFF9EE;}
	.st8{opacity:0.6;fill:#C4A891;}
	.st9{fill:#C4AC97;}
	.st10{opacity:0.15;}
	.st11{opacity:0.4;fill:url(#SVGID_1_);}
</style>
<g>
	<polygon class="st0" points="173.89,206.86 171.6,205.59 169.97,197.96 174.58,200.62 	"/>
	<polygon class="st1" points="68.37,198.11 66.07,199.45 66.48,192.73 71.09,190.07 	"/>
	<polygon class="st1" points="123.86,230.18 121.56,231.52 121.97,224.8 126.58,222.13 	"/>
	<g>
		<polygon class="st2" points="181.96,195.59 126.41,227.65 126.41,85.5 181.96,53.44 		"/>
		<g>
			<path class="st3" d="M133.42,87.4c2.38-1.44,4.84-2.93,7.25-4.23c5.93-3.23,11.96-6.77,17.78-10.19
				c2.23-1.31,4.46-2.62,6.69-3.92c5.51-3.2-1.7,0.98,3.72-2.15c2.66-1.53,5.32-3.07,7.98-4.6c1.64-0.95,3.34-2.07,5.11-3.26v-0.46
				c-1.77,1.19-3.47,2.32-5.11,3.26c-2.66,1.54-5.32,3.07-7.98,4.6c-5.42,3.12,1.79-1.06-3.72,2.15c-2.23,1.3-4.46,2.61-6.69,3.92
				c-5.82,3.42-11.84,6.96-17.77,10.18c-2.41,1.31-4.88,2.8-7.27,4.25c-2.31,1.39-4.65,2.81-7,4.09v0.45
				C128.76,90.2,131.11,88.79,133.42,87.4z"/>
			<path class="st3" d="M163.22,81.75c3.61-1.82-5.58,3.6-1.95,1.5c5.64-3.26,11.27-6.75,16.78-10.17c1.29-0.8,2.6-1.61,3.91-2.42
				V70.2c-1.31,0.81-2.62,1.62-3.92,2.43c-9.05,5.61-5.59,4.01-14.79,8.65c-5.36,2.7-10.8,5.24-16.06,7.7
				c-6.81,3.18-13.79,6.44-20.77,10.13v0.45c6.97-3.68,13.94-6.93,20.74-10.11C152.41,86.99,157.86,84.45,163.22,81.75z"/>
			<path class="st3" d="M143.01,101.29c3.78-1.66,7.58-3.04,11.26-4.37c3.15-1.14,6.4-2.31,9.63-3.67c5.62-2.36-1.43,2.36,4.16-0.25
				c1.49-0.7,2.98-1.39,4.46-2.08c2.48-1.15,4.99-2.5,7.48-3.94c0.66-0.38,1.31-0.78,1.97-1.16v-0.45
				c-3.13,1.86-6.29,3.63-9.41,5.08c-1.48,0.69-2.97,1.38-4.46,2.08c-5.58,2.61,1.46-2.11-4.15,0.25c-3.22,1.35-6.47,2.53-9.61,3.66
				c-3.68,1.33-7.49,2.71-11.28,4.38c-5.7,2.51-11.3,6.01-16.64,9.68v0.46C131.74,107.29,137.33,103.8,143.01,101.29z"/>
			<path class="st3" d="M139.89,120.02c3.89-1.85,7.83-3.53,11.65-5.17c4.11-1.76,8.37-3.58,12.57-5.61
				c8.54-4.12,4.34-1.56,10.9-5.32c1.34-0.77,2.72-1.52,4.04-2.25c0.96-0.52,1.93-1.06,2.9-1.61v-0.45
				c-0.97,0.54-1.94,1.08-2.89,1.6c-1.33,0.73-2.7,1.48-4.05,2.25c-6.55,3.76-2.34,1.2-10.87,5.31c-4.2,2.02-8.44,3.84-12.55,5.6
				c-3.82,1.63-7.76,3.32-11.66,5.17c-4.5,2.14-8.31,4.33-11.97,6.91c-0.51,0.36-1.03,0.73-1.54,1.09v0.46
				c0.53-0.38,1.06-0.75,1.58-1.12C131.64,124.32,135.42,122.14,139.89,120.02z"/>
			<path class="st3" d="M166.35,100.62l-0.37,0.37l0.33,0.06c3.63,0.69,7.89-1.14,12.28-3.67c1.12-0.65,2.24-1.34,3.37-2.05v-0.45
				c-5.35,3.36-10.7,6.36-15.1,5.73c4.84-4.68,10.02-7.8,15.1-10.66V89.5C176.71,92.45,171.36,95.68,166.35,100.62z"/>
			<path class="st3" d="M131.13,138.69c2.43-1.59,4.95-3.23,7.42-4.67c0.09-0.05,0.18-0.1,0.26-0.15
				c5.57-3.21,11.14-5.33,16.53-7.39c2.14-0.81,4.35-1.65,6.53-2.55c10.6-4.36,8.62-2.96,19.27-9.11c0.27-0.16,0.54-0.31,0.81-0.47
				v-0.45c-10.89,6.3-9.19,5.09-20.03,9.55c-2.18,0.9-4.38,1.74-6.52,2.55c-5.41,2.06-11,4.18-16.59,7.41
				c-0.09,0.05-0.18,0.1-0.27,0.15c-2.49,1.45-5.01,3.1-7.44,4.69c-1.31,0.86-2.67,1.74-4,2.58c-0.22,0.14-0.46,0.27-0.69,0.4v0.45
				c0.24-0.14,0.48-0.27,0.71-0.41C128.46,140.44,129.82,139.55,131.13,138.69z"/>
			<path class="st3" d="M137.11,149.24c7.31-2.85,14.88-6.08,23.14-9.87c4.3-1.97-3.71,3.12,1.41,0.17
				c3.03-1.75,6.16-3.72,9.35-5.97l0.27-0.19c3.49-2.46,7.09-4.98,10.68-7.2v-0.46c-3.61,2.23-7.22,4.76-10.72,7.22l-0.27,0.19
				c-8.56,6.03-3.86,2.63-10.68,5.76c-8.25,3.78-15.82,7.01-23.12,9.86l-0.97,0.38c-3.19,1.24-6.49,2.53-9.78,4.32v0.45
				c3.27-1.77,6.55-3.05,9.72-4.29L137.11,149.24z"/>
			<path class="st3" d="M156.63,146.4l1.69-1.24c6.73-4.96,0.92-1.27,8.6-3.97c0.86-0.3,1.71-0.59,2.56-0.87
				c2.58-0.86,5.24-1.76,7.93-3.07c1.51-0.74,3.04-1.56,4.55-2.42v-0.46c-1.51,0.85-3.02,1.68-4.53,2.41
				c-2.67,1.3-5.32,2.19-7.88,3.05c-0.85,0.29-1.71,0.57-2.57,0.87c-7.72,2.72-1.95-0.95-8.72,4.04l-1.69,1.25
				c-6.6,4.87-13.42,9.89-20.18,13.8c-0.07,0.04-0.14,0.08-0.21,0.12c-3.8,2.18-6.94,3.72-9.78,4.77v0.46
				c2.84-1.06,5.98-2.59,9.77-4.77C143.03,156.45,149.95,151.33,156.63,146.4z"/>
			<path class="st3" d="M170.08,156.26c8.68-5.47,3.94-3.13,11.88-8.08v-0.46c-7.94,4.95-3.21,2.61-11.9,8.09
				c-15.07,9.51-29.71,17.95-43.65,25.2v0.45C140.36,174.22,155,165.77,170.08,156.26z"/>
			<path class="st3" d="M159.51,172.68c11.76-6.79,10.74-6.32,22.45-13.44v-0.45c-21.73,13.2-30.99,18.37-52.41,30.56
				c-1.05,0.6-2.09,1.19-3.14,1.79v0.45c1.05-0.6,2.09-1.19,3.14-1.79C139.43,184.19,149.45,178.49,159.51,172.68z"/>
			<path class="st3" d="M158.44,187.75c3.16-1.82,6.32-3.7,9.46-5.65c6.81-4.22,0.9-1.31,7.59-5.66c2.14-1.39,4.3-2.79,6.46-4.19
				v-0.46c-2.17,1.41-4.34,2.81-6.49,4.21c-6.68,4.35-0.78,1.43-7.58,5.65c-10.27,6.37-20.71,11.98-30.8,17.41
				c-3.52,1.89-7.09,3.82-10.69,5.79v0.45c3.59-1.97,7.16-3.89,10.67-5.78C144.1,195.76,151.27,191.89,158.44,187.75z"/>
			<path class="st3" d="M161.37,197.54c7.72-3.3,2.88,0.69,10.77-4.46c0.96-0.63,1.93-1.29,2.96-2c2.21-1.52,4.56-3.12,6.86-4.36
				v-0.46c-2.32,1.24-4.68,2.86-6.9,4.38c-1.03,0.7-1.99,1.37-2.95,1.99c-7.85,5.13-3,1.12-10.7,4.42l-0.37,0.16
				c-10.61,4.54-21.65,9.99-34.63,17.12v0.45c12.97-7.12,23.99-12.56,34.59-17.09L161.37,197.54z"/>
			<path class="st3" d="M126.41,222.73c8.53-4.02,17.02-7.24,25.12-9.58l1.62-0.93c-8.59,2.37-17.64,5.77-26.74,10.06V222.73z"/>
			<path class="st3" d="M132.05,172.52l0.05-0.04c3.08-2.18,3.64-3.04,3.79-3.49c0.05-0.15,0.09-0.37-0.03-0.53
				c-0.43-0.59-1.33-0.55-1.99-0.52c-2.35,0.11-4.9,0.95-7.31,1.85c-0.05,0.02-0.11,0.04-0.15,0.05v0.46
				c0.03-0.01,0.06-0.02,0.09-0.03c2.38-0.89,4.91-1.72,7.22-1.83c0.61-0.03,1.45-0.07,1.82,0.44c0.03,0.05,0.02,0.08,0.01,0.1
				c-0.06,0.18-0.49,0.94-3.49,3.06l-0.05,0.04c-1.86,1.31-3.74,2.38-5.6,3.36v0.46c0.76-0.4,1.53-0.82,2.3-1.26
				C129.82,174.01,130.94,173.31,132.05,172.52z"/>
		</g>
		<g>
			<polygon class="st1" points="176.23,205.53 173.93,206.86 173.24,200.62 177.85,197.96 			"/>
		</g>
		<polygon class="st4" points="181.96,61.4 126.41,93.46 126.41,85.5 181.96,53.44 		"/>
	</g>
	<g>
		<polygon class="st5" points="126.41,227.65 58.05,188.18 58.05,46.02 126.41,85.5 		"/>
		<g>
			<path class="st6" d="M65.05,56.01c2.38,1.31,4.84,2.67,7.25,4.14c5.93,3.62,11.96,7.04,17.78,10.34
				c2.23,1.26,4.46,2.53,6.69,3.81c5.51,3.16,11.12,6.4,16.54,9.54c2.66,1.54,5.32,3.08,7.98,4.62c1.64,0.95,3.34,1.79,5.11,2.64
				v-0.46c-1.77-0.86-3.47-1.69-5.11-2.64c-2.66-1.54-5.32-3.08-7.98-4.62c-5.42-3.14-11.03-6.38-16.54-9.54
				c-2.23-1.28-4.46-2.54-6.69-3.81c-5.82-3.3-11.84-6.72-17.77-10.34c-2.41-1.47-4.88-2.83-7.27-4.15c-2.31-1.27-4.65-2.57-7-3.99
				v0.45C60.4,53.45,62.74,54.74,65.05,56.01z"/>
			<path class="st6" d="M94.85,84.78c3.61,2.35,7.24,4.55,10.87,6.64c5.64,3.26,11.27,6.27,16.78,9.21c1.29,0.69,2.6,1.39,3.91,2.09
				v-0.45c-1.31-0.71-2.62-1.4-3.92-2.1c-9.05-4.84-18.41-9.83-27.62-15.83c-5.36-3.49-10.8-7.23-16.06-10.85
				c-6.81-4.68-13.79-9.48-20.77-13.86v0.45c6.97,4.37,13.94,9.16,20.73,13.83C84.05,77.54,89.49,81.28,94.85,84.78z"/>
			<path class="st6" d="M74.65,80.99c3.78,2.7,7.58,5.71,11.26,8.63c3.15,2.49,6.4,5.07,9.63,7.45c5.62,4.13,11.39,8.1,16.98,11.94
				c1.49,1.02,2.98,2.05,4.46,3.07c2.48,1.72,4.99,3.25,7.48,4.69c0.66,0.38,1.31,0.74,1.97,1.11v-0.45
				c-3.13-1.75-6.29-3.63-9.41-5.79c-1.48-1.02-2.97-2.05-4.46-3.07c-5.58-3.84-11.36-7.81-16.97-11.93
				c-3.22-2.36-6.47-4.94-9.61-7.43c-3.68-2.92-7.49-5.94-11.28-8.65c-5.7-4.07-11.3-7.04-16.64-9.54v0.46
				C63.38,73.97,68.96,76.93,74.65,80.99z"/>
			<path class="st6" d="M71.53,96.11c3.89,2.65,7.83,5.51,11.65,8.28c4.11,2.99,8.37,6.08,12.57,8.91
				c8.54,5.74,17.16,10.85,23.72,14.65c1.34,0.78,2.72,1.62,4.04,2.42c0.96,0.58,1.93,1.17,2.9,1.75v-0.45
				c-0.97-0.58-1.94-1.16-2.89-1.74c-1.33-0.81-2.7-1.65-4.05-2.43c-6.55-3.8-15.16-8.9-23.69-14.63c-4.2-2.82-8.44-5.91-12.55-8.9
				c-3.82-2.77-7.76-5.64-11.66-8.29c-4.5-3.06-8.31-5.26-11.97-6.91c-0.51-0.23-1.03-0.46-1.54-0.69v0.46
				c0.53,0.23,1.06,0.47,1.58,0.71C63.27,90.88,67.05,93.07,71.53,96.11z"/>
			<path class="st6" d="M110.81,114.66l-0.37-0.06l0.33,0.45c3.63,4.87,7.89,7.98,12.28,10.51c1.12,0.65,2.24,1.25,3.37,1.84v-0.45
				c-5.35-2.81-10.7-6-15.1-11.71c4.84,0.92,10.02,3.77,15.1,6.78v-0.46C121.16,118.45,115.82,115.51,110.81,114.66z"/>
			<path class="st6" d="M62.76,104.67c2.43,1.22,4.95,2.48,7.42,3.9c0.09,0.05,0.18,0.1,0.26,0.15c5.57,3.21,11.14,7.53,16.53,11.7
				c2.14,1.66,4.35,3.37,6.53,4.99c10.6,7.87,21.44,14.39,32.09,20.53c0.27,0.16,0.54,0.31,0.81,0.47v-0.45
				c-10.89-6.28-22.01-12.91-32.85-20.97c-2.18-1.62-4.38-3.33-6.52-4.98c-5.41-4.19-11-8.51-16.59-11.75
				c-0.09-0.05-0.18-0.1-0.27-0.15c-2.49-1.42-5.01-2.69-7.44-3.91c-1.31-0.66-2.67-1.34-4-2.03c-0.22-0.12-0.46-0.26-0.69-0.4v0.45
				c0.24,0.14,0.48,0.29,0.71,0.41C60.09,103.33,61.45,104.01,62.76,104.67z"/>
			<path class="st6" d="M68.74,122.12c7.31,5.59,14.88,11.1,23.14,16.85c4.3,2.99,9.11,6.23,14.23,9.19
				c3.03,1.75,6.16,3.4,9.35,4.83l0.27,0.12c3.49,1.57,7.09,3.2,10.68,5.13v-0.46c-3.61-1.94-7.22-3.57-10.72-5.15l-0.27-0.12
				c-8.56-3.85-16.68-9.23-23.51-13.98c-8.25-5.75-15.82-11.26-23.12-16.84l-0.97-0.74c-3.19-2.45-6.49-4.96-9.78-6.98v0.45
				c3.27,2,6.55,4.5,9.72,6.94L68.74,122.12z"/>
			<path class="st6" d="M88.26,141.82l1.69,0.71c6.73,2.82,13.74,7.18,21.42,13.35c0.86,0.69,1.71,1.39,2.56,2.08
				c2.58,2.11,5.24,4.29,7.93,6.08c1.51,1.01,3.04,1.94,4.55,2.83v-0.46c-1.51-0.89-3.02-1.82-4.53-2.81
				c-2.67-1.78-5.32-3.95-7.88-6.05c-0.85-0.7-1.71-1.4-2.57-2.09c-7.72-6.2-14.77-10.59-21.54-13.43l-1.69-0.71
				c-6.6-2.75-13.42-5.6-20.18-9.5c-0.07-0.04-0.14-0.08-0.21-0.12c-3.8-2.21-6.94-4.3-9.77-6.52v0.46
				c2.84,2.22,5.98,4.31,9.77,6.51C74.66,136.16,81.58,139.03,88.26,141.82z"/>
			<path class="st6" d="M101.71,167.21c8.68,4.55,16.77,8.81,24.7,13.03v-0.46c-7.94-4.22-16.03-8.49-24.72-13.04
				c-15.07-7.9-29.71-16.35-43.65-25.2V142C71.99,150.85,86.63,159.31,101.71,167.21z"/>
			<path class="st6" d="M91.14,171.42c11.76,6.79,23.56,13.48,35.27,19.88v-0.45c-21.73-11.88-43.81-24.8-65.23-37.34
				c-1.05-0.61-2.09-1.22-3.14-1.83v0.45c1.05,0.61,2.09,1.22,3.14,1.83C71.06,159.75,81.08,165.61,91.14,171.42z"/>
			<path class="st6" d="M90.08,185.27c3.16,1.82,6.32,3.59,9.46,5.28c6.81,3.64,13.72,7.13,20.41,10.5c2.14,1.08,4.3,2.17,6.46,3.27
				v-0.46c-2.17-1.1-4.34-2.2-6.49-3.28c-6.68-3.37-13.6-6.86-20.4-10.5c-10.27-5.49-20.71-11.93-30.8-18.15
				c-3.52-2.17-7.09-4.37-10.69-6.55v0.45c3.59,2.18,7.16,4.38,10.67,6.55C75.73,176.7,82.9,181.12,90.08,185.27z"/>
			<path class="st6" d="M93,198.43c7.72,5.61,15.7,11.41,23.59,15.37c0.96,0.48,1.93,0.94,2.96,1.42c2.21,1.04,4.56,2.15,6.86,3.57
				v-0.46c-2.32-1.43-4.68-2.54-6.9-3.59c-1.03-0.48-1.99-0.94-2.95-1.41c-7.85-3.94-15.82-9.73-23.52-15.32l-0.37-0.27
				c-10.61-7.71-21.65-15.01-34.63-22.87v0.45c12.97,7.85,23.99,15.15,34.59,22.84L93,198.43z"/>
			<path class="st6" d="M58.05,183.25c8.53,5.83,17.02,12.41,25.12,19.43l1.62,0.93c-8.59-7.54-17.64-14.6-26.74-20.82V183.25z"/>
			<path class="st6" d="M63.68,139.56l0.05,0.02c3.08,1.38,3.64,1.17,3.79,0.89c0.05-0.1,0.09-0.27-0.03-0.57
				c-0.43-1.09-1.33-2.09-1.99-2.82c-2.35-2.6-4.9-4.71-7.31-6.59c-0.05-0.04-0.11-0.08-0.15-0.12v0.46
				c0.03,0.02,0.06,0.05,0.09,0.07c2.38,1.86,4.91,3.94,7.22,6.5c0.61,0.68,1.45,1.61,1.82,2.54c0.03,0.08,0.02,0.1,0.01,0.12
				c-0.06,0.11-0.49,0.38-3.49-0.97l-0.05-0.02c-1.86-0.83-3.74-1.94-5.6-3.1v0.46c0.76,0.48,1.53,0.95,2.3,1.39
				C61.46,138.47,62.57,139.07,63.68,139.56z"/>
		</g>
		<polygon class="st7" points="121.91,219.74 62.55,185.47 62.55,53.93 121.91,88.2 		"/>
		<g>
			<polygon class="st0" points="86.06,94.3 99.34,101.96 99.34,102.12 121.91,115.14 121.91,113.78 62.55,79.51 62.55,80.87 
				86.06,94.45 			"/>
			<polygon class="st0" points="86.06,121.09 99.34,128.75 99.34,128.98 121.91,142.01 121.91,140.65 62.55,106.38 62.55,107.74 
				86.06,121.31 			"/>
			<polygon class="st0" points="86.06,147.88 99.34,155.54 99.34,155.85 121.91,168.87 121.91,167.51 62.55,133.24 62.55,134.6 
				86.06,148.18 			"/>
			<polygon class="st0" points="86.06,174.67 99.34,182.33 99.34,182.71 121.91,195.74 121.91,194.38 62.55,160.11 62.55,161.47 
				86.06,175.04 			"/>
			<path class="st0" d="M87.94,73.9l9.52,5.5c1.04,0.6,1.88,0.08,1.88-1.17v-3.06l-13.28-7.67v3.06
				C86.06,71.81,86.91,73.3,87.94,73.9z"/>
			<path class="st0" d="M86.06,94.3v0.15v2.9c0,1.24,0.84,2.74,1.88,3.34l9.52,5.5c1.04,0.6,1.88,0.08,1.88-1.17v-2.9v-0.15
				L86.06,94.3z"/>
			<path class="st0" d="M86.06,121.09v0.23v2.83c0,1.24,0.84,2.74,1.88,3.34l9.52,5.5c1.04,0.6,1.88,0.08,1.88-1.17v-2.83v-0.23
				L86.06,121.09z"/>
			<path class="st0" d="M86.06,147.88v0.3v2.75c0,1.24,0.84,2.74,1.88,3.34l9.52,5.5c1.04,0.6,1.88,0.08,1.88-1.17v-2.75v-0.3
				L86.06,147.88z"/>
			<path class="st0" d="M86.06,174.67v0.38v2.68c0,1.24,0.84,2.74,1.88,3.34l9.52,5.5c1.04,0.6,1.88,0.08,1.88-1.17v-2.68v-0.38
				L86.06,174.67z"/>
		</g>
		<path class="st0" d="M62.55,53.93v131.54l59.36,34.27V88.2L62.55,53.93z M120.96,218.25L63.5,185.07V55.43l57.46,33.18V218.25z"/>
		<g>
			<polygon class="st0" points="66.08,199.45 63.79,198.18 62.16,190.55 66.76,193.21 			"/>
			<polygon class="st0" points="121.62,231.52 119.33,230.25 117.7,222.62 122.3,225.28 			"/>
		</g>
		<polygon class="st8" points="126.41,93.46 58.05,53.99 58.05,46.02 126.41,85.5 		"/>
	</g>
	<polygon class="st9" points="130.75,88.51 54.98,44.76 54.98,39.82 109.25,13.43 185.02,52.23 185.02,57.18 	"/>
	<polygon class="st2" points="130.78,25.22 130.78,88.5 185.02,57.18 185.02,52.23 	"/>
	<g>
		<polygon class="st5" points="130.75,83.57 54.98,39.82 109.25,8.48 185.02,52.23 		"/>
		<g>
			<path class="st6" d="M137.49,36.83l1.08,0.61c4.36,2.48,9.14,5.57,14.21,8.84c5.35,3.45,11.01,7.1,16.79,10.44
				c1.29,0.75,2.59,1.48,3.89,2.18l0.34-0.2c-7.13-3.88-14.13-8.39-20.67-12.61c-5.07-3.27-9.86-6.36-14.23-8.85l-1.08-0.61
				c-18.61-10.54-30.67-18.5-36.11-23.79l-0.32,0.18C106.92,18.38,118.98,26.34,137.49,36.83z"/>
			<path class="st6" d="M158.13,39.75c3.81,2.2,8.11,4.25,12.31,6.24c4.64,2.21,9.36,4.45,13.42,6.91l0.34-0.19
				c-4.07-2.46-8.81-4.72-13.45-6.93c-6.53-3.1-13.28-6.32-18.06-10.05c-4.53-3.53-8.89-6.77-13.17-9.78l-3.68-2.12
				c5.34,3.64,10.77,7.62,16.46,12.07C154.02,37.24,156,38.52,158.13,39.75z"/>
			<path class="st6" d="M123.48,36.16c2.15,1.02,4.47,2.1,6.93,3.24c13.52,6.29,29.9,13.91,39.44,21.59l0.34-0.2
				c-9.59-7.7-25.96-15.32-39.48-21.61c-2.46-1.14-4.77-2.22-6.92-3.24c-3.38-1.6-6.89-3.2-10.28-4.75
				c-8.03-3.65-16.2-7.38-23.55-11.58l-0.33,0.19c7.36,4.21,15.55,7.94,23.59,11.6C116.59,32.97,120.1,34.56,123.48,36.16z"/>
			<path class="st6" d="M135.88,53.1c2.59,1.42,6.06,3.12,10.09,5.09c4.79,2.34,10.21,4.99,15.3,7.76l0.33-0.19
				c-5.11-2.78-10.54-5.44-15.33-7.78c-4.02-1.96-7.49-3.66-10.07-5.08c-6.11-3.36-12.36-6.76-18.4-10.05
				C106.31,36.59,94.5,30.15,83,23.64l-0.33,0.19c11.5,6.52,23.32,12.95,34.82,19.21C123.52,46.33,129.77,49.74,135.88,53.1z"/>
			<path class="st6" d="M139.65,60.56c-8.13-4.02-19.57-9.07-25.04-10.05c-1.44-0.26-2.38-0.22-2.88,0.11
				c-1.99,1.34,0.48,2.71,7.84,6.77c6.06,3.35,15.12,8.36,27.82,16.57l0.34-0.19c-12.7-8.21-21.76-13.22-27.83-16.57
				c-7.1-3.93-9.5-5.25-7.8-6.39c0.35-0.24,1.17-0.25,2.38-0.03c8.72,1.56,33.02,13.49,40.5,18.81l0.35-0.2
				C152.04,67.03,145.79,63.6,139.65,60.56z"/>
			<path class="st6" d="M95.65,48.45c1.55,0.9,3.1,1.8,4.65,2.7c1.59,0.92,3.2,1.84,4.84,2.78c12.34,7.08,26.06,14.96,37.15,22.99
				l0.34-0.19c-11.1-8.03-24.82-15.9-37.15-22.99c-1.63-0.94-3.25-1.86-4.83-2.78c-1.55-0.89-3.1-1.79-4.65-2.7
				c-9.2-5.34-18.58-10.79-29.18-15.27l-0.34,0.2C77.07,37.65,86.46,43.1,95.65,48.45z"/>
			<path class="st6" d="M89.04,54.02c4.41,3.15,8.58,6.12,12.37,8.47c3.14,1.95,6.42,3.94,9.58,5.87
				c7.41,4.52,14.95,9.11,22.08,13.86l0.34-0.19c-7.13-4.75-14.66-9.34-22.07-13.86c-3.16-1.93-6.44-3.92-9.58-5.87
				c-3.78-2.35-7.95-5.31-12.35-8.46C80.64,47.6,70.95,40.7,61.02,36.33l-0.34,0.19C70.58,40.87,80.27,47.77,89.04,54.02z"/>
			<path class="st6" d="M103.13,42.85c0.35-0.21,0.51-0.51,0.46-0.9c-0.35-2.88-11.78-10.59-23.33-16.73l-0.35,0.2
				c11.38,6.07,22.86,13.79,23.2,16.55c0.04,0.31-0.07,0.54-0.33,0.69c-1.64,0.97-9.49-2.48-17.81-6.14
				c-4.5-1.98-9.3-4.08-14.02-5.94l-0.34,0.2c4.73,1.86,9.55,3.97,14.07,5.96C94.28,40.95,101.2,43.99,103.13,42.85z"/>
			<path class="st6" d="M104.71,20.3c0.38-0.21,0.49-0.58,0.32-1.1c-0.45-1.38-2.76-3.69-4.94-5.43l-0.33,0.19
				c2.12,1.71,4.38,3.97,4.8,5.29c0.14,0.42,0.08,0.71-0.18,0.85c-1.03,0.56-5.5-1.38-9.54-3.3l-0.33,0.19
				C99.5,19.38,103.45,20.99,104.71,20.3z"/>
		</g>
		<g class="st10">
			<path class="st5" d="M101.41,62.49c-3.8-2.35-7.96-5.32-12.37-8.47c-8.77-6.25-18.46-13.15-28.36-17.5l-5.7,3.29l75.78,43.75
				l2.32-1.34c-7.13-4.75-14.67-9.35-22.08-13.86C107.83,66.44,104.56,64.44,101.41,62.49z"/>
			<path class="st5" d="M139.51,25.95c4.28,3.01,8.64,6.25,13.17,9.78c4.79,3.73,11.54,6.94,18.06,10.05
				c4.65,2.21,9.38,4.46,13.45,6.93l0.83-0.48L139.51,25.95z"/>
			<path class="st5" d="M135.88,53.1c-6.1-3.36-12.35-6.76-18.4-10.05c-11.5-6.26-23.31-12.7-34.82-19.21l-2.4,1.39
				c11.55,6.14,22.98,13.86,23.33,16.73c0.05,0.39-0.11,0.69-0.46,0.9c-1.93,1.14-8.85-1.9-18.44-6.11
				c-4.52-1.98-9.34-4.1-14.07-5.96l-3.82,2.2c10.6,4.47,19.98,9.93,29.18,15.27c1.55,0.9,3.1,1.8,4.65,2.7
				c1.59,0.92,3.2,1.84,4.83,2.78c12.33,7.08,26.05,14.96,37.15,22.99l4.77-2.75c-12.7-8.21-21.76-13.22-27.82-16.57
				c-7.35-4.06-9.83-5.43-7.84-6.77c0.5-0.33,1.44-0.37,2.88-0.11c5.47,0.98,16.9,6.03,25.04,10.05c6.14,3.04,12.39,6.47,15.67,8.82
				l5.95-3.43c-5.09-2.77-10.52-5.42-15.3-7.76C141.94,56.22,138.46,54.52,135.88,53.1z"/>
			<path class="st5" d="M152.78,46.28c-5.07-3.27-9.85-6.35-14.21-8.84l-1.08-0.61c-18.51-10.49-30.57-18.45-36.1-23.81l-1.31,0.75
				c2.18,1.74,4.49,4.05,4.94,5.43c0.17,0.52,0.06,0.89-0.32,1.1c-1.26,0.69-5.2-0.92-10.2-3.31l-4.56,2.63
				c7.35,4.2,15.52,7.93,23.55,11.58c3.39,1.54,6.9,3.14,10.28,4.75c2.15,1.02,4.47,2.1,6.92,3.24c13.52,6.29,29.9,13.9,39.48,21.61
				l3.29-1.9c-1.3-0.71-2.6-1.44-3.89-2.18C163.79,53.38,158.13,49.73,152.78,46.28z"/>
		</g>
	</g>
	<linearGradient id="SVGID_1_" gradientUnits="userSpaceOnUse" x1="54.9767" y1="120" x2="185.0233" y2="120">
		<stop  offset="0" style="stop-color:#FFDBA8"/>
		<stop  offset="0.996" style="stop-color:#680009"/>
	</linearGradient>
	<path class="st11" d="M185.02,52.23C91.51-1.76,116.73,12.81,109.25,8.48C98.6,14.63,66.08,33.4,54.98,39.82v4.95l3.07,1.77
		c0,0,0,91.1,0,141.64l4.11,2.37l1.63,7.63l2.28,1.27l0,0l0,0l0,0l0,0l2.3-1.34l1.12-3.32l13.67,7.89v0l1.62,0.93l0,0l32.91,19
		l1.63,7.63l2.23,1.24l0,0.03l0.03-0.02l0.03,0.02l0-0.03l2.24-1.3l1.13-3.35l1.42,0.82l44.42-25.64l0.77,3.58l2.29,1.27l0.02-0.18
		l0.02,0.18l2.3-1.34l1.62-7.56l4.11-2.37V58.95l3.06-1.77l0,0h0V52.23z"/>
</g>
</svg>
