<?xml version="1.0" encoding="utf-8"?>
<!-- Generator: Adobe Illustrator 25.3.1, SVG Export Plug-In . SVG Version: 6.00 Build 0)  -->
<svg version="1.1" id="圖層_1" xmlns="http://www.w3.org/2000/svg" xmlns:xlink="http://www.w3.org/1999/xlink" x="0px" y="0px"
	 viewBox="0 0 240 240" style="enable-background:new 0 0 240 240;" xml:space="preserve">
<style type="text/css">
	.st0{fill-rule:evenodd;clip-rule:evenodd;fill:#FDEFC6;}
	.st1{fill-rule:evenodd;clip-rule:evenodd;fill:url(#SVGID_1_);}
	.st2{fill-rule:evenodd;clip-rule:evenodd;fill:#F9DFAB;}
	.st3{fill-rule:evenodd;clip-rule:evenodd;fill:#D09978;}
	.st4{fill-rule:evenodd;clip-rule:evenodd;fill:#CC9473;}
	.st5{fill-rule:evenodd;clip-rule:evenodd;fill:#D7A381;}
	.st6{fill-rule:evenodd;clip-rule:evenodd;fill:#844F61;}
	.st7{fill-rule:evenodd;clip-rule:evenodd;fill:#96636E;}
	.st8{fill-rule:evenodd;clip-rule:evenodd;fill:#6B3D56;}
	.st9{fill-rule:evenodd;clip-rule:evenodd;fill:#EB797B;}
</style>
<g>
	<polygon class="st0" points="235.58,148.18 203.69,183.25 4.42,51.55 7.75,49.62 9.42,50.65 9.42,48.66 36.31,33.13 	"/>
	<linearGradient id="SVGID_1_" gradientUnits="userSpaceOnUse" x1="257.5238" y1="177.5244" x2="196.91" y2="177.5244">
		<stop  offset="0" style="stop-color:#D7A381"/>
		<stop  offset="1" style="stop-color:#DFB18C"/>
	</linearGradient>
	<polygon class="st1" points="235.58,148.18 203.69,166.6 203.69,206.87 207.02,204.94 207.02,203.02 208.69,203.98 235.58,188.45 	
		"/>
	<polygon class="st2" points="4.42,51.55 203.69,166.6 203.69,172.18 203.69,206.87 105.02,149.9 105.02,147.98 103.35,148.94 
		4.42,91.82 4.42,89.9 	"/>
	<polygon class="st0" points="207.02,164.67 103.08,104.66 99.74,106.58 203.69,166.6 	"/>
	<polygon class="st2" points="207.02,164.67 9.44,50.6 9.42,48.66 208.69,163.71 	"/>
	<polygon class="st2" points="208.69,170.38 208.68,163.71 207.02,164.67 207.02,171.34 	"/>
	<polygon class="st3" points="208.69,203.98 208.68,170.38 207.02,169.42 207.02,203.02 	"/>
	<polygon class="st2" points="106.69,106.74 108.35,107.71 105.02,109.63 	"/>
	<polygon class="st4" points="103.35,148.94 103.35,108.67 106.69,106.74 106.69,108.67 105.02,109.63 105.02,147.98 	"/>
	<g>
		<polygon class="st5" points="166.28,117.49 156.8,125.41 156.16,125.41 152.23,123.33 161.08,115.41 		"/>
		<polygon class="st6" points="156.16,125.41 157.26,123.15 150.96,122.05 150.96,123.33 		"/>
		<polygon class="st7" points="165.65,116.21 156.16,124.13 150.96,122.06 160.44,114.13 		"/>
		<polygon class="st8" points="156.16,125.41 156.16,124.13 165.65,116.21 165.65,117.49 		"/>
	</g>
	<g>
		<polygon class="st5" points="107.25,100.31 74.47,81.38 95.51,69.23 129.67,88.95 110.01,100.31 		"/>
		<polygon class="st7" points="126.92,83.45 107.25,100.3 74.47,75.87 94.14,64.51 		"/>
		<polygon class="st6" points="107.25,100.31 107.25,94.8 74.47,75.87 74.47,81.37 		"/>
		<polygon class="st8" points="107.25,100.3 107.25,94.8 126.92,83.45 126.92,88.95 		"/>
		<path class="st9" d="M104.54,94.43c0.72,0.42,1.3,1.43,1.3,2.26c0,0.83-0.58,1.17-1.3,0.75c-0.72-0.42-1.3-1.43-1.3-2.26
			C103.24,94.35,103.82,94.01,104.54,94.43z"/>
	</g>
</g>
</svg>
