<?xml version="1.0" encoding="utf-8"?>
<!-- Generator: Adobe Illustrator 25.3.1, SVG Export Plug-In . SVG Version: 6.00 Build 0)  -->
<svg version="1.1" id="圖層_1" xmlns="http://www.w3.org/2000/svg" xmlns:xlink="http://www.w3.org/1999/xlink" x="0px" y="0px"
	 viewBox="0 0 240 240" style="enable-background:new 0 0 240 240;" xml:space="preserve">
<style type="text/css">
	.st0{fill-rule:evenodd;clip-rule:evenodd;fill:url(#SVGID_1_);}
	.st1{fill-rule:evenodd;clip-rule:evenodd;fill:url(#SVGID_2_);}
	.st2{fill-rule:evenodd;clip-rule:evenodd;fill:#D7B883;}
	.st3{fill-rule:evenodd;clip-rule:evenodd;fill:#CDB17F;}
	.st4{fill-rule:evenodd;clip-rule:evenodd;fill:url(#SVGID_3_);}
	.st5{fill-rule:evenodd;clip-rule:evenodd;fill:#F9E2B2;}
	.st6{fill-rule:evenodd;clip-rule:evenodd;fill:url(#SVGID_4_);}
	.st7{fill-rule:evenodd;clip-rule:evenodd;fill:url(#SVGID_5_);}
	.st8{fill-rule:evenodd;clip-rule:evenodd;fill:#F0EBE1;}
	.st9{fill-rule:evenodd;clip-rule:evenodd;fill:#F9F5EF;}
	.st10{fill-rule:evenodd;clip-rule:evenodd;fill:url(#SVGID_6_);}
	.st11{fill-rule:evenodd;clip-rule:evenodd;fill:url(#SVGID_7_);}
	.st12{fill-rule:evenodd;clip-rule:evenodd;fill:url(#SVGID_8_);}
	.st13{fill-rule:evenodd;clip-rule:evenodd;fill:url(#SVGID_9_);}
	.st14{fill-rule:evenodd;clip-rule:evenodd;fill:url(#SVGID_10_);}
	.st15{fill-rule:evenodd;clip-rule:evenodd;fill:url(#SVGID_11_);}
	.st16{fill-rule:evenodd;clip-rule:evenodd;fill:url(#SVGID_12_);}
</style>
<g>
	<linearGradient id="SVGID_1_" gradientUnits="userSpaceOnUse" x1="108.0228" y1="183.0421" x2="97.4593" y2="201.3386">
		<stop  offset="0" style="stop-color:#7D6C50"/>
		<stop  offset="1" style="stop-color:#967D48"/>
	</linearGradient>
	<polygon class="st0" points="164.13,234.28 164.13,226.26 39.07,154.06 39.07,162.08 	"/>
	<linearGradient id="SVGID_2_" gradientUnits="userSpaceOnUse" x1="193.9879" y1="232.4798" x2="182.9118" y2="213.2954">
		<stop  offset="0" style="stop-color:#7D6C50"/>
		<stop  offset="1" style="stop-color:#967D48"/>
	</linearGradient>
	<polygon class="st1" points="164.13,234.28 164.13,226.26 207,201.51 207,209.52 	"/>
	<polygon class="st2" points="164.12,231.52 164.12,121.91 29.89,44.41 29.89,154.02 	"/>
	<polygon class="st3" points="97.56,83.48 96.44,82.83 96.44,192.44 97.56,193.09 	"/>
	<linearGradient id="SVGID_3_" gradientUnits="userSpaceOnUse" x1="92.2284" y1="97.5893" x2="100.2323" y2="84.2685">
		<stop  offset="0" style="stop-color:#AA8D59"/>
		<stop  offset="1" style="stop-color:#967D48"/>
	</linearGradient>
	<polygon class="st4" points="164.3,134.57 164.12,121.91 29.89,44.41 36.17,60.59 	"/>
	<polygon class="st5" points="216.11,83.18 158.13,116.65 23.96,39.2 81.95,5.72 	"/>
	<linearGradient id="SVGID_4_" gradientUnits="userSpaceOnUse" x1="188.0377" y1="153.2646" x2="246.9383" y2="268.8637">
		<stop  offset="0" style="stop-color:#AA8D59"/>
		<stop  offset="1" style="stop-color:#967D48"/>
	</linearGradient>
	<path class="st6" d="M164.13,231.52l0-109.61l-6,3.46v-8.72l57.98-33.48c0.01,48.47,0,69.85,0,118.33L164.13,231.52z"/>
	<linearGradient id="SVGID_5_" gradientUnits="userSpaceOnUse" x1="114.1432" y1="151.9586" x2="101.3849" y2="151.9586">
		<stop  offset="0" style="stop-color:#AA8D59"/>
		<stop  offset="1" style="stop-color:#967D48"/>
	</linearGradient>
	<polygon class="st7" points="107.8,114.1 114.55,131.49 114.55,187.92 114.55,191.71 111.28,189.82 104.54,172.43 104.54,168.65 
		107.8,170.53 108,171.05 108,124.94 104.54,116 104.54,112.21 	"/>
	<polygon class="st8" points="101.06,178.19 97.79,176.3 97.79,116.1 101.06,117.99 	"/>
	<polygon class="st9" points="107.8,170.52 104.53,168.63 101.06,170.63 104.33,172.52 	"/>
	<linearGradient id="SVGID_6_" gradientUnits="userSpaceOnUse" x1="104.7656" y1="169.4937" x2="101.9019" y2="176.9539">
		<stop  offset="0" style="stop-color:#CABAB0"/>
		<stop  offset="1" style="stop-color:#7A5E34"/>
	</linearGradient>
	<polygon class="st10" points="101.06,170.63 104.33,172.52 107.6,170.63 	"/>
	<linearGradient id="SVGID_7_" gradientUnits="userSpaceOnUse" x1="100.1631" y1="146.1416" x2="117.0257" y2="146.1416">
		<stop  offset="0" style="stop-color:#CABAB0"/>
		<stop  offset="1" style="stop-color:#A28653"/>
	</linearGradient>
	<polygon class="st11" points="107.8,117.87 107.8,114.1 101.06,117.99 101.06,174.41 101.06,178.19 107.8,174.29 107.8,170.52 
		104.33,172.52 104.33,119.88 	"/>
	<linearGradient id="SVGID_8_" gradientUnits="userSpaceOnUse" x1="95.8146" y1="141.3788" x2="83.0563" y2="141.3788">
		<stop  offset="0" style="stop-color:#AA8D59"/>
		<stop  offset="1" style="stop-color:#967D48"/>
	</linearGradient>
	<polygon class="st12" points="89.48,103.52 96.22,120.91 96.22,177.34 96.22,181.13 92.95,179.24 86.21,161.85 86.21,158.07 
		89.48,159.95 89.68,160.47 89.68,114.36 86.21,105.42 86.21,101.63 	"/>
	<polygon class="st9" points="89.48,103.52 86.21,101.63 79.46,105.52 82.73,107.41 	"/>
	<polygon class="st8" points="82.73,167.61 79.46,165.72 79.46,105.52 82.73,107.41 	"/>
	<polygon class="st9" points="89.47,159.94 86.2,158.05 82.73,160.05 86,161.94 	"/>
	<linearGradient id="SVGID_9_" gradientUnits="userSpaceOnUse" x1="86.4372" y1="158.9133" x2="83.5735" y2="166.3735">
		<stop  offset="0" style="stop-color:#CABAB0"/>
		<stop  offset="1" style="stop-color:#7A5E34"/>
	</linearGradient>
	<polygon class="st13" points="82.73,160.05 86,161.94 89.27,160.05 	"/>
	<linearGradient id="SVGID_10_" gradientUnits="userSpaceOnUse" x1="81.8351" y1="135.5614" x2="98.6977" y2="135.5614">
		<stop  offset="0" style="stop-color:#CABAB0"/>
		<stop  offset="1" style="stop-color:#A28653"/>
	</linearGradient>
	<polygon class="st14" points="89.47,107.29 89.47,103.52 82.73,107.41 82.73,163.83 82.73,167.61 89.47,163.71 89.47,159.94 
		86,161.94 86,109.3 	"/>
	<polygon class="st2" points="158.13,125.37 158.13,116.65 23.89,39.15 23.89,47.87 	"/>
	<linearGradient id="SVGID_11_" gradientUnits="userSpaceOnUse" x1="98.7979" y1="105.3948" x2="130.9871" y2="61.0902">
		<stop  offset="0" style="stop-color:#D7CBC5"/>
		<stop  offset="1" style="stop-color:#B9A57D"/>
	</linearGradient>
	<path class="st15" d="M107.8,114.1l-3.27-1.89l-6.74,3.89l3.27,1.89L107.8,114.1L107.8,114.1z M89.48,103.52l-0.51-0.3l-6.74,3.89
		l0.52,0.3L89.48,103.52z"/>
	<linearGradient id="SVGID_12_" gradientUnits="userSpaceOnUse" x1="121.7179" y1="123.3348" x2="198.305" y2="102.8134">
		<stop  offset="0" style="stop-color:#D2C6BE"/>
		<stop  offset="1" style="stop-color:#B49C70"/>
	</linearGradient>
	<path class="st16" d="M97.79,147.25l0-31.15l3.27,1.89l0,37.68L97.79,147.25L97.79,147.25z M82.22,107.11l0.52,1.33v-1.03
		L82.22,107.11z"/>
</g>
</svg>
