<svg xmlns="http://www.w3.org/2000/svg" xmlns:xlink="http://www.w3.org/1999/xlink" width="208" height="208" viewBox="0 0 208 208"><defs><style>.a{fill:#fff;}.b{fill:#0eb2bb;}.c{filter:url(#a);}</style><filter id="a" x="0" y="0" width="208" height="208" filterUnits="userSpaceOnUse"><feOffset dy="3" input="SourceAlpha"/><feGaussianBlur stdDeviation="3" result="b"/><feFlood flood-opacity="0.161"/><feComposite operator="in" in2="b"/><feComposite in="SourceGraphic"/></filter></defs><g transform="translate(-602 -4495)"><g class="c" transform="matrix(1, 0, 0, 1, 602, 4495)"><circle class="a" cx="95" cy="95" r="95" transform="translate(9 6)"/></g><g transform="translate(650 4540)"><path class="b" d="M26.29,31a21.29,21.29,0,1,0,21.29,21.29A21.314,21.314,0,0,0,26.29,31ZM43.942,50.516H28.065V34.639A17.769,17.769,0,0,1,43.942,50.516ZM8.548,52.29A17.765,17.765,0,0,1,24.516,34.639v35.3A17.768,17.768,0,0,1,8.548,52.29ZM28.065,69.942V54.065H43.942A17.769,17.769,0,0,1,28.065,69.942Z" transform="translate(3.097 23.226)"/><path class="b" d="M55.66,42.676l3.586,1.591a7.433,7.433,0,0,0,8.282-1.538l2.408-2.408a6.057,6.057,0,0,0,0-8.566l-2.814-2.814a6.2,6.2,0,0,0-8.566,0l-1.134,1.134a2.175,2.175,0,0,1-1.549.64h-.263a2.175,2.175,0,0,1-1.549-.64L52.836,28.85a2.192,2.192,0,0,1,.179-3.261l1.02-.814A4.551,4.551,0,0,0,54.41,18l-3.256-3.256a6.2,6.2,0,0,0-8.566,0L40.18,17.156a7.5,7.5,0,0,0-1.579,8.23A33.166,33.166,0,0,0,55.66,42.676ZM42.689,19.665,45.1,17.257a2.51,2.51,0,0,1,3.548,0L51.9,20.513a1.017,1.017,0,0,1,.293.708.993.993,0,0,1-.374.781l-1.018.814a5.74,5.74,0,0,0-.475,8.541l1.226,1.226a5.7,5.7,0,0,0,4.059,1.682h.263a5.7,5.7,0,0,0,4.058-1.68l1.134-1.134a2.574,2.574,0,0,1,3.548,0l2.814,2.814a2.51,2.51,0,0,1,0,3.548l-2.408,2.408a3.932,3.932,0,0,1-4.331.8L57.1,39.433A29.62,29.62,0,0,1,41.864,23.99a3.951,3.951,0,0,1,.825-4.325Z" transform="translate(28.645 9.316)"/><path class="b" d="M91.993,61.323h13.684A5.329,5.329,0,0,0,111,56V20.516a5.329,5.329,0,0,0-5.323-5.323H86.161V1H16.233L1,16.233V103.9H44.817L55.462,111h50.215A5.329,5.329,0,0,0,111,105.677v-7.1a5.329,5.329,0,0,0-5.323-5.323H86.161V64.969Zm15.459-40.806V56a1.775,1.775,0,0,1-1.774,1.774h-14.7l-11.91,7.443V57.774H59.548A1.775,1.775,0,0,1,57.774,56V20.516a1.775,1.775,0,0,1,1.774-1.774h46.129A1.775,1.775,0,0,1,107.452,20.516ZM15.194,7.057v8.136H7.057ZM57.774,103.9H86.161v3.548H57.774Zm31.935-7.1h3.548v10.645H89.71Zm-3.548,3.548H57.774V96.806H86.161Zm-31.935,5.557-5.672-3.783,5.672-3.783Zm53.226-7.331v7.1a1.775,1.775,0,0,1-1.774,1.774H96.806V96.806h8.871A1.775,1.775,0,0,1,107.452,98.581ZM82.613,93.258H55.462l-10.645,7.1H4.548V18.742H18.742V4.548H82.613V15.194H59.548a5.329,5.329,0,0,0-5.323,5.323V56a5.329,5.329,0,0,0,5.323,5.323H75.516v10.3l7.1-4.435Z" transform="translate(0 0)"/><path class="b" d="M42.258,14.548H38.71v21.29H35.161V11H31.613V35.839H28.065V25.194H24.516V35.839H20.968V18.1H17.419V35.839H13.871V21.645H10.323V35.839H5v3.548H47.581V35.839H42.258Z" transform="translate(3.097 7.742)"/></g></g></svg>