<svg xmlns="http://www.w3.org/2000/svg" xmlns:xlink="http://www.w3.org/1999/xlink" width="208" height="208" viewBox="0 0 208 208"><defs><style>.a{fill:#fff;}.b{fill:#0eb2bb;}.c{filter:url(#a);}</style><filter id="a" x="0" y="0" width="208" height="208" filterUnits="userSpaceOnUse"><feOffset dy="3" input="SourceAlpha"/><feGaussianBlur stdDeviation="3" result="b"/><feFlood flood-opacity="0.161"/><feComposite operator="in" in2="b"/><feComposite in="SourceGraphic"/></filter></defs><g transform="translate(-232 -4495)"><g class="c" transform="matrix(1, 0, 0, 1, 232, 4495)"><circle class="a" cx="95" cy="95" r="95" transform="translate(9 6)"/></g><g transform="translate(-870.661 4491.5)"><path class="b" d="M1248.359,99.024a12.859,12.859,0,0,0-2.907-18.732l-1.43-.954h-8.328V77.4a13.556,13.556,0,0,0-11.616-13.394v-2.09a5.8,5.8,0,0,0-4.99-5.723,7.658,7.658,0,0,0,1.123-3.954,7.742,7.742,0,0,0-15.484,0,7.667,7.667,0,0,0,1.121,3.952,5.8,5.8,0,0,0-5,5.725v2.09A13.556,13.556,0,0,0,1189.234,77.4l0,1.936h-8.321l-1.43.954a12.857,12.857,0,0,0-2.909,18.732l.511.639a20.078,20.078,0,0,1,1.988,3.023,30.951,30.951,0,1,0,8.228,61.248v.565h52.258v-5.806a5.8,5.8,0,0,0-3.871-5.45v-6.162a5.814,5.814,0,0,0-5.807-5.807h-1.934l0-7-1.883-.944a10.508,10.508,0,0,1-5.8-8.677,47.266,47.266,0,0,0,15.43-34.92V83.21h7.156l.455.3a8.984,8.984,0,0,1,2.032,13.092l-.513.641a24.1,24.1,0,0,0-5.259,15,5.806,5.806,0,1,0,11.613,0v-1.936h-3.871v1.936a1.936,1.936,0,0,1-3.871,0,20.219,20.219,0,0,1,4.411-12.579Zm-35.892-50.654a3.871,3.871,0,1,1-3.871,3.871A3.875,3.875,0,0,1,1212.468,48.371Zm-5.81,11.613h11.613a1.938,1.938,0,0,1,1.936,1.935v1.936h-15.484V61.919A1.939,1.939,0,0,1,1206.657,59.984Zm-3.875,7.742h19.362a9.7,9.7,0,0,1,9.482,7.742h-38.3A9.675,9.675,0,0,1,1202.782,67.726Zm-21.151,15.788.455-.3h7.152l0,6.523a46.912,46.912,0,0,0,2.292,14.532,30.742,30.742,0,0,0-8.175-1.606,23.951,23.951,0,0,0-3.246-5.414l-.513-.641a8.982,8.982,0,0,1,2.032-13.09ZM1154.4,133.532a27.1,27.1,0,1,1,27.1,27.1A27.126,27.126,0,0,1,1154.4,133.532Zm81.286,27.1h-39.23a31.042,31.042,0,0,0,5.456-3.871h31.841a1.938,1.938,0,0,1,1.936,1.936v1.936Zm-3.871-13.548v5.806h-26.183a31.024,31.024,0,0,0,4.552-7.742h19.7A1.937,1.937,0,0,1,1231.818,147.081Zm-7.74-10.421,0,4.614h-12.631a29.918,29.918,0,0,0,0-15.484h5.022A14.361,14.361,0,0,0,1224.078,136.66Zm-6.54-14.741h-7.351a31.134,31.134,0,0,0-13.713-15.474,43.094,43.094,0,0,1-3.362-16.713V79.339h38.71V89.732A43.409,43.409,0,0,1,1217.538,121.919Z"/><path class="b" d="M1374.185,232.274l2.758,2.718a39.424,39.424,0,0,0,11.344-26.458l-3.869-.124A35.573,35.573,0,0,1,1374.185,232.274Z" transform="translate(-160.355 -117.52)"/><rect class="b" width="3.871" height="3.871" transform="translate(1224.08 83.21)"/><rect class="b" width="3.871" height="3.871" transform="translate(1255.048 61.919)"/><rect class="b" width="3.871" height="3.871" transform="translate(1255.048 69.661)"/><rect class="b" width="3.871" height="3.871" transform="translate(1258.919 65.79)"/><rect class="b" width="3.871" height="3.871" transform="translate(1251.177 65.79)"/><rect class="b" width="3.871" height="3.871" transform="translate(1233.758 44.5)"/><rect class="b" width="3.871" height="3.871" transform="translate(1233.758 52.242)"/><rect class="b" width="3.871" height="3.871" transform="translate(1237.629 48.371)"/><rect class="b" width="3.871" height="3.871" transform="translate(1229.887 48.371)"/><rect class="b" width="3.871" height="3.871" transform="translate(1185.371 44.5)"/><rect class="b" width="3.871" height="3.871" transform="translate(1185.371 52.242)"/><rect class="b" width="3.871" height="3.871" transform="translate(1189.242 48.371)"/><rect class="b" width="3.871" height="3.871" transform="translate(1181.5 48.371)"/><rect class="b" width="3.871" height="3.871" transform="translate(1166.016 56.113)"/><rect class="b" width="3.871" height="3.871" transform="translate(1166.016 63.855)"/><rect class="b" width="3.871" height="3.871" transform="translate(1169.887 59.984)"/><rect class="b" width="3.871" height="3.871" transform="translate(1162.145 59.984)"/><rect class="b" width="3.871" height="3.871" transform="translate(1162.145 77.403)"/><rect class="b" width="3.871" height="3.871" transform="translate(1162.145 85.145)"/><rect class="b" width="3.871" height="3.871" transform="translate(1166.016 81.274)"/><rect class="b" width="3.871" height="3.871" transform="translate(1158.274 81.274)"/><g transform="translate(1166.443 119.351)"><path class="b" d="M1259.637,389.067h-8.614a1.268,1.268,0,1,1,0-2.536h8.614a1.268,1.268,0,1,1,0,2.536Z" transform="translate(-1237.584 -364.581)"/><path class="b" d="M1288.192,340.339h-2.908a1.268,1.268,0,0,1,0-2.536h1.64V330.9a1.385,1.385,0,0,0-1.383-1.383h-3a1.268,1.268,0,0,1-1.268-1.268h0v-5.451a1.691,1.691,0,0,0-1.691-1.691h-3.6a1.268,1.268,0,0,1,0-2.536h3.6a4.227,4.227,0,0,1,4.227,4.227h0v4.183h1.735a3.923,3.923,0,0,1,3.919,3.919v8.174A1.268,1.268,0,0,1,1288.192,340.339Z" transform="translate(-1255.476 -315.853)"/><path class="b" d="M1227.5,383.115a5.146,5.146,0,1,1,5.146-5.146h0A5.15,5.15,0,0,1,1227.5,383.115Zm0-7.754a2.61,2.61,0,1,0,2.609,2.61h0a2.612,2.612,0,0,0-2.609-2.611Z" transform="translate(-1217.935 -354.753)"/><path class="b" d="M1285.336,383.115a5.146,5.146,0,1,1,5.146-5.146h0A5.151,5.151,0,0,1,1285.336,383.115Zm0-7.754a2.61,2.61,0,1,0,2.61,2.61h0a2.612,2.612,0,0,0-2.61-2.611Z" transform="translate(-1259.406 -354.753)"/><path class="b" d="M1282.539,350.819h-6.559a1.268,1.268,0,0,1,0-2.536h6.559a1.268,1.268,0,1,1,0,2.536Z" transform="translate(-1255.478 -337.158)"/><path class="b" d="M1295.157,389.061a1.137,1.137,0,0,1-.124-.007,1.11,1.11,0,0,1-.123-.019.919.919,0,0,1-.12-.03c-.04-.012-.078-.026-.117-.041a1.035,1.035,0,0,1-.112-.053,1.2,1.2,0,0,1-.106-.063,1.261,1.261,0,0,1-.194-.158c-.029-.029-.057-.06-.085-.092a.919.919,0,0,1-.074-.1,1.225,1.225,0,0,1-.063-.107c-.02-.036-.037-.074-.053-.112a1.089,1.089,0,0,1-.042-.117,1.047,1.047,0,0,1-.03-.12,1.207,1.207,0,0,1-.019-.123c0-.041-.006-.083-.007-.124s0-.084.007-.125.01-.082.019-.123a1.057,1.057,0,0,1,.03-.121,1.1,1.1,0,0,1,.042-.117c.016-.038.034-.076.053-.112s.041-.072.063-.107.048-.068.074-.1a1.168,1.168,0,0,1,.085-.093c.029-.03.061-.058.093-.084a1.156,1.156,0,0,1,.1-.074,1.013,1.013,0,0,1,.106-.064,1.085,1.085,0,0,1,.112-.052q.058-.024.117-.042c.039-.012.079-.022.12-.03a1.117,1.117,0,0,1,.123-.019,1.243,1.243,0,0,1,.372.019,1.2,1.2,0,0,1,.237.073,1.148,1.148,0,0,1,.219.117,1.048,1.048,0,0,1,.1.074,1.215,1.215,0,0,1,.093.084c.028.03.057.06.085.093a1.105,1.105,0,0,1,.074.1c.023.035.045.07.064.107a1.2,1.2,0,0,1,.052.112,1.165,1.165,0,0,1,.042.117c.012.04.022.085.031.121s.014.085.018.123a1.3,1.3,0,0,1,0,.249c0,.041-.011.084-.018.123s-.019.08-.031.12a1.149,1.149,0,0,1-.042.117c-.015.038-.034.076-.052.112a1.437,1.437,0,0,1-.138.207,1.141,1.141,0,0,1-.085.092,1.206,1.206,0,0,1-.093.085,1.059,1.059,0,0,1-.1.074q-.053.034-.106.063c-.037.02-.074.037-.113.053s-.078.029-.117.041a.983.983,0,0,1-.121.03,1.115,1.115,0,0,1-.123.019A1.159,1.159,0,0,1,1295.157,389.061Z" transform="translate(-1269.227 -364.576)"/><path class="b" d="M1237.319,389.074a1.3,1.3,0,0,1-.248-.025.964.964,0,0,1-.12-.03c-.04-.012-.078-.026-.117-.041a1.131,1.131,0,0,1-.112-.054,1.231,1.231,0,0,1-.107-.063c-.035-.023-.068-.048-.1-.074a1.278,1.278,0,0,1-.176-.176,1.173,1.173,0,0,1-.074-.1c-.023-.033-.044-.067-.063-.1s-.037-.074-.053-.112a1.115,1.115,0,0,1-.042-.117,1.047,1.047,0,0,1-.03-.12,1.171,1.171,0,0,1-.019-.123c0-.041-.006-.083-.007-.124s0-.084.007-.125.01-.082.019-.123a1.058,1.058,0,0,1,.03-.121c.012-.04.026-.079.042-.117a1.071,1.071,0,0,1,.053-.112c.02-.037.04-.072.063-.107a1.271,1.271,0,0,1,.254-.276,1.376,1.376,0,0,1,.207-.138,1.423,1.423,0,0,1,.229-.095c.04-.012.079-.022.12-.03a1.147,1.147,0,0,1,.124-.019,1.243,1.243,0,0,1,.372.019,1.222,1.222,0,0,1,.121.03,1.206,1.206,0,0,1,.117.042,1.087,1.087,0,0,1,.112.052c.036.019.072.041.107.064a1.324,1.324,0,0,1,.351.353,1.082,1.082,0,0,1,.063.107c.019.036.037.074.053.112a1.16,1.16,0,0,1,.041.117c.012.04.022.085.03.121a1.1,1.1,0,0,1,.019.123,1.192,1.192,0,0,1,.006.125,1.178,1.178,0,0,1-.006.125,1.114,1.114,0,0,1-.019.123c-.008.04-.018.08-.03.12s-.026.079-.041.117a1.159,1.159,0,0,1-.053.112,1.235,1.235,0,0,1-.063.107c-.023.035-.048.068-.074.1a1.11,1.11,0,0,1-.085.092,1.389,1.389,0,0,1-.193.158c-.035.023-.071.044-.107.063a1.234,1.234,0,0,1-.112.053,1.207,1.207,0,0,1-.117.042,1.047,1.047,0,0,1-.121.03.8.8,0,0,1-.25.018Z" transform="translate(-1227.759 -364.589)"/><path class="b" d="M1227.253,333.46h-7.062a1.268,1.268,0,1,1,0-2.536h5.794V311.51h-16.7v19.414h3.148a1.268,1.268,0,1,1,0,2.536h-4.416a1.268,1.268,0,0,1-1.268-1.268v-21.95a1.268,1.268,0,0,1,1.268-1.268h19.233a1.268,1.268,0,0,1,1.268,1.268v21.95A1.268,1.268,0,0,1,1227.253,333.46Z" transform="translate(-1206.752 -308.974)"/><path class="b" d="M1314.825,365.5h-1.7a1.268,1.268,0,1,1,0-2.536h1.7a1.268,1.268,0,1,1,0,2.536Z" transform="translate(-1282.109 -347.684)"/></g></g></g></svg>