<svg xmlns="http://www.w3.org/2000/svg" xmlns:xlink="http://www.w3.org/1999/xlink" width="208" height="208" viewBox="0 0 208 208"><defs><style>.a{fill:#fff;}.b{fill:#0eb2bb;}.c{filter:url(#a);}</style><filter id="a" x="0" y="0" width="208" height="208" filterUnits="userSpaceOnUse"><feOffset dy="3" input="SourceAlpha"/><feGaussianBlur stdDeviation="3" result="b"/><feFlood flood-opacity="0.161"/><feComposite operator="in" in2="b"/><feComposite in="SourceGraphic"/></filter></defs><g transform="translate(-985 -4495)"><g class="c" transform="matrix(1, 0, 0, 1, 985, 4495)"><circle class="a" cx="95" cy="95" r="95" transform="translate(9 6)"/></g><g transform="translate(985.5 4492.51)"><g transform="translate(43.5 43.49)"><path class="b" d="M161.97,98.292l-5.3-1.228a53.133,53.133,0,0,0-11.029-26.617l2.883-4.622a1.982,1.982,0,0,0-.28-2.445l-4.633-4.633a1.981,1.981,0,0,0-2.445-.28l-4.619,2.883A53.154,53.154,0,0,0,109.929,50.32l-1.228-5.3a1.976,1.976,0,0,0-1.926-1.53h-6.551A1.978,1.978,0,0,0,98.3,45.02l-1.228,5.3A53.133,53.133,0,0,0,70.453,61.349l-4.619-2.88a1.974,1.974,0,0,0-2.445.28l-4.633,4.633a1.981,1.981,0,0,0-.28,2.445l2.883,4.622A53.154,53.154,0,0,0,50.33,97.066l-5.3,1.228a1.976,1.976,0,0,0-1.53,1.926v6.551a1.978,1.978,0,0,0,1.53,1.926l5.3,1.228a53.133,53.133,0,0,0,11.029,26.617l-2.883,4.616a1.982,1.982,0,0,0,.28,2.445l4.633,4.633a1.981,1.981,0,0,0,2.445.28l4.619-2.883a53.153,53.153,0,0,0,26.617,11.029l1.228,5.3a1.976,1.976,0,0,0,1.926,1.53h6.551a1.978,1.978,0,0,0,1.926-1.53l1.228-5.3a53.133,53.133,0,0,0,26.617-11.029l4.619,2.883a1.974,1.974,0,0,0,2.445-.28l4.633-4.633a1.981,1.981,0,0,0,.28-2.445l-2.883-4.619a53.154,53.154,0,0,0,11.029-26.617l5.3-1.228a1.976,1.976,0,0,0,1.53-1.926v-6.551A1.978,1.978,0,0,0,161.97,98.292Zm-2.423,6.906-5.142,1.192a1.977,1.977,0,0,0-1.522,1.742,49.253,49.253,0,0,1-11.187,27,1.971,1.971,0,0,0-.155,2.307l2.8,4.481-2.411,2.411-4.481-2.8a1.971,1.971,0,0,0-2.307.155,49.245,49.245,0,0,1-27,11.187,1.98,1.98,0,0,0-1.745,1.522l-1.189,5.142h-3.408l-1.189-5.142a1.977,1.977,0,0,0-1.745-1.522,49.253,49.253,0,0,1-27-11.187,1.975,1.975,0,0,0-2.307-.155l-4.481,2.8-2.411-2.411,2.8-4.481a1.971,1.971,0,0,0-.155-2.307,49.245,49.245,0,0,1-11.187-27,1.974,1.974,0,0,0-1.522-1.742L47.45,105.2V101.79l5.142-1.192a1.977,1.977,0,0,0,1.522-1.742,49.253,49.253,0,0,1,11.187-27,1.976,1.976,0,0,0,.155-2.307l-2.8-4.481,2.411-2.411,4.481,2.8A1.971,1.971,0,0,0,71.86,65.3a49.245,49.245,0,0,1,27-11.187,1.974,1.974,0,0,0,1.742-1.522l1.189-5.142H105.2l1.189,5.142a1.977,1.977,0,0,0,1.742,1.522,49.253,49.253,0,0,1,27,11.187,1.975,1.975,0,0,0,2.307.155l4.481-2.8,2.411,2.411-2.8,4.481a1.971,1.971,0,0,0,.155,2.307,49.245,49.245,0,0,1,11.187,27A1.974,1.974,0,0,0,154.4,100.6l5.142,1.192V105.2Z" transform="translate(-43.5 -43.49)"/><path class="b" d="M128.917,333.622a2.338,2.338,0,0,0-.194-.362,2.04,2.04,0,0,0-.26-.317,2.115,2.115,0,0,0-1.889-.574,2.237,2.237,0,0,0-.389.12,2,2,0,0,0-.362.194,1.9,1.9,0,0,0-.32.26,2.227,2.227,0,0,0-.26.317,2.1,2.1,0,0,0-.191.362,1.978,1.978,0,0,0-.12.392,2.1,2.1,0,0,0,.891,2.15,2.194,2.194,0,0,0,.362.191,2.247,2.247,0,0,0,.389.12,2.139,2.139,0,0,0,.41.042,2.1,2.1,0,0,0,2.054-2.5A2.2,2.2,0,0,0,128.917,333.622Z" transform="translate(-101.955 -250.939)"/><path class="b" d="M142.779,99.53A43.266,43.266,0,0,0,103.4,160.682a1.935,1.935,0,1,0,3.521-1.6,39.416,39.416,0,1,1,7.33,10.849,1.935,1.935,0,1,0-2.8,2.67,43.25,43.25,0,1,0,31.33-73.067Z" transform="translate(-82.779 -82.776)"/><g transform="translate(-41.075 6.956)"><path class="b" d="M101.074,78.62,78.144,58.964a13.53,13.53,0,0,1,8.807-23.806h1.432a13.61,13.61,0,0,1,10.828,5.413l1.863,2.489,1.867-2.487a13.607,13.607,0,0,1,10.828-5.415H115.2a13.53,13.53,0,0,1,8.805,23.806ZM86.951,39.109a9.583,9.583,0,0,0-6.239,16.858l20.362,17.45,20.364-17.452A9.582,9.582,0,0,0,115.2,39.109h-1.432a9.633,9.633,0,0,0-7.667,3.835l-5.028,6.7-5.026-6.705a9.63,9.63,0,0,0-7.665-3.833Z"/></g></g></g></g></svg>