<svg xmlns="http://www.w3.org/2000/svg" xmlns:xlink="http://www.w3.org/1999/xlink" width="1440" height="732.194" viewBox="0 0 1440 732.194"><defs><style>.a{fill:none;}.b{fill:#eaf1f2;}.c{fill:#d8e7e8;}.d{fill:#f1f9f9;}.e{opacity:0.28;}.f{fill:#d7ebec;}.g{fill:#f9f38c;}.h{fill:#5aa6aa;}.i{fill:#7ebcbf;}.j{fill:#99d1d4;}.k{fill:#2d7c80;}.l{fill:#020b08;}.m{fill:#94cab9;}.n{fill:#365e52;}.o{fill:#6e3f1c;}.p{fill:#8c532d;}.q{fill:#e08761;}.r{fill:#1c2f17;}.s{fill:#c9784f;}.t{fill:#525450;}.u{fill:#aa6944;}.v{fill:#ff5b00;}.w{fill:#117c62;}.x{fill:#e04c03;}.y{fill:#0e664f;}.z{fill:#f9f4de;}.aa{fill:#421c02;}.ab{fill:#682503;}.ac{fill:#f9eec0;}.ad{fill:#3a2f01;}.ae{fill:#6b5703;}.af{fill:#3f2910;}.ag{fill:#cfb286;}.ah{fill:#c19f72;}.ai{fill:#6d5d0f;}.aj{fill:#493d0c;}.ak{fill:#5e3d16;}.al{opacity:0.17;}.am{fill:#fcfcfc;}.an{fill:#2d1c0c;}.ao{fill:#111;}.ap{fill:#d6d6d6;}.aq{fill:#5c6067;}.ar{fill:#92969b;}.as{opacity:0.33;}.at{fill:#fff;}.au{fill:#a0886a;}.av{fill:#846f57;}.aw{fill:#bca286;}.ax{fill:#281502;}.ay{fill:#2c3527;}.az{fill:#b4955a;}.ba{fill:#d8560e;}.bb{fill:#3d1f44;}.bc{fill:#0a4731;}.bd{fill:#2fba85;}.be{fill:#149120;}.bf{fill:#fcd806;}.bg{fill:#3f3501;}.bh{fill:#fc6dae;}.bi{fill:#2be8fc;}.bj{fill:#152084;}.bk{fill:#838487;}.bl{fill:#084351;}.bm{fill:#a01a50;}.bn{fill:#fc0676;}.bo{fill:#262626;}.bp{fill:#282828;}.bq{fill:#141414;}.br{opacity:0.42;}.bs{fill:#f1df98;}.bt{fill:#e2da7a;}.bu{fill:#56600e;}.bv{fill:#1e3300;}.bw{fill:#4f5b0e;}.bx{opacity:0.1;}.by{fill:#512502;}.bz{fill:#ef7d16;}.ca{fill:#9faf2f;}.cb{fill:#939b2c;}.cc{fill:#707219;}.cd{fill:#606016;}.ce{fill:#c6c485;}.cf{fill:#b2af6f;}.cg{fill:#2d3f0d;}.ch{fill:#486e1a;}.ci{fill:#103300;}.cj{fill:#4f7714;}.ck{fill:#7aa327;}.cl{fill:#1e2a00;}.cm{fill:#153100;}.cn{fill:#26330a;}.co{fill:#0d979e;}.cp{fill:#1e1d01;}.cq{fill:#303001;}.cr{fill:#0eb2bb;}.cs{fill:#210b01;}.ct{fill:#efb16f;}.cu{fill:#f9c582;}.cv{clip-path:url(#a);}.cw{fill:#ff5e36;}.cx{fill:#ff6038;}.cy{fill:#ff6339;}.cz{fill:#ff653b;}.da{fill:#fe673d;}.db{fill:#fe693e;}.dc{fill:#fe6b40;}.dd{fill:#fe6e41;}.de{fill:#fe7043;}.df{fill:#fe7245;}.dg{fill:#fe7446;}.dh{fill:#fe7648;}.di{fill:#fd7849;}.dj{fill:#fd7a4b;}.dk{fill:#fd7c4c;}.dl{fill:#fd7e4d;}.dm{fill:#fd804f;}.dn{fill:#fd8150;}.do{fill:#fd8351;}.dp{fill:#fd8553;}.dq{fill:#fd8754;}.dr{fill:#fd8855;}.ds{fill:#fc8a57;}.dt{fill:#fc8c58;}.du{fill:#fc8e59;}.dv{fill:#fc8f5a;}.dw{fill:#fc915b;}.dx{fill:#fc925d;}.dy{fill:#fc945e;}.dz{fill:#fc955f;}.ea{fill:#fc9760;}.eb{fill:#fc9861;}.ec{fill:#fc9a62;}.ed{fill:#fb9b63;}.ee{fill:#fb9d64;}.ef{fill:#fb9e65;}.eg{fill:#fb9f66;}.eh{fill:#fba167;}.ei{fill:#fba268;}.ej{fill:#fba369;}.ek{fill:#fba46a;}.el{fill:#fba66b;}.em{fill:#fba76c;}.en{fill:#fba86d;}.eo{fill:#fba96d;}.ep{fill:#fbaa6e;}.eq{fill:#fbab6f;}.er{fill:#faac70;}.es{fill:#faad70;}.et{fill:#faae71;}.eu{fill:#faaf72;}.ev{fill:#fab073;}.ew{fill:#fab173;}.ex{fill:#fab274;}.ey{fill:#fab375;}.ez{fill:#fab475;}.fa{fill:#fab576;}.fb{fill:#fab677;}.fc{fill:#fab778;}.fd{fill:#fab878;}.fe{fill:#fab879;}.ff{fill:#fab979;}.fg{fill:#faba7a;}.fh{fill:#fabb7b;}.fi{fill:#fabc7b;}.fj{fill:#fabc7c;}.fk{fill:#f9bd7c;}.fl{fill:#f9be7d;}.fm{fill:#f9bf7d;}.fn{fill:#f9bf7e;}.fo{fill:#f9c07e;}.fp{fill:#f9c17f;}.fq{fill:#f9c280;}.fr{fill:#f9c380;}.fs{fill:#f9c381;}.ft{fill:#f9c481;}.fu{fill:#f9c482;}.fv{fill:#e07b58;}.fw{fill:#351102;}.fx{fill:#4dd6de;}.fy{fill:#f46938;}</style><clipPath id="a"><path class="a" d="M705.865,5263.376a35.059,35.059,0,0,1,2.73,3.823,7.049,7.049,0,0,1,.561,4.67,3.548,3.548,0,0,1-.512,1.26,3.206,3.206,0,0,1-2.5,1.212,9.466,9.466,0,0,1-2.835-.454,13.428,13.428,0,0,1-2.911-1.019,6.828,6.828,0,0,1-3.487-4.973,1.782,1.782,0,0,1,.021-.787,2.165,2.165,0,0,1,.972-1.016c2.737-1.849,4.6-4.253,6.741-6.68A7.57,7.57,0,0,0,705.865,5263.376Z" transform="translate(-696.874 -5259.413)"/></clipPath></defs><g transform="translate(0 -4883.537)"><g transform="translate(2.762 5416.127)"><rect class="b" width="1436.855" height="199.604" transform="translate(0 0)"/></g><g transform="translate(0 5416.127)"><path class="c" d="M0,6685.98l1440-99.8-.384-99.8H0Z" transform="translate(0 -6486.376)"/></g><g transform="translate(0 4883.537)"><rect class="d" width="1436.071" height="532.065" transform="translate(0 0)"/></g><g class="e" transform="translate(0 4883.537)"><path class="f" d="M1440,4883.537V5415.6H1301.036c-112.463-108.173-260.871-260.407-515.354-336.888C434.836,4973.272,179,5100.964,0,5031.065V4883.537Z" transform="translate(0 -4883.537)"/></g><g transform="translate(100.749 5159.7)"><rect class="g" width="10.466" height="84.727" transform="translate(10.466 84.727) rotate(180)"/></g><g transform="translate(188.41 4992.11)"><g transform="translate(0)"><g transform="translate(0 12.08)"><path class="h" d="M736.417,5107.246l4.832,33.22,459.648-3.02v-30.2Z" transform="translate(-736.417 -5107.246)"/></g><g transform="translate(111.137 10.872)"><rect class="i" width="13.288" height="89.997"/></g><g transform="translate(175.162 110.058)"><rect class="i" width="13.288" height="89.997"/></g><g transform="translate(357.587 10.872)"><rect class="i" width="13.288" height="89.997"/></g><g transform="translate(370.875 10.872)"><rect class="j" width="93.605" height="89.997"/></g><g transform="translate(318.915 10.872)"><path class="k" d="M1868.771,5103.1l-38.672,32.364V5193.1h38.672Z" transform="translate(-1830.099 -5103.103)"/></g><rect class="i" width="464.48" height="12.08"/><g transform="translate(0 100.271)"><rect class="i" width="464.48" height="12.08"/></g><g transform="translate(99.057 10.872)"><path class="k" d="M1088.2,5103.1l-12.08,34.428.6,55.568H1088.2Z" transform="translate(-1076.122 -5103.103)"/></g><g transform="translate(406.496 112.351)"><rect class="j" width="57.985" height="86.373"/></g><g transform="translate(188.45 112.351)"><path class="h" d="M1382.684,5451.237v18.595H1600.73v-18.717Z" transform="translate(-1382.684 -5451.115)"/></g><g transform="translate(0 112.351)"><rect class="h" width="175.162" height="86.373"/></g><g transform="translate(283.077 90.601)"><rect class="l" width="58.991" height="9.67"/></g><g transform="translate(281.265 79.729)"><rect class="m" width="56.986" height="10.872"/></g><g transform="translate(290.728 59.595)"><rect class="n" width="36.643" height="4.631"/></g><g transform="translate(266.165 90.601)"><path class="o" d="M1649.2,5386.194l16.912-9.67v9.67Z" transform="translate(-1649.2 -5376.524)"/></g><g transform="translate(266.165 79.729)"><path class="p" d="M1649.2,5349.708l15.1-10.47v10.872l-15.1,9.67Z" transform="translate(-1649.2 -5339.239)"/></g><g transform="translate(278.443 59.595)"><path class="q" d="M1703.591,5270.194l-12.285,9.659,2.822,2.019,9.463-7.047Z" transform="translate(-1691.306 -5270.194)"/></g><g transform="translate(285.896 64.226)"><rect class="r" width="43.891" height="7.047"/></g><g transform="translate(269.185 64.226)"><path class="s" d="M1676.267,5286.074l-16.711,11.275v6.443l16.711-10.671Z" transform="translate(-1659.557 -5286.074)"/></g><g transform="translate(281.265 71.273)"><rect class="t" width="53.354" height="8.456"/></g><g transform="translate(265.762 71.273)"><path class="u" d="M1651.443,5318.7l11.879-8.456v8.456l-15.1,10.47-.4-7.651Z" transform="translate(-1647.818 -5310.24)"/></g><g transform="translate(169.726 35.636)"><rect class="v" width="25.368" height="35.636"/></g><g transform="translate(169.726 71.273)"><rect class="w" width="25.368" height="28.999"/></g><g transform="translate(161.269 35.636)"><path class="x" d="M1297.929,5188.029l-8.456,14.5v25.369l8.456-4.229Z" transform="translate(-1289.473 -5188.029)"/></g><g transform="translate(161.269 71.273)"><path class="y" d="M1289.473,5314.468v24.771h8.456v-29Z" transform="translate(-1289.473 -5310.24)"/></g><g transform="translate(175.162 47.414)"><rect class="y" width="15.402" height="8.154"/></g><g transform="translate(175.162 81.239)"><rect class="v" width="15.402" height="8.154"/></g><g transform="translate(240.797 139.928)"><g transform="translate(1.812 1.812)"><rect class="z" width="53.052" height="63.018"/></g><path class="aa" d="M1617.067,5612.327h-53.052a1.812,1.812,0,0,1-1.812-1.812V5547.5a1.812,1.812,0,0,1,1.812-1.812h53.052a1.811,1.811,0,0,1,1.812,1.812v63.018A1.812,1.812,0,0,1,1617.067,5612.327Zm-51.24-3.624h49.428v-59.394h-49.428Z" transform="translate(-1562.203 -5545.685)"/><g transform="translate(7.449 8.456)"><rect class="ab" width="41.878" height="48.924"/></g></g><g transform="translate(280.057 152.517)"><g transform="translate(3.02 3.02)"><rect class="ac" width="40.066" height="47.408"/></g><path class="ad" d="M1739.927,5642.308h-40.065a3.02,3.02,0,0,1-3.02-3.02v-47.409a3.02,3.02,0,0,1,3.02-3.02h40.065a3.02,3.02,0,0,1,3.02,3.02v47.409A3.02,3.02,0,0,1,1739.927,5642.308Zm-37.045-6.04h34.025V5594.9h-34.025Z" transform="translate(-1696.842 -5588.86)"/></g><g transform="translate(290.728 163.081)"><rect class="ae" width="25.167" height="31.106"/></g><g transform="translate(0 198.724)"><rect class="i" width="464.48" height="12.08"/></g></g><g transform="translate(13.057 300.115)"><g transform="translate(413.81 10.769)"><path class="af" d="M2118.074,6323.11a8.052,8.052,0,0,1-8.053-8.053V6140.014a8.053,8.053,0,0,1,16.106,0v175.044A8.052,8.052,0,0,1,2118.074,6323.11Z" transform="translate(-2110.021 -6131.961)"/></g><path class="c" d="M690.908,6125.668l45.37-30.64h421.884l26.515,30.64Z" transform="translate(-690.908 -6095.029)"/><g transform="translate(0 30.64)"><path class="ag" d="M690.908,6200.1h493.77v13.356l-493.77-2.161Z" transform="translate(-690.908 -6200.104)"/></g><g transform="translate(97.222 30.64)"><path class="ah" d="M1024.32,6200.1l37.124,11.783,359.424,1.573V6200.1Z" transform="translate(-1024.32 -6200.104)"/></g><g transform="translate(0 41.835)"><rect class="j" width="121.38" height="50.673"/></g><g transform="translate(0 143.193)"><rect class="j" width="121.38" height="50.673"/></g><g transform="translate(0 92.508)"><rect class="i" width="121.38" height="50.673"/></g><g transform="translate(56.62 50.343)"><ellipse class="ai" cx="4.174" cy="4.174" rx="4.174" ry="4.174" transform="translate(0 0.209) rotate(-1.432)"/></g><g transform="translate(56.723 100.732)"><path class="ai" d="M893.781,6444.652a4.174,4.174,0,1,1-4.174-4.173A4.174,4.174,0,0,1,893.781,6444.652Z" transform="translate(-885.433 -6440.479)"/></g><g transform="translate(56.723 151.018)"><path class="ai" d="M893.781,6617.1a4.174,4.174,0,1,1-4.174-4.174A4.173,4.173,0,0,1,893.781,6617.1Z" transform="translate(-885.433 -6612.929)"/></g><g transform="translate(4.933 193.866)"><rect class="aj" width="110.78" height="4.351"/></g><g transform="translate(121.38 41.835)"><path class="ak" d="M1107.168,6390.529l12.963-50.673,0-100.771-12.965-.587Z" transform="translate(-1107.168 -6238.498)"/></g><g transform="translate(121.38 41.835)"><path class="af" d="M1107.168,6238.5l12.963,101.358,0-100.771Z" transform="translate(-1107.168 -6238.498)"/></g><g class="al" transform="translate(0 41.835)"><path class="am" d="M690.908,6238.5l121.38,152.031V6238.5Z" transform="translate(-690.908 -6238.498)"/></g><g transform="translate(413.81 43.716)"><path class="an" d="M2110.021,6348.118l16.106,21.643V6244.947l-16.106.279Z" transform="translate(-2110.021 -6244.947)"/></g></g><g transform="translate(265.792 218.095)"><path class="ao" d="M1746.711,5886.292h-91a5.077,5.077,0,0,1-5.075-4.859l-.55-12.7-2.165-49.9a4.879,4.879,0,0,1,4.875-5.087h87.728a5.65,5.65,0,0,1,5.621,5.1l4.863,49.886,1.128,11.573A5.454,5.454,0,0,1,1746.711,5886.292Z" transform="translate(-1647.921 -5813.751)"/><g transform="translate(2.169 54.985)"><path class="ap" d="M1751.98,6019.872h-91a5.077,5.077,0,0,1-5.075-4.859l-.55-12.7h100.923l1.128,11.573A5.453,5.453,0,0,1,1751.98,6019.872Z" transform="translate(-1655.358 -6002.316)"/></g><g transform="translate(31.474 72.541)"><path class="aq" d="M1790.985,6077.451h-26.5a6.482,6.482,0,0,1-4.148-1.5l-.255-.216a11.726,11.726,0,0,1-4.082-7.185,11.4,11.4,0,0,1-.145-1.834v-4.192h23.57l.283,1.422a11.412,11.412,0,0,0,5.586,7.688l6.289,3.527A1.224,1.224,0,0,1,1790.985,6077.451Z" transform="translate(-1755.858 -6062.523)"/></g><g transform="translate(31.474 72.541)"><path class="ar" d="M1781.777,6068.549H1756a11.4,11.4,0,0,1-.145-1.834v-4.192h23.57l.283,1.422A11.342,11.342,0,0,0,1781.777,6068.549Z" transform="translate(-1755.858 -6062.523)"/></g><g class="as" transform="translate(0.649)"><path class="at" d="M1748.287,5886.292h-.42c-23.782-17.005-75.283-53.858-97.722-70.094a4.871,4.871,0,0,1,4.231-2.447H1742.1a5.65,5.65,0,0,1,5.621,5.1l4.863,49.886,1.128,11.573A5.454,5.454,0,0,1,1748.287,5886.292Z" transform="translate(-1650.145 -5813.751)"/></g></g><g transform="translate(170.172 280.961)"><g transform="translate(0 2.897)"><rect class="au" width="63.443" height="29.396"/></g><g transform="translate(2.553 4.6)"><rect class="av" width="16.172" height="7.267"/></g><g transform="translate(2.553 13.373)"><rect class="aw" width="37.647" height="16.499"/></g><g transform="translate(41.444 4.6)"><rect class="av" width="20.362" height="25.272"/></g><g transform="translate(21.442 4.6)"><rect class="av" width="7.071" height="7.071"/></g><g transform="translate(31.23 4.6)"><rect class="av" width="7.071" height="7.071"/></g><g transform="translate(1.522)"><path class="ax" d="M1325.811,6033.318a.589.589,0,0,1-.589-.59v-2.8a.589.589,0,1,1,1.178,0v2.8A.589.589,0,0,1,1325.811,6033.318Z" transform="translate(-1325.222 -6029.341)"/><g transform="translate(1.571)"><path class="ax" d="M1331.2,6033.318a.589.589,0,0,1-.589-.59v-2.8a.589.589,0,1,1,1.178,0v2.8A.589.589,0,0,1,1331.2,6033.318Z" transform="translate(-1330.611 -6029.341)"/></g><g transform="translate(3.143)"><path class="ax" d="M1336.589,6033.318a.589.589,0,0,1-.589-.59v-2.8a.589.589,0,1,1,1.179,0v2.8A.589.589,0,0,1,1336.589,6033.318Z" transform="translate(-1336 -6029.341)"/></g><g transform="translate(4.714)"><path class="ax" d="M1341.978,6033.318a.589.589,0,0,1-.589-.59v-2.8a.589.589,0,1,1,1.179,0v2.8A.589.589,0,0,1,1341.978,6033.318Z" transform="translate(-1341.389 -6029.341)"/></g><g transform="translate(6.286)"><path class="ax" d="M1347.367,6033.318a.589.589,0,0,1-.589-.59v-2.8a.589.589,0,1,1,1.178,0v2.8A.589.589,0,0,1,1347.367,6033.318Z" transform="translate(-1346.778 -6029.341)"/></g><g transform="translate(7.857)"><path class="ax" d="M1352.756,6033.318a.589.589,0,0,1-.589-.59v-2.8a.589.589,0,1,1,1.178,0v2.8A.589.589,0,0,1,1352.756,6033.318Z" transform="translate(-1352.167 -6029.341)"/></g></g><g transform="translate(10.852)"><path class="ax" d="M1357.806,6033.318a.589.589,0,0,1-.589-.59v-2.8a.589.589,0,1,1,1.179,0v2.8A.589.589,0,0,1,1357.806,6033.318Z" transform="translate(-1357.217 -6029.341)"/><g transform="translate(1.571)"><path class="ax" d="M1363.2,6033.318a.589.589,0,0,1-.589-.59v-2.8a.589.589,0,1,1,1.179,0v2.8A.589.589,0,0,1,1363.2,6033.318Z" transform="translate(-1362.606 -6029.341)"/></g><g transform="translate(3.143)"><path class="ax" d="M1368.584,6033.318a.589.589,0,0,1-.589-.59v-2.8a.589.589,0,1,1,1.179,0v2.8A.589.589,0,0,1,1368.584,6033.318Z" transform="translate(-1367.995 -6029.341)"/></g><g transform="translate(4.714)"><path class="ax" d="M1373.973,6033.318a.589.589,0,0,1-.589-.59v-2.8a.589.589,0,1,1,1.179,0v2.8A.589.589,0,0,1,1373.973,6033.318Z" transform="translate(-1373.384 -6029.341)"/></g><g transform="translate(6.286)"><path class="ax" d="M1379.362,6033.318a.589.589,0,0,1-.589-.59v-2.8a.589.589,0,1,1,1.179,0v2.8A.589.589,0,0,1,1379.362,6033.318Z" transform="translate(-1378.773 -6029.341)"/></g><g transform="translate(7.857)"><path class="ax" d="M1384.752,6033.318a.589.589,0,0,1-.589-.59v-2.8a.589.589,0,1,1,1.178,0v2.8A.589.589,0,0,1,1384.752,6033.318Z" transform="translate(-1384.163 -6029.341)"/></g></g><g transform="translate(20.231)"><path class="ax" d="M1389.97,6033.318a.589.589,0,0,1-.589-.59v-2.8a.589.589,0,1,1,1.179,0v2.8A.589.589,0,0,1,1389.97,6033.318Z" transform="translate(-1389.381 -6029.341)"/><g transform="translate(1.572)"><path class="ax" d="M1395.36,6033.318a.589.589,0,0,1-.589-.59v-2.8a.589.589,0,1,1,1.178,0v2.8A.589.589,0,0,1,1395.36,6033.318Z" transform="translate(-1394.771 -6029.341)"/></g><g transform="translate(3.143)"><path class="ax" d="M1400.749,6033.318a.589.589,0,0,1-.589-.59v-2.8a.589.589,0,1,1,1.178,0v2.8A.589.589,0,0,1,1400.749,6033.318Z" transform="translate(-1400.16 -6029.341)"/></g><g transform="translate(4.715)"><path class="ax" d="M1406.138,6033.318a.589.589,0,0,1-.589-.59v-2.8a.589.589,0,1,1,1.178,0v2.8A.589.589,0,0,1,1406.138,6033.318Z" transform="translate(-1405.549 -6029.341)"/></g><g transform="translate(6.286)"><path class="ax" d="M1411.527,6033.318a.589.589,0,0,1-.589-.59v-2.8a.589.589,0,1,1,1.178,0v2.8A.589.589,0,0,1,1411.527,6033.318Z" transform="translate(-1410.938 -6029.341)"/></g><g transform="translate(7.857)"><path class="ax" d="M1416.916,6033.318a.589.589,0,0,1-.589-.59v-2.8a.589.589,0,1,1,1.178,0v2.8A.589.589,0,0,1,1416.916,6033.318Z" transform="translate(-1416.327 -6029.341)"/></g></g><g transform="translate(29.561)"><path class="ax" d="M1421.966,6033.318a.589.589,0,0,1-.589-.59v-2.8a.589.589,0,1,1,1.178,0v2.8A.589.589,0,0,1,1421.966,6033.318Z" transform="translate(-1421.377 -6029.341)"/><g transform="translate(1.571)"><path class="ax" d="M1427.355,6033.318a.589.589,0,0,1-.589-.59v-2.8a.589.589,0,1,1,1.179,0v2.8A.589.589,0,0,1,1427.355,6033.318Z" transform="translate(-1426.766 -6029.341)"/></g><g transform="translate(3.143)"><path class="ax" d="M1432.744,6033.318a.589.589,0,0,1-.589-.59v-2.8a.589.589,0,1,1,1.178,0v2.8A.589.589,0,0,1,1432.744,6033.318Z" transform="translate(-1432.155 -6029.341)"/></g><g transform="translate(4.714)"><path class="ax" d="M1438.133,6033.318a.589.589,0,0,1-.589-.59v-2.8a.589.589,0,1,1,1.178,0v2.8A.589.589,0,0,1,1438.133,6033.318Z" transform="translate(-1437.544 -6029.341)"/></g><g transform="translate(6.286)"><path class="ax" d="M1443.522,6033.318a.589.589,0,0,1-.589-.59v-2.8a.589.589,0,1,1,1.179,0v2.8A.589.589,0,0,1,1443.522,6033.318Z" transform="translate(-1442.933 -6029.341)"/></g><g transform="translate(7.857)"><path class="ax" d="M1448.911,6033.318a.589.589,0,0,1-.589-.59v-2.8a.589.589,0,1,1,1.179,0v2.8A.589.589,0,0,1,1448.911,6033.318Z" transform="translate(-1448.322 -6029.341)"/></g></g><g transform="translate(38.891)"><path class="ax" d="M1453.962,6033.318a.589.589,0,0,1-.589-.59v-2.8a.589.589,0,1,1,1.178,0v2.8A.589.589,0,0,1,1453.962,6033.318Z" transform="translate(-1453.373 -6029.341)"/><g transform="translate(1.571)"><path class="ax" d="M1459.351,6033.318a.589.589,0,0,1-.589-.59v-2.8a.589.589,0,1,1,1.178,0v2.8A.589.589,0,0,1,1459.351,6033.318Z" transform="translate(-1458.762 -6029.341)"/></g><g transform="translate(3.143)"><path class="ax" d="M1464.74,6033.318a.589.589,0,0,1-.589-.59v-2.8a.589.589,0,1,1,1.178,0v2.8A.589.589,0,0,1,1464.74,6033.318Z" transform="translate(-1464.151 -6029.341)"/></g><g transform="translate(4.714)"><path class="ax" d="M1470.129,6033.318a.589.589,0,0,1-.589-.59v-2.8a.589.589,0,1,1,1.179,0v2.8A.589.589,0,0,1,1470.129,6033.318Z" transform="translate(-1469.54 -6029.341)"/></g><g transform="translate(6.286)"><path class="ax" d="M1475.518,6033.318a.589.589,0,0,1-.589-.59v-2.8a.589.589,0,1,1,1.178,0v2.8A.589.589,0,0,1,1475.518,6033.318Z" transform="translate(-1474.929 -6029.341)"/></g><g transform="translate(7.857)"><path class="ax" d="M1480.907,6033.318a.589.589,0,0,1-.589-.59v-2.8a.589.589,0,1,1,1.178,0v2.8A.589.589,0,0,1,1480.907,6033.318Z" transform="translate(-1480.318 -6029.341)"/></g></g><g transform="translate(48.22)"><path class="ax" d="M1485.957,6033.318a.589.589,0,0,1-.589-.59v-2.8a.589.589,0,1,1,1.179,0v2.8A.589.589,0,0,1,1485.957,6033.318Z" transform="translate(-1485.368 -6029.341)"/></g><g transform="translate(49.792)"><path class="ax" d="M1491.346,6033.318a.589.589,0,0,1-.589-.59v-2.8a.589.589,0,1,1,1.179,0v2.8A.589.589,0,0,1,1491.346,6033.318Z" transform="translate(-1490.757 -6029.341)"/></g><g transform="translate(51.363)"><path class="ax" d="M1496.735,6033.318a.589.589,0,0,1-.589-.59v-2.8a.589.589,0,1,1,1.178,0v2.8A.589.589,0,0,1,1496.735,6033.318Z" transform="translate(-1496.146 -6029.341)"/></g><g transform="translate(52.935)"><path class="ax" d="M1502.124,6033.318a.589.589,0,0,1-.589-.59v-2.8a.589.589,0,1,1,1.179,0v2.8A.589.589,0,0,1,1502.124,6033.318Z" transform="translate(-1501.535 -6029.341)"/></g><g transform="translate(54.506)"><path class="ax" d="M1507.513,6033.318a.589.589,0,0,1-.589-.59v-2.8a.589.589,0,1,1,1.179,0v2.8A.589.589,0,0,1,1507.513,6033.318Z" transform="translate(-1506.924 -6029.341)"/></g><g transform="translate(56.078)"><path class="ax" d="M1512.9,6033.318a.589.589,0,0,1-.589-.59v-2.8a.589.589,0,1,1,1.178,0v2.8A.589.589,0,0,1,1512.9,6033.318Z" transform="translate(-1512.314 -6029.341)"/></g><g transform="translate(57.747)"><path class="ax" d="M1518.627,6033.318a.589.589,0,0,1-.589-.59v-2.8a.589.589,0,1,1,1.179,0v2.8A.589.589,0,0,1,1518.627,6033.318Z" transform="translate(-1518.038 -6029.341)"/></g><g transform="translate(59.319)"><path class="ax" d="M1524.017,6033.318a.589.589,0,0,1-.589-.59v-2.8a.589.589,0,1,1,1.178,0v2.8A.589.589,0,0,1,1524.017,6033.318Z" transform="translate(-1523.428 -6029.341)"/></g><g transform="translate(60.89)"><path class="ax" d="M1529.405,6033.318a.589.589,0,0,1-.589-.59v-2.8a.589.589,0,1,1,1.179,0v2.8A.589.589,0,0,1,1529.405,6033.318Z" transform="translate(-1528.816 -6029.341)"/></g></g><g transform="translate(116.809 245.286)"><g transform="translate(0 1.179)"><rect class="ay" width="3.797" height="53.164"/></g><g transform="translate(40.069)"><rect class="ay" width="1.833" height="54.342"/></g><g transform="translate(3.797 1.179)"><rect class="az" width="3.928" height="53.164"/></g><g transform="translate(36.141)"><rect class="az" width="3.928" height="54.342"/></g><g transform="translate(7.726 29.07)"><rect class="az" width="28.415" height="25.272"/></g><g transform="translate(7.726 1.179)"><rect class="ba" width="2.226" height="27.891"/></g><g transform="translate(9.69 1.179)"><rect class="bb" width="2.226" height="27.891"/></g><g transform="translate(11.654 1.179)"><rect class="bc" width="2.226" height="27.891"/></g><g transform="translate(13.619 1.179)"><rect class="bd" width="2.226" height="27.891"/></g><g transform="translate(15.583 1.179)"><rect class="be" width="2.226" height="27.891"/></g><g transform="translate(17.547 1.179)"><rect class="bf" width="2.226" height="27.891"/></g><g transform="translate(19.512 1.179)"><rect class="bg" width="2.226" height="27.891"/></g><g transform="translate(21.476 1.179)"><rect class="bh" width="2.226" height="27.891"/></g><g transform="translate(23.44 1.179)"><rect class="bi" width="2.226" height="27.891"/></g><g transform="translate(25.405 1.179)"><rect class="bj" width="2.226" height="27.891"/></g><g transform="translate(27.369 1.179)"><rect class="bk" width="2.226" height="27.891"/></g><g transform="translate(29.333 1.179)"><rect class="bl" width="2.226" height="27.891"/></g><g transform="translate(31.297 1.179)"><rect class="bm" width="2.226" height="27.891"/></g><g transform="translate(33.262 1.179)"><rect class="bn" width="2.879" height="27.891"/></g></g><g transform="translate(11.549 129.024)"><g transform="translate(15.956 171.915)"><path class="bo" d="M4.452,0H43.474a4.452,4.452,0,0,1,4.452,4.452v0A4.452,4.452,0,0,1,43.474,8.9H4.452A4.452,4.452,0,0,1,0,4.452v0A4.452,4.452,0,0,1,4.452,0Z"/></g><g transform="translate(1.159 59.17)"><path class="bo" d="M814.7,5825.133H801.865a1.179,1.179,0,0,1-1.159-.964L780.016,5712.6a1.179,1.179,0,0,1,1.159-1.394h4.714a1.179,1.179,0,0,1,1.141.884l28.808,111.565a1.179,1.179,0,0,1-1.141,1.474Zm-11.852-2.357h10.331l-28.2-109.208h-2.384Z" transform="translate(-779.997 -5711.21)"/></g><g transform="translate(0 11.245)"><path class="bo" d="M777.2,5597.352a1.179,1.179,0,0,1-.732-2.1l60.608-48.141a1.178,1.178,0,0,1,1.648.18l3.4,4.19a1.178,1.178,0,0,1-.219,1.694l-58.14,42.557a1.2,1.2,0,0,1-.424.2l-5.873,1.393A1.185,1.185,0,0,1,777.2,5597.352Zm5.873-2.573h0Zm54.555-45.1-55.552,44.126.493-.118L839.518,5552Z" transform="translate(-776.023 -5546.854)"/></g><g transform="translate(52.62 15.828)"><path class="bp" d="M980.049,5562.572l22.785,33.783-46.355,6.81,6.023-40Z" transform="translate(-956.478 -5562.572)"/></g><g transform="translate(58.644)"><path class="bq" d="M994.682,5524.12l-3.026-11.035a6.516,6.516,0,0,0-6.8-4.772h0a8.386,8.386,0,0,0-7.717,8.359v10.067Z" transform="translate(-977.135 -5508.292)"/></g></g><g class="br" transform="translate(27.505 178.636)"><path class="bs" d="M913.76,5678.429,1034.3,5831.188l-203.557-.64,36.665-145.31Z" transform="translate(-830.741 -5678.429)"/></g></g><g transform="translate(0 5157.222)"><g transform="translate(50.8 16.214)"><path class="bt" d="M185.147,5687.655l-10.934,10.934v71.292h10.934Z" transform="translate(-174.212 -5687.655)"/></g><g transform="translate(0 375.458)"><rect class="i" width="130.052" height="18.547"/></g><g transform="translate(0 366.246)"><path class="h" d="M130.052,6897.262s-48.867-9.211-49.365-9.211H0v9.211Z" transform="translate(0 -6888.051)"/></g><g transform="translate(75.73 16.214)"><path class="k" d="M278.358,6046.9l-18.65-9.211V5687.655l18.65,2.333Z" transform="translate(-259.708 -5687.655)"/></g><g transform="translate(70.919 22.337)"><rect class="bu" width="9.622" height="76.103"/></g><g transform="translate(80.541 18.547)"><rect class="bv" width="7.873" height="80.477"/></g><g transform="translate(61.734 16.214)"><rect class="g" width="9.185" height="82.226" transform="translate(9.185 82.226) rotate(180)"/></g><g transform="translate(55.991 141.716)"><path class="bw" d="M192.015,6171.9h29.71l-1.314-23.783a15.15,15.15,0,0,0-.831-4.173,14.927,14.927,0,0,0-1.964-3.778q-.473-.655-.905-1.337a34.177,34.177,0,0,1-5.371-15.509l-.139-1.518a4.124,4.124,0,0,0-4.113-3.751H206.3a4.13,4.13,0,0,0-4.122,3.886l-.2,3.25a25.671,25.671,0,0,1-4.763,13.444,21.534,21.534,0,0,0-4,11.377Z" transform="translate(-192.015 -6118.051)"/><g class="bx"><path class="by" d="M200.761,6171.9a44.5,44.5,0,0,1,.45-9.062,36.888,36.888,0,0,1,15.5-24.009,34.177,34.177,0,0,1-5.371-15.509l-.139-1.518a4.124,4.124,0,0,0-4.113-3.751H206.3a4.13,4.13,0,0,0-4.122,3.886l-.2,3.25a25.671,25.671,0,0,1-4.763,13.444,21.534,21.534,0,0,0-4,11.377l-1.207,21.893Z" transform="translate(-192.015 -6118.051)"/></g></g><g transform="translate(34.037 141.716)"><path class="bz" d="M116.727,6171.9h29.71l-1.314-23.783a15.15,15.15,0,0,0-.831-4.173,14.927,14.927,0,0,0-1.964-3.778q-.473-.655-.905-1.337a34.176,34.176,0,0,1-5.371-15.509l-.139-1.518a4.124,4.124,0,0,0-4.113-3.751h-.784a4.13,4.13,0,0,0-4.122,3.886l-.2,3.25a25.673,25.673,0,0,1-4.763,13.444,21.533,21.533,0,0,0-4,11.377Z" transform="translate(-116.727 -6118.051)"/><g class="bx"><path class="by" d="M125.473,6171.9a44.5,44.5,0,0,1,.45-9.062,36.887,36.887,0,0,1,15.5-24.009,34.176,34.176,0,0,1-5.371-15.509l-.139-1.518a4.124,4.124,0,0,0-4.113-3.751h-.784a4.13,4.13,0,0,0-4.122,3.886l-.2,3.25a25.673,25.673,0,0,1-4.763,13.444,21.533,21.533,0,0,0-4,11.377l-1.207,21.893Z" transform="translate(-116.727 -6118.051)"/></g></g><g transform="translate(88.354 218.893)"><rect class="bz" width="6.026" height="69.4" transform="translate(6.026 69.4) rotate(180)"/></g><g transform="translate(80.687 224.336)"><rect class="bw" width="7.667" height="63.957"/></g><g transform="translate(76.301 208.978)"><rect class="ca" width="4.386" height="79.315" transform="translate(4.386 79.315) rotate(180)"/></g><g transform="translate(68.339 208.201)"><path class="cb" d="M242.324,6346.829l-7.962-.778v80.092h7.962Z" transform="translate(-234.361 -6346.051)"/></g><g transform="translate(69.497 227.641)"><rect class="cc" width="2.823" height="60.652" transform="translate(2.823 60.652) rotate(180)"/></g><g transform="translate(64.638 224.336)"><path class="cd" d="M226.527,6404.689l-3.888-3.305-.972,61.042,4.86,2.916Z" transform="translate(-221.667 -6401.384)"/></g><g transform="translate(65.609 223.558)"><path class="ce" d="M228.888,6402.8,225,6399.5l2.73-.777,3.981,4.083Z" transform="translate(-225 -6398.718)"/></g><g transform="translate(34.037 258.939)"><rect class="ce" width="16.409" height="30.326" transform="translate(16.409 30.326) rotate(180)"/></g><g transform="translate(9.817 258.939)"><rect class="cf" width="24.22" height="30.326" transform="translate(24.22 30.326) rotate(180)"/></g><g transform="translate(17.195 253.541)"><path class="cg" d="M64.116,6503.775a15.286,15.286,0,0,0-4.277,5.484,5.905,5.905,0,0,0-.76,3.953c1.034-2.3,3.364-3.737,5.68-4.745s4.8-1.762,6.779-3.326c1.8-1.42,1.055-3.5-1.107-3.594A10.36,10.36,0,0,0,64.116,6503.775Z" transform="translate(-58.97 -6501.542)"/></g><g transform="translate(32.92 237.442)"><path class="ch" d="M118.527,6450.374a14.891,14.891,0,0,1,12.088-3.9c-1.974-.294-5.386,2.093-6.9,3.176a20.913,20.913,0,0,0-5.337,5.6,19.864,19.864,0,0,0-1.808,3.5c-.413,1.048-.511,3-1.242,3.826a1.34,1.34,0,0,1-2.347-.247c-.348-.834.392-2.529.608-3.341A17.738,17.738,0,0,1,118.527,6450.374Z" transform="translate(-112.894 -6446.331)"/></g><g transform="translate(33.599 250.869)"><path class="ci" d="M128.076,6497.126a10.646,10.646,0,0,0-5.368-4.36,7.118,7.118,0,0,0-6.669,1.05,1.891,1.891,0,0,0-.816,1.345c0,.773.808,1.332,1.578,1.394a8.37,8.37,0,0,0,2.279-.367,7.17,7.17,0,0,1,7.213,3.017c.99,1.505,1.388,3.374,2.561,4.742a1.862,1.862,0,0,0,1.45.786C132.161,6504.59,128.727,6498.111,128.076,6497.126Z" transform="translate(-115.223 -6492.377)"/></g><g transform="translate(29.053 230.713)"><path class="cj" d="M102.44,6430.605a35.809,35.809,0,0,0-2.795,13.518,3.748,3.748,0,0,0,.352,2.125,1.345,1.345,0,0,0,1.863.51,1.819,1.819,0,0,0,.523-1.008,27.635,27.635,0,0,0,.61-5.575c.26-5.525,1.107-10.756,5.072-14.893.43-.449,1.925-1.35,1.356-1.888-.441-.418-1.788.215-2.179.454C105.11,6425.153,103.437,6428.413,102.44,6430.605Z" transform="translate(-99.635 -6423.254)"/></g><g transform="translate(31.187 252.954)"><path class="ck" d="M113.224,6501.654a3.865,3.865,0,0,0-.771-1.06,4.145,4.145,0,0,0-1.66-.778,4,4,0,0,0-2.53-.13,2.189,2.189,0,0,0-1.093,2.938,4.675,4.675,0,0,0,1.8,1.569,12.309,12.309,0,0,1,3.727,3.384,6.9,6.9,0,0,1,1.17,4.759C117.267,6512.255,114.026,6503.115,113.224,6501.654Z" transform="translate(-106.954 -6499.527)"/></g><g transform="translate(22.476 229.601)"><path class="cl" d="M86.141,6428.269c.071-2.263-.022-4.69-1.338-6.532a5.86,5.86,0,0,0-7.723-1.416c1.811-.218,3.172,1.6,3.9,3.272a22.572,22.572,0,0,1,1.34,13.707,47.859,47.859,0,0,0-1.116,5.053,1.771,1.771,0,0,0,.1.987c.585,1.161,2.205.365,2.731-.4.656-.96.7-2.843.913-3.952A67.523,67.523,0,0,0,86.141,6428.269Z" transform="translate(-77.079 -6419.442)"/></g><g transform="translate(12.261 238.584)"><path class="cm" d="M53.593,6451.681a9.579,9.579,0,0,1,2.768,2.156,11.266,11.266,0,0,1,2.416,6.7c.148,2.3-.283,4.888-2.1,6.3.443-4.266-.444-8.855-3.306-12.049a9.811,9.811,0,0,0-11.318-2.539C43.979,6449.088,50.96,6450.281,53.593,6451.681Z" transform="translate(-42.049 -6450.247)"/></g><g transform="translate(12.403 244.702)"><path class="ch" d="M56.862,6473.935a9.624,9.624,0,0,0-7.773-2.632,8.47,8.47,0,0,0-6.555,4.8,9.576,9.576,0,0,1,7.519-2.29,6.71,6.71,0,0,1,5.536,5.2c.11.668.1,1.356.27,2.011.633,2.444,3.731,1.659,4.124-.456C60.4,6478.34,58.357,6475.367,56.862,6473.935Z" transform="translate(-42.534 -6471.229)"/></g><g transform="translate(10.858 250.313)"><path class="cn" d="M56.168,6491.666a10.219,10.219,0,0,0-4.267-1.115,17.258,17.258,0,0,0-9,1.406,10.255,10.255,0,0,0-5.669,6.859c1.373-2.865,4.835-4.17,8.011-4.167a14.864,14.864,0,0,1,4.091.581,27.078,27.078,0,0,0,4.838,1.369C57.92,6496.954,59.84,6493.764,56.168,6491.666Z" transform="translate(-37.236 -6490.471)"/></g><g transform="translate(94.38 18.547)"><rect class="h" width="13.219" height="356.911"/></g><rect class="i" width="131.511" height="18.547"/><g transform="translate(0 192.918)"><rect class="i" width="131.511" height="18.547"/></g><g transform="translate(0 287.395)"><rect class="i" width="130.052" height="18.547"/></g><g transform="translate(0 98.44)"><rect class="i" width="131.511" height="18.547"/></g></g><g transform="translate(85.701 4985.693)"><g transform="translate(45.81 127.092)"><path class="co" d="M546.992,5481.863c-3.243-3.707-10.582-2-14.491-.2-4.3,1.98-7.935,5.118-11.583,8.131-20.478,16.919-43.673,31.351-69.505,37.541l-.412.1v11.253c9.848-.054,19.086-4.877,28.387-8.329,18.667-6.928,39.567-8.8,55.993-20.057,4.89-3.35,9.357-7.616,11.746-13.04C548.879,5493.287,550.233,5485.568,546.992,5481.863Z" transform="translate(-451 -5479.662)"/></g><g transform="translate(143.076 542.01)"><path class="bz" d="M788.906,6907.43l.164,5.518c.044,1.466.046,3.066-.86,4.221a15.591,15.591,0,0,1-2.541,1.993c-.828.693-1.452,1.91-.891,2.833a1.918,1.918,0,0,0,1.789.8,4.552,4.552,0,0,0,1.916-.712c2.707-1.585,4.994-4.18,5.457-7.283.174-1.167.088-2.365.306-3.524.484-2.577,2.445-4.993,1.812-7.538a.846.846,0,0,0-.2-.414.928.928,0,0,0-.483-.2,27.523,27.523,0,0,0-5.019-.545c-1.076-.018-1.927.074-1.916,1.152C788.452,6904.917,788.869,6906.2,788.906,6907.43Z" transform="translate(-784.563 -6902.576)"/></g><g transform="translate(134.493 540.844)"><path class="bz" d="M759.471,6903.43q.082,2.759.164,5.518c.044,1.466.046,3.066-.859,4.221a15.614,15.614,0,0,1-2.541,1.993c-.829.693-1.452,1.91-.892,2.833a1.918,1.918,0,0,0,1.789.8,4.552,4.552,0,0,0,1.916-.712c2.708-1.585,4.994-4.18,5.457-7.283.174-1.167.088-2.364.306-3.524.484-2.577,2.445-4.993,1.812-7.538a.844.844,0,0,0-.2-.414.927.927,0,0,0-.483-.2,27.556,27.556,0,0,0-5.019-.545c-1.076-.018-1.927.075-1.916,1.152C759.018,6900.917,759.434,6902.2,759.471,6903.43Z" transform="translate(-755.128 -6898.576)"/></g><g transform="translate(104.857 263.177)"><path class="cp" d="M686.888,6227.73c-5.689-17.17-7.324-36.812-10.779-54.524-6.539-33.523-15.321-67.854-17.383-102.42q-2.347-39.348-4.042-78.734c-.117-2.643-1.714-45.363-1.01-45.186.738.187,29.278-.518,29.278-.518l12.462,162.008,3.279,119.375Z" transform="translate(-653.496 -5946.348)"/></g><g transform="translate(118.572 260.45)"><path class="cq" d="M736.612,5937c5.78.029,11.965,11.912,14.24,16.285,4.428,8.514,5.292,18.3,4.491,27.735-1.743,20.564-6.309,41.261-9.311,61.7-2.967,20.2-9.21,42.466-8.7,62.892.283,11.387,4.8,21.786,6.86,32.836,2.374,12.729.334,24.88-1.614,37.468-.562,3.634-5.255,45.2-6.157,45.2h-7.354l-14.1-116.2L700.531,5937Z" transform="translate(-700.531 -5936.996)"/></g><g transform="translate(104.798 127.299)"><path class="cr" d="M709,5616.248c-2.014,0-13.764-15.386-15.159-17.548-4.416-6.842-6.888-11.536-2.811-19.272,7.454-14.145,14.7-28.39,22.306-42.459,7.021-12.982,19.092-26.846,15.371-42.327-.791-3.289-2.925-14.371-8.065-14.271-12.565.243-25.2.032-37.781.032-2.77,0-14.5,24.114-16.377,27.24-3.725,6.191-13.69,16.939-12.141,24.471.609,2.964,2.21,5.642,3.372,8.452,2.573,6.223.137,76.265-4.422,76.265,17.423,0,34.849-.075,52.271.042C705.559,5616.861,709.009,5616.259,709,5616.248Z" transform="translate(-653.295 -5480.37)"/></g><g transform="translate(127.536 2.052)"><path class="cs" d="M747.941,5053.37a27.6,27.6,0,0,0-8.259,8.557,52.812,52.812,0,0,0-3.986,49.741c2.208-6.566,4.505-13.293,8.888-18.625,4.619-5.619,11.244-9.29,15.745-15.006,4.781-6.071,6.394-14.114,3.062-21.242-1.116-2.387-2.345-5-5.071-5.684C754.957,5050.264,750.785,5051.624,747.941,5053.37Z" transform="translate(-731.272 -5050.852)"/></g><g transform="translate(130.233 95.334)"><path class="ct" d="M740.52,5370.749c7.26,2.454,11.663,9.677,15.088,16.534a36.854,36.854,0,0,1,3.809,10.255c.944,5.684-.588,11.454-2.106,17.011a21.95,21.95,0,0,0,29.254-8.98c-1.208-1.361-6.139-1.952-7.861-2.515-3.834-1.253-6.681-2.7-9.425-5.816-5.894-6.689-9.532-18.532-1.7-25.256-6.62-1.51-20.266-1.142-27.056-1.233Z" transform="translate(-740.52 -5370.749)"/></g><g transform="translate(120.239 10.301)"><path class="cu" d="M706.738,5151.281q.116.749.253,1.491c.131.715.276,1.428.433,2.14,1.063,4.815,2.652,9.513,4.038,14.252.15.509.3,1.025.416,1.551.015.06.03.122.045.187a34.643,34.643,0,0,0,4.681.261l24.883.122a34.181,34.181,0,0,0,8.665-.694c7.02-1.806,11.769-7.8,15.469-13.7a138.471,138.471,0,0,0,8.569-15.987c2.978-6.5,5.511-13.3,5.966-20.421a34.829,34.829,0,0,0-.259-6.91,39.975,39.975,0,0,0-14.08-25,38.191,38.191,0,0,0-3.453-2.564,44.119,44.119,0,0,0-30.481-6.384,10.017,10.017,0,0,1,1.814,3.9c1.12,5.281-2.148,5.2-5.773,6.42-5.3,1.778-9.548,6.892-12.03,12.42a29.615,29.615,0,0,0-1.613,4.543,23.658,23.658,0,0,0-.7,3.715c-.006.072-.015.147-.017.22-.107,1.112-.146,2.232-.156,3.356-.045,4.09.255,8.227-1.06,12.035-.054.154-.112.306-.167.458q-.254.656-.561,1.286c-.853,1.771-1.964,3.427-2.836,5.2C706.057,5138.715,705.8,5145.185,706.738,5151.281Z" transform="translate(-706.246 -5079.141)"/></g><g transform="translate(117.506 62.868)"><g transform="translate(0)"><g class="cv"><path class="cw" d="M703.6,5259.412l-6.814,7.734v-7.734Z" transform="translate(-696.812 -5259.412)"/><path class="cw" d="M703.765,5259.412l-6.978,7.919v-.185l6.814-7.734Z" transform="translate(-696.812 -5259.412)"/><path class="cx" d="M703.928,5259.412l-7.141,8.1v-.186l6.978-7.919Z" transform="translate(-696.812 -5259.412)"/><path class="cy" d="M704.091,5259.412l-7.3,8.29v-.186l7.141-8.1Z" transform="translate(-696.812 -5259.412)"/><path class="cz" d="M704.254,5259.412l-7.467,8.475v-.185l7.3-8.29Z" transform="translate(-696.812 -5259.412)"/><path class="da" d="M704.418,5259.412l-7.631,8.66v-.186l7.467-8.475Z" transform="translate(-696.812 -5259.412)"/><path class="db" d="M704.581,5259.412l-7.794,8.846v-.186l7.631-8.66Z" transform="translate(-696.812 -5259.412)"/><path class="dc" d="M704.744,5259.412l-7.957,9.03v-.185l7.794-8.846Z" transform="translate(-696.812 -5259.412)"/><path class="dd" d="M704.907,5259.412l-8.12,9.216v-.186l7.957-9.03Z" transform="translate(-696.812 -5259.412)"/><path class="de" d="M705.07,5259.412l-8.283,9.4v-.186l8.12-9.216Z" transform="translate(-696.812 -5259.412)"/><path class="df" d="M705.234,5259.412,696.787,5269v-.185l8.283-9.4Z" transform="translate(-696.812 -5259.412)"/><path class="dg" d="M705.4,5259.412l-8.61,9.771V5269l8.447-9.586Z" transform="translate(-696.812 -5259.412)"/><path class="dh" d="M705.461,5259.412l.056.049-8.73,9.908v-.186l8.61-9.771Z" transform="translate(-696.812 -5259.412)"/><path class="di" d="M705.517,5259.581l.092.081-8.822,10.011v-.185Z" transform="translate(-696.812 -5259.532)"/><path class="dj" d="M705.609,5259.858l.092.081-8.914,10.116v-.186Z" transform="translate(-696.812 -5259.729)"/><path class="dk" d="M705.7,5260.136l.092.081-9.005,10.22v-.186Z" transform="translate(-696.812 -5259.925)"/><path class="dl" d="M705.793,5260.413l.092.081-9.1,10.324v-.185Z" transform="translate(-696.812 -5260.121)"/><path class="dm" d="M705.885,5260.691l.092.081-9.189,10.429v-.185Z" transform="translate(-696.812 -5260.319)"/><path class="dn" d="M705.976,5260.969l.092.081-9.281,10.533v-.186Z" transform="translate(-696.812 -5260.516)"/><path class="do" d="M706.068,5261.246l.092.081-9.373,10.637v-.185Z" transform="translate(-696.812 -5260.711)"/><path class="dp" d="M706.16,5261.525l.092.081-9.465,10.742v-.186Z" transform="translate(-696.812 -5260.909)"/><path class="dq" d="M706.252,5261.8l.092.081-9.557,10.845v-.185Z" transform="translate(-696.812 -5261.105)"/><path class="dr" d="M706.344,5262.08l.092.081-9.621,10.919-.027-.024v-.13Z" transform="translate(-696.812 -5261.302)"/><path class="ds" d="M696.881,5273.276l.092.081,9.621-10.919-.092-.081Z" transform="translate(-696.879 -5261.499)"/><rect class="dt" width="14.553" height="0.122" transform="translate(0.095 11.859) rotate(-48.623)"/><rect class="du" width="14.553" height="0.123" transform="translate(0.179 11.933) rotate(-48.54)"/><rect class="dv" width="14.553" height="0.122" transform="translate(0.279 12.022) rotate(-48.633)"/><rect class="dw" width="14.553" height="0.122" transform="translate(0.375 12.106) rotate(-48.668)"/><path class="dx" d="M698.456,5274.664l.092.082,9.621-10.919-.092-.081Z" transform="translate(-697.995 -5262.482)"/><rect class="dy" width="14.553" height="0.122" transform="translate(0.555 12.265) rotate(-48.633)"/><rect class="dz" width="14.553" height="0.122" transform="translate(0.651 12.35) rotate(-48.677)"/><rect class="ea" width="14.553" height="0.122" transform="matrix(0.662, -0.749, 0.749, 0.662, 0.729, 12.418)"/><rect class="eb" width="14.553" height="0.123" transform="translate(0.831 12.508) rotate(-48.633)"/><rect class="ec" width="14.553" height="0.122" transform="translate(0.927 12.593) rotate(-48.677)"/><rect class="ed" width="14.553" height="0.122" transform="translate(1.015 12.67) rotate(-48.633)"/><rect class="ee" width="14.553" height="0.123" transform="translate(1.096 12.742) rotate(-48.529)"/><rect class="ef" width="14.553" height="0.122" transform="matrix(0.66, -0.751, 0.751, 0.66, 1.203, 12.835)"/><rect class="eg" width="14.553" height="0.122" transform="matrix(0.662, -0.749, 0.749, 0.662, 1.28, 12.904)"/><rect class="eh" width="14.553" height="0.123" transform="translate(1.382 12.993) rotate(-48.632)"/><rect class="ei" width="14.553" height="0.122" transform="matrix(0.66, -0.751, 0.751, 0.66, 1.478, 13.078)"/><rect class="ej" width="14.553" height="0.122" transform="translate(1.566 13.155) rotate(-48.633)"/><rect class="ek" width="14.553" height="0.123" transform="translate(1.648 13.228) rotate(-48.529)"/><rect class="el" width="14.553" height="0.122" transform="translate(1.75 13.318) rotate(-48.633)"/><rect class="em" width="14.553" height="0.122" transform="matrix(0.66, -0.751, 0.751, 0.66, 1.845, 13.401)"/><rect class="en" width="14.553" height="0.123" transform="translate(1.924 13.471) rotate(-48.54)"/><rect class="eo" width="14.553" height="0.122" transform="translate(2.025 13.56) rotate(-48.631)"/><rect class="ep" width="14.553" height="0.122" transform="translate(2.121 13.645) rotate(-48.677)"/><path class="eq" d="M704.443,5279.939l.092.082,9.621-10.919-.092-.081Z" transform="translate(-702.236 -5266.219)"/><rect class="er" width="14.553" height="0.122" transform="translate(2.301 13.803) rotate(-48.633)"/><rect class="es" width="14.553" height="0.122" transform="translate(2.397 13.888) rotate(-48.677)"/><rect class="et" width="14.553" height="0.123" transform="matrix(0.662, -0.749, 0.749, 0.662, 2.475, 13.956)"/><rect class="eu" width="14.553" height="0.122" transform="translate(2.577 14.047) rotate(-48.642)"/><rect class="ev" width="14.553" height="0.122" transform="translate(2.672 14.13) rotate(-48.669)"/><rect class="ew" width="14.553" height="0.122" transform="translate(2.76 14.208) rotate(-48.631)"/><path class="ex" d="M706.649,5281.883l.092.081,9.621-10.919-.092-.081Z" transform="translate(-703.798 -5267.596)"/><path class="ey" d="M716.585,5271.243l.074.065v.037l-9.6,10.9-.092-.081Z" transform="translate(-704.022 -5267.793)"/><path class="ez" d="M716.883,5271.775l-9.512,10.794-.092-.081,9.6-10.9Z" transform="translate(-704.245 -5268.04)"/><path class="fa" d="M717.106,5272.411l-9.42,10.689-.092-.081,9.512-10.794Z" transform="translate(-704.468 -5268.489)"/><path class="fa" d="M717.329,5273.046,708,5283.632l-.092-.081,9.42-10.69Z" transform="translate(-704.691 -5268.939)"/><path class="fb" d="M717.552,5273.681l-9.236,10.481-.092-.081,9.328-10.585Z" transform="translate(-704.915 -5269.389)"/><path class="fc" d="M717.775,5274.316l-9.144,10.377-.092-.081,9.236-10.481Z" transform="translate(-705.138 -5269.839)"/><path class="fd" d="M718,5274.951l-9.052,10.272-.092-.081L718,5274.766Z" transform="translate(-705.361 -5270.289)"/><path class="fe" d="M718.222,5275.587l-8.92,10.124h-.091l-.041-.036,9.052-10.273Z" transform="translate(-705.584 -5270.74)"/><path class="ff" d="M718.542,5276.222l-8.757,9.938h-.163l8.921-10.123Z" transform="translate(-705.904 -5271.189)"/><path class="fg" d="M718.938,5276.857l-8.594,9.753h-.163l8.757-9.938Z" transform="translate(-706.3 -5271.639)"/><path class="fg" d="M719.334,5277.492l-8.431,9.568h-.163l8.594-9.754Z" transform="translate(-706.697 -5272.089)"/><path class="fh" d="M719.731,5278.128l-8.268,9.383H711.3l8.431-9.568Z" transform="translate(-707.094 -5272.54)"/><path class="fi" d="M720.128,5278.763l-8.1,9.2h-.163l8.268-9.383Z" transform="translate(-707.49 -5272.989)"/><path class="fj" d="M720.524,5279.4l-7.941,9.012h-.163l8.1-9.2Z" transform="translate(-707.887 -5273.439)"/><path class="fk" d="M720.921,5280.034l-7.778,8.827h-.163l7.941-9.012Z" transform="translate(-708.283 -5273.89)"/><path class="fk" d="M721.317,5280.669l-7.615,8.642h-.163l7.778-8.827Z" transform="translate(-708.68 -5274.34)"/><path class="fl" d="M721.714,5281.3l-7.451,8.457H714.1l7.615-8.642Z" transform="translate(-709.076 -5274.789)"/><path class="fl" d="M722.11,5281.938l-7.288,8.271h-.163l7.452-8.457Z" transform="translate(-709.473 -5275.238)"/><path class="fm" d="M722.507,5282.575l-7.125,8.086h-.163l7.288-8.271Z" transform="translate(-709.869 -5275.689)"/><path class="fn" d="M722.9,5283.21l-6.962,7.9h-.163l7.125-8.085Z" transform="translate(-710.266 -5276.14)"/><path class="fo" d="M723.3,5283.845l-6.8,7.715h-.163l6.962-7.9Z" transform="translate(-710.662 -5276.589)"/><path class="fo" d="M723.7,5284.479l-6.635,7.53H716.9l6.8-7.716Z" transform="translate(-711.059 -5277.039)"/><path class="fp" d="M724.093,5285.116l-6.472,7.344h-.163l6.635-7.53Z" transform="translate(-711.455 -5277.489)"/><path class="fp" d="M724.49,5285.751l-6.309,7.16h-.163l6.472-7.345Z" transform="translate(-711.852 -5277.94)"/><path class="fp" d="M724.886,5286.385l-6.146,6.975h-.163l6.309-7.16Z" transform="translate(-712.248 -5278.389)"/><path class="fq" d="M725.282,5287.021l-5.983,6.789h-.163l6.146-6.975Z" transform="translate(-712.645 -5278.839)"/><path class="fq" d="M725.679,5287.656l-5.819,6.6H719.7l5.982-6.789Z" transform="translate(-713.042 -5279.29)"/><path class="fq" d="M726.076,5288.292l-5.656,6.419h-.163l5.819-6.6Z" transform="translate(-713.438 -5279.74)"/><path class="fr" d="M726.472,5288.927l-5.493,6.233h-.163l5.656-6.418Z" transform="translate(-713.835 -5280.19)"/><path class="fr" d="M726.869,5289.562l-5.33,6.048h-.163l5.493-6.233Z" transform="translate(-714.231 -5280.639)"/><path class="fs" d="M727.265,5290.2l-5.166,5.863h-.163l5.33-6.048Z" transform="translate(-714.627 -5281.089)"/><path class="fs" d="M727.662,5290.833l-5,5.678H722.5l5.166-5.863Z" transform="translate(-715.024 -5281.539)"/><path class="ft" d="M728.058,5291.468l-4.84,5.493h-.163l5-5.678Z" transform="translate(-715.421 -5281.989)"/><path class="ft" d="M728.455,5292.1l-4.677,5.307h-.163l4.84-5.493Z" transform="translate(-715.817 -5282.439)"/><path class="ft" d="M728.851,5292.738l-4.513,5.122h-.163l4.677-5.307Z" transform="translate(-716.214 -5282.89)"/><path class="ft" d="M729.248,5293.374l-4.35,4.937h-.163l4.513-5.122Z" transform="translate(-716.61 -5283.34)"/><path class="ft" d="M729.644,5294.009l-4.187,4.751h-.163l4.35-4.937Z" transform="translate(-717.007 -5283.79)"/><path class="fu" d="M730.041,5294.645l-4.024,4.566h-.163l4.187-4.751Z" transform="translate(-717.403 -5284.24)"/><path class="cu" d="M730.437,5295.279l-3.861,4.382h-.163l4.024-4.567Z" transform="translate(-717.8 -5284.689)"/><path class="cu" d="M730.834,5295.915l-3.7,4.2h-.163l3.861-4.381Z" transform="translate(-718.196 -5285.14)"/><path class="cu" d="M731.231,5296.55l-3.534,4.011h-.163l3.7-4.2Z" transform="translate(-718.593 -5285.59)"/><path class="cu" d="M731.627,5297.185l-3.371,3.826h-.163l3.534-4.011Z" transform="translate(-718.989 -5286.04)"/><path class="cu" d="M732.024,5297.82l-3.208,3.64h-.163l3.371-3.825Z" transform="translate(-719.386 -5286.489)"/><path class="cu" d="M732.42,5298.456l-3.044,3.455h-.163l3.208-3.64Z" transform="translate(-719.782 -5286.94)"/><path class="cu" d="M732.817,5299.091l-2.881,3.27h-.163l3.044-3.455Z" transform="translate(-720.179 -5287.39)"/><path class="cu" d="M733.213,5299.726l-2.718,3.084h-.163l2.881-3.27Z" transform="translate(-720.576 -5287.839)"/><path class="cu" d="M733.61,5300.362l-2.555,2.9h-.163l2.718-3.085Z" transform="translate(-720.972 -5288.29)"/><path class="cu" d="M734.006,5301l-2.392,2.713h-.163l2.555-2.9Z" transform="translate(-721.369 -5288.74)"/><path class="cu" d="M734.4,5301.631l-2.228,2.529h-.163l2.392-2.713Z" transform="translate(-721.765 -5289.19)"/><path class="cu" d="M732.571,5304.61l2.228-2.529v2.529Z" transform="translate(-722.162 -5289.639)"/></g></g></g><g transform="translate(125.869 34.088)"><path class="ct" d="M774.644,5160.716a53.528,53.528,0,0,1,5.754,1.687,33.807,33.807,0,0,1,13.175,8.953,34.786,34.786,0,0,1,.26,6.913c-.454,7.117-2.99,13.924-5.967,20.421a138.249,138.249,0,0,1-8.568,15.986c-3.7,5.9-8.447,11.9-15.468,13.7a34.12,34.12,0,0,1-8.664.7q-12.44-.061-24.883-.122a34.517,34.517,0,0,1-4.682-.264c-.014-.063-.029-.124-.044-.186a91.578,91.578,0,0,0,8.766-2.735A62.392,62.392,0,0,0,750.289,5216a77.455,77.455,0,0,0,14.612-16.225,64.682,64.682,0,0,0,7.689-14.842A49.356,49.356,0,0,0,774.644,5160.716Z" transform="translate(-725.555 -5160.716)"/></g><g transform="translate(115.96 42.743)"><path class="fv" d="M692.272,5217.008a22.893,22.893,0,0,0,6.352-6.149,25.372,25.372,0,0,0,3.62-8.1,23.439,23.439,0,0,0,.67-6.318q.074-.564.124-1.132c.135-1.519-.024-3.4.067-4.919.065.146.37.646.432.792.15.377.274.763.413,1.148a9.912,9.912,0,0,1,.365,1.169,21.635,21.635,0,0,1,.288,9.776,23.973,23.973,0,0,1-3.886,9.048,21.947,21.947,0,0,1-6.7,6.13,8.48,8.48,0,0,0,.966,2.109,9.792,9.792,0,0,0,2.162,2.4,10.264,10.264,0,0,0,2.892,1.626,9.426,9.426,0,0,0,3.385.575,8.287,8.287,0,0,1-3.576.172,10,10,0,0,1-3.46-1.261,10.513,10.513,0,0,1-2.856-2.459,9.511,9.511,0,0,1-1.766-3.446l-.192-.714Z" transform="translate(-691.571 -5190.394)"/></g><g transform="translate(120.983 82.448)"><path class="fv" d="M708.8,5328.046c.131.715.276,1.428.433,2.14l.4.193c.27.112.546.213.823.32l.414.159c.137.053.281.087.42.13l.851.249c.285.079.576.129.865.19s.579.124.872.158l.878.109c.294.036.589.039.885.061.589.04,1.183.013,1.772,0,.3,0,.589-.052.883-.08s.589-.049.88-.108a16.627,16.627,0,0,0,1.729-.38c.283-.084.57-.149.846-.248l.829-.309a7.477,7.477,0,0,0,.808-.354c.263-.128.531-.244.788-.388a14.511,14.511,0,0,0,1.48-.937c.231-.178.467-.344.692-.524.216-.2.433-.388.643-.587.105-.1.212-.193.313-.3l.287-.325c.184-.221.375-.433.548-.658-.264.12-.512.253-.767.375l-.371.192-.381.172c-.257.109-.5.228-.752.339l-.767.295-.377.15c-.124.049-.257.083-.385.126l-.765.251c-.257.075-.518.14-.776.21s-.512.142-.773.19l-.778.165c-.259.054-.523.083-.782.129-.518.094-1.047.133-1.568.193a23.512,23.512,0,0,1-3.147.055c-.261-.015-.525-.011-.786-.041s-.52-.058-.782-.081-.523-.062-.782-.1-.521-.075-.78-.12l-.773-.158c-.129-.028-.261-.05-.388-.079l-.383-.1-.769-.2-.76-.238C709.293,5328.215,709.044,5328.133,708.8,5328.046Z" transform="translate(-708.8 -5326.561)"/></g><g transform="translate(141.596 0)"><path class="fw" d="M779.577,5060.057c.438,4.807,2.85,9.24,5.829,13.038,9.646,12.3,25.347,19.237,33.365,32.655,1.958,3.277,3.39,6.848,5.367,10.113a6.749,6.749,0,0,0,2.67,2.816c2.433,1.139,5.245-.615,7.023-2.63,8.475-9.606,9-24,6.333-35.928-2.693-12.047-9.9-23.239-20.384-29.916a40.242,40.242,0,0,0-14.514-5.682c-8.839-1.576-21.96-1.319-25.155,9.173A16.7,16.7,0,0,0,779.577,5060.057Z" transform="translate(-779.489 -5043.813)"/></g><g transform="translate(16.746 127.299)"><path class="fx" d="M369.234,5520.746c30.223-2.488,60.937-7.009,87.982-20.727,13.32-6.757,33.525-22.463,49.372-19.213,16.615,3.411-.512,23.325-7.1,28.135-13.988,10.212-32.216,14.4-49.242,15.474-24.875,1.576-49.815-3.142-74.646-.248-7.581.883-16.846,3.34-24.27.7C352.708,5520.6,365.341,5521.066,369.234,5520.746Z" transform="translate(-351.329 -5480.368)"/></g><g transform="translate(132.41 61.508)"><path class="fw" d="M807.429,5268.887c-6.253,16.317-17.607,30.137-32.975,38.59-8.851,4.868-15.992,11-20.824,19.966-3.967,7.363-8.668,18.543-3.073,26.269,4.721,6.519,16.583,9.16,23.776,4.82,7.814-4.714,6.666-17.632,8.677-25.346a80.05,80.05,0,0,1,12.5-25.8,105.376,105.376,0,0,0,13.616-25.565c1.151-3.28,8.08-26.251,2.481-27.077C811.094,5254.673,810.761,5260.191,807.429,5268.887Z" transform="translate(-747.985 -5254.747)"/></g><g transform="translate(183.483 66.4)"><path class="fy" d="M929.723,5284.7h3.225a6.588,6.588,0,0,0,6.588-6.588h0a6.588,6.588,0,0,0-6.588-6.588h-3.225a6.588,6.588,0,0,0-6.588,6.588h0A6.588,6.588,0,0,0,929.723,5284.7Z" transform="translate(-923.135 -5271.526)"/></g><g transform="translate(178.33 66.757)"><path class="ct" d="M915.462,5288.567c4.523-1.748,9.269-7.17,6.535-11.933-2.178-3.794-8.061-4.736-11.819-3.143a10.644,10.644,0,0,0-3.385,2,3.921,3.921,0,0,0-1.251,3.568,7.153,7.153,0,0,0,.665,1.54,16.024,16.024,0,0,1,1.436,10.044c1.041-2.049,4.67-1.254,6.527-1.676A9.409,9.409,0,0,0,915.462,5288.567Z" transform="translate(-905.464 -5272.75)"/></g><g transform="translate(183.483 70.873)"><path class="fv" d="M931.885,5289.988a.6.6,0,0,0,.527-.421.911.911,0,0,0,.055-.377.971.971,0,0,0-.112-.381,1.693,1.693,0,0,0-.5-.559,5.5,5.5,0,0,0-.582-.375,7.753,7.753,0,0,0-2.584-.91,6.7,6.7,0,0,0-2.827.115,5.262,5.262,0,0,0-2.53,1.516.733.733,0,0,0,.652,1.223h.006a2.956,2.956,0,0,1,1.812.325,3.074,3.074,0,0,1,1.339,1.337,3.239,3.239,0,0,1,.246,1.978,3.566,3.566,0,0,1-1.006,1.924l.151.045c-.1-.164-.2-.331-.307-.493.036.191.081.378.121.568a.085.085,0,0,0,.1.065.055.055,0,0,0,.02-.006l.029-.015a3.509,3.509,0,0,0,1.656-1.861,3.812,3.812,0,0,0,.086-2.646,4.026,4.026,0,0,0-1.745-2.111,4.119,4.119,0,0,0-2.729-.565l.658,1.221a4.021,4.021,0,0,1,.834-.687,4.411,4.411,0,0,1,.481-.268c.173-.068.341-.149.523-.2a6.57,6.57,0,0,1,2.309-.3,8.7,8.7,0,0,1,2.407.418,2.4,2.4,0,0,1,1.038.5.6.6,0,0,1,.18.476A.5.5,0,0,1,931.885,5289.988Z" transform="translate(-923.135 -5286.865)"/></g><g transform="translate(0 164.548)"><path class="bz" d="M317.676,5608.512l-11.776.382c-4.154.135-8.555.347-12,2.671.371.917,1.592,1.016,2.574,1.134s2.192.8,1.919,1.749a1.9,1.9,0,0,1-.788.91c-1.16.861-2.449,1.913-2.489,3.358a3.083,3.083,0,0,0,1.894,2.711,6.768,6.768,0,0,0,3.438.412,17.659,17.659,0,0,0,6.243-1.745c1.589-.783,3.062-1.806,4.718-2.434a17.31,17.31,0,0,1,5.9-.915c6.785-.1,13.622,1.4,20.314.272,1.347-.227,3.016-1.018,2.82-2.37-.139-.958-1.239-1.8-.836-2.679.418-.91,2.165-.929,2.106-1.928-.038-.638-.834-.886-1.467-.97a48.535,48.535,0,0,0-5.013-.491c-2.651-.075-5.293.285-7.942.42a46.9,46.9,0,0,1-11.749-.887Z" transform="translate(-293.901 -5608.112)"/></g></g></g></svg>