<svg xmlns="http://www.w3.org/2000/svg" width="594.433" height="208.308" viewBox="0 0 594.433 208.308"><defs><style>.a{fill:#ebbc95;}.b{fill:#f65353;}</style></defs><g transform="translate(-74.585 -113.067)"><path class="a" d="M210.615,119.516c-5.4,8.548,3.583,23.208,11.831,28.416l57.748,38.807-.221.008c3.333,29.849,17.373,53.2,34.089,57.151a21.365,21.365,0,0,1-3.517.295c-18.843,0-34.439-24.844-37.131-57.227l-24.673.826c-14.043,0-142.324,6.79-142.324,6.79-10.5-.106-19.078,6.056-19.156,13.766s8.371,14.046,18.871,14.153l108.127,1.1a31.5,31.5,0,0,0-.221,3.608v1.812L97.777,224.267c-11.058-.519-22.794,5.053-23.182,13.312s10.72,14.673,21.777,15.193L214.038,259v3.349l-100.7-4.729c-10.09-.473-19.953,5.106-20.3,12.462s8.958,13.705,19.047,14.179l104.338,4.9a35.084,35.084,0,0,0,1.843,3.864L151.9,290.606c-7.357-.345-17.109,4.636-17.455,11.994s8.848,12.9,16.2,13.243l85.532,4.718c4.582.215,78.623.814,78.623.814,22.01,0,45.231-7.169,56.377-19.827H669.018V194.171H365.529C353.49,181,336.142,171.293,331.581,168.412l-89.589-51.434C233.743,111.769,216.012,110.967,210.615,119.516Z"/><path class="b" d="M175.505,165.375c31.8-22.214,52.118,14.88,52.118,14.88s20.909-36.824,52.423-14.2C334.687,205.28,226.4,294.329,226.4,294.329S120.362,203.888,175.505,165.375Z"/></g></svg>