<svg xmlns="http://www.w3.org/2000/svg" width="446.925" height="538" viewBox="0 0 446.925 538"><defs><style>.a{fill:#bdbdbd;}.b{fill:#212121;}.c{fill:#424242;}.d{fill:#757575;}.e{fill:#333;}.f{fill:#616161;}.g{fill:#a5a5a5;}.h{fill:#f4511e;}.i{fill:#d84315;}.j{fill:#d3d3d3;}.aw,.k{fill:#e0e0e0;}.l{fill:#c9c9c9;}.m{fill:#eceff1;}.aw,.ax,.m,.s{mix-blend-mode:multiply;}.al,.aw,.ax,.m,.o,.s{isolation:isolate;}.ax,.n,.o{fill:#eee;}.o{mix-blend-mode:overlay;}.p{fill:#896247;}.q{fill:#a07355;}.r{fill:#b78563;}.s{fill:#d7ccc8;}.t{fill:#b28462;}.u{fill:#924b34;}.v{fill:#823e2b;}.w{fill:#733628;}.x{fill:#b26b52;}.y{fill:#4e342e;}.z{fill:#f0d2b8;}.aa{fill:#5d4037;}.ab{fill:#8e24aa;}.ac{fill:#fdecdd;}.ad{fill:#ab47bc;}.ae{fill:#039be5;}.af{fill:#455a64;}.ag{fill:#e8d3c4;}.ah{fill:#546e7a;}.ai,.al{fill:#3e2723;}.aj{fill:#fff;}.ak{fill:#ff6f00;}.al{mix-blend-mode:screen;}.am{fill:#c99785;}.an{fill:#7a3c2b;}.ao{fill:#ff8f00;}.ap{fill:#fbc02d;}.aq{fill:#f9a825;}.ar{fill:#fff176;}.as{fill:#fdd835;}.at{fill:#26c6da;}.au{fill:#689f38;}.av{fill:#497725;}.ay{fill:#0097a7;}.az{fill:#e0b7a9;}.ba{fill:#6d4c41;}.bb{fill:#593d35;}.bc{fill:#efebe9;}.bd{fill:#dddad9;}.be{fill:#cccac2;}.bf{fill:#e5e3dc;}.bg{fill:#ffee58;}.bh{fill:#848484;}.bi{fill:#cde5ef;}.bj{fill:#5f75b1;}</style></defs><g transform="translate(-117.61 -27)"><path class="a" d="M564.535,925.155s-100.047,7.918-223.462,7.918-223.463-7.918-223.463-7.918,100.048-7.918,223.463-7.918S564.535,925.155,564.535,925.155Z" transform="translate(0 -368.072)"/><g transform="translate(132.502 27)"><path class="b" d="M456,836.586s6.656,20.617,39.885,17.6C515.241,852.423,519.347,836,519.347,836Z" transform="translate(-272.411 -361.485)"/><path class="c" d="M208,719.144v32.846H543.5V708Z" transform="translate(-169.875 -308.562)"/><path class="d" d="M236,719.144v32.846H538.657V708Z" transform="translate(-181.451 -308.562)"/><path class="c" d="M305.933,851.76,301.828,898.1H242V850Z" transform="translate(-183.932 -367.273)"/><path class="b" d="M294.781,903.885H288.13L288.64,864h3.519Z" transform="translate(-203.005 -373.061)"/><g transform="translate(60.561 497.244)"><path class="e" d="M246.25,882.249h8.54l-3.089-7.5H246.25Z" transform="translate(-246.25 -874.75)"/><path class="e" d="M270.7,882.249h-9.8l-3.089-7.5h9.8Z" transform="translate(-251.028 -874.75)"/><path class="e" d="M282.165,874.75h-4.376l3.089,7.5h1.287Z" transform="translate(-259.29 -874.75)"/><g transform="translate(0 8.78)"><path class="e" d="M279.988,889.719h-7.465l3.089,7.5h4.376Z" transform="translate(-257.113 -889.719)"/><path class="e" d="M253.55,889.719h9.8l3.089,7.5h-9.8Z" transform="translate(-249.268 -889.719)"/><path class="e" d="M246.25,897.219H251.7l-3.089-7.5H246.25Z" transform="translate(-246.25 -889.719)"/></g><g transform="translate(0 18.224)"><path class="e" d="M246.25,913.32h8.54l-3.089-7.5H246.25Z" transform="translate(-246.25 -905.82)"/><path class="e" d="M270.7,913.32h-9.8l-3.089-7.5h9.8Z" transform="translate(-251.028 -905.82)"/><path class="e" d="M282.165,905.82h-4.376l3.089,7.5h1.287Z" transform="translate(-259.29 -905.82)"/></g><g transform="translate(0 27.005)"><path class="e" d="M279.987,920.79v6.575H275.23l-2.71-6.575Z" transform="translate(-257.111 -920.79)"/><path class="e" d="M266.061,927.365h-9.8l-2.71-6.575h9.8Z" transform="translate(-249.268 -920.79)"/><path class="e" d="M251.318,927.365H246.25V920.79h2.364Z" transform="translate(-246.25 -920.79)"/></g></g><g transform="translate(92.891 497.244)"><path class="e" d="M301.37,882.249h8.54l-3.089-7.5H301.37Z" transform="translate(-301.37 -874.75)"/><path class="e" d="M325.817,882.249h-9.8l-3.089-7.5h9.8Z" transform="translate(-306.148 -874.75)"/><path class="e" d="M337.285,874.75h-4.376l3.089,7.5h1.287Z" transform="translate(-314.41 -874.75)"/><g transform="translate(0 8.78)"><path class="e" d="M335.108,889.719h-7.465l3.089,7.5h4.376Z" transform="translate(-312.233 -889.719)"/><path class="e" d="M308.67,889.719h9.8l3.089,7.5h-9.8Z" transform="translate(-304.388 -889.719)"/><path class="e" d="M301.37,897.219h5.451l-3.089-7.5H301.37Z" transform="translate(-301.37 -889.719)"/></g><g transform="translate(0 18.224)"><path class="e" d="M301.37,913.32h8.54l-3.089-7.5H301.37Z" transform="translate(-301.37 -905.82)"/><path class="e" d="M325.817,913.32h-9.8l-3.089-7.5h9.8Z" transform="translate(-306.148 -905.82)"/><path class="e" d="M337.285,905.82h-4.376l3.089,7.5h1.287Z" transform="translate(-314.41 -905.82)"/></g><g transform="translate(0 27.005)"><path class="e" d="M335.107,920.79v6.575H330.35l-2.71-6.575Z" transform="translate(-312.231 -920.79)"/><path class="e" d="M321.181,927.365h-9.8l-2.71-6.575h9.8Z" transform="translate(-304.388 -920.79)"/><path class="e" d="M306.438,927.365H301.37V920.79h2.364Z" transform="translate(-301.37 -920.79)"/></g></g><path class="c" d="M721.933,850v48.1H662.106L658,851.76Z" transform="translate(-355.929 -367.273)"/><path class="b" d="M709.53,903.885h6.651L715.671,864h-3.519Z" transform="translate(-377.234 -373.061)"/><g transform="translate(308.077 497.244)"><g transform="translate(0.001)"><path class="e" d="M668.242,882.249h8.54l-3.089-7.5h-5.451Z" transform="translate(-668.242 -874.75)"/><path class="e" d="M692.688,882.249h-9.8l-3.089-7.5h9.8Z" transform="translate(-673.02 -874.75)"/><path class="e" d="M704.157,874.75h-4.376l3.089,7.5h1.287Z" transform="translate(-681.282 -874.75)"/></g><g transform="translate(0.001 8.78)"><path class="e" d="M701.98,889.719h-7.465l3.089,7.5h4.376Z" transform="translate(-679.105 -889.719)"/><path class="e" d="M675.542,889.719h9.8l3.089,7.5h-9.8Z" transform="translate(-671.26 -889.719)"/><path class="e" d="M668.242,897.219h5.451l-3.089-7.5h-2.363Z" transform="translate(-668.242 -889.719)"/></g><g transform="translate(0.001 18.224)"><path class="e" d="M668.242,913.32h8.54l-3.089-7.5h-5.451Z" transform="translate(-668.242 -905.82)"/><path class="e" d="M692.688,913.32h-9.8l-3.089-7.5h9.8Z" transform="translate(-673.02 -905.82)"/><path class="e" d="M704.157,905.82h-4.376l3.089,7.5h1.287Z" transform="translate(-681.282 -905.82)"/></g><g transform="translate(0 27.005)"><path class="e" d="M701.981,920.79v6.575h-4.757l-2.7-6.575Z" transform="translate(-679.106 -920.79)"/><path class="e" d="M688.051,927.365h-9.8l-2.71-6.575h9.8Z" transform="translate(-671.258 -920.79)"/><path class="e" d="M673.313,927.365H668.24V920.79H670.6Z" transform="translate(-668.24 -920.79)"/></g></g><g transform="translate(341.117 497.244)"><g transform="translate(0.002)"><path class="e" d="M724.573,882.249h8.54l-3.089-7.5h-5.451Z" transform="translate(-724.573 -874.75)"/><path class="e" d="M749.02,882.249h-9.8l-3.089-7.5h9.8Z" transform="translate(-729.351 -874.75)"/><path class="e" d="M760.489,874.75h-4.376l3.089,7.5h1.287Z" transform="translate(-737.613 -874.75)"/></g><g transform="translate(0.002 8.78)"><path class="e" d="M758.311,889.719h-7.465l3.089,7.5h4.376Z" transform="translate(-735.436 -889.719)"/><path class="e" d="M731.874,889.719h9.8l3.089,7.5h-9.8Z" transform="translate(-727.592 -889.719)"/><path class="e" d="M724.573,897.219h5.451l-3.089-7.5h-2.363Z" transform="translate(-724.573 -889.719)"/></g><g transform="translate(0.002 18.224)"><path class="e" d="M724.573,913.32h8.54l-3.089-7.5h-5.451Z" transform="translate(-724.573 -905.82)"/><path class="e" d="M749.02,913.32h-9.8l-3.089-7.5h9.8Z" transform="translate(-729.351 -905.82)"/><path class="e" d="M760.489,905.82h-4.376l3.089,7.5h1.287Z" transform="translate(-737.613 -905.82)"/></g><g transform="translate(0 27.005)"><path class="e" d="M758.311,920.79v6.575h-4.757l-2.7-6.575Z" transform="translate(-735.435 -920.79)"/><path class="e" d="M744.381,927.365h-9.8l-2.71-6.575h9.8Z" transform="translate(-727.588 -920.79)"/><path class="e" d="M729.643,927.365H724.57V920.79h2.364Z" transform="translate(-724.57 -920.79)"/></g></g><path class="c" d="M299,832.7H537.724V811H301.933Z" transform="translate(-207.499 -351.148)"/><path class="f" d="M231,811l1.173,38.125h73.318L318.4,811Z" transform="translate(-179.384 -351.148)"/><path class="f" d="M721.463,811l-1.173,38.125H642.865L637,811Z" transform="translate(-347.246 -351.148)"/><path class="a" d="M550.937,798.779H182V767.106l137.615-1.549,194.727-2.194L546.831,763Z" transform="translate(-159.125 -331.302)"/><path class="g" d="M306.367,780.586v23.266L209,801.7V780l24.471.147,6.61.041,37.111.223,5.8.035Z" transform="translate(-170.288 -338.331)"/><path class="h" d="M306.367,780.586,302.847,801.7H209V780l24.471.147,6.61.041,37.111.223,5.8.035Z" transform="translate(-170.288 -338.331)"/><path class="i" d="M259.542,801.805h-6.534L250.72,780.25l6.61.041Z" transform="translate(-187.537 -338.434)"/><path class="i" d="M329.24,780.735l-3.085,21.256H320.87c.745-6.276,1.736-14.593,2.575-21.292Z" transform="translate(-216.541 -338.62)"/><path class="g" d="M628,780.586l3.519,21.116,96,2.151L725.367,780l-24.471.147-6.61.041-37.111.223-5.8.035Z" transform="translate(-343.525 -338.331)"/><path class="h" d="M628,780.586l3.519,21.116h93.847V780l-24.471.147-6.61.041-37.111.223-5.8.035Z" transform="translate(-343.525 -338.331)"/><path class="i" d="M737.24,801.805h6.534l2.288-21.556-6.61.041Z" transform="translate(-388.691 -338.434)"/><path class="i" d="M667.86,780.735l3.085,21.256h5.285c-.745-6.276-1.736-14.593-2.575-21.292Z" transform="translate(-360.006 -338.62)"/><rect class="a" width="359.552" height="354.86" transform="translate(25.661 58.848)"/><path class="d" d="M275.318,211.693l-.106,41.111-.006,3.132-.258,100.88-.006,1.4-.211,82.82L202,479.744V146Z" transform="translate(-167.394 -76.201)"/><path class="f" d="M202,145.173,543.369,144l-52.2,58.606-215.849,8.26Z" transform="translate(-167.394 -75.374)"/><path class="f" d="M275.213,311.572l-.006,3.132L202,295.941v-7.8Z" transform="translate(-167.394 -134.969)"/><path class="f" d="M274.949,505.42l-.006,1.4L202,524.207v-6.933Z" transform="translate(-167.394 -224.805)"/><path class="j" d="M743.068,144l-.909,85.841-.082,7.561-1.367,129.55-.07,6.5-1.091,103.115L685,437.273l2.035-76.6.065-2.434,2.862-107.479.111-4.247.792-43.9Z" transform="translate(-367.092 -75.374)"/><path class="d" d="M177.606,105.895,143,49.782,561.011,49l-42.036,55.722Z" transform="translate(-143 -36.096)"/><path class="k" d="M565.9,27l-4.886,12.9L404.552,40.2l-209.8.393L143,40.684V32.865l1.114-.018,323.421-4.481Z" transform="translate(-143 -27)"/><path class="f" d="M158.75,76.25l36.9,107.191,3.128-8.6L164.762,84.9Z" transform="translate(-149.512 -47.363)"/><path class="d" d="M761,154.527l.782,11.731L809.1,58.333l-9.385,8.212Z" transform="translate(-398.515 -39.955)"/><path class="a" d="M745.657,290.35l-.082,7.561L693.46,311.266l.111-4.247Z" transform="translate(-370.59 -135.883)"/><path class="a" d="M742.145,515.966l-.07,6.5-53.6-12.787.065-2.434Z" transform="translate(-368.527 -225.561)"/><path class="l" d="M202,685.645,539.85,683.3,485.3,644l-210.57,2.933Z" transform="translate(-167.394 -282.101)"/><ellipse class="f" cx="3.813" cy="7.918" rx="3.813" ry="7.918" transform="translate(45.164 123.908)"/><ellipse class="d" cx="3.813" cy="7.918" rx="3.813" ry="7.918" transform="translate(359.161 111.395)"/><path class="m" d="M491.167,203.433,274.9,236.716,202,146l73.318,65.693Z" transform="translate(-167.394 -76.201)"/><path class="k" d="M450.842,528.05H186.75V238.25l4.059,284.721Z" transform="translate(-161.089 -114.342)"/><path class="n" d="M468.321,29.33c-13.561,4.774-35.5,8.863-62.983,11.831l-209.8.393c-19.989-2.053-37.216-4.687-50.642-7.742Z" transform="translate(-143.786 -27.963)"/><path class="o" d="M303.981,784.4c0,.86-19.934,1.558-44.524,1.558s-44.523-.7-44.523-1.558,19.934-1.558,44.523-1.558S303.981,783.541,303.981,784.4Z" transform="translate(-172.741 -339.507)"/><path class="o" d="M677.471,784.4c0,.86-9.06,1.558-20.236,1.558S637,785.262,637,784.4s9.06-1.558,20.236-1.558S677.471,783.541,677.471,784.4Z" transform="translate(-347.246 -339.507)"/><ellipse class="o" cx="21.849" cy="0.841" rx="21.849" ry="0.841" transform="translate(334.038 444.054)"/><path class="k" d="M611.347,763.62c-25.374,4.229-63.024,6.9-105.056,6.9-34.207,0-65.517-1.771-89.671-4.71Z" transform="translate(-256.129 -331.559)"/></g><g transform="translate(180.615 187.514)"><path class="p" d="M443.947,425.721V400.5h92.381V518.689H445.413Z" transform="translate(-315.54 -341.939)"/><path class="q" d="M389.255,429V530.179H302.447l.88-40.178V429Z" transform="translate(-257.036 -353.723)"/><path class="r" d="M611.741,435.5v73.612l-61.294,2.639L552.5,435.5Z" transform="translate(-359.573 -356.41)"/><path class="q" d="M490.826,495.914V435.5h36.659v86.222H489.947Z" transform="translate(-334.559 -356.41)"/><path class="s" d="M494.62,523.667l6.892,26.443-8.065-2.287Z" transform="translate(-336.006 -392.863)"/><path class="t" d="M355.447,608.843V523.667h82.116v93.554Z" transform="translate(-278.949 -392.863)"/><g transform="translate(232.212 73.625)"><path class="u" d="M636.491,465.732c-2.181,2.938-2.526,8.261-4.636,13.085a5.1,5.1,0,0,1-2.679,2.6c-3.431,1.486-8.178-.569-5.609-8.328,3.431-10.356,15.319-14.659,15.319-14.659a2.733,2.733,0,0,1,.671,1.221C639.966,461.413,638.256,463.356,636.491,465.732Z" transform="translate(-621.714 -439.517)"/><path class="v" d="M640.759,466.593c-2.181,2.939-2.526,8.261-4.636,13.085a5.1,5.1,0,0,1-2.679,2.6,13.385,13.385,0,0,1-.267-3.645c.479-10.088,9.335-17.13,10.648-18.121C644.233,462.274,642.523,464.216,640.759,466.593Z" transform="translate(-625.981 -440.377)"/><path class="u" d="M672.538,430.561a4.367,4.367,0,0,1,8.219-.37c3.4,7.214-2.129,9.157-4.962,9.157Z" transform="translate(-642.264 -426.716)"/><path class="v" d="M677,478.619c-1.775-4.955-2.145-10.1-4.118-13.18-1.659-2.585-3.29-4.7-2.58-6.465a2.761,2.761,0,0,1,.683-.981.8.8,0,0,1,.077.039,25.881,25.881,0,0,1,2.458,1.323,28.966,28.966,0,0,1,9.189,8.571,19.085,19.085,0,0,1,2.563,5.733C688,484.226,678.779,483.58,677,478.619Z" transform="translate(-641.271 -439.335)"/><path class="w" d="M678.592,470.962s3.89,5.857,4.648,9.646-3.584,6.111-3.584,6.111Z" transform="translate(-644.767 -444.697)"/><path class="v" d="M664.674,474.935c0,11.509-5.622,12.628-12.557,12.628-4.112,0-7.766-.4-10.059-3.126-1.566-1.863-2.492-4.828-2.492-9.5,0-11.51,5.622-20.842,12.551-20.842a7.827,7.827,0,0,1,2.641.463C660.424,456.568,664.674,464.93,664.674,474.935Z" transform="translate(-628.632 -437.723)"/><path class="u" d="M662.458,471.924c0,11.51-7.127,13.235-14.061,13.235a21.166,21.166,0,0,1-6.339-.722c-1.566-1.863-2.492-4.828-2.492-9.5a28.728,28.728,0,0,1,3.892-15.082c2.254-3.571,5.308-5.76,8.659-5.76a7.827,7.827,0,0,1,2.641.463,26.844,26.844,0,0,1,5.865,8.522A22.532,22.532,0,0,1,662.458,471.924Z" transform="translate(-628.632 -437.723)"/><path class="w" d="M680.669,434.729c1.324,3.65-2.438,6.236-4.833,1.166C673.667,431.3,678.357,428.357,680.669,434.729Z" transform="translate(-643.397 -428.2)"/><path class="v" d="M663.366,463.078a12.24,12.24,0,0,1-6.345,1.665,14.608,14.608,0,0,1-10.82-4.889c2.254-3.571,5.308-5.76,8.659-5.76a7.827,7.827,0,0,1,2.641.463A26.843,26.843,0,0,1,663.366,463.078Z" transform="translate(-631.375 -437.723)"/><path class="v" d="M663.2,439.767c-.11,5.529-3.66,10.969-9.917,12.06a13.478,13.478,0,0,1-2.353.2c-8.175,0-14.249-7.006-13.781-12.38.37-4.255,2.563-8.952,8.169-10.716a16.9,16.9,0,0,1,5.148-.733C659.938,428.2,663.317,433.576,663.2,439.767Z" transform="translate(-627.623 -427.018)"/><path class="u" d="M661.466,440.509a12.279,12.279,0,0,1-8.18,11.625,13.478,13.478,0,0,1-2.353.2c-8.175,0-14.249-7.006-13.781-12.38.37-4.255,2.563-8.952,8.169-10.716a18.629,18.629,0,0,1,3.412-.3C658.2,428.945,661.581,434.319,661.466,440.509Z" transform="translate(-627.623 -427.325)"/><path class="x" d="M660.551,460.413a9.249,9.249,0,0,1-1.35.265,8.847,8.847,0,0,1-1.014.06c-11.449,0-8.83-11.482,1.35-11.482C671.311,449.256,667.353,458.549,660.551,460.413Z" transform="translate(-633.228 -435.723)"/><path class="y" d="M658.787,447.058c1.239,0,1.845-2.411-.043-2.3A1.156,1.156,0,1,0,658.787,447.058Z" transform="translate(-636.039 -433.863)"/><path class="y" d="M670.079,447.016c1.084,0,1.614-2.108-.038-2.01A1.011,1.011,0,1,0,670.079,447.016Z" transform="translate(-640.776 -433.964)"/><path class="v" d="M679.88,489.989l-.313,12.157a14.448,14.448,0,0,0-8.568-.415c-1.908-.67.23-2.7,1.942-5.384,1.143-1.791,2.11-3.9,3.266-5.143C677.319,490.926,679.88,489.989,679.88,489.989Z" transform="translate(-641.318 -452.564)"/><path class="v" d="M680.959,497.354c-2.842-6.229,5.937-16.4,11.37-10.526C699.241,494.3,684.862,505.907,680.959,497.354Z" transform="translate(-645.518 -450.528)"/><path class="x" d="M693.992,489.7a7.9,7.9,0,0,0-1.239-1.694c-4.508-4.761-10.994.365-12.283,5.938.552-5.807,7.373-12,11.886-7.118A6.854,6.854,0,0,1,693.992,489.7Z" transform="translate(-645.544 -450.528)"/><path class="w" d="M690.992,490.139c-6.038-1.422-10.266,7.609-5.408,9.977C691.762,503.127,697.871,491.76,690.992,490.139Z" transform="translate(-646.783 -452.564)"/><path class="v" d="M638.148,489.989l.254,12.157a9.654,9.654,0,0,1,6.941-.415c1.028-1.73.158-6.109-2.564-8.872A11.816,11.816,0,0,0,638.148,489.989Z" transform="translate(-628.045 -452.564)"/><path class="u" d="M634.147,497.354c2.842-6.229-5.937-16.4-11.371-10.526C615.864,494.3,630.244,505.907,634.147,497.354Z" transform="translate(-620.924 -450.528)"/><path class="x" d="M621.291,489.7a7.922,7.922,0,0,1,1.24-1.694c4.508-4.761,10.993.365,12.283,5.938-.552-5.807-7.374-12-11.886-7.118A6.857,6.857,0,0,0,621.291,489.7Z" transform="translate(-621.076 -450.528)"/><path class="w" d="M626.378,490.139c6.038-1.422,10.266,7.609,5.407,9.977C625.609,503.127,619.5,491.76,626.378,490.139Z" transform="translate(-621.923 -452.564)"/><path class="u" d="M641.2,429.715c-.565-3.149-6.555-5.833-9.608-.474-4.129,7.246,1.76,9.254,4.112,8.925Z" transform="translate(-624.743 -426.184)"/><path class="w" d="M634.31,433.378c-1.673,3.5,1.82,6.444,4.7,1.63C641.612,430.647,637.231,427.26,634.31,433.378Z" transform="translate(-626.279 -427.782)"/><g transform="translate(25.973 17.765)"><path class="u" d="M667.454,462.161a4.914,4.914,0,0,1-.9,1.235,9.257,9.257,0,0,1-1.35.265,4.207,4.207,0,0,0,1.913-2.293c.628-1.709.149-3.076-.253-4.741a.131.131,0,0,1,.237-.1A5.643,5.643,0,0,1,667.454,462.161Z" transform="translate(-665.205 -456.471)"/></g><path class="y" d="M664.911,456.943c2.625.148,9.051-5.856.619-6.055S658.15,456.561,664.911,456.943Z" transform="translate(-636.883 -436.396)"/><path class="z" d="M659.043,445.915a.314.314,0,1,1-.314-.314A.314.314,0,0,1,659.043,445.915Z" transform="translate(-636.425 -434.212)"/><path class="z" d="M670.228,445.915a.314.314,0,1,1-.314-.314A.314.314,0,0,1,670.228,445.915Z" transform="translate(-641.049 -434.212)"/><path class="aa" d="M669.651,452.972c0,.316-1.307.571-2.92.571s-2.92-.255-2.92-.571,1.307-.571,2.92-.571S669.651,452.657,669.651,452.972Z" transform="translate(-638.656 -437.023)"/></g><g transform="translate(81.483 133.705)"><path class="ab" d="M447.418,536.77l5.491-6.27,20.04,20.382-24.51-10.407Z" transform="translate(-398.458 -529.394)"/><path class="ac" d="M471.517,552.005l-2.358,4.563-19.532-18.781a4.213,4.213,0,0,0,1.56-.264,4.56,4.56,0,0,0,.528-.235,3.934,3.934,0,0,0,1.067-.833,4.229,4.229,0,0,0,.481-.639c.088-.147.176-.311.258-.481a6.341,6.341,0,0,0,.364-1.056l17.485,17.579Z" transform="translate(-399.371 -530.957)"/><path class="ad" d="M411.341,569.593l21.09-32.147,22.5,19.3Z" transform="translate(-383.542 -532.266)"/><path class="ab" d="M411.341,581.077l21.09-32.147,22.5,19.3Z" transform="translate(-383.542 -537.014)"/><path class="ae" d="M385.78,551.324s25.1-21.1,26.395-21.9c2.053-1.271,3.324-1.955,7.038,5.084S432.7,562.665,432.7,562.665Z" transform="translate(-372.974 -528.614)"/><path class="af" d="M416.6,546.181,423.543,541l9.971,23.853-17.4-14.859Z" transform="translate(-385.515 -533.735)"/><path class="ac" d="M433.341,566.472l-2.833,5.766-13.391-23.562a4.788,4.788,0,0,0,2.956-.188,3.744,3.744,0,0,0,.587-.27,4.142,4.142,0,0,0,.569-.375,4.263,4.263,0,0,0,.6-.546,5.567,5.567,0,0,0,.358-.44,5.16,5.16,0,0,0,.352-.528Z" transform="translate(-385.93 -535.939)"/><g transform="translate(33.633 10.919)"><path class="ag" d="M429.616,564.914h-.733l-7.6-14.734a5.226,5.226,0,0,0,.51-.17Z" transform="translate(-421.287 -548.379)"/><path class="ag" d="M433.857,563.143h-.733l-7.977-15.473a5.525,5.525,0,0,0,.358-.44Z" transform="translate(-422.883 -547.23)"/><path class="ag" d="M432,564.072h-.95l-7.895-14.787a4.123,4.123,0,0,0,.569-.375Z" transform="translate(-422.06 -547.924)"/></g><path class="ah" d="M363.947,567.84l31.869-21.507,13.3,26.492Z" transform="translate(-363.947 -535.94)"/><path class="ac" d="M447.291,558.6l-3.713,1.173s-8.212-15.25-10.751-19.943c-1.326-2.446-1.854-3.965-1.83-4.95a1.742,1.742,0,0,1,.176-.8,1.53,1.53,0,0,1,.446-.54,2.326,2.326,0,0,1,.581-.34.147.147,0,0,1,.041-.024,2.458,2.458,0,0,1,.721-.205,1.411,1.411,0,0,1,.639.088c.88.323,1.713,1.584,3.038,4.223C438.721,541.463,447.291,558.6,447.291,558.6Z" transform="translate(-391.668 -530.415)"/><path class="af" d="M414.9,573.441l-4.754-12.852-1.7,1.354,5.083,12.288Z" transform="translate(-382.345 -541.834)"/><path class="af" d="M408.9,577.556,404.144,564.7l-1.7,1.354,5.083,12.288Z" transform="translate(-379.865 -543.536)"/><g transform="translate(39.328 2.555)"><path class="ag" d="M442.206,555.458h-.733L431,535.668a1.742,1.742,0,0,1,.176-.8Z" transform="translate(-430.997 -533.756)"/><path class="ag" d="M446.236,554.056H445.5l-11.156-21.08a1.411,1.411,0,0,1,.639.088Z" transform="translate(-432.382 -532.971)"/><path class="ag" d="M444.257,554.456h-.95l-11.25-20.746a2.332,2.332,0,0,1,.581-.34Z" transform="translate(-431.435 -533.136)"/></g><g transform="translate(51.816 4.379)"><path class="ag" d="M470.089,555.217l-.686.264-17.115-15.837a4.547,4.547,0,0,0,.528-.235Z" transform="translate(-452.287 -537.457)"/><path class="ag" d="M473.934,552.6l-.833-.064-17.274-15.978c.088-.147.176-.311.258-.481Z" transform="translate(-453.751 -536.08)"/><path class="ag" d="M472.023,553.745l-.686.264-17.18-15.555a3.651,3.651,0,0,0,.5-.463Z" transform="translate(-453.06 -536.87)"/></g></g><path class="q" d="M636.878,509V614.578H611.07l-.463-25.051-1.068-57.247-.422-22.887Z" transform="translate(-383.83 -386.799)"/><path class="z" d="M701.027,507.667V614.811l-44.577-.786V508.447l16.611-.293,10.358-.176Z" transform="translate(-403.401 -386.248)"/><path class="s" d="M630.261,635.354,593.113,641.7,603.99,610.3l-1.068-45.578,17.561-5.474Z" transform="translate(-377.214 -407.575)"/><path class="t" d="M620.485,635.128v-76.4l-27.372,1.564v81.188Z" transform="translate(-377.214 -407.36)"/><g transform="translate(47.915 125.349)"><path class="ai" d="M363.836,521.588l1.2,1.818-9.678,35.918-2.192-.748Z" transform="translate(-325.922 -517.353)"/><path class="y" d="M344.637,518.591c-.006.012-.035.129-.035.129l-.188.686-.1.37-.171.645-.322,1.208-.188.692-.7,2.628-.106.381-.756,2.815-.035.147-7.367,27.439-27.949-5.549,6.7-28.823.141-.6.616-2.657.076-.34.323-1.373.029-.129.276-1.2.023-.1.141-.6,14.183,2.024,1.243.176,1.859.264,4.663.669,6.376.909Z" transform="translate(-306.717 -514.368)"/><g transform="translate(8.159 0.598)"><path class="ai" d="M336.217,516.989l1.859.264c-2.862-.147-5.719.188-8.593.012a35.384,35.384,0,0,1-8.857-1.777l.023-.1a37.458,37.458,0,0,0,10.441,1.549c1.3,0,2.592-.07,3.883-.123Z" transform="translate(-320.627 -515.388)"/><path class="ai" d="M365.94,520.928l-.188.686c-2.47-.657-4.927-1.384-7.426-1.906l6.376.909C365.113,520.723,365.523,520.828,365.94,520.928Z" transform="translate(-336.214 -517.174)"/></g><g transform="translate(7.854 1.895)"><path class="ai" d="M349.851,521.111l-.171.645a21.823,21.823,0,0,0-2.868-1.027,37.751,37.751,0,0,0-9.836-1.132c-3.109-.023-6.388.44-9.461-.112a25.126,25.126,0,0,1-3.384-1.056,16.545,16.545,0,0,0-4.024-.7l.029-.129a15.2,15.2,0,0,1,3.091.287c2.024.44,3.707,1.238,5.836,1.337,3.337.152,6.693-.282,10.036-.182A33.027,33.027,0,0,1,349.851,521.111Z" transform="translate(-320.107 -517.598)"/></g><g transform="translate(22.709 5.581)"><path class="ai" d="M359.83,525.563l-.188.692a26.737,26.737,0,0,0-12.546-2c-.5.035-1.021.1-1.543.176-.117.017-.171-.164-.053-.188.252-.041.51-.076.768-.105A28.319,28.319,0,0,1,359.83,525.563Z" transform="translate(-345.434 -523.883)"/></g><g transform="translate(28.995 9.033)"><path class="ai" d="M363.368,531.316l-.106.381c-.885-.323-1.783-.592-2.686-.827-1.443-.387-2.909-.686-4.382-.979-.07-.012-.053-.123.012-.123a19.821,19.821,0,0,1,4.475.727C361.591,530.742,362.483,531.023,363.368,531.316Z" transform="translate(-356.15 -529.768)"/></g><g transform="translate(30.301 12.693)"><path class="ai" d="M363.427,537.094l-.035.147a21.466,21.466,0,0,0-2.68-.851,7.934,7.934,0,0,0-2.27-.223c-.088.006-.083-.129,0-.135a6.528,6.528,0,0,1,2.3.24c.5.129,1.009.3,1.525.458C362.653,536.853,363.04,536.97,363.427,537.094Z" transform="translate(-358.378 -536.009)"/></g><g transform="translate(6.698 3.396)"><path class="ai" d="M325.3,522.346a.239.239,0,0,1-.17.229c-.188.053-1.853.293-3.842.616-1.021.17-2.123.364-3.156.563l.141-.6c.757-.17,1.519-.311,2.27-.44.3-.047.592-.094.892-.135.422-.064.839-.117,1.261-.17,1.29-.152,1.73-.246.329-.927a6.515,6.515,0,0,0-1.232-.458,16.589,16.589,0,0,0-2.9-.528l.076-.34a26.6,26.6,0,0,1,3.232.616q.475.123.95.264C323.926,521.267,325.264,521.36,325.3,522.346Z" transform="translate(-318.137 -520.158)"/></g><path class="aj" d="M319.787,521.123l23.745,3.386-8,29.795-22.419-4.452Z" transform="translate(-309.361 -517.161)"/><g transform="translate(7.553 8.616)"><path class="ak" d="M336.236,530.865a.053.053,0,0,1-.029.006,1.1,1.1,0,0,0-.381.035l-.035.012a1.657,1.657,0,0,0-.358.17,1.984,1.984,0,0,0-.358.317,3.238,3.238,0,0,0-.311.4c-.1.135-.182.287-.282.452-.082.158-.164.334-.252.5-.083.188-.158.358-.235.557l-.217.575c-.03.076-.065.147-.094.235l.023-.241c0-.111.018-.217.024-.328s.017-.217.023-.334c.018-.223.035-.44.047-.669l.012-.34c.006-.112,0-.223,0-.346a.634.634,0,0,0-.023-.176.306.306,0,0,0-.018-.106.388.388,0,0,0-.024-.065.265.265,0,0,0-.046-.07.2.2,0,0,0-.047-.053.217.217,0,0,0-.082-.035c-.059-.012-.076-.017-.088-.012a.089.089,0,0,0-.076.018.268.268,0,0,0-.082.041l-.059.035a.835.835,0,0,0-.064.076.617.617,0,0,0-.059.076c-.041.053-.07.1-.106.153l-.088.141a1.489,1.489,0,0,1-.083.135c-.023.053-.052.1-.07.141l-.158.282c-.047.088-.1.176-.141.27-.1.182-.188.352-.276.522s-.164.34-.252.5c.252-1.044.562-2.176.8-2.944.533-1.748-1.4-1.742-1.4-1.742.041,1.026-2.845,7.643-1.12,7.977a1.163,1.163,0,0,0,1.361-.545.173.173,0,0,0,.029-.076,1.766,1.766,0,0,1,.076-.17c.012-.041.029-.076.047-.123s.029-.076.047-.117c.076-.188.164-.411.258-.663l.3-.851c.111-.317.235-.657.364-1.021s.276-.727.44-1.1a.982.982,0,0,1,.07-.135l.064-.141c.029-.041.047-.088.076-.129a.166.166,0,0,1,.035-.064c.006.1.012.217.012.317s0,.223-.006.328c-.006.211-.024.44-.035.663s-.023.434-.035.669c-.006.106-.018.217-.023.328s0,.217-.006.34c0,.047.006.111.012.176a.126.126,0,0,0,0,.047c.006.012.012.035.018.053s.006.024,0,.035l.023.041a.139.139,0,0,0,.023.035l.024.029c.017.012.006.012.041.029l.059.012a.114.114,0,0,0,.064-.006.092.092,0,0,0,.042-.023c.076-.059.082-.082.082-.088.018-.018.029-.029.029-.047.018-.023.023-.053.041-.082a.72.72,0,0,0,.053-.158l.229-.6c.065-.194.135-.381.216-.563s.147-.364.229-.54a5.64,5.64,0,0,1,.516-.915,2.816,2.816,0,0,1,.287-.346.442.442,0,0,1,.07-.076c.216-.211.68-.252.551.164-.563,1.871-2.158,5.6-.692,5.824a1.477,1.477,0,0,0,1.185-.346c-.37-.3.393-3.214.821-4.815.005-.035.012-.065.018-.094a.377.377,0,0,0,.018-.059A1.063,1.063,0,0,0,336.236,530.865Z" transform="translate(-323.776 -529.058)"/><path class="ak" d="M347.631,539.253a27.7,27.7,0,0,1-2.211,1.689c.1-.481.217-.933.3-1.308a1.181,1.181,0,0,0-1.308-1.584l-.07.387a2.847,2.847,0,0,1-.944,1.719c-.839.551-.569-.4-.029-1.824.411-1.079-1.1-1.144-1.1-1.144.023.428-1.619,3.367-.106,3.766.851.217,1.484-.411,1.906-1.079-.534,2.211-1.343,5.543-.27,5.7a1.145,1.145,0,0,0,.37-.012c.258-.029,1.566-.51,1.507-4.417l2.123-1.73Zm-2.8,4.81a28.338,28.338,0,0,1,.563-2.98A4.907,4.907,0,0,1,344.828,544.062Z" transform="translate(-328.66 -532.419)"/><path class="ak" d="M325.126,552.624a9.684,9.684,0,0,1-.844.921c-.352.334-.733.61-.938.5-.523-.276.663-3.508-.452-3.754-.563-.129-1.079.669-1.455,1.484.305-1.226.745-2.692,1-3.537.481-1.548-1.238-1.548-1.238-1.548.023.528-.856,2.88-1.32,4.851-.035.135-.059.258-.088.387-.276,1.3-.323,2.358.276,2.475,1.683.416,1.965-3.426,2.616-3.279s-.328,3.015.475,3.373c.328.153.751-.123,1.131-.5a7.9,7.9,0,0,0,1.009-1.267Z" transform="translate(-319.593 -536.347)"/><path class="ak" d="M332.723,556.414a1.5,1.5,0,0,0-.158.041l-.094.012a.406.406,0,0,1-.1.029.582.582,0,0,0-.117.023.47.47,0,0,0-.124.023.521.521,0,0,1-.134.018l-.159.029c-.023.006-.052.006-.076.012h-.041c-.006,0-.012.006-.018.006s-.012.006-.023.006a.371.371,0,0,0-.082,0l-.082.012a2.087,2.087,0,0,1-.334.018,3.326,3.326,0,0,1-.346-.006l-.029-.006a1.538,1.538,0,0,0-.622-1.6,1.784,1.784,0,0,0-2.287.927,2.41,2.41,0,0,0-.317.968,1.909,1.909,0,0,0,.005.446,1.351,1.351,0,0,0,.634,1.032,1.768,1.768,0,0,0,2.288-.927,2.519,2.519,0,0,0,.164-.329c.053.006.1-.006.164,0,.129-.012.258-.023.381-.047l.328-.064.042-.006a.237.237,0,0,1,.088-.018.148.148,0,0,1,.082-.023c.012-.006.029-.006.04-.012a.3.3,0,0,1,.047-.012l.076-.023a1.16,1.16,0,0,0,.153-.047.573.573,0,0,1,.135-.035l.135-.053.111-.035.1-.041c.029-.012.065-.018.088-.029.1-.041.153-.064.153-.064Zm-2.546,1c-.329.575-.834.9-1.132.727s-.252-.768.076-1.343a1.841,1.841,0,0,1,.152-.217.349.349,0,0,0,.065.07,1.274,1.274,0,0,0,.3.252,1.986,1.986,0,0,0,.188.094,1.944,1.944,0,0,0,.2.07,1.68,1.68,0,0,0,.3.059A1.9,1.9,0,0,1,330.178,557.417Zm.046-.927a.476.476,0,0,1-.123-.059.283.283,0,0,1-.094-.07.478.478,0,0,1-.135-.152.407.407,0,0,1-.059-.112.491.491,0,0,1,.44-.023.507.507,0,0,1,.194.5A1.022,1.022,0,0,1,330.224,556.49Z" transform="translate(-322.891 -539.733)"/><path class="ak" d="M341.379,558.593a8.286,8.286,0,0,1-.839.757,6.8,6.8,0,0,1-1.09.7c-1.021.522-.557-.293-.083-1.854.458-1.5-1.126-1.554-1.237-1.56h-.047a1.175,1.175,0,0,0-.381.117,1.447,1.447,0,0,0-.393.329,2.506,2.506,0,0,0-.34.481c-.059.1-.117.205-.182.323.023-.106.035-.229.053-.346a3.61,3.61,0,0,0,.041-.364,1,1,0,0,0,0-.188c-.006-.065-.012-.123-.023-.2l-.035-.117a.4.4,0,0,0-.082-.129.35.35,0,0,0-.141-.094l-.029-.006-.018-.012-.018-.006a.026.026,0,0,1-.029,0,.255.255,0,0,0-.094,0,.5.5,0,0,0-.147.059c-.035.023-.065.035-.094.059-.059.053-.1.1-.141.141a2.67,2.67,0,0,0-.211.276c-.047.07-.082.135-.123.2.023-.076.053-.164.07-.246.5-1.707-1.1-1.642-1.1-1.642a5.427,5.427,0,0,1-.422,1.5c-.053.141-.106.287-.159.434-.375,1.068-.656,2.147.171,2.305a.87.87,0,0,0,1.026-.575c.023-.047.065-.141.111-.264.088-.182.211-.446.358-.745.076-.158.164-.317.258-.487l.147-.252c.059-.076.117-.164.176-.235.029-.035.065-.065.094-.1l.035-.023a.2.2,0,0,1,.018.047,1.4,1.4,0,0,1,.029.287c-.006.111-.018.217-.023.328l-.047.346c-.006.117-.023.235-.029.352,0,.065-.006.123,0,.194a.127.127,0,0,0,.006.065c.006.018.012.041.029.088a.147.147,0,0,0,.041.047.182.182,0,0,0,.1.053l.018.006c.018.006.029-.006.041,0l.053-.012a.378.378,0,0,1,.059-.035l.053-.059a.113.113,0,0,1,.029-.053c.018-.029.023-.059.041-.082l.065-.158c.088-.205.17-.387.246-.563a3.481,3.481,0,0,1,.287-.463,1.5,1.5,0,0,1,.317-.3.645.645,0,0,1,.311-.111.012.012,0,0,1,.012-.012c1.2.023-1.725,3.8-.282,4.117a3.192,3.192,0,0,0,2.522-1.009,9.4,9.4,0,0,0,1.2-1.232Zm-4.921-1.777c0-.006-.012-.012,0-.006Z" transform="translate(-325.435 -539.894)"/><path class="ak" d="M349.613,561.067c-.493.616-3.83,2.95-3.05.692a1.42,1.42,0,0,0,1.361-.24c.581-.592.334-1.138-.018-1.349a1.964,1.964,0,0,0-2.722,1.126c0,.006-.005.006-.005.012a4.419,4.419,0,0,0-.176.54c-.475,2.194,2.633,1.895,4.769-.586Zm-2-.4c.375.088.2.5.106.616a.924.924,0,0,1-1.068.246C347.073,560.5,347.5,560.627,347.613,560.663Z" transform="translate(-330.079 -541.84)"/></g><path class="al" d="M361.378,520.141c-.117.17-1.255,1.689-5.355,1.026a42.973,42.973,0,0,1-8.816-3.05Z" transform="translate(-323.458 -515.918)"/></g><path class="am" d="M696.213,551.877l-9.091,3.519-2.352-47.023,10.358-.176Z" transform="translate(-415.11 -386.467)"/><path class="p" d="M609.645,453.683l-10.851-1.466-.217-16.717h10Z" transform="translate(-379.472 -356.41)"/><path class="p" d="M369.038,429l-1.243,21.362-12.515,2.3L356.046,429Z" transform="translate(-278.88 -353.723)"/><g transform="translate(67.993 132.319)"><path class="an" d="M375.2,557.044c-.827,2.252-1.842,4.645-3.068,7.185-12.693,26.277-31.187.44-31.187.44a48.2,48.2,0,0,1,1.167-6.464.171.171,0,0,1,.012-.053c1.959-8.03,6.98-21.415,19.362-28.09a31.339,31.339,0,0,1,5.789-2.422,35.968,35.968,0,0,1,6.81-1.39,5.7,5.7,0,0,1,.434.475,16.673,16.673,0,0,1,2.944,5.772,26.015,26.015,0,0,1,1.085,6.716C378.72,543.776,377.94,549.665,375.2,557.044Z" transform="translate(-340.947 -526.25)"/><path class="n" d="M355.447,568.843s14.077-23.853,18.183-27.176l1.173.782s-14.468,20.138-16.814,27.372Z" transform="translate(-346.942 -532.624)"/><path class="n" d="M360.53,570.119l6.256,3.715.978-1.369-6.452-3.715Z" transform="translate(-349.044 -543.822)"/><path class="n" d="M375.53,547.369l6.257,3.715.978-1.369L376.312,546Z" transform="translate(-355.245 -534.416)"/><path class="n" d="M365.113,564.317l5.474,3.715,1.369-1.955-6.061-3.91Z" transform="translate(-350.939 -541.1)"/><path class="n" d="M372.113,552.567l5.474,3.715,1.369-1.955-6.061-3.91Z" transform="translate(-353.833 -536.242)"/><path class="n" d="M368.7,557.593l6.257,4.3.782-1.76-6.256-4.3Z" transform="translate(-352.42 -538.481)"/><path class="n" d="M393.03,540.192l-17.063-9.15a31.335,31.335,0,0,1,5.789-2.422l10.188,4.857A26.013,26.013,0,0,1,393.03,540.192Z" transform="translate(-355.426 -527.23)"/><path class="s" d="M375.714,557.378c-7.291,5.261-15.444,10.974-15.444,10.7,0-.44-14.84-8.106-17.643-9.543-.24-.129-.393-.205-.44-.229.041.018.2.082.452.176,3.771,1.4,29.386,9.356,32.395-31.427a16.674,16.674,0,0,1,2.944,5.772,26.018,26.018,0,0,1,1.085,6.716C379.233,544.111,378.453,550,375.714,557.378Z" transform="translate(-341.46 -526.585)"/></g><g transform="translate(0 101.314)"><path class="ao" d="M253.363,521.919s10.558-14.859,33.238-12.513C286.6,509.406,272.132,529.348,253.363,521.919Z" transform="translate(-236.742 -488.177)"/><path class="ap" d="M287.58,550.151a21.338,21.338,0,0,1-12.992-.78,20.782,20.782,0,0,1-2.4-1.114c-7.091-3.783-12.007-11.1-15.027-17.039a60.434,60.434,0,0,1-3.789-9.121c.434-.006.868-.012,1.3-.029a47.494,47.494,0,0,0,28.031-9.9c1.068-.81,2.112-1.678,3.126-2.587C301.071,537.347,287.58,550.151,287.58,550.151Z" transform="translate(-236.744 -488.353)"/><path class="aq" d="M302.539,550.151a21.338,21.338,0,0,1-12.992-.78c20.459-2.8,11.232-39.791,11.232-39.791C316.029,537.347,302.539,550.151,302.539,550.151Z" transform="translate(-251.703 -488.353)"/><path class="ap" d="M257.093,550.374l-26.054-4.17-3.273-.522L225.027,523l16.013,4.364,1.2.328,4.493,3.813-16.617-3.42.393,14.077L255.92,544.9Z" transform="translate(-225.027 -493.901)"/><path class="ap" d="M330.694,490.3,312.289,519.88l-2.141-7.021,16.089-22.793-4.305-3.936-6.082-5.566-8.376,17.115-1.044,2.141-.592-1.642,9.49-24.787,6.61,7.273Z" transform="translate(-258.438 -473.39)"/><path class="ar" d="M228.5,545.048l2.54,1.156-3.273-.522L225.027,523l16.013,4.364-13.784-2.088Z" transform="translate(-225.027 -493.901)"/><path class="ar" d="M283.616,513.99a25.433,25.433,0,0,1-8.388,7.191c-7.22,4.17-19.186,2.768-19.632,2.71A47.487,47.487,0,0,0,283.616,513.99Z" transform="translate(-237.666 -490.176)"/><path class="aq" d="M333.734,495.427l-18.406,29.58-2.141-7.021,16.089-22.793-4.305-3.936a8.448,8.448,0,0,0,.006-5.467Z" transform="translate(-261.477 -478.517)"/><circle class="ar" cx="4.777" cy="4.777" r="4.777" transform="translate(25.615 40.047) rotate(-45)"/><path class="ar" d="M291.95,539.077c-2.11-.452-2.581-.269-3.837,1.485.451-2.11.269-2.581-1.486-3.837,2.11.452,2.581.269,3.837-1.485C290.013,537.35,290.2,537.821,291.95,539.077Z" transform="translate(-250.496 -498.962)"/><path class="as" d="M274.854,563.509c-7.091-3.783-12.007-11.1-15.027-17.039,4.581,1.408,15.854,5.191,16.787,8.552C277.312,557.532,276.016,561.057,274.854,563.509Z" transform="translate(-239.415 -503.605)"/></g><g transform="translate(153.265)"><path class="at" d="M552.072,504.83l-1.208,33.779H512.545l-3.1-28.741-.546-5.039Z" transform="translate(-495.658 -385.075)"/><path class="y" d="M545.113,431.405s5.865-92.674,8.994-104.405L547.85,433.36Z" transform="translate(-510.632 -311.55)"/><path class="y" d="M542.177,408.007l-11.731-72.341,13.3,62.956Z" transform="translate(-504.568 -315.134)"/><path class="au" d="M527.407,341.1a29.723,29.723,0,0,1-7.737-8.9,30.911,30.911,0,0,1-3.754-20.6c5.742,4.223,10.182,12.945,11.455,21.075A25.269,25.269,0,0,1,527.407,341.1Z" transform="translate(-498.379 -305.183)"/><path class="y" d="M555.9,373.84l11.34-21.507-12.122,30.109Z" transform="translate(-514.767 -322.025)"/><path class="au" d="M529.959,403.389c-17.878-3.455-21.585-9.625-26.852-27.157C512.521,375.358,528.628,380.109,529.959,403.389Z" transform="translate(-493.265 -331.866)"/><path class="av" d="M560.067,363.193c3.543-17.866,9.731-21.538,27.286-26.723C588.186,345.89,583.359,361.973,560.067,363.193Z" transform="translate(-516.815 -315.466)"/><path class="au" d="M571.721,300.66c-.305,18.529-17.8,17.749-18.875,38.7a25.517,25.517,0,0,1-7.379-14.834C543.76,304.854,564.618,302.584,571.721,300.66Z" transform="translate(-510.738 -300.66)"/><path class="aw" d="M530.363,355.494a29.724,29.724,0,0,1-7.737-8.9,19.135,19.135,0,0,1,7.7.475A25.264,25.264,0,0,1,530.363,355.494Z" transform="translate(-501.335 -319.574)"/><path class="av" d="M577.737,389.964c-5.626-3.325-13.667-3.333-20.036-.021C562.611,392.891,572.2,392.951,577.737,389.964Z" transform="translate(-515.837 -336.55)"/><path class="au" d="M539.4,432.5a15.921,15.921,0,0,0-14.621-7.861C527.908,430.128,533.579,433.648,539.4,432.5Z" transform="translate(-502.226 -351.918)"/><path class="ax" d="M552.333,504.83l-1.208,33.779H512.806s40.976-6.323,32.747-22.025c-3.813-7.279-35.85-6.716-35.85-6.716l-.176-5.039Z" transform="translate(-495.919 -385.075)"/><path class="ay" d="M555.56,504.833l-4.3,5.035H505.992l-1.426-5.035Z" transform="translate(-493.868 -385.076)"/><path class="aw" d="M529.959,403.389s-11.6-19.937-26.852-27.157C512.521,375.358,528.628,380.109,529.959,403.389Z" transform="translate(-493.265 -331.866)"/><path class="av" d="M519.185,374.026c-2.669-8.376-7.983-14.271-14.816-17.4a31.691,31.691,0,0,0-18.042-2.211c6.018-6.165,20.605-6.845,28.025-2.463a15.023,15.023,0,0,1,7.385,10.751A16.772,16.772,0,0,1,519.185,374.026Z" transform="translate(-486.327 -320.703)"/><path class="aw" d="M531.9,379.3c-2.669-8.376-7.983-14.271-14.816-17.4,4.639.147,13.9,1.079,17.368,6.077A16.773,16.773,0,0,1,531.9,379.3Z" transform="translate(-499.045 -325.98)"/><path class="aw" d="M575.008,300.66c-.305,18.529-17.8,17.749-18.875,38.7,0,0-8.616-19.116,4.3-26.576S575.008,300.66,575.008,300.66Z" transform="translate(-514.024 -300.66)"/><path class="aw" d="M560.067,363.193s24.435-15.1,27.286-26.723C588.186,345.89,583.359,361.973,560.067,363.193Z" transform="translate(-516.815 -315.466)"/></g><g transform="translate(2.788 158.176)"><path class="s" d="M408.447,682.951H434.5l-4.151-5.743Z" transform="translate(-303.65 -614.521)"/><path class="z" d="M274.447,576.333v64.911h78.6v-64.52Z" transform="translate(-248.248 -572.814)"/><path class="t" d="M408.447,574.244v64.52l28.154-4.986V570.333Z" transform="translate(-303.65 -570.333)"/><path class="s" d="M274.447,603.768l78.6,3.537,13.344,9.623L353.044,577l-16.13,23.462Z" transform="translate(-248.248 -573.09)"/><g transform="translate(31.248 47.85)"><g transform="translate(1.576 1.606)"><rect class="t" width="1.357" height="9.861" transform="translate(0.614 12.349) rotate(-90)"/><rect class="t" width="1.357" height="6.695" transform="translate(1.836 3.257)"/><path class="t" d="M285.742,659.005l2.514-4.354,2.514,4.354Z" transform="translate(-285.742 -654.651)"/><rect class="t" width="1.357" height="6.695" transform="translate(7.897 3.257)"/><path class="t" d="M296.076,659.005l2.514-4.354,2.514,4.354Z" transform="translate(-290.014 -654.651)"/></g><path class="t" d="M297.3,667.473H283.055v-15.56H297.3Zm-13.518-.723h12.794V652.637H283.779Z" transform="translate(-283.055 -651.913)"/><g transform="translate(17.227)"><g transform="translate(1.348 1.606)"><path class="t" d="M326.27,660.936a4.272,4.272,0,0,0-1.06-.133,4.223,4.223,0,0,0-2.356.71,4.273,4.273,0,0,0-4.743.018,4.254,4.254,0,0,0-2.384-.727,4.155,4.155,0,0,0-1,.12,5.933,5.933,0,0,1,11.546.014Z" transform="translate(-314.724 -655.36)"/><g transform="translate(2.935)"><path class="t" d="M321.237,667a1.511,1.511,0,0,1-1.509-1.51v-.9a.275.275,0,1,1,.549,0v.9a.96.96,0,1,0,1.921,0V654.925a.275.275,0,0,1,.549,0V665.49A1.512,1.512,0,0,1,321.237,667Z" transform="translate(-319.728 -654.651)"/></g></g><path class="t" d="M326.667,667.473H312.425v-15.56h14.242Zm-13.518-.723h12.794V652.637H313.149Z" transform="translate(-312.425 -651.913)"/></g><g transform="translate(33.69)"><g transform="translate(3.585 1.606)"><g transform="translate(3.262 1.719)"><rect class="t" width="0.549" height="10.63"/></g><g transform="translate(0.195 11.8)"><path class="t" d="M346.937,675.044a.274.274,0,0,0,.274.274h6.134a.275.275,0,0,0,0-.549h-6.134A.274.274,0,0,0,346.937,675.044Z" transform="translate(-346.937 -674.769)"/></g><path class="t" d="M346.6,654.651c.357,3.776,1.8,6.6,3.538,6.6s3.177-2.829,3.534-6.6Z" transform="translate(-346.605 -654.651)"/></g><path class="t" d="M354.735,667.473H340.493v-15.56h14.242Zm-13.518-.723h12.794V652.637H341.217Z" transform="translate(-340.493 -651.913)"/></g></g><path class="ac" d="M255.979,576.333l-26.2,28.545,88.666-4.692,16.13-23.462Z" transform="translate(-229.78 -572.814)"/></g><path class="z" d="M532.646,642.519V561.333H447.01l-.152,81.186Z" transform="translate(-316.744 -408.436)"/><path class="az" d="M522.686,561.4l-1.255,13.94-12.317-2.46.575-11.479Z" transform="translate(-342.484 -408.465)"/><g transform="translate(97.026 46.636)"><path class="ba" d="M440.889,462.8l-4.692.88V440.809l3.009-2.639.516,7.6.182,2.669.158,2.323Z" transform="translate(-409.362 -404.15)"/><path class="bb" d="M439.722,445.766l-3.525-.082v-4.874l3.009-2.639Z" transform="translate(-409.362 -404.15)"/><path class="bc" d="M443.236,420.055H390.447l16.717-39.005,3.343-.123,3.244-.123,16.875-.633Z" transform="translate(-390.447 -380.17)"/><path class="bd" d="M466.79,420.055h-6.845l-12.529-39.633,6.763-.252Z" transform="translate(-414.001 -380.17)"/><path class="be" d="M440.583,500.1H405.1a43.808,43.808,0,0,1-2.663-4.434c-4.821-9.091-11.784-29,19.673-29a44.672,44.672,0,0,1,13.661,1.783C457.059,475.386,440.583,500.1,440.583,500.1Z" transform="translate(-393.659 -415.934)"/><path class="bf" d="M415.948,497.563a44.816,44.816,0,0,1-13.514-1.895c-4.821-9.091-11.784-29,19.673-29a44.672,44.672,0,0,1,13.661,1.783C440.489,477.439,447.774,497.9,415.948,497.563Z" transform="translate(-393.659 -415.934)"/><path class="bb" d="M440.062,457.889a14.5,14.5,0,0,1-2.252.17,13.939,13.939,0,0,1-1.613-.088v-2.464a13.939,13.939,0,0,1,1.613-.088,14.3,14.3,0,0,1,2.094.147Z" transform="translate(-409.362 -411.283)"/><ellipse class="ba" cx="4.546" cy="1.32" rx="4.546" ry="1.32" transform="translate(23.902 43.256)"/><ellipse class="aj" cx="7.656" cy="3.813" rx="7.656" ry="3.813" transform="translate(11.082 56.211)"/><path class="aj" d="M417.84,381.25,411.5,420.5H400.337c3.232-8.769,11.807-32.09,14.259-39.129Z" transform="translate(-394.536 -380.617)"/></g><path class="s" d="M732.45,614.811l6.178-2.677-3.089-102.917-3.089-1.55Z" transform="translate(-434.823 -386.248)"/><g transform="translate(181.37 166.501)"><path class="az" d="M545.446,610.023l16.171-5.8,1.5-6.863-5.089-12.834Z" transform="translate(-538.875 -584.527)"/><path class="bg" d="M534.244,593.45l6.571,16.572,12.86-5.1,4.806-7.562-5.089-12.834Z" transform="translate(-534.244 -584.527)"/><path class="ap" d="M567.372,613.97a12.269,12.269,0,0,0,.827-7.527l3.979-.035Z" transform="translate(-547.941 -593.574)"/><path class="bh" d="M541,597.954l.476,1.2,13.574-5.382-.684-1.725Z" transform="translate(-537.037 -587.637)"/><path class="bh" d="M543.745,604.687l.767,1.934,11.953-5.4-.7-.994Z" transform="translate(-538.172 -591.016)"/><path class="bh" d="M557.835,609.7l.525,1.123,5.358-2.125-.228-.575Z" transform="translate(-543.998 -594.281)"/></g></g><path class="bi" d="M479.015,80.73l73.319,57.75-61.057,78.113-1.915-21.87L370.914,211.443,328.323,82.7,478.584,98.943Z" transform="translate(-87.12 -22.215)"/><g transform="translate(273.284 79.389)"><path class="bj" d="M417.312,150.191c-.533,1.5-3.681,2.809-5.328,2.906-7.266.484-3.584-19.084-2.906-28.674.194-2.132-1.986-1.453-2.81-.194a1.938,1.938,0,0,0-.242.436,12.743,12.743,0,0,0-1.018,1.986,26.911,26.911,0,0,0-1.5,4.94c-.194.92-.387,1.841-.533,2.81a28.765,28.765,0,0,0-.436,2.954l-.436,3.1a4.813,4.813,0,0,1-.1.823c-.049.145-.049.29-.1.436,0,.1-.049.145-.1.242a.288.288,0,0,1-.049.194.17.17,0,0,0-.049.1l-.048.049c0,.048-.049.048-.049.1-.048.049-.048.1-.1.1a.664.664,0,0,1-.194.145.518.518,0,0,1-.29.1h-.291a.592.592,0,0,1-.242-.1l-.145-.1-.146-.145-.145-.194c0-.049-.048-.1-.048-.145a1.068,1.068,0,0,0-.146-.242c0-.1-.048-.145-.048-.242a7.156,7.156,0,0,1-.243-.824c-.1-.581-.242-1.114-.339-1.646s-.145-1.066-.242-1.6c-.193-1.114-.339-2.18-.533-3.245s-.339-2.18-.533-3.2c-.1-.533-.242-1.066-.339-1.6-.1-.484-.242-1.017-.388-1.5a1.224,1.224,0,0,0-.1.339c-.1.242-.146.484-.243.727l-.145.727a4,4,0,0,0-.194.726c-.387,1.986-.678,3.924-.92,5.765-.242,1.889-.485,3.632-.678,5.279l-.533,4.408c-.195,1.307-.388,2.47-.534,3.439-.048.242-.048.436-.1.629a3.354,3.354,0,0,0-.1.63c-.1.339-.146.678-.194.92a.717.717,0,0,1-.049.339v.049c-.775,3.487-4.311,4.069-5.958,4.069-8.622.242-1.841-34.584-3.148-39.477,0,0,9.251-2.083,8.573,6.878-.339,3.923-.629,9.687-.726,14.967.242-.872.436-1.744.678-2.664s.484-1.841.775-2.81c.1-.484.242-.968.387-1.453l.436-1.5c.049-.242.146-.484.194-.775a4.189,4.189,0,0,0,.242-.727l.291-.775a5.941,5.941,0,0,1,.339-.823,1.748,1.748,0,0,1,.194-.436,1.943,1.943,0,0,1,.242-.436l.242-.242a2.122,2.122,0,0,1,.339-.291.441.441,0,0,1,.339-.145.367.367,0,0,1,.243-.048h.194a.962.962,0,0,1,.436.1,1.012,1.012,0,0,1,.291.194.822.822,0,0,1,.29.291,1.007,1.007,0,0,1,.194.29,1.458,1.458,0,0,1,.194.484,2.81,2.81,0,0,1,.29.824c.145.581.29,1.114.388,1.647l.29,1.646c.194,1.114.34,2.18.485,3.245.1.581.145,1.114.242,1.647s.145,1.066.242,1.6l.145,1.163c.048-.436.145-.823.194-1.211l.436-3c.146-1.016.339-1.937.533-2.906.242-.921.436-1.841.678-2.713.292-.872.533-1.7.872-2.471a13.585,13.585,0,0,1,1.066-2.228,9.442,9.442,0,0,1,1.356-1.889,7.087,7.087,0,0,1,1.55-1.211l.145-.1a5.534,5.534,0,0,1,1.792-.581.178.178,0,0,0,.146-.049s6.394-1.356,6.539,5.425v.775C415.762,134.352,415.229,149.126,417.312,150.191Z" transform="translate(-383.018 -116.317)"/><path class="bj" d="M466.294,148.055s-.242.194-.678.484a2.717,2.717,0,0,1-.387.242l-.436.29c-.146.1-.34.194-.485.291l-.581.388a3.981,3.981,0,0,0-.629.339c-.194.145-.436.242-.678.387l-.339.194c-.1.048-.146.048-.194.1s-.146.048-.194.1a229.16,229.16,0,0,0-.775.388l-1.7.726c-.582.243-1.163.436-1.792.63-.29.049-.533.145-.775.194a11.427,11.427,0,0,1-.436,1.744c-1.6,5.037-6.054,8.137-9.978,6.878-3.923-1.211-5.764-6.3-4.166-11.383,1.6-5.037,6.054-8.089,9.978-6.878,2.712.872,4.456,3.681,4.7,6.975h.146c.533-.1,1.114-.194,1.646-.339a15.313,15.313,0,0,0,1.6-.436l.387-.145a1.509,1.509,0,0,1,.388-.1c.1-.049.145-.049.194-.1l.194-.049c.1-.048.242-.1.339-.145l.727-.291a3.3,3.3,0,0,0,.63-.242,2.938,2.938,0,0,1,.581-.242,4.713,4.713,0,0,1,.533-.243,3.605,3.605,0,0,0,.436-.242l.436-.145c.436-.242.726-.388.726-.388Zm-11.722,6.539a9.078,9.078,0,0,0,.387-1.55,7.8,7.8,0,0,1-1.5.049,7.4,7.4,0,0,1-1.017-.145,7.793,7.793,0,0,1-1.017-.242,6.209,6.209,0,0,1-1.7-.872,2.679,2.679,0,0,1-.388-.29,12.531,12.531,0,0,0-.484,1.211c-.97,3.1-.484,6.054,1.065,6.539C451.52,159.776,453.6,157.693,454.572,154.593Zm-3.149-5.958a1.888,1.888,0,0,0,.388.484,2.535,2.535,0,0,0,.823.581,1.785,1.785,0,0,0,.533.242,2.39,2.39,0,0,0,.63.145,4.776,4.776,0,0,0,1.162.145,2.518,2.518,0,0,0-1.453-2.179A2.418,2.418,0,0,0,451.424,148.635Z" transform="translate(-407.198 -127.307)"/><path class="bj" d="M491.039,151.137a25.358,25.358,0,0,1-1.259,3.971,17.956,17.956,0,0,1-1.889,3.439,14.579,14.579,0,0,1-2.277,2.519,12.8,12.8,0,0,1-1.889,1.356,10.012,10.012,0,0,1-3.778,1.356c-7.556,1.163-5.861-15.79-6.248-20.1,0,0,7.9-3.051,8.476,4.941a49.478,49.478,0,0,0,1.26,9.348,16.517,16.517,0,0,0,1.55-1.6,13.235,13.235,0,0,0,1.7-2.665,22.079,22.079,0,0,0,1.356-3.439,1.13,1.13,0,0,1,.1-.387c-.581-.291-1.163-.679-1.792-1.066a10.37,10.37,0,0,1-1.6-1.4,6.139,6.139,0,0,1-1.307-2.035,5.685,5.685,0,0,1-.243-1.307,5.072,5.072,0,0,1,.243-1.453,4.182,4.182,0,0,1,1.84-2.131,4.259,4.259,0,0,1,2.906-.63,4.4,4.4,0,0,1,1.5.581,4.885,4.885,0,0,1,1.114,1.114,7.112,7.112,0,0,1,.678,1.357,12.55,12.55,0,0,1,.291,1.308,11.432,11.432,0,0,1,.048,1.259v.63a2.372,2.372,0,0,0-.048.581,29.879,29.879,0,0,1-.436,3s4.8,2.373,6.006-2.422l.969.291S497.675,152.832,491.039,151.137Zm-2.47-2.955c.1-.581.243-1.211.34-1.841l.048-.484a1.638,1.638,0,0,0,.049-.484,4.8,4.8,0,0,0-.388-2.373,1.3,1.3,0,0,0-.872-.727,2.122,2.122,0,0,0-1.307.194,2.33,2.33,0,0,0-.969.968,1.978,1.978,0,0,0-.1,1.308,3.815,3.815,0,0,0,.824,1.4,5.749,5.749,0,0,0,1.211,1.211C487.794,147.649,488.181,147.94,488.569,148.182Z" transform="translate(-420.511 -126.03)"/><path class="bj" d="M525.757,143.343c-.581,1.017-5.376,14.531-13.659,14.241-7.7-.291-2.955-16.081-3.536-18.116,0,0,7.314-1.356,6.49,4.311-1.065,7.362-.92,11.286,2.422,8.961,3.439-2.422,6.878-9.929,6.878-9.929Zm-17.05-10.317a3.633,3.633,0,1,1,3.633,3.633A3.628,3.628,0,0,1,508.708,133.025Z" transform="translate(-434.544 -121.724)"/><path class="bj" d="M550.643,148.319s-2.131,4.166-3,5.667a14.393,14.393,0,0,1-1.5,2.325,8.064,8.064,0,0,1-1.114,1.114c-.1.1-.242.145-.339.242-.146.048-.242.145-.387.194-.1,0-.146.049-.243.1h-.145a.047.047,0,0,1-.048.049h-.485a.93.93,0,0,1-.581-.194,1.166,1.166,0,0,1-.484-.484,3.162,3.162,0,0,1-.388-1.066,13.01,13.01,0,0,1-.1-1.889c.048-1.211.145-2.373.242-3.536.048-.581.1-1.163.1-1.7a13.1,13.1,0,0,0-.049-1.453.382.382,0,0,0-.242-.291c-.1-.048-.29.049-.387.146l-.291.29A9.085,9.085,0,0,0,540.52,149c-.242.436-.436.872-.63,1.307-.339.872-.677,1.7-.92,2.519-.534,1.6-.921,3-1.163,3.923l-.436,1.6c-.872,3.39-2.906,3.826-4.214,3.875-7.071.242-1.453-15.064-2.567-20.344,0,0,7.605-2.18,7.024,7.363v.242c.968-1.7,2.81-4.36,4.457-4.311,2.034.049,1.646,3.681,1.355,6.054a7.9,7.9,0,0,1-.1,1.066v.291c-.1.629-.145,1.259-.194,1.841a15.488,15.488,0,0,0,.049,1.55,3.008,3.008,0,0,0,.145.484l.049.049c.048,0,.048.048.1.048h.049l.145-.048h.145c0-.049.049-.049.1-.049.049-.048.145-.048.242-.1.049-.049.146-.1.243-.194a6.9,6.9,0,0,0,.872-.824,11.875,11.875,0,0,0,1.453-2.132c.824-1.4,2.906-5.376,2.906-5.376Z" transform="translate(-443.589 -126.796)"/><path class="bj" d="M576.7,154.158c.921,12.109,2.422,29.886-3.2,29.934-1.114.145-7.944.339-13.8-12.593-2.228-4.408,3.293-9.93,9.882-14.628-.049-.727-.1-1.5-.1-2.228-1.889,1.889-5.765,4.5-9.155,3.924-5.134-.872-3.971-7.605.339-10.317a12.161,12.161,0,0,1,8.283-1.5s-.194-2.47-.388-3.245c0,0,7.217-2.18,7.847,6.3l.146,2.567c5.328-3.1,9.784-5.183,9.784-5.183l.436,1.211S582.033,150.816,576.7,154.158Zm-7.362-2.277v-.048s-.146-1.744-.194-2.616c-1.453,0-6.83.436-6.927,3.875C562.126,156.725,567.164,154.255,569.343,151.881Zm.29,7.169c-4.892,3.875-8.573,7.992-6.975,11.092,2.471,4.65,6.733,7.944,7.024,2.955C569.828,169.028,569.779,163.8,569.634,159.051Z" transform="translate(-454.926 -127.453)"/><g transform="translate(45.915 43.823)"><path class="bj" d="M488.815,229.651c-.63,1.7-3.827,2.955-5.474,3-4.8.145-4.8-10.705-4.118-21.167h-.92a1.062,1.062,0,0,1-.387-.049h-.436c-.145,0-.291-.048-.484-.048a1.337,1.337,0,0,1-.436-.049,7.184,7.184,0,0,1-1.017-.1c-.29-.049-.629-.049-.968-.1l-3.682-.533a2.518,2.518,0,0,0-.533-.1c-.387,8.186-.436,16.42.824,17.2-.581,1.7-3.778,2.955-5.425,3-8.622.242-1.841-34.584-3.2-39.476,0,0,9.3-2.083,8.573,6.878-.194,2.664-.436,6.248-.629,9.978.193.049.484.1.823.194l3.537.678c.338.048.677.1.968.145l.968.146c.146.048.291.048.436.1a1.334,1.334,0,0,1,.436.049,1.2,1.2,0,0,1,.388.049h.339c.145,0,.242.048.387.048h.581c.582-7.459,1.357-14.338.824-16.324,0,0,9.252-2.082,8.573,6.878S486.78,228.44,488.815,229.651Z" transform="translate(-461.299 -191.03)"/><path class="bj" d="M535.661,225.327s-.242.194-.679.484a2.714,2.714,0,0,1-.387.242l-.436.29c-.145.1-.339.194-.484.291l-.581.387a4.038,4.038,0,0,0-.63.34c-.194.145-.436.242-.678.387l-.339.194c-.1.048-.146.048-.194.1s-.146.048-.194.1a237.015,237.015,0,0,0-.775.388l-1.7.726c-.581.243-1.162.436-1.792.63-.29.049-.533.145-.775.194a11.491,11.491,0,0,1-.436,1.744c-1.6,5.037-6.054,8.137-9.978,6.878-3.923-1.211-5.764-6.3-4.165-11.382,1.6-5.037,6.054-8.089,9.978-6.878,2.712.872,4.456,3.681,4.7,6.975h.146c.533-.1,1.114-.194,1.647-.339a15.358,15.358,0,0,0,1.6-.436l.388-.146a1.512,1.512,0,0,1,.388-.1c.1-.049.145-.049.194-.1l.194-.049c.1-.048.242-.1.339-.145l.726-.291a3.311,3.311,0,0,0,.63-.242,2.991,2.991,0,0,1,.582-.242,4.754,4.754,0,0,1,.533-.242,3.53,3.53,0,0,0,.436-.242l.436-.145c.436-.242.726-.388.726-.388Zm-11.722,6.539a9.089,9.089,0,0,0,.387-1.55,7.789,7.789,0,0,1-1.5.049,7.4,7.4,0,0,1-1.017-.145,7.774,7.774,0,0,1-1.018-.242,6.225,6.225,0,0,1-1.7-.872,2.683,2.683,0,0,1-.388-.29,12.76,12.76,0,0,0-.484,1.211c-.968,3.1-.484,6.054,1.066,6.539C520.887,237.049,522.97,234.966,523.938,231.866Zm-3.149-5.958a1.89,1.89,0,0,0,.388.484,2.522,2.522,0,0,0,.824.581,1.785,1.785,0,0,0,.533.242,2.388,2.388,0,0,0,.629.145,4.779,4.779,0,0,0,1.162.145,2.519,2.519,0,0,0-1.453-2.18A2.421,2.421,0,0,0,520.79,225.908Z" transform="translate(-481.793 -203.078)"/><path class="bj" d="M580.794,226.464s-6.926,14.725-15.451,14.725c-7.266,0,2.712-21.216-3.052-20.053a.048.048,0,0,0-.049.049,3.574,3.574,0,0,0-1.356.872,7.246,7.246,0,0,0-1.211,1.792,15.248,15.248,0,0,0-.872,2.519c-.194.92-.388,1.889-.581,2.954l-.145.824c-.048.145-.048.291-.1.436a.7.7,0,0,0-.1.291l-.194.339-.242.242-.242.1c-.048,0-.1.049-.194.049h-.1a.978.978,0,0,1-.533-.145,1.051,1.051,0,0,1-.242-.194,2.184,2.184,0,0,1-.242-.388.69.69,0,0,1-.1-.291,7.815,7.815,0,0,1-.194-.92c-.1-.581-.145-1.163-.242-1.744l-.145-1.7c-.1-.533-.146-1.066-.242-1.6a7.387,7.387,0,0,0-.436-1.356.667.667,0,0,0-.145-.194l-.146.145c-.1.194-.242.388-.339.581-.194.388-.388.872-.581,1.308l-.436,1.356q-.435,1.38-.726,2.616c-.388,1.6-.678,3-.921,3.971-.1.629-.194,1.114-.242,1.356-.823,3.391-2.954,3.827-4.311,3.875-7.072.194-1.454-15.985-2.567-20.78,0,0,7.605-2.035,7.023,6.684a10.287,10.287,0,0,1-.1,1.259c.146-.339.242-.678.388-1.066a14.59,14.59,0,0,1,.727-1.55,5.762,5.762,0,0,1,.533-.823,2.927,2.927,0,0,1,.387-.388,2.347,2.347,0,0,1,.63-.436,1.154,1.154,0,0,1,.436-.1.179.179,0,0,0,.145-.049h.1l.1.049h.145a1.84,1.84,0,0,1,.775.29,2.75,2.75,0,0,1,.533.533l.29.533c.146.339.242.629.339.92a7.794,7.794,0,0,1,.194.92c.1.63.146,1.211.194,1.793s.1,1.163.1,1.7v.145c.193-.677.339-1.307.533-1.889a13.32,13.32,0,0,1,1.114-2.664,7.256,7.256,0,0,1,1.55-1.986,5.564,5.564,0,0,1,1.695-.968l.243-.049c.533-.1,8.186-1.55,7.6,6.152-.63,7.992-1.986,12.4,2.373,8.816a39.723,39.723,0,0,0,7.7-9.058Zm-26.446-3.488c-.048,0,0,0,0,.049Z" transform="translate(-495.102 -201.891)"/><path class="bj" d="M622.116,229.215c-8.186,15.257-24.412,19.617-21.99,5.134,1.453-8.718,9.4-9.155,11.867-8.38,1.937.63,3.681,3,1.55,6.443-1.453,2.373-4.553,2.664-6.3,2.615-1.308,11.673,12.206-3.1,13.9-6.587Zm-14.677,4.6c3.149.194,4.359-1.357,4.844-2.325.34-.678.727-2.81-1.163-2.858C610.54,228.585,608.36,228.439,607.44,233.816Z" transform="translate(-518.596 -205.367)"/></g></g></g></svg>