<svg xmlns="http://www.w3.org/2000/svg" width="192" height="40.902" viewBox="0 0 192 40.902"><defs><style>.a{fill:#0eb2bb;font-size:32px;font-family:'jf-openhuninn-1\.1';letter-spacing:0.06em;}.b{fill:#0eb1b9;}</style></defs><g transform="translate(-228 125.159)"><text class="a" transform="translate(320 -94.159)"><tspan x="0" y="0">大喜</tspan></text><g transform="translate(235 -122.159)"><path class="b" d="M-7,30.537c.108-2.642,1.5-5.4,3.212-8.01a74.974,74.974,0,0,1,15-16.087A55.424,55.424,0,0,1,22.279-1.043a17.455,17.455,0,0,1,5.308-1.793A5.539,5.539,0,0,1,34.1,3.582a14.028,14.028,0,0,1-.751,2.961c-.109.318-.487.746-.072,1,.32.194.579-.256.805-.488a32,32,0,0,1,4.767-4,9.058,9.058,0,0,1,3.141-1.433c4.488-1.03,7.838,2.13,6.991,6.666a44.1,44.1,0,0,1-2.466,7.126c-.308.829-.629,1.654-.937,2.483-.139.374-.4.773-.028,1.134.407.393.765.011,1.106-.164,1.666-.858,3.315-1.748,4.985-2.6a13.208,13.208,0,0,1,4.87-1.452A4.524,4.524,0,0,1,61.3,17.86a3.178,3.178,0,0,1-2.506,4.4c-2.677.25-4.823,1.531-7.028,2.838a34.634,34.634,0,0,1-7.347,3.542c-4.879,1.512-8.971-2.079-8.123-7.333a24.535,24.535,0,0,1,1.385-4.583c.187-.505.816-1.192.262-1.552-.588-.383-.914.489-1.273.879-2.029,2.2-4.019,4.446-6.042,6.657a29.127,29.127,0,0,1-3.336,3.01,6.572,6.572,0,0,1-1.026.669c-1.8.958-3.673,1.278-5.412.014a5.138,5.138,0,0,1-1.9-5.38c.411-2.455,1.746-4.56,2.736-6.795.854-1.929,1.713-3.855,2.553-5.79.156-.359.457-.8.077-1.134-.417-.369-.752.093-1.069.3A74.2,74.2,0,0,0,12.57,16.466,72.931,72.931,0,0,0,1.879,28.38c-.247.366-.444.765-.683,1.136a2.191,2.191,0,0,0,.128,2.994,3.042,3.042,0,0,1,.02,4.042A3.657,3.657,0,0,1-2.718,37.7C-5.2,36.866-7.032,34.057-7,30.537Z"/><path class="b" d="M69.224,21.687a3.728,3.728,0,1,1,.04-7.456,3.728,3.728,0,1,1-.04,7.456Z"/></g></g></svg>