<?xml version="1.0" encoding="utf-8"?>
<!-- Generator: Adobe Illustrator 25.3.1, SVG Export Plug-In . SVG Version: 6.00 Build 0)  -->
<svg version="1.1" id="圖層_1" xmlns="http://www.w3.org/2000/svg" xmlns:xlink="http://www.w3.org/1999/xlink" x="0px" y="0px"
	 viewBox="0 0 240 240" style="enable-background:new 0 0 240 240;" xml:space="preserve">
<style type="text/css">
	.st0{fill-rule:evenodd;clip-rule:evenodd;fill:url(#SVGID_1_);}
	.st1{fill-rule:evenodd;clip-rule:evenodd;fill:#D7B883;}
	.st2{fill-rule:evenodd;clip-rule:evenodd;fill:#564D3E;}
	.st3{fill-rule:evenodd;clip-rule:evenodd;fill:url(#SVGID_2_);}
	.st4{fill-rule:evenodd;clip-rule:evenodd;fill:#756958;}
	.st5{fill-rule:evenodd;clip-rule:evenodd;fill:#F9DEA9;}
	.st6{fill-rule:evenodd;clip-rule:evenodd;fill:url(#SVGID_3_);}
	.st7{fill-rule:evenodd;clip-rule:evenodd;fill:url(#SVGID_4_);}
	.st8{fill-rule:evenodd;clip-rule:evenodd;fill:url(#SVGID_5_);}
	.st9{fill-rule:evenodd;clip-rule:evenodd;fill:url(#SVGID_6_);}
	.st10{fill-rule:evenodd;clip-rule:evenodd;fill:url(#SVGID_7_);}
	.st11{fill-rule:evenodd;clip-rule:evenodd;fill:url(#SVGID_8_);}
	.st12{fill-rule:evenodd;clip-rule:evenodd;fill:url(#SVGID_9_);}
	.st13{fill-rule:evenodd;clip-rule:evenodd;fill:url(#SVGID_10_);}
	.st14{fill-rule:evenodd;clip-rule:evenodd;fill:url(#SVGID_11_);}
</style>
<g>
	<linearGradient id="SVGID_1_" gradientUnits="userSpaceOnUse" x1="53.7648" y1="-28.7245" x2="173.2865" y2="178.2932">
		<stop  offset="0" style="stop-color:#C4A06F"/>
		<stop  offset="1" style="stop-color:#907843"/>
	</linearGradient>
	<polygon class="st0" points="82.15,228.04 82.16,123.66 86.99,115.29 211.91,43.17 216.74,45.96 216.74,150.35 211.9,158.72 
		86.99,230.84 	"/>
	<polygon class="st1" points="82.16,228.04 82.16,123.66 23.26,89.66 23.26,194.04 	"/>
	<polygon class="st2" points="34.74,200.67 34.74,96.29 31.2,94.25 31.2,198.63 	"/>
	<linearGradient id="SVGID_2_" gradientUnits="userSpaceOnUse" x1="61.962" y1="90.6334" x2="41.0942" y2="126.7776">
		<stop  offset="0" style="stop-color:#F9DEA9"/>
		<stop  offset="1" style="stop-color:#D7B883"/>
	</linearGradient>
	<polygon class="st3" points="86.99,115.29 82.16,123.66 23.26,89.66 28.09,81.29 	"/>
	<polygon class="st4" points="39.58,87.92 34.74,96.29 31.2,94.25 36.03,85.87 	"/>
	<polygon class="st5" points="86.99,115.29 211.91,43.17 153.01,9.16 28.09,81.29 	"/>
	<polygon class="st4" points="39.58,87.92 164.5,15.8 160.95,13.75 36.03,85.87 	"/>
	<linearGradient id="SVGID_3_" gradientUnits="userSpaceOnUse" x1="136.9138" y1="31.4781" x2="102.5296" y2="-117.456">
		<stop  offset="0" style="stop-color:#C4A06F"/>
		<stop  offset="1" style="stop-color:#907843"/>
	</linearGradient>
	<polygon class="st6" points="185.83,28.11 153.01,9.16 90.41,45.31 156.06,45.31 	"/>
	<linearGradient id="SVGID_4_" gradientUnits="userSpaceOnUse" x1="112.7731" y1="5.4353" x2="143.9333" y2="40.0423">
		<stop  offset="0" style="stop-color:#403D31"/>
		<stop  offset="1" style="stop-color:#343226"/>
	</linearGradient>
	<polygon class="st7" points="113.38,45.31 164.5,15.8 160.95,13.75 106.28,45.31 	"/>
	<g>
		<linearGradient id="SVGID_5_" gradientUnits="userSpaceOnUse" x1="88.7612" y1="-84.6229" x2="122.1914" y2="60.179">
			<stop  offset="0" style="stop-color:#C4A06F"/>
			<stop  offset="1" style="stop-color:#907843"/>
		</linearGradient>
		<polygon class="st8" points="146.48,42.71 88.85,75.98 96.19,80.21 101.51,80.21 156.47,48.48 		"/>
		<polygon class="st4" points="88.85,70.65 96.19,74.88 151.15,43.16 143.82,38.92 		"/>
		<polygon class="st2" points="88.85,70.65 96.19,74.88 96.19,80.21 88.85,75.97 		"/>
		<linearGradient id="SVGID_6_" gradientUnits="userSpaceOnUse" x1="90.7103" y1="6.8173" x2="108.1939" y2="35.9148">
			<stop  offset="0" style="stop-color:#403D31"/>
			<stop  offset="1" style="stop-color:#343226"/>
		</linearGradient>
		<polygon class="st9" points="151.15,43.15 96.19,74.88 96.2,80.2 151.14,48.48 		"/>
	</g>
	<linearGradient id="SVGID_7_" gradientUnits="userSpaceOnUse" x1="142.1593" y1="38.1496" x2="144.609" y2="40.8702">
		<stop  offset="0" style="stop-color:#403D31"/>
		<stop  offset="1" style="stop-color:#343226"/>
	</linearGradient>
	<polygon class="st10" points="145.65,39.99 143.82,38.92 141.97,39.99 	"/>
	<linearGradient id="SVGID_8_" gradientUnits="userSpaceOnUse" x1="146.7393" y1="109.0273" x2="172.5138" y2="62.5291">
		<stop  offset="0" style="stop-color:#403D31"/>
		<stop  offset="1" style="stop-color:#343226"/>
	</linearGradient>
	<polygon class="st11" points="191.4,77.98 107.5,126.42 107.5,130.29 191.4,81.85 	"/>
	<g>
		<linearGradient id="SVGID_9_" gradientUnits="userSpaceOnUse" x1="166.242" y1="58.8333" x2="219.6878" y2="127.2407">
			<stop  offset="0" style="stop-color:#403D31"/>
			<stop  offset="1" style="stop-color:#343226"/>
		</linearGradient>
		<polygon class="st12" points="193.66,79.29 188.55,82.24 188.55,102.02 193.66,99.07 		"/>
		<linearGradient id="SVGID_10_" gradientUnits="userSpaceOnUse" x1="189.1152" y1="78.5594" x2="177.9648" y2="58.4436">
			<stop  offset="0" style="stop-color:#403D31"/>
			<stop  offset="1" style="stop-color:#343226"/>
		</linearGradient>
		<polygon class="st13" points="193.66,79.29 188.55,82.24 186.29,80.93 191.4,77.98 		"/>
		<linearGradient id="SVGID_11_" gradientUnits="userSpaceOnUse" x1="215.9395" y1="95.484" x2="203.7779" y2="93.7748">
			<stop  offset="0" style="stop-color:#403D31"/>
			<stop  offset="1" style="stop-color:#343226"/>
		</linearGradient>
		<polygon class="st14" points="188.55,102.02 188.55,82.24 186.29,80.93 186.29,100.71 		"/>
	</g>
</g>
</svg>
