<?xml version="1.0" encoding="utf-8"?>
<!-- Generator: Adobe Illustrator 25.4.1, SVG Export Plug-In . SVG Version: 6.00 Build 0)  -->
<svg version="1.1" id="圖層_1" xmlns="http://www.w3.org/2000/svg" xmlns:xlink="http://www.w3.org/1999/xlink" x="0px" y="0px"
	 viewBox="0 0 240 240" style="enable-background:new 0 0 240 240;" xml:space="preserve">
<style type="text/css">
	.st0{fill:#3A3731;}
	.st1{display:none;fill:#514E4A;}
	.st2{fill:#514E4A;}
	.st3{fill:#47443F;}
	.st4{fill:#44413D;}
	.st5{fill:#68645F;}
	.st6{fill:#56524D;}
	.st7{fill:none;stroke:#3A3731;stroke-width:0.9768;stroke-miterlimit:10;}
	.st8{fill:#2B2925;}
</style>
<g>
	<polygon class="st0" points="67.5,40.5 67.5,76.5 84.4,71.8 84.4,50.3 89,32.8 	"/>
	<polygon class="st0" points="146.7,31.7 153.5,50.3 153.5,70.2 169.4,76.5 171.6,50.8 169.4,37.5 	"/>
	<path class="st1" d="M198,60.3l-2.4,18L194,90.6l-1.3,9.6l-1.5,11.1l-1.2,9c0,0,0,0,0,0l-1.4,10.6l-1.2,8.7l-1.4,10.4v0l-1.1,8.5
		l0,0l-1.3,10.2l-1.1,8.4l-1.3,10.1l-0.9,7.1c0,0.4,0,0.7,0,1.1c-0.2,4-1.6,8-4.2,11.8c0,0,0,0,0,0c-3,4.3-7.5,8.4-13.5,11.9
		c-23.8,13.7-62.3,13.7-86,0c-6.1-3.5-10.6-7.6-13.6-11.9c-2.6-3.8-4-7.8-4.2-11.8v0c0-0.4,0-0.8,0-1.2l-0.9-7l-1.3-10.1l-1.1-8.4
		l-1.3-10.2l-1.1-8.5l-1.4-10.4l-1.1-8.7l-1.4-10.7l-1.2-9l-1.5-11.1L45,90.6l-1.6-12.2l-2.4-18l78.5,15L198,60.3z"/>
	<g>
		<path class="st0" d="M167.5,215.7l6.2-158.3c0-0.4,0-0.8,0-1.3c-0.1-1.5-0.3-8-0.5-9.5c-2.2-1.5-2.2-1.5-4.8-2.9
			c1.2,3.3,0.7,9,0.8,12.5c0,0.5,0,0.9,0,1.3v0.2l-6.6,154.1C164.4,213,166,214.3,167.5,215.7z M70.2,44c-2.4,1.8-4.1,1.7-5.8,3.6
			c-0.2,1.4-0.1,7-0.2,8.4c0,0.5,0,1,0,1.5l7.1,158.2c1.5-1.4,3.1-2.7,4.9-3.9L68.8,57.6c0-0.5,0-0.9,0-1.4
			C68.9,52.7,69,47.2,70.2,44z"/>
	</g>
	<g>
		<path class="st0" d="M151.4,223.5l4.2-167.2c0-0.3,0-0.8,0-1.3c-0.1-5.1-0.9-10-2.4-14.7l-0.6-1.9c-0.2-0.5-0.3-1-0.5-1.4
			c-1.9-0.7-3.6-0.9-5.6-1.5c1,2,1.6,3.7,2.3,5.9l0.2,0.7c1.3,4.2,2,8.6,2.1,13.1c0,0.4,0,0.9,0,1.3l-4.3,165.4
			C148.3,222.4,149.8,222.9,151.4,223.5z M91.4,35.8c-2,0.6-3.7,0.9-5.6,1.6c-0.4,1-0.6,1.6-0.9,2.7c-1.5,4.8-2.4,9.8-2.5,15
			c0,0.6,0,1.1,0,1.6l4.4,165.3c1.5-0.6,3.1-1.1,4.7-1.6L86.9,56.7c0-0.6,0-1.1,0-1.5c0.1-4.8,0.9-9.4,2.3-13.8
			C89.9,39.2,90.4,37.8,91.4,35.8z"/>
	</g>
	<g>
		<path class="st0" d="M133.3,225.9l2.1-169.9c0-5-0.4-9.9-1-14.5l-0.3-2.1c-0.3-2.1-0.7-4.3-1.1-6.2c-1.6-0.2-3.2-0.3-4.8-0.4
			c0.7,2.8,1.2,5.9,1.7,9.2l0.1,0.5c0.6,4.3,0.9,8.9,0.9,13.6l0,1.3l-2.1,167.9C130.3,225.5,131.8,225.7,133.3,225.9z M109.7,32.8
			c-1.6,0.1-3.2,0.3-4.8,0.5c-0.6,2.5-1,5.2-1.4,8.1c-0.6,4.6-1,9.6-1,14.6l0,1.5l2.9,168.3c1.5-0.2,3-0.4,4.6-0.6L107,56.1
			c0-4.9,0.4-9.6,1-14.1C108.4,38.7,109,35.6,109.7,32.8z"/>
	</g>
	<path class="st2" d="M169.7,31.4c-27.7-16-72.7-16-100.4,0c-16.8,9.7-23.4,23-19.9,35.6c2.3-8.2,8.9-16.1,19.9-22.4
		c27.7-16,72.7-16,100.4,0c11,6.3,17.6,14.2,19.9,22.4C193.1,54.4,186.5,41,169.7,31.4z"/>
	<path class="st3" d="M180.7,199.6c-2,7.2-7.8,14-17.3,19.6c-24.2,14-63.4,14-87.6,0c-9.6-5.5-15.3-12.4-17.3-19.6
		c2-7.2,7.8-14,17.3-19.6c24.2-14,63.4-14,87.6,0C172.9,185.5,178.7,192.4,180.7,199.6z"/>
	<g>
		<path class="st4" d="M194.7,81.5l0.7-8.4c-3.8-6.5-10.2-12.6-19.4-17.8c-31.2-17.7-81.9-17.7-113.1,0c-9.1,5.2-16.2,11.3-20,17.8
			l1,8.2c3.4-7.7,8.3-11,18.9-17c31.2-17.7,81.9-17.7,113.1,0C186.7,70.3,191.3,73.8,194.7,81.5z"/>
		<path class="st0" d="M193.3,98l0.9-8.5c-3.9-5-10.9-11-18.1-15.1c-31.2-17.7-81.9-17.7-113.1,0c-7.2,4.1-14.6,9.2-18.5,14.2
			l1.4,9.7c3.9-5.7,8.9-10.2,17-14.9c31.2-17.7,81.9-17.7,113.1,0C184.2,88.1,189.4,92.3,193.3,98z"/>
		<path class="st0" d="M192.3,104.1l0.9-8.5c-3.9-5-9.9-11-17.1-15.1c-31.2-17.7-81.9-17.7-113.1,0c-7.2,4.1-13.5,8.2-17.4,13.1
			l1.4,9.7c3.9-5.7,7.8-9.2,15.9-13.8c31.2-17.7,81.9-17.7,113.1,0C184.2,94.2,188.4,98.4,192.3,104.1z"/>
		<path class="st0" d="M191.5,107.6l0.9-9.5c-3.6-3.8-10.6-8.5-16.3-11.7c-31.2-17.7-81.9-17.7-113.1,0c-5.7,3.2-12.7,7.5-16.3,11.3
			l1,9.9c3.8-4.4,8.9-8.6,15.4-12.2c31.2-17.7,81.9-17.7,113.1,0C182.6,99,187.7,103.1,191.5,107.6z"/>
		<path class="st4" d="M188.9,124.3l1.2-8.2l0,0c-3.2-2.9-9.6-7.8-14-10.3c-31.2-17.7-81.9-17.7-113.1,0c-4.4,2.5-8.2,5.2-11.4,8.1
			l-1.4,10.4c3.4-3.4,7.7-6.6,12.8-9.4c31.2-17.7,81.9-17.7,113.1,0C181.2,117.8,185.4,121,188.9,124.3z"/>
		<path class="st4" d="M187.4,140l1.1-8.5c-2.6-2.1-9.1-5.8-12.4-7.7c-31.2-17.7-81.9-17.7-113.1,0c-3.3,1.9-10,4.9-12.6,7l1.1,9.5
			c2.9-2.5,7.6-5.3,11.5-7.5c31.2-17.7,81.9-17.7,113.1,0C180,135.2,184.4,137.5,187.4,140z"/>
		<path class="st4" d="M185,156.6l1.3-8.3c-2-1.4-8-5.3-10.3-6.6c-31.2-17.7-81.9-17.7-113.1,0c-2.3,1.3-8.4,5.1-10.3,6.5l0.9,8.9
			c2.3-1.8,6.6-4.8,9.4-6.4c31.2-17.7,81.9-17.7,113.1,0C178.9,152.3,182.7,154.9,185,156.6z"/>
		<path class="st4" d="M181.5,169.9c-0.2-4-1.7-8-4.3-11.8c0,0,0,0,0,0c-0.4-0.2-0.7-0.4-1.1-0.6c-31.2-17.7-81.9-17.7-113.1,0
			c-0.4,0.2-8.5,3.8-8.8,4c0.3,4.4,1.4,5.5,1.2,9.5c1.7-1.2,5.7-3.3,7.7-4.4c31.2-17.7,81.9-17.7,113.1,0
			C178,167.7,179.8,168.8,181.5,169.9z"/>
	</g>
	<path class="st5" d="M41,60.3l0.9,6.9C41.3,65,41,62.6,41,60.3z"/>
	<path class="st5" d="M198,60.3c0,2.3-0.3,4.6-0.9,6.9L198,60.3z"/>
	<path class="st5" d="M41,60.3l0.9,6.9C41.3,65,41,62.6,41,60.3z"/>
	<g>
		<path class="st6" d="M194.5,85l-1.6,13c-3.7,6.5-8.9,11.1-17.9,16.3c-30.7,17.7-80.4,17.7-111,0c-8.9-5.2-14.2-9.5-17.9-16
			l-1.5-12.4c3.3,7.7,9,13.3,19.4,19.3c30.6,17.7,80.4,17.7,111,0C185.4,99.2,191.2,92.7,194.5,85z"/>
		<path class="st0" d="M192,106.2l-1.5,11.1c-3.8,5-8.5,9.4-15.5,13.4c-30.7,17.7-80.4,17.7-111,0c-7.1-4.1-11.7-8.3-15.5-13.3
			L47,106c3.8,5.7,9,11.1,17,15.7c30.6,17.7,80.4,17.7,111,0C183,117.1,188.1,112,192,106.2z"/>
		<path class="st0" d="M191.2,110.4l-1.5,11.1c-3.8,5-7.7,7.1-14.8,11.2c-30.7,17.7-80.4,17.7-111,0c-7.1-4.1-11.3-7.1-15.1-12.1
			l-1.5-11.1c3.8,5.7,8.5,9.5,16.5,14.1c30.6,17.7,80.4,17.7,111,0C183,119.1,187.4,116.2,191.2,110.4z"/>
		<path class="st0" d="M190.1,120.2l-1.4,10.6c-3.5,3.8-8.1,7.4-13.7,10.6c-30.7,17.7-80.4,17.7-111,0c-5.6-3.2-10.1-6.8-13.7-10.6
			l-1.4-10.7c3.7,4.4,8.7,8.6,15.1,12.2c30.6,17.7,80.4,17.7,111,0C181.4,128.8,186.4,124.7,190.1,120.2z"/>
		<path class="st6" d="M187.5,139.6l-1.4,10.4v0c-3.1,2.9-6.8,5.6-11.2,8.1c-30.7,17.7-80.4,17.7-111,0c-4.3-2.5-8.1-5.2-11.2-8.1
			l-1.4-10.4c3.4,3.4,7.5,6.6,12.6,9.4c30.6,17.7,80.4,17.7,111,0C180,146.1,184.2,143,187.5,139.6z"/>
		<path class="st6" d="M185,158.5l-1.3,10.2c-2.6,2.1-5.5,4.1-8.7,6c-30.7,17.7-80.4,17.7-111,0c-3.3-1.9-6.1-3.9-8.7-6l-1.3-10.2
			c2.9,2.5,6.2,4.9,10.1,7.1c30.6,17.7,80.4,17.7,111,0C178.8,163.4,182.2,161,185,158.5z"/>
		<path class="st6" d="M182.6,177.1l-1.3,10.1c-1.9,1.4-4,2.8-6.3,4.1c-30.7,17.7-80.4,17.7-111,0c-2.3-1.3-4.3-2.7-6.3-4.1
			l-1.3-10.1c2.3,1.8,4.8,3.5,7.6,5.1c30.6,17.7,80.4,17.7,111,0C177.8,180.5,180.3,178.8,182.6,177.1z"/>
		<path class="st6" d="M180.3,195.4c-0.2,4-1.6,8-4.2,11.8c0,0,0,0,0,0c-0.3,0.2-0.7,0.4-1,0.6c-30.7,17.7-80.4,17.7-111,0
			c-0.4-0.2-0.7-0.4-1.1-0.6c-2.6-3.8-4-7.8-4.2-11.8c1.7,1.2,3.4,2.3,5.3,3.4c30.6,17.7,80.4,17.7,111,0
			C176.9,197.6,178.7,196.5,180.3,195.4z"/>
	</g>
	<g>
		<path class="st0" d="M157.9,99.9l-6.4,104.4c0,0.4,0,0.9,0,1.3c-0.1,4.5-0.8,8.9-2.1,13.1l-0.2,0.7c-0.7,2.2-1.5,4.3-2.5,6.3
			c2-0.6,3.9-1.2,5.8-1.9c0.2-0.5,0.4-1,0.5-1.4h0.6v-1.9c1.5-4.7,2.3-9.6,2.4-14.7c0-0.5,0-0.9,0-1.3l6.5-106.2
			C161,98.8,159.5,99.4,157.9,99.9z M89.8,219.3c-1.4-4.4-2.2-9-2.3-13.8c0-0.5,0-0.9,0-1.5L81.1,99.9c-1.6-0.5-3.1-1.1-4.7-1.6
			l6.5,105.9c0,0.5,0,1,0,1.6c0.1,5.2,1,10.2,2.5,15c0.3,1,0.7,2,1.1,3c1.9,0.7,3.8,1.3,5.8,1.9C91.3,223.6,90.4,221.5,89.8,219.3z"
			/>
	</g>
	<g>
		<path class="st0" d="M133.9,104.9l-2.5,99.4l0,1.3c0,4.7-0.3,9.3-0.9,13.6l-0.1,0.5c-0.4,3.3-1,6.4-1.7,9.2
			c1.6-0.1,3.2-0.3,4.8-0.5c0.4-1.9,0.8-4,1.1-6.1h0.3v-2.1c0.6-4.6,0.9-9.5,1-14.5l2.5-101.3C137,104.6,135.4,104.8,133.9,104.9z
			 M108.6,219.7c-0.6-4.5-0.9-9.2-1-14.1l-2.5-100.7c-1.5-0.2-3-0.3-4.6-0.6l2.5,99.8l0,1.5c0,5.1,0.4,10,1,14.6
			c0.4,2.9,0.8,5.6,1.4,8.1c1.6,0.2,3.2,0.4,4.8,0.5C109.5,226.1,109,223,108.6,219.7z"/>
	</g>
	<g>
		<path class="st0" d="M180.4,88.9l-10.7,115.2v0.2c0,0.4,0,0.8,0,1.3c-0.1,3.5-0.8,6.8-2,10.1c2.4-1.8,4.4-3.6,6.1-5.6
			c0.2-1.5,0.4-3,0.5-4.5c0-0.4,0-0.8,0-1.3L185.4,85C183.9,86.3,182.2,87.7,180.4,88.9z M69.3,205.6c0-0.5,0-0.9,0-1.4L58.6,88.9
			c-1.8-1.2-3.4-2.5-4.9-3.9l11.1,119.3c0,0.5,0,1,0,1.5c0.1,1.5,0.2,2.9,0.4,4.4c1.7,1.9,3.7,3.8,6.1,5.6
			C70.1,212.4,69.5,209,69.3,205.6z"/>
	</g>
	<path class="st5" d="M197.1,67.3c0.6-2.3,0.9-4.6,0.9-6.9L197.1,67.3z"/>
	<line class="st7" x1="41.9" y1="64.5" x2="58.9" y2="199.6"/>
	<line class="st7" x1="196.8" y1="66.6" x2="180.2" y2="199.6"/>
	<path class="st8" d="M175,28.3c-30.7-17.7-80.4-17.7-111,0s-30.7,46.4,0,64.1c30.7,17.7,80.4,17.7,111,0
		C205.7,74.7,205.7,46,175,28.3z M169.7,89.3c-27.7,16-72.7,16-100.4,0c-11-6.3-17.6-14.2-19.9-22.4C45.9,54.4,52.5,41,69.3,31.4
		c27.7-16,72.7-16,100.4,0c16.8,9.7,23.4,23,19.9,35.6C187.3,75.1,180.7,83,169.7,89.3z"/>
	<path class="st0" d="M177.8,26.7c-32.2-18.6-84.3-18.6-116.5,0s-32.2,48.7,0,67.3c32.2,18.6,84.3,18.6,116.5,0
		C209.9,75.4,209.9,45.3,177.8,26.7z M172.2,90.8c-29.1,16.8-76.3,16.8-105.4,0c-11.5-6.6-18.5-14.9-20.9-23.5
		c-3.7-13.2,3.3-27.2,20.9-37.3c29.1-16.8,76.3-16.8,105.4,0c17.6,10.2,24.6,24.1,20.9,37.3C190.7,75.9,183.7,84.1,172.2,90.8z"/>
	<polygon class="st0" points="56.4,87.3 60.5,134.3 80.9,144.2 78.1,98.3 	"/>
	<polygon class="st0" points="181.5,86.8 179,134.8 157.2,140.4 160.3,98.3 	"/>
</g>
</svg>
