<?xml version="1.0" encoding="utf-8"?>
<!-- Generator: Adobe Illustrator 25.3.1, SVG Export Plug-In . SVG Version: 6.00 Build 0)  -->
<svg version="1.1" id="圖層_1" xmlns="http://www.w3.org/2000/svg" xmlns:xlink="http://www.w3.org/1999/xlink" x="0px" y="0px"
	 viewBox="0 0 240 240" style="enable-background:new 0 0 240 240;" xml:space="preserve">
<style type="text/css">
	.st0{fill:#B76F3F;}
	.st1{fill:#9C480C;}
	.st2{fill:#EFD995;}
	.st3{fill:#FFEDB4;}
	.st4{fill:#C28E25;}
	.st5{fill:#E6E1E4;}
	.st6{fill:#AB774D;}
	.st7{fill:#F9F9F9;}
	.st8{fill:#F1F1F1;}
	.st9{fill:#BA9985;}
	.st10{fill:#B3A4AD;}
	.st11{fill:#D9AF6A;}
	.st12{fill:#B58847;}
	.st13{fill:#D6D6D6;}
	.st14{fill:#A45823;}
	.st15{fill:#FEFEFE;}
	.st16{fill:#8B8B8B;}
	.st17{fill:#6F6F6F;}
	.st18{fill:#8E8E8E;}
</style>
<g>
	<g id="XMLID_1495_">
		<g id="XMLID_1497_">
			<g id="XMLID_1507_">
				<polygon id="XMLID_1533_" class="st0" points="120,234.03 32.63,183.59 32.63,92.41 120,142.86 				"/>
				<polygon id="XMLID_1532_" class="st1" points="32.63,92.41 32.63,183.59 120,234.03 35.16,182.15 				"/>
				<polygon id="XMLID_1531_" class="st1" points="69.33,205.07 69.33,113.61 83.21,121.62 83.21,213.87 				"/>
				<polygon id="XMLID_1530_" class="st2" points="120,142.86 32.63,92.41 120,41.97 207.37,92.41 				"/>
				<polygon id="XMLID_1529_" class="st3" points="200.93,92.41 120.25,138.83 32.63,92.41 120,142.86 207.37,92.41 120,41.97 				
					"/>
				<polygon id="XMLID_1528_" class="st4" points="71.64,70.18 172.97,128.38 188.32,119.65 72.03,69.79 				"/>
				<polygon id="XMLID_1527_" class="st5" points="85.91,61.78 122.15,82.03 107.76,90.3 72.04,69.78 				"/>
				<polygon id="XMLID_1526_" class="st5" points="188.72,119.26 173.36,127.97 122.28,98.63 137.07,90.39 				"/>
				<polygon id="XMLID_1525_" class="st6" points="82.03,121.07 172.35,70.73 172.13,72.06 83.21,121.62 				"/>
				<polygon id="XMLID_1524_" class="st7" points="137.07,90.39 122.28,98.63 107.76,90.3 122.15,82.03 				"/>
				<polygon id="XMLID_1523_" class="st8" points="107.76,90.3 122.28,98.63 82.02,121.08 68.15,113.05 				"/>
				<polygon id="XMLID_79_" class="st9" points="118.59,125.84 83.21,121.62 32.63,92.41 65.08,73.67 				"/>
				<polygon id="XMLID_1522_" class="st8" points="172.36,70.73 137.07,90.39 122.15,82.03 157,62.02 				"/>
				<polygon id="XMLID_1521_" class="st10" points="68.15,204.52 68.15,113.05 82.03,121.07 82.03,213.32 				"/>
				<polygon id="XMLID_1520_" class="st11" points="120,234.03 207.37,183.59 207.37,92.41 120,142.86 				"/>
				<polygon id="XMLID_1519_" class="st12" points="120,234.03 207.37,183.59 207.37,182.02 120,232.47 				"/>
				<polygon id="XMLID_1518_" class="st12" points="125.18,214.45 150.07,200.06 150.07,179.27 125.65,192.33 125.18,193.65 				"/>
				<polygon id="XMLID_1517_" class="st12" points="173.96,202.83 173.96,111.69 159,120.33 159,211.47 				"/>
				<polygon id="XMLID_1516_" class="st13" points="174.53,203.17 174.53,111.35 159.56,119.99 159.56,211.81 				"/>
				<g id="XMLID_1508_">
					<g id="XMLID_1512_">
						<path id="XMLID_1513_" class="st14" d="M58.92,143.19l-20.29-11.73v-29.87l20.29,11.73V143.19z M40.49,130.38l16.56,9.57
							v-25.57l-16.56-9.57V130.38z"/>
					</g>
					<g id="XMLID_1509_">
						<polygon id="XMLID_1511_" class="st14" points="44.91,128.62 51.81,132.6 51.81,124.42 44.91,120.43 						"/>
						<polygon id="XMLID_1510_" class="st14" points="41.54,118.55 55.18,126.42 48.36,112.17 						"/>
					</g>
				</g>
			</g>
			<polygon id="XMLID_1506_" class="st15" points="126.15,192.72 151.04,178.34 150.53,177.94 125.65,192.33 			"/>
			<polygon id="XMLID_1505_" class="st16" points="126.15,213.52 126.15,192.72 125.65,192.33 125.65,213.12 			"/>
			<polygon id="XMLID_1504_" class="st13" points="126.15,213.52 151.04,199.13 151.04,178.34 126.15,192.72 			"/>
			<polygon id="XMLID_1503_" class="st17" points="127.54,195.55 149.65,182.78 149.65,181.46 127.54,194.23 			"/>
			<polygon id="XMLID_1502_" class="st18" points="136.69,196.08 149.65,188.62 149.65,187.3 136.69,194.76 			"/>
			<polygon id="XMLID_1501_" class="st18" points="127.63,210.08 134.38,206.18 134.38,195 127.63,198.9 			"/>
			<polygon id="XMLID_1500_" class="st18" points="136.69,198.95 149.65,191.48 149.65,190.16 136.69,197.63 			"/>
			<polygon id="XMLID_1499_" class="st18" points="136.69,201.81 149.65,194.34 149.65,193.03 136.69,200.49 			"/>
			<polygon id="XMLID_1498_" class="st18" points="136.69,204.67 149.65,197.21 149.65,195.89 136.69,203.36 			"/>
		</g>
		<polygon id="XMLID_1496_" class="st8" points="162.61,104.67 172.65,111.35 159.56,118.91 159.56,119.99 174.53,111.35 		"/>
	</g>
	<g id="XMLID_1807_">
		<g id="XMLID_1814_">
			<g id="XMLID_1832_">
				<polygon id="XMLID_1879_" class="st0" points="118.59,125.84 64.06,94.35 64.06,37.45 118.59,68.93 				"/>
				<polygon id="XMLID_1878_" class="st1" points="64.06,37.45 64.06,94.35 118.59,125.84 65.64,93.46 				"/>
				<polygon id="XMLID_1877_" class="st1" points="86.97,107.76 86.97,50.68 95.63,55.68 95.63,113.25 				"/>
				<polygon id="XMLID_1876_" class="st2" points="118.59,68.93 64.06,37.45 118.59,5.97 173.12,37.45 				"/>
				<polygon id="XMLID_1875_" class="st3" points="169.1,37.45 118.75,66.42 64.06,37.45 118.59,68.93 173.12,37.45 118.59,5.97 
									"/>
				<polygon id="XMLID_1874_" class="st6" points="88.41,23.57 151.65,59.9 161.23,54.45 88.65,23.33 				"/>
				<polygon id="XMLID_1873_" class="st5" points="97.32,18.33 119.93,30.97 110.95,36.14 88.66,23.33 				"/>
				<polygon id="XMLID_1872_" class="st5" points="161.48,54.21 151.9,59.64 120.02,41.33 129.25,36.19 				"/>
				<polygon id="XMLID_1855_" class="st6" points="94.89,55.33 151.26,23.92 151.12,24.75 95.63,55.68 				"/>
				<polygon id="XMLID_1854_" class="st7" points="129.25,36.19 120.02,41.33 110.95,36.14 119.93,30.97 				"/>
				<polygon id="XMLID_1853_" class="st8" points="110.95,36.14 120.02,41.33 94.89,55.34 86.23,50.33 				"/>
				<polygon id="XMLID_1852_" class="st8" points="151.27,23.92 129.25,36.19 119.93,30.97 141.69,18.48 				"/>
				<polygon id="XMLID_1851_" class="st10" points="86.23,107.42 86.23,50.33 94.89,55.33 94.89,112.91 				"/>
				<polygon id="XMLID_1850_" class="st11" points="118.59,125.84 173.12,94.35 173.12,37.45 118.59,68.93 				"/>
				<polygon id="XMLID_1849_" class="st12" points="118.59,125.84 173.12,94.35 173.12,93.38 118.59,124.86 				"/>
				<polygon id="XMLID_1848_" class="st12" points="121.82,113.61 137.36,104.64 137.36,91.66 122.11,99.81 121.82,100.63 				"/>
				<polygon id="XMLID_1847_" class="st12" points="152.27,106.36 152.27,49.48 142.93,54.88 142.93,111.76 				"/>
				<polygon id="XMLID_1846_" class="st13" points="152.62,106.58 152.62,49.27 143.28,54.66 143.28,111.97 				"/>
				<g id="XMLID_1833_">
					<g id="XMLID_1842_">
						<path id="XMLID_1843_" class="st14" d="M80.47,69.14l-12.66-7.32V43.18l12.66,7.32V69.14z M68.97,61.15l10.34,5.97V51.17
							l-10.34-5.97V61.15z"/>
					</g>
					<g id="XMLID_1834_">
						<polygon id="XMLID_1841_" class="st14" points="71.73,60.05 76.03,62.53 76.03,57.43 71.73,54.94 						"/>
						<polygon id="XMLID_1835_" class="st14" points="69.63,53.77 78.13,58.68 73.88,49.78 						"/>
					</g>
				</g>
			</g>
			<polygon id="XMLID_1831_" class="st15" points="122.43,100.05 137.96,91.08 137.65,90.83 122.11,99.81 			"/>
			<polygon id="XMLID_1828_" class="st16" points="122.43,113.03 122.43,100.05 122.11,99.81 122.11,112.79 			"/>
			<polygon id="XMLID_1825_" class="st13" points="122.43,113.03 137.96,104.06 137.96,91.08 122.43,100.05 			"/>
			<polygon id="XMLID_1823_" class="st17" points="123.3,101.82 137.09,93.85 137.09,93.03 123.3,101 			"/>
			<polygon id="XMLID_1822_" class="st18" points="129.01,102.15 137.09,97.49 137.09,96.67 129.01,101.33 			"/>
			<polygon id="XMLID_1820_" class="st18" points="123.35,110.89 127.57,108.46 127.57,101.47 123.35,103.91 			"/>
			<polygon id="XMLID_1819_" class="st18" points="129.01,103.94 137.09,99.28 137.09,98.46 129.01,103.12 			"/>
			<polygon id="XMLID_1817_" class="st18" points="129.01,105.73 137.09,101.07 137.09,100.24 129.01,104.9 			"/>
			<polygon id="XMLID_1816_" class="st18" points="129.01,107.51 137.09,102.85 137.09,102.03 129.01,106.69 			"/>
		</g>
		<polygon id="XMLID_1808_" class="st8" points="145.18,45.1 151.45,49.27 143.28,53.99 143.28,54.66 152.62,49.27 		"/>
	</g>
</g>
</svg>
