<?xml version="1.0" encoding="utf-8"?>
<!-- Generator: Adobe Illustrator 25.3.1, SVG Export Plug-In . SVG Version: 6.00 Build 0)  -->
<svg version="1.1" id="圖層_1" xmlns="http://www.w3.org/2000/svg" xmlns:xlink="http://www.w3.org/1999/xlink" x="0px" y="0px"
	 viewBox="0 0 240 240" style="enable-background:new 0 0 240 240;" xml:space="preserve">
<style type="text/css">
	.st0{fill-rule:evenodd;clip-rule:evenodd;fill:url(#SVGID_1_);}
	.st1{fill-rule:evenodd;clip-rule:evenodd;fill:#EDE7DE;}
	.st2{fill-rule:evenodd;clip-rule:evenodd;fill:#F9F5EF;}
	.st3{fill-rule:evenodd;clip-rule:evenodd;fill:url(#SVGID_2_);}
	.st4{fill-rule:evenodd;clip-rule:evenodd;fill:url(#SVGID_3_);}
	.st5{fill-rule:evenodd;clip-rule:evenodd;fill:url(#SVGID_4_);}
	.st6{fill-rule:evenodd;clip-rule:evenodd;fill:url(#SVGID_5_);}
	.st7{fill-rule:evenodd;clip-rule:evenodd;fill:url(#SVGID_6_);}
	.st8{fill-rule:evenodd;clip-rule:evenodd;fill:url(#SVGID_7_);}
	.st9{fill-rule:evenodd;clip-rule:evenodd;fill:url(#SVGID_8_);}
	.st10{fill-rule:evenodd;clip-rule:evenodd;fill:url(#SVGID_9_);}
	.st11{fill-rule:evenodd;clip-rule:evenodd;fill:url(#SVGID_10_);}
	.st12{fill-rule:evenodd;clip-rule:evenodd;fill:url(#SVGID_11_);}
	.st13{fill-rule:evenodd;clip-rule:evenodd;fill:url(#SVGID_12_);}
	.st14{fill-rule:evenodd;clip-rule:evenodd;fill:url(#SVGID_13_);}
	.st15{fill-rule:evenodd;clip-rule:evenodd;fill:url(#SVGID_14_);}
	.st16{fill-rule:evenodd;clip-rule:evenodd;fill:url(#SVGID_15_);}
	.st17{fill-rule:evenodd;clip-rule:evenodd;fill:url(#SVGID_16_);}
	.st18{fill-rule:evenodd;clip-rule:evenodd;fill:url(#SVGID_17_);}
	.st19{fill-rule:evenodd;clip-rule:evenodd;fill:url(#SVGID_18_);}
	.st20{fill-rule:evenodd;clip-rule:evenodd;fill:url(#SVGID_19_);}
	.st21{fill-rule:evenodd;clip-rule:evenodd;fill:url(#SVGID_20_);}
	.st22{fill-rule:evenodd;clip-rule:evenodd;fill:url(#SVGID_21_);}
	.st23{fill-rule:evenodd;clip-rule:evenodd;fill:url(#SVGID_22_);}
	.st24{fill-rule:evenodd;clip-rule:evenodd;fill:url(#SVGID_23_);}
	.st25{fill-rule:evenodd;clip-rule:evenodd;fill:url(#SVGID_24_);}
	.st26{fill-rule:evenodd;clip-rule:evenodd;fill:url(#SVGID_25_);}
	.st27{fill-rule:evenodd;clip-rule:evenodd;fill:url(#SVGID_26_);}
	.st28{fill-rule:evenodd;clip-rule:evenodd;fill:url(#SVGID_27_);}
	.st29{fill-rule:evenodd;clip-rule:evenodd;fill:url(#SVGID_28_);}
</style>
<g>
	<linearGradient id="SVGID_1_" gradientUnits="userSpaceOnUse" x1="81.9706" y1="152.63" x2="44.5171" y2="135.9546">
		<stop  offset="0" style="stop-color:#A6855E"/>
		<stop  offset="1" style="stop-color:#B9A99E"/>
	</linearGradient>
	<polygon class="st0" points="49.45,151.53 56.01,147.75 56.01,127.69 49.45,131.48 	"/>
	<polygon class="st1" points="49.44,151.53 42.88,147.75 42.89,10.79 49.44,14.58 	"/>
	<polygon class="st2" points="42.89,10.79 49.44,7 56.01,10.79 49.45,14.58 	"/>
	<linearGradient id="SVGID_2_" gradientUnits="userSpaceOnUse" x1="60.4245" y1="85.3395" x2="87.2152" y2="155.1317">
		<stop  offset="0" style="stop-color:#CABAB0"/>
		<stop  offset="1" style="stop-color:#B9A99E"/>
	</linearGradient>
	<polygon class="st3" points="49.44,119.77 56,115.98 56,10.79 49.44,14.58 	"/>
	<linearGradient id="SVGID_3_" gradientUnits="userSpaceOnUse" x1="185.8097" y1="155.7512" x2="184.9528" y2="152.5532">
		<stop  offset="0" style="stop-color:#B3A581"/>
		<stop  offset="1" style="stop-color:#E5DCC3"/>
	</linearGradient>
	<polygon class="st4" points="189.26,173.48 190.56,171.23 191.86,173.48 	"/>
	<linearGradient id="SVGID_4_" gradientUnits="userSpaceOnUse" x1="134.1656" y1="183.1948" x2="163.4445" y2="183.1948">
		<stop  offset="0" style="stop-color:#B3A581"/>
		<stop  offset="1" style="stop-color:#9E9073"/>
	</linearGradient>
	<rect x="189.26" y="173.48" class="st5" width="2.6" height="19.42"/>
	<polygon class="st2" points="49.44,119.77 56,115.98 191.86,192.91 184,197.46 	"/>
	<polygon class="st1" points="190.56,220.44 190.56,201.25 42.89,115.99 42.89,135.18 	"/>
	<g>
		<polygon class="st1" points="62.88,125.58 58.14,122.85 58.14,25.81 62.88,28.55 		"/>
		<linearGradient id="SVGID_5_" gradientUnits="userSpaceOnUse" x1="79.6984" y1="137.1936" x2="46.5083" y2="4.0756">
			<stop  offset="0" style="stop-color:#CABAB0"/>
			<stop  offset="1" style="stop-color:#B9A99E"/>
		</linearGradient>
		<polygon class="st6" points="62.88,125.58 66.07,123.74 66.07,26.7 62.88,28.55 		"/>
	</g>
	<g>
		<polygon class="st1" points="74.5,132.29 69.76,129.56 69.76,32.52 74.5,35.26 		"/>
		<linearGradient id="SVGID_6_" gradientUnits="userSpaceOnUse" x1="91.3211" y1="143.902" x2="58.1311" y2="10.784">
			<stop  offset="0" style="stop-color:#CABAB0"/>
			<stop  offset="1" style="stop-color:#B9A99E"/>
		</linearGradient>
		<polygon class="st7" points="74.51,132.29 77.69,130.45 77.69,33.41 74.5,35.26 		"/>
	</g>
	<g>
		<polygon class="st1" points="86.12,139 81.39,136.26 81.39,39.23 86.13,41.97 		"/>
		<linearGradient id="SVGID_7_" gradientUnits="userSpaceOnUse" x1="102.944" y1="150.6111" x2="69.754" y2="17.493">
			<stop  offset="0" style="stop-color:#CABAB0"/>
			<stop  offset="1" style="stop-color:#B9A99E"/>
		</linearGradient>
		<polygon class="st8" points="86.13,139 89.32,137.16 89.32,40.12 86.13,41.97 		"/>
	</g>
	<g>
		<polygon class="st1" points="97.74,145.71 93.01,142.97 93.01,45.93 97.75,48.68 		"/>
		<linearGradient id="SVGID_8_" gradientUnits="userSpaceOnUse" x1="114.5671" y1="157.3202" x2="81.3771" y2="24.2021">
			<stop  offset="0" style="stop-color:#CABAB0"/>
			<stop  offset="1" style="stop-color:#B9A99E"/>
		</linearGradient>
		<polygon class="st9" points="97.75,145.71 100.94,143.87 100.94,46.83 97.75,48.68 		"/>
	</g>
	<g>
		<polygon class="st1" points="109.37,152.42 104.63,149.68 104.63,52.64 109.37,55.39 		"/>
		<linearGradient id="SVGID_9_" gradientUnits="userSpaceOnUse" x1="126.1899" y1="164.0285" x2="92.9998" y2="30.9105">
			<stop  offset="0" style="stop-color:#CABAB0"/>
			<stop  offset="1" style="stop-color:#B9A99E"/>
		</linearGradient>
		<polygon class="st10" points="109.37,152.42 112.56,150.58 112.56,53.54 109.37,55.39 		"/>
	</g>
	<g>
		<polygon class="st1" points="120.99,159.12 116.26,156.39 116.26,59.35 120.99,62.1 		"/>
		<linearGradient id="SVGID_10_" gradientUnits="userSpaceOnUse" x1="137.8131" y1="170.7376" x2="104.623" y2="37.6195">
			<stop  offset="0" style="stop-color:#CABAB0"/>
			<stop  offset="1" style="stop-color:#B9A99E"/>
		</linearGradient>
		<polygon class="st11" points="121,159.12 124.18,157.29 124.18,60.25 120.99,62.1 		"/>
	</g>
	<g>
		<polygon class="st1" points="132.61,165.83 127.88,163.1 127.88,66.06 132.62,68.81 		"/>
		<linearGradient id="SVGID_11_" gradientUnits="userSpaceOnUse" x1="149.4357" y1="177.4466" x2="116.2457" y2="44.3285">
			<stop  offset="0" style="stop-color:#CABAB0"/>
			<stop  offset="1" style="stop-color:#B9A99E"/>
		</linearGradient>
		<polygon class="st12" points="132.62,165.83 135.81,164 135.81,66.96 132.62,68.81 		"/>
	</g>
	<g>
		<polygon class="st1" points="144.24,172.54 139.5,169.81 139.5,72.77 144.24,75.51 		"/>
		<linearGradient id="SVGID_12_" gradientUnits="userSpaceOnUse" x1="161.0591" y1="184.1556" x2="127.869" y2="51.0375">
			<stop  offset="0" style="stop-color:#CABAB0"/>
			<stop  offset="1" style="stop-color:#B9A99E"/>
		</linearGradient>
		<polygon class="st13" points="144.24,172.54 147.43,170.7 147.43,73.66 144.24,75.51 		"/>
	</g>
	<g>
		<polygon class="st1" points="155.86,179.25 151.12,176.52 151.12,79.48 155.86,82.22 		"/>
		<linearGradient id="SVGID_13_" gradientUnits="userSpaceOnUse" x1="172.6818" y1="190.8639" x2="139.4918" y2="57.7459">
			<stop  offset="0" style="stop-color:#CABAB0"/>
			<stop  offset="1" style="stop-color:#B9A99E"/>
		</linearGradient>
		<polygon class="st14" points="155.87,179.25 159.05,177.41 159.05,80.37 155.86,82.22 		"/>
	</g>
	<g>
		<polygon class="st1" points="167.48,185.96 162.75,183.23 162.75,86.19 167.49,88.93 		"/>
		<linearGradient id="SVGID_14_" gradientUnits="userSpaceOnUse" x1="184.3048" y1="197.573" x2="151.1147" y2="64.455">
			<stop  offset="0" style="stop-color:#CABAB0"/>
			<stop  offset="1" style="stop-color:#B9A99E"/>
		</linearGradient>
		<polygon class="st15" points="167.49,185.96 170.68,184.12 170.68,87.08 167.49,88.93 		"/>
	</g>
	<g>
		<polygon class="st1" points="179.11,192.67 174.37,189.94 174.37,92.9 179.11,95.64 		"/>
		<linearGradient id="SVGID_15_" gradientUnits="userSpaceOnUse" x1="195.9277" y1="204.282" x2="162.7376" y2="71.1639">
			<stop  offset="0" style="stop-color:#CABAB0"/>
			<stop  offset="1" style="stop-color:#B9A99E"/>
		</linearGradient>
		<polygon class="st16" points="179.11,192.67 182.3,190.83 182.3,93.79 179.11,95.64 		"/>
	</g>
	<polygon class="st2" points="49.44,22.77 56,18.98 190.99,96.92 184.43,100.71 	"/>
	<linearGradient id="SVGID_16_" gradientUnits="userSpaceOnUse" x1="55.9747" y1="22.7439" x2="38.5915" y2="5.3608">
		<stop  offset="0" style="stop-color:#CABAB0"/>
		<stop  offset="1" style="stop-color:#B9A99E"/>
	</linearGradient>
	<polygon class="st17" points="49.44,22.77 56,18.98 62.56,22.77 49.44,22.77 	"/>
	<polygon class="st1" points="184,105.93 184,100.45 49.44,22.77 49.44,28.24 	"/>
	<g>
		<linearGradient id="SVGID_17_" gradientUnits="userSpaceOnUse" x1="176.6741" y1="102.664" x2="180.7895" y2="86.158">
			<stop  offset="0" style="stop-color:#CABAB0"/>
			<stop  offset="1" style="stop-color:#B9A99E"/>
		</linearGradient>
		<polygon class="st18" points="179.09,103.1 174.35,100.37 174.35,101.82 179.09,104.56 		"/>
		<linearGradient id="SVGID_18_" gradientUnits="userSpaceOnUse" x1="165.0681" y1="95.9538" x2="169.1835" y2="79.4478">
			<stop  offset="0" style="stop-color:#CABAB0"/>
			<stop  offset="1" style="stop-color:#B9A99E"/>
		</linearGradient>
		<polygon class="st19" points="167.48,96.39 162.75,93.66 162.75,95.11 167.49,97.85 		"/>
		<linearGradient id="SVGID_19_" gradientUnits="userSpaceOnUse" x1="153.4622" y1="89.243" x2="157.5775" y2="72.737">
			<stop  offset="0" style="stop-color:#CABAB0"/>
			<stop  offset="1" style="stop-color:#B9A99E"/>
		</linearGradient>
		<polygon class="st20" points="155.88,89.68 151.14,86.95 151.14,88.4 155.88,91.14 		"/>
		<linearGradient id="SVGID_20_" gradientUnits="userSpaceOnUse" x1="141.8558" y1="82.5327" x2="145.9712" y2="66.0267">
			<stop  offset="0" style="stop-color:#CABAB0"/>
			<stop  offset="1" style="stop-color:#B9A99E"/>
		</linearGradient>
		<polygon class="st21" points="144.27,82.97 139.54,80.24 139.54,81.69 144.27,84.43 		"/>
		<linearGradient id="SVGID_21_" gradientUnits="userSpaceOnUse" x1="130.2496" y1="75.822" x2="134.365" y2="59.316">
			<stop  offset="0" style="stop-color:#CABAB0"/>
			<stop  offset="1" style="stop-color:#B9A99E"/>
		</linearGradient>
		<polygon class="st22" points="132.67,76.26 127.93,73.53 127.93,74.98 132.67,77.72 		"/>
		<linearGradient id="SVGID_22_" gradientUnits="userSpaceOnUse" x1="118.6437" y1="69.1112" x2="122.7591" y2="52.6052">
			<stop  offset="0" style="stop-color:#CABAB0"/>
			<stop  offset="1" style="stop-color:#B9A99E"/>
		</linearGradient>
		<polygon class="st23" points="121.06,69.55 116.32,66.82 116.32,68.27 121.06,71.01 		"/>
		<linearGradient id="SVGID_23_" gradientUnits="userSpaceOnUse" x1="107.0376" y1="62.401" x2="111.153" y2="45.895">
			<stop  offset="0" style="stop-color:#CABAB0"/>
			<stop  offset="1" style="stop-color:#B9A99E"/>
		</linearGradient>
		<polygon class="st24" points="109.45,62.84 104.72,60.1 104.72,61.56 109.46,64.3 		"/>
		<linearGradient id="SVGID_24_" gradientUnits="userSpaceOnUse" x1="95.4317" y1="55.6902" x2="99.5471" y2="39.1842">
			<stop  offset="0" style="stop-color:#CABAB0"/>
			<stop  offset="1" style="stop-color:#B9A99E"/>
		</linearGradient>
		<polygon class="st25" points="97.85,56.13 93.11,53.39 93.11,54.85 97.85,57.59 		"/>
		<linearGradient id="SVGID_25_" gradientUnits="userSpaceOnUse" x1="83.8254" y1="48.9799" x2="87.9408" y2="32.4739">
			<stop  offset="0" style="stop-color:#CABAB0"/>
			<stop  offset="1" style="stop-color:#B9A99E"/>
		</linearGradient>
		<polygon class="st26" points="86.24,49.42 81.51,46.68 81.51,48.14 86.24,50.88 		"/>
		<linearGradient id="SVGID_26_" gradientUnits="userSpaceOnUse" x1="72.2191" y1="42.2691" x2="76.3345" y2="25.7632">
			<stop  offset="0" style="stop-color:#CABAB0"/>
			<stop  offset="1" style="stop-color:#B9A99E"/>
		</linearGradient>
		<polygon class="st27" points="74.64,42.71 69.9,39.97 69.9,41.43 74.64,44.17 		"/>
		<linearGradient id="SVGID_27_" gradientUnits="userSpaceOnUse" x1="60.6132" y1="35.5589" x2="64.7285" y2="19.053">
			<stop  offset="0" style="stop-color:#CABAB0"/>
			<stop  offset="1" style="stop-color:#B9A99E"/>
		</linearGradient>
		<polygon class="st28" points="63.03,36 58.29,33.26 58.29,34.72 63.03,37.46 		"/>
	</g>
	<g>
		<polygon class="st1" points="190.56,233 184,229.21 184,92.26 190.56,96.05 		"/>
		<linearGradient id="SVGID_28_" gradientUnits="userSpaceOnUse" x1="168.8524" y1="103.7679" x2="262.9525" y2="325.4538">
			<stop  offset="0" style="stop-color:#CABAB0"/>
			<stop  offset="1" style="stop-color:#B9A99E"/>
		</linearGradient>
		<polygon class="st29" points="190.56,233 197.12,229.21 197.12,92.26 190.56,96.05 		"/>
		<polygon class="st2" points="184,92.26 190.56,88.47 197.12,92.25 190.56,96.05 		"/>
	</g>
</g>
</svg>
