<?xml version="1.0" encoding="utf-8"?>
<!-- Generator: Adobe Illustrator 25.3.1, SVG Export Plug-In . SVG Version: 6.00 Build 0)  -->
<svg version="1.1" id="圖層_1" xmlns="http://www.w3.org/2000/svg" xmlns:xlink="http://www.w3.org/1999/xlink" x="0px" y="0px"
	 viewBox="0 0 240 240" style="enable-background:new 0 0 240 240;" xml:space="preserve">
<style type="text/css">
	.st0{fill-rule:evenodd;clip-rule:evenodd;fill:url(#SVGID_1_);}
	.st1{fill-rule:evenodd;clip-rule:evenodd;fill:#F9E2B2;}
	.st2{fill-rule:evenodd;clip-rule:evenodd;fill:#FDEFC6;}
	.st3{fill-rule:evenodd;clip-rule:evenodd;fill:url(#SVGID_2_);}
	.st4{fill-rule:evenodd;clip-rule:evenodd;fill:url(#SVGID_3_);}
	.st5{fill-rule:evenodd;clip-rule:evenodd;fill:url(#SVGID_4_);}
	.st6{fill-rule:evenodd;clip-rule:evenodd;fill:url(#SVGID_5_);}
	.st7{fill-rule:evenodd;clip-rule:evenodd;fill:#BD9CA0;}
	.st8{fill-rule:evenodd;clip-rule:evenodd;fill:url(#SVGID_6_);}
	.st9{fill-rule:evenodd;clip-rule:evenodd;fill:#AE8A91;}
	.st10{fill-rule:evenodd;clip-rule:evenodd;fill:url(#SVGID_7_);}
	.st11{fill-rule:evenodd;clip-rule:evenodd;fill:url(#SVGID_8_);}
	.st12{fill-rule:evenodd;clip-rule:evenodd;fill:url(#SVGID_9_);}
	.st13{fill-rule:evenodd;clip-rule:evenodd;fill:url(#SVGID_10_);}
	.st14{fill-rule:evenodd;clip-rule:evenodd;fill:url(#SVGID_11_);}
	.st15{fill-rule:evenodd;clip-rule:evenodd;fill:url(#SVGID_12_);}
	.st16{fill-rule:evenodd;clip-rule:evenodd;fill:url(#SVGID_13_);}
	.st17{fill-rule:evenodd;clip-rule:evenodd;fill:url(#SVGID_14_);}
	.st18{fill-rule:evenodd;clip-rule:evenodd;fill:url(#SVGID_15_);}
	.st19{fill-rule:evenodd;clip-rule:evenodd;fill:url(#SVGID_16_);}
	.st20{fill-rule:evenodd;clip-rule:evenodd;fill:url(#SVGID_17_);}
	.st21{fill-rule:evenodd;clip-rule:evenodd;fill:url(#SVGID_18_);}
	.st22{fill-rule:evenodd;clip-rule:evenodd;fill:url(#SVGID_19_);}
	.st23{fill-rule:evenodd;clip-rule:evenodd;fill:url(#SVGID_20_);}
	.st24{fill-rule:evenodd;clip-rule:evenodd;fill:url(#SVGID_21_);}
	.st25{fill-rule:evenodd;clip-rule:evenodd;fill:url(#SVGID_22_);}
	.st26{fill-rule:evenodd;clip-rule:evenodd;fill:url(#SVGID_23_);}
	.st27{fill-rule:evenodd;clip-rule:evenodd;fill:url(#SVGID_24_);}
	.st28{fill-rule:evenodd;clip-rule:evenodd;fill:url(#SVGID_25_);}
	.st29{fill-rule:evenodd;clip-rule:evenodd;fill:url(#SVGID_26_);}
	.st30{fill-rule:evenodd;clip-rule:evenodd;fill:url(#SVGID_27_);}
	.st31{fill-rule:evenodd;clip-rule:evenodd;fill:url(#SVGID_28_);}
	.st32{fill-rule:evenodd;clip-rule:evenodd;fill:url(#SVGID_29_);}
	.st33{fill-rule:evenodd;clip-rule:evenodd;fill:#8D6573;}
	.st34{fill-rule:evenodd;clip-rule:evenodd;fill:#8C6472;}
	.st35{fill-rule:evenodd;clip-rule:evenodd;fill:#8B6371;}
	.st36{fill-rule:evenodd;clip-rule:evenodd;fill:#8B6271;}
	.st37{fill-rule:evenodd;clip-rule:evenodd;fill:#8A6170;}
	.st38{fill-rule:evenodd;clip-rule:evenodd;fill:#896170;}
	.st39{fill-rule:evenodd;clip-rule:evenodd;fill:#89606F;}
	.st40{fill-rule:evenodd;clip-rule:evenodd;fill:#885F6F;}
	.st41{fill-rule:evenodd;clip-rule:evenodd;fill:#875F6E;}
	.st42{fill-rule:evenodd;clip-rule:evenodd;fill:#875E6E;}
	.st43{fill-rule:evenodd;clip-rule:evenodd;fill:#865D6D;}
	.st44{fill-rule:evenodd;clip-rule:evenodd;fill:#865C6D;}
	.st45{fill-rule:evenodd;clip-rule:evenodd;fill:#855C6C;}
	.st46{fill-rule:evenodd;clip-rule:evenodd;fill:#845B6C;}
	.st47{fill-rule:evenodd;clip-rule:evenodd;fill:#845A6B;}
	.st48{fill-rule:evenodd;clip-rule:evenodd;fill:#835A6B;}
	.st49{fill-rule:evenodd;clip-rule:evenodd;fill:#82596A;}
	.st50{fill-rule:evenodd;clip-rule:evenodd;fill:#82586A;}
	.st51{fill-rule:evenodd;clip-rule:evenodd;fill:#815769;}
	.st52{fill-rule:evenodd;clip-rule:evenodd;fill:#805668;}
	.st53{fill-rule:evenodd;clip-rule:evenodd;fill:#DBDCDC;}
	.st54{fill-rule:evenodd;clip-rule:evenodd;fill:#B69599;}
	.st55{fill-rule:evenodd;clip-rule:evenodd;fill:url(#SVGID_30_);}
	.st56{fill-rule:evenodd;clip-rule:evenodd;fill:#FDFBF5;}
	.st57{fill-rule:evenodd;clip-rule:evenodd;fill:#FBF6EB;}
	.st58{fill-rule:evenodd;clip-rule:evenodd;fill:url(#SVGID_31_);}
	.st59{fill-rule:evenodd;clip-rule:evenodd;fill:url(#SVGID_32_);}
	.st60{fill-rule:evenodd;clip-rule:evenodd;fill:#F9F4E7;}
	.st61{fill-rule:evenodd;clip-rule:evenodd;fill:#F6EFE1;}
	.st62{fill-rule:evenodd;clip-rule:evenodd;fill:url(#SVGID_33_);}
	.st63{fill-rule:evenodd;clip-rule:evenodd;fill:url(#SVGID_34_);}
	.st64{fill-rule:evenodd;clip-rule:evenodd;fill:url(#SVGID_35_);}
	.st65{fill-rule:evenodd;clip-rule:evenodd;fill:url(#SVGID_36_);}
	.st66{fill-rule:evenodd;clip-rule:evenodd;fill:url(#SVGID_37_);}
	.st67{fill-rule:evenodd;clip-rule:evenodd;fill:url(#SVGID_38_);}
	.st68{fill-rule:evenodd;clip-rule:evenodd;fill:url(#SVGID_39_);}
	.st69{fill-rule:evenodd;clip-rule:evenodd;fill:url(#SVGID_40_);}
	.st70{fill-rule:evenodd;clip-rule:evenodd;fill:url(#SVGID_41_);}
	.st71{fill-rule:evenodd;clip-rule:evenodd;fill:url(#SVGID_42_);}
	.st72{fill-rule:evenodd;clip-rule:evenodd;fill:url(#SVGID_43_);}
	.st73{fill-rule:evenodd;clip-rule:evenodd;fill:url(#SVGID_44_);}
	.st74{fill-rule:evenodd;clip-rule:evenodd;fill:url(#SVGID_45_);}
	.st75{fill-rule:evenodd;clip-rule:evenodd;fill:url(#SVGID_46_);}
	.st76{fill-rule:evenodd;clip-rule:evenodd;fill:url(#SVGID_47_);}
	.st77{fill-rule:evenodd;clip-rule:evenodd;fill:url(#SVGID_48_);}
	.st78{fill-rule:evenodd;clip-rule:evenodd;fill:url(#SVGID_49_);}
	.st79{fill-rule:evenodd;clip-rule:evenodd;fill:url(#SVGID_50_);}
	.st80{fill-rule:evenodd;clip-rule:evenodd;fill:url(#SVGID_51_);}
	.st81{fill-rule:evenodd;clip-rule:evenodd;fill:url(#SVGID_52_);}
	.st82{fill-rule:evenodd;clip-rule:evenodd;fill:url(#SVGID_53_);}
	.st83{fill-rule:evenodd;clip-rule:evenodd;fill:url(#SVGID_54_);}
	.st84{fill-rule:evenodd;clip-rule:evenodd;fill:url(#SVGID_55_);}
	.st85{fill-rule:evenodd;clip-rule:evenodd;fill:url(#SVGID_56_);}
	.st86{fill-rule:evenodd;clip-rule:evenodd;fill:#D0B8A0;}
	.st87{fill-rule:evenodd;clip-rule:evenodd;fill:url(#SVGID_57_);}
	.st88{fill-rule:evenodd;clip-rule:evenodd;fill:url(#SVGID_58_);}
	.st89{fill-rule:evenodd;clip-rule:evenodd;fill:#EADCD4;}
	.st90{fill-rule:evenodd;clip-rule:evenodd;fill:#F1E9E4;}
	.st91{fill-rule:evenodd;clip-rule:evenodd;fill:#BC9D96;}
	.st92{fill-rule:evenodd;clip-rule:evenodd;fill:url(#SVGID_59_);}
	.st93{fill-rule:evenodd;clip-rule:evenodd;fill:url(#SVGID_60_);}
	.st94{fill-rule:evenodd;clip-rule:evenodd;fill:#F4EFEC;}
	.st95{fill-rule:evenodd;clip-rule:evenodd;fill:#FDFBF6;}
	.st96{fill-rule:evenodd;clip-rule:evenodd;fill:url(#SVGID_61_);}
	.st97{fill-rule:evenodd;clip-rule:evenodd;fill:url(#SVGID_62_);}
	.st98{fill-rule:evenodd;clip-rule:evenodd;fill:url(#SVGID_63_);}
	.st99{fill-rule:evenodd;clip-rule:evenodd;fill:url(#SVGID_64_);}
	.st100{fill-rule:evenodd;clip-rule:evenodd;fill:url(#SVGID_65_);}
	.st101{fill-rule:evenodd;clip-rule:evenodd;fill:#EFE1CD;}
	.st102{fill-rule:evenodd;clip-rule:evenodd;fill:url(#SVGID_66_);}
</style>
<g>
	<linearGradient id="SVGID_1_" gradientUnits="userSpaceOnUse" x1="46.3242" y1="76.9349" x2="35.765" y2="57.076">
		<stop  offset="0" style="stop-color:#CC9671"/>
		<stop  offset="1" style="stop-color:#DFB18C"/>
	</linearGradient>
	<polygon class="st0" points="84.46,85.58 8.66,129.35 8.66,69.18 84.46,25.41 	"/>
	<polygon class="st1" points="5.24,127.38 8.66,129.35 8.66,69.18 5.24,67.21 	"/>
	<polygon class="st2" points="81.05,23.44 84.46,25.41 8.66,69.18 5.24,67.21 	"/>
	<polygon class="st1" points="5.24,110.57 158.53,199.07 158.53,215.88 5.24,127.38 	"/>
	<polygon class="st2" points="8.66,112.54 158.53,199.07 234.34,155.3 84.46,68.77 11.87,111.34 	"/>
	<linearGradient id="SVGID_2_" gradientUnits="userSpaceOnUse" x1="150.3573" y1="189.7649" x2="150.5404" y2="192.3834">
		<stop  offset="0" style="stop-color:#D7A381"/>
		<stop  offset="1" style="stop-color:#DFB18C"/>
	</linearGradient>
	<polygon class="st3" points="148.46,192.29 153.69,192.29 153.69,187.84 147.37,187.84 147.37,192.29 147.08,192.46 147.62,192.77 
			"/>
	<linearGradient id="SVGID_3_" gradientUnits="userSpaceOnUse" x1="18.093" y1="97.9982" x2="23.3649" y2="107.5091">
		<stop  offset="0" style="stop-color:#CC9671"/>
		<stop  offset="1" style="stop-color:#DFB18C"/>
	</linearGradient>
	<polygon class="st4" points="25.85,103.14 16.6,108.56 16.6,115.78 32.29,115.78 32.29,103.14 	"/>
	<linearGradient id="SVGID_4_" gradientUnits="userSpaceOnUse" x1="160.9799" y1="191.2193" x2="167.7867" y2="203.4992">
		<stop  offset="0" style="stop-color:#D7A381"/>
		<stop  offset="1" style="stop-color:#DFB18C"/>
	</linearGradient>
	<polygon class="st5" points="164.53,195.61 225.64,164.11 234.34,155.3 95.07,74.9 94.27,74.9 26.1,114.25 26.1,116.15 
		160.18,195.61 	"/>
	<linearGradient id="SVGID_5_" gradientUnits="userSpaceOnUse" x1="12.2674" y1="111.7891" x2="11.4141" y2="118.7385">
		<stop  offset="0" style="stop-color:#CC9671"/>
		<stop  offset="1" style="stop-color:#DFB18C"/>
	</linearGradient>
	<polygon class="st6" points="15.69,108.48 8.66,112.54 15.69,112.54 	"/>
	<polygon class="st7" points="9.82,68.51 9.82,69.85 11.57,68 11.57,67.5 	"/>
	<linearGradient id="SVGID_6_" gradientUnits="userSpaceOnUse" x1="199.1886" y1="190.557" x2="178.2593" y2="152.7995">
		<stop  offset="0" style="stop-color:#D7A381"/>
		<stop  offset="1" style="stop-color:#DFB18C"/>
	</linearGradient>
	<polygon class="st8" points="234.34,155.3 158.53,199.07 158.53,215.88 234.34,172.11 	"/>
	<polygon class="st9" points="9.82,69.85 14.28,72.42 14.28,115.78 9.82,113.21 	"/>
	<linearGradient id="SVGID_7_" gradientUnits="userSpaceOnUse" x1="0.8452" y1="94.1043" x2="27.3595" y2="94.1043">
		<stop  offset="0" style="stop-color:#AE8A91"/>
		<stop  offset="1" style="stop-color:#9E7880"/>
	</linearGradient>
	<rect x="14.28" y="72.42" class="st10" width="2.33" height="43.36"/>
	<linearGradient id="SVGID_8_" gradientUnits="userSpaceOnUse" x1="66.9146" y1="103.3682" x2="37.5343" y2="37.3791">
		<stop  offset="0" style="stop-color:#7F5467"/>
		<stop  offset="1" style="stop-color:#AE8A91"/>
	</linearGradient>
	<polygon class="st11" points="16.6,72.42 90.09,30 90.09,73.36 16.6,115.78 	"/>
	<g>
		<linearGradient id="SVGID_9_" gradientUnits="userSpaceOnUse" x1="61.9288" y1="104.8029" x2="33.132" y2="40.1242">
			<stop  offset="0" style="stop-color:#7F5467"/>
			<stop  offset="1" style="stop-color:#AE8A91"/>
		</linearGradient>
		<path class="st12" d="M90.09,55.26v18.1L16.6,115.78v-0.55c0.01-2.46,0.02-19.3,1.1-22.27c1.08-2.97,1.53-6.72,3.26-9.02
			c1.73-2.3,4.9-4.42,10.27-7.39c5.37-2.98,38.83-21.36,43.94-24.31c5.12-2.95,5.73-0.66,9.28-0.76
			C88.01,51.39,87.54,51.17,90.09,55.26z"/>
		<linearGradient id="SVGID_10_" gradientUnits="userSpaceOnUse" x1="61.8914" y1="104.7249" x2="33.3573" y2="40.6361">
			<stop  offset="0" style="stop-color:#805568"/>
			<stop  offset="1" style="stop-color:#AC8890"/>
		</linearGradient>
		<path class="st13" d="M90.09,55.51c-0.01,0.26-0.02,17.75-0.03,18.01c-1.13,0.61-72.24,41.62-73.37,42.22c0-0.01,0-0.54,0-0.55
			c0.01-2.46-0.01-18.98,1.07-21.95c1.08-2.97,1.78-6.66,3.51-8.96c1.73-2.3,4.74-4.46,10.12-7.43
			c5.37-2.97,38.69-21.31,43.81-24.27c5.12-2.95,5.65-0.58,9.2-0.68C87.94,51.8,87.53,51.46,90.09,55.51z"/>
		<linearGradient id="SVGID_11_" gradientUnits="userSpaceOnUse" x1="61.8541" y1="104.6468" x2="33.5825" y2="41.1479">
			<stop  offset="0" style="stop-color:#805668"/>
			<stop  offset="1" style="stop-color:#AB868E"/>
		</linearGradient>
		<path class="st14" d="M90.09,55.75c-0.02,0.52-0.03,17.41-0.05,17.92c-2.26,1.21-71.01,40.81-73.27,42.02c0-0.02,0-0.53,0-0.55
			c0.01-2.46-0.04-18.67,1.04-21.64c1.08-2.97,2.03-6.6,3.76-8.9c1.73-2.3,4.59-4.5,9.96-7.48c5.37-2.97,38.55-21.27,43.67-24.22
			c5.12-2.95,5.56-0.5,9.12-0.6C87.86,52.2,87.53,51.75,90.09,55.75z"/>
		<linearGradient id="SVGID_12_" gradientUnits="userSpaceOnUse" x1="61.8167" y1="104.5688" x2="33.8078" y2="41.6597">
			<stop  offset="0" style="stop-color:#815669"/>
			<stop  offset="1" style="stop-color:#A9858D"/>
		</linearGradient>
		<path class="st15" d="M90.09,55.99c-0.03,0.77-0.05,17.06-0.08,17.83c-3.39,1.82-69.77,40-73.16,41.82c0-0.03,0-0.52,0-0.55
			c0.01-2.46-0.07-18.36,1.01-21.33c1.08-2.97,2.27-6.54,4-8.84s4.43-4.54,9.81-7.52c5.37-2.97,38.42-21.22,43.53-24.18
			c5.12-2.95,5.48-0.42,9.03-0.52C87.78,52.61,87.52,52.03,90.09,55.99z"/>
		<linearGradient id="SVGID_13_" gradientUnits="userSpaceOnUse" x1="61.7794" y1="104.4908" x2="34.033" y2="42.1714">
			<stop  offset="0" style="stop-color:#825769"/>
			<stop  offset="1" style="stop-color:#A8838B"/>
		</linearGradient>
		<path class="st16" d="M90.09,56.23c-0.03,1.03-0.07,16.71-0.1,17.75c-4.52,2.43-68.53,39.19-73.05,41.62c0-0.03,0-0.51,0-0.55
			c0.01-2.46-0.11-18.05,0.97-21.01c1.08-2.97,2.52-6.48,4.25-8.78c1.73-2.3,4.28-4.59,9.66-7.56c5.37-2.98,38.28-21.18,43.4-24.13
			c5.12-2.95,5.4-0.34,8.95-0.44C87.7,53.02,87.52,52.32,90.09,56.23z"/>
		<linearGradient id="SVGID_14_" gradientUnits="userSpaceOnUse" x1="61.742" y1="104.4128" x2="34.2582" y2="42.6831">
			<stop  offset="0" style="stop-color:#82586A"/>
			<stop  offset="1" style="stop-color:#A6818A"/>
		</linearGradient>
		<path class="st17" d="M90.09,56.47c-0.04,1.29-0.09,16.37-0.13,17.66c-5.65,3.03-67.29,38.39-72.94,41.42c0-0.04,0-0.51,0-0.55
			c0.01-2.46-0.14-17.73,0.94-20.7c1.08-2.97,2.77-6.42,4.5-8.72c1.73-2.3,4.13-4.63,9.5-7.6C37.32,75,70.09,56.84,75.21,53.88
			c5.12-2.95,5.31-0.27,8.87-0.36C87.63,53.43,87.51,52.61,90.09,56.47z"/>
		<linearGradient id="SVGID_15_" gradientUnits="userSpaceOnUse" x1="61.7047" y1="104.3347" x2="34.4834" y2="43.1948">
			<stop  offset="0" style="stop-color:#83596A"/>
			<stop  offset="1" style="stop-color:#A57F88"/>
		</linearGradient>
		<path class="st18" d="M90.09,56.71c-0.05,1.55-0.1,16.02-0.16,17.57c-6.78,3.64-66.05,37.58-72.84,41.22c0-0.05,0-0.5,0-0.55
			c0.01-2.46-0.17-17.42,0.91-20.39c1.08-2.97,3.01-6.36,4.74-8.66c1.73-2.3,3.97-4.67,9.35-7.65c5.37-2.98,38.01-21.09,43.12-24.04
			c5.12-2.95,5.23-0.19,8.78-0.28C87.55,53.83,87.5,52.9,90.09,56.71z"/>
		<linearGradient id="SVGID_16_" gradientUnits="userSpaceOnUse" x1="61.6673" y1="104.2567" x2="34.7086" y2="43.7063">
			<stop  offset="0" style="stop-color:#845A6B"/>
			<stop  offset="1" style="stop-color:#A37E87"/>
		</linearGradient>
		<path class="st19" d="M90.09,56.96c-0.06,1.81-0.12,15.68-0.18,17.48c-7.91,4.24-64.82,36.77-72.73,41.02c0-0.06,0-0.49,0-0.55
			c0.01-2.46-0.2-17.11,0.88-20.08c1.08-2.97,3.26-6.3,4.99-8.6c1.73-2.3,3.82-4.72,9.2-7.69c5.37-2.98,37.87-21.04,42.99-24
			c5.12-2.95,5.15-0.11,8.7-0.2C87.47,54.24,87.5,53.18,90.09,56.96z"/>
		<linearGradient id="SVGID_17_" gradientUnits="userSpaceOnUse" x1="61.63" y1="104.1787" x2="34.9337" y2="44.2179">
			<stop  offset="0" style="stop-color:#845A6C"/>
			<stop  offset="1" style="stop-color:#A17C86"/>
		</linearGradient>
		<path class="st20" d="M90.09,57.2c-0.07,2.06-0.14,15.33-0.21,17.4c-9.04,4.85-63.58,35.96-72.62,40.81c0-0.07,0-0.48,0-0.55
			c0.01-2.46-0.23-16.79,0.84-19.76c1.08-2.97,3.51-6.24,5.24-8.54s3.67-4.76,9.04-7.73c5.37-2.98,37.73-21,42.85-23.95
			c5.12-2.95,5.06-0.03,8.61-0.12C87.39,54.65,87.49,53.47,90.09,57.2z"/>
		<linearGradient id="SVGID_18_" gradientUnits="userSpaceOnUse" x1="61.5927" y1="104.1007" x2="35.1588" y2="44.7294">
			<stop  offset="0" style="stop-color:#855B6C"/>
			<stop  offset="1" style="stop-color:#A07A84"/>
		</linearGradient>
		<path class="st21" d="M90.09,57.44c-0.08,2.32-0.16,14.99-0.24,17.31c-10.17,5.46-62.34,35.16-72.51,40.61c0-0.08,0-0.47,0-0.55
			c0.01-2.46-0.27-16.48,0.81-19.45c1.08-2.97,3.75-6.18,5.48-8.48c1.73-2.3,3.51-4.8,8.89-7.78c5.37-2.98,37.6-20.95,42.71-23.91
			c5.12-2.95,4.98,0.05,8.53-0.04C87.32,55.05,87.49,53.76,90.09,57.44z"/>
		<linearGradient id="SVGID_19_" gradientUnits="userSpaceOnUse" x1="61.5553" y1="104.0228" x2="35.3839" y2="45.2408">
			<stop  offset="0" style="stop-color:#865C6D"/>
			<stop  offset="1" style="stop-color:#9E7883"/>
		</linearGradient>
		<path class="st22" d="M90.09,57.68C90,60.26,89.91,72.32,89.82,74.9c-11.31,6.06-61.1,34.35-72.41,40.41c0-0.09,0-0.46,0-0.55
			c0.01-2.46-0.3-16.17,0.78-19.14c1.08-2.97,4-6.12,5.73-8.42c1.73-2.3,3.36-4.84,8.73-7.82c5.37-2.98,37.46-20.91,42.58-23.86
			c5.12-2.95,4.9,0.13,8.45,0.04C87.24,55.46,87.48,54.05,90.09,57.68z"/>
		<linearGradient id="SVGID_20_" gradientUnits="userSpaceOnUse" x1="61.518" y1="103.9448" x2="35.609" y2="45.7523">
			<stop  offset="0" style="stop-color:#865D6D"/>
			<stop  offset="1" style="stop-color:#9D7781"/>
		</linearGradient>
		<path class="st23" d="M90.09,57.92c-0.1,2.84-0.19,14.29-0.29,17.13c-12.44,6.67-59.86,33.54-72.3,40.21c0-0.1,0-0.45,0-0.55
			c0.01-2.46-0.33-15.86,0.75-18.83c1.08-2.97,4.25-6.06,5.98-8.36c1.73-2.3,3.21-4.89,8.58-7.86c5.37-2.98,37.32-20.86,42.44-23.82
			c5.12-2.95,4.81,0.21,8.36,0.11C87.16,55.87,87.47,54.33,90.09,57.92z"/>
		<linearGradient id="SVGID_21_" gradientUnits="userSpaceOnUse" x1="61.4807" y1="103.8668" x2="35.8341" y2="46.2636">
			<stop  offset="0" style="stop-color:#875E6E"/>
			<stop  offset="1" style="stop-color:#9B7580"/>
		</linearGradient>
		<path class="st24" d="M90.09,58.17c-0.1,3.1-0.21,13.95-0.31,17.05c-13.57,7.28-58.62,32.73-72.19,40.01c0-0.1,0-0.44,0-0.55
			c0.01-2.46-0.36-15.54,0.72-18.51c1.08-2.97,4.49-6,6.22-8.31c1.73-2.3,3.05-4.93,8.43-7.9c5.37-2.97,37.19-20.82,42.3-23.77
			c5.12-2.95,4.73,0.29,8.28,0.19C87.08,56.28,87.47,54.62,90.09,58.17z"/>
		<linearGradient id="SVGID_22_" gradientUnits="userSpaceOnUse" x1="61.4433" y1="103.7888" x2="36.0591" y2="46.775">
			<stop  offset="0" style="stop-color:#885F6E"/>
			<stop  offset="1" style="stop-color:#9A737E"/>
		</linearGradient>
		<path class="st25" d="M90.09,58.41c-0.11,3.35-0.23,13.6-0.34,16.96c-14.7,7.88-57.39,31.93-72.08,39.81c0-0.11,0-0.44,0-0.55
			c0.01-2.46-0.4-15.23,0.68-18.2c1.08-2.97,4.74-5.94,6.47-8.25c1.73-2.3,2.9-4.97,8.27-7.95c5.37-2.97,37.05-20.77,42.17-23.72
			c5.12-2.95,4.65,0.37,8.2,0.27C87.01,56.68,87.46,54.91,90.09,58.41z"/>
		<linearGradient id="SVGID_23_" gradientUnits="userSpaceOnUse" x1="61.406" y1="103.7109" x2="36.2842" y2="47.2863">
			<stop  offset="0" style="stop-color:#885F6F"/>
			<stop  offset="1" style="stop-color:#98717D"/>
		</linearGradient>
		<path class="st26" d="M90.09,58.65c-0.12,3.61-0.24,13.26-0.37,16.87c-15.83,8.49-56.15,31.12-71.98,39.61c0-0.12,0-0.43,0-0.55
			c0.01-2.46-0.43-14.92,0.65-17.89c1.08-2.97,4.99-5.88,6.72-8.19s2.75-5.02,8.12-7.99c5.37-2.97,36.91-20.72,42.03-23.68
			c5.12-2.95,4.56,0.45,8.11,0.35C86.93,57.09,87.46,55.2,90.09,58.65z"/>
		<linearGradient id="SVGID_24_" gradientUnits="userSpaceOnUse" x1="61.3687" y1="103.6329" x2="36.5092" y2="47.7975">
			<stop  offset="0" style="stop-color:#896070"/>
			<stop  offset="1" style="stop-color:#96707C"/>
		</linearGradient>
		<path class="st27" d="M90.09,58.89c-0.13,3.87-0.26,12.91-0.39,16.78c-16.96,9.09-54.91,30.31-71.87,39.41c0-0.13,0-0.42,0-0.55
			c0.01-2.46-0.46-14.61,0.62-17.58c1.08-2.97,5.23-5.82,6.96-8.13c1.73-2.3,2.59-5.06,7.97-8.03c5.37-2.97,36.78-20.68,41.89-23.63
			c5.12-2.95,4.48,0.53,8.03,0.43C86.85,57.5,87.45,55.48,90.09,58.89z"/>
		<linearGradient id="SVGID_25_" gradientUnits="userSpaceOnUse" x1="61.3314" y1="103.5549" x2="36.7342" y2="48.3088">
			<stop  offset="0" style="stop-color:#8A6170"/>
			<stop  offset="1" style="stop-color:#956E7A"/>
		</linearGradient>
		<path class="st28" d="M90.09,59.13c-0.14,4.13-0.28,12.57-0.42,16.69c-18.09,9.7-53.67,29.5-71.76,39.2c0-0.14,0-0.41,0-0.55
			c0.01-2.46-0.49-14.29,0.59-17.26c1.08-2.97,5.48-5.76,7.21-8.07c1.73-2.3,2.44-5.1,7.81-8.08c5.37-2.98,36.64-20.63,41.76-23.59
			c5.12-2.95,4.4,0.61,7.95,0.51C86.77,57.9,87.44,55.77,90.09,59.13z"/>
		<linearGradient id="SVGID_26_" gradientUnits="userSpaceOnUse" x1="61.2941" y1="103.477" x2="36.9592" y2="48.82">
			<stop  offset="0" style="stop-color:#8A6271"/>
			<stop  offset="1" style="stop-color:#936C79"/>
		</linearGradient>
		<path class="st29" d="M90.09,59.37c-0.15,4.39-0.3,12.22-0.45,16.61c-19.22,10.31-52.43,28.7-71.65,39c0-0.15,0-0.4,0-0.55
			c0.01-2.46-0.52-13.98,0.56-16.95c1.08-2.97,5.73-5.7,7.46-8.01s2.29-5.14,7.66-8.12c5.37-2.98,36.5-20.59,41.62-23.54
			c5.12-2.95,4.31,0.69,7.86,0.59C86.7,58.31,87.44,56.06,90.09,59.37z"/>
		<linearGradient id="SVGID_27_" gradientUnits="userSpaceOnUse" x1="61.2567" y1="103.399" x2="37.1842" y2="49.3311">
			<stop  offset="0" style="stop-color:#8B6371"/>
			<stop  offset="1" style="stop-color:#926A77"/>
		</linearGradient>
		<path class="st30" d="M90.09,59.62c-0.16,4.64-0.31,11.87-0.47,16.52c-20.35,10.91-51.2,27.89-71.55,38.8c0-0.16,0-0.39,0-0.55
			c0.01-2.46-0.56-13.67,0.52-16.64c1.08-2.97,5.97-5.64,7.7-7.95c1.73-2.3,2.13-5.19,7.51-8.16c5.37-2.98,36.37-20.54,41.48-23.5
			c5.12-2.95,4.23,0.76,7.78,0.67C86.62,58.72,87.43,56.35,90.09,59.62z"/>
		<linearGradient id="SVGID_28_" gradientUnits="userSpaceOnUse" x1="61.2194" y1="103.3211" x2="37.4091" y2="49.8423">
			<stop  offset="0" style="stop-color:#8C6372"/>
			<stop  offset="1" style="stop-color:#906976"/>
		</linearGradient>
		<path class="st31" d="M90.09,59.86c-0.17,4.9-0.33,11.53-0.5,16.43c-21.48,11.52-49.96,27.08-71.44,38.6c0-0.17,0-0.38,0-0.55
			c0.01-2.46-0.59-13.36,0.49-16.32c1.08-2.97,6.22-5.58,7.95-7.89s1.98-5.23,7.35-8.2c5.37-2.98,36.23-20.5,41.35-23.45
			c5.12-2.95,4.15,0.84,7.7,0.75C86.54,59.13,87.42,56.63,90.09,59.86z"/>
		<linearGradient id="SVGID_29_" gradientUnits="userSpaceOnUse" x1="61.1821" y1="103.2431" x2="37.6341" y2="50.3534">
			<stop  offset="0" style="stop-color:#8C6472"/>
			<stop  offset="1" style="stop-color:#8F6774"/>
		</linearGradient>
		<path class="st32" d="M90.09,60.1c-0.17,5.16-0.35,11.18-0.52,16.34c-22.61,12.13-48.72,26.27-71.33,38.4c0-0.17,0-0.37,0-0.55
			c0.01-2.46-0.62-13.04,0.46-16.01c1.08-2.97,6.47-5.52,8.2-7.83c1.73-2.3,1.83-5.27,7.2-8.25c5.37-2.98,36.09-20.45,41.21-23.41
			c5.12-2.95,4.06,0.92,7.61,0.83C86.46,59.53,87.42,56.92,90.09,60.1z"/>
		<path class="st33" d="M90.09,60.34c-0.18,5.42-0.37,10.84-0.55,16.26c-23.74,12.73-47.48,25.47-71.22,38.2c0-0.18,0-0.37,0-0.55
			c0.01-2.46-0.65-12.73,0.43-15.7c1.08-2.97,6.71-5.46,8.44-7.77c1.73-2.3,1.67-5.32,7.05-8.29c5.37-2.98,35.96-20.41,41.07-23.36
			c5.12-2.95,3.98,1,7.53,0.91C86.39,59.94,87.41,57.21,90.09,60.34z"/>
		<path class="st34" d="M90.09,60.46c-0.17,5.16-0.39,11.05-0.56,16.21c-22.61,12.13-48.56,25.97-71.17,38.1c0-0.17,0-0.37,0-0.55
			c0.01-2.46-0.67-12.57,0.41-15.54c1.08-2.97,6.84-5.43,8.57-7.74s1.6-5.34,6.97-8.31s35.89-20.38,41.01-23.34
			c5.12-2.95,3.94,1.04,7.49,0.95C86.35,60.14,87.41,57.35,90.09,60.46z"/>
		<path class="st34" d="M90.09,60.58c-0.17,4.9-0.41,11.27-0.58,16.17c-21.48,11.52-49.64,26.48-71.11,38c0-0.17,0-0.38,0-0.55
			c0.01-2.46-0.68-12.42,0.4-15.39c1.08-2.97,6.96-5.4,8.69-7.71c1.73-2.3,1.52-5.36,6.89-8.33c5.37-2.97,35.82-20.36,40.94-23.32
			c5.12-2.95,3.89,1.08,7.45,0.99C86.31,60.35,87.41,57.5,90.09,60.58z"/>
		<path class="st35" d="M90.09,60.7c-0.16,4.64-0.43,11.48-0.59,16.13c-20.35,10.91-50.71,26.98-71.06,37.9c0-0.16,0-0.39,0-0.55
			c0.01-2.46-0.7-12.26,0.38-15.23c1.08-2.97,7.08-5.38,8.81-7.68c1.73-2.3,1.44-5.38,6.82-8.35c5.37-2.97,35.75-20.34,40.87-23.29
			c5.12-2.95,3.85,1.12,7.4,1.03C86.27,60.55,87.4,57.64,90.09,60.7z"/>
		<path class="st36" d="M90.09,60.83c-0.15,4.39-0.45,11.69-0.6,16.08C70.27,87.21,37.7,104.4,18.48,114.7c0-0.15,0-0.4,0-0.55
			c0.01-2.46-0.72-12.11,0.36-15.07c1.08-2.97,7.21-5.35,8.93-7.65c1.73-2.3,1.37-5.4,6.74-8.38c5.37-2.98,35.68-20.32,40.8-23.27
			c5.12-2.95,3.81,1.16,7.36,1.07C86.23,60.75,87.4,57.78,90.09,60.83z"/>
		<path class="st37" d="M90.09,60.95c-0.14,4.13-0.48,11.91-0.62,16.04c-18.09,9.7-52.87,27.99-70.95,37.7c0-0.14,0-0.41,0-0.55
			c0.01-2.46-0.73-11.95,0.35-14.92c1.08-2.97,7.33-5.32,9.06-7.62c1.73-2.3,1.29-5.42,6.66-8.4S70.2,62.9,75.32,59.95
			c5.12-2.95,3.77,1.2,7.32,1.1C86.19,60.96,87.4,57.93,90.09,60.95z"/>
		<path class="st38" d="M90.09,61.07c-0.13,3.87-0.5,12.12-0.63,15.99c-16.96,9.09-53.94,28.5-70.9,37.59c0-0.13,0-0.42,0-0.55
			c0.01-2.46-0.75-11.79,0.33-14.76c1.08-2.97,7.45-5.29,9.18-7.59c1.73-2.3,1.21-5.44,6.59-8.42s35.55-20.27,40.66-23.23
			c5.12-2.95,3.73,1.24,7.28,1.14C86.15,61.16,87.39,58.07,90.09,61.07z"/>
		<path class="st39" d="M90.09,61.19c-0.12,3.61-0.52,12.34-0.64,15.95c-15.83,8.49-55.02,29.01-70.85,37.49c0-0.12,0-0.43,0-0.55
			c0.01-2.46-0.76-11.64,0.32-14.61c1.08-2.97,7.58-5.26,9.3-7.56c1.73-2.3,1.14-5.47,6.51-8.44c5.37-2.97,35.48-20.25,40.6-23.2
			c5.12-2.95,3.69,1.28,7.24,1.18C86.11,61.36,87.39,58.22,90.09,61.19z"/>
		<path class="st40" d="M90.09,61.31c-0.11,3.35-0.54,12.55-0.65,15.91c-14.7,7.88-56.1,29.51-70.79,37.39c0-0.11,0-0.44,0-0.55
			c0.01-2.46-0.78-11.48,0.3-14.45c1.08-2.97,7.7-5.23,9.43-7.53c1.73-2.3,1.06-5.49,6.43-8.46c5.37-2.98,35.41-20.23,40.53-23.18
			c5.12-2.95,3.64,1.32,7.2,1.22C86.07,61.57,87.39,58.36,90.09,61.31z"/>
		<path class="st41" d="M90.09,61.43c-0.1,3.1-0.56,12.77-0.67,15.86c-13.57,7.28-57.17,30.02-70.74,37.29c0-0.1,0-0.44,0-0.55
			c0.01-2.46-0.8-11.32,0.28-14.29c1.08-2.97,7.82-5.2,9.55-7.5c1.73-2.3,0.98-5.51,6.36-8.48c5.37-2.98,35.34-20.2,40.46-23.16
			c5.12-2.95,3.6,1.36,7.15,1.26C86.04,61.77,87.38,58.5,90.09,61.43z"/>
		<path class="st42" d="M90.09,61.55c-0.1,2.84-0.58,12.98-0.68,15.82c-12.44,6.67-58.25,30.52-70.68,37.19c0-0.1,0-0.45,0-0.55
			c0.01-2.46-0.81-11.17,0.27-14.14c1.08-2.97,7.95-5.17,9.67-7.47c1.73-2.3,0.91-5.53,6.28-8.5c5.37-2.98,35.27-20.18,40.39-23.13
			c5.12-2.95,3.56,1.4,7.11,1.3C86,61.97,87.38,58.65,90.09,61.55z"/>
		<path class="st43" d="M90.09,61.67c-0.09,2.58-0.61,13.19-0.69,15.77c-11.31,6.06-59.33,31.03-70.63,37.09c0-0.09,0-0.46,0-0.55
			c0.01-2.46-0.83-11.01,0.25-13.98c1.08-2.97,8.07-5.14,9.8-7.44c1.73-2.3,0.83-5.55,6.2-8.53c5.37-2.97,35.2-20.16,40.32-23.11
			c5.12-2.95,3.52,1.44,7.07,1.34C85.96,62.18,87.38,58.79,90.09,61.67z"/>
		<path class="st44" d="M90.09,61.79c-0.08,2.32-0.63,13.41-0.71,15.73c-10.17,5.46-60.4,31.53-70.58,36.99c0-0.08,0-0.47,0-0.55
			c0.01-2.46-0.84-10.85,0.24-13.82c1.08-2.97,8.19-5.11,9.92-7.41c1.73-2.3,0.75-5.57,6.13-8.55c5.37-2.98,35.14-20.13,40.25-23.09
			c5.12-2.95,3.48,1.48,7.03,1.38C85.92,62.38,87.38,58.93,90.09,61.79z"/>
		<path class="st45" d="M90.09,61.91c-0.07,2.06-0.65,13.62-0.72,15.69c-9.04,4.85-61.48,32.04-70.52,36.89c0-0.07,0-0.48,0-0.55
			c0.01-2.46-0.86-10.7,0.22-13.67c1.08-2.97,8.32-5.08,10.04-7.38c1.73-2.3,0.68-5.59,6.05-8.57c5.37-2.98,35.07-20.11,40.18-23.07
			c5.12-2.95,3.44,1.52,6.99,1.42C85.88,62.59,87.37,59.08,90.09,61.91z"/>
		<path class="st46" d="M90.09,62.04c-0.06,1.81-0.67,13.84-0.73,15.64c-7.91,4.24-62.56,32.55-70.47,36.79c0-0.06,0-0.49,0-0.55
			c0.01-2.46-0.88-10.54,0.2-13.51c1.08-2.97,8.44-5.05,10.17-7.35c1.73-2.3,0.6-5.62,5.97-8.59c5.37-2.98,35-20.09,40.12-23.04
			c5.12-2.95,3.39,1.56,6.94,1.46C85.84,62.79,87.37,59.22,90.09,62.04z"/>
		<path class="st47" d="M90.09,62.16c-0.05,1.55-0.69,14.05-0.75,15.6c-6.78,3.64-63.63,33.05-70.42,36.69c0-0.05,0-0.5,0-0.55
			c0.01-2.46-0.89-10.39,0.19-13.36c1.08-2.97,8.56-5.02,10.29-7.32c1.73-2.3,0.52-5.64,5.9-8.61c5.37-2.97,34.93-20.07,40.05-23.02
			c5.12-2.95,3.35,1.6,6.9,1.5C85.8,62.99,87.37,59.37,90.09,62.16z"/>
		<path class="st48" d="M90.09,62.28c-0.04,1.29-0.72,14.27-0.76,15.56c-5.65,3.03-64.71,33.56-70.36,36.59c0-0.04,0-0.51,0-0.55
			c0.01-2.46-0.91-10.23,0.17-13.2c1.08-2.97,8.69-4.99,10.41-7.29c1.73-2.3,0.45-5.66,5.82-8.63c5.37-2.98,34.86-20.04,39.98-23
			c5.12-2.95,3.31,1.64,6.86,1.54C85.76,63.2,87.36,59.51,90.09,62.28z"/>
		<path class="st49" d="M90.09,62.4c-0.03,1.03-0.74,14.48-0.77,15.51c-4.52,2.43-65.79,34.06-70.31,36.49c0-0.03,0-0.51,0-0.55
			c0.01-2.46-0.92-10.07,0.16-13.04c1.08-2.97,8.81-4.96,10.54-7.26c1.73-2.3,0.37-5.68,5.74-8.65
			c5.37-2.98,34.79-20.02,39.91-22.98c5.12-2.95,3.27,1.68,6.82,1.58C85.73,63.4,87.36,59.65,90.09,62.4z"/>
		<path class="st50" d="M90.09,62.52c-0.03,0.77-0.76,14.69-0.79,15.47c-3.39,1.82-66.86,34.57-70.25,36.39c0-0.03,0-0.52,0-0.55
			c0.01-2.46-0.94-9.92,0.14-12.89c1.08-2.97,8.93-4.93,10.66-7.23c1.73-2.3,0.29-5.7,5.67-8.68c5.37-2.98,34.73-20,39.84-22.95
			c5.12-2.95,3.23,1.71,6.78,1.62C85.69,63.6,87.36,59.8,90.09,62.52z"/>
		<path class="st51" d="M90.09,62.64c-0.02,0.52-0.78,14.91-0.8,15.42c-2.26,1.21-67.94,35.07-70.2,36.29c0-0.02,0-0.53,0-0.55
			c0.01-2.46-0.96-9.76,0.12-12.73c1.08-2.97,9.06-4.9,10.78-7.2c1.73-2.3,0.22-5.72,5.59-8.7c5.37-2.97,34.66-19.98,39.77-22.93
			c5.12-2.95,3.19,1.75,6.74,1.66C85.65,63.81,87.35,59.94,90.09,62.64z"/>
		<path class="st51" d="M90.09,62.76c-0.01,0.26-0.8,15.12-0.81,15.38c-1.13,0.61-69.02,35.58-70.15,36.19c0-0.01,0-0.54,0-0.55
			c0.01-2.46-0.97-9.6,0.11-12.57c1.08-2.97,9.18-4.87,10.91-7.17c1.73-2.3,0.14-5.74,5.51-8.72c5.37-2.98,34.59-19.95,39.71-22.91
			c5.12-2.95,3.14,1.79,6.69,1.7C85.61,64.01,87.35,60.08,90.09,62.76z"/>
		<path class="st52" d="M90.09,62.88l-0.82,15.34L19.17,114.3v-0.55c0.01-2.46-0.99-9.45,0.09-12.42c1.08-2.97,9.3-4.84,11.03-7.14
			c1.73-2.3,0.06-5.77,5.44-8.74c5.37-2.98,34.52-19.93,39.64-22.88c5.12-2.95,3.1,1.83,6.65,1.74
			C85.57,64.21,87.35,60.23,90.09,62.88z"/>
	</g>
	<polygon class="st53" points="84.9,27.1 84.03,27.1 11.57,68.94 11.57,69.44 15,71.41 15.87,71.41 88.33,29.58 88.33,29.08 	"/>
	<polygon class="st54" points="16.6,72.42 14.28,72.42 15,69.98 15.87,69.98 	"/>
	<polygon class="st54" points="16.6,72.42 90.09,30 88.33,28.14 62.86,40.57 15.87,69.98 	"/>
	<linearGradient id="SVGID_30_" gradientUnits="userSpaceOnUse" x1="128.0901" y1="54.9607" x2="94.0601" y2="32.0072">
		<stop  offset="0" style="stop-color:#7F5467"/>
		<stop  offset="1" style="stop-color:#AE8A91"/>
	</linearGradient>
	<polygon class="st55" points="90.09,28.66 90.09,30 88.33,28.14 88.33,27.64 	"/>
	<polygon class="st54" points="9.82,69.85 14.28,72.42 15,69.98 15.31,67.12 11.57,68 	"/>
	<polygon class="st54" points="9.82,68.51 9.82,69.85 11.57,68 11.57,67.5 	"/>
	<polygon class="st7" points="84.9,25.66 84.03,25.66 11.57,67.5 11.57,68 15,69.98 15.87,69.98 88.33,28.14 88.33,27.64 	"/>
	<polygon class="st56" points="90.72,61.21 228.34,140.67 228.34,142.57 160.18,181.93 156.89,181.93 19.26,102.47 19.26,100.57 
		25.09,99.03 87.43,61.21 	"/>
	<polygon class="st57" points="19.26,102.47 156.89,181.93 156.89,195.61 19.26,116.15 	"/>
	<linearGradient id="SVGID_31_" gradientUnits="userSpaceOnUse" x1="150.4629" y1="167.7466" x2="165.7587" y2="207.5936">
		<stop  offset="0" style="stop-color:#F1E1CD"/>
		<stop  offset="1" style="stop-color:#D2B59E"/>
	</linearGradient>
	<rect x="156.89" y="181.93" class="st58" width="3.29" height="13.68"/>
	<linearGradient id="SVGID_32_" gradientUnits="userSpaceOnUse" x1="182.6714" y1="149.0196" x2="198.7027" y2="176.7865">
		<stop  offset="0" style="stop-color:#F1E1CD"/>
		<stop  offset="1" style="stop-color:#D2B59E"/>
	</linearGradient>
	<polygon class="st59" points="160.18,181.93 228.34,142.57 228.34,156.25 160.18,195.61 	"/>
	<polygon class="st56" points="89.69,62.65 88.46,62.65 21.74,101.18 21.74,101.88 157.9,180.5 159.13,180.5 225.85,141.98 
		225.85,141.27 	"/>
	<polygon class="st57" points="160.18,181.93 156.89,181.93 157.9,178.46 159.13,178.46 	"/>
	<polygon class="st60" points="160.18,181.93 228.34,142.57 225.85,139.94 159.13,178.46 	"/>
	<polygon class="st61" points="228.34,140.67 228.34,142.57 225.85,139.94 225.85,139.23 	"/>
	<polygon class="st56" points="19.26,102.47 156.89,181.93 157.9,178.46 21.74,99.85 	"/>
	<polygon class="st56" points="19.26,102.1 19.26,102.47 21.74,99.85 21.74,99.14 	"/>
	<linearGradient id="SVGID_33_" gradientUnits="userSpaceOnUse" x1="21.0548" y1="102.0357" x2="19.5945" y2="98.2314">
		<stop  offset="0" style="stop-color:#EFE1CD"/>
		<stop  offset="1" style="stop-color:#D9C2AD"/>
	</linearGradient>
	<polygon class="st62" points="19.26,100.57 19.26,102.11 20.5,101.16 22.12,100.07 21.74,99.85 21.74,99.14 	"/>
	<linearGradient id="SVGID_34_" gradientUnits="userSpaceOnUse" x1="61.4977" y1="87.6357" x2="54.3332" y2="75.2265">
		<stop  offset="0" style="stop-color:#EFE1CD"/>
		<stop  offset="1" style="stop-color:#D9C2AD"/>
	</linearGradient>
	<polygon class="st63" points="89.69,60.62 88.46,60.62 21.74,99.14 21.74,99.85 22.12,100.07 30.43,100.07 94.22,63.24 	"/>
	<linearGradient id="SVGID_35_" gradientUnits="userSpaceOnUse" x1="67.992" y1="83.6605" x2="61.0236" y2="71.5909">
		<stop  offset="0" style="stop-color:#EFE1CD"/>
		<stop  offset="1" style="stop-color:#D9C2AD"/>
	</linearGradient>
	<polygon class="st64" points="84.7,66.23 104.84,77.86 104.84,79.2 58.44,106 56.44,106 54.12,106 33.97,94.37 33.97,93.02 
		80.38,66.23 	"/>
	<g>
		<linearGradient id="SVGID_36_" gradientUnits="userSpaceOnUse" x1="65.0403" y1="85.648" x2="57.8264" y2="73.1532">
			<stop  offset="0" style="stop-color:#EFE1CD"/>
			<stop  offset="1" style="stop-color:#D9C2AD"/>
		</linearGradient>
		<path class="st65" d="M27.87,95.6c0,0,4.07,2.96,6.43,4.33c2.36,1.36,15.96,4.16,17.74,5.19s6.02,0.88,10.3-1.59
			c4.28-2.47,39.57-22.85,39.57-22.85c2.12-1.36,1.9-2.79,0.78-3.91L84.1,63.11L27.87,95.6z"/>
		<linearGradient id="SVGID_37_" gradientUnits="userSpaceOnUse" x1="65.0737" y1="85.5566" x2="57.9051" y2="73.1401">
			<stop  offset="0" style="stop-color:#EEDFCB"/>
			<stop  offset="1" style="stop-color:#D9C2AC"/>
		</linearGradient>
		<path class="st66" d="M28.17,95.43c0,0,3.99,2.9,6.35,4.26c2.36,1.36,15.64,4.28,17.42,5.31c1.78,1.03,6.02,0.88,10.3-1.59
			c4.28-2.47,39.43-22.76,39.43-22.76c2.02-1.3,1.9-2.78,0.83-3.85L83.57,63.41L28.17,95.43z"/>
		<linearGradient id="SVGID_38_" gradientUnits="userSpaceOnUse" x1="65.1082" y1="85.4646" x2="57.9848" y2="73.1264">
			<stop  offset="0" style="stop-color:#ECDDC9"/>
			<stop  offset="1" style="stop-color:#D8C1AC"/>
		</linearGradient>
		<path class="st67" d="M28.47,95.25c0,0,3.9,2.84,6.26,4.2c2.36,1.36,15.32,4.39,17.1,5.42c1.78,1.03,6.02,0.88,10.3-1.59
			c4.28-2.47,39.3-22.67,39.3-22.67c1.92-1.23,1.89-2.78,0.88-3.79l-19.27-13.1L28.47,95.25z"/>
		<linearGradient id="SVGID_39_" gradientUnits="userSpaceOnUse" x1="65.1437" y1="85.3721" x2="58.0654" y2="73.1122">
			<stop  offset="0" style="stop-color:#EBDBC7"/>
			<stop  offset="1" style="stop-color:#D8C1AB"/>
		</linearGradient>
		<path class="st68" d="M28.77,95.08c0,0,3.82,2.77,6.18,4.13c2.36,1.36,14.99,4.51,16.78,5.53c1.78,1.03,6.02,0.88,10.3-1.59
			c4.28-2.47,39.16-22.58,39.16-22.58c1.82-1.17,1.89-2.77,0.93-3.73l-19.6-12.82L28.77,95.08z"/>
		<linearGradient id="SVGID_40_" gradientUnits="userSpaceOnUse" x1="65.1799" y1="85.279" x2="58.1469" y2="73.0975">
			<stop  offset="0" style="stop-color:#E9D9C4"/>
			<stop  offset="1" style="stop-color:#D7C0AB"/>
		</linearGradient>
		<path class="st69" d="M29.07,94.91c0,0,3.73,2.71,6.09,4.07c2.36,1.36,14.67,4.62,16.45,5.65c1.78,1.03,6.02,0.88,10.3-1.59
			c4.28-2.47,39.02-22.49,39.02-22.49c1.72-1.1,1.89-2.76,0.98-3.67L81.98,64.33L29.07,94.91z"/>
		<linearGradient id="SVGID_41_" gradientUnits="userSpaceOnUse" x1="65.217" y1="85.1856" x2="58.2291" y2="73.0823">
			<stop  offset="0" style="stop-color:#E8D7C2"/>
			<stop  offset="1" style="stop-color:#D7C0AA"/>
		</linearGradient>
		<path class="st70" d="M29.37,94.73c0,0,3.65,2.64,6.01,4.01c2.36,1.36,14.35,4.73,16.13,5.76c1.78,1.03,6.02,0.88,10.3-1.59
			c4.28-2.47,38.88-22.4,38.88-22.4c1.62-1.04,1.89-2.76,1.04-3.62L81.45,64.64L29.37,94.73z"/>
		<linearGradient id="SVGID_42_" gradientUnits="userSpaceOnUse" x1="65.2546" y1="85.0918" x2="58.312" y2="73.0668">
			<stop  offset="0" style="stop-color:#E6D5C0"/>
			<stop  offset="1" style="stop-color:#D6BFA9"/>
		</linearGradient>
		<path class="st71" d="M29.67,94.56c0,0,3.56,2.58,5.93,3.94c2.36,1.36,14.03,4.85,15.81,5.88c1.78,1.03,6.02,0.88,10.3-1.59
			c4.28-2.47,38.75-22.31,38.75-22.31c1.51-0.97,1.88-2.75,1.09-3.56L80.92,64.95L29.67,94.56z"/>
		<linearGradient id="SVGID_43_" gradientUnits="userSpaceOnUse" x1="65.2929" y1="84.9976" x2="58.3955" y2="73.0509">
			<stop  offset="0" style="stop-color:#E5D3BE"/>
			<stop  offset="1" style="stop-color:#D6BFA9"/>
		</linearGradient>
		<path class="st72" d="M29.97,94.39c0,0,3.48,2.51,5.84,3.88c2.36,1.36,13.71,4.96,15.49,5.99c1.78,1.03,6.02,0.88,10.3-1.59
			c4.28-2.47,38.61-22.22,38.61-22.22c1.41-0.91,1.88-2.75,1.14-3.5L80.39,65.25L29.97,94.39z"/>
		<linearGradient id="SVGID_44_" gradientUnits="userSpaceOnUse" x1="65.3316" y1="84.9032" x2="58.4794" y2="73.0347">
			<stop  offset="0" style="stop-color:#E3D1BC"/>
			<stop  offset="1" style="stop-color:#D6BEA8"/>
		</linearGradient>
		<path class="st73" d="M30.27,94.21c0,0,3.4,2.45,5.76,3.81c2.36,1.36,13.39,5.08,15.17,6.1c1.78,1.03,6.02,0.88,10.3-1.59
			c4.28-2.47,38.47-22.12,38.47-22.12c1.31-0.84,1.88-2.74,1.19-3.44l-21.3-11.41L30.27,94.21z"/>
		<linearGradient id="SVGID_45_" gradientUnits="userSpaceOnUse" x1="65.3708" y1="84.8085" x2="58.5638" y2="73.0183">
			<stop  offset="0" style="stop-color:#E2CFBA"/>
			<stop  offset="1" style="stop-color:#D5BEA7"/>
		</linearGradient>
		<path class="st74" d="M30.57,94.04c0,0,3.31,2.38,5.67,3.75c2.36,1.36,13.07,5.19,14.85,6.22c1.78,1.03,6.02,0.88,10.3-1.59
			c4.28-2.47,38.33-22.03,38.33-22.03c1.21-0.78,1.88-2.74,1.24-3.38L79.32,65.87L30.57,94.04z"/>
		<linearGradient id="SVGID_46_" gradientUnits="userSpaceOnUse" x1="65.4104" y1="84.7136" x2="58.6485" y2="73.0017">
			<stop  offset="0" style="stop-color:#E0CDB8"/>
			<stop  offset="1" style="stop-color:#D5BDA7"/>
		</linearGradient>
		<path class="st75" d="M30.87,93.86c0,0,3.23,2.32,5.59,3.68c2.36,1.36,12.75,5.3,14.53,6.33c1.78,1.03,6.02,0.88,10.3-1.59
			c4.28-2.47,38.2-21.94,38.2-21.94c1.11-0.71,1.88-2.73,1.29-3.32L78.79,66.17L30.87,93.86z"/>
		<linearGradient id="SVGID_47_" gradientUnits="userSpaceOnUse" x1="65.4502" y1="84.6185" x2="58.7336" y2="72.9849">
			<stop  offset="0" style="stop-color:#DFCCB5"/>
			<stop  offset="1" style="stop-color:#D4BDA6"/>
		</linearGradient>
		<path class="st76" d="M31.17,93.69c0,0,3.14,2.25,5.5,3.62c2.36,1.36,12.42,5.42,14.21,6.45c1.78,1.03,6.02,0.88,10.3-1.59
			c4.28-2.47,38.06-21.85,38.06-21.85c1.01-0.65,1.87-2.73,1.34-3.26L78.26,66.48L31.17,93.69z"/>
		<linearGradient id="SVGID_48_" gradientUnits="userSpaceOnUse" x1="65.4904" y1="84.5232" x2="58.819" y2="72.968">
			<stop  offset="0" style="stop-color:#DDCAB3"/>
			<stop  offset="1" style="stop-color:#D4BCA6"/>
		</linearGradient>
		<path class="st77" d="M31.47,93.52c0,0,3.06,2.19,5.42,3.55c2.36,1.36,12.1,5.53,13.88,6.56c1.78,1.03,6.02,0.88,10.3-1.59
			c4.28-2.47,37.92-21.76,37.92-21.76c0.91-0.58,1.87-2.72,1.39-3.2L77.73,66.79L31.47,93.52z"/>
		<linearGradient id="SVGID_49_" gradientUnits="userSpaceOnUse" x1="65.5308" y1="84.4278" x2="58.9046" y2="72.9509">
			<stop  offset="0" style="stop-color:#DCC8B1"/>
			<stop  offset="1" style="stop-color:#D3BCA5"/>
		</linearGradient>
		<path class="st78" d="M31.77,93.34c0,0,2.97,2.12,5.33,3.49c2.36,1.36,11.78,5.65,13.56,6.67c1.78,1.03,6.02,0.88,10.3-1.59
			c4.28-2.47,37.78-21.67,37.78-21.67c0.81-0.52,1.87-2.71,1.44-3.14l-22.99-10L31.77,93.34z"/>
		<linearGradient id="SVGID_50_" gradientUnits="userSpaceOnUse" x1="65.5714" y1="84.3323" x2="58.9904" y2="72.9336">
			<stop  offset="0" style="stop-color:#DAC6AF"/>
			<stop  offset="1" style="stop-color:#D3BBA4"/>
		</linearGradient>
		<path class="st79" d="M32.07,93.17c0,0,2.89,2.06,5.25,3.42c2.36,1.36,11.46,5.76,13.24,6.79c1.78,1.03,6.02,0.88,10.3-1.59
			c4.28-2.47,37.65-21.58,37.65-21.58c0.71-0.45,1.87-2.71,1.49-3.08L76.67,67.4L32.07,93.17z"/>
		<linearGradient id="SVGID_51_" gradientUnits="userSpaceOnUse" x1="65.6122" y1="84.2367" x2="59.0764" y2="72.9163">
			<stop  offset="0" style="stop-color:#D9C4AD"/>
			<stop  offset="1" style="stop-color:#D3BBA4"/>
		</linearGradient>
		<path class="st80" d="M32.37,93c0,0,2.8,2,5.17,3.36c2.36,1.36,11.14,5.87,12.92,6.9c1.78,1.03,6.02,0.88,10.3-1.59
			c4.28-2.47,37.51-21.49,37.51-21.49c0.61-0.39,1.86-2.7,1.54-3.02l-23.67-9.44L32.37,93z"/>
		<linearGradient id="SVGID_52_" gradientUnits="userSpaceOnUse" x1="65.6531" y1="84.141" x2="59.1625" y2="72.8989">
			<stop  offset="0" style="stop-color:#D7C2AB"/>
			<stop  offset="1" style="stop-color:#D2BAA3"/>
		</linearGradient>
		<path class="st81" d="M32.67,92.82c0,0,2.72,1.93,5.08,3.29c2.36,1.36,10.82,5.99,12.6,7.02c1.78,1.03,6.02,0.88,10.3-1.59
			c4.28-2.47,37.37-21.4,37.37-21.4c0.5-0.32,1.86-2.7,1.59-2.97l-24.01-9.15L32.67,92.82z"/>
		<linearGradient id="SVGID_53_" gradientUnits="userSpaceOnUse" x1="65.6943" y1="84.0452" x2="59.2488" y2="72.8813">
			<stop  offset="0" style="stop-color:#D6C0A9"/>
			<stop  offset="1" style="stop-color:#D2BAA2"/>
		</linearGradient>
		<path class="st82" d="M32.97,92.65c0,0,2.64,1.87,5,3.23c2.36,1.36,10.5,6.1,12.28,7.13c1.78,1.03,6.02,0.88,10.3-1.59
			c4.28-2.47,37.23-21.31,37.23-21.31c0.4-0.26,1.86-2.69,1.64-2.91l-24.35-8.87L32.97,92.65z"/>
		<linearGradient id="SVGID_54_" gradientUnits="userSpaceOnUse" x1="65.7355" y1="83.9493" x2="59.3353" y2="72.8638">
			<stop  offset="0" style="stop-color:#D4BEA6"/>
			<stop  offset="1" style="stop-color:#D1B9A2"/>
		</linearGradient>
		<path class="st83" d="M33.27,92.48c0,0,2.55,1.8,4.91,3.17c2.36,1.36,10.18,6.22,11.96,7.24c1.78,1.03,6.02,0.88,10.3-1.59
			c4.28-2.47,37.09-21.22,37.09-21.22c0.3-0.19,1.86-2.69,1.7-2.85l-24.69-8.59L33.27,92.48z"/>
		<linearGradient id="SVGID_55_" gradientUnits="userSpaceOnUse" x1="65.7768" y1="83.8533" x2="59.4218" y2="72.8461">
			<stop  offset="0" style="stop-color:#D3BCA4"/>
			<stop  offset="1" style="stop-color:#D1B9A1"/>
		</linearGradient>
		<path class="st84" d="M33.58,92.3c0,0,2.47,1.74,4.83,3.1c2.36,1.36,9.85,6.33,11.64,7.36c1.78,1.03,6.02,0.88,10.3-1.59
			c4.28-2.47,36.96-21.13,36.96-21.13c0.2-0.13,1.85-2.68,1.75-2.79l-25.03-8.31L33.58,92.3z"/>
		<linearGradient id="SVGID_56_" gradientUnits="userSpaceOnUse" x1="65.8183" y1="83.7573" x2="59.5085" y2="72.8284">
			<stop  offset="0" style="stop-color:#D1BAA2"/>
			<stop  offset="1" style="stop-color:#D0B8A1"/>
		</linearGradient>
		<path class="st85" d="M33.88,92.13c0,0,2.38,1.67,4.74,3.04c2.36,1.36,9.53,6.44,11.31,7.47c1.78,1.03,6.02,0.88,10.3-1.59
			C64.51,98.57,97.05,80,97.05,80c0.1-0.06,1.85-2.68,1.8-2.73l-25.36-8.03L33.88,92.13z"/>
		<path class="st86" d="M34.18,91.95c0,0,2.3,1.61,4.66,2.97c2.36,1.36,9.21,6.56,10.99,7.59c1.78,1.03,6.02,0.88,10.3-1.59
			c4.28-2.47,36.68-20.95,36.68-20.95l1.85-2.67l-25.7-7.75L34.18,91.95z"/>
	</g>
	<polygon class="st56" points="21.74,99.85 157.91,178.46 159.13,178.46 225.85,139.94 225.85,139.23 89.69,60.62 94.22,63.24 
		86.87,67.48 104.84,77.86 104.84,79.2 58.44,106 56.44,106 54.12,106 37.14,96.19 30.43,100.07 22.12,100.07 	"/>
	<linearGradient id="SVGID_57_" gradientUnits="userSpaceOnUse" x1="153.0367" y1="183.8932" x2="149.0193" y2="183.8932">
		<stop  offset="0" style="stop-color:#F1E1CD"/>
		<stop  offset="1" style="stop-color:#D2B59E"/>
	</linearGradient>
	<polygon class="st87" points="145.74,175.5 149.91,176.27 149.85,177.87 151.14,185.26 151.14,192.29 151.14,192.29 145.74,189.17 
			"/>
	<linearGradient id="SVGID_58_" gradientUnits="userSpaceOnUse" x1="180.2493" y1="152.4181" x2="176.0898" y2="148.2585">
		<stop  offset="0" style="stop-color:#EFE1CD"/>
		<stop  offset="1" style="stop-color:#D2B59E"/>
	</linearGradient>
	<polygon class="st88" points="150.53,174.21 149.26,177.52 149.85,177.87 151.41,175.15 151.55,174.79 219.49,135.56 
		218.95,135.25 	"/>
	<polygon class="st89" points="147.37,192.29 46.81,134.23 46.81,119.65 147.37,177.72 	"/>
	<polygon class="st90" points="147.38,190.12 46.81,132.06 44.63,133.31 145.2,191.37 	"/>
	<polygon class="st91" points="138.17,184.8 135.08,183.02 135.08,184.8 	"/>
	<polygon class="st90" points="147.37,177.72 46.81,119.65 49.65,114.69 150.22,172.76 	"/>
	<g>
		<polygon class="st91" points="136.62,183.91 126.3,176.64 126.3,166.07 127.2,166.07 137.07,170.3 137.06,171.76 138.17,178.02 
			138.17,184.8 		"/>
		<polygon class="st91" points="138.83,166.18 136.46,171.41 137.06,171.76 139.72,167.13 139.85,166.77 207.8,127.54 
			207.26,127.23 		"/>
	</g>
	<linearGradient id="SVGID_59_" gradientUnits="userSpaceOnUse" x1="193.6942" y1="117.0576" x2="197.1051" y2="129.7874">
		<stop  offset="0" style="stop-color:#EFE1CD"/>
		<stop  offset="1" style="stop-color:#D2B59E"/>
	</linearGradient>
	<polygon class="st92" points="222.61,137.36 170.69,107.39 167.06,105.26 218.98,135.23 	"/>
	<linearGradient id="SVGID_60_" gradientUnits="userSpaceOnUse" x1="82.9912" y1="196.5843" x2="105.7652" y2="158.6819">
		<stop  offset="0" style="stop-color:#D7A381"/>
		<stop  offset="1" style="stop-color:#DFB18C"/>
	</linearGradient>
	<polygon class="st93" points="148.97,205.38 148.97,198.91 147.62,192.77 147.08,192.46 46.52,138.69 48.4,147.32 	"/>
	<path class="st94" d="M150.22,172.76L49.65,114.69c21.32-12.3,48.23-27.84,69.55-40.15l100.57,58.06l-2,1.15l-2,1.15l-2,1.15
		l-2,1.15c-17.32,10-40.24,23.23-57.56,33.23l-2,1.15L150.22,172.76z"/>
	<polygon class="st91" points="159.3,97.69 209.4,126.62 139.85,166.77 89.75,137.85 	"/>
	<path class="st91" d="M147.37,192.29v-14.58l2.85-4.96c21.32-12.31,48.23-27.84,69.55-40.15l2.85,1.67v3.09l-3.63-2.13
		c-20.79,12-47.18,27.24-67.98,39.25l-0.89,1.55l-0.86,1.49v13.68L147.37,192.29z"/>
	<polygon class="st91" points="145.2,197.84 145.2,191.37 147.08,190.28 147.08,196.75 	"/>
	<polygon class="st91" points="145.2,191.37 149.26,189.03 149.26,191.2 145.2,193.55 	"/>
	<polygon class="st95" points="32.86,87.11 32.86,88.45 34.61,86.6 34.61,86.1 	"/>
	<polygon class="st57" points="32.86,88.45 53.01,100.09 53.01,104.07 35.75,94.11 	"/>
	<linearGradient id="SVGID_61_" gradientUnits="userSpaceOnUse" x1="35.7859" y1="91.1523" x2="31.8767" y2="91.4943">
		<stop  offset="0" style="stop-color:#EFE1CD"/>
		<stop  offset="1" style="stop-color:#D2B59E"/>
	</linearGradient>
	<polygon class="st96" points="32.86,88.45 35.03,89.71 35.75,94.11 32.86,92.44 	"/>
	<linearGradient id="SVGID_62_" gradientUnits="userSpaceOnUse" x1="55.042" y1="108.2838" x2="57.5806" y2="126.3471">
		<stop  offset="0" style="stop-color:#EFE1CD"/>
		<stop  offset="1" style="stop-color:#D6BAA0"/>
	</linearGradient>
	<rect x="53.01" y="100.09" class="st97" width="2.33" height="3.99"/>
	<linearGradient id="SVGID_63_" gradientUnits="userSpaceOnUse" x1="74.4686" y1="81.6368" x2="86.685" y2="102.7961">
		<stop  offset="0" style="stop-color:#EFE1CD"/>
		<stop  offset="1" style="stop-color:#D2B59E"/>
	</linearGradient>
	<polygon class="st98" points="55.33,100.09 101.74,73.29 101.74,77.28 55.33,104.07 	"/>
	<polygon class="st95" points="80.86,61.33 80,61.34 34.61,87.54 34.61,88.04 53.73,99.08 54.59,99.08 99.98,72.87 99.98,72.37 	"/>
	<polygon class="st57" points="55.33,100.09 53.01,100.09 53.73,97.64 54.59,97.64 	"/>
	<polygon class="st57" points="55.33,100.09 101.74,73.29 99.98,71.43 54.59,97.64 	"/>
	<polygon class="st57" points="101.74,71.95 101.74,73.29 99.98,71.43 99.98,70.93 	"/>
	<polygon class="st95" points="32.86,88.45 53.01,100.09 53.73,97.64 48.62,91.33 34.61,86.6 	"/>
	<linearGradient id="SVGID_64_" gradientUnits="userSpaceOnUse" x1="36.7697" y1="87.0758" x2="29.0517" y2="91.3539">
		<stop  offset="0" style="stop-color:#EFE1CD"/>
		<stop  offset="1" style="stop-color:#D0B8A0"/>
	</linearGradient>
	<polygon class="st99" points="32.86,88.45 35.03,89.71 35.91,87.35 36.81,86.27 34.61,86.6 	"/>
	<linearGradient id="SVGID_65_" gradientUnits="userSpaceOnUse" x1="36.1384" y1="85.947" x2="28.4289" y2="90.2204">
		<stop  offset="0" style="stop-color:#EFE1CD"/>
		<stop  offset="1" style="stop-color:#D0B8A0"/>
	</linearGradient>
	<polygon class="st100" points="32.86,87.11 32.86,88.45 34.61,86.6 34.61,86.1 	"/>
	<polygon class="st95" points="80.86,59.9 80,59.9 35.91,87.35 53.73,97.64 54.59,97.64 99.98,71.43 99.98,70.93 	"/>
	<polygon class="st101" points="80.86,59.9 80,59.9 34.61,86.1 34.61,86.6 35.91,87.35 82.16,60.65 	"/>
	<polygon class="st89" points="145.2,197.84 44.63,139.78 44.63,133.31 145.2,191.37 	"/>
	<polygon class="st54" points="138.76,165.41 131.12,152.59 88.66,136.48 84.97,142.9 117.93,167.44 135.07,171.82 	"/>
	<polygon class="st9" points="209.01,126.39 158.91,97.47 163.34,100.03 213.44,128.95 	"/>
	<polygon class="st7" points="209.75,124.42 159.66,95.5 88.66,136.48 138.76,165.41 	"/>
	<polygon class="st9" points="135.07,171.82 84.97,142.9 84.98,154.33 84.98,155.88 135.08,184.8 135.08,183.26 	"/>
	<linearGradient id="SVGID_66_" gradientUnits="userSpaceOnUse" x1="185.985" y1="176.8433" x2="147.2454" y2="106.9551">
		<stop  offset="0" style="stop-color:#7F5467"/>
		<stop  offset="1" style="stop-color:#AE8A91"/>
	</linearGradient>
	<path class="st102" d="M135.08,184.8l1.55-0.89c0-2.31,0-10.09,0-12.4l2.85-4.96l69.55-40.15l4.43,2.56l0-2.38l-3.69-2.16
		l-70.99,40.99l-3.69,6.41l0,11.43V184.8z"/>
</g>
</svg>
