<?xml version="1.0" encoding="utf-8"?>
<!-- Generator: Adobe Illustrator 25.3.1, SVG Export Plug-In . SVG Version: 6.00 Build 0)  -->
<svg version="1.1" id="圖層_1" xmlns="http://www.w3.org/2000/svg" xmlns:xlink="http://www.w3.org/1999/xlink" x="0px" y="0px"
	 viewBox="0 0 240 240" style="enable-background:new 0 0 240 240;" xml:space="preserve">
<style type="text/css">
	.st0{fill:url(#SVGID_1_);}
	.st1{fill:#EBEDDF;}
	.st2{fill:#E2D9D4;}
	.st3{fill:#DBCFCF;}
	.st4{fill:#DCB18F;}
	.st5{fill:#DEB79A;}
	.st6{fill:#D8AD8D;}
	.st7{fill:#D2A787;}
	.st8{fill:#CFA484;}
	.st9{fill:#CFA283;}
	.st10{fill:#CBA080;}
	.st11{fill:#C29B7E;}
	.st12{fill:#C19A7D;}
	.st13{fill:#BF9676;}
	.st14{fill:#C19878;}
	.st15{fill:#C49C79;}
	.st16{fill:#C99C7D;}
	.st17{fill:#CD9F7D;}
	.st18{fill:#D1A580;}
	.st19{fill:#D8AD8B;}
	.st20{fill:#CAA18B;}
	.st21{fill:#CEA58F;}
	.st22{fill:#DEB99C;}
	.st23{fill:url(#SVGID_2_);}
	.st24{fill:url(#SVGID_3_);}
	.st25{fill:url(#SVGID_4_);}
	.st26{fill:#E9C89F;}
	.st27{fill:url(#SVGID_5_);}
	.st28{fill:url(#SVGID_6_);}
	.st29{fill:#C6A28C;}
	.st30{fill:#C8A28B;}
	.st31{fill:#D6AE95;}
	.st32{fill:#E1BDA3;}
	.st33{fill:#E0BBA0;}
	.st34{fill:#E0C2A8;}
	.st35{fill:#D5A98E;}
	.st36{fill:#E1BD9D;}
	.st37{fill:#E4C5A6;}
	.st38{fill:#DAB696;}
	.st39{fill:#DBB294;}
	.st40{fill:#D9AE8E;}
	.st41{fill:#D6AB8B;}
	.st42{fill:#CCA385;}
	.st43{fill:#CFA68A;}
	.st44{fill:#D1A686;}
	.st45{fill:#D1A684;}
	.st46{fill:#D2A584;}
	.st47{fill:#D6A98A;}
	.st48{fill:#D9AD8A;}
	.st49{fill:#DDB290;}
	.st50{fill:#E1BA9B;}
	.st51{fill:#DFBE9F;}
	.st52{opacity:0.3;}
	.st53{fill-rule:evenodd;clip-rule:evenodd;}
	.st54{fill-rule:evenodd;clip-rule:evenodd;fill:url(#SVGID_7_);}
	.st55{fill-rule:evenodd;clip-rule:evenodd;fill:url(#SVGID_8_);}
	.st56{fill-rule:evenodd;clip-rule:evenodd;fill:url(#SVGID_9_);}
	.st57{fill-rule:evenodd;clip-rule:evenodd;fill:url(#SVGID_10_);}
	.st58{fill-rule:evenodd;clip-rule:evenodd;fill:#F9DFAB;}
	.st59{fill-rule:evenodd;clip-rule:evenodd;fill:#FDEFC6;}
	.st60{fill:#DFD5D6;}
	.st61{fill:#E1D8D9;}
	.st62{fill:#E3DADB;}
	.st63{fill:#E4E0DF;}
	.st64{fill:#E6E2E1;}
	.st65{fill:#E5E4E2;}
	.st66{fill:#E8E7E5;}
	.st67{fill:#DCD2D1;}
	.st68{fill:#E1D7D8;}
	.st69{fill:#DBCFD3;}
	.st70{fill:#DED1DA;}
	.st71{fill:#E4E0E1;}
	.st72{fill:#DBCFD1;}
	.st73{fill:#D8CCD0;}
	.st74{fill:#DFD4D8;}
	.st75{fill:#D8C7CD;}
	.st76{fill:#DED5D6;}
	.st77{fill:#D2C5CF;}
	.st78{fill:#E0D5D9;}
	.st79{fill:#CEC0CF;}
	.st80{fill:#E2D7DB;}
	.st81{fill:#D6C9D2;}
	.st82{fill:#DED8DA;}
	.st83{fill:#DED4D3;}
	.st84{fill:#D9CDD1;}
	.st85{fill:#DCD0D4;}
	.st86{fill:#DCCFD6;}
	.st87{fill:#D8CCCE;}
	.st88{fill:#D7C6CE;}
	.st89{fill:#D7CBCF;}
	.st90{fill:#DED1D8;}
	.st91{fill:#D8C9D0;}
	.st92{fill:#CEC1CA;}
	.st93{fill:#D7C8CF;}
	.st94{fill:#DDD0D7;}
	.st95{fill:#CBBEC8;}
	.st96{fill:#CFC2CB;}
	.st97{fill:#CCBFC9;}
	.st98{fill:#CEC1CB;}
	.st99{fill:#D8C7CF;}
	.st100{fill:#C7BBC7;}
	.st101{fill:#DBCBCE;}
	.st102{fill:url(#SVGID_11_);}
	.st103{fill:url(#SVGID_12_);}
	.st104{fill:#CABECC;}
	.st105{fill:#D7C4CA;}
	.st106{fill:url(#SVGID_13_);}
	.st107{fill:url(#SVGID_14_);}
	.st108{fill:#CBBDCA;}
	.st109{fill:#D1C0CA;}
	.st110{fill:url(#SVGID_15_);}
	.st111{fill:url(#SVGID_16_);}
	.st112{fill:#E2DCDE;}
	.st113{fill:#E6E5E3;}
</style>
<g>
	<g>
		
			<linearGradient id="SVGID_1_" gradientUnits="userSpaceOnUse" x1="9045.3896" y1="-10821.4678" x2="8746.1406" y2="-9978.1279" gradientTransform="matrix(0.0283 0 0 -0.0283 -180.1309 -259.9699)">
			<stop  offset="0" style="stop-color:#D0B7BA"/>
			<stop  offset="1" style="stop-color:#A49CA9"/>
		</linearGradient>
		<path class="st0" d="M82.41,18.72c7.1-3.29,15.52-7.26,24.28-5.51c17.95,3.59,21.73,21.93,19.34,37.46
			c-4.07,26.44-26,60.66-51.39,69.32c-26.3,8.97-38.32-13.63-34.34-39.52c3.28-21.3,16.77-42.37,33.58-55.86
			C76.72,22.65,79.56,20.68,82.41,18.72L82.41,18.72z"/>
		<polygon class="st1" points="75.72,22.05 60.15,48.45 46.07,72.21 42.61,85.92 54.23,98.75 79.66,113.02 91.68,111.74 
			106.05,95.08 116.88,80.3 126.74,58.2 127.99,46.41 		"/>
		<polygon class="st2" points="81.23,110.57 44.88,89.58 45.76,99.64 72.71,116.72 81.59,113.29 		"/>
		<path class="st3" d="M46.74,95.6l33.38,19.27l-14.93,5.27c0,0-11.04-2.55-11.43-2.77c-0.39-0.22-9.49-11.62-9.49-11.62L46.74,95.6
			L46.74,95.6z"/>
		<polygon class="st4" points="118.95,18.78 114.26,16.07 118.16,22.23 120.55,29.97 120.55,29.97 121.36,38.99 120.55,48.95 
			118.16,59.45 114.26,70.11 109.03,80.5 102.64,90.23 95.36,98.93 87.46,106.26 79.25,111.94 71.03,115.75 71.03,115.75 
			63.13,117.54 63.13,117.54 55.85,117.25 55.85,117.25 49.47,114.89 48.69,114.44 48.69,114.44 54.16,117.59 60.54,119.96 
			67.82,120.25 75.72,118.45 83.94,114.64 92.15,108.97 100.05,101.64 107.33,92.94 113.71,83.21 118.95,72.81 122.84,62.16 
			125.24,51.65 126.05,41.7 125.24,32.68 122.84,24.94 118.95,18.78 113.71,14.43 109.03,11.73 114.26,16.07 		"/>
		<g>
			<polygon class="st4" points="118.95,18.78 114.26,16.07 118.16,22.23 122.84,24.94 			"/>
			<g>
				<polygon class="st5" points="113.71,14.43 109.03,11.73 114.26,16.07 118.95,18.78 				"/>
				<polygon class="st6" points="122.84,24.94 118.16,22.23 120.55,29.97 120.55,29.97 125.24,32.68 				"/>
				<polygon class="st7" points="125.24,32.68 120.55,29.97 121.36,38.99 126.05,41.7 				"/>
				<polygon class="st8" points="126.05,41.7 121.36,38.99 120.55,48.95 125.24,51.65 				"/>
				<polygon class="st9" points="125.24,51.65 120.55,48.95 118.16,59.45 122.84,62.16 				"/>
				<polygon class="st10" points="122.84,62.16 118.16,59.45 114.26,70.11 118.95,72.81 				"/>
				<polygon class="st11" points="118.95,72.81 114.26,70.11 109.03,80.5 113.71,83.21 				"/>
				<polygon class="st12" points="113.71,83.21 109.03,80.5 102.64,90.23 107.33,92.94 				"/>
				<polygon class="st13" points="107.33,92.94 102.64,90.23 95.36,98.93 100.05,101.64 				"/>
				<polygon class="st14" points="100.05,101.64 95.36,98.93 87.46,106.26 92.15,108.97 				"/>
				<polygon class="st15" points="92.15,108.97 87.46,106.26 79.25,111.94 83.94,114.64 				"/>
				<polygon class="st16" points="83.94,114.64 79.25,111.94 71.03,115.75 71.03,115.75 75.72,118.45 				"/>
				<polygon class="st17" points="75.72,118.45 71.03,115.75 63.13,117.54 63.13,117.54 67.82,120.25 				"/>
				<polygon class="st18" points="67.82,120.25 63.13,117.54 55.85,117.25 55.85,117.25 60.54,119.96 				"/>
				<polygon class="st19" points="60.54,119.96 55.85,117.25 49.47,114.89 48.69,114.44 48.69,114.44 54.16,117.59 				"/>
			</g>
		</g>
		<g>
			<polygon class="st20" points="88.62,18.26 83.16,15.1 91.69,11.15 97.15,14.3 			"/>
			<polygon class="st21" points="97.15,14.3 91.69,11.15 99.88,9.29 105.35,12.44 			"/>
			<polygon class="st22" points="48.25,111.34 42.78,108.19 40.3,100.16 45.76,103.31 			"/>
			
				<linearGradient id="SVGID_2_" gradientUnits="userSpaceOnUse" x1="7880.103" y1="-12761.0195" x2="7863.7812" y2="-12508.9258" gradientTransform="matrix(0.0283 0 0 -0.0283 -180.1309 -259.9699)">
				<stop  offset="0" style="stop-color:#E2BE9E"/>
				<stop  offset="1" style="stop-color:#E0BB9E"/>
			</linearGradient>
			<polygon class="st23" points="45.76,103.31 40.3,100.16 39.46,90.8 44.92,93.95 			"/>
			
				<linearGradient id="SVGID_3_" gradientUnits="userSpaceOnUse" x1="7847.2808" y1="-12427.5771" x2="7878.1128" y2="-12217.1963" gradientTransform="matrix(0.0283 0 0 -0.0283 -180.1309 -259.9699)">
				<stop  offset="0" style="stop-color:#E1BF9C"/>
				<stop  offset="1" style="stop-color:#E5C39E"/>
			</linearGradient>
			<polygon class="st24" points="44.92,93.95 39.46,90.8 40.3,80.47 45.76,83.62 			"/>
			
				<linearGradient id="SVGID_4_" gradientUnits="userSpaceOnUse" x1="7939.0767" y1="-11798.6572" x2="7913.687" y2="-12047.123" gradientTransform="matrix(0.0283 0 0 -0.0283 -180.1309 -259.9699)">
				<stop  offset="0" style="stop-color:#E5C8A0"/>
				<stop  offset="1" style="stop-color:#E2C09A"/>
			</linearGradient>
			<polygon class="st25" points="45.76,83.62 40.3,80.47 42.78,69.56 48.25,72.72 			"/>
			<polygon class="st26" points="48.25,72.72 42.78,69.56 46.82,58.51 52.29,61.66 			"/>
			
				<linearGradient id="SVGID_5_" gradientUnits="userSpaceOnUse" x1="8116.1099" y1="-11309.3779" x2="8308.1562" y2="-10928.2861" gradientTransform="matrix(0.0283 0 0 -0.0283 -180.1309 -259.9699)">
				<stop  offset="0" style="stop-color:#E8C59D"/>
				<stop  offset="1" style="stop-color:#DEB595"/>
			</linearGradient>
			<polygon class="st27" points="52.29,61.66 46.82,58.51 52.26,47.72 57.72,50.88 			"/>
			
				<linearGradient id="SVGID_6_" gradientUnits="userSpaceOnUse" x1="8496.4268" y1="-10672.2773" x2="8291.4854" y2="-10895.3545" gradientTransform="matrix(0.0283 0 0 -0.0283 -180.1309 -259.9699)">
				<stop  offset="0" style="stop-color:#CEA58F"/>
				<stop  offset="1" style="stop-color:#D5A98C"/>
			</linearGradient>
			<polygon class="st28" points="57.72,50.88 52.26,47.72 58.88,37.62 64.34,40.78 			"/>
			<polygon class="st29" points="64.34,40.78 58.88,37.62 66.44,28.6 71.9,31.75 			"/>
			<polygon class="st30" points="71.9,31.75 66.44,28.6 74.63,20.99 80.1,24.15 			"/>
			<polygon class="st30" points="80.1,24.15 74.63,20.99 83.16,15.1 88.62,18.26 			"/>
			<polygon class="st31" points="105.35,12.44 99.88,9.29 107.44,9.59 112.9,12.74 			"/>
			<polygon class="st32" points="52.29,117.74 46.82,114.58 42.78,108.19 48.25,111.34 			"/>
			<polygon class="st33" points="119.53,15.2 114.06,12.04 107.44,9.59 112.9,12.74 			"/>
			<polygon class="st34" points="52.29,117.74 46.82,114.58 52.26,119.09 57.72,122.24 			"/>
		</g>
		<polygon class="st35" points="123.64,21.48 118.95,18.78 122.84,24.94 125.24,32.68 125.24,32.68 126.05,41.7 125.24,51.65 
			122.84,62.16 118.95,72.81 113.71,83.21 107.33,92.94 100.05,101.64 92.15,108.97 83.94,114.64 75.72,118.45 75.72,118.45 
			67.82,120.25 67.82,120.25 60.54,119.96 60.54,119.96 54.16,117.59 53.38,117.15 53.38,117.15 58.84,120.3 65.23,122.66 
			72.51,122.95 80.41,121.16 88.62,117.35 96.84,111.67 104.74,104.34 112.02,95.65 118.4,85.91 123.64,75.52 127.53,64.87 
			129.93,54.36 130.74,44.41 129.93,35.38 127.53,27.65 123.64,21.48 118.4,17.14 113.71,14.43 118.95,18.78 		"/>
		<g>
			<polygon class="st36" points="123.64,21.48 118.95,18.78 122.84,24.94 127.53,27.65 			"/>
			<g>
				<polygon class="st37" points="118.4,17.14 113.71,14.43 118.95,18.78 123.64,21.48 				"/>
				<polygon class="st38" points="127.53,27.65 122.84,24.94 125.24,32.68 125.24,32.68 129.93,35.38 				"/>
				<polygon class="st39" points="129.93,35.38 125.24,32.68 126.05,41.7 130.74,44.41 				"/>
				<polygon class="st40" points="130.74,44.41 126.05,41.7 125.24,51.65 129.93,54.36 				"/>
				<polygon class="st41" points="129.93,54.36 125.24,51.65 122.84,62.16 127.53,64.87 				"/>
				<polygon class="st35" points="127.53,64.87 122.84,62.16 118.95,72.81 123.64,75.52 				"/>
				<polygon class="st42" points="123.64,75.52 118.95,72.81 113.71,83.21 118.4,85.91 				"/>
				<polygon class="st43" points="118.4,85.91 113.71,83.21 107.33,92.94 112.02,95.65 				"/>
				<polygon class="st44" points="112.02,95.65 107.33,92.94 100.05,101.64 104.74,104.34 				"/>
				<polygon class="st45" points="104.74,104.34 100.05,101.64 92.15,108.97 96.84,111.67 				"/>
				<polygon class="st46" points="96.84,111.67 92.15,108.97 83.94,114.64 88.62,117.35 				"/>
				<polygon class="st47" points="88.62,117.35 83.94,114.64 75.72,118.45 75.72,118.45 80.41,121.16 				"/>
				<polygon class="st48" points="80.41,121.16 75.72,118.45 67.82,120.25 67.82,120.25 72.51,122.95 				"/>
				<polygon class="st49" points="72.51,122.95 67.82,120.25 60.54,119.96 60.54,119.96 65.23,122.66 				"/>
				<polygon class="st50" points="65.23,122.66 60.54,119.96 54.16,117.59 53.38,117.15 53.38,117.15 58.84,120.3 				"/>
			</g>
		</g>
		<path class="st51" d="M131.49,34.13L129,26.1l-4.04-6.39l-5.43-4.51l-6.62-2.45l-7.56-0.3l-8.2,1.86l-8.53,3.95v0l-8.53,5.89
			l-8.2,7.6l-7.56,9.03l-6.62,10.1l-5.43,10.78l-4.04,11.06l-2.49,10.9l-0.84,10.33l0.84,9.36l2.49,8.03l4.04,6.39l5.43,4.51
			l6.62,2.45l7.56,0.3l8.2-1.86l8.53-3.95l8.53-5.89l8.2-7.6l7.56-9.03l6.62-10.1l5.43-10.78L129,64.72l2.49-10.9l0.84-10.33
			L131.49,34.13z M129.93,54.36l-2.4,10.51l-3.89,10.65l-5.24,10.39l-6.38,9.73l-7.28,8.7l-7.9,7.33l-8.22,5.68l-8.22,3.81
			l-7.9,1.79l-7.28-0.29l-6.38-2.36l-5.24-4.35l-3.89-6.16l-2.4-7.74l-0.81-9.02l0.81-9.95l2.4-10.51l3.89-10.65l5.24-10.39
			l6.38-9.73l7.28-8.7l7.9-7.33l8.22-5.68l8.22-3.81l7.9-1.79l7.28,0.29l6.38,2.36l5.24,4.35l3.89,6.16l2.4,7.74l0.81,9.02
			L129.93,54.36z"/>
	</g>
	<g>
		<g class="st52">
			<path class="st53" d="M42.01,212.25c0,0,7.84-0.82,15.17,0.53c3.42,0.63,6.73,1.73,9.09,3.61c7.39,5.9,13.01,7.99,17.22,10.42
				c4.21,2.43,18.87,7.33,30.13,0.2c11.27-7.13,61.17-33.69,73.95-41.07s18.58-15.34,5.85-22.68
				c-12.73-7.35-20.47-11.82-20.47-11.82L49.87,195.59L42.01,212.25z"/>
			<path class="st53" d="M42.01,212.25c0,0,7.98-1.01,15.16,0.24c3.38,0.57,6.67,1.68,9.03,3.55c7.41,5.88,13.36,8.17,17.5,10.57
				c4.14,2.39,18.28,7.15,29.38,0.14c11.1-7.01,61.58-33.98,74.15-41.23c12.57-7.26,18.21-14.94,5.7-22.16
				c-12.51-7.22-20.51-11.84-20.51-11.84c-1.78,0.67-120.77,43.4-122.55,44.08C49.74,195.85,42.14,211.98,42.01,212.25z"/>
			<path class="st53" d="M42.01,212.25c0,0,8.11-1.21,15.15-0.04c3.34,0.51,6.61,1.63,8.97,3.49c7.42,5.86,13.71,8.36,17.79,10.72
				c4.08,2.36,17.7,6.97,28.63,0.08c10.93-6.9,61.98-34.26,74.34-41.4c12.36-7.13,17.84-14.54,5.55-21.64
				c-12.29-7.09-20.55-11.86-20.55-11.86c-3.55,1.35-118.47,42.65-122.02,44C49.62,196.12,42.26,211.72,42.01,212.25z"/>
			<path class="st53" d="M42.01,212.25c0,0,8.25-1.41,15.13-0.33c3.3,0.45,6.55,1.58,8.91,3.43c7.44,5.84,14.06,8.55,18.07,10.87
				c4.02,2.32,17.12,6.79,27.88,0.02s62.39-34.55,74.54-41.56c12.15-7.01,17.47-14.15,5.4-21.11
				c-12.07-6.97-20.59-11.89-20.59-11.89c-5.33,2.02-116.16,41.9-121.49,43.92C49.49,196.38,42.39,211.45,42.01,212.25z"/>
			<path class="st53" d="M42.01,212.25c0,0,8.39-1.6,15.12-0.62c3.25,0.4,6.49,1.53,8.86,3.38c7.46,5.82,14.41,8.73,18.36,11.02
				c3.95,2.28,16.54,6.62,27.13-0.04s62.8-34.84,74.73-41.73c11.93-6.89,17.1-13.75,5.25-20.59c-11.85-6.84-20.63-11.91-20.63-11.91
				c-7.11,2.7-113.86,41.14-120.96,43.84C49.37,196.65,42.51,211.19,42.01,212.25z"/>
			<path class="st53" d="M42.01,212.25c0,0,8.52-1.8,15.11-0.91c3.21,0.34,6.42,1.48,8.8,3.32c7.48,5.8,14.76,8.92,18.64,11.16
				c3.89,2.24,15.96,6.44,26.38-0.1s63.21-35.12,74.93-41.89c11.72-6.77,16.73-13.35,5.1-20.07c-11.63-6.71-20.67-11.93-20.67-11.93
				c-8.89,3.37-111.55,40.39-120.43,43.76C49.25,196.91,42.63,210.92,42.01,212.25z"/>
			<path class="st53" d="M42.01,212.25c0,0,8.66-2,15.09-1.19c3.17,0.28,6.36,1.42,8.74,3.26c7.49,5.79,15.11,9.11,18.93,11.31
				c3.82,2.21,15.38,6.26,25.63-0.16s63.61-35.41,75.12-42.06c11.51-6.65,16.36-12.96,4.95-19.54
				c-11.41-6.59-20.71-11.96-20.71-11.96c-10.66,4.05-109.24,39.64-119.91,43.68C49.12,197.17,42.76,210.66,42.01,212.25z"/>
			<path class="st53" d="M42.01,212.25c0,0,8.8-2.19,15.08-1.48c3.13,0.22,6.3,1.37,8.68,3.2c7.51,5.77,15.46,9.29,19.21,11.46
				c3.76,2.17,14.8,6.08,24.88-0.22s64.02-35.7,75.32-42.22c11.3-6.52,15.99-12.56,4.8-19.02c-11.19-6.46-20.75-11.98-20.75-11.98
				c-12.44,4.72-106.94,38.88-119.38,43.6C49,197.44,42.88,210.39,42.01,212.25z"/>
			<path class="st53" d="M42.01,212.25c0,0,8.93-2.39,15.07-1.77c3.09,0.16,6.24,1.32,8.63,3.14c7.53,5.75,15.81,9.48,19.5,11.61
				c3.69,2.13,14.22,5.91,24.13-0.28s64.43-35.98,75.52-42.39c11.09-6.4,15.63-12.16,4.66-18.5c-10.97-6.33-20.79-12-20.79-12
				c-14.22,5.4-104.63,38.13-118.85,43.52C48.87,197.7,43.01,210.13,42.01,212.25z"/>
			<path class="st53" d="M42.01,212.25c0,0,9.07-2.59,15.05-2.06c3.04,0.1,6.18,1.27,8.57,3.09c7.55,5.73,16.16,9.67,19.79,11.76
				c3.63,2.09,13.64,5.73,23.38-0.34s64.84-36.27,75.71-42.55c10.87-6.28,15.26-11.77,4.51-17.97
				c-10.75-6.21-20.83-12.03-20.83-12.03c-16,6.07-102.32,37.37-118.32,43.44C48.75,197.97,43.13,209.87,42.01,212.25z"/>
			<path class="st53" d="M42.01,212.25c0,0,9.2-2.78,15.04-2.34c3,0.05,6.12,1.22,8.51,3.03c7.56,5.71,16.51,9.86,20.07,11.91
				c3.56,2.06,13.06,5.55,22.63-0.4s65.24-36.56,75.91-42.71c10.66-6.16,14.89-11.37,4.36-17.45
				c-10.53-6.08-20.87-12.05-20.87-12.05c-17.77,6.74-100.02,36.62-117.79,43.36C48.62,198.23,43.26,209.6,42.01,212.25z"/>
			<path class="st53" d="M42.01,212.25c0,0,9.34-2.98,15.03-2.63c2.96-0.01,6.05,1.17,8.45,2.97c7.58,5.69,16.86,10.04,20.36,12.06
				c3.5,2.02,12.48,5.37,21.88-0.46s65.65-36.84,76.1-42.88c10.45-6.03,14.52-10.97,4.21-16.93c-10.31-5.95-20.91-12.08-20.91-12.08
				c-19.55,7.42-97.71,35.87-117.26,43.29C48.5,198.5,43.38,209.34,42.01,212.25z"/>
			<path class="st53" d="M42.01,212.25c0,0,9.48-3.18,15.02-2.92c2.92-0.07,5.99,1.12,8.39,2.91c7.6,5.67,17.21,10.23,20.64,12.21
				c3.43,1.98,11.9,5.2,21.14-0.52s66.06-37.13,76.3-43.04c10.24-5.91,14.15-10.58,4.06-16.4c-10.09-5.83-20.96-12.1-20.96-12.1
				c-21.33,8.09-95.4,35.11-116.73,43.21C48.37,198.76,43.51,209.07,42.01,212.25z"/>
			<path class="st53" d="M42.01,212.25c0,0,9.61-3.37,15-3.21c2.88-0.13,5.93,1.07,8.34,2.85c7.62,5.65,17.56,10.42,20.93,12.36
				c3.37,1.95,11.32,5.02,20.39-0.58s66.47-37.42,76.49-43.21c10.03-5.79,13.78-10.18,3.91-15.88c-9.87-5.7-21-12.12-21-12.12
				c-23.1,8.77-93.1,34.36-116.2,43.13C48.25,199.02,43.63,208.81,42.01,212.25z"/>
			<path class="st53" d="M42.01,212.25c0,0,9.75-3.57,14.99-3.49c2.83-0.19,5.87,1.01,8.28,2.79c7.63,5.63,17.91,10.6,21.21,12.51
				c3.3,1.91,10.74,4.84,19.64-0.64s66.87-37.71,76.69-43.37c9.82-5.67,13.41-9.79,3.76-15.36c-9.65-5.57-21.04-12.15-21.04-12.15
				c-24.88,9.44-90.79,33.6-115.67,43.05C48.12,199.29,43.76,208.54,42.01,212.25z"/>
			<path class="st53" d="M42.01,212.25c0,0,9.89-3.77,14.98-3.78c2.79-0.25,5.81,0.96,8.22,2.74c7.65,5.62,18.26,10.79,21.5,12.66
				c3.24,1.87,10.15,4.66,18.89-0.7s67.28-37.99,76.88-43.54c9.6-5.54,13.04-9.39,3.61-14.83c-9.43-5.44-21.08-12.17-21.08-12.17
				c-26.66,10.12-88.48,32.85-115.14,42.97C48,199.55,43.88,208.28,42.01,212.25z"/>
			<path class="st53" d="M42.01,212.25c0,0,10.02-3.96,14.96-4.07c2.75-0.31,5.74,0.91,8.16,2.68c7.67,5.6,18.61,10.98,21.78,12.81
				c3.18,1.83,9.57,4.49,18.14-0.76s67.69-38.28,77.08-43.7c9.39-5.42,12.67-8.99,3.46-14.31c-9.21-5.32-21.12-12.19-21.12-12.19
				c-28.44,10.79-86.18,32.1-114.61,42.89C47.87,199.82,44.01,208.01,42.01,212.25z"/>
			<path class="st53" d="M42.01,212.25c0,0,10.16-4.16,14.95-4.35c2.71-0.36,5.68,0.86,8.11,2.62c7.69,5.58,18.96,11.16,22.07,12.96
				c3.11,1.8,8.99,4.31,17.39-0.82s68.1-38.57,77.28-43.87c9.18-5.3,12.3-8.6,3.31-13.79c-8.99-5.19-21.16-12.22-21.16-12.22
				c-30.21,11.47-83.87,31.34-114.08,42.81C47.75,200.08,44.13,207.75,42.01,212.25z"/>
			<path class="st53" d="M42.01,212.25c0,0,10.3-4.36,14.94-4.64c2.66-0.42,5.62,0.81,8.05,2.56c7.7,5.56,19.31,11.35,22.35,13.11
				c3.05,1.76,8.41,4.13,16.64-0.88s68.5-38.85,77.47-44.03c8.97-5.18,11.94-8.2,3.16-13.26c-8.77-5.06-21.2-12.24-21.2-12.24
				C131.43,165,81.86,183.45,49.87,195.59C47.62,200.35,44.26,207.49,42.01,212.25z"/>
			<path class="st53" d="M42.01,212.25c0,0,10.43-4.55,14.92-4.93c2.62-0.48,5.56,0.76,7.99,2.5c7.72,5.54,19.66,11.54,22.64,13.26
				c2.98,1.72,7.83,3.96,15.89-0.94s68.91-39.14,77.67-44.2c8.76-5.06,11.57-7.8,3.01-12.74c-8.55-4.94-21.24-12.26-21.24-12.26
				c-33.77,12.81-79.26,29.84-113.02,42.65C47.5,200.61,44.38,207.22,42.01,212.25z"/>
			<path class="st53" d="M42.01,212.25c0,0,10.57-4.75,14.91-5.22c2.58-0.54,5.5,0.71,7.93,2.45c7.74,5.52,20.01,11.73,22.92,13.41
				c2.92,1.68,7.25,3.78,15.14-1s69.32-39.43,77.86-44.36c8.54-4.93,11.2-7.41,2.86-12.22c-8.33-4.81-21.28-12.29-21.28-12.29
				c-35.54,13.49-76.95,29.08-112.49,42.57C47.37,200.88,44.51,206.96,42.01,212.25z"/>
			<path class="st53" d="M42.01,212.25c0,0,10.7-4.94,14.9-5.5c2.54-0.6,5.44,0.66,7.88,2.39c7.76,5.5,20.36,11.91,23.21,13.56
				c2.85,1.65,6.67,3.6,14.39-1.06s69.73-39.71,78.06-44.52c8.33-4.81,10.83-7.01,2.71-11.69c-8.11-4.68-21.32-12.31-21.32-12.31
				c-37.32,14.16-74.64,28.33-111.97,42.49C47.25,201.14,44.63,206.69,42.01,212.25z"/>
			<path class="st53" d="M42.01,212.25c0,0,10.77-5.04,14.89-5.65c2.52-0.63,5.4,0.63,7.85,2.36c7.77,5.49,20.53,12.01,23.35,13.63
				c2.82,1.63,6.38,3.51,14.01-1.09c7.63-4.6,69.93-39.86,78.16-44.61c8.23-4.75,10.64-6.81,2.64-11.43
				c-8-4.62-21.34-12.32-21.34-12.32c-35.54,13.49-76.16,28.96-111.7,42.45C47.37,200.88,44.51,206.96,42.01,212.25z"/>
			<path class="st53" d="M42.01,212.25c0,0,10.84-5.14,14.88-5.79c2.5-0.66,5.37,0.6,7.82,2.33c7.78,5.48,20.71,12.1,23.49,13.71
				c2.79,1.61,6.09,3.42,13.64-1.12c7.55-4.55,70.13-40,78.25-44.69c8.12-4.69,10.46-6.61,2.57-11.17
				c-7.89-4.56-21.36-12.33-21.36-12.33c-33.77,12.81-77.67,29.6-111.44,42.41C47.5,200.61,44.38,207.22,42.01,212.25z"/>
			<path class="st53" d="M42.01,212.25c0,0,10.91-5.24,14.88-5.94c2.48-0.68,5.34,0.58,7.79,2.3c7.78,5.47,20.88,12.19,23.64,13.78
				c2.76,1.59,5.8,3.33,13.26-1.15c7.46-4.49,70.34-40.14,78.35-44.77c8.01-4.63,10.28-6.42,2.49-10.91
				c-7.78-4.49-21.38-12.34-21.38-12.34c-31.99,12.14-79.18,30.23-111.17,42.37C47.62,200.35,44.26,207.49,42.01,212.25z"/>
			<path class="st53" d="M42.01,212.25c0,0,10.98-5.34,14.87-6.08c2.45-0.71,5.31,0.55,7.76,2.27c7.79,5.46,21.06,12.29,23.78,13.86
				c2.72,1.57,5.51,3.25,12.89-1.18c7.38-4.43,70.54-40.29,78.45-44.85c7.91-4.57,10.09-6.22,2.42-10.65
				c-7.67-4.43-21.4-12.36-21.4-12.36c-30.21,11.47-80.69,30.87-110.91,42.33C47.75,200.08,44.13,207.75,42.01,212.25z"/>
			<path class="st53" d="M42.01,212.25c0,0,11.05-5.44,14.87-6.22c2.43-0.74,5.28,0.53,7.73,2.24c7.8,5.45,21.23,12.38,23.92,13.93
				c2.69,1.55,5.22,3.16,12.51-1.21c7.29-4.37,70.75-40.43,78.55-44.94c7.8-4.5,9.91-6.02,2.34-10.39
				c-7.56-4.37-21.42-12.37-21.42-12.37c-28.44,10.79-82.21,31.5-110.64,42.29C47.87,199.82,44.01,208.01,42.01,212.25z"/>
			<path class="st53" d="M42.01,212.25c0,0,11.11-5.53,14.86-6.37c2.41-0.77,5.25,0.5,7.7,2.21c7.81,5.44,21.41,12.47,24.07,14.01
				c2.66,1.53,4.93,3.07,12.14-1.24c7.21-4.31,70.95-40.58,78.65-45.02c7.7-4.44,9.72-5.82,2.27-10.12
				c-7.46-4.3-21.44-12.38-21.44-12.38c-26.66,10.12-83.72,32.14-110.38,42.25C48,199.55,43.88,208.28,42.01,212.25z"/>
			<path class="st53" d="M42.01,212.25c0,0,11.18-5.63,14.85-6.51c2.39-0.8,5.22,0.48,7.68,2.18c7.82,5.44,21.58,12.57,24.21,14.08
				c2.63,1.52,4.64,2.98,11.76-1.27c7.12-4.25,71.15-40.72,78.74-45.1c7.59-4.38,9.54-5.62,2.19-9.86
				c-7.35-4.24-21.46-12.39-21.46-12.39c-24.88,9.44-85.23,32.77-110.11,42.21C48.12,199.29,43.76,208.54,42.01,212.25z"/>
			<path class="st53" d="M42.01,212.25c0,0,11.25-5.73,14.85-6.65c2.37-0.83,5.19,0.45,7.65,2.16c7.83,5.43,21.76,12.66,24.35,14.16
				c2.59,1.5,4.35,2.89,11.39-1.3c7.04-4.19,71.36-40.86,78.84-45.18c7.48-4.32,9.35-5.42,2.12-9.6
				c-7.24-4.18-21.48-12.4-21.48-12.4c-23.1,8.77-86.74,33.41-109.85,42.17C48.25,199.02,43.63,208.81,42.01,212.25z"/>
			<path class="st53" d="M42.01,212.25c0,0,11.32-5.83,14.84-6.8c2.35-0.86,5.16,0.43,7.62,2.13c7.84,5.42,21.93,12.75,24.49,14.23
				c2.56,1.48,4.06,2.8,11.01-1.33c6.96-4.13,71.56-41.01,78.94-45.27c7.38-4.26,9.17-5.23,2.04-9.34
				c-7.13-4.11-21.5-12.42-21.5-12.42c-21.33,8.09-88.26,34.04-109.58,42.13C48.37,198.76,43.51,209.07,42.01,212.25z"/>
			<path class="st53" d="M42.01,212.25c0,0,11.39-5.93,14.83-6.94c2.33-0.89,5.13,0.4,7.59,2.1c7.84,5.41,22.11,12.85,24.64,14.31
				c2.53,1.46,3.77,2.71,10.64-1.36c6.87-4.08,71.76-41.15,79.04-45.35c7.27-4.2,8.98-5.03,1.97-9.08
				c-7.02-4.05-21.52-12.43-21.52-12.43c-19.55,7.42-89.77,34.67-109.32,42.09C48.5,198.5,43.38,209.34,42.01,212.25z"/>
			<path class="st53" d="M42.01,212.25c0,0,11.46-6.03,14.83-7.09c2.31-0.92,5.1,0.37,7.56,2.07c7.85,5.4,22.28,12.94,24.78,14.38
				c2.5,1.44,3.48,2.62,10.26-1.39c6.79-4.02,71.97-41.29,79.13-45.43c7.17-4.14,8.8-4.83,1.89-8.82
				c-6.91-3.99-21.54-12.44-21.54-12.44c-17.77,6.74-91.28,35.31-109.05,42.05C48.62,198.23,43.26,209.6,42.01,212.25z"/>
			<path class="st53" d="M42.01,212.25c0,0,11.52-6.12,14.82-7.23c2.29-0.95,5.06,0.35,7.53,2.04c7.86,5.39,22.46,13.03,24.92,14.46
				c2.46,1.42,3.19,2.54,9.89-1.42c6.7-3.96,72.17-41.44,79.23-45.51c7.06-4.08,8.62-4.63,1.82-8.55
				c-6.8-3.92-21.56-12.45-21.56-12.45c-16,6.07-92.79,35.94-108.79,42.01C48.75,197.97,43.13,209.87,42.01,212.25z"/>
			<path class="st53" d="M42.01,212.25c0,0,11.59-6.22,14.81-7.37c2.27-0.98,5.03,0.32,7.5,2.01c7.87,5.38,22.63,13.13,25.06,14.53
				c2.43,1.4,2.9,2.45,9.51-1.45c6.62-3.9,72.38-41.58,79.33-45.59c6.95-4.02,8.43-4.43,1.74-8.29
				c-6.69-3.86-21.58-12.46-21.58-12.46c-14.22,5.4-94.31,36.58-108.52,41.97C48.87,197.7,43.01,210.13,42.01,212.25z"/>
			<path class="st53" d="M42.01,212.25c0,0,11.66-6.32,14.81-7.52c2.24-1.01,5,0.3,7.47,1.98c7.88,5.37,22.81,13.22,25.21,14.61
				c2.4,1.39,2.61,2.36,9.14-1.48c6.53-3.84,72.58-41.72,79.43-45.68c6.85-3.95,8.25-4.23,1.67-8.03
				c-6.58-3.8-21.6-12.47-21.6-12.47c-12.44,4.72-95.82,37.21-108.26,41.93C49,197.44,42.88,210.39,42.01,212.25z"/>
			<path class="st53" d="M42.01,212.25c0,0,11.73-6.42,14.8-7.66c2.22-1.04,4.97,0.27,7.45,1.95c7.89,5.36,22.98,13.31,25.35,14.68
				c2.37,1.37,2.32,2.27,8.76-1.51c6.45-3.78,72.78-41.87,79.53-45.76c6.74-3.89,8.06-4.04,1.59-7.77
				c-6.47-3.73-21.63-12.49-21.63-12.49c-10.66,4.05-97.33,37.85-108,41.9C49.12,197.17,42.76,210.66,42.01,212.25z"/>
			<path class="st53" d="M42.01,212.25c0,0,11.8-6.52,14.79-7.8c2.2-1.06,4.94,0.25,7.42,1.92c7.9,5.35,23.16,13.41,25.49,14.76
				c2.33,1.35,2.02,2.18,8.39-1.54c6.36-3.72,72.99-42.01,79.62-45.84c6.64-3.83,7.88-3.84,1.52-7.51
				c-6.36-3.67-21.65-12.5-21.65-12.5c-8.89,3.37-98.84,38.48-107.73,41.86C49.25,196.91,42.63,210.92,42.01,212.25z"/>
			<path class="st53" d="M42.01,212.25c0,0,11.86-6.62,14.79-7.95c2.18-1.09,4.91,0.22,7.39,1.89c7.91,5.34,23.33,13.5,25.63,14.83
				c2.3,1.33,1.73,2.09,8.01-1.57c6.28-3.66,73.19-42.15,79.72-45.92c6.53-3.77,7.69-3.64,1.45-7.25
				c-6.25-3.61-21.67-12.51-21.67-12.51c-7.11,2.7-100.36,39.12-107.47,41.82C49.37,196.65,42.51,211.19,42.01,212.25z"/>
			<path class="st53" d="M42.01,212.25c0,0,11.93-6.71,14.78-8.09c2.16-1.12,4.88,0.19,7.36,1.87c7.91,5.33,23.51,13.59,25.78,14.91
				c2.27,1.31,1.44,2,7.64-1.6c6.19-3.61,73.39-42.3,79.82-46.01c6.43-3.71,7.51-3.44,1.37-6.98c-6.14-3.54-21.69-12.52-21.69-12.52
				c-5.33,2.02-101.87,39.75-107.2,41.78C49.49,196.38,42.39,211.45,42.01,212.25z"/>
			<path class="st53" d="M42.01,212.25c0,0,12-6.81,14.77-8.24c2.14-1.15,4.85,0.17,7.33,1.84c7.92,5.32,23.68,13.69,25.92,14.98
				c2.24,1.29,1.15,1.92,7.26-1.63c6.11-3.55,73.6-42.44,79.92-46.09c6.32-3.65,7.32-3.24,1.3-6.72
				c-6.03-3.48-21.71-12.53-21.71-12.53c-3.55,1.35-103.38,40.39-106.94,41.74C49.62,196.12,42.26,211.72,42.01,212.25z"/>
			<path class="st53" d="M42.01,212.25c0,0,12.07-6.91,14.77-8.38c2.12-1.18,4.82,0.14,7.3,1.81c7.93,5.31,23.86,13.78,26.06,15.06
				c2.21,1.27,0.86,1.83,6.89-1.66c6.03-3.49,73.8-42.58,80.01-46.17c6.21-3.59,7.14-3.04,1.22-6.46
				c-5.92-3.42-21.73-12.54-21.73-12.54c-1.78,0.67-104.89,41.02-106.67,41.7C49.74,195.85,42.14,211.98,42.01,212.25z"/>
			<path class="st53" d="M42.01,212.25c0,0,12.14-7.01,14.76-8.52c2.1-1.21,4.79,0.12,7.27,1.78c7.94,5.3,24.03,13.88,26.2,15.13
				s0.57,1.74,6.51-1.69c5.94-3.43,74.01-42.73,80.11-46.25c6.11-3.53,6.95-2.85,1.15-6.2c-5.81-3.35-21.75-12.56-21.75-12.56
				L49.87,195.59L42.01,212.25z"/>
		</g>
		<linearGradient id="SVGID_7_" gradientUnits="userSpaceOnUse" x1="18.1013" y1="270.347" x2="70.4599" y2="189.7219">
			<stop  offset="0" style="stop-color:#CE9777"/>
			<stop  offset="1" style="stop-color:#D2B59E"/>
		</linearGradient>
		<polygon class="st54" points="92.04,166.41 106.83,184.26 92.04,221.67 56.57,201.19 56.57,145.93 		"/>
		<linearGradient id="SVGID_8_" gradientUnits="userSpaceOnUse" x1="27.9849" y1="337.2118" x2="137.4118" y2="168.7092">
			<stop  offset="0" style="stop-color:#CE9777"/>
			<stop  offset="1" style="stop-color:#D2B59E"/>
		</linearGradient>
		<polygon class="st55" points="181.82,117.23 92.04,169.07 92.04,221.67 181.82,169.83 		"/>
		<linearGradient id="SVGID_9_" gradientUnits="userSpaceOnUse" x1="140.2788" y1="147.621" x2="157.5094" y2="177.4652">
			<stop  offset="0" style="stop-color:#D7A381"/>
			<stop  offset="1" style="stop-color:#DFB18C"/>
		</linearGradient>
		<polygon class="st56" points="198.68,126.97 92.04,188.53 92.04,185.88 198.68,124.31 		"/>
		<linearGradient id="SVGID_10_" gradientUnits="userSpaceOnUse" x1="34.5192" y1="198.6924" x2="-6.6671" y2="253.3485">
			<stop  offset="0" style="stop-color:#CE9777"/>
			<stop  offset="1" style="stop-color:#DFB18C"/>
		</linearGradient>
		<polygon class="st57" points="42.01,212.25 39.71,155.67 58.87,147.26 58.87,202.51 		"/>
		<polygon class="st58" points="42.01,159.65 92.04,188.53 92.04,185.88 42.01,156.99 42.01,156.99 39.71,155.67 39.71,158.32 
			39.71,210.92 42.01,212.25 		"/>
		<polygon class="st59" points="198.68,124.31 181.82,114.58 92.04,166.41 56.57,145.93 39.71,155.67 92.04,185.88 		"/>
		<polygon class="st59" points="92.04,166.41 181.82,114.58 146.35,94.1 56.57,145.93 		"/>
		<ellipse class="st52" cx="158.82" cy="212.67" rx="29.3" ry="18.04"/>
		<g>
			<polygon class="st60" points="156.06,192.72 162.76,191.72 168.01,189.72 172.24,186.51 173.45,182.6 172.34,178.93 
				168.61,175.6 163,173.31 156.06,172.53 149.12,173.31 143.5,175.6 139.77,178.93 138.67,182.6 139.87,186.51 144.1,189.72 
				149.36,191.72 			"/>
			<polygon class="st61" points="172.34,178.93 175.13,179.56 170.74,175.73 168.61,175.6 			"/>
			<polygon class="st62" points="139.77,178.93 136.98,179.56 141.38,175.73 143.5,175.6 			"/>
			<polygon class="st63" points="170.74,175.73 164.06,173.12 163,173.31 168.61,175.6 			"/>
			<polygon class="st64" points="141.38,175.73 148.05,173.12 149.12,173.31 143.5,175.6 			"/>
			<polygon class="st65" points="156.06,172.53 156.06,172.21 164.06,173.12 163,173.31 			"/>
			<polygon class="st66" points="156.06,172.53 156.06,172.21 148.05,173.12 149.12,173.31 			"/>
			<polygon class="st67" points="175.13,179.56 176.51,184 173.45,182.6 172.34,178.93 			"/>
			<polygon class="st68" points="136.98,179.56 135.61,184 138.67,182.6 139.77,178.93 			"/>
			<polygon class="st69" points="175.13,179.56 177.27,181.01 178.93,185.94 176.51,184 			"/>
			<polygon class="st61" points="136.98,179.56 134.85,181.01 133.18,185.94 135.61,184 			"/>
			<polygon class="st70" points="177.27,181.01 178.57,182.88 180.4,188.23 178.93,185.94 			"/>
			<polygon class="st71" points="134.85,181.01 133.54,182.88 131.72,188.23 133.18,185.94 			"/>
			<polygon class="st72" points="176.51,184 175.24,188.67 172.24,186.51 173.45,182.6 			"/>
			<polygon class="st60" points="135.61,184 136.87,188.67 139.87,186.51 138.67,182.6 			"/>
			<polygon class="st73" points="176.51,184 178.93,185.94 177.11,190.92 175.24,188.67 			"/>
			<polygon class="st74" points="135.61,184 133.18,185.94 135.01,190.92 136.87,188.67 			"/>
			<polygon class="st75" points="178.93,185.94 180.4,188.23 178.55,193.61 177.11,190.92 			"/>
			<polygon class="st76" points="133.18,185.94 131.72,188.23 133.56,193.61 135.01,190.92 			"/>
			<polygon class="st77" points="178.55,193.61 178.97,196.11 180.94,190.76 180.4,188.23 			"/>
			<polygon class="st78" points="133.56,193.61 133.14,196.11 131.18,190.76 131.72,188.23 			"/>
			<polygon class="st79" points="178.97,215.45 178.55,217.94 180.48,212.4 180.9,210.09 			"/>
			<polygon class="st80" points="133.14,215.45 133.56,217.94 131.64,212.4 131.22,210.09 			"/>
			<polygon class="st81" points="178.97,196.11 178.97,215.45 180.9,210.09 180.94,190.76 			"/>
			<polygon class="st82" points="133.14,196.11 133.14,215.45 131.22,210.09 131.18,190.76 			"/>
			<polygon class="st69" points="168.01,189.72 170.34,192.59 175.24,188.67 172.24,186.51 			"/>
			<polygon class="st83" points="144.1,189.72 141.78,192.59 136.87,188.67 139.87,186.51 			"/>
			<polygon class="st84" points="168.01,189.72 162.76,191.72 163.73,195.09 170.34,192.59 			"/>
			<polygon class="st74" points="144.1,189.72 149.36,191.72 148.39,195.09 141.78,192.59 			"/>
			<polygon class="st85" points="162.76,191.72 156.06,192.72 156.06,196.09 163.73,195.09 			"/>
			<polygon class="st86" points="149.36,191.72 156.06,192.72 156.06,196.09 148.39,195.09 			"/>
			<polygon class="st73" points="156.06,196.09 156.06,199.22 164.71,198.17 163.73,195.09 			"/>
			<polygon class="st69" points="156.06,196.09 156.06,199.22 147.41,198.17 148.39,195.09 			"/>
			<polygon class="st87" points="156.06,199.22 156.06,202.2 165.34,201.17 164.71,198.17 			"/>
			<polygon class="st73" points="156.06,199.22 156.06,202.2 146.78,201.17 147.41,198.17 			"/>
			<polygon class="st88" points="156.06,202.2 156.06,205.09 165.52,203.88 165.34,201.17 			"/>
			<polygon class="st73" points="156.06,202.2 156.06,205.09 146.59,203.88 146.78,201.17 			"/>
			<polygon class="st89" points="164.71,198.17 172.02,195.25 170.34,192.59 163.73,195.09 			"/>
			<polygon class="st90" points="147.41,198.17 140.1,195.25 141.78,192.59 148.39,195.09 			"/>
			<polygon class="st91" points="164.71,198.17 165.34,201.17 173.16,198.2 172.02,195.25 			"/>
			<polygon class="st85" points="147.41,198.17 146.78,201.17 138.95,198.2 140.1,195.25 			"/>
			<polygon class="st92" points="165.34,201.17 165.52,203.88 173.52,200.78 173.16,198.2 			"/>
			<polygon class="st69" points="146.78,201.17 146.59,203.88 138.59,200.78 138.95,198.2 			"/>
			<polygon class="st89" points="172.02,195.25 177.11,190.92 175.24,188.67 170.34,192.59 			"/>
			<polygon class="st85" points="140.1,195.25 135.01,190.92 136.87,188.67 141.78,192.59 			"/>
			<polygon class="st93" points="177.11,190.92 172.02,195.25 173.16,198.2 178.55,193.61 			"/>
			<polygon class="st94" points="135.01,190.92 140.1,195.25 138.95,198.2 133.56,193.61 			"/>
			<polygon class="st95" points="173.16,198.2 178.55,193.61 178.97,196.11 173.52,200.78 			"/>
			<polygon class="st69" points="138.95,198.2 133.56,193.61 133.14,196.11 138.59,200.78 			"/>
			<polygon class="st96" points="173.52,200.78 178.97,196.11 178.97,215.45 173.52,220.12 			"/>
			<polygon class="st85" points="138.59,200.78 133.14,196.11 133.14,215.45 138.59,220.12 			"/>
			<polygon class="st97" points="173.52,200.78 165.52,203.88 165.52,223.22 173.52,220.12 			"/>
			<polygon class="st84" points="138.59,200.78 146.59,203.88 146.59,223.22 138.59,220.12 			"/>
			<polygon class="st98" points="156.06,205.09 165.52,203.88 165.52,223.22 156.06,224.42 			"/>
			<polygon class="st99" points="156.06,205.09 146.59,203.88 146.59,223.22 156.06,224.42 			"/>
			<polygon class="st100" points="173.52,220.12 173.19,222.51 178.55,217.94 178.97,215.45 			"/>
			<polygon class="st101" points="138.59,220.12 138.92,222.51 133.56,217.94 133.14,215.45 			"/>
			
				<linearGradient id="SVGID_11_" gradientUnits="userSpaceOnUse" x1="12553.7734" y1="-16987.6562" x2="12568.9219" y2="-17010.7773" gradientTransform="matrix(0.0283 0 0 -0.0283 -180.1309 -259.9699)">
				<stop  offset="0" style="stop-color:#C8BBCD"/>
				<stop  offset="1" style="stop-color:#A2A2BC"/>
			</linearGradient>
			<polygon class="st102" points="173.19,222.51 172.14,224.25 177.31,219.8 178.55,217.94 			"/>
			
				<linearGradient id="SVGID_12_" gradientUnits="userSpaceOnUse" x1="11191.5713" y1="-16988.5059" x2="11221.7119" y2="-17026.9609" gradientTransform="matrix(0.0283 0 0 -0.0283 -180.1309 -259.9699)">
				<stop  offset="0" style="stop-color:#DECDD3"/>
				<stop  offset="1" style="stop-color:#A2A2BC"/>
			</linearGradient>
			<polygon class="st103" points="138.92,222.51 139.98,224.25 134.8,219.8 133.56,217.94 			"/>
			<polygon class="st104" points="165.52,223.22 165.31,225.51 173.19,222.51 173.52,220.12 			"/>
			<polygon class="st105" points="146.59,223.22 146.81,225.51 138.92,222.51 138.59,220.12 			"/>
			
				<linearGradient id="SVGID_13_" gradientUnits="userSpaceOnUse" x1="12326.4404" y1="-17110.4648" x2="12344.7539" y2="-17150.8379" gradientTransform="matrix(0.0283 0 0 -0.0283 -180.1309 -259.9699)">
				<stop  offset="0" style="stop-color:#CABBCE"/>
				<stop  offset="1" style="stop-color:#A2A2BC"/>
			</linearGradient>
			<polygon class="st106" points="165.31,225.51 164.71,227.08 172.14,224.25 173.19,222.51 			"/>
			
				<linearGradient id="SVGID_14_" gradientUnits="userSpaceOnUse" x1="11416.2598" y1="-17102.584" x2="11431.8799" y2="-17157.4668" gradientTransform="matrix(0.0283 0 0 -0.0283 -180.1309 -259.9699)">
				<stop  offset="0" style="stop-color:#D9C6CC"/>
				<stop  offset="1" style="stop-color:#A2A2BC"/>
			</linearGradient>
			<polygon class="st107" points="146.81,225.51 147.41,227.08 139.98,224.25 138.92,222.51 			"/>
			<polygon class="st108" points="165.52,223.22 156.06,224.42 156.06,226.63 165.31,225.51 			"/>
			<polygon class="st109" points="146.59,223.22 156.06,224.42 156.06,226.63 146.81,225.51 			"/>
			
				<linearGradient id="SVGID_15_" gradientUnits="userSpaceOnUse" x1="12041.0068" y1="-17175.6855" x2="12044.7129" y2="-17222.873" gradientTransform="matrix(0.0283 0 0 -0.0283 -180.1309 -259.9699)">
				<stop  offset="0" style="stop-color:#CDBFCE"/>
				<stop  offset="1" style="stop-color:#A2A2BC"/>
			</linearGradient>
			<polygon class="st110" points="156.06,226.63 156.06,228.07 164.71,227.08 165.31,225.51 			"/>
			
				<linearGradient id="SVGID_16_" gradientUnits="userSpaceOnUse" x1="11716.0801" y1="-17175.9824" x2="11719.7354" y2="-17233.0117" gradientTransform="matrix(0.0283 0 0 -0.0283 -180.1309 -259.9699)">
				<stop  offset="0" style="stop-color:#D2C0CC"/>
				<stop  offset="1" style="stop-color:#A2A2BC"/>
			</linearGradient>
			<polygon class="st111" points="156.06,226.63 156.06,228.07 147.41,227.08 146.81,225.51 			"/>
			<polygon class="st112" points="177.27,181.01 172.76,177.05 170.74,175.73 175.13,179.56 			"/>
			<polygon class="st113" points="134.85,181.01 139.36,177.05 141.38,175.73 136.98,179.56 			"/>
		</g>
	</g>
</g>
</svg>
