<?xml version="1.0" encoding="utf-8"?>
<!-- Generator: Adobe Illustrator 25.3.1, SVG Export Plug-In . SVG Version: 6.00 Build 0)  -->
<svg version="1.1" id="圖層_1" xmlns="http://www.w3.org/2000/svg" xmlns:xlink="http://www.w3.org/1999/xlink" x="0px" y="0px"
	 viewBox="0 0 240 240" style="enable-background:new 0 0 240 240;" xml:space="preserve">
<style type="text/css">
	.st0{fill:#A8A8A8;}
	.st1{fill:#E3A98C;}
	.st2{fill:#FFD1BA;}
	.st3{fill:#CECECE;}
	.st4{fill:#C4C4C4;}
	.st5{fill:#D3D3D3;}
	.st6{fill:#FFFFFF;}
	.st7{fill:#EDEDED;}
	.st8{fill:#EAEAEA;}
</style>
<g>
	<path class="st0" d="M11.81,142.7l79.55,39.77c5.36,2.68,14.05,2.68,19.41,0l117.42-58.71c5.36-2.68,5.36-7.03,0-9.71l-79.55-39.77
		c-5.36-2.68-14.05-2.68-19.41,0L11.81,132.99C6.45,135.67,6.45,140.02,11.81,142.7z"/>
	<polygon class="st1" points="26.3,125.75 125.26,175.22 165.09,155.31 165.09,138.56 66.13,105.83 	"/>
	<polygon class="st2" points="26.3,108.99 125.26,158.47 165.09,138.56 66.13,89.08 	"/>
	<polygon class="st3" points="27.42,125.19 126.38,174.67 166.21,154.75 166.21,138 67.25,105.27 	"/>
	<polygon class="st4" points="26.3,125.75 125.26,175.22 165.09,155.31 165.09,138.56 66.13,105.83 	"/>
	<polygon class="st0" points="7.79,121.09 7.79,137.14 94.05,171.84 125.26,175.22 125.26,158.47 	"/>
	<polygon class="st0" points="232.03,103.25 232.03,117.81 180.23,143.96 173.98,130.03 	"/>
	<path class="st5" d="M11.81,125.95l79.55,39.77c5.36,2.68,14.05,2.68,19.41,0l117.42-58.71c5.36-2.68,5.36-7.03,0-9.71
		l-79.55-39.77c-5.36-2.68-14.05-2.68-19.41,0L11.81,116.24C6.45,118.92,6.45,123.27,11.81,125.95z"/>
	<polygon class="st6" points="27.42,108.44 126.38,157.92 166.21,138 67.25,88.52 	"/>
	<polygon class="st7" points="26.3,108.99 125.26,158.47 165.09,138.56 66.13,89.08 	"/>
	<ellipse class="st8" cx="138.45" cy="74.16" rx="0.94" ry="0.65"/>
	<ellipse class="st8" cx="120" cy="83.26" rx="0.94" ry="0.65"/>
	<ellipse class="st8" cx="100.26" cy="93.71" rx="0.94" ry="0.65"/>
	<ellipse class="st8" cx="158.19" cy="83.29" rx="0.94" ry="0.65"/>
	<ellipse class="st8" cx="139.74" cy="92.39" rx="0.94" ry="0.65"/>
	<ellipse class="st8" cx="120" cy="102.84" rx="0.94" ry="0.65"/>
	<ellipse class="st8" cx="177.94" cy="92.42" rx="0.94" ry="0.65"/>
	<ellipse class="st8" cx="159.48" cy="101.52" rx="0.94" ry="0.65"/>
	<ellipse class="st8" cx="139.74" cy="111.97" rx="0.94" ry="0.65"/>
	<ellipse class="st8" cx="197.68" cy="101.55" rx="0.94" ry="0.65"/>
	<ellipse class="st8" cx="179.23" cy="110.65" rx="0.94" ry="0.65"/>
	<ellipse class="st8" cx="159.48" cy="121.1" rx="0.94" ry="0.65"/>
	<ellipse class="st8" cx="35.53" cy="123.86" rx="0.94" ry="0.65"/>
	<ellipse class="st8" cx="55.28" cy="132.99" rx="0.94" ry="0.65"/>
	<ellipse class="st8" cx="75.02" cy="142.12" rx="0.94" ry="0.65"/>
	<ellipse class="st8" cx="94.76" cy="151.25" rx="0.94" ry="0.65"/>
</g>
</svg>
