<?xml version="1.0" encoding="utf-8"?>
<!-- Generator: Adobe Illustrator 25.3.1, SVG Export Plug-In . SVG Version: 6.00 Build 0)  -->
<svg version="1.1" id="圖層_1" xmlns="http://www.w3.org/2000/svg" xmlns:xlink="http://www.w3.org/1999/xlink" x="0px" y="0px"
	 viewBox="0 0 240 240" style="enable-background:new 0 0 240 240;" xml:space="preserve">
<style type="text/css">
	.st0{fill:#947B63;}
	.st1{fill:#B59679;}
	.st2{fill:#87705A;}
	.st3{fill:#F2DDC9;}
	.st4{fill:#7D6854;}
	.st5{fill:#E8D4C1;}
	.st6{fill:#FFE9D4;}
</style>
<g>
	<polygon class="st0" points="232.51,123.65 232.51,77.76 226.84,80.6 226.84,126.49 	"/>
	<polygon class="st0" points="232.13,141.03 232.13,95.15 226.46,97.98 226.46,143.87 	"/>
	<g>
		<polygon class="st1" points="136.3,34.74 227.59,80.39 232.6,77.89 141.3,32.24 		"/>
		<g>
			<polygon class="st2" points="227.56,125.67 227.56,80.46 136.26,34.8 136.26,80.01 			"/>
			<polygon class="st3" points="222.43,123.11 222.43,80.16 141.39,39.64 141.39,82.58 			"/>
		</g>
		<g>
			<polygon class="st4" points="98.7,207.76 98.7,189.69 7.4,144.03 7.4,162.1 			"/>
			<polygon class="st5" points="94.67,203.54 94.67,189.88 11.43,148.25 11.43,161.91 			"/>
		</g>
		<g>
			<polygon class="st0" points="98.7,207.76 227.56,143.32 227.56,125.25 98.7,189.69 			"/>
			<polygon class="st6" points="102.63,203.55 223.63,143.04 223.63,129.46 102.63,189.97 			"/>
		</g>
		<g>
			<polygon class="st1" points="98.7,189.71 227.56,125.28 136.26,79.63 7.4,144.06 			"/>
		</g>
	</g>
</g>
</svg>
