<?xml version="1.0" encoding="utf-8"?>
<!-- Generator: Adobe Illustrator 25.3.1, SVG Export Plug-In . SVG Version: 6.00 Build 0)  -->
<svg version="1.1" id="圖層_1" xmlns="http://www.w3.org/2000/svg" xmlns:xlink="http://www.w3.org/1999/xlink" x="0px" y="0px"
	 viewBox="0 0 240 240" style="enable-background:new 0 0 240 240;" xml:space="preserve">
<style type="text/css">
	.st0{fill:#2E3F51;}
	.st1{fill:#827C6A;}
	.st2{fill:#B0A994;}
	.st3{fill:#DDD6C3;}
	.st4{fill:#436080;}
	.st5{fill:#384C62;}
</style>
<g transform="matrix( 0.9192352294921875, 0, 0, 0.9192352294921875, 2046.35,902.6) ">
	<g>
		<g id="big_furnitureset_0_Layer32_0_MEMBER_0_FILL">
			<path class="st0" d="M-2082.12-788.09l0.03-0.03v-6.59l-121.32-69.26v6.55l0.33,0.2L-2082.12-788.09z"/>
			<path class="st1" d="M-2082.45-779.84v-0.13l-127.94-73.1v-21.17l-7.7-4.52v39.32l135.64,77.68V-779.84z"/>
			<path class="st2" d="M-2082.35-779.9l-0.1,0.07v18.09l109.33-62.61v-17.59L-2082.35-779.9 M-2107.12-918.59l5.73,3.28v-21.2
				l-109.01,62.28v21.17l6.98-3.96v-0.39v-6.55L-2107.12-918.59z"/>
			<path class="st3" d="M-2101.38-936.51l-7.8-4.46l-108.91,62.22l7.7,4.52L-2101.38-936.51 M-1986.38-849.56l0.03,6.95
				l-95.74,54.49v0.03h-0.03l-120.96-69.13l-0.33,0.2l-6.98,3.96l127.94,73.1l0.1,0.07l109.23-62.05L-1986.38-849.56z"/>
			<path class="st4" d="M-2101.38-915.32l-5.73-3.28l-96.29,54.62l121.32,69.26l95.67-54.88l-114.87-65.66l-0.1,0.07V-915.32z"/>
			<path class="st5" d="M-1986.35-842.61l-0.03-6.95l-0.03-0.03l-95.67,54.88v6.59L-1986.35-842.61z"/>
		</g>
	</g>
</g>
</svg>
