<?xml version="1.0" encoding="utf-8"?>
<!-- Generator: Adobe Illustrator 25.3.1, SVG Export Plug-In . SVG Version: 6.00 Build 0)  -->
<svg version="1.1" id="圖層_1" xmlns="http://www.w3.org/2000/svg" xmlns:xlink="http://www.w3.org/1999/xlink" x="0px" y="0px"
	 viewBox="0 0 240 240" style="enable-background:new 0 0 240 240;" xml:space="preserve">
<style type="text/css">
	.st0{fill:#5E5E5E;}
	.st1{fill:#E3A98C;}
	.st2{fill:#FFD1BA;}
	.st3{fill:#7D7D7D;}
	.st4{fill:#9E9E9E;}
	.st5{fill:#8F8F8F;}
	.st6{fill:#ABABAB;}
	.st7{fill:#CFCFCF;}
</style>
<g>
	<path class="st0" d="M11.81,142.7l79.55,39.77c5.36,2.68,14.05,2.68,19.41,0l117.42-58.71c5.36-2.68,5.36-7.03,0-9.71l-79.55-39.77
		c-5.36-2.68-14.05-2.68-19.41,0L11.81,132.99C6.45,135.67,6.45,140.02,11.81,142.7z"/>
	<polygon class="st1" points="26.3,125.75 125.26,175.22 165.09,155.31 165.09,138.56 66.13,105.83 	"/>
	<polygon class="st2" points="26.3,108.99 125.26,158.47 165.09,138.56 66.13,89.08 	"/>
	<polygon class="st3" points="27.42,125.19 126.38,174.67 166.21,154.75 166.21,138 67.25,105.27 	"/>
	<polygon class="st4" points="26.3,125.75 125.26,175.22 165.09,155.31 165.09,138.56 66.13,105.83 	"/>
	<polygon class="st0" points="7.79,121.09 7.79,137.14 94.05,171.84 125.26,175.22 125.26,158.47 	"/>
	<polygon class="st0" points="232.03,103.25 232.03,117.81 180.23,143.96 173.98,130.03 	"/>
	<path class="st5" d="M11.81,125.95l79.55,39.77c5.36,2.68,14.05,2.68,19.41,0l117.42-58.71c5.36-2.68,5.36-7.03,0-9.71
		l-79.55-39.77c-5.36-2.68-14.05-2.68-19.41,0L11.81,116.24C6.45,118.92,6.45,123.27,11.81,125.95z"/>
	<polygon class="st6" points="27.42,108.44 126.38,157.92 166.21,138 67.25,88.52 	"/>
	<polygon class="st7" points="26.3,108.99 125.26,158.47 165.09,138.56 66.13,89.08 	"/>
</g>
</svg>
