<?xml version="1.0" encoding="utf-8"?>
<!-- Generator: Adobe Illustrator 25.3.1, SVG Export Plug-In . SVG Version: 6.00 Build 0)  -->
<svg version="1.1" id="圖層_1" xmlns="http://www.w3.org/2000/svg" xmlns:xlink="http://www.w3.org/1999/xlink" x="0px" y="0px"
	 viewBox="0 0 240 240" style="enable-background:new 0 0 240 240;" xml:space="preserve">
<style type="text/css">
	.st0{fill-rule:evenodd;clip-rule:evenodd;fill:#F9DFAB;}
	.st1{fill-rule:evenodd;clip-rule:evenodd;fill:url(#SVGID_1_);}
	.st2{fill-rule:evenodd;clip-rule:evenodd;fill:#FDEFC6;}
	.st3{fill-rule:evenodd;clip-rule:evenodd;fill:#D7A381;}
	.st4{fill-rule:evenodd;clip-rule:evenodd;fill:url(#SVGID_2_);}
</style>
<g>
	<polygon class="st0" points="32.11,25.57 178.41,110.04 178.41,231.45 87.61,179.03 58.37,154.56 58.37,146.97 58.37,139.38 
		58.37,131.8 58.37,116.3 60.35,115.16 58.37,114.02 32.11,86.28 32.11,54.47 32.11,52.59 34.08,51.45 32.11,50.31 32.11,34.6 
		33.96,33.37 32.11,32.33 	"/>
	<linearGradient id="SVGID_1_" gradientUnits="userSpaceOnUse" x1="216.3006" y1="162.2332" x2="178.4075" y2="162.2332">
		<stop  offset="0" style="stop-color:#D7A381"/>
		<stop  offset="1" style="stop-color:#DFB18C"/>
	</linearGradient>
	<polygon class="st1" points="207.89,93.01 178.41,110.04 178.41,231.45 207.89,214.43 	"/>
	<polygon class="st2" points="207.89,93.01 178.41,110.04 32.11,25.57 61.59,8.55 	"/>
	<polygon class="st3" points="183.03,228.78 183.03,114.09 181.06,115.23 181.06,229.92 	"/>
	<linearGradient id="SVGID_2_" gradientUnits="userSpaceOnUse" x1="19.161" y1="226.4902" x2="67.7732" y2="85.3103">
		<stop  offset="0" style="stop-color:#D7A381"/>
		<stop  offset="1" style="stop-color:#DFB18C"/>
	</linearGradient>
	<polygon class="st4" points="49.58,157.07 32.11,146.98 32.11,139.39 32.11,131.81 32.11,124.22 32.11,116.63 32.11,101.14 
		34.08,100 32.11,98.86 32.11,86.28 32.11,78.69 32.11,54.47 34.75,55.99 34.75,29.91 41.07,33.56 47.58,63.39 64.47,73.14 
		87.61,179.03 	"/>
	<path class="st3" d="M178.41,116.76l4.62-2.67l0,2.28l-4.63,2.67V116.76L178.41,116.76z M178.41,134.77l4.62-2.67l0,2.28
		l-4.63,2.67V134.77L178.41,134.77z M178.41,183.32l4.63-2.67l0,2.28l-4.63,2.67V183.32z"/>
	<polygon class="st2" points="33.83,51.3 32.11,50.31 32.11,50.31 	"/>
	<path class="st2" d="M178.41,116.76L45.46,40l-2.84,0.64l135.79,78.4l0.56-0.32l-0.56-0.32V116.76L178.41,116.76z M38.69,36.1
		l-4.73-2.73l-1.84,1.22l2.62,1.51H38.69z"/>
	<polygon class="st3" points="178.41,116.76 45.46,40 38.69,36.1 34.68,33.78 33.26,34.6 35.85,36.1 34.75,36.1 42.62,40.64 
		43.41,40.47 178.41,118.4 179.33,117.41 	"/>
	<path class="st2" d="M178.41,134.77L49.09,60.11l-1.98,1.14l131.29,75.8l0.56-0.32l-0.56-0.32V134.77L178.41,134.77z M38.69,54.11
		l-4.73-2.73l-1.84,1.22l2.62,1.51H38.69z"/>
	<polygon class="st3" points="178.41,134.77 49.09,60.11 38.69,54.11 34.68,51.79 33.26,52.61 35.85,54.11 34.74,54.11 47.12,61.25 
		47.67,60.94 178.41,136.41 179.33,135.42 	"/>
	<polygon class="st2" points="178.41,183.32 78.22,125.48 76.24,126.62 76.24,126.62 178.41,185.61 178.97,185.28 178.41,184.96 	
		"/>
	<polygon class="st3" points="178.41,183.32 78.22,125.48 34.68,100.34 33.97,99.93 32.13,101.15 76.24,126.62 76.24,126.62 
		76.8,126.3 178.41,184.96 179.33,183.97 	"/>
</g>
</svg>
