<?xml version="1.0" encoding="utf-8"?>
<!-- Generator: Adobe Illustrator 25.3.1, SVG Export Plug-In . SVG Version: 6.00 Build 0)  -->
<svg version="1.1" id="圖層_1" xmlns="http://www.w3.org/2000/svg" xmlns:xlink="http://www.w3.org/1999/xlink" x="0px" y="0px"
	 viewBox="0 0 240 240" style="enable-background:new 0 0 240 240;" xml:space="preserve">
<style type="text/css">
	.st0{fill-rule:evenodd;clip-rule:evenodd;fill:#F0EBC1;}
	.st1{fill-rule:evenodd;clip-rule:evenodd;fill:url(#SVGID_1_);}
	.st2{fill-rule:evenodd;clip-rule:evenodd;fill:#EDDDA9;}
	.st3{fill-rule:evenodd;clip-rule:evenodd;fill:#ECDFAA;}
	.st4{fill-rule:evenodd;clip-rule:evenodd;fill:url(#SVGID_2_);}
	.st5{fill-rule:evenodd;clip-rule:evenodd;fill:url(#SVGID_3_);}
	.st6{fill-rule:evenodd;clip-rule:evenodd;fill:url(#SVGID_4_);}
	.st7{fill-rule:evenodd;clip-rule:evenodd;fill:url(#SVGID_5_);}
	.st8{fill-rule:evenodd;clip-rule:evenodd;fill:url(#SVGID_6_);}
	.st9{fill-rule:evenodd;clip-rule:evenodd;fill:url(#SVGID_7_);}
	.st10{fill-rule:evenodd;clip-rule:evenodd;fill:url(#SVGID_8_);}
	.st11{fill-rule:evenodd;clip-rule:evenodd;fill:url(#SVGID_9_);}
	.st12{fill-rule:evenodd;clip-rule:evenodd;fill:url(#SVGID_10_);}
	.st13{fill-rule:evenodd;clip-rule:evenodd;fill:url(#SVGID_11_);}
	.st14{fill-rule:evenodd;clip-rule:evenodd;fill:url(#SVGID_12_);}
	.st15{fill-rule:evenodd;clip-rule:evenodd;fill:url(#SVGID_13_);}
	.st16{fill-rule:evenodd;clip-rule:evenodd;fill:url(#SVGID_14_);}
	.st17{fill-rule:evenodd;clip-rule:evenodd;fill:url(#SVGID_15_);}
	.st18{fill-rule:evenodd;clip-rule:evenodd;fill:url(#SVGID_16_);}
	.st19{fill-rule:evenodd;clip-rule:evenodd;fill:url(#SVGID_17_);}
	.st20{fill-rule:evenodd;clip-rule:evenodd;fill:url(#SVGID_18_);}
	.st21{fill-rule:evenodd;clip-rule:evenodd;fill:url(#SVGID_19_);}
	.st22{fill-rule:evenodd;clip-rule:evenodd;fill:url(#SVGID_20_);}
	.st23{fill-rule:evenodd;clip-rule:evenodd;fill:url(#SVGID_21_);}
	.st24{fill-rule:evenodd;clip-rule:evenodd;fill:url(#SVGID_22_);}
	.st25{fill-rule:evenodd;clip-rule:evenodd;fill:url(#SVGID_23_);}
	.st26{fill-rule:evenodd;clip-rule:evenodd;fill:url(#SVGID_24_);}
	.st27{fill-rule:evenodd;clip-rule:evenodd;fill:url(#SVGID_25_);}
	.st28{fill-rule:evenodd;clip-rule:evenodd;fill:url(#SVGID_26_);}
	.st29{fill-rule:evenodd;clip-rule:evenodd;fill:url(#SVGID_27_);}
	.st30{fill-rule:evenodd;clip-rule:evenodd;fill:url(#SVGID_28_);}
	.st31{fill-rule:evenodd;clip-rule:evenodd;fill:url(#SVGID_29_);}
	.st32{fill-rule:evenodd;clip-rule:evenodd;fill:url(#SVGID_30_);}
	.st33{fill-rule:evenodd;clip-rule:evenodd;fill:#E1CCAF;}
	.st34{fill-rule:evenodd;clip-rule:evenodd;fill:#D8B88F;}
	.st35{fill-rule:evenodd;clip-rule:evenodd;fill:#E6D09E;}
	.st36{fill-rule:evenodd;clip-rule:evenodd;fill:url(#SVGID_31_);}
	.st37{fill-rule:evenodd;clip-rule:evenodd;fill:#E7DCBC;}
</style>
<g>
	<polygon class="st0" points="26.98,21.97 25.85,24.6 25.85,120.65 27.58,121.64 34.3,35.4 31.54,20 	"/>
	<linearGradient id="SVGID_1_" gradientUnits="userSpaceOnUse" x1="35.0347" y1="19.3401" x2="34.3401" y2="20.5932">
		<stop  offset="0" style="stop-color:#F3E8B5"/>
		<stop  offset="1" style="stop-color:#F2EFCA"/>
	</linearGradient>
	<polygon class="st1" points="38.22,16.88 35.68,16.44 34.23,16.67 28.66,19.79 26.98,21.97 28.64,22.96 40.02,22.24 	"/>
	<polygon class="st2" points="37,18.24 208.22,119.08 211.02,116.64 38.22,16.88 36.81,16.97 	"/>
	<polygon class="st3" points="32,23.1 201.98,129.61 209.61,116.73 36.81,16.97 31.54,20 	"/>
	<g>
		<polygon class="st3" points="32,23.1 201.98,129.61 206.95,118.24 34.15,18.48 31.54,20 		"/>
		<linearGradient id="SVGID_2_" gradientUnits="userSpaceOnUse" x1="183.5971" y1="111.1423" x2="30.6749" y2="15.5859">
			<stop  offset="0" style="stop-color:#ECDFAB"/>
			<stop  offset="1" style="stop-color:#ECDFAB"/>
		</linearGradient>
		<polygon class="st4" points="31.9,23.44 201.6,129.73 206.82,118.31 34.03,18.55 31.4,20.14 		"/>
		<linearGradient id="SVGID_3_" gradientUnits="userSpaceOnUse" x1="183.2852" y1="111.2027" x2="30.5269" y2="15.7488">
			<stop  offset="0" style="stop-color:#ECDFAC"/>
			<stop  offset="1" style="stop-color:#EDE0AC"/>
		</linearGradient>
		<polygon class="st5" points="31.8,23.78 201.21,129.85 206.7,118.39 33.9,18.62 31.27,20.28 		"/>
		<linearGradient id="SVGID_4_" gradientUnits="userSpaceOnUse" x1="182.9733" y1="111.2632" x2="30.379" y2="15.9117">
			<stop  offset="0" style="stop-color:#ECE0AD"/>
			<stop  offset="1" style="stop-color:#EDE0AE"/>
		</linearGradient>
		<polygon class="st6" points="31.7,24.12 200.83,129.98 206.57,118.46 33.78,18.7 31.13,20.42 		"/>
		<linearGradient id="SVGID_5_" gradientUnits="userSpaceOnUse" x1="182.6614" y1="111.3236" x2="30.2311" y2="16.0746">
			<stop  offset="0" style="stop-color:#ECE0AE"/>
			<stop  offset="1" style="stop-color:#EDE1AF"/>
		</linearGradient>
		<polygon class="st7" points="31.6,24.47 200.45,130.1 206.45,118.53 33.66,18.77 30.99,20.56 		"/>
		<linearGradient id="SVGID_6_" gradientUnits="userSpaceOnUse" x1="182.3495" y1="111.384" x2="30.0831" y2="16.2375">
			<stop  offset="0" style="stop-color:#ECE0AF"/>
			<stop  offset="1" style="stop-color:#EDE1B0"/>
		</linearGradient>
		<polygon class="st8" points="31.5,24.81 200.07,130.22 206.33,118.6 33.53,18.84 30.85,20.7 		"/>
		<linearGradient id="SVGID_7_" gradientUnits="userSpaceOnUse" x1="182.0376" y1="111.4445" x2="29.9352" y2="16.4003">
			<stop  offset="0" style="stop-color:#ECE0B0"/>
			<stop  offset="1" style="stop-color:#EEE2B1"/>
		</linearGradient>
		<polygon class="st9" points="31.39,25.15 199.69,130.34 206.2,118.68 33.41,18.91 30.71,20.84 		"/>
		<linearGradient id="SVGID_8_" gradientUnits="userSpaceOnUse" x1="181.7222" y1="111.5104" x2="29.7838" y2="16.5688">
			<stop  offset="0" style="stop-color:#ECE0B1"/>
			<stop  offset="1" style="stop-color:#EEE2B3"/>
		</linearGradient>
		<polygon class="st10" points="31.29,25.49 199.3,130.46 206.08,118.75 33.28,18.98 30.57,20.99 		"/>
		<linearGradient id="SVGID_9_" gradientUnits="userSpaceOnUse" x1="181.4003" y1="111.5869" x2="29.6258" y2="16.7477">
			<stop  offset="0" style="stop-color:#ECE1B2"/>
			<stop  offset="1" style="stop-color:#EEE3B4"/>
		</linearGradient>
		<polygon class="st11" points="31.19,25.84 198.92,130.58 205.96,118.82 33.16,19.06 30.44,21.13 		"/>
		<linearGradient id="SVGID_10_" gradientUnits="userSpaceOnUse" x1="181.0783" y1="111.6634" x2="29.4679" y2="16.9267">
			<stop  offset="0" style="stop-color:#ECE1B3"/>
			<stop  offset="1" style="stop-color:#EFE3B5"/>
		</linearGradient>
		<polygon class="st12" points="31.09,26.18 198.54,130.71 205.83,118.89 33.03,19.13 30.3,21.27 		"/>
		<linearGradient id="SVGID_11_" gradientUnits="userSpaceOnUse" x1="180.8445" y1="111.7949" x2="29.3084" y2="17.1047">
			<stop  offset="0" style="stop-color:#ECE1B4"/>
			<stop  offset="1" style="stop-color:#EFE4B6"/>
		</linearGradient>
		<polygon class="st13" points="30.99,26.52 198.16,130.83 205.71,118.97 32.91,19.2 30.16,21.41 		"/>
		<linearGradient id="SVGID_12_" gradientUnits="userSpaceOnUse" x1="180.666" y1="111.961" x2="29.148" y2="17.2821">
			<stop  offset="0" style="stop-color:#EDE1B6"/>
			<stop  offset="1" style="stop-color:#EFE4B8"/>
		</linearGradient>
		<polygon class="st14" points="30.89,26.86 197.77,130.95 205.59,119.04 32.79,19.27 30.02,21.55 		"/>
		<linearGradient id="SVGID_13_" gradientUnits="userSpaceOnUse" x1="180.4874" y1="112.1271" x2="28.9876" y2="17.4595">
			<stop  offset="0" style="stop-color:#EDE1B7"/>
			<stop  offset="1" style="stop-color:#EFE5B9"/>
		</linearGradient>
		<polygon class="st15" points="30.79,27.21 197.39,131.07 205.46,119.11 32.66,19.35 29.88,21.69 		"/>
		<linearGradient id="SVGID_14_" gradientUnits="userSpaceOnUse" x1="180.3089" y1="112.2932" x2="28.8271" y2="17.6369">
			<stop  offset="0" style="stop-color:#EDE1B8"/>
			<stop  offset="1" style="stop-color:#F0E5BA"/>
		</linearGradient>
		<polygon class="st16" points="30.69,27.55 197.01,131.19 205.34,119.18 32.54,19.42 29.74,21.83 		"/>
		<linearGradient id="SVGID_15_" gradientUnits="userSpaceOnUse" x1="180.1304" y1="112.4593" x2="28.6667" y2="17.8143">
			<stop  offset="0" style="stop-color:#EDE2B9"/>
			<stop  offset="1" style="stop-color:#F0E6BB"/>
		</linearGradient>
		<polygon class="st17" points="30.59,27.89 196.63,131.32 205.21,119.26 32.41,19.49 29.61,21.98 		"/>
		<linearGradient id="SVGID_16_" gradientUnits="userSpaceOnUse" x1="179.9518" y1="112.6254" x2="28.5063" y2="17.9917">
			<stop  offset="0" style="stop-color:#EDE2BA"/>
			<stop  offset="1" style="stop-color:#F0E6BD"/>
		</linearGradient>
		<polygon class="st18" points="30.49,28.23 196.25,131.44 205.09,119.33 32.29,19.56 29.47,22.12 		"/>
		<linearGradient id="SVGID_17_" gradientUnits="userSpaceOnUse" x1="179.7733" y1="112.7914" x2="28.3459" y2="18.1691">
			<stop  offset="0" style="stop-color:#EDE2BB"/>
			<stop  offset="1" style="stop-color:#F1E7BE"/>
		</linearGradient>
		<polygon class="st19" points="30.39,28.58 195.86,131.56 204.97,119.4 32.16,19.64 29.33,22.26 		"/>
		<linearGradient id="SVGID_18_" gradientUnits="userSpaceOnUse" x1="179.5948" y1="112.9575" x2="28.1855" y2="18.3465">
			<stop  offset="0" style="stop-color:#EDE2BC"/>
			<stop  offset="1" style="stop-color:#F1E7BF"/>
		</linearGradient>
		<polygon class="st20" points="30.29,28.92 195.48,131.68 204.84,119.48 32.04,19.71 29.19,22.4 		"/>
		<linearGradient id="SVGID_19_" gradientUnits="userSpaceOnUse" x1="179.4162" y1="113.1236" x2="28.0251" y2="18.5239">
			<stop  offset="0" style="stop-color:#EDE2BD"/>
			<stop  offset="1" style="stop-color:#F1E8C0"/>
		</linearGradient>
		<polygon class="st21" points="30.19,29.26 195.1,131.8 204.72,119.55 31.92,19.78 29.05,22.54 		"/>
		<linearGradient id="SVGID_20_" gradientUnits="userSpaceOnUse" x1="179.2377" y1="113.2897" x2="27.8646" y2="18.7013">
			<stop  offset="0" style="stop-color:#EDE3BE"/>
			<stop  offset="1" style="stop-color:#F1E8C2"/>
		</linearGradient>
		<polygon class="st22" points="30.09,29.6 194.72,131.93 204.6,119.62 31.79,19.85 28.92,22.68 		"/>
		<linearGradient id="SVGID_21_" gradientUnits="userSpaceOnUse" x1="179.0592" y1="113.4558" x2="27.7042" y2="18.8787">
			<stop  offset="0" style="stop-color:#EDE3BF"/>
			<stop  offset="1" style="stop-color:#F2E9C3"/>
		</linearGradient>
		<polygon class="st23" points="29.99,29.95 194.34,132.05 204.47,119.69 31.67,19.92 28.78,22.82 		"/>
		<linearGradient id="SVGID_22_" gradientUnits="userSpaceOnUse" x1="178.8806" y1="113.6219" x2="27.5438" y2="19.0561">
			<stop  offset="0" style="stop-color:#EDE3C0"/>
			<stop  offset="1" style="stop-color:#F2E9C4"/>
		</linearGradient>
		<polygon class="st24" points="29.89,30.29 193.95,132.17 204.35,119.77 31.54,20 28.64,22.96 		"/>
	</g>
	<linearGradient id="SVGID_23_" gradientUnits="userSpaceOnUse" x1="196.3095" y1="125.7731" x2="45.3145" y2="31.421">
		<stop  offset="0" style="stop-color:#E2D5B7"/>
		<stop  offset="1" style="stop-color:#EDE7C2"/>
	</linearGradient>
	<polygon class="st25" points="27.58,26.59 199.64,129.11 201.99,127.74 201.46,122.74 28.64,22.96 	"/>
	<linearGradient id="SVGID_24_" gradientUnits="userSpaceOnUse" x1="208.2307" y1="122.428" x2="209.3945" y2="121.7561">
		<stop  offset="0" style="stop-color:#DBC5A5"/>
		<stop  offset="1" style="stop-color:#D7C098"/>
	</linearGradient>
	<polygon class="st26" points="206.84,122.72 209.61,116.73 212.23,118.66 213.48,123.3 206.6,128.27 	"/>
	<linearGradient id="SVGID_25_" gradientUnits="userSpaceOnUse" x1="209.9543" y1="122.3161" x2="209.9543" y2="210.5607">
		<stop  offset="0" style="stop-color:#C5AB89"/>
		<stop  offset="0.44" style="stop-color:#B8A07F"/>
		<stop  offset="0.67" style="stop-color:#A49277"/>
		<stop  offset="1" style="stop-color:#6B5D40"/>
	</linearGradient>
	<polygon class="st27" points="213.48,123.3 214.15,122.32 214.15,219.05 205.76,218.87 	"/>
	<linearGradient id="SVGID_26_" gradientUnits="userSpaceOnUse" x1="208.5611" y1="131.116" x2="212.8738" y2="213.4064">
		<stop  offset="0" style="stop-color:#D6B99C"/>
		<stop  offset="0.3" style="stop-color:#D0B596"/>
		<stop  offset="0.57" style="stop-color:#B59E83"/>
		<stop  offset="0.72" style="stop-color:#A49077"/>
		<stop  offset="1" style="stop-color:#736A4B"/>
	</linearGradient>
	<polygon class="st28" points="207.95,126.49 213.48,123.3 214.15,219.05 207.95,221.01 	"/>
	<linearGradient id="SVGID_27_" gradientUnits="userSpaceOnUse" x1="200.5847" y1="145.8121" x2="200.5847" y2="221.004">
		<stop  offset="0" style="stop-color:#D6C0A4"/>
		<stop  offset="0.51" style="stop-color:#C0AA93"/>
		<stop  offset="1" style="stop-color:#7F7158"/>
	</linearGradient>
	<polygon class="st29" points="204.14,127.44 207.95,126.49 207.95,221.01 193.22,223.56 	"/>
	<linearGradient id="SVGID_28_" gradientUnits="userSpaceOnUse" x1="204.4572" y1="148.392" x2="200.9349" y2="215.6005">
		<stop  offset="0" style="stop-color:#D1BCA7"/>
		<stop  offset="0.4" style="stop-color:#CFBAAA"/>
		<stop  offset="1" style="stop-color:#A28F7E"/>
	</linearGradient>
	<polygon class="st30" points="202.85,126.31 206.6,127.38 207.95,221.01 193.22,223.56 	"/>
	<linearGradient id="SVGID_29_" gradientUnits="userSpaceOnUse" x1="26.2898" y1="114.0113" x2="176.0691" y2="132.4019">
		<stop  offset="0" style="stop-color:#EDE3BE"/>
		<stop  offset="0.13" style="stop-color:#EBDFBC"/>
		<stop  offset="1" style="stop-color:#DDC8AF"/>
	</linearGradient>
	<polygon class="st31" points="202.85,221.89 202.85,126.31 27.58,25.12 27.58,121.64 193.22,223.56 	"/>
	<linearGradient id="SVGID_30_" gradientUnits="userSpaceOnUse" x1="201.2053" y1="123.6905" x2="203.3046" y2="126.8027">
		<stop  offset="0" style="stop-color:#DFCFB6"/>
		<stop  offset="1" style="stop-color:#D9C7AF"/>
	</linearGradient>
	<polygon class="st32" points="200.43,126.39 201.46,122.74 204.19,124.28 204.14,127.44 	"/>
	<polygon class="st33" points="204.19,124.28 206.84,122.72 207.95,126.49 204.14,127.44 	"/>
	<polygon class="st34" points="212.3,119.57 213.26,119.01 214.15,122.32 213.48,123.3 	"/>
	<polygon class="st35" points="213.26,119.01 211.02,116.64 209.61,116.73 212.3,119.57 	"/>
	<linearGradient id="SVGID_31_" gradientUnits="userSpaceOnUse" x1="206.6141" y1="121.377" x2="207.5531" y2="120.4379">
		<stop  offset="0" style="stop-color:#ECDFBB"/>
		<stop  offset="1" style="stop-color:#E6D4A5"/>
	</linearGradient>
	<polygon class="st36" points="209.61,116.73 204.35,119.77 206.84,122.72 212.3,119.57 	"/>
	<polygon class="st37" points="204.35,119.77 204.19,124.28 206.84,122.72 	"/>
</g>
</svg>
