<?xml version="1.0" encoding="utf-8"?>
<!-- Generator: Adobe Illustrator 25.3.1, SVG Export Plug-In . SVG Version: 6.00 Build 0)  -->
<svg version="1.1" id="圖層_1" xmlns="http://www.w3.org/2000/svg" xmlns:xlink="http://www.w3.org/1999/xlink" x="0px" y="0px"
	 viewBox="0 0 240 240" style="enable-background:new 0 0 240 240;" xml:space="preserve">
<style type="text/css">
	.st0{opacity:0.1;}
	.st1{fill:#CCC9C7;}
	.st2{fill:#D1CECC;}
	.st3{fill:#FFFCFA;}
	.st4{fill:#C2A77E;}
	.st5{fill:#B3B0AE;}
	.st6{fill:#E6C494;}
	.st7{fill:#F0ECEA;}
	.st8{fill:#999694;}
	.st9{fill:#FFFBF9;}
	.st10{fill:#D6BE9B;}
	.st11{fill:#F5D9B1;}
	.st12{fill:#C4AE8D;}
	.st13{fill:#FFE6BF;}
	.st14{fill:#FFFBF5;}
	.st15{fill:#FFDDA8;}
	.st16{fill:#FFF3E0;}
	.st17{fill:#A3A3A3;}
	.st18{fill:#CFCFCF;}
	.st19{fill:#EEF5F4;}
	.st20{fill:#FCDBCA;}
	.st21{fill:#A8806C;}
	.st22{fill:#A9D0E8;}
	.st23{fill:#E8B7A9;}
	.st24{opacity:0.5;clip-path:url(#SVGID_2_);}
	.st25{fill:#FFFFFF;}
</style>
<g>
	<g>
		<polygon class="st0" points="122.54,227.69 148.77,226.67 196.13,204.38 109.77,162.59 77.53,203.96 		"/>
		<g>
			<g>
				<polygon class="st1" points="47.3,189.72 122.54,227.69 122.54,218.2 47.3,180.23 				"/>
				<polygon class="st2" points="47.3,188.7 122.54,226.67 122.54,217.18 47.3,179.21 				"/>
				<polygon class="st3" points="47.33,179.22 122.53,217.22 181.97,187.45 106.73,149.52 				"/>
				<g>
					<polygon class="st4" points="122.54,227.69 181.97,197.97 181.97,187.45 122.54,217.18 					"/>
					<polygon class="st5" points="122.54,227.69 181.97,197.97 181.97,196.95 122.54,226.67 					"/>
				</g>
			</g>
			<polygon class="st6" points="124.47,218.08 188.21,186.2 188.21,125.69 124.47,157.57 			"/>
			<g>
				<g>
					<polygon class="st1" points="43.87,148.05 124.47,188.36 124.47,158.01 43.87,117.7 					"/>
					<polygon class="st7" points="44.6,147.86 123.74,187.43 123.74,157.65 44.6,118.07 					"/>
					<polygon class="st8" points="73.7,144.26 94.64,154.73 94.64,146.85 73.7,136.37 					"/>
					<polygon class="st7" points="77.01,144.67 91.33,151.82 91.33,146.44 77.01,139.28 					"/>
				</g>
				<g>
					<polygon class="st1" points="43.87,178.39 124.47,218.7 124.47,188.36 43.87,148.05 					"/>
					<polygon class="st7" points="44.6,178.2 123.74,217.78 123.74,187.99 44.6,148.41 					"/>
					<polygon class="st8" points="73.7,174.6 94.64,185.07 94.64,177.19 73.7,166.72 					"/>
					<polygon class="st7" points="77.01,175.01 91.33,182.17 91.33,176.78 77.01,169.62 					"/>
				</g>
			</g>
			<polygon class="st9" points="43.87,117.7 124.47,158.01 188.21,125.69 107.61,85.39 			"/>
		</g>
	</g>
	<g>
		<path class="st10" d="M144.16,115.75c9.78,4.89,9.78,12.82,0,17.71c-9.78,4.89-25.64,4.89-35.42,0c-9.78-4.89-9.78-12.82,0-17.71
			C118.52,110.86,134.38,110.86,144.16,115.75z"/>
		<path class="st11" d="M144.16,112.73c9.78,4.89,9.78,12.82,0,17.71c-9.78,4.89-25.64,4.89-35.42,0c-9.78-4.89-9.78-12.82,0-17.71
			C118.52,107.84,134.38,107.84,144.16,112.73z"/>
		<g>
			<path class="st12" d="M128.69,121.33c0.96,0.48,0.96,1.26,0,1.74c-0.96,0.48-2.51,0.48-3.47,0c-0.96-0.48-0.96-1.26,0-1.74
				C126.18,120.85,127.73,120.85,128.69,121.33z"/>
			<rect x="124.5" y="41.47" class="st12" width="4.91" height="80.73"/>
		</g>
		<g>
			<ellipse class="st11" cx="139.15" cy="87.63" rx="0.94" ry="0.47"/>
			<rect x="138.21" y="51.15" class="st11" width="1.87" height="36.49"/>
		</g>
		<g>
			<polygon class="st13" points="130.84,37.9 103.31,50.22 111.57,34.95 115.15,17.72 126.95,12.31 125.04,21.17 			"/>
			<polygon class="st14" points="126.95,12.31 138.51,18.14 126.95,23.14 115.15,17.72 			"/>
			<polygon class="st15" points="127.41,42.55 111.57,34.95 115.15,17.72 126.95,23.14 			"/>
			<polygon class="st13" points="103.31,50.22 127.41,60.07 127.41,42.55 111.57,34.95 			"/>
			<g>
				<polygon class="st16" points="127.41,60.07 149.6,47.24 141.34,35.58 141.34,35.21 127.41,42.4 127.41,42.55 				"/>
				<polygon class="st13" points="138.51,18.14 126.95,23.14 127.41,42.4 141.34,35.21 				"/>
			</g>
		</g>
	</g>
	<g>
		<g>
			<g>
				<polygon class="st17" points="123.63,148.01 121.73,148.87 86.41,129.4 92.09,103.38 93.99,102.52 131.21,121.13 				"/>
				<polygon class="st18" points="121.73,148.87 84.51,130.26 92.09,103.38 129.31,121.99 				"/>
				<polygon class="st19" points="119.61,145.87 86.64,129.38 94.22,106.38 127.19,122.87 				"/>
			</g>
			<g>
				<path class="st20" d="M109.16,122.98c-0.81,2.71,0.4,5.86,2.7,7.03c2.3,1.18,4.81-0.07,5.62-2.78c0.81-2.71-0.4-5.86-2.7-7.03
					C112.48,119.02,109.97,120.27,109.16,122.98z"/>
				<polygon class="st20" points="109.77,132.43 112.07,133.61 113.26,129.59 110.96,128.41 				"/>
				<path class="st21" d="M117.48,127.23c0,0-3.38-3.2-4.39-4.94c-4.09,1.41-4.09,1.41-4.09,1.41s0.64-7.11,6.12-3.76
					C120.59,123.29,117.48,127.23,117.48,127.23z"/>
				<g>
					<path class="st22" d="M107.16,131.09l2.53,1.3l0.6,1.87l1.88-0.6l3.04,1.56c0.88,0.45,1.34,1.66,1.03,2.69l-1.1,3.71
						c-0.31,1.03-1.28,1.51-2.15,1.06l-8.05-4.12c-0.88-0.45-1.34-1.66-1.03-2.69l1.1-3.71
						C105.31,131.12,106.28,130.64,107.16,131.09z"/>
					<polygon class="st20" points="109.69,132.39 112.17,133.66 110.29,134.26 					"/>
				</g>
			</g>
			<g>
				<polygon class="st21" points="103.57,130.36 92.74,124.82 96.7,114.94 104.99,119.52 				"/>
				<path class="st20" d="M96.42,116.46c-0.81,2.71,0.4,5.86,2.7,7.03c2.3,1.18,4.81-0.07,5.62-2.78c0.81-2.71-0.4-5.86-2.7-7.03
					C99.74,112.5,97.22,113.75,96.42,116.46z"/>
				<polygon class="st20" points="97.02,125.91 99.32,127.08 100.52,123.07 98.22,121.89 				"/>
				<g>
					<path class="st23" d="M94.41,124.57l2.53,1.3l0.6,1.87l1.87-0.6l3.04,1.56c0.88,0.45,1.34,1.66,1.03,2.69l-1.1,3.71
						c-0.31,1.03-1.28,1.51-2.15,1.06l-8.05-4.12c-0.88-0.45-1.34-1.66-1.03-2.69l1.1-3.71C92.57,124.6,93.54,124.12,94.41,124.57z"
						/>
					<polygon class="st20" points="96.94,125.87 99.42,127.14 97.55,127.74 					"/>
				</g>
				<path class="st21" d="M99.5,115.34c0.28,0.07,4.74,6.53,4.74,6.53s1.32-1.89,0.91-4.27c-0.24-1.38-1.05-2.91-3.04-4.34
					c-5.42-3.89-6.33,5.33-6.33,5.33L99.5,115.34z"/>
			</g>
		</g>
		<g>
			<defs>
				<polygon id="SVGID_1_" points="119.61,146.22 86.64,129.73 94.22,106.73 127.19,123.22 				"/>
			</defs>
			<clipPath id="SVGID_2_">
				<use xlink:href="#SVGID_1_"  style="overflow:visible;"/>
			</clipPath>
			<g class="st24">
				
					<rect x="75.79" y="110.11" transform="matrix(-0.9517 0.307 -0.307 -0.9517 237.6791 184.0153)" class="st25" width="57.16" height="1.18"/>
				
					<rect x="77.77" y="115.15" transform="matrix(-0.9517 0.307 -0.307 -0.9517 243.4467 195.4257)" class="st25" width="57.16" height="3.42"/>
				
					<rect x="79.08" y="120.34" transform="matrix(-0.9517 0.307 -0.307 -0.9517 247.2509 202.9522)" class="st25" width="57.16" height="1.17"/>
				
					<rect x="80.88" y="125.89" transform="matrix(-0.9517 0.307 -0.307 -0.9517 252.4541 213.2458)" class="st25" width="57.16" height="1.17"/>
			</g>
		</g>
	</g>
</g>
</svg>
