<?xml version="1.0" encoding="utf-8"?>
<!-- Generator: Adobe Illustrator 25.3.1, SVG Export Plug-In . SVG Version: 6.00 Build 0)  -->
<svg version="1.1" id="圖層_1" xmlns="http://www.w3.org/2000/svg" xmlns:xlink="http://www.w3.org/1999/xlink" x="0px" y="0px"
	 viewBox="0 0 240 240" style="enable-background:new 0 0 240 240;" xml:space="preserve">
<style type="text/css">
	.st0{fill-rule:evenodd;clip-rule:evenodd;fill:url(#SVGID_1_);}
	.st1{fill-rule:evenodd;clip-rule:evenodd;fill:url(#SVGID_2_);}
	.st2{fill-rule:evenodd;clip-rule:evenodd;fill:url(#SVGID_3_);}
	.st3{fill-rule:evenodd;clip-rule:evenodd;fill:url(#SVGID_4_);}
	.st4{fill-rule:evenodd;clip-rule:evenodd;fill:url(#SVGID_5_);}
	.st5{fill-rule:evenodd;clip-rule:evenodd;fill:url(#SVGID_6_);}
	.st6{fill-rule:evenodd;clip-rule:evenodd;fill:url(#SVGID_7_);}
	.st7{fill-rule:evenodd;clip-rule:evenodd;fill:url(#SVGID_8_);}
	.st8{fill-rule:evenodd;clip-rule:evenodd;fill:url(#SVGID_9_);}
	.st9{fill-rule:evenodd;clip-rule:evenodd;fill:url(#SVGID_10_);}
	.st10{fill-rule:evenodd;clip-rule:evenodd;fill:url(#SVGID_11_);}
	.st11{fill-rule:evenodd;clip-rule:evenodd;fill:url(#SVGID_12_);}
	.st12{fill-rule:evenodd;clip-rule:evenodd;fill:url(#SVGID_13_);}
	.st13{fill-rule:evenodd;clip-rule:evenodd;fill:url(#SVGID_14_);}
	.st14{fill-rule:evenodd;clip-rule:evenodd;fill:url(#SVGID_15_);}
	.st15{fill-rule:evenodd;clip-rule:evenodd;fill:url(#SVGID_16_);}
	.st16{fill-rule:evenodd;clip-rule:evenodd;fill:#F9E2B2;}
	.st17{fill-rule:evenodd;clip-rule:evenodd;fill:#DBAC86;}
	.st18{fill-rule:evenodd;clip-rule:evenodd;fill:#FDEFC6;}
	.st19{fill-rule:evenodd;clip-rule:evenodd;fill:url(#SVGID_17_);}
	.st20{fill-rule:evenodd;clip-rule:evenodd;fill:url(#SVGID_18_);}
	.st21{fill-rule:evenodd;clip-rule:evenodd;fill:#FDFBF5;}
	.st22{fill-rule:evenodd;clip-rule:evenodd;fill:#FBF6EB;}
	.st23{fill-rule:evenodd;clip-rule:evenodd;fill:url(#SVGID_19_);}
	.st24{fill-rule:evenodd;clip-rule:evenodd;fill:url(#SVGID_20_);}
	.st25{fill-rule:evenodd;clip-rule:evenodd;fill:#DBDCDC;}
	.st26{fill-rule:evenodd;clip-rule:evenodd;fill:#F9F4E7;}
	.st27{fill-rule:evenodd;clip-rule:evenodd;fill:url(#SVGID_21_);}
	.st28{fill-rule:evenodd;clip-rule:evenodd;fill:url(#SVGID_22_);}
	.st29{fill-rule:evenodd;clip-rule:evenodd;fill:url(#SVGID_23_);}
	.st30{fill-rule:evenodd;clip-rule:evenodd;fill:url(#SVGID_24_);}
	.st31{fill-rule:evenodd;clip-rule:evenodd;fill:url(#SVGID_25_);}
	.st32{fill-rule:evenodd;clip-rule:evenodd;fill:url(#SVGID_26_);}
	.st33{fill-rule:evenodd;clip-rule:evenodd;fill:url(#SVGID_27_);}
	.st34{fill-rule:evenodd;clip-rule:evenodd;fill:#D9BEA7;}
	.st35{fill-rule:evenodd;clip-rule:evenodd;fill:#D8BDA6;}
	.st36{fill-rule:evenodd;clip-rule:evenodd;fill:#D7BCA5;}
	.st37{fill-rule:evenodd;clip-rule:evenodd;fill:#D6BBA4;}
	.st38{fill-rule:evenodd;clip-rule:evenodd;fill:#D5BAA4;}
	.st39{fill-rule:evenodd;clip-rule:evenodd;fill:#D5BAA3;}
	.st40{fill-rule:evenodd;clip-rule:evenodd;fill:#D4B9A2;}
	.st41{fill-rule:evenodd;clip-rule:evenodd;fill:#D3B8A2;}
	.st42{fill-rule:evenodd;clip-rule:evenodd;fill:#D3B8A1;}
	.st43{fill-rule:evenodd;clip-rule:evenodd;fill:#D2B7A0;}
	.st44{fill-rule:evenodd;clip-rule:evenodd;fill:#D1B6A0;}
	.st45{fill-rule:evenodd;clip-rule:evenodd;fill:#D0B59F;}
	.st46{fill-rule:evenodd;clip-rule:evenodd;fill:#D0B59E;}
	.st47{fill-rule:evenodd;clip-rule:evenodd;fill:#CFB49E;}
	.st48{fill-rule:evenodd;clip-rule:evenodd;fill:#CEB39D;}
	.st49{fill-rule:evenodd;clip-rule:evenodd;fill:#CEB39C;}
	.st50{fill-rule:evenodd;clip-rule:evenodd;fill:#CDB29C;}
	.st51{fill-rule:evenodd;clip-rule:evenodd;fill:#CCB19B;}
	.st52{fill-rule:evenodd;clip-rule:evenodd;fill:#CBB09A;}
	.st53{fill-rule:evenodd;clip-rule:evenodd;fill:#CAAF99;}
	.st54{fill-rule:evenodd;clip-rule:evenodd;fill:#FDFBF6;}
	.st55{fill-rule:evenodd;clip-rule:evenodd;fill:url(#SVGID_28_);}
	.st56{fill-rule:evenodd;clip-rule:evenodd;fill:url(#SVGID_29_);}
	.st57{fill-rule:evenodd;clip-rule:evenodd;fill:url(#SVGID_30_);}
	.st58{fill-rule:evenodd;clip-rule:evenodd;fill:url(#SVGID_31_);}
	.st59{fill-rule:evenodd;clip-rule:evenodd;fill:url(#SVGID_32_);}
	.st60{fill-rule:evenodd;clip-rule:evenodd;fill:url(#SVGID_33_);}
	.st61{fill-rule:evenodd;clip-rule:evenodd;fill:#EADCD4;}
	.st62{fill-rule:evenodd;clip-rule:evenodd;fill:#F1E9E4;}
	.st63{fill-rule:evenodd;clip-rule:evenodd;fill:url(#SVGID_34_);}
	.st64{fill-rule:evenodd;clip-rule:evenodd;fill:#F4EFEC;}
	.st65{fill-rule:evenodd;clip-rule:evenodd;fill:#BC9D96;}
	.st66{fill-rule:evenodd;clip-rule:evenodd;fill:url(#SVGID_35_);}
	.st67{fill-rule:evenodd;clip-rule:evenodd;fill:#D7A381;}
	.st68{fill-rule:evenodd;clip-rule:evenodd;fill:url(#SVGID_36_);}
	.st69{fill-rule:evenodd;clip-rule:evenodd;fill:url(#SVGID_37_);}
	.st70{fill-rule:evenodd;clip-rule:evenodd;fill:url(#SVGID_38_);}
	.st71{fill-rule:evenodd;clip-rule:evenodd;fill:url(#SVGID_39_);}
	.st72{fill-rule:evenodd;clip-rule:evenodd;fill:url(#SVGID_40_);}
	.st73{fill-rule:evenodd;clip-rule:evenodd;fill:#F6EFE1;}
	.st74{fill-rule:evenodd;clip-rule:evenodd;fill:url(#SVGID_41_);}
	.st75{fill-rule:evenodd;clip-rule:evenodd;fill:url(#SVGID_42_);}
	.st76{fill-rule:evenodd;clip-rule:evenodd;fill:#EFE1CD;}
	.st77{fill-rule:evenodd;clip-rule:evenodd;fill:url(#SVGID_43_);}
	.st78{fill-rule:evenodd;clip-rule:evenodd;fill:url(#SVGID_44_);}
	.st79{fill-rule:evenodd;clip-rule:evenodd;fill:#EDDFCB;}
	.st80{fill-rule:evenodd;clip-rule:evenodd;fill:#EBDCC8;}
	.st81{fill-rule:evenodd;clip-rule:evenodd;fill:#EADAC6;}
	.st82{fill-rule:evenodd;clip-rule:evenodd;fill:#E8D7C3;}
	.st83{fill-rule:evenodd;clip-rule:evenodd;fill:#E6D5C1;}
	.st84{fill-rule:evenodd;clip-rule:evenodd;fill:#E4D3BE;}
	.st85{fill-rule:evenodd;clip-rule:evenodd;fill:#E3D0BC;}
	.st86{fill-rule:evenodd;clip-rule:evenodd;fill:#E1CEB9;}
	.st87{fill-rule:evenodd;clip-rule:evenodd;fill:#DFCCB7;}
	.st88{fill-rule:evenodd;clip-rule:evenodd;fill:#DDC9B4;}
	.st89{fill-rule:evenodd;clip-rule:evenodd;fill:#DCC7B2;}
	.st90{fill-rule:evenodd;clip-rule:evenodd;fill:#DAC4AF;}
	.st91{fill-rule:evenodd;clip-rule:evenodd;fill:#D8C2AD;}
	.st92{fill-rule:evenodd;clip-rule:evenodd;fill:#D6C0AA;}
	.st93{fill-rule:evenodd;clip-rule:evenodd;fill:#D5BDA8;}
	.st94{fill-rule:evenodd;clip-rule:evenodd;fill:#D3BBA5;}
	.st95{fill-rule:evenodd;clip-rule:evenodd;fill:#D1B9A3;}
	.st96{fill-rule:evenodd;clip-rule:evenodd;fill:#CFB6A0;}
	.st97{fill-rule:evenodd;clip-rule:evenodd;fill:#CEB49E;}
	.st98{fill-rule:evenodd;clip-rule:evenodd;fill:url(#SVGID_45_);}
	.st99{fill-rule:evenodd;clip-rule:evenodd;fill:url(#SVGID_46_);}
	.st100{fill-rule:evenodd;clip-rule:evenodd;fill:url(#SVGID_47_);}
	.st101{fill-rule:evenodd;clip-rule:evenodd;fill:url(#SVGID_48_);}
	.st102{fill-rule:evenodd;clip-rule:evenodd;fill:url(#SVGID_49_);}
</style>
<g>
	<g>
		<linearGradient id="SVGID_1_" gradientUnits="userSpaceOnUse" x1="190.2827" y1="144.8277" x2="217.5515" y2="177.3253">
			<stop  offset="0" style="stop-color:#D7A381"/>
			<stop  offset="1" style="stop-color:#DFB18C"/>
		</linearGradient>
		<polygon class="st0" points="158.42,143.7 158.42,63.72 154.86,65.77 154.48,75.83 154.86,145.75 		"/>
		<linearGradient id="SVGID_2_" gradientUnits="userSpaceOnUse" x1="188.2883" y1="145.8726" x2="216.1758" y2="179.1076">
			<stop  offset="0" style="stop-color:#D7A381"/>
			<stop  offset="1" style="stop-color:#DFB18C"/>
		</linearGradient>
		<polygon class="st1" points="156.64,168.52 156.64,44.64 154.86,45.66 154.48,157.52 154.86,169.55 		"/>
		<linearGradient id="SVGID_3_" gradientUnits="userSpaceOnUse" x1="214.036" y1="124.0845" x2="242.104" y2="157.5346">
			<stop  offset="0" style="stop-color:#D7A381"/>
			<stop  offset="1" style="stop-color:#DFB18C"/>
		</linearGradient>
		<polygon class="st2" points="158.42,65.7 158.42,43.61 154.86,45.66 154.48,55.72 154.86,67.75 		"/>
		<linearGradient id="SVGID_4_" gradientUnits="userSpaceOnUse" x1="186.9955" y1="146.6117" x2="215.2234" y2="180.2524">
			<stop  offset="0" style="stop-color:#D7A381"/>
			<stop  offset="1" style="stop-color:#DFB18C"/>
		</linearGradient>
		<polygon class="st3" points="152.56,168.23 152.56,44.34 154.86,45.66 154.86,169.55 		"/>
		<linearGradient id="SVGID_5_" gradientUnits="userSpaceOnUse" x1="216.7489" y1="123.1117" x2="243.5331" y2="155.0318">
			<stop  offset="0" style="stop-color:#D7A381"/>
			<stop  offset="1" style="stop-color:#DFB18C"/>
		</linearGradient>
		<polygon class="st4" points="179.53,77.89 177.75,78.92 180.05,80.24 181.83,79.21 		"/>
		<g>
			<linearGradient id="SVGID_6_" gradientUnits="userSpaceOnUse" x1="202.7301" y1="134.9496" x2="229.4407" y2="166.782">
				<stop  offset="0" style="stop-color:#D7A381"/>
				<stop  offset="1" style="stop-color:#DFB18C"/>
			</linearGradient>
			<polygon class="st5" points="156.64,88.08 177.75,102.92 179.53,99.24 160.2,88.08 158.42,87.57 			"/>
			<linearGradient id="SVGID_7_" gradientUnits="userSpaceOnUse" x1="199.746" y1="137.3318" x2="226.5766" y2="169.3073">
				<stop  offset="0" style="stop-color:#D7A381"/>
				<stop  offset="1" style="stop-color:#DFB18C"/>
			</linearGradient>
			<polygon class="st6" points="158.42,87.05 156.64,88.08 160.2,88.08 			"/>
			<linearGradient id="SVGID_8_" gradientUnits="userSpaceOnUse" x1="201.3629" y1="136.2196" x2="227.9525" y2="167.9079">
				<stop  offset="0" style="stop-color:#D7A381"/>
				<stop  offset="1" style="stop-color:#DFB18C"/>
			</linearGradient>
			<polygon class="st7" points="177.75,100.27 156.64,88.08 156.64,90.73 177.75,102.92 178.32,101.74 			"/>
		</g>
		<g>
			<linearGradient id="SVGID_9_" gradientUnits="userSpaceOnUse" x1="182.6664" y1="150.9807" x2="210.1694" y2="183.7575">
				<stop  offset="0" style="stop-color:#D7A381"/>
				<stop  offset="1" style="stop-color:#DFB18C"/>
			</linearGradient>
			<polygon class="st8" points="156.64,128.02 177.75,142.86 179.53,139.19 160.2,128.02 158.42,127.51 			"/>
			<linearGradient id="SVGID_10_" gradientUnits="userSpaceOnUse" x1="179.6468" y1="153.3208" x2="207.3402" y2="186.3246">
				<stop  offset="0" style="stop-color:#D7A381"/>
				<stop  offset="1" style="stop-color:#DFB18C"/>
			</linearGradient>
			<polygon class="st9" points="158.42,127 156.64,128.02 160.2,128.02 			"/>
			<linearGradient id="SVGID_11_" gradientUnits="userSpaceOnUse" x1="181.3338" y1="152.2921" x2="208.6462" y2="184.8417">
				<stop  offset="0" style="stop-color:#D7A381"/>
				<stop  offset="1" style="stop-color:#DFB18C"/>
			</linearGradient>
			<polygon class="st10" points="177.75,140.21 156.64,128.02 156.64,130.67 177.75,142.86 178.32,141.68 			"/>
		</g>
		<g>
			<linearGradient id="SVGID_12_" gradientUnits="userSpaceOnUse" x1="192.4767" y1="142.7006" x2="220.0272" y2="175.5339">
				<stop  offset="0" style="stop-color:#D7A381"/>
				<stop  offset="1" style="stop-color:#DFB18C"/>
			</linearGradient>
			<polygon class="st11" points="156.64,108.05 177.75,122.89 179.53,119.21 160.2,108.05 158.42,107.54 			"/>
			<linearGradient id="SVGID_13_" gradientUnits="userSpaceOnUse" x1="189.4773" y1="145.0647" x2="217.1781" y2="178.0772">
				<stop  offset="0" style="stop-color:#D7A381"/>
				<stop  offset="1" style="stop-color:#DFB18C"/>
			</linearGradient>
			<polygon class="st12" points="158.42,107.02 156.64,108.05 160.2,108.05 			"/>
			<linearGradient id="SVGID_14_" gradientUnits="userSpaceOnUse" x1="191.1241" y1="143.988" x2="218.5241" y2="176.6421">
				<stop  offset="0" style="stop-color:#D7A381"/>
				<stop  offset="1" style="stop-color:#DFB18C"/>
			</linearGradient>
			<polygon class="st13" points="177.75,120.24 156.64,108.05 156.64,110.7 177.75,122.89 178.32,121.71 			"/>
		</g>
		<linearGradient id="SVGID_15_" gradientUnits="userSpaceOnUse" x1="191.4092" y1="143.1065" x2="219.442" y2="176.5147">
			<stop  offset="0" style="stop-color:#D7A381"/>
			<stop  offset="1" style="stop-color:#DFB18C"/>
		</linearGradient>
		<polygon class="st14" points="181.83,181.01 181.83,79.21 180.05,80.24 179.67,170.01 180.05,182.04 		"/>
		<linearGradient id="SVGID_16_" gradientUnits="userSpaceOnUse" x1="191.1335" y1="145.0576" x2="217.4725" y2="176.4473">
			<stop  offset="0" style="stop-color:#D7A381"/>
			<stop  offset="1" style="stop-color:#DFB18C"/>
		</linearGradient>
		<polygon class="st15" points="177.75,180.71 177.75,142.86 177.75,142.86 156.64,130.67 156.64,128.02 177.75,140.21 
			177.75,140.21 177.75,122.89 177.75,122.89 156.64,110.7 156.64,108.05 177.75,120.24 177.75,120.24 177.75,102.92 177.75,102.92 
			156.64,90.73 156.64,88.08 177.75,100.27 177.75,100.27 177.75,78.92 180.05,80.24 180.05,182.04 		"/>
	</g>
	<polygon class="st16" points="84.08,4.8 87.64,6.85 87.64,130.74 84.08,128.69 	"/>
	<polygon class="st17" points="87.64,19.49 88.8,22.45 87.64,35.45 84.71,16.77 84.71,14.12 87,15.44 	"/>
	<polygon class="st17" points="87.64,97.48 88.88,103.51 87.64,113.44 84.71,94.76 84.71,92.11 87,93.44 	"/>
	<polygon class="st17" points="91.2,4.8 87.64,6.85 87.64,130.74 91.2,128.69 	"/>
	<g>
		<polygon class="st17" points="87,18.09 29.67,51.19 29.67,48.54 76.39,20.4 87,15.44 		"/>
		<polygon class="st18" points="84.71,14.12 27.38,47.22 29.67,48.54 87,15.44 		"/>
	</g>
	<g>
		<polygon class="st17" points="87,96.09 29.67,129.19 29.67,126.54 76.39,98.39 87,93.44 		"/>
		<polygon class="st17" points="84.71,92.11 60.27,106.22 62.57,107.55 87,93.44 		"/>
	</g>
	<g>
		<polygon class="st17" points="29.67,127.06 29.67,126.54 61.87,107.14 63.02,107.81 		"/>
		<polygon class="st17" points="60.27,106.22 27.38,125.21 29.67,126.54 62.57,107.55 		"/>
	</g>
	<polygon class="st16" points="24.19,39.37 27.75,41.43 27.75,165.31 24.19,163.26 	"/>
	<polygon class="st16" points="208.69,76.74 212.25,78.8 212.25,129.37 208.69,98.83 	"/>
	<linearGradient id="SVGID_17_" gradientUnits="userSpaceOnUse" x1="205.7" y1="144.3736" x2="213.3256" y2="144.3736">
		<stop  offset="0" style="stop-color:#D7A381"/>
		<stop  offset="1" style="stop-color:#DFB18C"/>
	</linearGradient>
	<polygon class="st19" points="214.4,110.6 213.75,148.83 212.25,202.69 208.69,200.63 208.69,104.37 208.69,89.95 210.07,93.53 
		209.32,88.71 209.32,86.06 211.61,87.39 212.25,91.43 213.82,97.06 212.65,104.76 	"/>
	<polygon class="st17" points="31.31,41.49 27.75,43.55 27.75,165.31 31.31,163.26 	"/>
	<polygon class="st17" points="31.31,39.37 27.75,41.43 27.75,165.31 31.31,163.26 	"/>
	<linearGradient id="SVGID_18_" gradientUnits="userSpaceOnUse" x1="213.8756" y1="139.1454" x2="235.3518" y2="219.2957">
		<stop  offset="0" style="stop-color:#DFB18C"/>
		<stop  offset="1" style="stop-color:#DBAC87"/>
	</linearGradient>
	<polygon class="st20" points="215.81,76.74 212.25,78.8 212.25,202.69 215.81,200.63 	"/>
	<polygon class="st16" points="31.31,141.51 90.02,160.83 152.36,211.4 152.36,235.2 31.31,165.31 	"/>
	<polygon class="st18" points="85.86,105.91 33.41,136.19 33.56,140.06 31.31,141.51 150.58,210.37 152.36,209.35 154.14,210.37 
		210.47,177.86 208.69,176.83 208.69,174.77 91.25,106.97 87.45,107.58 86.52,106.29 	"/>
	<polygon class="st17" points="31.75,137.91 33.47,139.96 34.13,139.96 91.25,106.97 89.42,105.91 87.64,106.94 86.52,106.29 	"/>
	<path class="st17" d="M31.31,137.4v2.06l-1.78,1.03l1.78,1.03h36.4c63.4,36.6,24.07,13.9,102.85,59.38l39.9-23.04l-1.78-1.03v-2.06
		l-102.85-59.38L67.71,137.4l-34.47-1.11L31.31,137.4L31.31,137.4z M148.8,209.35l1.78,1.03l1.78-1.03H148.8L148.8,209.35z
		 M152.36,209.35h3.56l-1.78,1.03L152.36,209.35L152.36,209.35z M91.2,106.94l-1.78-1.03l-1.78,1.03H91.2z"/>
	<g>
		<polygon class="st17" points="142.82,205.7 149.05,205.7 152.9,204.29 180.24,188.51 197.25,178.69 198.27,177.28 196.94,177.28 
			195.64,179.08 179.31,188.51 152.65,203.9 150.28,204.77 144.01,203.89 		"/>
		<polygon class="st17" points="157.33,208.53 150.96,208.53 32.99,140.43 33.56,140.06 32.72,139.07 32.72,138.65 86.23,107.75 
			92.6,107.75 208.69,174.77 208.69,176.83 210.47,177.86 		"/>
	</g>
	<polygon class="st21" points="89.04,96.05 203.64,164.98 207.28,165.94 153.77,196.83 150.96,196.83 32.72,128.57 86.23,96.05 	"/>
	<polygon class="st22" points="32.72,128.57 150.96,196.84 150.96,208.53 32.72,140.27 	"/>
	<linearGradient id="SVGID_19_" gradientUnits="userSpaceOnUse" x1="144.9857" y1="184.4237" x2="155.693" y2="210.9252">
		<stop  offset="0" style="stop-color:#F1E1CD"/>
		<stop  offset="1" style="stop-color:#D2B59E"/>
	</linearGradient>
	<rect x="150.96" y="196.84" class="st23" width="2.82" height="11.7"/>
	<linearGradient id="SVGID_20_" gradientUnits="userSpaceOnUse" x1="164.8661" y1="160.1174" x2="180.1717" y2="186.6276">
		<stop  offset="0" style="stop-color:#F1E1CD"/>
		<stop  offset="1" style="stop-color:#D2B59E"/>
	</linearGradient>
	<polygon class="st24" points="153.77,196.84 207.28,165.94 207.28,177.64 153.77,208.53 	"/>
	<polygon class="st25" points="88.16,97.28 87.11,97.28 34.84,127.46 34.84,128.07 151.83,195.61 152.88,195.61 205.15,165.43 
		205.15,164.83 	"/>
	<polygon class="st22" points="153.77,196.84 150.96,196.84 151.83,193.87 152.88,193.87 	"/>
	<polygon class="st26" points="153.77,196.84 207.28,165.94 205.15,163.69 152.88,193.87 	"/>
	<polygon class="st21" points="32.72,128.57 150.96,196.84 151.83,193.87 34.84,126.33 	"/>
	<polygon class="st21" points="88.17,95.55 87.11,95.54 34.84,125.72 34.84,126.33 151.83,193.87 152.88,193.87 205.15,163.69 
		205.15,163.09 	"/>
	<linearGradient id="SVGID_21_" gradientUnits="userSpaceOnUse" x1="169.2386" y1="147.5549" x2="189.6688" y2="182.9412">
		<stop  offset="0" style="stop-color:#F1E1CD"/>
		<stop  offset="1" style="stop-color:#D2B59E"/>
	</linearGradient>
	<polygon class="st27" points="165.86,189.86 207.28,165.94 207.28,164.32 205.15,163.09 203.14,163.67 166.6,183.4 163.95,187.52 	
		"/>
	<linearGradient id="SVGID_22_" gradientUnits="userSpaceOnUse" x1="104.9073" y1="170.8416" x2="109.1295" y2="163.5287">
		<stop  offset="0" style="stop-color:#E8D7C2"/>
		<stop  offset="1" style="stop-color:#D9BEA7"/>
	</linearGradient>
	<path class="st28" d="M37.89,123.96l-3.05,1.76l0,0.61l3.02,1.74h23.13c56.71,32.74,40.5,23.38,102.92,59.42l41.23-23.8v-0.61
		L99.39,102.03l-0.27-0.07l-38.12,22.01H37.89z"/>
	<linearGradient id="SVGID_23_" gradientUnits="userSpaceOnUse" x1="60.7138" y1="144.8214" x2="64.4988" y2="138.2657">
		<stop  offset="0" style="stop-color:#E8D7C2"/>
		<stop  offset="1" style="stop-color:#D9BEA7"/>
	</linearGradient>
	<path class="st29" d="M49.83,128.08h11.17l7.11,4.1l41.76-24.11l-7.56-4.36l-3.68-1.47l-37.63,21.73H44.83
		c0.13,0.6,0.54,1.54,1.8,2.27L49.83,128.08z"/>
	<g>
		<linearGradient id="SVGID_24_" gradientUnits="userSpaceOnUse" x1="147.158" y1="198.5158" x2="143.6554" y2="198.5158">
			<stop  offset="0" style="stop-color:#F1E1CD"/>
			<stop  offset="1" style="stop-color:#D2B59E"/>
		</linearGradient>
		<polygon class="st30" points="141.43,191.33 144.99,192 144.94,193.36 146.04,199.68 146.04,205.7 146.04,205.7 141.43,203.03 		
			"/>
		<linearGradient id="SVGID_25_" gradientUnits="userSpaceOnUse" x1="161.1323" y1="199.7141" x2="163.6291" y2="194.3598">
			<stop  offset="0" style="stop-color:#E8D7C2"/>
			<stop  offset="1" style="stop-color:#D9BEA7"/>
		</linearGradient>
		<polygon class="st31" points="145.52,190.23 144.43,193.07 144.94,193.36 146.28,191.04 146.39,190.73 173.52,175.07 
			199.71,159.95 199.25,159.68 172.59,175.07 		"/>
	</g>
	<linearGradient id="SVGID_26_" gradientUnits="userSpaceOnUse" x1="50.2452" y1="106.5536" x2="19.6651" y2="159.5199">
		<stop  offset="0" style="stop-color:#EFE1CD"/>
		<stop  offset="1" style="stop-color:#D2B59E"/>
	</linearGradient>
	<polygon class="st32" points="32.72,128.57 33.63,127.78 34.88,129.81 34.88,141.51 32.72,140.27 	"/>
	<linearGradient id="SVGID_27_" gradientUnits="userSpaceOnUse" x1="46.1642" y1="123.203" x2="24.1413" y2="132.1008">
		<stop  offset="0" style="stop-color:#EFE1CD"/>
		<stop  offset="1" style="stop-color:#D2B59E"/>
	</linearGradient>
	<polygon class="st33" points="32.75,128.57 34.87,129.82 37.86,128.08 34.84,125.73 32.72,126.95 	"/>
	<polygon class="st34" points="86.97,100.41 104.19,110.36 104.19,111.51 64.51,134.42 62.8,134.42 60.82,134.42 43.59,124.47 
		43.59,123.33 83.27,100.41 	"/>
	<g>
		<path class="st34" d="M44.77,123.35c0,0-0.17,1.71,1.85,2.88c2.02,1.17,11.14,6.43,12.67,7.31c1.52,0.88,5.15,0.75,8.81-1.36
			c3.66-2.11,49.21-21.39,49.21-21.39l-19.5-8.88L44.77,123.35z"/>
		<path class="st35" d="M44.81,123.32c0,0-0.17,1.71,1.85,2.88c2.02,1.17,11.01,6.36,12.54,7.24c1.52,0.88,5.15,0.75,8.81-1.36
			c3.66-2.11,48.88-21.52,48.88-21.52l-19.08-8.64L44.81,123.32z"/>
		<path class="st35" d="M44.85,123.29c0,0-0.17,1.71,1.85,2.88c2.02,1.17,10.89,6.28,12.41,7.16c1.52,0.88,5.15,0.75,8.81-1.36
			c3.66-2.11,48.55-21.66,48.55-21.66l-18.67-8.4L44.85,123.29z"/>
		<path class="st36" d="M44.89,123.26c0,0-0.17,1.71,1.85,2.88c2.02,1.17,10.76,6.21,12.28,7.09c1.52,0.88,5.15,0.75,8.81-1.36
			c3.66-2.11,48.23-21.79,48.23-21.79l-18.25-8.16L44.89,123.26z"/>
		<path class="st37" d="M44.93,123.23c0,0-0.17,1.71,1.85,2.88c2.02,1.17,10.63,6.14,12.15,7.01c1.52,0.88,5.15,0.75,8.81-1.36
			c3.66-2.11,47.9-21.93,47.9-21.93l-17.83-7.92L44.93,123.23z"/>
		<path class="st38" d="M44.97,123.19c0,0-0.17,1.71,1.85,2.88c2.02,1.17,10.5,6.06,12.02,6.94c1.52,0.88,5.15,0.75,8.81-1.36
			c3.66-2.11,47.57-22.06,47.57-22.06l-17.41-7.67L44.97,123.19z"/>
		<path class="st39" d="M45.01,123.16c0,0-0.17,1.71,1.85,2.88c2.02,1.17,10.37,5.99,11.89,6.87c1.52,0.88,5.15,0.75,8.81-1.36
			c3.66-2.11,47.24-22.2,47.24-22.2l-16.99-7.43L45.01,123.16z"/>
		<path class="st40" d="M45.05,123.13c0,0-0.17,1.71,1.85,2.88c2.02,1.17,10.24,5.91,11.76,6.79c1.52,0.88,5.15,0.75,8.81-1.36
			c3.66-2.11,46.91-22.34,46.91-22.34l-16.57-7.19L45.05,123.13z"/>
		<path class="st41" d="M45.09,123.1c0,0-0.17,1.71,1.85,2.88c2.02,1.17,10.11,5.84,11.63,6.72c1.52,0.88,5.15,0.75,8.81-1.36
			c3.66-2.11,46.58-22.47,46.58-22.47l-16.15-6.95L45.09,123.1z"/>
		<path class="st42" d="M45.13,123.07c0,0-0.17,1.71,1.85,2.88c2.02,1.17,9.98,5.76,11.5,6.64c1.52,0.88,5.15,0.75,8.81-1.36
			c3.66-2.11,46.25-22.61,46.25-22.61l-15.73-6.71L45.13,123.07z"/>
		<path class="st43" d="M45.17,123.04c0,0-0.17,1.71,1.85,2.88c2.02,1.17,9.85,5.69,11.38,6.57c1.52,0.88,5.15,0.75,8.81-1.36
			c3.66-2.11,45.92-22.74,45.92-22.74l-15.31-6.46L45.17,123.04z"/>
		<path class="st44" d="M45.2,123c0,0-0.17,1.71,1.85,2.88c2.02,1.17,9.72,5.61,11.25,6.49c1.52,0.88,5.15,0.75,8.81-1.36
			c3.66-2.11,45.6-22.88,45.6-22.88l-14.9-6.22L45.2,123z"/>
		<path class="st45" d="M45.24,122.97c0,0-0.17,1.71,1.85,2.88c2.02,1.17,9.59,5.54,11.12,6.42c1.52,0.88,5.15,0.75,8.81-1.36
			c3.66-2.11,45.27-23.01,45.27-23.01l-14.48-5.98L45.24,122.97z"/>
		<path class="st46" d="M45.28,122.94c0,0-0.17,1.71,1.85,2.88c2.02,1.17,9.47,5.47,10.99,6.34c1.52,0.88,5.15,0.75,8.81-1.36
			c3.66-2.11,44.94-23.15,44.94-23.15l-14.06-5.74L45.28,122.94z"/>
		<path class="st47" d="M45.32,122.91c0,0-0.17,1.71,1.85,2.88c2.02,1.17,9.34,5.39,10.86,6.27c1.52,0.88,5.15,0.75,8.81-1.36
			c3.66-2.11,44.61-23.28,44.61-23.28l-13.64-5.5L45.32,122.91z"/>
		<path class="st48" d="M45.36,122.88c0,0-0.17,1.71,1.85,2.88c2.02,1.17,9.21,5.32,10.73,6.19c1.52,0.88,5.15,0.75,8.81-1.36
			c3.66-2.11,44.28-23.42,44.28-23.42l-13.22-5.26L45.36,122.88z"/>
		<path class="st49" d="M45.4,122.85c0,0-0.17,1.71,1.85,2.88c2.02,1.17,9.08,5.24,10.6,6.12c1.52,0.88,5.15,0.75,8.81-1.36
			c3.66-2.11,43.95-23.56,43.95-23.56l-12.8-5.01L45.4,122.85z"/>
		<path class="st50" d="M45.44,122.81c0,0-0.17,1.71,1.85,2.88c2.02,1.17,8.95,5.17,10.47,6.05c1.52,0.88,5.15,0.75,8.81-1.36
			c3.66-2.11,43.62-23.69,43.62-23.69l-12.38-4.77L45.44,122.81z"/>
		<path class="st51" d="M45.48,122.78c0,0-0.17,1.71,1.85,2.88c2.02,1.17,8.82,5.09,10.34,5.97c1.52,0.88,5.15,0.75,8.81-1.36
			c3.66-2.11,43.29-23.83,43.29-23.83l-11.96-4.53L45.48,122.78z"/>
		<path class="st52" d="M45.52,122.75c0,0-0.17,1.71,1.85,2.88c2.02,1.17,8.69,5.02,10.21,5.9c1.52,0.88,5.15,0.75,8.81-1.36
			c3.66-2.11,42.96-23.96,42.96-23.96l-11.54-4.29L45.52,122.75z"/>
		<path class="st52" d="M45.56,122.72c0,0-0.17,1.71,1.85,2.88c2.02,1.17,8.56,4.94,10.08,5.82c1.52,0.88,5.15,0.75,8.81-1.36
			c3.66-2.11,42.64-24.1,42.64-24.1l-11.13-4.05L45.56,122.72z"/>
		<path class="st53" d="M45.59,122.69c0,0-0.17,1.71,1.85,2.88c2.02,1.17,8.43,4.87,9.96,5.75c1.52,0.88,5.15,0.75,8.81-1.36
			c3.66-2.11,42.31-24.23,42.31-24.23l-10.71-3.8L45.59,122.69z"/>
	</g>
	<polygon class="st54" points="42.64,118.27 42.64,119.42 44.13,117.84 44.13,117.41 	"/>
	<polygon class="st22" points="42.64,119.42 59.86,129.37 59.86,132.77 42.64,122.83 	"/>
	<linearGradient id="SVGID_28_" gradientUnits="userSpaceOnUse" x1="48.8551" y1="117.5527" x2="40.3943" y2="132.2073">
		<stop  offset="0" style="stop-color:#EFE1CD"/>
		<stop  offset="1" style="stop-color:#D2B59E"/>
	</linearGradient>
	<polygon class="st55" points="42.64,119.42 48.87,123.02 48.87,126.43 42.64,122.83 	"/>
	<linearGradient id="SVGID_29_" gradientUnits="userSpaceOnUse" x1="61.6051" y1="136.378" x2="63.7761" y2="151.8256">
		<stop  offset="0" style="stop-color:#EFE1CD"/>
		<stop  offset="1" style="stop-color:#D6BAA0"/>
	</linearGradient>
	<rect x="59.86" y="129.37" class="st56" width="1.99" height="3.41"/>
	<linearGradient id="SVGID_30_" gradientUnits="userSpaceOnUse" x1="78.4123" y1="113.9252" x2="84.1631" y2="123.886">
		<stop  offset="0" style="stop-color:#EFE1CD"/>
		<stop  offset="1" style="stop-color:#D2B59E"/>
	</linearGradient>
	<polygon class="st57" points="61.85,129.37 101.54,106.45 101.54,109.86 61.85,132.77 	"/>
	<polygon class="st25" points="83.69,96.23 82.95,96.23 44.13,118.64 44.13,119.07 60.48,128.5 61.22,128.5 100.04,106.09 
		100.03,105.67 	"/>
	<polygon class="st22" points="61.85,129.37 59.86,129.37 60.48,127.27 61.22,127.27 	"/>
	<polygon class="st22" points="61.85,129.37 101.54,106.45 100.03,104.87 61.22,127.27 	"/>
	<polygon class="st22" points="101.54,105.31 101.54,106.45 100.03,104.87 100.03,104.44 	"/>
	<polygon class="st54" points="42.64,119.42 59.86,129.37 60.48,127.27 56.11,121.88 44.13,117.84 	"/>
	<polygon class="st54" points="42.64,118.27 42.64,119.42 44.13,117.84 44.13,117.41 	"/>
	<polygon class="st54" points="83.69,95 82.95,95 44.13,117.41 44.13,117.84 60.48,127.27 61.22,127.27 100.04,104.86 
		100.03,104.44 	"/>
	<linearGradient id="SVGID_31_" gradientUnits="userSpaceOnUse" x1="76.0068" y1="107.509" x2="90.2301" y2="125.0733">
		<stop  offset="0" style="stop-color:#EFE1CD"/>
		<stop  offset="1" style="stop-color:#D2B59E"/>
	</linearGradient>
	<polygon class="st58" points="65.59,127.21 101.54,106.45 100.03,104.87 84.08,109.63 64.22,125.54 	"/>
	<linearGradient id="SVGID_32_" gradientUnits="userSpaceOnUse" x1="39.6952" y1="123.7819" x2="68.4789" y2="112.7329">
		<stop  offset="0" style="stop-color:#EFE1CD"/>
		<stop  offset="1" style="stop-color:#D2B59E"/>
	</linearGradient>
	<polygon class="st59" points="42.64,119.42 48.87,123.02 50.98,121.79 56.11,121.88 44.13,117.84 44.13,117.68 42.64,118.73 	"/>
	<linearGradient id="SVGID_33_" gradientUnits="userSpaceOnUse" x1="32.5039" y1="129.3822" x2="155.2888" y2="82.2495">
		<stop  offset="0" style="stop-color:#EFE1CD"/>
		<stop  offset="1" style="stop-color:#D2B59E"/>
	</linearGradient>
	<polygon class="st60" points="44.13,117.68 44.13,117.84 50.98,121.79 57.72,121.79 64.22,125.54 100.04,104.86 100.03,104.44 
		90.35,98.84 57.72,117.68 	"/>
	<polygon class="st61" points="142.82,205.7 104.12,183.35 104.12,170.89 142.82,193.23 	"/>
	<polygon class="st62" points="142.82,193.23 104.12,170.89 106.55,166.65 145.25,188.99 	"/>
	<linearGradient id="SVGID_34_" gradientUnits="userSpaceOnUse" x1="177.2156" y1="142.5082" x2="180.0289" y2="153.0077">
		<stop  offset="0" style="stop-color:#EFE1CD"/>
		<stop  offset="1" style="stop-color:#D2B59E"/>
	</linearGradient>
	<polygon class="st63" points="202.38,161.49 157.97,135.85 154.87,134.03 199.27,159.67 	"/>
	<polygon class="st64" points="145.25,188.99 106.55,166.65 118.38,159.82 138.67,158.48 157.22,182.08 	"/>
	<path class="st65" d="M118.33,159.85l42.92-24.78l38.7,22.34l-1.71,0.99l-1.71,0.99l-1.71,0.99l-1.71,0.99l-1.71,0.99l-1.71,0.99
		l-1.71,0.99l-1.71,0.99l-1.71,0.99l-1.71,0.99l-1.71,0.99l-1.71,0.99l-1.71,0.99l-1.71,0.99l-1.71,0.99l-1.71,0.99l-1.71,0.99
		l-1.71,0.99l-1.71,0.99l-1.71,0.99l-1.71,0.99l-1.71,0.99l-1.71,0.99l-1.71,0.99l-1.71,0.99l-0.19,0.11
		C142.43,173.77,119.34,160.44,118.33,159.85z"/>
	<polygon class="st65" points="142.82,205.7 142.82,193.23 145.25,188.99 157.03,182.19 193.13,158.89 199.94,157.42 202.38,158.85 
		202.38,161.49 199.27,159.67 145.93,190.47 145.16,191.79 144.43,193.07 144.43,204.77 	"/>
	<linearGradient id="SVGID_35_" gradientUnits="userSpaceOnUse" x1="29.9811" y1="152.9001" x2="33.5657" y2="152.9001">
		<stop  offset="0" style="stop-color:#D7A381"/>
		<stop  offset="1" style="stop-color:#DFB18C"/>
	</linearGradient>
	<polygon class="st66" points="29.53,140.49 31.31,141.51 31.31,165.31 29.53,164.29 	"/>
	<polygon class="st18" points="85.86,27.92 31.31,59.41 33.56,62.06 31.31,63.52 99.06,104.61 150.58,132.38 152.36,131.35 
		154.14,132.38 210.47,99.86 207.66,99.09 208.69,96.78 91.25,28.98 87.44,29.68 86.52,28.3 	"/>
	<path class="st67" d="M86.52,28.3L32.63,59.41h-1.32v2.06l-1.78,1.03l1.78,1.03c129.64,0,6.95,0,18.53,0l3.56-2.06l-3.56-2.06
		h-11.3l52.71-30.43l-0.05-0.03h0l-1.78-1.03l-1.78,1.03L86.52,28.3z"/>
	<polygon class="st16" points="31.31,63.52 100.4,103.4 152.36,133.41 152.36,138.6 31.31,68.72 	"/>
	<linearGradient id="SVGID_36_" gradientUnits="userSpaceOnUse" x1="29.9811" y1="65.6031" x2="33.5657" y2="65.6031">
		<stop  offset="0" style="stop-color:#D7A381"/>
		<stop  offset="1" style="stop-color:#DFB18C"/>
	</linearGradient>
	<polygon class="st68" points="29.53,62.49 31.31,63.52 31.31,68.72 29.53,67.69 	"/>
	<linearGradient id="SVGID_37_" gradientUnits="userSpaceOnUse" x1="197.3745" y1="235.3208" x2="172.1939" y2="189.8938">
		<stop  offset="0" style="stop-color:#D7A381"/>
		<stop  offset="1" style="stop-color:#DFB18C"/>
	</linearGradient>
	<polygon class="st69" points="210.47,177.86 152.36,211.4 152.36,235.2 210.47,201.66 	"/>
	<g>
		<polygon class="st17" points="142.82,127.7 149.05,127.7 152.9,126.29 180.24,110.51 198.23,100.13 199.25,98.72 197.92,98.72 
			196.62,100.52 179.31,110.51 152.65,125.91 150.28,126.77 144.01,125.9 		"/>
		<linearGradient id="SVGID_38_" gradientUnits="userSpaceOnUse" x1="149.2478" y1="130.7913" x2="158.3032" y2="147.1277">
			<stop  offset="0" style="stop-color:#D7A381"/>
			<stop  offset="1" style="stop-color:#DFB18C"/>
		</linearGradient>
		<polygon class="st70" points="157.33,130.54 150.96,130.54 32.99,62.43 33.56,62.06 32.72,61.07 32.72,60.65 86.23,29.76 
			92.61,29.76 208.69,96.78 208.69,98.83 210.47,99.86 206.99,104.84 		"/>
	</g>
	<polygon class="st21" points="89.04,18.06 207.28,86.32 207.28,87.95 153.77,118.84 150.96,118.84 32.72,50.58 32.72,48.95 
		86.23,18.06 	"/>
	<polygon class="st22" points="32.72,50.58 150.96,118.84 150.96,130.54 32.72,62.27 	"/>
	<linearGradient id="SVGID_39_" gradientUnits="userSpaceOnUse" x1="144.9857" y1="106.4281" x2="155.693" y2="132.9295">
		<stop  offset="0" style="stop-color:#F1E1CD"/>
		<stop  offset="1" style="stop-color:#D2B59E"/>
	</linearGradient>
	<rect x="150.96" y="118.84" class="st71" width="2.82" height="11.7"/>
	<linearGradient id="SVGID_40_" gradientUnits="userSpaceOnUse" x1="164.8661" y1="82.1218" x2="180.1717" y2="108.632">
		<stop  offset="0" style="stop-color:#F1E1CD"/>
		<stop  offset="1" style="stop-color:#D2B59E"/>
	</linearGradient>
	<polygon class="st72" points="153.77,118.84 207.28,87.95 207.28,99.65 153.77,130.54 	"/>
	<polygon class="st25" points="88.16,19.29 87.11,19.29 34.84,49.47 34.84,50.08 151.83,117.62 152.88,117.62 205.15,87.44 
		205.15,86.83 	"/>
	<polygon class="st22" points="153.77,118.84 150.96,118.84 151.83,115.88 152.88,115.88 	"/>
	<polygon class="st26" points="153.77,118.84 207.28,87.95 205.15,85.7 152.88,115.88 	"/>
	<polygon class="st73" points="207.28,86.32 207.28,87.95 205.15,85.7 205.15,85.09 	"/>
	<polygon class="st21" points="32.72,50.58 150.96,118.84 151.83,115.88 34.84,48.34 	"/>
	<polygon class="st21" points="32.72,48.95 32.72,50.58 34.84,48.34 34.84,47.73 	"/>
	<polygon class="st21" points="88.17,17.55 87.11,17.55 34.84,47.73 34.84,48.34 151.83,115.88 152.88,115.88 205.15,85.7 
		205.15,85.09 	"/>
	<linearGradient id="SVGID_41_" gradientUnits="userSpaceOnUse" x1="42.0223" y1="44.6284" x2="22.8974" y2="76.4576">
		<stop  offset="0" style="stop-color:#EFE1CD"/>
		<stop  offset="1" style="stop-color:#D2B59E"/>
	</linearGradient>
	<polygon class="st74" points="37.89,45.97 34.84,47.73 32.72,48.95 32.72,50.58 33.6,52.77 34.87,51.82 35.93,48.97 37.86,50.08 
		39.21,50.08 43.13,50.08 46.69,48.02 43.13,45.97 	"/>
	<linearGradient id="SVGID_42_" gradientUnits="userSpaceOnUse" x1="42.9647" y1="45.8189" x2="18.0213" y2="57.9846">
		<stop  offset="0" style="stop-color:#EFE1CD"/>
		<stop  offset="1" style="stop-color:#D2B59E"/>
	</linearGradient>
	<polygon class="st75" points="32.75,50.58 34.87,51.82 37.86,50.08 34.84,47.73 32.72,48.95 	"/>
	<polygon class="st76" points="37.89,45.97 34.84,47.73 34.84,48.34 37.86,50.08 43.13,50.08 46.69,48.02 43.13,45.97 	"/>
	<g>
		<linearGradient id="SVGID_43_" gradientUnits="userSpaceOnUse" x1="147.158" y1="120.5201" x2="143.6554" y2="120.5201">
			<stop  offset="0" style="stop-color:#F1E1CD"/>
			<stop  offset="1" style="stop-color:#D2B59E"/>
		</linearGradient>
		<polygon class="st77" points="141.43,113.34 144.99,114 144.94,115.37 146.04,121.69 146.04,127.7 146.04,127.7 141.43,125.04 		
			"/>
		<linearGradient id="SVGID_44_" gradientUnits="userSpaceOnUse" x1="168.4769" y1="94.9183" x2="165.2125" y2="91.6539">
			<stop  offset="0" style="stop-color:#EFE1CD"/>
			<stop  offset="1" style="stop-color:#D2B59E"/>
		</linearGradient>
		<polygon class="st78" points="145.52,112.24 144.43,115.07 144.94,115.37 146.28,113.04 146.39,112.74 173.52,97.07 199.71,81.95 
			199.25,81.68 172.59,97.07 		"/>
	</g>
	<polygon class="st76" points="86.97,22.42 104.19,32.37 104.19,33.51 64.51,56.43 62.8,56.43 60.82,56.43 43.59,46.48 43.59,45.33 
		83.27,22.42 	"/>
	<g>
		<path class="st76" d="M44.52,45.49c0,0-1.9,0.2,0.12,1.37c2.02,1.17,13.25,7.65,14.77,8.53c1.52,0.88,4.78,1.04,8.44-1.07
			c3.66-2.11,33.84-19.54,33.84-19.54c1.81-1.17,1.62-2.38,0.67-3.34c-3.24-1.84-6.48-3.68-9.73-5.51
			C76.59,32.44,60.55,38.97,44.52,45.49z"/>
		<path class="st79" d="M44.62,45.44c0,0-1.82,0.27,0.2,1.44c2.02,1.17,13.02,7.52,14.54,8.4c1.52,0.88,4.8,1.03,8.46-1.08
			c3.66-2.11,33.66-19.44,33.66-19.44c1.73-1.11,1.62-2.38,0.71-3.29c-3.09-1.75-6.6-3.65-9.69-5.4
			C77.23,32.26,59.89,39.22,44.62,45.44z"/>
		<path class="st80" d="M44.72,45.38c0,0-1.74,0.34,0.28,1.51c2.02,1.17,12.79,7.38,14.31,8.26c1.52,0.88,4.82,1.01,8.47-1.1
			c3.66-2.11,33.48-19.34,33.48-19.34c1.64-1.05,1.62-2.37,0.75-3.24c-2.93-1.66-6.71-3.63-9.65-5.29
			C77.87,32.09,59.23,39.48,44.72,45.38z"/>
		<path class="st81" d="M44.83,45.33c0,0-1.66,0.42,0.36,1.58c2.02,1.17,12.56,7.25,14.08,8.13c1.52,0.88,4.83,1,8.49-1.11
			c3.66-2.11,33.3-19.24,33.3-19.24c1.55-1,1.62-2.37,0.8-3.19c-2.78-1.58-6.83-3.6-9.61-5.18C78.51,31.91,58.57,39.74,44.83,45.33z
			"/>
		<path class="st82" d="M44.93,45.27c0,0-1.57,0.49,0.45,1.65c2.02,1.17,12.33,7.12,13.85,8c1.52,0.88,4.85,0.99,8.51-1.13
			c3.66-2.11,33.12-19.14,33.12-19.14c1.47-0.94,1.62-2.36,0.84-3.14c-2.62-1.49-6.94-3.58-9.57-5.07
			C79.14,31.73,57.91,39.99,44.93,45.27z"/>
		<path class="st83" d="M45.03,45.22c0,0-1.49,0.56,0.53,1.73c2.02,1.17,12.1,6.99,13.62,7.87c1.52,0.88,4.87,0.97,8.53-1.14
			c3.66-2.11,32.94-19.04,32.94-19.04c1.38-0.89,1.61-2.36,0.89-3.09c-2.47-1.4-7.06-3.55-9.53-4.95
			C79.78,31.56,57.25,40.25,45.03,45.22z"/>
		<path class="st84" d="M45.13,45.17c0,0-1.41,0.63,0.61,1.8c2.02,1.17,11.87,6.85,13.4,7.73c1.52,0.88,4.89,0.96,8.54-1.15
			c3.66-2.11,32.75-18.94,32.75-18.94c1.3-0.83,1.61-2.35,0.93-3.04c-2.32-1.31-7.17-3.53-9.49-4.84
			C80.42,31.38,56.59,40.51,45.13,45.17z"/>
		<path class="st85" d="M45.24,45.11c0,0-1.32,0.7,0.69,1.87c2.02,1.17,11.64,6.72,13.17,7.6c1.52,0.88,4.9,0.95,8.56-1.17
			c3.66-2.11,32.57-18.84,32.57-18.84c1.21-0.78,1.61-2.35,0.97-2.99c-2.16-1.23-7.29-3.5-9.45-4.73
			C81.06,31.2,55.93,40.76,45.24,45.11z"/>
		<path class="st86" d="M45.34,45.06c0,0-1.24,0.78,0.78,1.94c2.02,1.17,11.41,6.59,12.94,7.47c1.52,0.88,4.92,0.93,8.58-1.18
			c3.66-2.11,32.39-18.75,32.39-18.75c1.12-0.72,1.61-2.35,1.02-2.94c-2.01-1.14-7.4-3.48-9.41-4.62
			C81.7,31.02,55.27,41.02,45.34,45.06z"/>
		<path class="st87" d="M45.44,45.01c0,0-1.16,0.85,0.86,2.01c2.02,1.17,11.18,6.46,12.71,7.34c1.52,0.88,4.94,0.92,8.6-1.2
			c3.66-2.11,32.21-18.65,32.21-18.65c1.04-0.67,1.61-2.34,1.06-2.89c-1.85-1.05-7.52-3.46-9.37-4.51
			C82.34,30.85,54.6,41.28,45.44,45.01z"/>
		<path class="st88" d="M45.54,44.95c0,0-1.08,0.92,0.94,2.09c2.02,1.17,10.96,6.33,12.48,7.2c1.52,0.88,4.96,0.9,8.61-1.21
			c3.66-2.11,32.03-18.55,32.03-18.55c0.95-0.61,1.6-2.34,1.1-2.84c-1.7-0.96-7.63-3.43-9.33-4.39
			C82.98,30.67,53.94,41.53,45.54,44.95z"/>
		<path class="st89" d="M45.65,44.9c0,0-0.99,0.99,1.03,2.16c2.02,1.17,10.73,6.19,12.25,7.07c1.52,0.88,4.97,0.89,8.63-1.22
			c3.66-2.11,31.85-18.45,31.85-18.45c0.86-0.56,1.6-2.33,1.15-2.79c-1.54-0.88-7.75-3.41-9.29-4.28
			C83.62,30.49,53.28,41.79,45.65,44.9z"/>
		<path class="st90" d="M45.75,44.84c0,0-0.91,1.06,1.11,2.23c2.02,1.17,10.5,6.06,12.02,6.94c1.52,0.88,4.99,0.88,8.65-1.24
			c3.66-2.11,31.67-18.35,31.67-18.35c0.78-0.5,1.6-2.33,1.19-2.74c-1.39-0.79-7.87-3.38-9.25-4.17
			C84.25,30.31,52.62,42.05,45.75,44.84z"/>
		<path class="st91" d="M45.85,44.79c0,0-0.83,1.13,1.19,2.3c2.02,1.17,10.27,5.93,11.79,6.81c1.52,0.88,5.01,0.86,8.67-1.25
			c3.66-2.11,31.49-18.25,31.49-18.25c0.69-0.44,1.6-2.32,1.23-2.69c-1.24-0.7-7.98-3.36-9.22-4.06
			C84.89,30.14,51.96,42.31,45.85,44.79z"/>
		<path class="st92" d="M45.95,44.74c0,0-0.75,1.21,1.27,2.37c2.02,1.17,10.04,5.8,11.56,6.67c1.52,0.88,5.03,0.85,8.68-1.27
			c3.66-2.11,31.3-18.15,31.3-18.15c0.6-0.39,1.59-2.32,1.28-2.64c-1.08-0.61-8.1-3.33-9.18-3.95
			C85.53,29.96,51.3,42.56,45.95,44.74z"/>
		<path class="st93" d="M46.06,44.68c0,0-0.66,1.28,1.36,2.44c2.02,1.17,9.81,5.66,11.33,6.54c1.52,0.88,5.04,0.83,8.7-1.28
			c3.66-2.11,31.12-18.05,31.12-18.05c0.52-0.33,1.59-2.31,1.32-2.59c-0.93-0.53-8.21-3.31-9.14-3.83
			C86.17,29.78,50.64,42.82,46.06,44.68z"/>
		<path class="st94" d="M46.16,44.63c0,0-0.58,1.35,1.44,2.52s9.58,5.53,11.1,6.41c1.52,0.88,5.06,0.82,8.72-1.29
			c3.66-2.11,30.94-17.95,30.94-17.95c0.43-0.28,1.59-2.31,1.36-2.54c-0.77-0.44-8.33-3.28-9.1-3.72
			C86.81,29.6,49.98,43.08,46.16,44.63z"/>
		<path class="st95" d="M46.26,44.58c0,0-0.5,1.42,1.52,2.59c2.02,1.17,9.35,5.4,10.87,6.28c1.52,0.88,5.08,0.81,8.74-1.31
			c3.66-2.11,30.76-17.85,30.76-17.85c0.35-0.22,1.59-2.3,1.41-2.49c-0.62-0.35-8.44-3.26-9.06-3.61
			C87.45,29.43,49.32,43.33,46.26,44.58z"/>
		<path class="st96" d="M46.36,44.52c0,0-0.41,1.49,1.6,2.66c2.02,1.17,9.12,5.27,10.64,6.15c1.52,0.88,5.1,0.79,8.76-1.32
			c3.66-2.11,30.58-17.75,30.58-17.75c0.26-0.17,1.59-2.3,1.45-2.43c-0.46-0.26-8.56-3.24-9.02-3.5
			C88.09,29.25,48.66,43.59,46.36,44.52z"/>
		<path class="st97" d="M46.47,44.47c0,0-0.33,1.57,1.69,2.73s8.89,5.13,10.41,6.01c1.52,0.88,5.11,0.78,8.77-1.34
			c3.66-2.11,30.4-17.65,30.4-17.65c0.17-0.11,1.58-2.29,1.49-2.38c-0.31-0.18-8.67-3.21-8.98-3.39
			C88.72,29.07,47.99,43.85,46.47,44.47z"/>
		<path class="st51" d="M46.57,44.41c0,0-0.25,1.64,1.77,2.8s8.66,5,10.18,5.88c1.52,0.88,5.13,0.76,8.79-1.35
			c3.66-2.11,30.22-17.56,30.22-17.56c0.09-0.06,1.58-2.29,1.54-2.33c-0.15-0.09-8.79-3.19-8.94-3.27
			C89.36,28.9,47.33,44.1,46.57,44.41z"/>
		<path class="st53" d="M46.67,44.36c0,0-0.17,1.71,1.85,2.88c2.02,1.17,8.43,4.87,9.96,5.75c1.52,0.88,5.15,0.75,8.81-1.36
			c3.66-2.11,30.04-17.46,30.04-17.46l1.58-2.28L90,28.72L46.67,44.36z"/>
	</g>
	<g>
		<polygon class="st54" points="42.64,40.28 42.64,41.42 44.13,39.84 44.13,39.41 		"/>
		<polygon class="st22" points="42.64,41.42 59.86,51.37 59.86,54.78 42.64,44.83 		"/>
		<linearGradient id="SVGID_45_" gradientUnits="userSpaceOnUse" x1="61.6051" y1="58.3822" x2="63.7761" y2="73.8297">
			<stop  offset="0" style="stop-color:#EFE1CD"/>
			<stop  offset="1" style="stop-color:#D6BAA0"/>
		</linearGradient>
		<rect x="59.86" y="51.37" class="st98" width="1.99" height="3.41"/>
		<linearGradient id="SVGID_46_" gradientUnits="userSpaceOnUse" x1="78.2188" y1="35.5945" x2="88.6656" y2="53.6888">
			<stop  offset="0" style="stop-color:#EFE1CD"/>
			<stop  offset="1" style="stop-color:#D2B59E"/>
		</linearGradient>
		<polygon class="st99" points="61.85,51.37 101.54,28.46 101.54,31.87 61.85,54.78 		"/>
		<polygon class="st25" points="83.69,18.23 82.95,18.23 44.13,40.64 44.13,41.07 60.48,50.51 61.22,50.51 100.04,28.1 
			100.03,27.67 		"/>
		<polygon class="st22" points="61.85,51.37 59.86,51.37 60.48,49.28 61.22,49.28 		"/>
		<polygon class="st22" points="61.85,51.37 101.54,28.46 100.03,26.87 61.22,49.28 		"/>
		<polygon class="st22" points="101.54,27.31 101.54,28.46 100.03,26.87 100.03,26.44 		"/>
		<polygon class="st54" points="42.64,41.42 59.86,51.37 60.48,49.28 56.11,43.88 44.13,39.84 		"/>
		<polygon class="st54" points="42.64,40.27 42.64,41.42 44.13,39.84 44.13,39.41 		"/>
		<polygon class="st54" points="83.69,17 82.95,17 44.13,39.41 44.13,39.84 60.48,49.28 61.22,49.28 100.04,26.87 100.03,26.44 		
			"/>
	</g>
	<polygon class="st61" points="142.82,127.7 104.12,105.36 104.12,92.89 142.82,115.24 	"/>
	<polygon class="st62" points="142.82,115.24 104.12,92.89 106.55,88.65 145.25,111 	"/>
	<linearGradient id="SVGID_47_" gradientUnits="userSpaceOnUse" x1="177.2156" y1="64.5125" x2="180.0289" y2="75.012">
		<stop  offset="0" style="stop-color:#EFE1CD"/>
		<stop  offset="1" style="stop-color:#D2B59E"/>
	</linearGradient>
	<polygon class="st100" points="202.38,83.49 157.97,57.85 154.87,56.03 199.27,81.67 	"/>
	<path class="st64" d="M145.25,111l-38.7-22.34c18.23-10.52,36.46-21.05,54.69-31.57l38.7,22.34l-1.71,0.99l-1.71,0.99l-1.71,0.99
		l-1.71,0.99l-1.71,0.99l-1.71,0.99l-1.71,0.99l-1.71,0.99l-1.71,0.99l-1.71,0.99l-1.71,0.99l-1.71,0.99l-1.71,0.99l-1.71,0.99
		l-1.71,0.99l-1.71,0.99l-1.71,0.99l-1.71,0.99l-1.71,0.99l-1.71,0.99l-1.71,0.99l-1.71,0.99l-1.71,0.99l-1.71,0.99l-1.71,0.99
		l-1.71,0.99l-1.71,0.99l-1.71,0.99l-1.71,0.99l-1.71,0.99l-1.71,0.99L145.25,111z"/>
	<path class="st65" d="M142.82,127.7v-12.47l2.43-4.24c18.23-10.52,36.46-21.05,54.69-31.57l2.43,1.43v2.64l-3.11-1.82
		c-17.78,10.27-35.56,20.53-53.35,30.8l-0.76,1.33l-0.73,1.27v11.7L142.82,127.7z"/>
	<linearGradient id="SVGID_48_" gradientUnits="userSpaceOnUse" x1="42.4653" y1="42.6198" x2="22.881" y2="75.2134">
		<stop  offset="0" style="stop-color:#EFE1CD"/>
		<stop  offset="1" style="stop-color:#D2B59E"/>
	</linearGradient>
	<polygon class="st101" points="32.72,50.58 34.88,51.81 34.88,63.51 32.72,62.27 	"/>
	<polygon class="st17" points="210.47,99.86 152.36,133.41 152.36,138.6 210.47,105.06 	"/>
	<polygon class="st16" points="148.8,111.31 152.36,113.37 152.36,237.26 148.8,235.2 	"/>
	<polygon class="st18" points="165.68,189.25 151.99,197.16 154.28,198.48 167.98,190.58 	"/>
	<polygon class="st17" points="209.32,164.06 165.68,189.25 167.98,190.58 182.95,184.58 211.61,165.38 	"/>
	<g>
		<polygon class="st17" points="211.61,90.04 154.28,123.14 154.28,120.49 201,92.34 211.61,87.39 		"/>
		<polygon class="st18" points="209.32,86.06 151.99,119.16 154.28,120.49 211.61,87.39 		"/>
	</g>
	<polygon class="st17" points="211.61,168.03 154.28,201.13 154.28,198.48 211.61,165.38 	"/>
	<linearGradient id="SVGID_49_" gradientUnits="userSpaceOnUse" x1="149.6263" y1="157.4255" x2="170.5702" y2="235.5893">
		<stop  offset="0" style="stop-color:#DFB18C"/>
		<stop  offset="1" style="stop-color:#DBAC87"/>
	</linearGradient>
	<polygon class="st102" points="155.92,111.31 152.36,113.37 152.36,237.26 155.92,235.2 	"/>
	<path class="st18" d="M27.75,37.31l-3.56,2.06l3.56,2.06l3.56-2.06L27.75,37.31L27.75,37.31z M152.36,109.26l-3.56,2.06l3.56,2.06
		l3.56-2.06L152.36,109.26L152.36,109.26z M87.64,2.74L84.08,4.8l3.56,2.06L91.2,4.8L87.64,2.74L87.64,2.74z M212.25,74.69
		l-3.56,2.06l3.56,2.06l3.56-2.06L212.25,74.69z"/>
	<polygon class="st16" points="154.86,45.66 87.64,6.85 86.71,7.69 87.64,9.5 154.86,48.31 	"/>
	<polygon class="st18" points="91.2,4.8 87.64,6.85 154.86,45.66 158.42,43.61 	"/>
	<polygon class="st16" points="152.56,54.73 152.56,44.34 154.86,45.66 154.86,56.06 	"/>
</g>
</svg>
