<?xml version="1.0" encoding="utf-8"?>
<!-- Generator: Adobe Illustrator 25.3.1, SVG Export Plug-In . SVG Version: 6.00 Build 0)  -->
<svg version="1.1" id="圖層_1" xmlns="http://www.w3.org/2000/svg" xmlns:xlink="http://www.w3.org/1999/xlink" x="0px" y="0px"
	 viewBox="0 0 240 240" style="enable-background:new 0 0 240 240;" xml:space="preserve">
<style type="text/css">
	.st0{fill:#E3E0DB;}
	.st1{fill:#DDD9D3;}
	.st2{fill:#C2BBB1;}
	.st3{fill:#00363A;}
	.st4{fill:#005359;}
	.st5{fill:#C6BFB5;}
	.st6{fill:#008993;}
	.st7{fill:#006F77;}
	.st8{fill:#4F5E51;}
	.st9{fill:#00717A;}
	.st10{fill:#E0DDD8;}
	.st11{fill:#9C9281;}
	.st12{fill:#C3BFB3;}
	.st13{fill:url(#XMLID_2_);}
	.st14{fill:url(#XMLID_3_);}
</style>
<g id="XMLID_4282_">
	<g id="XMLID_4222_">
		<polygon id="XMLID_4148_" class="st0" points="222.08,68.05 140.23,115.3 17.92,52.96 99.77,5.71 		"/>
		<path id="XMLID_4281_" class="st1" d="M156.44,68.54l-7.85,4.53c-5.68,3.28-12.64,3.46-18.48,0.48L83.8,49.95
			c-3.58-1.83-3.71-6.89-0.23-8.9l7.85-4.53c5.68-3.28,12.64-3.46,18.48-0.48l46.31,23.6C159.79,61.46,159.92,66.53,156.44,68.54z"
			/>
		<path id="XMLID_4286_" class="st2" d="M156.2,63.87l-46.31-23.6c-5.84-2.98-12.8-2.8-18.48,0.48l-7.85,4.53
			c-0.97,0.56-1.63,1.36-2.04,2.26c-1.01-2.23-0.38-5.09,2.04-6.49l7.85-4.53c5.68-3.28,12.64-3.46,18.48-0.48l46.31,23.6
			c2.59,1.32,3.34,4.32,2.27,6.64C158.03,65.3,157.3,64.42,156.2,63.87z"/>
		<polygon id="XMLID_4196_" class="st3" points="129.22,191.88 6.92,129.54 18.73,171.95 141.03,234.29 		"/>
		<polygon id="XMLID_4243_" class="st4" points="129.22,191.88 6.92,129.54 9.28,136.55 131.58,198.89 		"/>
		<polygon id="XMLID_4251_" class="st4" points="96.82,170.17 108.87,175.73 110.87,192.73 99.88,187.06 		"/>
		<polygon id="XMLID_4247_" class="st4" points="24.95,133.61 37.01,139.17 39.01,156.17 28.01,150.5 		"/>
	</g>
	<g id="XMLID_4242_">
		<polygon id="XMLID_4262_" class="st5" points="234.55,131.07 127.75,192.73 140.23,115.3 222.08,68.05 		"/>
		<polygon id="XMLID_4261_" class="st6" points="233.08,131.92 129.22,191.88 141.03,234.29 221.27,187.96 		"/>
		<polygon id="XMLID_4246_" class="st7" points="130.89,197.86 129.22,191.88 233.08,131.92 231.41,139.82 		"/>
		<polygon id="XMLID_4362_" class="st8" points="138.37,184.85 138.53,185.41 139.54,189.01 139.57,189.06 140.61,192.63 
			142.34,198.63 143.38,202.2 143.38,202.25 144.4,205.85 148.1,218.65 214.19,180.5 217.89,163.41 218.9,158.64 221.68,145.85 
			222.72,141.05 223.92,135.45 222.8,129.8 222.05,126.04 220.05,115.99 219.33,112.21 217.3,102.16 216.58,98.4 213.92,84.99 
			204.88,90.21 201.23,92.32 191.45,97.97 187.79,100.08 178.04,105.7 174.39,107.81 164.63,113.46 160.95,115.56 151.19,121.22 
			148.37,122.84 147.54,128.01 146.48,134.62 145.73,139.24 145.73,139.32 144.98,143.93 143.73,151.58 142.98,156.24 
			142.98,156.27 142.24,160.91 141.01,168.59 140.26,173.2 140.26,173.28 139.52,177.89 		"/>
		<polygon id="XMLID_4285_" class="st9" points="200.78,175.89 204.47,158.82 205.49,154.05 208.26,141.24 209.3,136.46 
			210.5,130.86 209.37,125.21 208.63,121.45 206.64,111.39 205.91,107.61 203.9,97.56 203.16,93.8 202.7,91.47 213.92,84.99 
			216.57,98.4 217.31,102.16 219.32,112.2 220.06,115.99 222.04,126.05 222.78,129.81 223.92,135.46 222.71,141.05 221.68,145.84 
			218.91,158.65 217.89,163.42 214.2,180.49 148.1,218.65 145.05,208.07 		"/>
		<path id="XMLID_4288_" class="st10" d="M147.54,184.39v11.22l-5.2,3.01l1.04,3.57l4.16-2.4v14.93l3.65-2.11v-14.95l9.76-5.63V207
			l3.68-2.11v-14.95l9.76-5.65v14.95l3.65-2.11v-14.96l9.76-5.62v14.96l3.65-2.13v-14.95l9.78-5.62v14.95l3.65-2.11v-14.96
			l8.08-4.66l1.01-4.77l-9.09,5.25v-11.22l11.86-6.82l1.04-4.8l-12.9,7.44v-11.2l12.96-7.49l-0.75-3.76l-12.21,7.06v-11.2
			l10.24-5.92l-0.75-3.79l-9.49,5.49v-11.22l7.49-4.32l-0.75-3.76l-6.74,3.89V90.21l-3.65,2.11v10.72l-9.78,5.62V97.97l-3.65,2.11
			v10.69l-9.76,5.65V105.7l-3.65,2.11v10.72l-9.76,5.62v-10.69l-3.68,2.11v10.69l-9.76,5.65v-10.69l-2.83,1.63l-0.83,5.17v6
			l-1.07,0.61l-0.75,4.61l1.81-1.04v11.2l-3.81,2.19l-0.75,4.66l4.56-2.64v11.22l-6.53,3.76l-0.75,4.61l7.28-4.19v11.2l-9.01,5.2
			l1.01,3.6L147.54,184.39z M191.45,159.04l9.78-5.62v11.2l-9.78,5.62V159.04z M191.45,143.66l9.78-5.65v11.22l-9.78,5.62V143.66z
			 M191.45,128.25l9.78-5.62v11.2l-9.78,5.65V128.25z M191.45,112.84l9.78-5.62v11.2l-9.78,5.63V112.84z M178.04,166.8l9.76-5.65
			v11.22l-9.76,5.62V166.8z M178.04,151.39l9.76-5.62v11.2l-9.76,5.65V151.39z M178.04,136.01l9.76-5.62v11.2l-9.76,5.62V136.01z
			 M178.04,120.6l9.76-5.65v11.22l-9.76,5.62V120.6z M164.63,174.53l9.76-5.63v11.2l-9.76,5.65V174.53z M164.63,159.15l9.76-5.62
			v11.2l-9.76,5.62V159.15z M164.63,143.77l9.76-5.65v11.22l-9.76,5.62V143.77z M164.63,128.33l9.76-5.62v11.2l-9.76,5.65V128.33z
			 M151.19,182.29l9.76-5.62v11.2l-9.76,5.62V182.29z M151.19,166.91l9.76-5.65v11.22l-9.76,5.62V166.91z M151.19,151.5l9.76-5.62
			v11.2l-9.76,5.65V151.5z M151.19,136.09l9.76-5.65v11.22l-9.76,5.62V136.09z"/>
	</g>
	<polygon id="XMLID_4152_" class="st11" points="17.92,52.96 140.23,115.3 127.75,192.73 5.45,130.39 	"/>
	<polygon id="XMLID_4253_" class="st12" points="94.86,167.91 106.92,173.48 108.92,190.47 105.92,191.76 91.86,169.2 	"/>
	<polygon id="XMLID_4252_" class="st12" points="23,131.35 35.05,136.92 37.05,153.91 34.05,155.2 19.99,132.64 	"/>
	<g id="XMLID_4238_">
		<polygon id="XMLID_4237_" class="st8" points="108.92,168.03 110.94,169.2 117.44,126.42 115.42,125.25 		"/>
		<polygon id="XMLID_4239_" class="st8" points="104.65,165.64 106.67,166.81 113.18,124.03 111.16,122.87 		"/>
		<polygon id="XMLID_4240_" class="st8" points="100.39,163.25 102.41,164.42 108.92,121.64 106.9,120.48 		"/>
		<polygon id="XMLID_4241_" class="st8" points="96.12,160.87 98.14,162.03 104.65,119.26 102.63,118.09 		"/>
		<polygon id="XMLID_4248_" class="st8" points="91.86,158.48 93.88,159.65 100.39,116.87 98.37,115.7 		"/>
	</g>
	<g id="XMLID_4268_">
		<polygon id="XMLID_4273_" class="st8" points="77.54,152.16 79.56,153.32 86.07,110.55 84.05,109.38 		"/>
		<polygon id="XMLID_4272_" class="st8" points="73.28,149.77 75.3,150.94 81.81,108.16 79.79,106.99 		"/>
		<polygon id="XMLID_4271_" class="st8" points="69.02,147.38 71.04,148.55 77.54,105.77 75.52,104.61 		"/>
		<polygon id="XMLID_4270_" class="st8" points="64.75,144.99 66.77,146.16 73.28,103.38 71.26,102.22 		"/>
		<polygon id="XMLID_4269_" class="st8" points="60.49,142.61 62.51,143.77 69.02,101 67,99.83 		"/>
	</g>
	<g id="XMLID_4250_">
		<polygon id="XMLID_4267_" class="st8" points="47.56,136.6 49.58,137.76 56.09,94.99 54.07,93.82 		"/>
		<polygon id="XMLID_4266_" class="st8" points="43.3,134.21 45.32,135.38 51.83,92.6 49.81,91.43 		"/>
		<polygon id="XMLID_4265_" class="st8" points="39.04,131.82 41.06,132.99 47.56,90.21 45.54,89.05 		"/>
		<polygon id="XMLID_4264_" class="st8" points="34.77,129.44 36.79,130.6 43.3,87.83 41.28,86.66 		"/>
		<polygon id="XMLID_4256_" class="st8" points="30.51,127.05 32.53,128.21 39.04,85.44 37.02,84.27 		"/>
	</g>
	<polygon id="XMLID_4249_" class="st11" points="91.86,169.2 103.92,174.76 105.92,191.76 94.92,186.09 	"/>
	<polygon id="XMLID_4275_" class="st11" points="19.99,132.64 32.05,138.2 34.05,155.2 23.05,149.53 	"/>
	<g id="XMLID_4274_">
		<g id="XMLID_4279_">
			<path id="XMLID_4280_" class="st11" d="M140.7,71.23l-3.93-1.92V53.8c0-1.78-0.96-3.45-2.51-4.33l-32.77-18.78
				c-0.97-0.56-2.12-0.55-3.08,0.01c-0.96,0.56-1.54,1.56-1.54,2.67v14.7l-3.92-2.29V33.35c0-2.53,1.31-4.8,3.49-6.06
				c2.19-1.27,4.81-1.27,7-0.02l32.77,18.78c2.77,1.58,4.49,4.55,4.49,7.74V71.23z"/>
		</g>
		<g id="XMLID_4276_">
			
				<linearGradient id="XMLID_2_" gradientUnits="userSpaceOnUse" x1="-3480.3909" y1="32.6766" x2="-3473.2097" y2="45.1147" gradientTransform="matrix(1 0 0 1 3575.3567 0)">
				<stop  offset="0.1613" style="stop-color:#B3B3B3"/>
				<stop  offset="0.1633" style="stop-color:#C5C5C5"/>
				<stop  offset="0.5593" style="stop-color:#C5C5C5"/>
				<stop  offset="0.5622" style="stop-color:#D0D0D0"/>
				<stop  offset="0.8728" style="stop-color:#D0D0D0"/>
				<stop  offset="0.8739" style="stop-color:#C3C3C3"/>
			</linearGradient>
			<path id="XMLID_4278_" class="st13" d="M98.41,30.69c-0.96,0.56-1.54,1.56-1.54,2.67v14.7l3.5-1.92v-14.7
				c0-0.38,0.09-0.74,0.22-1.08C99.86,30.19,99.09,30.29,98.41,30.69z"/>
			
				<linearGradient id="XMLID_3_" gradientUnits="userSpaceOnUse" x1="-3437.1204" y1="70.19" x2="-3467.3054" y2="17.9082" gradientTransform="matrix(1 0 0 1 3575.3567 0)">
				<stop  offset="0.4047" style="stop-color:#C5C5C5"/>
				<stop  offset="0.4065" style="stop-color:#D0D0D0"/>
				<stop  offset="0.945" style="stop-color:#D0D0D0"/>
				<stop  offset="0.9461" style="stop-color:#C3C3C3"/>
			</linearGradient>
			<path id="XMLID_4277_" class="st14" d="M139.71,44.13l-32.77-18.78c-2.19-1.26-4.81-1.25-7,0.02c-1.46,0.84-3.16,1.36-4.14,2.35
				c0.21-0.15,0.42-0.3,0.64-0.43c2.19-1.27,4.81-1.27,7-0.02l32.77,18.78c2.77,1.58,4.49,4.55,4.49,7.74v17.44l3.5-1.92V51.87
				C144.2,48.68,142.48,45.72,139.71,44.13z"/>
		</g>
	</g>
</g>
</svg>
