<?xml version="1.0" encoding="utf-8"?>
<!-- Generator: Adobe Illustrator 25.3.1, SVG Export Plug-In . SVG Version: 6.00 Build 0)  -->
<svg version="1.1" id="圖層_1" xmlns="http://www.w3.org/2000/svg" xmlns:xlink="http://www.w3.org/1999/xlink" x="0px" y="0px"
	 viewBox="0 0 240 240" style="enable-background:new 0 0 240 240;" xml:space="preserve">
<style type="text/css">
	.st0{fill:#848EA0;}
	.st1{fill:#A0A8BA;}
	.st2{fill:#606D7C;}
	.st3{fill:#A8EFE7;}
	.st4{fill:#CCFFF9;}
	.st5{fill:#8AC4BD;}
</style>
<g>
	<g>
		<path class="st0" d="M221.88,147.63l-115.47,66.67c-2.31,1.33-6.35,1.17-9.01-0.37l-78.64-45.4c-2.67-1.54-2.96-3.87-0.65-5.2
			l115.47-66.67c2.31-1.33,6.35-1.17,9.01,0.37l78.64,45.4C223.9,143.96,224.19,146.29,221.88,147.63z"/>
		<polygon class="st0" points="223.44,110.44 16.56,124 16.56,165.62 223.44,144.95 		"/>
		<path class="st1" d="M231.37,106.76l-123.9,71.53c-2.66,1.53-7.3,1.34-10.37-0.43L9.38,127.22c-3.07-1.77-3.4-4.45-0.74-5.99
			l123.9-71.53c2.66-1.53,7.3-1.34,10.37,0.43l87.72,50.65C233.69,102.55,234.03,105.23,231.37,106.76z"/>
		<g>
			<path class="st2" d="M142.6,91.76l52.11,30.08l27.18-15.69c2.31-1.33,2.02-3.66-0.65-5.2l-78.64-45.4
				c-2.67-1.54-6.7-1.71-9.01-0.37L18.12,121.84c-2.31,1.33-2.02,3.66,0.65,5.2l26.53,15.32l88.29-50.97
				C135.9,90.06,139.93,90.22,142.6,91.76z"/>
			<path class="st0" d="M106.41,172.82l88.29-50.97L142.6,91.76c-2.67-1.54-6.7-1.71-9.01-0.37L45.3,142.36l52.11,30.08
				C100.07,173.99,104.1,174.15,106.41,172.82z"/>
		</g>
	</g>
	<g>
		<path class="st3" d="M221.12,106.6l-114.4,66.12c-2.26,1.3-6.2,1.14-8.81-0.37l-79.15-45.3c0.12-0.74-0.61-2.86,1.64-4.16
			l112.87-65.17c2.26-1.3,6.2-1.14,8.81,0.37l76.87,44.38C221.57,103.97,220.17,105.05,221.12,106.6z"/>
		<polygon class="st3" points="221.12,85.2 18.88,98.45 18.76,127.04 221.12,106.6 		"/>
		<path class="st4" d="M228.86,81.6l-121.11,69.93c-2.6,1.5-7.14,1.31-10.14-0.42L11.86,101.6c-3-1.73-3.33-4.35-0.73-5.85
			l121.11-69.92c2.6-1.5,7.14-1.31,10.14,0.42l85.75,49.51C231.14,77.48,231.46,80.1,228.86,81.6z"/>
		<g>
			<path class="st5" d="M142.09,66.94l50.93,29.41L219.59,81c2.26-1.3,1.97-3.58-0.63-5.09l-76.87-44.38
				c-2.61-1.51-6.55-1.67-8.81-0.36L20.41,96.34c-2.26,1.3-1.97,3.58,0.63,5.09l25.94,14.97l86.3-49.83
				C135.54,65.27,139.48,65.43,142.09,66.94z"/>
			<path class="st3" d="M106.72,146.17l86.3-49.83l-50.93-29.41c-2.61-1.51-6.55-1.67-8.81-0.36l-86.3,49.83l50.93,29.41
				C100.52,147.31,104.46,147.48,106.72,146.17z"/>
		</g>
	</g>
</g>
</svg>
