<?xml version="1.0" encoding="utf-8"?>
<!-- Generator: Adobe Illustrator 25.3.1, SVG Export Plug-In . SVG Version: 6.00 Build 0)  -->
<svg version="1.1" id="圖層_1" xmlns="http://www.w3.org/2000/svg" xmlns:xlink="http://www.w3.org/1999/xlink" x="0px" y="0px"
	 viewBox="0 0 240 240" style="enable-background:new 0 0 240 240;" xml:space="preserve">
<style type="text/css">
	.st0{fill:#B7BDCE;}
	.st1{fill:#66564B;}
	.st2{fill:#622C2A;}
	.st3{fill:#91725D;}
	.st4{fill:#A0A8BA;}
	.st5{fill:#EDC7AE;}
	.st6{fill:#FFFFFF;}
	.st7{fill:#D8A684;}
</style>
<g>
	<path class="st0" d="M133.56,11.21c-4.58-1.23-9.32,2.32-14.08,10.56c-0.22,0.39-0.45,0.82-0.67,1.23v5.66
		c0.95-2.04,1.92-3.91,2.89-5.6c2.82-4.88,7.05-10.48,11.19-9.37c7.39,1.98,14.85,25.39,14.85,73.21v99h2.57v-99
		C150.31,42.32,144.05,14.02,133.56,11.21z"/>
	<path class="st0" d="M107.63,11.21c4.58-1.23,9.32,2.32,14.08,10.56c0.22,0.39,0.45,0.82,0.67,1.23v5.66
		c-0.95-2.04-1.92-3.91-2.89-5.6c-2.82-4.88-7.05-10.48-11.19-9.37c-7.39,1.98-14.85,25.39-14.85,73.21v99h-2.57v-99
		C90.88,42.32,97.14,14.02,107.63,11.21z"/>
	<path class="st0" d="M168.06,61.33V187.4h2.57V61.33c0-19.47-6.46-34.37-17.73-40.87c-9.33-5.39-21.16-4.52-33.31,2.45v3
		c0.38-0.23,0.76-0.48,1.14-0.7c6.53-3.77,12.93-5.67,18.81-5.67c4.36,0,8.43,1.04,12.07,3.14
		C162.07,28.71,168.06,42.8,168.06,61.33z"/>
	<path class="st0" d="M72.13,61.33V187.4h-2.57V61.33c0-19.47,6.46-34.37,17.73-40.87c9.33-5.39,21.16-4.52,33.3,2.45v3
		c-0.38-0.23-0.76-0.48-1.14-0.7c-6.53-3.77-12.93-5.67-18.81-5.67c-4.36,0-8.43,1.04-12.07,3.14
		C78.13,28.71,72.13,42.8,72.13,61.33z"/>
	<ellipse class="st1" cx="120" cy="197.12" rx="58.25" ry="32.78"/>
	<rect x="61.75" y="190.83" class="st2" width="116.5" height="6.78"/>
	<ellipse class="st3" cx="120" cy="191.48" rx="58.25" ry="32.78"/>
	<g>
		<path class="st4" d="M64.51,192.75V82.29c0-30.65,24.94-55.59,55.58-55.59s55.58,24.94,55.58,55.59v110.46h2.57V82.29
			c0-32.07-26.09-58.15-58.15-58.15c-32.07,0-58.15,26.09-58.15,58.15v110.46H64.51z"/>
	</g>
	<g>
		<polygon class="st5" points="171.6,161.82 72.15,104.4 72.15,96.37 174.61,155.52 		"/>
		<path class="st6" d="M114.01,53.89c0,0.4-0.28,0.72-0.63,0.72s-0.63-0.32-0.63-0.72c0-0.4,0.28-0.72,0.63-0.72
			S114.01,53.49,114.01,53.89z"/>
	</g>
	<path class="st7" d="M175.61,157.73c-0.05,1.75-1.15,3.61-2.48,4.14c-1.32,0.53-2.36-0.46-2.31-2.21c0.05-1.75,1.15-3.61,2.48-4.14
		C174.61,154.99,175.65,155.97,175.61,157.73z"/>
	<g>
		<rect x="118.81" y="10.1" class="st4" width="2.57" height="213.04"/>
	</g>
	<path class="st4" d="M93.45,218.92V185.4c0-58.61,11.14-126.27,25.37-156.75V23c-15.46,28.22-27.94,100.39-27.94,162.4v33.52H93.45
		z"/>
	<path class="st4" d="M147.75,218.58V185.4c0-57.87-10.86-124.57-24.83-155.58c-0.18-0.4-1.99-4.23-2.17-4.62
		c0,0,2.71-0.2,3.24,0.88c14.72,30.12,26.34,99.45,26.34,159.31v33.18H147.75z"/>
	<path class="st4" d="M120.74,22.98c27.51,15.88,49.89,58.6,49.89,95.21v88.6h-2.57v-88.6c0-35.29-21.19-76.31-47.47-92.29v-3
		C120.65,22.93,120.69,22.95,120.74,22.98z"/>
	<path class="st4" d="M119.46,22.98c-27.51,15.88-49.89,58.6-49.89,95.21v88.66h2.57V118.2c0-35.29,21.19-76.31,47.47-92.29v-3
		C119.55,22.93,119.5,22.95,119.46,22.98z"/>
	<ellipse class="st4" cx="63.24" cy="192.75" rx="1.3" ry="0.66"/>
	<path class="st4" d="M72.16,206.85c0,0.36-0.58,0.66-1.3,0.66c-0.72,0-1.3-0.29-1.3-0.66c0-0.36,0.58-0.66,1.3-0.66
		C71.58,206.2,72.16,206.49,72.16,206.85z"/>
	<path class="st4" d="M93.47,218.92c0,0.36-0.58,0.66-1.3,0.66c-0.72,0-1.3-0.29-1.3-0.66c0-0.36,0.58-0.66,1.3-0.66
		C92.89,218.27,93.47,218.56,93.47,218.92z"/>
	<path class="st4" d="M121.39,223.14c0,0.36-0.58,0.66-1.3,0.66c-0.72,0-1.3-0.29-1.3-0.66c0-0.36,0.58-0.66,1.3-0.66
		C120.81,222.48,121.39,222.78,121.39,223.14z"/>
	<path class="st4" d="M150.31,218.58c0,0.36-0.58,0.66-1.3,0.66c-0.72,0-1.3-0.29-1.3-0.66c0-0.36,0.58-0.66,1.3-0.66
		C149.73,217.92,150.31,218.22,150.31,218.58z"/>
	<path class="st4" d="M170.63,206.8c0,0.36-0.58,0.66-1.3,0.66c-0.72,0-1.3-0.29-1.3-0.66c0-0.36,0.58-0.66,1.3-0.66
		C170.05,206.14,170.63,206.44,170.63,206.8z"/>
	<path class="st4" d="M178.25,192.75c0,0.36-0.58,0.66-1.3,0.66c-0.72,0-1.3-0.29-1.3-0.66c0-0.36,0.58-0.66,1.3-0.66
		C177.67,192.09,178.25,192.39,178.25,192.75z"/>
</g>
</svg>
